<?xml version="1.0" standalone="no" ?>
<!DOCTYPE svg PUBLIC "-//W3C//DTD SVG 1.1//EN" "http://www.w3.org/Graphics/SVG/1.1/DTD/svg11.dtd">
<svg width="2000px" height="2000px" xmlns="http://www.w3.org/2000/svg" version="1.1" >
	<line x1="352.898" y1="1366.3" x2="150" y2="1366.3" stroke-width="1" stroke="rgb(0,0,0)" />
	<line x1="150" y1="1366.3" x2="150" y2="1569.2" stroke-width="1" stroke="rgb(0,0,0)" />
	<line x1="150" y1="1569.2" x2="352.898" y2="1569.2" stroke-width="1" stroke="rgb(0,0,0)" />
	<line x1="352.898" y1="1569.2" x2="352.898" y2="1366.3" stroke-width="1" stroke="rgb(0,0,0)" />
	<line x1="229.28" y1="1514.01" x2="216.185" y2="1506.45" stroke-width="1" stroke="rgb(0,0,255)" />
	<line x1="216.185" y1="1506.45" x2="205.901" y2="1495.37" stroke-width="1" stroke="rgb(0,0,255)" />
	<line x1="205.901" y1="1495.37" x2="199.34" y2="1481.75" stroke-width="1" stroke="rgb(0,0,255)" />
	<line x1="199.34" y1="1481.75" x2="197.087" y2="1466.8" stroke-width="1" stroke="rgb(0,0,255)" />
	<line x1="197.087" y1="1466.8" x2="199.341" y2="1451.84" stroke-width="1" stroke="rgb(0,0,255)" />
	<line x1="199.341" y1="1451.84" x2="205.901" y2="1438.22" stroke-width="1" stroke="rgb(0,0,255)" />
	<line x1="205.901" y1="1438.22" x2="216.186" y2="1427.14" stroke-width="1" stroke="rgb(0,0,255)" />
	<line x1="216.186" y1="1427.14" x2="229.28" y2="1419.58" stroke-width="1" stroke="rgb(0,0,255)" />
	<line x1="229.28" y1="1419.58" x2="244.021" y2="1416.21" stroke-width="1" stroke="rgb(0,0,255)" />
	<line x1="244.021" y1="1416.21" x2="259.099" y2="1417.34" stroke-width="1" stroke="rgb(0,0,255)" />
	<line x1="259.099" y1="1417.34" x2="273.175" y2="1422.87" stroke-width="1" stroke="rgb(0,0,255)" />
	<line x1="273.175" y1="1422.87" x2="284.995" y2="1432.29" stroke-width="1" stroke="rgb(0,0,255)" />
	<line x1="284.995" y1="1432.29" x2="293.513" y2="1444.79" stroke-width="1" stroke="rgb(0,0,255)" />
	<line x1="293.513" y1="1444.79" x2="297.97" y2="1459.24" stroke-width="1" stroke="rgb(0,0,255)" />
	<line x1="297.97" y1="1459.24" x2="297.97" y2="1474.36" stroke-width="1" stroke="rgb(0,0,255)" />
	<line x1="297.97" y1="1474.36" x2="293.513" y2="1488.81" stroke-width="1" stroke="rgb(0,0,255)" />
	<line x1="293.513" y1="1488.81" x2="284.996" y2="1501.3" stroke-width="1" stroke="rgb(0,0,255)" />
	<line x1="284.996" y1="1501.3" x2="273.174" y2="1510.73" stroke-width="1" stroke="rgb(0,0,255)" />
	<line x1="273.174" y1="1510.73" x2="259.099" y2="1516.25" stroke-width="1" stroke="rgb(0,0,255)" />
	<line x1="259.099" y1="1516.25" x2="244.021" y2="1517.38" stroke-width="1" stroke="rgb(0,0,255)" />
	<line x1="244.021" y1="1517.38" x2="229.28" y2="1514.01" stroke-width="1" stroke="rgb(0,0,255)" />
	<line x1="352.898" y1="960.507" x2="150" y2="960.507" stroke-width="1" stroke="rgb(0,0,0)" />
	<line x1="150" y1="960.507" x2="150" y2="1163.41" stroke-width="1" stroke="rgb(0,0,0)" />
	<line x1="150" y1="1163.41" x2="352.898" y2="1163.41" stroke-width="1" stroke="rgb(0,0,0)" />
	<line x1="352.898" y1="1163.41" x2="352.898" y2="960.507" stroke-width="1" stroke="rgb(0,0,0)" />
	<line x1="229.28" y1="1108.22" x2="216.185" y2="1100.66" stroke-width="1" stroke="rgb(0,0,255)" />
	<line x1="216.185" y1="1100.66" x2="205.901" y2="1089.57" stroke-width="1" stroke="rgb(0,0,255)" />
	<line x1="205.901" y1="1089.57" x2="199.34" y2="1075.95" stroke-width="1" stroke="rgb(0,0,255)" />
	<line x1="199.34" y1="1075.95" x2="197.087" y2="1061" stroke-width="1" stroke="rgb(0,0,255)" />
	<line x1="197.087" y1="1061" x2="199.341" y2="1046.05" stroke-width="1" stroke="rgb(0,0,255)" />
	<line x1="199.341" y1="1046.05" x2="205.901" y2="1032.43" stroke-width="1" stroke="rgb(0,0,255)" />
	<line x1="205.901" y1="1032.43" x2="216.186" y2="1021.34" stroke-width="1" stroke="rgb(0,0,255)" />
	<line x1="216.186" y1="1021.34" x2="229.28" y2="1013.78" stroke-width="1" stroke="rgb(0,0,255)" />
	<line x1="229.28" y1="1013.78" x2="244.021" y2="1010.42" stroke-width="1" stroke="rgb(0,0,255)" />
	<line x1="244.021" y1="1010.42" x2="259.099" y2="1011.55" stroke-width="1" stroke="rgb(0,0,255)" />
	<line x1="259.099" y1="1011.55" x2="273.175" y2="1017.07" stroke-width="1" stroke="rgb(0,0,255)" />
	<line x1="273.175" y1="1017.07" x2="284.995" y2="1026.5" stroke-width="1" stroke="rgb(0,0,255)" />
	<line x1="284.995" y1="1026.5" x2="293.513" y2="1038.99" stroke-width="1" stroke="rgb(0,0,255)" />
	<line x1="293.513" y1="1038.99" x2="297.97" y2="1053.44" stroke-width="1" stroke="rgb(0,0,255)" />
	<line x1="297.97" y1="1053.44" x2="297.97" y2="1068.56" stroke-width="1" stroke="rgb(0,0,255)" />
	<line x1="297.97" y1="1068.56" x2="293.513" y2="1083.01" stroke-width="1" stroke="rgb(0,0,255)" />
	<line x1="293.513" y1="1083.01" x2="284.996" y2="1095.5" stroke-width="1" stroke="rgb(0,0,255)" />
	<line x1="284.996" y1="1095.5" x2="273.174" y2="1104.93" stroke-width="1" stroke="rgb(0,0,255)" />
	<line x1="273.174" y1="1104.93" x2="259.099" y2="1110.45" stroke-width="1" stroke="rgb(0,0,255)" />
	<line x1="259.099" y1="1110.45" x2="244.021" y2="1111.58" stroke-width="1" stroke="rgb(0,0,255)" />
	<line x1="244.021" y1="1111.58" x2="229.28" y2="1108.22" stroke-width="1" stroke="rgb(0,0,255)" />
	<line x1="352.898" y1="1772.1" x2="150" y2="1772.1" stroke-width="1" stroke="rgb(0,0,0)" />
	<line x1="150" y1="1772.1" x2="150" y2="1975" stroke-width="1" stroke="rgb(0,0,0)" />
	<line x1="150" y1="1975" x2="352.898" y2="1975" stroke-width="1" stroke="rgb(0,0,0)" />
	<line x1="352.898" y1="1975" x2="352.898" y2="1772.1" stroke-width="1" stroke="rgb(0,0,0)" />
	<line x1="229.28" y1="1919.81" x2="216.185" y2="1912.25" stroke-width="1" stroke="rgb(0,0,255)" />
	<line x1="216.185" y1="1912.25" x2="205.901" y2="1901.17" stroke-width="1" stroke="rgb(0,0,255)" />
	<line x1="205.901" y1="1901.17" x2="199.34" y2="1887.54" stroke-width="1" stroke="rgb(0,0,255)" />
	<line x1="199.34" y1="1887.54" x2="197.087" y2="1872.59" stroke-width="1" stroke="rgb(0,0,255)" />
	<line x1="197.087" y1="1872.59" x2="199.341" y2="1857.64" stroke-width="1" stroke="rgb(0,0,255)" />
	<line x1="199.341" y1="1857.64" x2="205.901" y2="1844.02" stroke-width="1" stroke="rgb(0,0,255)" />
	<line x1="205.901" y1="1844.02" x2="216.186" y2="1832.94" stroke-width="1" stroke="rgb(0,0,255)" />
	<line x1="216.186" y1="1832.94" x2="229.28" y2="1825.38" stroke-width="1" stroke="rgb(0,0,255)" />
	<line x1="229.28" y1="1825.38" x2="244.021" y2="1822.01" stroke-width="1" stroke="rgb(0,0,255)" />
	<line x1="244.021" y1="1822.01" x2="259.099" y2="1823.14" stroke-width="1" stroke="rgb(0,0,255)" />
	<line x1="259.099" y1="1823.14" x2="273.175" y2="1828.67" stroke-width="1" stroke="rgb(0,0,255)" />
	<line x1="273.175" y1="1828.67" x2="284.995" y2="1838.09" stroke-width="1" stroke="rgb(0,0,255)" />
	<line x1="284.995" y1="1838.09" x2="293.513" y2="1850.59" stroke-width="1" stroke="rgb(0,0,255)" />
	<line x1="293.513" y1="1850.59" x2="297.97" y2="1865.03" stroke-width="1" stroke="rgb(0,0,255)" />
	<line x1="297.97" y1="1865.03" x2="297.97" y2="1880.15" stroke-width="1" stroke="rgb(0,0,255)" />
	<line x1="297.97" y1="1880.15" x2="293.513" y2="1894.6" stroke-width="1" stroke="rgb(0,0,255)" />
	<line x1="293.513" y1="1894.6" x2="284.996" y2="1907.09" stroke-width="1" stroke="rgb(0,0,255)" />
	<line x1="284.996" y1="1907.09" x2="273.174" y2="1916.52" stroke-width="1" stroke="rgb(0,0,255)" />
	<line x1="273.174" y1="1916.52" x2="259.099" y2="1922.05" stroke-width="1" stroke="rgb(0,0,255)" />
	<line x1="259.099" y1="1922.05" x2="244.021" y2="1923.18" stroke-width="1" stroke="rgb(0,0,255)" />
	<line x1="244.021" y1="1923.18" x2="229.28" y2="1919.81" stroke-width="1" stroke="rgb(0,0,255)" />
	<line x1="1550" y1="1699.06" x2="1347.1" y2="1699.06" stroke-width="1" stroke="rgb(0,0,0)" />
	<line x1="1347.1" y1="1699.06" x2="1347.1" y2="1901.96" stroke-width="1" stroke="rgb(0,0,0)" />
	<line x1="1347.1" y1="1901.96" x2="1550" y2="1901.96" stroke-width="1" stroke="rgb(0,0,0)" />
	<line x1="1550" y1="1901.96" x2="1550" y2="1699.06" stroke-width="1" stroke="rgb(0,0,0)" />
	<line x1="1550" y1="1293.26" x2="1347.1" y2="1293.26" stroke-width="1" stroke="rgb(0,0,0)" />
	<line x1="1347.1" y1="1293.26" x2="1347.1" y2="1496.16" stroke-width="1" stroke="rgb(0,0,0)" />
	<line x1="1347.1" y1="1496.16" x2="1550" y2="1496.16" stroke-width="1" stroke="rgb(0,0,0)" />
	<line x1="1550" y1="1496.16" x2="1550" y2="1293.26" stroke-width="1" stroke="rgb(0,0,0)" />
	<line x1="1550" y1="887.464" x2="1347.1" y2="887.464" stroke-width="1" stroke="rgb(0,0,0)" />
	<line x1="1347.1" y1="887.464" x2="1347.1" y2="1090.36" stroke-width="1" stroke="rgb(0,0,0)" />
	<line x1="1347.1" y1="1090.36" x2="1550" y2="1090.36" stroke-width="1" stroke="rgb(0,0,0)" />
	<line x1="1550" y1="1090.36" x2="1550" y2="887.464" stroke-width="1" stroke="rgb(0,0,0)" />
</svg>
