<?xml version="1.0" standalone="no" ?>
<!DOCTYPE svg PUBLIC "-//W3C//DTD SVG 1.1//EN" "http://www.w3.org/Graphics/SVG/1.1/DTD/svg11.dtd">
<svg width="2000px" height="2000px" xmlns="http://www.w3.org/2000/svg" version="1.1" >
	<line x1="348.389" y1="1607.19" x2="312.119" y2="1570.92" stroke-width="0.25" stroke="rgb(0,0,0)" />
	<line x1="312.119" y1="1570.92" x2="150.665" y2="1570.92" stroke-width="0.25" stroke="rgb(0,0,0)" />
	<line x1="150.665" y1="1570.92" x2="150.665" y2="1768.65" stroke-width="0.25" stroke="rgb(0,0,0)" />
	<line x1="150.665" y1="1768.65" x2="348.389" y2="1768.65" stroke-width="0.25" stroke="rgb(0,0,0)" />
	<line x1="348.389" y1="1768.65" x2="348.389" y2="1607.19" stroke-width="0.25" stroke="rgb(0,0,0)" />
	<line x1="276.587" y1="846.52" x2="150.864" y2="846.52" stroke-width="0.25" stroke="rgb(0,0,0)" />
	<line x1="150.864" y1="846.52" x2="150.864" y2="972.243" stroke-width="0.25" stroke="rgb(0,0,0)" />
	<line x1="150.864" y1="972.243" x2="276.587" y2="972.243" stroke-width="0.25" stroke="rgb(0,0,0)" />
	<line x1="276.587" y1="972.243" x2="276.587" y2="846.52" stroke-width="0.25" stroke="rgb(0,0,0)" />
	<line x1="275.724" y1="847.383" x2="151.726" y2="847.383" stroke-width="0.25" stroke="rgb(0,0,0)" />
	<line x1="151.726" y1="847.383" x2="151.726" y2="971.381" stroke-width="0.25" stroke="rgb(0,0,0)" />
	<line x1="151.726" y1="971.381" x2="275.724" y2="971.381" stroke-width="0.25" stroke="rgb(0,0,0)" />
	<line x1="275.724" y1="971.381" x2="275.724" y2="847.383" stroke-width="0.25" stroke="rgb(0,0,0)" />
	<line x1="348.188" y1="1768.65" x2="348.389" y2="1766.74" stroke-width="0.25" stroke="rgb(0,0,0)" />
	<line x1="348.389" y1="1757.85" x2="347.254" y2="1768.65" stroke-width="0.25" stroke="rgb(0,0,0)" />
	<line x1="346.32" y1="1768.65" x2="348.389" y2="1748.96" stroke-width="0.25" stroke="rgb(0,0,0)" />
	<line x1="348.389" y1="1740.08" x2="345.386" y2="1768.65" stroke-width="0.25" stroke="rgb(0,0,0)" />
	<line x1="344.452" y1="1768.65" x2="348.389" y2="1731.19" stroke-width="0.25" stroke="rgb(0,0,0)" />
	<line x1="348.389" y1="1722.3" x2="343.518" y2="1768.65" stroke-width="0.25" stroke="rgb(0,0,0)" />
	<line x1="342.584" y1="1768.65" x2="348.389" y2="1713.42" stroke-width="0.25" stroke="rgb(0,0,0)" />
	<line x1="348.389" y1="1704.53" x2="341.65" y2="1768.65" stroke-width="0.25" stroke="rgb(0,0,0)" />
	<line x1="340.716" y1="1768.65" x2="348.389" y2="1695.65" stroke-width="0.25" stroke="rgb(0,0,0)" />
	<line x1="348.389" y1="1686.76" x2="339.782" y2="1768.65" stroke-width="0.25" stroke="rgb(0,0,0)" />
	<line x1="338.848" y1="1768.65" x2="348.389" y2="1677.87" stroke-width="0.25" stroke="rgb(0,0,0)" />
	<line x1="348.389" y1="1668.99" x2="337.914" y2="1768.65" stroke-width="0.25" stroke="rgb(0,0,0)" />
	<line x1="336.98" y1="1768.65" x2="348.389" y2="1660.1" stroke-width="0.25" stroke="rgb(0,0,0)" />
	<line x1="348.389" y1="1651.21" x2="336.046" y2="1768.65" stroke-width="0.25" stroke="rgb(0,0,0)" />
	<line x1="335.112" y1="1768.65" x2="348.389" y2="1642.33" stroke-width="0.25" stroke="rgb(0,0,0)" />
	<line x1="348.389" y1="1633.44" x2="334.178" y2="1768.65" stroke-width="0.25" stroke="rgb(0,0,0)" />
	<line x1="333.244" y1="1768.65" x2="348.389" y2="1624.55" stroke-width="0.25" stroke="rgb(0,0,0)" />
	<line x1="348.389" y1="1615.67" x2="332.31" y2="1768.65" stroke-width="0.25" stroke="rgb(0,0,0)" />
	<line x1="331.376" y1="1768.65" x2="348.349" y2="1607.15" stroke-width="0.25" stroke="rgb(0,0,0)" />
	<line x1="347.504" y1="1606.31" x2="330.442" y2="1768.65" stroke-width="0.25" stroke="rgb(0,0,0)" />
	<line x1="329.508" y1="1768.65" x2="346.659" y2="1605.46" stroke-width="0.25" stroke="rgb(0,0,0)" />
	<line x1="345.814" y1="1604.62" x2="328.574" y2="1768.65" stroke-width="0.25" stroke="rgb(0,0,0)" />
	<line x1="327.64" y1="1768.65" x2="344.969" y2="1603.77" stroke-width="0.25" stroke="rgb(0,0,0)" />
	<line x1="344.124" y1="1602.93" x2="326.706" y2="1768.65" stroke-width="0.25" stroke="rgb(0,0,0)" />
	<line x1="325.772" y1="1768.65" x2="343.278" y2="1602.08" stroke-width="0.25" stroke="rgb(0,0,0)" />
	<line x1="342.433" y1="1601.24" x2="324.838" y2="1768.65" stroke-width="0.25" stroke="rgb(0,0,0)" />
	<line x1="323.904" y1="1768.65" x2="341.588" y2="1600.39" stroke-width="0.25" stroke="rgb(0,0,0)" />
	<line x1="340.743" y1="1599.55" x2="322.97" y2="1768.65" stroke-width="0.25" stroke="rgb(0,0,0)" />
	<line x1="322.036" y1="1768.65" x2="339.898" y2="1598.7" stroke-width="0.25" stroke="rgb(0,0,0)" />
	<line x1="339.052" y1="1597.86" x2="321.102" y2="1768.65" stroke-width="0.25" stroke="rgb(0,0,0)" />
	<line x1="320.168" y1="1768.65" x2="338.207" y2="1597.01" stroke-width="0.25" stroke="rgb(0,0,0)" />
	<line x1="337.362" y1="1596.17" x2="319.233" y2="1768.65" stroke-width="0.25" stroke="rgb(0,0,0)" />
	<line x1="318.299" y1="1768.65" x2="336.517" y2="1595.32" stroke-width="0.25" stroke="rgb(0,0,0)" />
	<line x1="335.672" y1="1594.48" x2="317.365" y2="1768.65" stroke-width="0.25" stroke="rgb(0,0,0)" />
	<line x1="316.431" y1="1768.65" x2="334.826" y2="1593.63" stroke-width="0.25" stroke="rgb(0,0,0)" />
	<line x1="333.981" y1="1592.79" x2="315.497" y2="1768.65" stroke-width="0.25" stroke="rgb(0,0,0)" />
	<line x1="314.563" y1="1768.65" x2="333.136" y2="1591.94" stroke-width="0.25" stroke="rgb(0,0,0)" />
	<line x1="332.291" y1="1591.1" x2="313.629" y2="1768.65" stroke-width="0.25" stroke="rgb(0,0,0)" />
	<line x1="312.695" y1="1768.65" x2="331.446" y2="1590.25" stroke-width="0.25" stroke="rgb(0,0,0)" />
	<line x1="330.6" y1="1589.41" x2="311.761" y2="1768.65" stroke-width="0.25" stroke="rgb(0,0,0)" />
	<line x1="310.827" y1="1768.65" x2="329.755" y2="1588.56" stroke-width="0.25" stroke="rgb(0,0,0)" />
	<line x1="328.91" y1="1587.72" x2="309.893" y2="1768.65" stroke-width="0.25" stroke="rgb(0,0,0)" />
	<line x1="308.959" y1="1768.65" x2="328.065" y2="1586.87" stroke-width="0.25" stroke="rgb(0,0,0)" />
	<line x1="327.22" y1="1586.02" x2="308.025" y2="1768.65" stroke-width="0.25" stroke="rgb(0,0,0)" />
	<line x1="307.091" y1="1768.65" x2="326.375" y2="1585.18" stroke-width="0.25" stroke="rgb(0,0,0)" />
	<line x1="325.529" y1="1584.33" x2="306.157" y2="1768.65" stroke-width="0.25" stroke="rgb(0,0,0)" />
	<line x1="305.223" y1="1768.65" x2="324.684" y2="1583.49" stroke-width="0.25" stroke="rgb(0,0,0)" />
	<line x1="323.839" y1="1582.64" x2="304.289" y2="1768.65" stroke-width="0.25" stroke="rgb(0,0,0)" />
	<line x1="303.355" y1="1768.65" x2="322.994" y2="1581.8" stroke-width="0.25" stroke="rgb(0,0,0)" />
	<line x1="322.149" y1="1580.95" x2="302.421" y2="1768.65" stroke-width="0.25" stroke="rgb(0,0,0)" />
	<line x1="301.487" y1="1768.65" x2="321.303" y2="1580.11" stroke-width="0.25" stroke="rgb(0,0,0)" />
	<line x1="320.458" y1="1579.26" x2="300.553" y2="1768.65" stroke-width="0.25" stroke="rgb(0,0,0)" />
	<line x1="299.619" y1="1768.65" x2="319.613" y2="1578.42" stroke-width="0.25" stroke="rgb(0,0,0)" />
	<line x1="318.768" y1="1577.57" x2="298.685" y2="1768.65" stroke-width="0.25" stroke="rgb(0,0,0)" />
	<line x1="297.751" y1="1768.65" x2="317.923" y2="1576.73" stroke-width="0.25" stroke="rgb(0,0,0)" />
	<line x1="317.077" y1="1575.88" x2="296.817" y2="1768.65" stroke-width="0.25" stroke="rgb(0,0,0)" />
	<line x1="295.883" y1="1768.65" x2="316.232" y2="1575.04" stroke-width="0.25" stroke="rgb(0,0,0)" />
	<line x1="315.387" y1="1574.19" x2="294.949" y2="1768.65" stroke-width="0.25" stroke="rgb(0,0,0)" />
	<line x1="294.015" y1="1768.65" x2="314.542" y2="1573.35" stroke-width="0.25" stroke="rgb(0,0,0)" />
	<line x1="313.697" y1="1572.5" x2="293.081" y2="1768.65" stroke-width="0.25" stroke="rgb(0,0,0)" />
	<line x1="292.147" y1="1768.65" x2="312.851" y2="1571.66" stroke-width="0.25" stroke="rgb(0,0,0)" />
	<line x1="311.994" y1="1570.92" x2="291.213" y2="1768.65" stroke-width="0.25" stroke="rgb(0,0,0)" />
	<line x1="290.279" y1="1768.65" x2="311.06" y2="1570.92" stroke-width="0.25" stroke="rgb(0,0,0)" />
	<line x1="310.126" y1="1570.92" x2="289.345" y2="1768.65" stroke-width="0.25" stroke="rgb(0,0,0)" />
	<line x1="288.411" y1="1768.65" x2="309.192" y2="1570.92" stroke-width="0.25" stroke="rgb(0,0,0)" />
	<line x1="308.258" y1="1570.92" x2="287.477" y2="1768.65" stroke-width="0.25" stroke="rgb(0,0,0)" />
	<line x1="286.543" y1="1768.65" x2="307.324" y2="1570.92" stroke-width="0.25" stroke="rgb(0,0,0)" />
	<line x1="306.39" y1="1570.92" x2="285.609" y2="1768.65" stroke-width="0.25" stroke="rgb(0,0,0)" />
	<line x1="284.675" y1="1768.65" x2="305.456" y2="1570.92" stroke-width="0.25" stroke="rgb(0,0,0)" />
	<line x1="304.522" y1="1570.92" x2="283.741" y2="1768.65" stroke-width="0.25" stroke="rgb(0,0,0)" />
	<line x1="282.807" y1="1768.65" x2="303.588" y2="1570.92" stroke-width="0.25" stroke="rgb(0,0,0)" />
	<line x1="302.654" y1="1570.92" x2="281.873" y2="1768.65" stroke-width="0.25" stroke="rgb(0,0,0)" />
	<line x1="280.939" y1="1768.65" x2="301.72" y2="1570.92" stroke-width="0.25" stroke="rgb(0,0,0)" />
	<line x1="300.786" y1="1570.92" x2="280.004" y2="1768.65" stroke-width="0.25" stroke="rgb(0,0,0)" />
	<line x1="279.07" y1="1768.65" x2="299.852" y2="1570.92" stroke-width="0.25" stroke="rgb(0,0,0)" />
	<line x1="298.918" y1="1570.92" x2="278.136" y2="1768.65" stroke-width="0.25" stroke="rgb(0,0,0)" />
	<line x1="277.202" y1="1768.65" x2="297.984" y2="1570.92" stroke-width="0.25" stroke="rgb(0,0,0)" />
	<line x1="297.05" y1="1570.92" x2="276.268" y2="1768.65" stroke-width="0.25" stroke="rgb(0,0,0)" />
	<line x1="275.334" y1="1768.65" x2="296.116" y2="1570.92" stroke-width="0.25" stroke="rgb(0,0,0)" />
	<line x1="295.182" y1="1570.92" x2="274.4" y2="1768.65" stroke-width="0.25" stroke="rgb(0,0,0)" />
	<line x1="273.466" y1="1768.65" x2="294.248" y2="1570.92" stroke-width="0.25" stroke="rgb(0,0,0)" />
	<line x1="293.314" y1="1570.92" x2="272.532" y2="1768.65" stroke-width="0.25" stroke="rgb(0,0,0)" />
	<line x1="271.598" y1="1768.65" x2="292.38" y2="1570.92" stroke-width="0.25" stroke="rgb(0,0,0)" />
	<line x1="291.446" y1="1570.92" x2="270.664" y2="1768.65" stroke-width="0.25" stroke="rgb(0,0,0)" />
	<line x1="269.73" y1="1768.65" x2="290.512" y2="1570.92" stroke-width="0.25" stroke="rgb(0,0,0)" />
	<line x1="289.578" y1="1570.92" x2="268.796" y2="1768.65" stroke-width="0.25" stroke="rgb(0,0,0)" />
	<line x1="267.862" y1="1768.65" x2="288.644" y2="1570.92" stroke-width="0.25" stroke="rgb(0,0,0)" />
	<line x1="287.71" y1="1570.92" x2="266.928" y2="1768.65" stroke-width="0.25" stroke="rgb(0,0,0)" />
	<line x1="265.994" y1="1768.65" x2="286.776" y2="1570.92" stroke-width="0.25" stroke="rgb(0,0,0)" />
	<line x1="285.842" y1="1570.92" x2="265.06" y2="1768.65" stroke-width="0.25" stroke="rgb(0,0,0)" />
	<line x1="264.126" y1="1768.65" x2="284.908" y2="1570.92" stroke-width="0.25" stroke="rgb(0,0,0)" />
	<line x1="283.974" y1="1570.92" x2="263.192" y2="1768.65" stroke-width="0.25" stroke="rgb(0,0,0)" />
	<line x1="262.258" y1="1768.65" x2="283.04" y2="1570.92" stroke-width="0.25" stroke="rgb(0,0,0)" />
	<line x1="282.106" y1="1570.92" x2="261.324" y2="1768.65" stroke-width="0.25" stroke="rgb(0,0,0)" />
	<line x1="260.39" y1="1768.65" x2="281.172" y2="1570.92" stroke-width="0.25" stroke="rgb(0,0,0)" />
	<line x1="280.238" y1="1570.92" x2="259.456" y2="1768.65" stroke-width="0.25" stroke="rgb(0,0,0)" />
	<line x1="258.522" y1="1768.65" x2="279.304" y2="1570.92" stroke-width="0.25" stroke="rgb(0,0,0)" />
	<line x1="278.37" y1="1570.92" x2="257.588" y2="1768.65" stroke-width="0.25" stroke="rgb(0,0,0)" />
	<line x1="256.654" y1="1768.65" x2="277.436" y2="1570.92" stroke-width="0.25" stroke="rgb(0,0,0)" />
	<line x1="276.502" y1="1570.92" x2="255.72" y2="1768.65" stroke-width="0.25" stroke="rgb(0,0,0)" />
	<line x1="254.786" y1="1768.65" x2="275.568" y2="1570.92" stroke-width="0.25" stroke="rgb(0,0,0)" />
	<line x1="274.634" y1="1570.92" x2="253.852" y2="1768.65" stroke-width="0.25" stroke="rgb(0,0,0)" />
	<line x1="252.918" y1="1768.65" x2="273.699" y2="1570.92" stroke-width="0.25" stroke="rgb(0,0,0)" />
	<line x1="272.765" y1="1570.92" x2="251.984" y2="1768.65" stroke-width="0.25" stroke="rgb(0,0,0)" />
	<line x1="251.05" y1="1768.65" x2="271.831" y2="1570.92" stroke-width="0.25" stroke="rgb(0,0,0)" />
	<line x1="270.897" y1="1570.92" x2="250.116" y2="1768.65" stroke-width="0.25" stroke="rgb(0,0,0)" />
	<line x1="249.182" y1="1768.65" x2="269.963" y2="1570.92" stroke-width="0.25" stroke="rgb(0,0,0)" />
	<line x1="269.029" y1="1570.92" x2="248.248" y2="1768.65" stroke-width="0.25" stroke="rgb(0,0,0)" />
	<line x1="247.314" y1="1768.65" x2="268.095" y2="1570.92" stroke-width="0.25" stroke="rgb(0,0,0)" />
	<line x1="267.161" y1="1570.92" x2="246.38" y2="1768.65" stroke-width="0.25" stroke="rgb(0,0,0)" />
	<line x1="245.446" y1="1768.65" x2="266.227" y2="1570.92" stroke-width="0.25" stroke="rgb(0,0,0)" />
	<line x1="265.293" y1="1570.92" x2="244.512" y2="1768.65" stroke-width="0.25" stroke="rgb(0,0,0)" />
	<line x1="243.578" y1="1768.65" x2="264.359" y2="1570.92" stroke-width="0.25" stroke="rgb(0,0,0)" />
	<line x1="263.425" y1="1570.92" x2="242.644" y2="1768.65" stroke-width="0.25" stroke="rgb(0,0,0)" />
	<line x1="241.71" y1="1768.65" x2="262.491" y2="1570.92" stroke-width="0.25" stroke="rgb(0,0,0)" />
	<line x1="261.557" y1="1570.92" x2="240.775" y2="1768.65" stroke-width="0.25" stroke="rgb(0,0,0)" />
	<line x1="239.841" y1="1768.65" x2="260.623" y2="1570.92" stroke-width="0.25" stroke="rgb(0,0,0)" />
	<line x1="259.689" y1="1570.92" x2="238.907" y2="1768.65" stroke-width="0.25" stroke="rgb(0,0,0)" />
	<line x1="237.973" y1="1768.65" x2="258.755" y2="1570.92" stroke-width="0.25" stroke="rgb(0,0,0)" />
	<line x1="257.821" y1="1570.92" x2="237.039" y2="1768.65" stroke-width="0.25" stroke="rgb(0,0,0)" />
	<line x1="236.105" y1="1768.65" x2="256.887" y2="1570.92" stroke-width="0.25" stroke="rgb(0,0,0)" />
	<line x1="255.953" y1="1570.92" x2="235.171" y2="1768.65" stroke-width="0.25" stroke="rgb(0,0,0)" />
	<line x1="234.237" y1="1768.65" x2="255.019" y2="1570.92" stroke-width="0.25" stroke="rgb(0,0,0)" />
	<line x1="254.085" y1="1570.92" x2="233.303" y2="1768.65" stroke-width="0.25" stroke="rgb(0,0,0)" />
	<line x1="232.369" y1="1768.65" x2="253.151" y2="1570.92" stroke-width="0.25" stroke="rgb(0,0,0)" />
	<line x1="252.217" y1="1570.92" x2="231.435" y2="1768.65" stroke-width="0.25" stroke="rgb(0,0,0)" />
	<line x1="230.501" y1="1768.65" x2="251.283" y2="1570.92" stroke-width="0.25" stroke="rgb(0,0,0)" />
	<line x1="250.349" y1="1570.92" x2="229.567" y2="1768.65" stroke-width="0.25" stroke="rgb(0,0,0)" />
	<line x1="228.633" y1="1768.65" x2="249.415" y2="1570.92" stroke-width="0.25" stroke="rgb(0,0,0)" />
	<line x1="248.481" y1="1570.92" x2="227.699" y2="1768.65" stroke-width="0.25" stroke="rgb(0,0,0)" />
	<line x1="226.765" y1="1768.65" x2="247.547" y2="1570.92" stroke-width="0.25" stroke="rgb(0,0,0)" />
	<line x1="246.613" y1="1570.92" x2="225.831" y2="1768.65" stroke-width="0.25" stroke="rgb(0,0,0)" />
	<line x1="224.897" y1="1768.65" x2="245.679" y2="1570.92" stroke-width="0.25" stroke="rgb(0,0,0)" />
	<line x1="244.745" y1="1570.92" x2="223.963" y2="1768.65" stroke-width="0.25" stroke="rgb(0,0,0)" />
	<line x1="223.029" y1="1768.65" x2="243.811" y2="1570.92" stroke-width="0.25" stroke="rgb(0,0,0)" />
	<line x1="242.877" y1="1570.92" x2="222.095" y2="1768.65" stroke-width="0.25" stroke="rgb(0,0,0)" />
	<line x1="221.161" y1="1768.65" x2="241.943" y2="1570.92" stroke-width="0.25" stroke="rgb(0,0,0)" />
	<line x1="241.009" y1="1570.92" x2="220.227" y2="1768.65" stroke-width="0.25" stroke="rgb(0,0,0)" />
	<line x1="219.293" y1="1768.65" x2="240.075" y2="1570.92" stroke-width="0.25" stroke="rgb(0,0,0)" />
	<line x1="239.141" y1="1570.92" x2="218.359" y2="1768.65" stroke-width="0.25" stroke="rgb(0,0,0)" />
	<line x1="217.425" y1="1768.65" x2="238.207" y2="1570.92" stroke-width="0.25" stroke="rgb(0,0,0)" />
	<line x1="237.273" y1="1570.92" x2="216.491" y2="1768.65" stroke-width="0.25" stroke="rgb(0,0,0)" />
	<line x1="215.557" y1="1768.65" x2="236.339" y2="1570.92" stroke-width="0.25" stroke="rgb(0,0,0)" />
	<line x1="235.405" y1="1570.92" x2="214.623" y2="1768.65" stroke-width="0.25" stroke="rgb(0,0,0)" />
	<line x1="213.689" y1="1768.65" x2="234.47" y2="1570.92" stroke-width="0.25" stroke="rgb(0,0,0)" />
	<line x1="233.536" y1="1570.92" x2="212.755" y2="1768.65" stroke-width="0.25" stroke="rgb(0,0,0)" />
	<line x1="211.821" y1="1768.65" x2="232.602" y2="1570.92" stroke-width="0.25" stroke="rgb(0,0,0)" />
	<line x1="231.668" y1="1570.92" x2="210.887" y2="1768.65" stroke-width="0.25" stroke="rgb(0,0,0)" />
	<line x1="209.953" y1="1768.65" x2="230.734" y2="1570.92" stroke-width="0.25" stroke="rgb(0,0,0)" />
	<line x1="229.8" y1="1570.92" x2="209.019" y2="1768.65" stroke-width="0.25" stroke="rgb(0,0,0)" />
	<line x1="208.085" y1="1768.65" x2="228.866" y2="1570.92" stroke-width="0.25" stroke="rgb(0,0,0)" />
	<line x1="227.932" y1="1570.92" x2="207.151" y2="1768.65" stroke-width="0.25" stroke="rgb(0,0,0)" />
	<line x1="206.217" y1="1768.65" x2="226.998" y2="1570.92" stroke-width="0.25" stroke="rgb(0,0,0)" />
	<line x1="226.064" y1="1570.92" x2="205.283" y2="1768.65" stroke-width="0.25" stroke="rgb(0,0,0)" />
	<line x1="204.349" y1="1768.65" x2="225.13" y2="1570.92" stroke-width="0.25" stroke="rgb(0,0,0)" />
	<line x1="224.196" y1="1570.92" x2="203.415" y2="1768.65" stroke-width="0.25" stroke="rgb(0,0,0)" />
	<line x1="202.481" y1="1768.65" x2="223.262" y2="1570.92" stroke-width="0.25" stroke="rgb(0,0,0)" />
	<line x1="222.328" y1="1570.92" x2="201.546" y2="1768.65" stroke-width="0.25" stroke="rgb(0,0,0)" />
	<line x1="200.612" y1="1768.65" x2="221.394" y2="1570.92" stroke-width="0.25" stroke="rgb(0,0,0)" />
	<line x1="220.46" y1="1570.92" x2="199.678" y2="1768.65" stroke-width="0.25" stroke="rgb(0,0,0)" />
	<line x1="198.744" y1="1768.65" x2="219.526" y2="1570.92" stroke-width="0.25" stroke="rgb(0,0,0)" />
	<line x1="218.592" y1="1570.92" x2="197.81" y2="1768.65" stroke-width="0.25" stroke="rgb(0,0,0)" />
	<line x1="196.876" y1="1768.65" x2="217.658" y2="1570.92" stroke-width="0.25" stroke="rgb(0,0,0)" />
	<line x1="216.724" y1="1570.92" x2="195.942" y2="1768.65" stroke-width="0.25" stroke="rgb(0,0,0)" />
	<line x1="195.008" y1="1768.65" x2="215.79" y2="1570.92" stroke-width="0.25" stroke="rgb(0,0,0)" />
	<line x1="214.856" y1="1570.92" x2="194.074" y2="1768.65" stroke-width="0.25" stroke="rgb(0,0,0)" />
	<line x1="193.14" y1="1768.65" x2="213.922" y2="1570.92" stroke-width="0.25" stroke="rgb(0,0,0)" />
	<line x1="212.988" y1="1570.92" x2="192.206" y2="1768.65" stroke-width="0.25" stroke="rgb(0,0,0)" />
	<line x1="191.272" y1="1768.65" x2="212.054" y2="1570.92" stroke-width="0.25" stroke="rgb(0,0,0)" />
	<line x1="211.12" y1="1570.92" x2="190.338" y2="1768.65" stroke-width="0.25" stroke="rgb(0,0,0)" />
	<line x1="189.404" y1="1768.65" x2="210.186" y2="1570.92" stroke-width="0.25" stroke="rgb(0,0,0)" />
	<line x1="209.252" y1="1570.92" x2="188.47" y2="1768.65" stroke-width="0.25" stroke="rgb(0,0,0)" />
	<line x1="187.536" y1="1768.65" x2="208.318" y2="1570.92" stroke-width="0.25" stroke="rgb(0,0,0)" />
	<line x1="207.384" y1="1570.92" x2="186.602" y2="1768.65" stroke-width="0.25" stroke="rgb(0,0,0)" />
	<line x1="185.668" y1="1768.65" x2="206.45" y2="1570.92" stroke-width="0.25" stroke="rgb(0,0,0)" />
	<line x1="205.516" y1="1570.92" x2="184.734" y2="1768.65" stroke-width="0.25" stroke="rgb(0,0,0)" />
	<line x1="183.8" y1="1768.65" x2="204.582" y2="1570.92" stroke-width="0.25" stroke="rgb(0,0,0)" />
	<line x1="203.648" y1="1570.92" x2="182.866" y2="1768.65" stroke-width="0.25" stroke="rgb(0,0,0)" />
	<line x1="181.932" y1="1768.65" x2="202.714" y2="1570.92" stroke-width="0.25" stroke="rgb(0,0,0)" />
	<line x1="201.78" y1="1570.92" x2="180.998" y2="1768.65" stroke-width="0.25" stroke="rgb(0,0,0)" />
	<line x1="180.064" y1="1768.65" x2="200.846" y2="1570.92" stroke-width="0.25" stroke="rgb(0,0,0)" />
	<line x1="199.912" y1="1570.92" x2="179.13" y2="1768.65" stroke-width="0.25" stroke="rgb(0,0,0)" />
	<line x1="178.196" y1="1768.65" x2="198.978" y2="1570.92" stroke-width="0.25" stroke="rgb(0,0,0)" />
	<line x1="198.044" y1="1570.92" x2="177.262" y2="1768.65" stroke-width="0.25" stroke="rgb(0,0,0)" />
	<line x1="176.328" y1="1768.65" x2="197.11" y2="1570.92" stroke-width="0.25" stroke="rgb(0,0,0)" />
	<line x1="196.176" y1="1570.92" x2="175.394" y2="1768.65" stroke-width="0.25" stroke="rgb(0,0,0)" />
	<line x1="174.46" y1="1768.65" x2="195.241" y2="1570.92" stroke-width="0.25" stroke="rgb(0,0,0)" />
	<line x1="194.307" y1="1570.92" x2="173.526" y2="1768.65" stroke-width="0.25" stroke="rgb(0,0,0)" />
	<line x1="172.592" y1="1768.65" x2="193.373" y2="1570.92" stroke-width="0.25" stroke="rgb(0,0,0)" />
	<line x1="192.439" y1="1570.92" x2="171.658" y2="1768.65" stroke-width="0.25" stroke="rgb(0,0,0)" />
	<line x1="170.724" y1="1768.65" x2="191.505" y2="1570.92" stroke-width="0.25" stroke="rgb(0,0,0)" />
	<line x1="190.571" y1="1570.92" x2="169.79" y2="1768.65" stroke-width="0.25" stroke="rgb(0,0,0)" />
	<line x1="168.856" y1="1768.65" x2="189.637" y2="1570.92" stroke-width="0.25" stroke="rgb(0,0,0)" />
	<line x1="188.703" y1="1570.92" x2="167.922" y2="1768.65" stroke-width="0.25" stroke="rgb(0,0,0)" />
	<line x1="166.988" y1="1768.65" x2="187.769" y2="1570.92" stroke-width="0.25" stroke="rgb(0,0,0)" />
	<line x1="186.835" y1="1570.92" x2="166.054" y2="1768.65" stroke-width="0.25" stroke="rgb(0,0,0)" />
	<line x1="165.12" y1="1768.65" x2="185.901" y2="1570.92" stroke-width="0.25" stroke="rgb(0,0,0)" />
	<line x1="184.967" y1="1570.92" x2="164.186" y2="1768.65" stroke-width="0.25" stroke="rgb(0,0,0)" />
	<line x1="163.252" y1="1768.65" x2="184.033" y2="1570.92" stroke-width="0.25" stroke="rgb(0,0,0)" />
	<line x1="183.099" y1="1570.92" x2="162.318" y2="1768.65" stroke-width="0.25" stroke="rgb(0,0,0)" />
	<line x1="161.383" y1="1768.65" x2="182.165" y2="1570.92" stroke-width="0.25" stroke="rgb(0,0,0)" />
	<line x1="181.231" y1="1570.92" x2="160.449" y2="1768.65" stroke-width="0.25" stroke="rgb(0,0,0)" />
	<line x1="159.515" y1="1768.65" x2="180.297" y2="1570.92" stroke-width="0.25" stroke="rgb(0,0,0)" />
	<line x1="179.363" y1="1570.92" x2="158.581" y2="1768.65" stroke-width="0.25" stroke="rgb(0,0,0)" />
	<line x1="157.647" y1="1768.65" x2="178.429" y2="1570.92" stroke-width="0.25" stroke="rgb(0,0,0)" />
	<line x1="177.495" y1="1570.92" x2="156.713" y2="1768.65" stroke-width="0.25" stroke="rgb(0,0,0)" />
	<line x1="155.779" y1="1768.65" x2="176.561" y2="1570.92" stroke-width="0.25" stroke="rgb(0,0,0)" />
	<line x1="175.627" y1="1570.92" x2="154.845" y2="1768.65" stroke-width="0.25" stroke="rgb(0,0,0)" />
	<line x1="153.911" y1="1768.65" x2="174.693" y2="1570.92" stroke-width="0.25" stroke="rgb(0,0,0)" />
	<line x1="173.759" y1="1570.92" x2="152.977" y2="1768.65" stroke-width="0.25" stroke="rgb(0,0,0)" />
	<line x1="152.043" y1="1768.65" x2="172.825" y2="1570.92" stroke-width="0.25" stroke="rgb(0,0,0)" />
	<line x1="171.891" y1="1570.92" x2="151.109" y2="1768.65" stroke-width="0.25" stroke="rgb(0,0,0)" />
	<line x1="150.665" y1="1763.99" x2="170.957" y2="1570.92" stroke-width="0.25" stroke="rgb(0,0,0)" />
	<line x1="170.023" y1="1570.92" x2="150.665" y2="1755.11" stroke-width="0.25" stroke="rgb(0,0,0)" />
	<line x1="150.665" y1="1746.22" x2="169.089" y2="1570.92" stroke-width="0.25" stroke="rgb(0,0,0)" />
	<line x1="168.155" y1="1570.92" x2="150.665" y2="1737.33" stroke-width="0.25" stroke="rgb(0,0,0)" />
	<line x1="150.665" y1="1728.45" x2="167.221" y2="1570.92" stroke-width="0.25" stroke="rgb(0,0,0)" />
	<line x1="166.287" y1="1570.92" x2="150.665" y2="1719.56" stroke-width="0.25" stroke="rgb(0,0,0)" />
	<line x1="150.665" y1="1710.67" x2="165.353" y2="1570.92" stroke-width="0.25" stroke="rgb(0,0,0)" />
	<line x1="164.419" y1="1570.92" x2="150.665" y2="1701.79" stroke-width="0.25" stroke="rgb(0,0,0)" />
	<line x1="150.665" y1="1692.9" x2="163.485" y2="1570.92" stroke-width="0.25" stroke="rgb(0,0,0)" />
	<line x1="162.551" y1="1570.92" x2="150.665" y2="1684.01" stroke-width="0.25" stroke="rgb(0,0,0)" />
	<line x1="150.665" y1="1675.13" x2="161.617" y2="1570.92" stroke-width="0.25" stroke="rgb(0,0,0)" />
	<line x1="160.683" y1="1570.92" x2="150.665" y2="1666.24" stroke-width="0.25" stroke="rgb(0,0,0)" />
	<line x1="150.665" y1="1657.35" x2="159.749" y2="1570.92" stroke-width="0.25" stroke="rgb(0,0,0)" />
	<line x1="158.815" y1="1570.92" x2="150.665" y2="1648.47" stroke-width="0.25" stroke="rgb(0,0,0)" />
	<line x1="150.665" y1="1639.58" x2="157.881" y2="1570.92" stroke-width="0.25" stroke="rgb(0,0,0)" />
	<line x1="156.947" y1="1570.92" x2="150.665" y2="1630.69" stroke-width="0.25" stroke="rgb(0,0,0)" />
	<line x1="150.665" y1="1621.81" x2="156.012" y2="1570.92" stroke-width="0.25" stroke="rgb(0,0,0)" />
	<line x1="155.078" y1="1570.92" x2="150.665" y2="1612.92" stroke-width="0.25" stroke="rgb(0,0,0)" />
	<line x1="150.665" y1="1604.03" x2="154.144" y2="1570.92" stroke-width="0.25" stroke="rgb(0,0,0)" />
	<line x1="153.21" y1="1570.92" x2="150.665" y2="1595.15" stroke-width="0.25" stroke="rgb(0,0,0)" />
	<line x1="150.665" y1="1586.26" x2="152.276" y2="1570.92" stroke-width="0.25" stroke="rgb(0,0,0)" />
	<line x1="151.342" y1="1570.92" x2="150.665" y2="1577.37" stroke-width="0.25" stroke="rgb(0,0,0)" />
	<line x1="274.485" y1="970.585" x2="274.928" y2="966.371" stroke-width="0.25" stroke="rgb(0,0,0)" />
	<line x1="274.928" y1="954.945" x2="273.284" y2="970.585" stroke-width="0.25" stroke="rgb(0,0,0)" />
	<line x1="272.083" y1="970.585" x2="274.928" y2="943.52" stroke-width="0.25" stroke="rgb(0,0,0)" />
	<line x1="274.928" y1="932.094" x2="270.882" y2="970.585" stroke-width="0.25" stroke="rgb(0,0,0)" />
	<line x1="269.681" y1="970.585" x2="274.928" y2="920.668" stroke-width="0.25" stroke="rgb(0,0,0)" />
	<line x1="274.928" y1="909.243" x2="268.481" y2="970.585" stroke-width="0.25" stroke="rgb(0,0,0)" />
	<line x1="267.28" y1="970.585" x2="274.928" y2="897.817" stroke-width="0.25" stroke="rgb(0,0,0)" />
	<line x1="274.928" y1="886.391" x2="266.079" y2="970.585" stroke-width="0.25" stroke="rgb(0,0,0)" />
	<line x1="264.878" y1="970.585" x2="274.928" y2="874.965" stroke-width="0.25" stroke="rgb(0,0,0)" />
	<line x1="274.928" y1="863.54" x2="263.677" y2="970.585" stroke-width="0.25" stroke="rgb(0,0,0)" />
	<line x1="262.476" y1="970.585" x2="274.928" y2="852.114" stroke-width="0.25" stroke="rgb(0,0,0)" />
	<line x1="274.141" y1="848.179" x2="261.275" y2="970.585" stroke-width="0.25" stroke="rgb(0,0,0)" />
	<line x1="260.074" y1="970.585" x2="272.94" y2="848.179" stroke-width="0.25" stroke="rgb(0,0,0)" />
	<line x1="271.739" y1="848.179" x2="258.873" y2="970.585" stroke-width="0.25" stroke="rgb(0,0,0)" />
	<line x1="257.673" y1="970.585" x2="270.538" y2="848.179" stroke-width="0.25" stroke="rgb(0,0,0)" />
	<line x1="269.337" y1="848.179" x2="256.472" y2="970.585" stroke-width="0.25" stroke="rgb(0,0,0)" />
	<line x1="255.271" y1="970.585" x2="268.136" y2="848.179" stroke-width="0.25" stroke="rgb(0,0,0)" />
	<line x1="266.935" y1="848.179" x2="254.07" y2="970.585" stroke-width="0.25" stroke="rgb(0,0,0)" />
	<line x1="252.869" y1="970.585" x2="265.734" y2="848.179" stroke-width="0.25" stroke="rgb(0,0,0)" />
	<line x1="264.533" y1="848.179" x2="251.668" y2="970.585" stroke-width="0.25" stroke="rgb(0,0,0)" />
	<line x1="250.467" y1="970.585" x2="263.333" y2="848.179" stroke-width="0.25" stroke="rgb(0,0,0)" />
	<line x1="262.132" y1="848.179" x2="249.266" y2="970.585" stroke-width="0.25" stroke="rgb(0,0,0)" />
	<line x1="248.065" y1="970.585" x2="260.931" y2="848.179" stroke-width="0.25" stroke="rgb(0,0,0)" />
	<line x1="259.73" y1="848.179" x2="246.865" y2="970.585" stroke-width="0.25" stroke="rgb(0,0,0)" />
	<line x1="245.664" y1="970.585" x2="258.529" y2="848.179" stroke-width="0.25" stroke="rgb(0,0,0)" />
	<line x1="257.328" y1="848.179" x2="244.463" y2="970.585" stroke-width="0.25" stroke="rgb(0,0,0)" />
	<line x1="243.262" y1="970.585" x2="256.127" y2="848.179" stroke-width="0.25" stroke="rgb(0,0,0)" />
	<line x1="254.926" y1="848.179" x2="242.061" y2="970.585" stroke-width="0.25" stroke="rgb(0,0,0)" />
	<line x1="240.86" y1="970.585" x2="253.725" y2="848.179" stroke-width="0.25" stroke="rgb(0,0,0)" />
	<line x1="252.525" y1="848.179" x2="239.659" y2="970.585" stroke-width="0.25" stroke="rgb(0,0,0)" />
	<line x1="238.458" y1="970.585" x2="251.324" y2="848.179" stroke-width="0.25" stroke="rgb(0,0,0)" />
	<line x1="250.123" y1="848.179" x2="237.257" y2="970.585" stroke-width="0.25" stroke="rgb(0,0,0)" />
	<line x1="236.057" y1="970.585" x2="248.922" y2="848.179" stroke-width="0.25" stroke="rgb(0,0,0)" />
	<line x1="247.721" y1="848.179" x2="234.856" y2="970.585" stroke-width="0.25" stroke="rgb(0,0,0)" />
	<line x1="233.655" y1="970.585" x2="246.52" y2="848.179" stroke-width="0.25" stroke="rgb(0,0,0)" />
	<line x1="245.319" y1="848.179" x2="232.454" y2="970.585" stroke-width="0.25" stroke="rgb(0,0,0)" />
	<line x1="231.253" y1="970.585" x2="244.118" y2="848.179" stroke-width="0.25" stroke="rgb(0,0,0)" />
	<line x1="242.917" y1="848.179" x2="230.052" y2="970.585" stroke-width="0.25" stroke="rgb(0,0,0)" />
	<line x1="228.851" y1="970.585" x2="241.717" y2="848.179" stroke-width="0.25" stroke="rgb(0,0,0)" />
	<line x1="240.516" y1="848.179" x2="227.65" y2="970.585" stroke-width="0.25" stroke="rgb(0,0,0)" />
	<line x1="226.449" y1="970.585" x2="239.315" y2="848.179" stroke-width="0.25" stroke="rgb(0,0,0)" />
	<line x1="238.114" y1="848.179" x2="225.249" y2="970.585" stroke-width="0.25" stroke="rgb(0,0,0)" />
	<line x1="224.048" y1="970.585" x2="236.913" y2="848.179" stroke-width="0.25" stroke="rgb(0,0,0)" />
	<line x1="235.712" y1="848.179" x2="222.847" y2="970.585" stroke-width="0.25" stroke="rgb(0,0,0)" />
	<line x1="221.646" y1="970.585" x2="234.511" y2="848.179" stroke-width="0.25" stroke="rgb(0,0,0)" />
	<line x1="233.31" y1="848.179" x2="220.445" y2="970.585" stroke-width="0.25" stroke="rgb(0,0,0)" />
	<line x1="219.244" y1="970.585" x2="232.109" y2="848.179" stroke-width="0.25" stroke="rgb(0,0,0)" />
	<line x1="230.909" y1="848.179" x2="218.043" y2="970.585" stroke-width="0.25" stroke="rgb(0,0,0)" />
	<line x1="216.842" y1="970.585" x2="229.708" y2="848.179" stroke-width="0.25" stroke="rgb(0,0,0)" />
	<line x1="228.507" y1="848.179" x2="215.641" y2="970.585" stroke-width="0.25" stroke="rgb(0,0,0)" />
	<line x1="214.441" y1="970.585" x2="227.306" y2="848.179" stroke-width="0.25" stroke="rgb(0,0,0)" />
	<line x1="226.105" y1="848.179" x2="213.24" y2="970.585" stroke-width="0.25" stroke="rgb(0,0,0)" />
	<line x1="212.039" y1="970.585" x2="224.904" y2="848.179" stroke-width="0.25" stroke="rgb(0,0,0)" />
	<line x1="223.703" y1="848.179" x2="210.838" y2="970.585" stroke-width="0.25" stroke="rgb(0,0,0)" />
	<line x1="209.637" y1="970.585" x2="222.502" y2="848.179" stroke-width="0.25" stroke="rgb(0,0,0)" />
	<line x1="221.301" y1="848.179" x2="208.436" y2="970.585" stroke-width="0.25" stroke="rgb(0,0,0)" />
	<line x1="207.235" y1="970.585" x2="220.101" y2="848.179" stroke-width="0.25" stroke="rgb(0,0,0)" />
	<line x1="218.9" y1="848.179" x2="206.034" y2="970.585" stroke-width="0.25" stroke="rgb(0,0,0)" />
	<line x1="204.833" y1="970.585" x2="217.699" y2="848.179" stroke-width="0.25" stroke="rgb(0,0,0)" />
	<line x1="216.498" y1="848.179" x2="203.633" y2="970.585" stroke-width="0.25" stroke="rgb(0,0,0)" />
	<line x1="202.432" y1="970.585" x2="215.297" y2="848.179" stroke-width="0.25" stroke="rgb(0,0,0)" />
	<line x1="214.096" y1="848.179" x2="201.231" y2="970.585" stroke-width="0.25" stroke="rgb(0,0,0)" />
	<line x1="200.03" y1="970.585" x2="212.895" y2="848.179" stroke-width="0.25" stroke="rgb(0,0,0)" />
	<line x1="211.694" y1="848.179" x2="198.829" y2="970.585" stroke-width="0.25" stroke="rgb(0,0,0)" />
	<line x1="197.628" y1="970.585" x2="210.493" y2="848.179" stroke-width="0.25" stroke="rgb(0,0,0)" />
	<line x1="209.293" y1="848.179" x2="196.427" y2="970.585" stroke-width="0.25" stroke="rgb(0,0,0)" />
	<line x1="195.226" y1="970.585" x2="208.092" y2="848.179" stroke-width="0.25" stroke="rgb(0,0,0)" />
	<line x1="206.891" y1="848.179" x2="194.025" y2="970.585" stroke-width="0.25" stroke="rgb(0,0,0)" />
	<line x1="192.825" y1="970.585" x2="205.69" y2="848.179" stroke-width="0.25" stroke="rgb(0,0,0)" />
	<line x1="204.489" y1="848.179" x2="191.624" y2="970.585" stroke-width="0.25" stroke="rgb(0,0,0)" />
	<line x1="190.423" y1="970.585" x2="203.288" y2="848.179" stroke-width="0.25" stroke="rgb(0,0,0)" />
	<line x1="202.087" y1="848.179" x2="189.222" y2="970.585" stroke-width="0.25" stroke="rgb(0,0,0)" />
	<line x1="188.021" y1="970.585" x2="200.886" y2="848.179" stroke-width="0.25" stroke="rgb(0,0,0)" />
	<line x1="199.686" y1="848.179" x2="186.82" y2="970.585" stroke-width="0.25" stroke="rgb(0,0,0)" />
	<line x1="185.619" y1="970.585" x2="198.485" y2="848.179" stroke-width="0.25" stroke="rgb(0,0,0)" />
	<line x1="197.284" y1="848.179" x2="184.418" y2="970.585" stroke-width="0.25" stroke="rgb(0,0,0)" />
	<line x1="183.218" y1="970.585" x2="196.083" y2="848.179" stroke-width="0.25" stroke="rgb(0,0,0)" />
	<line x1="194.882" y1="848.179" x2="182.017" y2="970.585" stroke-width="0.25" stroke="rgb(0,0,0)" />
	<line x1="180.816" y1="970.585" x2="193.681" y2="848.179" stroke-width="0.25" stroke="rgb(0,0,0)" />
	<line x1="192.48" y1="848.179" x2="179.615" y2="970.585" stroke-width="0.25" stroke="rgb(0,0,0)" />
	<line x1="178.414" y1="970.585" x2="191.279" y2="848.179" stroke-width="0.25" stroke="rgb(0,0,0)" />
	<line x1="190.078" y1="848.179" x2="177.213" y2="970.585" stroke-width="0.25" stroke="rgb(0,0,0)" />
	<line x1="176.012" y1="970.585" x2="188.878" y2="848.179" stroke-width="0.25" stroke="rgb(0,0,0)" />
	<line x1="187.677" y1="848.179" x2="174.811" y2="970.585" stroke-width="0.25" stroke="rgb(0,0,0)" />
	<line x1="173.61" y1="970.585" x2="186.476" y2="848.179" stroke-width="0.25" stroke="rgb(0,0,0)" />
	<line x1="185.275" y1="848.179" x2="172.41" y2="970.585" stroke-width="0.25" stroke="rgb(0,0,0)" />
	<line x1="171.209" y1="970.585" x2="184.074" y2="848.179" stroke-width="0.25" stroke="rgb(0,0,0)" />
	<line x1="182.873" y1="848.179" x2="170.008" y2="970.585" stroke-width="0.25" stroke="rgb(0,0,0)" />
	<line x1="168.807" y1="970.585" x2="181.672" y2="848.179" stroke-width="0.25" stroke="rgb(0,0,0)" />
	<line x1="180.471" y1="848.179" x2="167.606" y2="970.585" stroke-width="0.25" stroke="rgb(0,0,0)" />
	<line x1="166.405" y1="970.585" x2="179.27" y2="848.179" stroke-width="0.25" stroke="rgb(0,0,0)" />
	<line x1="178.07" y1="848.179" x2="165.204" y2="970.585" stroke-width="0.25" stroke="rgb(0,0,0)" />
	<line x1="164.003" y1="970.585" x2="176.869" y2="848.179" stroke-width="0.25" stroke="rgb(0,0,0)" />
	<line x1="175.668" y1="848.179" x2="162.802" y2="970.585" stroke-width="0.25" stroke="rgb(0,0,0)" />
	<line x1="161.602" y1="970.585" x2="174.467" y2="848.179" stroke-width="0.25" stroke="rgb(0,0,0)" />
	<line x1="173.266" y1="848.179" x2="160.401" y2="970.585" stroke-width="0.25" stroke="rgb(0,0,0)" />
	<line x1="159.2" y1="970.585" x2="172.065" y2="848.179" stroke-width="0.25" stroke="rgb(0,0,0)" />
	<line x1="170.864" y1="848.179" x2="157.999" y2="970.585" stroke-width="0.25" stroke="rgb(0,0,0)" />
	<line x1="156.798" y1="970.585" x2="169.663" y2="848.179" stroke-width="0.25" stroke="rgb(0,0,0)" />
	<line x1="168.462" y1="848.179" x2="155.597" y2="970.585" stroke-width="0.25" stroke="rgb(0,0,0)" />
	<line x1="154.396" y1="970.585" x2="167.262" y2="848.179" stroke-width="0.25" stroke="rgb(0,0,0)" />
	<line x1="166.061" y1="848.179" x2="153.195" y2="970.585" stroke-width="0.25" stroke="rgb(0,0,0)" />
	<line x1="152.522" y1="965.562" x2="164.86" y2="848.179" stroke-width="0.25" stroke="rgb(0,0,0)" />
	<line x1="163.659" y1="848.179" x2="152.522" y2="954.136" stroke-width="0.25" stroke="rgb(0,0,0)" />
	<line x1="152.522" y1="942.711" x2="162.458" y2="848.179" stroke-width="0.25" stroke="rgb(0,0,0)" />
	<line x1="161.257" y1="848.179" x2="152.522" y2="931.285" stroke-width="0.25" stroke="rgb(0,0,0)" />
	<line x1="152.522" y1="919.859" x2="160.056" y2="848.179" stroke-width="0.25" stroke="rgb(0,0,0)" />
	<line x1="158.855" y1="848.179" x2="152.522" y2="908.434" stroke-width="0.25" stroke="rgb(0,0,0)" />
	<line x1="152.522" y1="897.008" x2="157.654" y2="848.179" stroke-width="0.25" stroke="rgb(0,0,0)" />
	<line x1="156.454" y1="848.179" x2="152.522" y2="885.582" stroke-width="0.25" stroke="rgb(0,0,0)" />
	<line x1="152.522" y1="874.157" x2="155.253" y2="848.179" stroke-width="0.25" stroke="rgb(0,0,0)" />
	<line x1="154.052" y1="848.179" x2="152.522" y2="862.731" stroke-width="0.25" stroke="rgb(0,0,0)" />
	<line x1="152.522" y1="851.305" x2="152.851" y2="848.179" stroke-width="0.25" stroke="rgb(0,0,0)" />
</svg>
