<?xml version="1.0" standalone="no" ?>
<!DOCTYPE svg PUBLIC "-//W3C//DTD SVG 1.1//EN" "http://www.w3.org/Graphics/SVG/1.1/DTD/svg11.dtd">
<svg width="2000px" height="2000px" xmlns="http://www.w3.org/2000/svg" version="1.1" >
	<line x1="348.389" y1="1623.78" x2="295.531" y2="1570.92" stroke-width="0.25" stroke="rgb(0,0,0)" />
	<line x1="295.531" y1="1570.92" x2="150.665" y2="1570.92" stroke-width="0.25" stroke="rgb(0,0,0)" />
	<line x1="150.665" y1="1570.92" x2="150.665" y2="1768.65" stroke-width="0.25" stroke="rgb(0,0,0)" />
	<line x1="150.665" y1="1768.65" x2="348.389" y2="1768.65" stroke-width="0.25" stroke="rgb(0,0,0)" />
	<line x1="348.389" y1="1768.65" x2="348.389" y2="1623.78" stroke-width="0.25" stroke="rgb(0,0,0)" />
	<line x1="304.233" y1="818.874" x2="150.864" y2="818.874" stroke-width="0.25" stroke="rgb(0,0,0)" />
	<line x1="150.864" y1="818.874" x2="150.864" y2="972.243" stroke-width="0.25" stroke="rgb(0,0,0)" />
	<line x1="150.864" y1="972.243" x2="304.233" y2="972.243" stroke-width="0.25" stroke="rgb(0,0,0)" />
	<line x1="304.233" y1="972.243" x2="304.233" y2="818.874" stroke-width="0.25" stroke="rgb(0,0,0)" />
	<line x1="303.37" y1="819.737" x2="151.726" y2="819.737" stroke-width="0.25" stroke="rgb(0,0,0)" />
	<line x1="151.726" y1="819.737" x2="151.726" y2="971.381" stroke-width="0.25" stroke="rgb(0,0,0)" />
	<line x1="151.726" y1="971.381" x2="303.37" y2="971.381" stroke-width="0.25" stroke="rgb(0,0,0)" />
	<line x1="303.37" y1="971.381" x2="303.37" y2="819.737" stroke-width="0.25" stroke="rgb(0,0,0)" />
	<line x1="150.665" y1="1571.18" x2="151.231" y2="1570.92" stroke-width="0.25" stroke="rgb(0,0,0)" />
	<line x1="153.515" y1="1570.92" x2="150.665" y2="1572.19" stroke-width="0.25" stroke="rgb(0,0,0)" />
	<line x1="150.665" y1="1573.21" x2="155.799" y2="1570.92" stroke-width="0.25" stroke="rgb(0,0,0)" />
	<line x1="158.083" y1="1570.92" x2="150.665" y2="1574.23" stroke-width="0.25" stroke="rgb(0,0,0)" />
	<line x1="150.665" y1="1575.24" x2="160.367" y2="1570.92" stroke-width="0.25" stroke="rgb(0,0,0)" />
	<line x1="162.65" y1="1570.92" x2="150.665" y2="1576.26" stroke-width="0.25" stroke="rgb(0,0,0)" />
	<line x1="150.665" y1="1577.28" x2="164.934" y2="1570.92" stroke-width="0.25" stroke="rgb(0,0,0)" />
	<line x1="167.218" y1="1570.92" x2="150.665" y2="1578.29" stroke-width="0.25" stroke="rgb(0,0,0)" />
	<line x1="150.665" y1="1579.31" x2="169.502" y2="1570.92" stroke-width="0.25" stroke="rgb(0,0,0)" />
	<line x1="171.786" y1="1570.92" x2="150.665" y2="1580.33" stroke-width="0.25" stroke="rgb(0,0,0)" />
	<line x1="150.665" y1="1581.34" x2="174.07" y2="1570.92" stroke-width="0.25" stroke="rgb(0,0,0)" />
	<line x1="176.353" y1="1570.92" x2="150.665" y2="1582.36" stroke-width="0.25" stroke="rgb(0,0,0)" />
	<line x1="150.665" y1="1583.38" x2="178.637" y2="1570.92" stroke-width="0.25" stroke="rgb(0,0,0)" />
	<line x1="180.921" y1="1570.92" x2="150.665" y2="1584.4" stroke-width="0.25" stroke="rgb(0,0,0)" />
	<line x1="150.665" y1="1585.41" x2="183.205" y2="1570.92" stroke-width="0.25" stroke="rgb(0,0,0)" />
	<line x1="185.489" y1="1570.92" x2="150.665" y2="1586.43" stroke-width="0.25" stroke="rgb(0,0,0)" />
	<line x1="150.665" y1="1587.45" x2="187.772" y2="1570.92" stroke-width="0.25" stroke="rgb(0,0,0)" />
	<line x1="190.056" y1="1570.92" x2="150.665" y2="1588.46" stroke-width="0.25" stroke="rgb(0,0,0)" />
	<line x1="150.665" y1="1589.48" x2="192.34" y2="1570.92" stroke-width="0.25" stroke="rgb(0,0,0)" />
	<line x1="194.624" y1="1570.92" x2="150.665" y2="1590.5" stroke-width="0.25" stroke="rgb(0,0,0)" />
	<line x1="150.665" y1="1591.51" x2="196.908" y2="1570.92" stroke-width="0.25" stroke="rgb(0,0,0)" />
	<line x1="199.191" y1="1570.92" x2="150.665" y2="1592.53" stroke-width="0.25" stroke="rgb(0,0,0)" />
	<line x1="150.665" y1="1593.55" x2="201.475" y2="1570.92" stroke-width="0.25" stroke="rgb(0,0,0)" />
	<line x1="203.759" y1="1570.92" x2="150.665" y2="1594.56" stroke-width="0.25" stroke="rgb(0,0,0)" />
	<line x1="150.665" y1="1595.58" x2="206.043" y2="1570.92" stroke-width="0.25" stroke="rgb(0,0,0)" />
	<line x1="208.327" y1="1570.92" x2="150.665" y2="1596.6" stroke-width="0.25" stroke="rgb(0,0,0)" />
	<line x1="150.665" y1="1597.61" x2="210.61" y2="1570.92" stroke-width="0.25" stroke="rgb(0,0,0)" />
	<line x1="212.894" y1="1570.92" x2="150.665" y2="1598.63" stroke-width="0.25" stroke="rgb(0,0,0)" />
	<line x1="150.665" y1="1599.65" x2="215.178" y2="1570.92" stroke-width="0.25" stroke="rgb(0,0,0)" />
	<line x1="217.462" y1="1570.92" x2="150.665" y2="1600.66" stroke-width="0.25" stroke="rgb(0,0,0)" />
	<line x1="150.665" y1="1601.68" x2="219.746" y2="1570.92" stroke-width="0.25" stroke="rgb(0,0,0)" />
	<line x1="222.029" y1="1570.92" x2="150.665" y2="1602.7" stroke-width="0.25" stroke="rgb(0,0,0)" />
	<line x1="150.665" y1="1603.71" x2="224.313" y2="1570.92" stroke-width="0.25" stroke="rgb(0,0,0)" />
	<line x1="226.597" y1="1570.92" x2="150.665" y2="1604.73" stroke-width="0.25" stroke="rgb(0,0,0)" />
	<line x1="150.665" y1="1605.75" x2="228.881" y2="1570.92" stroke-width="0.25" stroke="rgb(0,0,0)" />
	<line x1="231.165" y1="1570.92" x2="150.665" y2="1606.76" stroke-width="0.25" stroke="rgb(0,0,0)" />
	<line x1="150.665" y1="1607.78" x2="233.448" y2="1570.92" stroke-width="0.25" stroke="rgb(0,0,0)" />
	<line x1="235.732" y1="1570.92" x2="150.665" y2="1608.8" stroke-width="0.25" stroke="rgb(0,0,0)" />
	<line x1="150.665" y1="1609.82" x2="238.016" y2="1570.92" stroke-width="0.25" stroke="rgb(0,0,0)" />
	<line x1="240.3" y1="1570.92" x2="150.665" y2="1610.83" stroke-width="0.25" stroke="rgb(0,0,0)" />
	<line x1="150.665" y1="1611.85" x2="242.584" y2="1570.92" stroke-width="0.25" stroke="rgb(0,0,0)" />
	<line x1="244.867" y1="1570.92" x2="150.665" y2="1612.87" stroke-width="0.25" stroke="rgb(0,0,0)" />
	<line x1="150.665" y1="1613.88" x2="247.151" y2="1570.92" stroke-width="0.25" stroke="rgb(0,0,0)" />
	<line x1="249.435" y1="1570.92" x2="150.665" y2="1614.9" stroke-width="0.25" stroke="rgb(0,0,0)" />
	<line x1="150.665" y1="1615.92" x2="251.719" y2="1570.92" stroke-width="0.25" stroke="rgb(0,0,0)" />
	<line x1="254.003" y1="1570.92" x2="150.665" y2="1616.93" stroke-width="0.25" stroke="rgb(0,0,0)" />
	<line x1="150.665" y1="1617.95" x2="256.286" y2="1570.92" stroke-width="0.25" stroke="rgb(0,0,0)" />
	<line x1="258.57" y1="1570.92" x2="150.665" y2="1618.97" stroke-width="0.25" stroke="rgb(0,0,0)" />
	<line x1="150.665" y1="1619.98" x2="260.854" y2="1570.92" stroke-width="0.25" stroke="rgb(0,0,0)" />
	<line x1="263.138" y1="1570.92" x2="150.665" y2="1621" stroke-width="0.25" stroke="rgb(0,0,0)" />
	<line x1="150.665" y1="1622.02" x2="265.422" y2="1570.92" stroke-width="0.25" stroke="rgb(0,0,0)" />
	<line x1="267.706" y1="1570.92" x2="150.665" y2="1623.03" stroke-width="0.25" stroke="rgb(0,0,0)" />
	<line x1="150.665" y1="1624.05" x2="269.989" y2="1570.92" stroke-width="0.25" stroke="rgb(0,0,0)" />
	<line x1="272.273" y1="1570.92" x2="150.665" y2="1625.07" stroke-width="0.25" stroke="rgb(0,0,0)" />
	<line x1="150.665" y1="1626.08" x2="274.557" y2="1570.92" stroke-width="0.25" stroke="rgb(0,0,0)" />
	<line x1="276.841" y1="1570.92" x2="150.665" y2="1627.1" stroke-width="0.25" stroke="rgb(0,0,0)" />
	<line x1="150.665" y1="1628.12" x2="279.125" y2="1570.92" stroke-width="0.25" stroke="rgb(0,0,0)" />
	<line x1="281.408" y1="1570.92" x2="150.665" y2="1629.13" stroke-width="0.25" stroke="rgb(0,0,0)" />
	<line x1="150.665" y1="1630.15" x2="283.692" y2="1570.92" stroke-width="0.25" stroke="rgb(0,0,0)" />
	<line x1="285.976" y1="1570.92" x2="150.665" y2="1631.17" stroke-width="0.25" stroke="rgb(0,0,0)" />
	<line x1="150.665" y1="1632.19" x2="288.26" y2="1570.92" stroke-width="0.25" stroke="rgb(0,0,0)" />
	<line x1="290.544" y1="1570.92" x2="150.665" y2="1633.2" stroke-width="0.25" stroke="rgb(0,0,0)" />
	<line x1="150.665" y1="1634.22" x2="292.827" y2="1570.92" stroke-width="0.25" stroke="rgb(0,0,0)" />
	<line x1="295.111" y1="1570.92" x2="150.665" y2="1635.24" stroke-width="0.25" stroke="rgb(0,0,0)" />
	<line x1="150.665" y1="1636.25" x2="296.105" y2="1571.5" stroke-width="0.25" stroke="rgb(0,0,0)" />
	<line x1="296.809" y1="1572.2" x2="150.665" y2="1637.27" stroke-width="0.25" stroke="rgb(0,0,0)" />
	<line x1="150.665" y1="1638.29" x2="297.513" y2="1572.91" stroke-width="0.25" stroke="rgb(0,0,0)" />
	<line x1="298.216" y1="1573.61" x2="150.665" y2="1639.3" stroke-width="0.25" stroke="rgb(0,0,0)" />
	<line x1="150.665" y1="1640.32" x2="298.92" y2="1574.31" stroke-width="0.25" stroke="rgb(0,0,0)" />
	<line x1="299.623" y1="1575.02" x2="150.665" y2="1641.34" stroke-width="0.25" stroke="rgb(0,0,0)" />
	<line x1="150.665" y1="1642.35" x2="300.327" y2="1575.72" stroke-width="0.25" stroke="rgb(0,0,0)" />
	<line x1="301.03" y1="1576.42" x2="150.665" y2="1643.37" stroke-width="0.25" stroke="rgb(0,0,0)" />
	<line x1="150.665" y1="1644.39" x2="301.734" y2="1577.13" stroke-width="0.25" stroke="rgb(0,0,0)" />
	<line x1="302.438" y1="1577.83" x2="150.665" y2="1645.4" stroke-width="0.25" stroke="rgb(0,0,0)" />
	<line x1="150.665" y1="1646.42" x2="303.141" y2="1578.53" stroke-width="0.25" stroke="rgb(0,0,0)" />
	<line x1="303.845" y1="1579.24" x2="150.665" y2="1647.44" stroke-width="0.25" stroke="rgb(0,0,0)" />
	<line x1="150.665" y1="1648.45" x2="304.548" y2="1579.94" stroke-width="0.25" stroke="rgb(0,0,0)" />
	<line x1="305.252" y1="1580.64" x2="150.665" y2="1649.47" stroke-width="0.25" stroke="rgb(0,0,0)" />
	<line x1="150.665" y1="1650.49" x2="305.955" y2="1581.35" stroke-width="0.25" stroke="rgb(0,0,0)" />
	<line x1="306.659" y1="1582.05" x2="150.665" y2="1651.5" stroke-width="0.25" stroke="rgb(0,0,0)" />
	<line x1="150.665" y1="1652.52" x2="307.362" y2="1582.76" stroke-width="0.25" stroke="rgb(0,0,0)" />
	<line x1="308.066" y1="1583.46" x2="150.665" y2="1653.54" stroke-width="0.25" stroke="rgb(0,0,0)" />
	<line x1="150.665" y1="1654.56" x2="308.77" y2="1584.16" stroke-width="0.25" stroke="rgb(0,0,0)" />
	<line x1="309.473" y1="1584.87" x2="150.665" y2="1655.57" stroke-width="0.25" stroke="rgb(0,0,0)" />
	<line x1="150.665" y1="1656.59" x2="310.177" y2="1585.57" stroke-width="0.25" stroke="rgb(0,0,0)" />
	<line x1="310.88" y1="1586.27" x2="150.665" y2="1657.61" stroke-width="0.25" stroke="rgb(0,0,0)" />
	<line x1="150.665" y1="1658.62" x2="311.584" y2="1586.98" stroke-width="0.25" stroke="rgb(0,0,0)" />
	<line x1="312.287" y1="1587.68" x2="150.665" y2="1659.64" stroke-width="0.25" stroke="rgb(0,0,0)" />
	<line x1="150.665" y1="1660.66" x2="312.991" y2="1588.38" stroke-width="0.25" stroke="rgb(0,0,0)" />
	<line x1="313.695" y1="1589.09" x2="150.665" y2="1661.67" stroke-width="0.25" stroke="rgb(0,0,0)" />
	<line x1="150.665" y1="1662.69" x2="314.398" y2="1589.79" stroke-width="0.25" stroke="rgb(0,0,0)" />
	<line x1="315.102" y1="1590.49" x2="150.665" y2="1663.71" stroke-width="0.25" stroke="rgb(0,0,0)" />
	<line x1="150.665" y1="1664.72" x2="315.805" y2="1591.2" stroke-width="0.25" stroke="rgb(0,0,0)" />
	<line x1="316.509" y1="1591.9" x2="150.665" y2="1665.74" stroke-width="0.25" stroke="rgb(0,0,0)" />
	<line x1="150.665" y1="1666.76" x2="317.212" y2="1592.61" stroke-width="0.25" stroke="rgb(0,0,0)" />
	<line x1="317.916" y1="1593.31" x2="150.665" y2="1667.77" stroke-width="0.25" stroke="rgb(0,0,0)" />
	<line x1="150.665" y1="1668.79" x2="318.62" y2="1594.01" stroke-width="0.25" stroke="rgb(0,0,0)" />
	<line x1="319.323" y1="1594.72" x2="150.665" y2="1669.81" stroke-width="0.25" stroke="rgb(0,0,0)" />
	<line x1="150.665" y1="1670.82" x2="320.027" y2="1595.42" stroke-width="0.25" stroke="rgb(0,0,0)" />
	<line x1="320.73" y1="1596.12" x2="150.665" y2="1671.84" stroke-width="0.25" stroke="rgb(0,0,0)" />
	<line x1="150.665" y1="1672.86" x2="321.434" y2="1596.83" stroke-width="0.25" stroke="rgb(0,0,0)" />
	<line x1="322.137" y1="1597.53" x2="150.665" y2="1673.87" stroke-width="0.25" stroke="rgb(0,0,0)" />
	<line x1="150.665" y1="1674.89" x2="322.841" y2="1598.23" stroke-width="0.25" stroke="rgb(0,0,0)" />
	<line x1="323.545" y1="1598.94" x2="150.665" y2="1675.91" stroke-width="0.25" stroke="rgb(0,0,0)" />
	<line x1="150.665" y1="1676.93" x2="324.248" y2="1599.64" stroke-width="0.25" stroke="rgb(0,0,0)" />
	<line x1="324.952" y1="1600.34" x2="150.665" y2="1677.94" stroke-width="0.25" stroke="rgb(0,0,0)" />
	<line x1="150.665" y1="1678.96" x2="325.655" y2="1601.05" stroke-width="0.25" stroke="rgb(0,0,0)" />
	<line x1="326.359" y1="1601.75" x2="150.665" y2="1679.98" stroke-width="0.25" stroke="rgb(0,0,0)" />
	<line x1="150.665" y1="1680.99" x2="327.062" y2="1602.46" stroke-width="0.25" stroke="rgb(0,0,0)" />
	<line x1="327.766" y1="1603.16" x2="150.665" y2="1682.01" stroke-width="0.25" stroke="rgb(0,0,0)" />
	<line x1="150.665" y1="1683.03" x2="328.469" y2="1603.86" stroke-width="0.25" stroke="rgb(0,0,0)" />
	<line x1="329.173" y1="1604.57" x2="150.665" y2="1684.04" stroke-width="0.25" stroke="rgb(0,0,0)" />
	<line x1="150.665" y1="1685.06" x2="329.877" y2="1605.27" stroke-width="0.25" stroke="rgb(0,0,0)" />
	<line x1="330.58" y1="1605.97" x2="150.665" y2="1686.08" stroke-width="0.25" stroke="rgb(0,0,0)" />
	<line x1="150.665" y1="1687.09" x2="331.284" y2="1606.68" stroke-width="0.25" stroke="rgb(0,0,0)" />
	<line x1="331.987" y1="1607.38" x2="150.665" y2="1688.11" stroke-width="0.25" stroke="rgb(0,0,0)" />
	<line x1="150.665" y1="1689.13" x2="332.691" y2="1608.08" stroke-width="0.25" stroke="rgb(0,0,0)" />
	<line x1="333.394" y1="1608.79" x2="150.665" y2="1690.14" stroke-width="0.25" stroke="rgb(0,0,0)" />
	<line x1="150.665" y1="1691.16" x2="334.098" y2="1609.49" stroke-width="0.25" stroke="rgb(0,0,0)" />
	<line x1="334.802" y1="1610.19" x2="150.665" y2="1692.18" stroke-width="0.25" stroke="rgb(0,0,0)" />
	<line x1="150.665" y1="1693.19" x2="335.505" y2="1610.9" stroke-width="0.25" stroke="rgb(0,0,0)" />
	<line x1="336.209" y1="1611.6" x2="150.665" y2="1694.21" stroke-width="0.25" stroke="rgb(0,0,0)" />
	<line x1="150.665" y1="1695.23" x2="336.912" y2="1612.31" stroke-width="0.25" stroke="rgb(0,0,0)" />
	<line x1="337.616" y1="1613.01" x2="150.665" y2="1696.24" stroke-width="0.25" stroke="rgb(0,0,0)" />
	<line x1="150.665" y1="1697.26" x2="338.319" y2="1613.71" stroke-width="0.25" stroke="rgb(0,0,0)" />
	<line x1="339.023" y1="1614.42" x2="150.665" y2="1698.28" stroke-width="0.25" stroke="rgb(0,0,0)" />
	<line x1="150.665" y1="1699.3" x2="339.727" y2="1615.12" stroke-width="0.25" stroke="rgb(0,0,0)" />
	<line x1="340.43" y1="1615.82" x2="150.665" y2="1700.31" stroke-width="0.25" stroke="rgb(0,0,0)" />
	<line x1="150.665" y1="1701.33" x2="341.134" y2="1616.53" stroke-width="0.25" stroke="rgb(0,0,0)" />
	<line x1="341.837" y1="1617.23" x2="150.665" y2="1702.35" stroke-width="0.25" stroke="rgb(0,0,0)" />
	<line x1="150.665" y1="1703.36" x2="342.541" y2="1617.93" stroke-width="0.25" stroke="rgb(0,0,0)" />
	<line x1="343.244" y1="1618.64" x2="150.665" y2="1704.38" stroke-width="0.25" stroke="rgb(0,0,0)" />
	<line x1="150.665" y1="1705.4" x2="343.948" y2="1619.34" stroke-width="0.25" stroke="rgb(0,0,0)" />
	<line x1="344.652" y1="1620.04" x2="150.665" y2="1706.41" stroke-width="0.25" stroke="rgb(0,0,0)" />
	<line x1="150.665" y1="1707.43" x2="345.355" y2="1620.75" stroke-width="0.25" stroke="rgb(0,0,0)" />
	<line x1="346.059" y1="1621.45" x2="150.665" y2="1708.45" stroke-width="0.25" stroke="rgb(0,0,0)" />
	<line x1="150.665" y1="1709.46" x2="346.762" y2="1622.15" stroke-width="0.25" stroke="rgb(0,0,0)" />
	<line x1="347.466" y1="1622.86" x2="150.665" y2="1710.48" stroke-width="0.25" stroke="rgb(0,0,0)" />
	<line x1="150.665" y1="1711.5" x2="348.169" y2="1623.56" stroke-width="0.25" stroke="rgb(0,0,0)" />
	<line x1="348.389" y1="1624.48" x2="150.665" y2="1712.51" stroke-width="0.25" stroke="rgb(0,0,0)" />
	<line x1="150.665" y1="1713.53" x2="348.389" y2="1625.5" stroke-width="0.25" stroke="rgb(0,0,0)" />
	<line x1="348.389" y1="1626.51" x2="150.665" y2="1714.55" stroke-width="0.25" stroke="rgb(0,0,0)" />
	<line x1="150.665" y1="1715.56" x2="348.389" y2="1627.53" stroke-width="0.25" stroke="rgb(0,0,0)" />
	<line x1="348.389" y1="1628.55" x2="150.665" y2="1716.58" stroke-width="0.25" stroke="rgb(0,0,0)" />
	<line x1="150.665" y1="1717.6" x2="348.389" y2="1629.57" stroke-width="0.25" stroke="rgb(0,0,0)" />
	<line x1="348.389" y1="1630.58" x2="150.665" y2="1718.61" stroke-width="0.25" stroke="rgb(0,0,0)" />
	<line x1="150.665" y1="1719.63" x2="348.389" y2="1631.6" stroke-width="0.25" stroke="rgb(0,0,0)" />
	<line x1="348.389" y1="1632.62" x2="150.665" y2="1720.65" stroke-width="0.25" stroke="rgb(0,0,0)" />
	<line x1="150.665" y1="1721.67" x2="348.389" y2="1633.63" stroke-width="0.25" stroke="rgb(0,0,0)" />
	<line x1="348.389" y1="1634.65" x2="150.665" y2="1722.68" stroke-width="0.25" stroke="rgb(0,0,0)" />
	<line x1="150.665" y1="1723.7" x2="348.389" y2="1635.67" stroke-width="0.25" stroke="rgb(0,0,0)" />
	<line x1="348.389" y1="1636.68" x2="150.665" y2="1724.72" stroke-width="0.25" stroke="rgb(0,0,0)" />
	<line x1="150.665" y1="1725.73" x2="348.389" y2="1637.7" stroke-width="0.25" stroke="rgb(0,0,0)" />
	<line x1="348.389" y1="1638.72" x2="150.665" y2="1726.75" stroke-width="0.25" stroke="rgb(0,0,0)" />
	<line x1="150.665" y1="1727.77" x2="348.389" y2="1639.73" stroke-width="0.25" stroke="rgb(0,0,0)" />
	<line x1="348.389" y1="1640.75" x2="150.665" y2="1728.78" stroke-width="0.25" stroke="rgb(0,0,0)" />
	<line x1="150.665" y1="1729.8" x2="348.389" y2="1641.77" stroke-width="0.25" stroke="rgb(0,0,0)" />
	<line x1="348.389" y1="1642.78" x2="150.665" y2="1730.82" stroke-width="0.25" stroke="rgb(0,0,0)" />
	<line x1="150.665" y1="1731.83" x2="348.389" y2="1643.8" stroke-width="0.25" stroke="rgb(0,0,0)" />
	<line x1="348.389" y1="1644.82" x2="150.665" y2="1732.85" stroke-width="0.25" stroke="rgb(0,0,0)" />
	<line x1="150.665" y1="1733.87" x2="348.389" y2="1645.83" stroke-width="0.25" stroke="rgb(0,0,0)" />
	<line x1="348.389" y1="1646.85" x2="150.665" y2="1734.88" stroke-width="0.25" stroke="rgb(0,0,0)" />
	<line x1="150.665" y1="1735.9" x2="348.389" y2="1647.87" stroke-width="0.25" stroke="rgb(0,0,0)" />
	<line x1="348.389" y1="1648.88" x2="150.665" y2="1736.92" stroke-width="0.25" stroke="rgb(0,0,0)" />
	<line x1="150.665" y1="1737.93" x2="348.389" y2="1649.9" stroke-width="0.25" stroke="rgb(0,0,0)" />
	<line x1="348.389" y1="1650.92" x2="150.665" y2="1738.95" stroke-width="0.25" stroke="rgb(0,0,0)" />
	<line x1="150.665" y1="1739.97" x2="348.389" y2="1651.94" stroke-width="0.25" stroke="rgb(0,0,0)" />
	<line x1="348.389" y1="1652.95" x2="150.665" y2="1740.98" stroke-width="0.25" stroke="rgb(0,0,0)" />
	<line x1="150.665" y1="1742" x2="348.389" y2="1653.97" stroke-width="0.25" stroke="rgb(0,0,0)" />
	<line x1="348.389" y1="1654.99" x2="150.665" y2="1743.02" stroke-width="0.25" stroke="rgb(0,0,0)" />
	<line x1="150.665" y1="1744.04" x2="348.389" y2="1656" stroke-width="0.25" stroke="rgb(0,0,0)" />
	<line x1="348.389" y1="1657.02" x2="150.665" y2="1745.05" stroke-width="0.25" stroke="rgb(0,0,0)" />
	<line x1="150.665" y1="1746.07" x2="348.389" y2="1658.04" stroke-width="0.25" stroke="rgb(0,0,0)" />
	<line x1="348.389" y1="1659.05" x2="150.665" y2="1747.09" stroke-width="0.25" stroke="rgb(0,0,0)" />
	<line x1="150.665" y1="1748.1" x2="348.389" y2="1660.07" stroke-width="0.25" stroke="rgb(0,0,0)" />
	<line x1="348.389" y1="1661.09" x2="150.665" y2="1749.12" stroke-width="0.25" stroke="rgb(0,0,0)" />
	<line x1="150.665" y1="1750.14" x2="348.389" y2="1662.1" stroke-width="0.25" stroke="rgb(0,0,0)" />
	<line x1="348.389" y1="1663.12" x2="150.665" y2="1751.15" stroke-width="0.25" stroke="rgb(0,0,0)" />
	<line x1="150.665" y1="1752.17" x2="348.389" y2="1664.14" stroke-width="0.25" stroke="rgb(0,0,0)" />
	<line x1="348.389" y1="1665.15" x2="150.665" y2="1753.19" stroke-width="0.25" stroke="rgb(0,0,0)" />
	<line x1="150.665" y1="1754.2" x2="348.389" y2="1666.17" stroke-width="0.25" stroke="rgb(0,0,0)" />
	<line x1="348.389" y1="1667.19" x2="150.665" y2="1755.22" stroke-width="0.25" stroke="rgb(0,0,0)" />
	<line x1="150.665" y1="1756.24" x2="348.389" y2="1668.2" stroke-width="0.25" stroke="rgb(0,0,0)" />
	<line x1="348.389" y1="1669.22" x2="150.665" y2="1757.25" stroke-width="0.25" stroke="rgb(0,0,0)" />
	<line x1="150.665" y1="1758.27" x2="348.389" y2="1670.24" stroke-width="0.25" stroke="rgb(0,0,0)" />
	<line x1="348.389" y1="1671.25" x2="150.665" y2="1759.29" stroke-width="0.25" stroke="rgb(0,0,0)" />
	<line x1="150.665" y1="1760.3" x2="348.389" y2="1672.27" stroke-width="0.25" stroke="rgb(0,0,0)" />
	<line x1="348.389" y1="1673.29" x2="150.665" y2="1761.32" stroke-width="0.25" stroke="rgb(0,0,0)" />
	<line x1="150.665" y1="1762.34" x2="348.389" y2="1674.31" stroke-width="0.25" stroke="rgb(0,0,0)" />
	<line x1="348.389" y1="1675.32" x2="150.665" y2="1763.35" stroke-width="0.25" stroke="rgb(0,0,0)" />
	<line x1="150.665" y1="1764.37" x2="348.389" y2="1676.34" stroke-width="0.25" stroke="rgb(0,0,0)" />
	<line x1="348.389" y1="1677.36" x2="150.665" y2="1765.39" stroke-width="0.25" stroke="rgb(0,0,0)" />
	<line x1="150.665" y1="1766.4" x2="348.389" y2="1678.37" stroke-width="0.25" stroke="rgb(0,0,0)" />
	<line x1="348.389" y1="1679.39" x2="150.665" y2="1767.42" stroke-width="0.25" stroke="rgb(0,0,0)" />
	<line x1="150.665" y1="1768.44" x2="348.389" y2="1680.41" stroke-width="0.25" stroke="rgb(0,0,0)" />
	<line x1="348.389" y1="1681.42" x2="152.477" y2="1768.65" stroke-width="0.25" stroke="rgb(0,0,0)" />
	<line x1="154.761" y1="1768.65" x2="348.389" y2="1682.44" stroke-width="0.25" stroke="rgb(0,0,0)" />
	<line x1="348.389" y1="1683.46" x2="157.044" y2="1768.65" stroke-width="0.25" stroke="rgb(0,0,0)" />
	<line x1="159.328" y1="1768.65" x2="348.389" y2="1684.47" stroke-width="0.25" stroke="rgb(0,0,0)" />
	<line x1="348.389" y1="1685.49" x2="161.612" y2="1768.65" stroke-width="0.25" stroke="rgb(0,0,0)" />
	<line x1="163.896" y1="1768.65" x2="348.389" y2="1686.51" stroke-width="0.25" stroke="rgb(0,0,0)" />
	<line x1="348.389" y1="1687.52" x2="166.18" y2="1768.65" stroke-width="0.25" stroke="rgb(0,0,0)" />
	<line x1="168.464" y1="1768.65" x2="348.389" y2="1688.54" stroke-width="0.25" stroke="rgb(0,0,0)" />
	<line x1="348.389" y1="1689.56" x2="170.747" y2="1768.65" stroke-width="0.25" stroke="rgb(0,0,0)" />
	<line x1="173.031" y1="1768.65" x2="348.389" y2="1690.57" stroke-width="0.25" stroke="rgb(0,0,0)" />
	<line x1="348.389" y1="1691.59" x2="175.315" y2="1768.65" stroke-width="0.25" stroke="rgb(0,0,0)" />
	<line x1="177.599" y1="1768.65" x2="348.389" y2="1692.61" stroke-width="0.25" stroke="rgb(0,0,0)" />
	<line x1="348.389" y1="1693.62" x2="179.883" y2="1768.65" stroke-width="0.25" stroke="rgb(0,0,0)" />
	<line x1="182.166" y1="1768.65" x2="348.389" y2="1694.64" stroke-width="0.25" stroke="rgb(0,0,0)" />
	<line x1="348.389" y1="1695.66" x2="184.45" y2="1768.65" stroke-width="0.25" stroke="rgb(0,0,0)" />
	<line x1="186.734" y1="1768.65" x2="348.389" y2="1696.68" stroke-width="0.25" stroke="rgb(0,0,0)" />
	<line x1="348.389" y1="1697.69" x2="189.018" y2="1768.65" stroke-width="0.25" stroke="rgb(0,0,0)" />
	<line x1="191.302" y1="1768.65" x2="348.389" y2="1698.71" stroke-width="0.25" stroke="rgb(0,0,0)" />
	<line x1="348.389" y1="1699.73" x2="193.585" y2="1768.65" stroke-width="0.25" stroke="rgb(0,0,0)" />
	<line x1="195.869" y1="1768.65" x2="348.389" y2="1700.74" stroke-width="0.25" stroke="rgb(0,0,0)" />
	<line x1="348.389" y1="1701.76" x2="198.153" y2="1768.65" stroke-width="0.25" stroke="rgb(0,0,0)" />
	<line x1="200.437" y1="1768.65" x2="348.389" y2="1702.78" stroke-width="0.25" stroke="rgb(0,0,0)" />
	<line x1="348.389" y1="1703.79" x2="202.721" y2="1768.65" stroke-width="0.25" stroke="rgb(0,0,0)" />
	<line x1="205.004" y1="1768.65" x2="348.389" y2="1704.81" stroke-width="0.25" stroke="rgb(0,0,0)" />
	<line x1="348.389" y1="1705.83" x2="207.288" y2="1768.65" stroke-width="0.25" stroke="rgb(0,0,0)" />
	<line x1="209.572" y1="1768.65" x2="348.389" y2="1706.84" stroke-width="0.25" stroke="rgb(0,0,0)" />
	<line x1="348.389" y1="1707.86" x2="211.856" y2="1768.65" stroke-width="0.25" stroke="rgb(0,0,0)" />
	<line x1="214.14" y1="1768.65" x2="348.389" y2="1708.88" stroke-width="0.25" stroke="rgb(0,0,0)" />
	<line x1="348.389" y1="1709.89" x2="216.423" y2="1768.65" stroke-width="0.25" stroke="rgb(0,0,0)" />
	<line x1="218.707" y1="1768.65" x2="348.389" y2="1710.91" stroke-width="0.25" stroke="rgb(0,0,0)" />
	<line x1="348.389" y1="1711.93" x2="220.991" y2="1768.65" stroke-width="0.25" stroke="rgb(0,0,0)" />
	<line x1="223.275" y1="1768.65" x2="348.389" y2="1712.94" stroke-width="0.25" stroke="rgb(0,0,0)" />
	<line x1="348.389" y1="1713.96" x2="225.559" y2="1768.65" stroke-width="0.25" stroke="rgb(0,0,0)" />
	<line x1="227.842" y1="1768.65" x2="348.389" y2="1714.98" stroke-width="0.25" stroke="rgb(0,0,0)" />
	<line x1="348.389" y1="1715.99" x2="230.126" y2="1768.65" stroke-width="0.25" stroke="rgb(0,0,0)" />
	<line x1="232.41" y1="1768.65" x2="348.389" y2="1717.01" stroke-width="0.25" stroke="rgb(0,0,0)" />
	<line x1="348.389" y1="1718.03" x2="234.694" y2="1768.65" stroke-width="0.25" stroke="rgb(0,0,0)" />
	<line x1="236.978" y1="1768.65" x2="348.389" y2="1719.04" stroke-width="0.25" stroke="rgb(0,0,0)" />
	<line x1="348.389" y1="1720.06" x2="239.261" y2="1768.65" stroke-width="0.25" stroke="rgb(0,0,0)" />
	<line x1="241.545" y1="1768.65" x2="348.389" y2="1721.08" stroke-width="0.25" stroke="rgb(0,0,0)" />
	<line x1="348.389" y1="1722.1" x2="243.829" y2="1768.65" stroke-width="0.25" stroke="rgb(0,0,0)" />
	<line x1="246.113" y1="1768.65" x2="348.389" y2="1723.11" stroke-width="0.25" stroke="rgb(0,0,0)" />
	<line x1="348.389" y1="1724.13" x2="248.397" y2="1768.65" stroke-width="0.25" stroke="rgb(0,0,0)" />
	<line x1="250.68" y1="1768.65" x2="348.389" y2="1725.15" stroke-width="0.25" stroke="rgb(0,0,0)" />
	<line x1="348.389" y1="1726.16" x2="252.964" y2="1768.65" stroke-width="0.25" stroke="rgb(0,0,0)" />
	<line x1="255.248" y1="1768.65" x2="348.389" y2="1727.18" stroke-width="0.25" stroke="rgb(0,0,0)" />
	<line x1="348.389" y1="1728.2" x2="257.532" y2="1768.65" stroke-width="0.25" stroke="rgb(0,0,0)" />
	<line x1="259.816" y1="1768.65" x2="348.389" y2="1729.21" stroke-width="0.25" stroke="rgb(0,0,0)" />
	<line x1="348.389" y1="1730.23" x2="262.1" y2="1768.65" stroke-width="0.25" stroke="rgb(0,0,0)" />
	<line x1="264.383" y1="1768.65" x2="348.389" y2="1731.25" stroke-width="0.25" stroke="rgb(0,0,0)" />
	<line x1="348.389" y1="1732.26" x2="266.667" y2="1768.65" stroke-width="0.25" stroke="rgb(0,0,0)" />
	<line x1="268.951" y1="1768.65" x2="348.389" y2="1733.28" stroke-width="0.25" stroke="rgb(0,0,0)" />
	<line x1="348.389" y1="1734.3" x2="271.235" y2="1768.65" stroke-width="0.25" stroke="rgb(0,0,0)" />
	<line x1="273.519" y1="1768.65" x2="348.389" y2="1735.31" stroke-width="0.25" stroke="rgb(0,0,0)" />
	<line x1="348.389" y1="1736.33" x2="275.802" y2="1768.65" stroke-width="0.25" stroke="rgb(0,0,0)" />
	<line x1="278.086" y1="1768.65" x2="348.389" y2="1737.35" stroke-width="0.25" stroke="rgb(0,0,0)" />
	<line x1="348.389" y1="1738.36" x2="280.37" y2="1768.65" stroke-width="0.25" stroke="rgb(0,0,0)" />
	<line x1="282.654" y1="1768.65" x2="348.389" y2="1739.38" stroke-width="0.25" stroke="rgb(0,0,0)" />
	<line x1="348.389" y1="1740.4" x2="284.938" y2="1768.65" stroke-width="0.25" stroke="rgb(0,0,0)" />
	<line x1="287.221" y1="1768.65" x2="348.389" y2="1741.41" stroke-width="0.25" stroke="rgb(0,0,0)" />
	<line x1="348.389" y1="1742.43" x2="289.505" y2="1768.65" stroke-width="0.25" stroke="rgb(0,0,0)" />
	<line x1="291.789" y1="1768.65" x2="348.389" y2="1743.45" stroke-width="0.25" stroke="rgb(0,0,0)" />
	<line x1="348.389" y1="1744.47" x2="294.073" y2="1768.65" stroke-width="0.25" stroke="rgb(0,0,0)" />
	<line x1="296.357" y1="1768.65" x2="348.389" y2="1745.48" stroke-width="0.25" stroke="rgb(0,0,0)" />
	<line x1="348.389" y1="1746.5" x2="298.64" y2="1768.65" stroke-width="0.25" stroke="rgb(0,0,0)" />
	<line x1="300.924" y1="1768.65" x2="348.389" y2="1747.52" stroke-width="0.25" stroke="rgb(0,0,0)" />
	<line x1="348.389" y1="1748.53" x2="303.208" y2="1768.65" stroke-width="0.25" stroke="rgb(0,0,0)" />
	<line x1="305.492" y1="1768.65" x2="348.389" y2="1749.55" stroke-width="0.25" stroke="rgb(0,0,0)" />
	<line x1="348.389" y1="1750.57" x2="307.776" y2="1768.65" stroke-width="0.25" stroke="rgb(0,0,0)" />
	<line x1="310.059" y1="1768.65" x2="348.389" y2="1751.58" stroke-width="0.25" stroke="rgb(0,0,0)" />
	<line x1="348.389" y1="1752.6" x2="312.343" y2="1768.65" stroke-width="0.25" stroke="rgb(0,0,0)" />
	<line x1="314.627" y1="1768.65" x2="348.389" y2="1753.62" stroke-width="0.25" stroke="rgb(0,0,0)" />
	<line x1="348.389" y1="1754.63" x2="316.911" y2="1768.65" stroke-width="0.25" stroke="rgb(0,0,0)" />
	<line x1="319.195" y1="1768.65" x2="348.389" y2="1755.65" stroke-width="0.25" stroke="rgb(0,0,0)" />
	<line x1="348.389" y1="1756.67" x2="321.478" y2="1768.65" stroke-width="0.25" stroke="rgb(0,0,0)" />
	<line x1="323.762" y1="1768.65" x2="348.389" y2="1757.68" stroke-width="0.25" stroke="rgb(0,0,0)" />
	<line x1="348.389" y1="1758.7" x2="326.046" y2="1768.65" stroke-width="0.25" stroke="rgb(0,0,0)" />
	<line x1="328.33" y1="1768.65" x2="348.389" y2="1759.72" stroke-width="0.25" stroke="rgb(0,0,0)" />
	<line x1="348.389" y1="1760.73" x2="330.614" y2="1768.65" stroke-width="0.25" stroke="rgb(0,0,0)" />
	<line x1="332.897" y1="1768.65" x2="348.389" y2="1761.75" stroke-width="0.25" stroke="rgb(0,0,0)" />
	<line x1="348.389" y1="1762.77" x2="335.181" y2="1768.65" stroke-width="0.25" stroke="rgb(0,0,0)" />
	<line x1="337.465" y1="1768.65" x2="348.389" y2="1763.78" stroke-width="0.25" stroke="rgb(0,0,0)" />
	<line x1="348.389" y1="1764.8" x2="339.749" y2="1768.65" stroke-width="0.25" stroke="rgb(0,0,0)" />
	<line x1="342.033" y1="1768.65" x2="348.389" y2="1765.82" stroke-width="0.25" stroke="rgb(0,0,0)" />
	<line x1="348.389" y1="1766.84" x2="344.316" y2="1768.65" stroke-width="0.25" stroke="rgb(0,0,0)" />
	<line x1="346.6" y1="1768.65" x2="348.389" y2="1767.85" stroke-width="0.25" stroke="rgb(0,0,0)" />
	<line x1="152.522" y1="820.811" x2="153.147" y2="820.533" stroke-width="0.25" stroke="rgb(0,0,0)" />
	<line x1="156.083" y1="820.533" x2="152.522" y2="822.118" stroke-width="0.25" stroke="rgb(0,0,0)" />
	<line x1="152.522" y1="823.426" x2="159.02" y2="820.533" stroke-width="0.25" stroke="rgb(0,0,0)" />
	<line x1="161.956" y1="820.533" x2="152.522" y2="824.733" stroke-width="0.25" stroke="rgb(0,0,0)" />
	<line x1="152.522" y1="826.04" x2="164.892" y2="820.533" stroke-width="0.25" stroke="rgb(0,0,0)" />
	<line x1="167.829" y1="820.533" x2="152.522" y2="827.348" stroke-width="0.25" stroke="rgb(0,0,0)" />
	<line x1="152.522" y1="828.655" x2="170.765" y2="820.533" stroke-width="0.25" stroke="rgb(0,0,0)" />
	<line x1="173.701" y1="820.533" x2="152.522" y2="829.962" stroke-width="0.25" stroke="rgb(0,0,0)" />
	<line x1="152.522" y1="831.27" x2="176.638" y2="820.533" stroke-width="0.25" stroke="rgb(0,0,0)" />
	<line x1="179.574" y1="820.533" x2="152.522" y2="832.577" stroke-width="0.25" stroke="rgb(0,0,0)" />
	<line x1="152.522" y1="833.884" x2="182.51" y2="820.533" stroke-width="0.25" stroke="rgb(0,0,0)" />
	<line x1="185.447" y1="820.533" x2="152.522" y2="835.192" stroke-width="0.25" stroke="rgb(0,0,0)" />
	<line x1="152.522" y1="836.499" x2="188.383" y2="820.533" stroke-width="0.25" stroke="rgb(0,0,0)" />
	<line x1="191.319" y1="820.533" x2="152.522" y2="837.806" stroke-width="0.25" stroke="rgb(0,0,0)" />
	<line x1="152.522" y1="839.114" x2="194.255" y2="820.533" stroke-width="0.25" stroke="rgb(0,0,0)" />
	<line x1="197.192" y1="820.533" x2="152.522" y2="840.421" stroke-width="0.25" stroke="rgb(0,0,0)" />
	<line x1="152.522" y1="841.728" x2="200.128" y2="820.533" stroke-width="0.25" stroke="rgb(0,0,0)" />
	<line x1="203.064" y1="820.533" x2="152.522" y2="843.036" stroke-width="0.25" stroke="rgb(0,0,0)" />
	<line x1="152.522" y1="844.343" x2="206.001" y2="820.533" stroke-width="0.25" stroke="rgb(0,0,0)" />
	<line x1="208.937" y1="820.533" x2="152.522" y2="845.65" stroke-width="0.25" stroke="rgb(0,0,0)" />
	<line x1="152.522" y1="846.958" x2="211.873" y2="820.533" stroke-width="0.25" stroke="rgb(0,0,0)" />
	<line x1="214.81" y1="820.533" x2="152.522" y2="848.265" stroke-width="0.25" stroke="rgb(0,0,0)" />
	<line x1="152.522" y1="849.572" x2="217.746" y2="820.533" stroke-width="0.25" stroke="rgb(0,0,0)" />
	<line x1="220.682" y1="820.533" x2="152.522" y2="850.88" stroke-width="0.25" stroke="rgb(0,0,0)" />
	<line x1="152.522" y1="852.187" x2="223.619" y2="820.533" stroke-width="0.25" stroke="rgb(0,0,0)" />
	<line x1="226.555" y1="820.533" x2="152.522" y2="853.494" stroke-width="0.25" stroke="rgb(0,0,0)" />
	<line x1="152.522" y1="854.802" x2="229.491" y2="820.533" stroke-width="0.25" stroke="rgb(0,0,0)" />
	<line x1="232.428" y1="820.533" x2="152.522" y2="856.109" stroke-width="0.25" stroke="rgb(0,0,0)" />
	<line x1="152.522" y1="857.416" x2="235.364" y2="820.533" stroke-width="0.25" stroke="rgb(0,0,0)" />
	<line x1="238.3" y1="820.533" x2="152.522" y2="858.724" stroke-width="0.25" stroke="rgb(0,0,0)" />
	<line x1="152.522" y1="860.031" x2="241.237" y2="820.533" stroke-width="0.25" stroke="rgb(0,0,0)" />
	<line x1="244.173" y1="820.533" x2="152.522" y2="861.338" stroke-width="0.25" stroke="rgb(0,0,0)" />
	<line x1="152.522" y1="862.646" x2="247.109" y2="820.533" stroke-width="0.25" stroke="rgb(0,0,0)" />
	<line x1="250.046" y1="820.533" x2="152.522" y2="863.953" stroke-width="0.25" stroke="rgb(0,0,0)" />
	<line x1="152.522" y1="865.26" x2="252.982" y2="820.533" stroke-width="0.25" stroke="rgb(0,0,0)" />
	<line x1="255.918" y1="820.533" x2="152.522" y2="866.568" stroke-width="0.25" stroke="rgb(0,0,0)" />
	<line x1="152.522" y1="867.875" x2="258.855" y2="820.533" stroke-width="0.25" stroke="rgb(0,0,0)" />
	<line x1="261.791" y1="820.533" x2="152.522" y2="869.183" stroke-width="0.25" stroke="rgb(0,0,0)" />
	<line x1="152.522" y1="870.49" x2="264.727" y2="820.533" stroke-width="0.25" stroke="rgb(0,0,0)" />
	<line x1="267.663" y1="820.533" x2="152.522" y2="871.797" stroke-width="0.25" stroke="rgb(0,0,0)" />
	<line x1="152.522" y1="873.105" x2="270.6" y2="820.533" stroke-width="0.25" stroke="rgb(0,0,0)" />
	<line x1="273.536" y1="820.533" x2="152.522" y2="874.412" stroke-width="0.25" stroke="rgb(0,0,0)" />
	<line x1="152.522" y1="875.719" x2="276.472" y2="820.533" stroke-width="0.25" stroke="rgb(0,0,0)" />
	<line x1="279.409" y1="820.533" x2="152.522" y2="877.027" stroke-width="0.25" stroke="rgb(0,0,0)" />
	<line x1="152.522" y1="878.334" x2="282.345" y2="820.533" stroke-width="0.25" stroke="rgb(0,0,0)" />
	<line x1="285.281" y1="820.533" x2="152.522" y2="879.641" stroke-width="0.25" stroke="rgb(0,0,0)" />
	<line x1="152.522" y1="880.949" x2="288.218" y2="820.533" stroke-width="0.25" stroke="rgb(0,0,0)" />
	<line x1="291.154" y1="820.533" x2="152.522" y2="882.256" stroke-width="0.25" stroke="rgb(0,0,0)" />
	<line x1="152.522" y1="883.563" x2="294.09" y2="820.533" stroke-width="0.25" stroke="rgb(0,0,0)" />
	<line x1="297.027" y1="820.533" x2="152.522" y2="884.871" stroke-width="0.25" stroke="rgb(0,0,0)" />
	<line x1="152.522" y1="886.178" x2="299.963" y2="820.533" stroke-width="0.25" stroke="rgb(0,0,0)" />
	<line x1="302.574" y1="820.678" x2="152.522" y2="887.485" stroke-width="0.25" stroke="rgb(0,0,0)" />
	<line x1="152.522" y1="888.793" x2="302.574" y2="821.985" stroke-width="0.25" stroke="rgb(0,0,0)" />
	<line x1="302.574" y1="823.293" x2="152.522" y2="890.1" stroke-width="0.25" stroke="rgb(0,0,0)" />
	<line x1="152.522" y1="891.407" x2="302.574" y2="824.6" stroke-width="0.25" stroke="rgb(0,0,0)" />
	<line x1="302.574" y1="825.907" x2="152.522" y2="892.715" stroke-width="0.25" stroke="rgb(0,0,0)" />
	<line x1="152.522" y1="894.022" x2="302.574" y2="827.215" stroke-width="0.25" stroke="rgb(0,0,0)" />
	<line x1="302.574" y1="828.522" x2="152.522" y2="895.329" stroke-width="0.25" stroke="rgb(0,0,0)" />
	<line x1="152.522" y1="896.637" x2="302.574" y2="829.829" stroke-width="0.25" stroke="rgb(0,0,0)" />
	<line x1="302.574" y1="831.137" x2="152.522" y2="897.944" stroke-width="0.25" stroke="rgb(0,0,0)" />
	<line x1="152.522" y1="899.251" x2="302.574" y2="832.444" stroke-width="0.25" stroke="rgb(0,0,0)" />
	<line x1="302.574" y1="833.751" x2="152.522" y2="900.559" stroke-width="0.25" stroke="rgb(0,0,0)" />
	<line x1="152.522" y1="901.866" x2="302.574" y2="835.059" stroke-width="0.25" stroke="rgb(0,0,0)" />
	<line x1="302.574" y1="836.366" x2="152.522" y2="903.173" stroke-width="0.25" stroke="rgb(0,0,0)" />
	<line x1="152.522" y1="904.481" x2="302.574" y2="837.673" stroke-width="0.25" stroke="rgb(0,0,0)" />
	<line x1="302.574" y1="838.981" x2="152.522" y2="905.788" stroke-width="0.25" stroke="rgb(0,0,0)" />
	<line x1="152.522" y1="907.095" x2="302.574" y2="840.288" stroke-width="0.25" stroke="rgb(0,0,0)" />
	<line x1="302.574" y1="841.595" x2="152.522" y2="908.403" stroke-width="0.25" stroke="rgb(0,0,0)" />
	<line x1="152.522" y1="909.71" x2="302.574" y2="842.903" stroke-width="0.25" stroke="rgb(0,0,0)" />
	<line x1="302.574" y1="844.21" x2="152.522" y2="911.017" stroke-width="0.25" stroke="rgb(0,0,0)" />
	<line x1="152.522" y1="912.325" x2="302.574" y2="845.517" stroke-width="0.25" stroke="rgb(0,0,0)" />
	<line x1="302.574" y1="846.825" x2="152.522" y2="913.632" stroke-width="0.25" stroke="rgb(0,0,0)" />
	<line x1="152.522" y1="914.939" x2="302.574" y2="848.132" stroke-width="0.25" stroke="rgb(0,0,0)" />
	<line x1="302.574" y1="849.439" x2="152.522" y2="916.247" stroke-width="0.25" stroke="rgb(0,0,0)" />
	<line x1="152.522" y1="917.554" x2="302.574" y2="850.747" stroke-width="0.25" stroke="rgb(0,0,0)" />
	<line x1="302.574" y1="852.054" x2="152.522" y2="918.861" stroke-width="0.25" stroke="rgb(0,0,0)" />
	<line x1="152.522" y1="920.169" x2="302.574" y2="853.361" stroke-width="0.25" stroke="rgb(0,0,0)" />
	<line x1="302.574" y1="854.669" x2="152.522" y2="921.476" stroke-width="0.25" stroke="rgb(0,0,0)" />
	<line x1="152.522" y1="922.783" x2="302.574" y2="855.976" stroke-width="0.25" stroke="rgb(0,0,0)" />
	<line x1="302.574" y1="857.283" x2="152.522" y2="924.091" stroke-width="0.25" stroke="rgb(0,0,0)" />
	<line x1="152.522" y1="925.398" x2="302.574" y2="858.591" stroke-width="0.25" stroke="rgb(0,0,0)" />
	<line x1="302.574" y1="859.898" x2="152.522" y2="926.705" stroke-width="0.25" stroke="rgb(0,0,0)" />
	<line x1="152.522" y1="928.013" x2="302.574" y2="861.205" stroke-width="0.25" stroke="rgb(0,0,0)" />
	<line x1="302.574" y1="862.513" x2="152.522" y2="929.32" stroke-width="0.25" stroke="rgb(0,0,0)" />
	<line x1="152.522" y1="930.627" x2="302.574" y2="863.82" stroke-width="0.25" stroke="rgb(0,0,0)" />
	<line x1="302.574" y1="865.127" x2="152.522" y2="931.935" stroke-width="0.25" stroke="rgb(0,0,0)" />
	<line x1="152.522" y1="933.242" x2="302.574" y2="866.435" stroke-width="0.25" stroke="rgb(0,0,0)" />
	<line x1="302.574" y1="867.742" x2="152.522" y2="934.549" stroke-width="0.25" stroke="rgb(0,0,0)" />
	<line x1="152.522" y1="935.857" x2="302.574" y2="869.049" stroke-width="0.25" stroke="rgb(0,0,0)" />
	<line x1="302.574" y1="870.357" x2="152.522" y2="937.164" stroke-width="0.25" stroke="rgb(0,0,0)" />
	<line x1="152.522" y1="938.471" x2="302.574" y2="871.664" stroke-width="0.25" stroke="rgb(0,0,0)" />
	<line x1="302.574" y1="872.971" x2="152.522" y2="939.779" stroke-width="0.25" stroke="rgb(0,0,0)" />
	<line x1="152.522" y1="941.086" x2="302.574" y2="874.279" stroke-width="0.25" stroke="rgb(0,0,0)" />
	<line x1="302.574" y1="875.586" x2="152.522" y2="942.393" stroke-width="0.25" stroke="rgb(0,0,0)" />
	<line x1="152.522" y1="943.701" x2="302.574" y2="876.893" stroke-width="0.25" stroke="rgb(0,0,0)" />
	<line x1="302.574" y1="878.201" x2="152.522" y2="945.008" stroke-width="0.25" stroke="rgb(0,0,0)" />
	<line x1="152.522" y1="946.315" x2="302.574" y2="879.508" stroke-width="0.25" stroke="rgb(0,0,0)" />
	<line x1="302.574" y1="880.815" x2="152.522" y2="947.623" stroke-width="0.25" stroke="rgb(0,0,0)" />
	<line x1="152.522" y1="948.93" x2="302.574" y2="882.123" stroke-width="0.25" stroke="rgb(0,0,0)" />
	<line x1="302.574" y1="883.43" x2="152.522" y2="950.237" stroke-width="0.25" stroke="rgb(0,0,0)" />
	<line x1="152.522" y1="951.545" x2="302.574" y2="884.737" stroke-width="0.25" stroke="rgb(0,0,0)" />
	<line x1="302.574" y1="886.045" x2="152.522" y2="952.852" stroke-width="0.25" stroke="rgb(0,0,0)" />
	<line x1="152.522" y1="954.159" x2="302.574" y2="887.352" stroke-width="0.25" stroke="rgb(0,0,0)" />
	<line x1="302.574" y1="888.659" x2="152.522" y2="955.467" stroke-width="0.25" stroke="rgb(0,0,0)" />
	<line x1="152.522" y1="956.774" x2="302.574" y2="889.967" stroke-width="0.25" stroke="rgb(0,0,0)" />
	<line x1="302.574" y1="891.274" x2="152.522" y2="958.081" stroke-width="0.25" stroke="rgb(0,0,0)" />
	<line x1="152.522" y1="959.389" x2="302.574" y2="892.581" stroke-width="0.25" stroke="rgb(0,0,0)" />
	<line x1="302.574" y1="893.889" x2="152.522" y2="960.696" stroke-width="0.25" stroke="rgb(0,0,0)" />
	<line x1="152.522" y1="962.003" x2="302.574" y2="895.196" stroke-width="0.25" stroke="rgb(0,0,0)" />
	<line x1="302.574" y1="896.503" x2="152.522" y2="963.311" stroke-width="0.25" stroke="rgb(0,0,0)" />
	<line x1="152.522" y1="964.618" x2="302.574" y2="897.811" stroke-width="0.25" stroke="rgb(0,0,0)" />
	<line x1="302.574" y1="899.118" x2="152.522" y2="965.925" stroke-width="0.25" stroke="rgb(0,0,0)" />
	<line x1="152.522" y1="967.233" x2="302.574" y2="900.425" stroke-width="0.25" stroke="rgb(0,0,0)" />
	<line x1="302.574" y1="901.733" x2="152.522" y2="968.54" stroke-width="0.25" stroke="rgb(0,0,0)" />
	<line x1="152.522" y1="969.847" x2="302.574" y2="903.04" stroke-width="0.25" stroke="rgb(0,0,0)" />
	<line x1="302.574" y1="904.347" x2="153.802" y2="970.585" stroke-width="0.25" stroke="rgb(0,0,0)" />
	<line x1="156.739" y1="970.585" x2="302.574" y2="905.655" stroke-width="0.25" stroke="rgb(0,0,0)" />
	<line x1="302.574" y1="906.962" x2="159.675" y2="970.585" stroke-width="0.25" stroke="rgb(0,0,0)" />
	<line x1="162.611" y1="970.585" x2="302.574" y2="908.269" stroke-width="0.25" stroke="rgb(0,0,0)" />
	<line x1="302.574" y1="909.577" x2="165.548" y2="970.585" stroke-width="0.25" stroke="rgb(0,0,0)" />
	<line x1="168.484" y1="970.585" x2="302.574" y2="910.884" stroke-width="0.25" stroke="rgb(0,0,0)" />
	<line x1="302.574" y1="912.191" x2="171.42" y2="970.585" stroke-width="0.25" stroke="rgb(0,0,0)" />
	<line x1="174.357" y1="970.585" x2="302.574" y2="913.499" stroke-width="0.25" stroke="rgb(0,0,0)" />
	<line x1="302.574" y1="914.806" x2="177.293" y2="970.585" stroke-width="0.25" stroke="rgb(0,0,0)" />
	<line x1="180.229" y1="970.585" x2="302.574" y2="916.113" stroke-width="0.25" stroke="rgb(0,0,0)" />
	<line x1="302.574" y1="917.421" x2="183.165" y2="970.585" stroke-width="0.25" stroke="rgb(0,0,0)" />
	<line x1="186.102" y1="970.585" x2="302.574" y2="918.728" stroke-width="0.25" stroke="rgb(0,0,0)" />
	<line x1="302.574" y1="920.035" x2="189.038" y2="970.585" stroke-width="0.25" stroke="rgb(0,0,0)" />
	<line x1="191.974" y1="970.585" x2="302.574" y2="921.343" stroke-width="0.25" stroke="rgb(0,0,0)" />
	<line x1="302.574" y1="922.65" x2="194.911" y2="970.585" stroke-width="0.25" stroke="rgb(0,0,0)" />
	<line x1="197.847" y1="970.585" x2="302.574" y2="923.957" stroke-width="0.25" stroke="rgb(0,0,0)" />
	<line x1="302.574" y1="925.265" x2="200.783" y2="970.585" stroke-width="0.25" stroke="rgb(0,0,0)" />
	<line x1="203.72" y1="970.585" x2="302.574" y2="926.572" stroke-width="0.25" stroke="rgb(0,0,0)" />
	<line x1="302.574" y1="927.879" x2="206.656" y2="970.585" stroke-width="0.25" stroke="rgb(0,0,0)" />
	<line x1="209.592" y1="970.585" x2="302.574" y2="929.187" stroke-width="0.25" stroke="rgb(0,0,0)" />
	<line x1="302.574" y1="930.494" x2="212.529" y2="970.585" stroke-width="0.25" stroke="rgb(0,0,0)" />
	<line x1="215.465" y1="970.585" x2="302.574" y2="931.801" stroke-width="0.25" stroke="rgb(0,0,0)" />
	<line x1="302.574" y1="933.109" x2="218.401" y2="970.585" stroke-width="0.25" stroke="rgb(0,0,0)" />
	<line x1="221.338" y1="970.585" x2="302.574" y2="934.416" stroke-width="0.25" stroke="rgb(0,0,0)" />
	<line x1="302.574" y1="935.723" x2="224.274" y2="970.585" stroke-width="0.25" stroke="rgb(0,0,0)" />
	<line x1="227.21" y1="970.585" x2="302.574" y2="937.031" stroke-width="0.25" stroke="rgb(0,0,0)" />
	<line x1="302.574" y1="938.338" x2="230.147" y2="970.585" stroke-width="0.25" stroke="rgb(0,0,0)" />
	<line x1="233.083" y1="970.585" x2="302.574" y2="939.645" stroke-width="0.25" stroke="rgb(0,0,0)" />
	<line x1="302.574" y1="940.953" x2="236.019" y2="970.585" stroke-width="0.25" stroke="rgb(0,0,0)" />
	<line x1="238.956" y1="970.585" x2="302.574" y2="942.26" stroke-width="0.25" stroke="rgb(0,0,0)" />
	<line x1="302.574" y1="943.567" x2="241.892" y2="970.585" stroke-width="0.25" stroke="rgb(0,0,0)" />
	<line x1="244.828" y1="970.585" x2="302.574" y2="944.875" stroke-width="0.25" stroke="rgb(0,0,0)" />
	<line x1="302.574" y1="946.182" x2="247.765" y2="970.585" stroke-width="0.25" stroke="rgb(0,0,0)" />
	<line x1="250.701" y1="970.585" x2="302.574" y2="947.489" stroke-width="0.25" stroke="rgb(0,0,0)" />
	<line x1="302.574" y1="948.797" x2="253.637" y2="970.585" stroke-width="0.25" stroke="rgb(0,0,0)" />
	<line x1="256.573" y1="970.585" x2="302.574" y2="950.104" stroke-width="0.25" stroke="rgb(0,0,0)" />
	<line x1="302.574" y1="951.411" x2="259.51" y2="970.585" stroke-width="0.25" stroke="rgb(0,0,0)" />
	<line x1="262.446" y1="970.585" x2="302.574" y2="952.719" stroke-width="0.25" stroke="rgb(0,0,0)" />
	<line x1="302.574" y1="954.026" x2="265.382" y2="970.585" stroke-width="0.25" stroke="rgb(0,0,0)" />
	<line x1="268.319" y1="970.585" x2="302.574" y2="955.333" stroke-width="0.25" stroke="rgb(0,0,0)" />
	<line x1="302.574" y1="956.641" x2="271.255" y2="970.585" stroke-width="0.25" stroke="rgb(0,0,0)" />
	<line x1="274.191" y1="970.585" x2="302.574" y2="957.948" stroke-width="0.25" stroke="rgb(0,0,0)" />
	<line x1="302.574" y1="959.255" x2="277.128" y2="970.585" stroke-width="0.25" stroke="rgb(0,0,0)" />
	<line x1="280.064" y1="970.585" x2="302.574" y2="960.563" stroke-width="0.25" stroke="rgb(0,0,0)" />
	<line x1="302.574" y1="961.87" x2="283" y2="970.585" stroke-width="0.25" stroke="rgb(0,0,0)" />
	<line x1="285.937" y1="970.585" x2="302.574" y2="963.177" stroke-width="0.25" stroke="rgb(0,0,0)" />
	<line x1="302.574" y1="964.485" x2="288.873" y2="970.585" stroke-width="0.25" stroke="rgb(0,0,0)" />
	<line x1="291.809" y1="970.585" x2="302.574" y2="965.792" stroke-width="0.25" stroke="rgb(0,0,0)" />
	<line x1="302.574" y1="967.099" x2="294.746" y2="970.585" stroke-width="0.25" stroke="rgb(0,0,0)" />
	<line x1="297.682" y1="970.585" x2="302.574" y2="968.407" stroke-width="0.25" stroke="rgb(0,0,0)" />
	<line x1="302.574" y1="969.714" x2="300.618" y2="970.585" stroke-width="0.25" stroke="rgb(0,0,0)" />
</svg>
