<?xml version="1.0" standalone="no" ?>
<!DOCTYPE svg PUBLIC "-//W3C//DTD SVG 1.1//EN" "http://www.w3.org/Graphics/SVG/1.1/DTD/svg11.dtd">
<svg width="2000px" height="2000px" xmlns="http://www.w3.org/2000/svg" version="1.1" >
	<line x1="348.389" y1="1603.88" x2="315.436" y2="1570.92" stroke-width="0.25" stroke="rgb(0,0,0)" />
	<line x1="315.436" y1="1570.92" x2="150.665" y2="1570.92" stroke-width="0.25" stroke="rgb(0,0,0)" />
	<line x1="150.665" y1="1570.92" x2="150.665" y2="1768.65" stroke-width="0.25" stroke="rgb(0,0,0)" />
	<line x1="150.665" y1="1768.65" x2="348.389" y2="1768.65" stroke-width="0.25" stroke="rgb(0,0,0)" />
	<line x1="348.389" y1="1768.65" x2="348.389" y2="1603.88" stroke-width="0.25" stroke="rgb(0,0,0)" />
	<line x1="271.057" y1="852.05" x2="150.864" y2="852.05" stroke-width="0.25" stroke="rgb(0,0,0)" />
	<line x1="150.864" y1="852.05" x2="150.864" y2="972.243" stroke-width="0.25" stroke="rgb(0,0,0)" />
	<line x1="150.864" y1="972.243" x2="271.057" y2="972.243" stroke-width="0.25" stroke="rgb(0,0,0)" />
	<line x1="271.057" y1="972.243" x2="271.057" y2="852.05" stroke-width="0.25" stroke="rgb(0,0,0)" />
	<line x1="270.195" y1="852.912" x2="151.726" y2="852.912" stroke-width="0.25" stroke="rgb(0,0,0)" />
	<line x1="151.726" y1="852.912" x2="151.726" y2="971.381" stroke-width="0.25" stroke="rgb(0,0,0)" />
	<line x1="151.726" y1="971.381" x2="270.195" y2="971.381" stroke-width="0.25" stroke="rgb(0,0,0)" />
	<line x1="270.195" y1="971.381" x2="270.195" y2="852.912" stroke-width="0.25" stroke="rgb(0,0,0)" />
	<line x1="150.665" y1="1571.81" x2="152.663" y2="1570.92" stroke-width="0.25" stroke="rgb(0,0,0)" />
	<line x1="154.946" y1="1570.92" x2="150.665" y2="1572.83" stroke-width="0.25" stroke="rgb(0,0,0)" />
	<line x1="150.665" y1="1573.85" x2="157.23" y2="1570.92" stroke-width="0.25" stroke="rgb(0,0,0)" />
	<line x1="159.514" y1="1570.92" x2="150.665" y2="1574.86" stroke-width="0.25" stroke="rgb(0,0,0)" />
	<line x1="150.665" y1="1575.88" x2="161.798" y2="1570.92" stroke-width="0.25" stroke="rgb(0,0,0)" />
	<line x1="164.082" y1="1570.92" x2="150.665" y2="1576.9" stroke-width="0.25" stroke="rgb(0,0,0)" />
	<line x1="150.665" y1="1577.91" x2="166.365" y2="1570.92" stroke-width="0.25" stroke="rgb(0,0,0)" />
	<line x1="168.649" y1="1570.92" x2="150.665" y2="1578.93" stroke-width="0.25" stroke="rgb(0,0,0)" />
	<line x1="150.665" y1="1579.95" x2="170.933" y2="1570.92" stroke-width="0.25" stroke="rgb(0,0,0)" />
	<line x1="173.217" y1="1570.92" x2="150.665" y2="1580.96" stroke-width="0.25" stroke="rgb(0,0,0)" />
	<line x1="150.665" y1="1581.98" x2="175.501" y2="1570.92" stroke-width="0.25" stroke="rgb(0,0,0)" />
	<line x1="177.784" y1="1570.92" x2="150.665" y2="1583" stroke-width="0.25" stroke="rgb(0,0,0)" />
	<line x1="150.665" y1="1584.02" x2="180.068" y2="1570.92" stroke-width="0.25" stroke="rgb(0,0,0)" />
	<line x1="182.352" y1="1570.92" x2="150.665" y2="1585.03" stroke-width="0.25" stroke="rgb(0,0,0)" />
	<line x1="150.665" y1="1586.05" x2="184.636" y2="1570.92" stroke-width="0.25" stroke="rgb(0,0,0)" />
	<line x1="186.92" y1="1570.92" x2="150.665" y2="1587.07" stroke-width="0.25" stroke="rgb(0,0,0)" />
	<line x1="150.665" y1="1588.08" x2="189.203" y2="1570.92" stroke-width="0.25" stroke="rgb(0,0,0)" />
	<line x1="191.487" y1="1570.92" x2="150.665" y2="1589.1" stroke-width="0.25" stroke="rgb(0,0,0)" />
	<line x1="150.665" y1="1590.12" x2="193.771" y2="1570.92" stroke-width="0.25" stroke="rgb(0,0,0)" />
	<line x1="196.055" y1="1570.92" x2="150.665" y2="1591.13" stroke-width="0.25" stroke="rgb(0,0,0)" />
	<line x1="150.665" y1="1592.15" x2="198.339" y2="1570.92" stroke-width="0.25" stroke="rgb(0,0,0)" />
	<line x1="200.623" y1="1570.92" x2="150.665" y2="1593.17" stroke-width="0.25" stroke="rgb(0,0,0)" />
	<line x1="150.665" y1="1594.18" x2="202.906" y2="1570.92" stroke-width="0.25" stroke="rgb(0,0,0)" />
	<line x1="205.19" y1="1570.92" x2="150.665" y2="1595.2" stroke-width="0.25" stroke="rgb(0,0,0)" />
	<line x1="150.665" y1="1596.22" x2="207.474" y2="1570.92" stroke-width="0.25" stroke="rgb(0,0,0)" />
	<line x1="209.758" y1="1570.92" x2="150.665" y2="1597.23" stroke-width="0.25" stroke="rgb(0,0,0)" />
	<line x1="150.665" y1="1598.25" x2="212.042" y2="1570.92" stroke-width="0.25" stroke="rgb(0,0,0)" />
	<line x1="214.325" y1="1570.92" x2="150.665" y2="1599.27" stroke-width="0.25" stroke="rgb(0,0,0)" />
	<line x1="150.665" y1="1600.28" x2="216.609" y2="1570.92" stroke-width="0.25" stroke="rgb(0,0,0)" />
	<line x1="218.893" y1="1570.92" x2="150.665" y2="1601.3" stroke-width="0.25" stroke="rgb(0,0,0)" />
	<line x1="150.665" y1="1602.32" x2="221.177" y2="1570.92" stroke-width="0.25" stroke="rgb(0,0,0)" />
	<line x1="223.461" y1="1570.92" x2="150.665" y2="1603.33" stroke-width="0.25" stroke="rgb(0,0,0)" />
	<line x1="150.665" y1="1604.35" x2="225.744" y2="1570.92" stroke-width="0.25" stroke="rgb(0,0,0)" />
	<line x1="228.028" y1="1570.92" x2="150.665" y2="1605.37" stroke-width="0.25" stroke="rgb(0,0,0)" />
	<line x1="150.665" y1="1606.39" x2="230.312" y2="1570.92" stroke-width="0.25" stroke="rgb(0,0,0)" />
	<line x1="232.596" y1="1570.92" x2="150.665" y2="1607.4" stroke-width="0.25" stroke="rgb(0,0,0)" />
	<line x1="150.665" y1="1608.42" x2="234.88" y2="1570.92" stroke-width="0.25" stroke="rgb(0,0,0)" />
	<line x1="237.163" y1="1570.92" x2="150.665" y2="1609.44" stroke-width="0.25" stroke="rgb(0,0,0)" />
	<line x1="150.665" y1="1610.45" x2="239.447" y2="1570.92" stroke-width="0.25" stroke="rgb(0,0,0)" />
	<line x1="241.731" y1="1570.92" x2="150.665" y2="1611.47" stroke-width="0.25" stroke="rgb(0,0,0)" />
	<line x1="150.665" y1="1612.49" x2="244.015" y2="1570.92" stroke-width="0.25" stroke="rgb(0,0,0)" />
	<line x1="246.299" y1="1570.92" x2="150.665" y2="1613.5" stroke-width="0.25" stroke="rgb(0,0,0)" />
	<line x1="150.665" y1="1614.52" x2="248.582" y2="1570.92" stroke-width="0.25" stroke="rgb(0,0,0)" />
	<line x1="250.866" y1="1570.92" x2="150.665" y2="1615.54" stroke-width="0.25" stroke="rgb(0,0,0)" />
	<line x1="150.665" y1="1616.55" x2="253.15" y2="1570.92" stroke-width="0.25" stroke="rgb(0,0,0)" />
	<line x1="255.434" y1="1570.92" x2="150.665" y2="1617.57" stroke-width="0.25" stroke="rgb(0,0,0)" />
	<line x1="150.665" y1="1618.59" x2="257.718" y2="1570.92" stroke-width="0.25" stroke="rgb(0,0,0)" />
	<line x1="260.001" y1="1570.92" x2="150.665" y2="1619.6" stroke-width="0.25" stroke="rgb(0,0,0)" />
	<line x1="150.665" y1="1620.62" x2="262.285" y2="1570.92" stroke-width="0.25" stroke="rgb(0,0,0)" />
	<line x1="264.569" y1="1570.92" x2="150.665" y2="1621.64" stroke-width="0.25" stroke="rgb(0,0,0)" />
	<line x1="150.665" y1="1622.65" x2="266.853" y2="1570.92" stroke-width="0.25" stroke="rgb(0,0,0)" />
	<line x1="269.137" y1="1570.92" x2="150.665" y2="1623.67" stroke-width="0.25" stroke="rgb(0,0,0)" />
	<line x1="150.665" y1="1624.69" x2="271.42" y2="1570.92" stroke-width="0.25" stroke="rgb(0,0,0)" />
	<line x1="273.704" y1="1570.92" x2="150.665" y2="1625.7" stroke-width="0.25" stroke="rgb(0,0,0)" />
	<line x1="150.665" y1="1626.72" x2="275.988" y2="1570.92" stroke-width="0.25" stroke="rgb(0,0,0)" />
	<line x1="278.272" y1="1570.92" x2="150.665" y2="1627.74" stroke-width="0.25" stroke="rgb(0,0,0)" />
	<line x1="150.665" y1="1628.76" x2="280.556" y2="1570.92" stroke-width="0.25" stroke="rgb(0,0,0)" />
	<line x1="282.839" y1="1570.92" x2="150.665" y2="1629.77" stroke-width="0.25" stroke="rgb(0,0,0)" />
	<line x1="150.665" y1="1630.79" x2="285.123" y2="1570.92" stroke-width="0.25" stroke="rgb(0,0,0)" />
	<line x1="287.407" y1="1570.92" x2="150.665" y2="1631.81" stroke-width="0.25" stroke="rgb(0,0,0)" />
	<line x1="150.665" y1="1632.82" x2="289.691" y2="1570.92" stroke-width="0.25" stroke="rgb(0,0,0)" />
	<line x1="291.975" y1="1570.92" x2="150.665" y2="1633.84" stroke-width="0.25" stroke="rgb(0,0,0)" />
	<line x1="150.665" y1="1634.86" x2="294.258" y2="1570.92" stroke-width="0.25" stroke="rgb(0,0,0)" />
	<line x1="296.542" y1="1570.92" x2="150.665" y2="1635.87" stroke-width="0.25" stroke="rgb(0,0,0)" />
	<line x1="150.665" y1="1636.89" x2="298.826" y2="1570.92" stroke-width="0.25" stroke="rgb(0,0,0)" />
	<line x1="301.11" y1="1570.92" x2="150.665" y2="1637.91" stroke-width="0.25" stroke="rgb(0,0,0)" />
	<line x1="150.665" y1="1638.92" x2="303.394" y2="1570.92" stroke-width="0.25" stroke="rgb(0,0,0)" />
	<line x1="305.678" y1="1570.92" x2="150.665" y2="1639.94" stroke-width="0.25" stroke="rgb(0,0,0)" />
	<line x1="150.665" y1="1640.96" x2="307.961" y2="1570.92" stroke-width="0.25" stroke="rgb(0,0,0)" />
	<line x1="310.245" y1="1570.92" x2="150.665" y2="1641.97" stroke-width="0.25" stroke="rgb(0,0,0)" />
	<line x1="150.665" y1="1642.99" x2="312.529" y2="1570.92" stroke-width="0.25" stroke="rgb(0,0,0)" />
	<line x1="314.813" y1="1570.92" x2="150.665" y2="1644.01" stroke-width="0.25" stroke="rgb(0,0,0)" />
	<line x1="150.665" y1="1645.02" x2="315.948" y2="1571.44" stroke-width="0.25" stroke="rgb(0,0,0)" />
	<line x1="316.651" y1="1572.14" x2="150.665" y2="1646.04" stroke-width="0.25" stroke="rgb(0,0,0)" />
	<line x1="150.665" y1="1647.06" x2="317.355" y2="1572.84" stroke-width="0.25" stroke="rgb(0,0,0)" />
	<line x1="318.059" y1="1573.55" x2="150.665" y2="1648.07" stroke-width="0.25" stroke="rgb(0,0,0)" />
	<line x1="150.665" y1="1649.09" x2="318.762" y2="1574.25" stroke-width="0.25" stroke="rgb(0,0,0)" />
	<line x1="319.466" y1="1574.95" x2="150.665" y2="1650.11" stroke-width="0.25" stroke="rgb(0,0,0)" />
	<line x1="150.665" y1="1651.13" x2="320.169" y2="1575.66" stroke-width="0.25" stroke="rgb(0,0,0)" />
	<line x1="320.873" y1="1576.36" x2="150.665" y2="1652.14" stroke-width="0.25" stroke="rgb(0,0,0)" />
	<line x1="150.665" y1="1653.16" x2="321.576" y2="1577.06" stroke-width="0.25" stroke="rgb(0,0,0)" />
	<line x1="322.28" y1="1577.77" x2="150.665" y2="1654.18" stroke-width="0.25" stroke="rgb(0,0,0)" />
	<line x1="150.665" y1="1655.19" x2="322.984" y2="1578.47" stroke-width="0.25" stroke="rgb(0,0,0)" />
	<line x1="323.687" y1="1579.17" x2="150.665" y2="1656.21" stroke-width="0.25" stroke="rgb(0,0,0)" />
	<line x1="150.665" y1="1657.23" x2="324.391" y2="1579.88" stroke-width="0.25" stroke="rgb(0,0,0)" />
	<line x1="325.094" y1="1580.58" x2="150.665" y2="1658.24" stroke-width="0.25" stroke="rgb(0,0,0)" />
	<line x1="150.665" y1="1659.26" x2="325.798" y2="1581.29" stroke-width="0.25" stroke="rgb(0,0,0)" />
	<line x1="326.501" y1="1581.99" x2="150.665" y2="1660.28" stroke-width="0.25" stroke="rgb(0,0,0)" />
	<line x1="150.665" y1="1661.29" x2="327.205" y2="1582.69" stroke-width="0.25" stroke="rgb(0,0,0)" />
	<line x1="327.908" y1="1583.4" x2="150.665" y2="1662.31" stroke-width="0.25" stroke="rgb(0,0,0)" />
	<line x1="150.665" y1="1663.33" x2="328.612" y2="1584.1" stroke-width="0.25" stroke="rgb(0,0,0)" />
	<line x1="329.316" y1="1584.8" x2="150.665" y2="1664.34" stroke-width="0.25" stroke="rgb(0,0,0)" />
	<line x1="150.665" y1="1665.36" x2="330.019" y2="1585.51" stroke-width="0.25" stroke="rgb(0,0,0)" />
	<line x1="330.723" y1="1586.21" x2="150.665" y2="1666.38" stroke-width="0.25" stroke="rgb(0,0,0)" />
	<line x1="150.665" y1="1667.39" x2="331.426" y2="1586.91" stroke-width="0.25" stroke="rgb(0,0,0)" />
	<line x1="332.13" y1="1587.62" x2="150.665" y2="1668.41" stroke-width="0.25" stroke="rgb(0,0,0)" />
	<line x1="150.665" y1="1669.43" x2="332.833" y2="1588.32" stroke-width="0.25" stroke="rgb(0,0,0)" />
	<line x1="333.537" y1="1589.02" x2="150.665" y2="1670.44" stroke-width="0.25" stroke="rgb(0,0,0)" />
	<line x1="150.665" y1="1671.46" x2="334.241" y2="1589.73" stroke-width="0.25" stroke="rgb(0,0,0)" />
	<line x1="334.944" y1="1590.43" x2="150.665" y2="1672.48" stroke-width="0.25" stroke="rgb(0,0,0)" />
	<line x1="150.665" y1="1673.5" x2="335.648" y2="1591.14" stroke-width="0.25" stroke="rgb(0,0,0)" />
	<line x1="336.351" y1="1591.84" x2="150.665" y2="1674.51" stroke-width="0.25" stroke="rgb(0,0,0)" />
	<line x1="150.665" y1="1675.53" x2="337.055" y2="1592.54" stroke-width="0.25" stroke="rgb(0,0,0)" />
	<line x1="337.758" y1="1593.25" x2="150.665" y2="1676.55" stroke-width="0.25" stroke="rgb(0,0,0)" />
	<line x1="150.665" y1="1677.56" x2="338.462" y2="1593.95" stroke-width="0.25" stroke="rgb(0,0,0)" />
	<line x1="339.166" y1="1594.65" x2="150.665" y2="1678.58" stroke-width="0.25" stroke="rgb(0,0,0)" />
	<line x1="150.665" y1="1679.6" x2="339.869" y2="1595.36" stroke-width="0.25" stroke="rgb(0,0,0)" />
	<line x1="340.573" y1="1596.06" x2="150.665" y2="1680.61" stroke-width="0.25" stroke="rgb(0,0,0)" />
	<line x1="150.665" y1="1681.63" x2="341.276" y2="1596.76" stroke-width="0.25" stroke="rgb(0,0,0)" />
	<line x1="341.98" y1="1597.47" x2="150.665" y2="1682.65" stroke-width="0.25" stroke="rgb(0,0,0)" />
	<line x1="150.665" y1="1683.66" x2="342.683" y2="1598.17" stroke-width="0.25" stroke="rgb(0,0,0)" />
	<line x1="343.387" y1="1598.87" x2="150.665" y2="1684.68" stroke-width="0.25" stroke="rgb(0,0,0)" />
	<line x1="150.665" y1="1685.7" x2="344.091" y2="1599.58" stroke-width="0.25" stroke="rgb(0,0,0)" />
	<line x1="344.794" y1="1600.28" x2="150.665" y2="1686.71" stroke-width="0.25" stroke="rgb(0,0,0)" />
	<line x1="150.665" y1="1687.73" x2="345.498" y2="1600.99" stroke-width="0.25" stroke="rgb(0,0,0)" />
	<line x1="346.201" y1="1601.69" x2="150.665" y2="1688.75" stroke-width="0.25" stroke="rgb(0,0,0)" />
	<line x1="150.665" y1="1689.76" x2="346.905" y2="1602.39" stroke-width="0.25" stroke="rgb(0,0,0)" />
	<line x1="347.608" y1="1603.1" x2="150.665" y2="1690.78" stroke-width="0.25" stroke="rgb(0,0,0)" />
	<line x1="150.665" y1="1691.8" x2="348.312" y2="1603.8" stroke-width="0.25" stroke="rgb(0,0,0)" />
	<line x1="348.389" y1="1604.78" x2="150.665" y2="1692.81" stroke-width="0.25" stroke="rgb(0,0,0)" />
	<line x1="150.665" y1="1693.83" x2="348.389" y2="1605.8" stroke-width="0.25" stroke="rgb(0,0,0)" />
	<line x1="348.389" y1="1606.82" x2="150.665" y2="1694.85" stroke-width="0.25" stroke="rgb(0,0,0)" />
	<line x1="150.665" y1="1695.87" x2="348.389" y2="1607.83" stroke-width="0.25" stroke="rgb(0,0,0)" />
	<line x1="348.389" y1="1608.85" x2="150.665" y2="1696.88" stroke-width="0.25" stroke="rgb(0,0,0)" />
	<line x1="150.665" y1="1697.9" x2="348.389" y2="1609.87" stroke-width="0.25" stroke="rgb(0,0,0)" />
	<line x1="348.389" y1="1610.88" x2="150.665" y2="1698.92" stroke-width="0.25" stroke="rgb(0,0,0)" />
	<line x1="150.665" y1="1699.93" x2="348.389" y2="1611.9" stroke-width="0.25" stroke="rgb(0,0,0)" />
	<line x1="348.389" y1="1612.92" x2="150.665" y2="1700.95" stroke-width="0.25" stroke="rgb(0,0,0)" />
	<line x1="150.665" y1="1701.97" x2="348.389" y2="1613.93" stroke-width="0.25" stroke="rgb(0,0,0)" />
	<line x1="348.389" y1="1614.95" x2="150.665" y2="1702.98" stroke-width="0.25" stroke="rgb(0,0,0)" />
	<line x1="150.665" y1="1704" x2="348.389" y2="1615.97" stroke-width="0.25" stroke="rgb(0,0,0)" />
	<line x1="348.389" y1="1616.98" x2="150.665" y2="1705.02" stroke-width="0.25" stroke="rgb(0,0,0)" />
	<line x1="150.665" y1="1706.03" x2="348.389" y2="1618" stroke-width="0.25" stroke="rgb(0,0,0)" />
	<line x1="348.389" y1="1619.02" x2="150.665" y2="1707.05" stroke-width="0.25" stroke="rgb(0,0,0)" />
	<line x1="150.665" y1="1708.07" x2="348.389" y2="1620.03" stroke-width="0.25" stroke="rgb(0,0,0)" />
	<line x1="348.389" y1="1621.05" x2="150.665" y2="1709.08" stroke-width="0.25" stroke="rgb(0,0,0)" />
	<line x1="150.665" y1="1710.1" x2="348.389" y2="1622.07" stroke-width="0.25" stroke="rgb(0,0,0)" />
	<line x1="348.389" y1="1623.08" x2="150.665" y2="1711.12" stroke-width="0.25" stroke="rgb(0,0,0)" />
	<line x1="150.665" y1="1712.13" x2="348.389" y2="1624.1" stroke-width="0.25" stroke="rgb(0,0,0)" />
	<line x1="348.389" y1="1625.12" x2="150.665" y2="1713.15" stroke-width="0.25" stroke="rgb(0,0,0)" />
	<line x1="150.665" y1="1714.17" x2="348.389" y2="1626.14" stroke-width="0.25" stroke="rgb(0,0,0)" />
	<line x1="348.389" y1="1627.15" x2="150.665" y2="1715.18" stroke-width="0.25" stroke="rgb(0,0,0)" />
	<line x1="150.665" y1="1716.2" x2="348.389" y2="1628.17" stroke-width="0.25" stroke="rgb(0,0,0)" />
	<line x1="348.389" y1="1629.19" x2="150.665" y2="1717.22" stroke-width="0.25" stroke="rgb(0,0,0)" />
	<line x1="150.665" y1="1718.24" x2="348.389" y2="1630.2" stroke-width="0.25" stroke="rgb(0,0,0)" />
	<line x1="348.389" y1="1631.22" x2="150.665" y2="1719.25" stroke-width="0.25" stroke="rgb(0,0,0)" />
	<line x1="150.665" y1="1720.27" x2="348.389" y2="1632.24" stroke-width="0.25" stroke="rgb(0,0,0)" />
	<line x1="348.389" y1="1633.25" x2="150.665" y2="1721.29" stroke-width="0.25" stroke="rgb(0,0,0)" />
	<line x1="150.665" y1="1722.3" x2="348.389" y2="1634.27" stroke-width="0.25" stroke="rgb(0,0,0)" />
	<line x1="348.389" y1="1635.29" x2="150.665" y2="1723.32" stroke-width="0.25" stroke="rgb(0,0,0)" />
	<line x1="150.665" y1="1724.34" x2="348.389" y2="1636.3" stroke-width="0.25" stroke="rgb(0,0,0)" />
	<line x1="348.389" y1="1637.32" x2="150.665" y2="1725.35" stroke-width="0.25" stroke="rgb(0,0,0)" />
	<line x1="150.665" y1="1726.37" x2="348.389" y2="1638.34" stroke-width="0.25" stroke="rgb(0,0,0)" />
	<line x1="348.389" y1="1639.35" x2="150.665" y2="1727.39" stroke-width="0.25" stroke="rgb(0,0,0)" />
	<line x1="150.665" y1="1728.4" x2="348.389" y2="1640.37" stroke-width="0.25" stroke="rgb(0,0,0)" />
	<line x1="348.389" y1="1641.39" x2="150.665" y2="1729.42" stroke-width="0.25" stroke="rgb(0,0,0)" />
	<line x1="150.665" y1="1730.44" x2="348.389" y2="1642.4" stroke-width="0.25" stroke="rgb(0,0,0)" />
	<line x1="348.389" y1="1643.42" x2="150.665" y2="1731.45" stroke-width="0.25" stroke="rgb(0,0,0)" />
	<line x1="150.665" y1="1732.47" x2="348.389" y2="1644.44" stroke-width="0.25" stroke="rgb(0,0,0)" />
	<line x1="348.389" y1="1645.45" x2="150.665" y2="1733.49" stroke-width="0.25" stroke="rgb(0,0,0)" />
	<line x1="150.665" y1="1734.5" x2="348.389" y2="1646.47" stroke-width="0.25" stroke="rgb(0,0,0)" />
	<line x1="348.389" y1="1647.49" x2="150.665" y2="1735.52" stroke-width="0.25" stroke="rgb(0,0,0)" />
	<line x1="150.665" y1="1736.54" x2="348.389" y2="1648.51" stroke-width="0.25" stroke="rgb(0,0,0)" />
	<line x1="348.389" y1="1649.52" x2="150.665" y2="1737.55" stroke-width="0.25" stroke="rgb(0,0,0)" />
	<line x1="150.665" y1="1738.57" x2="348.389" y2="1650.54" stroke-width="0.25" stroke="rgb(0,0,0)" />
	<line x1="348.389" y1="1651.56" x2="150.665" y2="1739.59" stroke-width="0.25" stroke="rgb(0,0,0)" />
	<line x1="150.665" y1="1740.6" x2="348.389" y2="1652.57" stroke-width="0.25" stroke="rgb(0,0,0)" />
	<line x1="348.389" y1="1653.59" x2="150.665" y2="1741.62" stroke-width="0.25" stroke="rgb(0,0,0)" />
	<line x1="150.665" y1="1742.64" x2="348.389" y2="1654.61" stroke-width="0.25" stroke="rgb(0,0,0)" />
	<line x1="348.389" y1="1655.62" x2="150.665" y2="1743.66" stroke-width="0.25" stroke="rgb(0,0,0)" />
	<line x1="150.665" y1="1744.67" x2="348.389" y2="1656.64" stroke-width="0.25" stroke="rgb(0,0,0)" />
	<line x1="348.389" y1="1657.66" x2="150.665" y2="1745.69" stroke-width="0.25" stroke="rgb(0,0,0)" />
	<line x1="150.665" y1="1746.71" x2="348.389" y2="1658.67" stroke-width="0.25" stroke="rgb(0,0,0)" />
	<line x1="348.389" y1="1659.69" x2="150.665" y2="1747.72" stroke-width="0.25" stroke="rgb(0,0,0)" />
	<line x1="150.665" y1="1748.74" x2="348.389" y2="1660.71" stroke-width="0.25" stroke="rgb(0,0,0)" />
	<line x1="348.389" y1="1661.72" x2="150.665" y2="1749.76" stroke-width="0.25" stroke="rgb(0,0,0)" />
	<line x1="150.665" y1="1750.77" x2="348.389" y2="1662.74" stroke-width="0.25" stroke="rgb(0,0,0)" />
	<line x1="348.389" y1="1663.76" x2="150.665" y2="1751.79" stroke-width="0.25" stroke="rgb(0,0,0)" />
	<line x1="150.665" y1="1752.81" x2="348.389" y2="1664.77" stroke-width="0.25" stroke="rgb(0,0,0)" />
	<line x1="348.389" y1="1665.79" x2="150.665" y2="1753.82" stroke-width="0.25" stroke="rgb(0,0,0)" />
	<line x1="150.665" y1="1754.84" x2="348.389" y2="1666.81" stroke-width="0.25" stroke="rgb(0,0,0)" />
	<line x1="348.389" y1="1667.82" x2="150.665" y2="1755.86" stroke-width="0.25" stroke="rgb(0,0,0)" />
	<line x1="150.665" y1="1756.87" x2="348.389" y2="1668.84" stroke-width="0.25" stroke="rgb(0,0,0)" />
	<line x1="348.389" y1="1669.86" x2="150.665" y2="1757.89" stroke-width="0.25" stroke="rgb(0,0,0)" />
	<line x1="150.665" y1="1758.91" x2="348.389" y2="1670.88" stroke-width="0.25" stroke="rgb(0,0,0)" />
	<line x1="348.389" y1="1671.89" x2="150.665" y2="1759.92" stroke-width="0.25" stroke="rgb(0,0,0)" />
	<line x1="150.665" y1="1760.94" x2="348.389" y2="1672.91" stroke-width="0.25" stroke="rgb(0,0,0)" />
	<line x1="348.389" y1="1673.93" x2="150.665" y2="1761.96" stroke-width="0.25" stroke="rgb(0,0,0)" />
	<line x1="150.665" y1="1762.97" x2="348.389" y2="1674.94" stroke-width="0.25" stroke="rgb(0,0,0)" />
	<line x1="348.389" y1="1675.96" x2="150.665" y2="1763.99" stroke-width="0.25" stroke="rgb(0,0,0)" />
	<line x1="150.665" y1="1765.01" x2="348.389" y2="1676.98" stroke-width="0.25" stroke="rgb(0,0,0)" />
	<line x1="348.389" y1="1677.99" x2="150.665" y2="1766.03" stroke-width="0.25" stroke="rgb(0,0,0)" />
	<line x1="150.665" y1="1767.04" x2="348.389" y2="1679.01" stroke-width="0.25" stroke="rgb(0,0,0)" />
	<line x1="348.389" y1="1680.03" x2="150.665" y2="1768.06" stroke-width="0.25" stroke="rgb(0,0,0)" />
	<line x1="151.624" y1="1768.65" x2="348.389" y2="1681.04" stroke-width="0.25" stroke="rgb(0,0,0)" />
	<line x1="348.389" y1="1682.06" x2="153.908" y2="1768.65" stroke-width="0.25" stroke="rgb(0,0,0)" />
	<line x1="156.192" y1="1768.65" x2="348.389" y2="1683.08" stroke-width="0.25" stroke="rgb(0,0,0)" />
	<line x1="348.389" y1="1684.09" x2="158.476" y2="1768.65" stroke-width="0.25" stroke="rgb(0,0,0)" />
	<line x1="160.759" y1="1768.65" x2="348.389" y2="1685.11" stroke-width="0.25" stroke="rgb(0,0,0)" />
	<line x1="348.389" y1="1686.13" x2="163.043" y2="1768.65" stroke-width="0.25" stroke="rgb(0,0,0)" />
	<line x1="165.327" y1="1768.65" x2="348.389" y2="1687.14" stroke-width="0.25" stroke="rgb(0,0,0)" />
	<line x1="348.389" y1="1688.16" x2="167.611" y2="1768.65" stroke-width="0.25" stroke="rgb(0,0,0)" />
	<line x1="169.895" y1="1768.65" x2="348.389" y2="1689.18" stroke-width="0.25" stroke="rgb(0,0,0)" />
	<line x1="348.389" y1="1690.19" x2="172.178" y2="1768.65" stroke-width="0.25" stroke="rgb(0,0,0)" />
	<line x1="174.462" y1="1768.65" x2="348.389" y2="1691.21" stroke-width="0.25" stroke="rgb(0,0,0)" />
	<line x1="348.389" y1="1692.23" x2="176.746" y2="1768.65" stroke-width="0.25" stroke="rgb(0,0,0)" />
	<line x1="179.03" y1="1768.65" x2="348.389" y2="1693.24" stroke-width="0.25" stroke="rgb(0,0,0)" />
	<line x1="348.389" y1="1694.26" x2="181.314" y2="1768.65" stroke-width="0.25" stroke="rgb(0,0,0)" />
	<line x1="183.597" y1="1768.65" x2="348.389" y2="1695.28" stroke-width="0.25" stroke="rgb(0,0,0)" />
	<line x1="348.389" y1="1696.3" x2="185.881" y2="1768.65" stroke-width="0.25" stroke="rgb(0,0,0)" />
	<line x1="188.165" y1="1768.65" x2="348.389" y2="1697.31" stroke-width="0.25" stroke="rgb(0,0,0)" />
	<line x1="348.389" y1="1698.33" x2="190.449" y2="1768.65" stroke-width="0.25" stroke="rgb(0,0,0)" />
	<line x1="192.733" y1="1768.65" x2="348.389" y2="1699.35" stroke-width="0.25" stroke="rgb(0,0,0)" />
	<line x1="348.389" y1="1700.36" x2="195.017" y2="1768.65" stroke-width="0.25" stroke="rgb(0,0,0)" />
	<line x1="197.3" y1="1768.65" x2="348.389" y2="1701.38" stroke-width="0.25" stroke="rgb(0,0,0)" />
	<line x1="348.389" y1="1702.4" x2="199.584" y2="1768.65" stroke-width="0.25" stroke="rgb(0,0,0)" />
	<line x1="201.868" y1="1768.65" x2="348.389" y2="1703.41" stroke-width="0.25" stroke="rgb(0,0,0)" />
	<line x1="348.389" y1="1704.43" x2="204.152" y2="1768.65" stroke-width="0.25" stroke="rgb(0,0,0)" />
	<line x1="206.436" y1="1768.65" x2="348.389" y2="1705.45" stroke-width="0.25" stroke="rgb(0,0,0)" />
	<line x1="348.389" y1="1706.46" x2="208.719" y2="1768.65" stroke-width="0.25" stroke="rgb(0,0,0)" />
	<line x1="211.003" y1="1768.65" x2="348.389" y2="1707.48" stroke-width="0.25" stroke="rgb(0,0,0)" />
	<line x1="348.389" y1="1708.5" x2="213.287" y2="1768.65" stroke-width="0.25" stroke="rgb(0,0,0)" />
	<line x1="215.571" y1="1768.65" x2="348.389" y2="1709.51" stroke-width="0.25" stroke="rgb(0,0,0)" />
	<line x1="348.389" y1="1710.53" x2="217.855" y2="1768.65" stroke-width="0.25" stroke="rgb(0,0,0)" />
	<line x1="220.138" y1="1768.65" x2="348.389" y2="1711.55" stroke-width="0.25" stroke="rgb(0,0,0)" />
	<line x1="348.389" y1="1712.56" x2="222.422" y2="1768.65" stroke-width="0.25" stroke="rgb(0,0,0)" />
	<line x1="224.706" y1="1768.65" x2="348.389" y2="1713.58" stroke-width="0.25" stroke="rgb(0,0,0)" />
	<line x1="348.389" y1="1714.6" x2="226.99" y2="1768.65" stroke-width="0.25" stroke="rgb(0,0,0)" />
	<line x1="229.274" y1="1768.65" x2="348.389" y2="1715.61" stroke-width="0.25" stroke="rgb(0,0,0)" />
	<line x1="348.389" y1="1716.63" x2="231.557" y2="1768.65" stroke-width="0.25" stroke="rgb(0,0,0)" />
	<line x1="233.841" y1="1768.65" x2="348.389" y2="1717.65" stroke-width="0.25" stroke="rgb(0,0,0)" />
	<line x1="348.389" y1="1718.67" x2="236.125" y2="1768.65" stroke-width="0.25" stroke="rgb(0,0,0)" />
	<line x1="238.409" y1="1768.65" x2="348.389" y2="1719.68" stroke-width="0.25" stroke="rgb(0,0,0)" />
	<line x1="348.389" y1="1720.7" x2="240.693" y2="1768.65" stroke-width="0.25" stroke="rgb(0,0,0)" />
	<line x1="242.976" y1="1768.65" x2="348.389" y2="1721.72" stroke-width="0.25" stroke="rgb(0,0,0)" />
	<line x1="348.389" y1="1722.73" x2="245.26" y2="1768.65" stroke-width="0.25" stroke="rgb(0,0,0)" />
	<line x1="247.544" y1="1768.65" x2="348.389" y2="1723.75" stroke-width="0.25" stroke="rgb(0,0,0)" />
	<line x1="348.389" y1="1724.77" x2="249.828" y2="1768.65" stroke-width="0.25" stroke="rgb(0,0,0)" />
	<line x1="252.112" y1="1768.65" x2="348.389" y2="1725.78" stroke-width="0.25" stroke="rgb(0,0,0)" />
	<line x1="348.389" y1="1726.8" x2="254.395" y2="1768.65" stroke-width="0.25" stroke="rgb(0,0,0)" />
	<line x1="256.679" y1="1768.65" x2="348.389" y2="1727.82" stroke-width="0.25" stroke="rgb(0,0,0)" />
	<line x1="348.389" y1="1728.83" x2="258.963" y2="1768.65" stroke-width="0.25" stroke="rgb(0,0,0)" />
	<line x1="261.247" y1="1768.65" x2="348.389" y2="1729.85" stroke-width="0.25" stroke="rgb(0,0,0)" />
	<line x1="348.389" y1="1730.87" x2="263.531" y2="1768.65" stroke-width="0.25" stroke="rgb(0,0,0)" />
	<line x1="265.814" y1="1768.65" x2="348.389" y2="1731.88" stroke-width="0.25" stroke="rgb(0,0,0)" />
	<line x1="348.389" y1="1732.9" x2="268.098" y2="1768.65" stroke-width="0.25" stroke="rgb(0,0,0)" />
	<line x1="270.382" y1="1768.65" x2="348.389" y2="1733.92" stroke-width="0.25" stroke="rgb(0,0,0)" />
	<line x1="348.389" y1="1734.93" x2="272.666" y2="1768.65" stroke-width="0.25" stroke="rgb(0,0,0)" />
	<line x1="274.95" y1="1768.65" x2="348.389" y2="1735.95" stroke-width="0.25" stroke="rgb(0,0,0)" />
	<line x1="348.389" y1="1736.97" x2="277.233" y2="1768.65" stroke-width="0.25" stroke="rgb(0,0,0)" />
	<line x1="279.517" y1="1768.65" x2="348.389" y2="1737.98" stroke-width="0.25" stroke="rgb(0,0,0)" />
	<line x1="348.389" y1="1739" x2="281.801" y2="1768.65" stroke-width="0.25" stroke="rgb(0,0,0)" />
	<line x1="284.085" y1="1768.65" x2="348.389" y2="1740.02" stroke-width="0.25" stroke="rgb(0,0,0)" />
	<line x1="348.389" y1="1741.04" x2="286.369" y2="1768.65" stroke-width="0.25" stroke="rgb(0,0,0)" />
	<line x1="288.652" y1="1768.65" x2="348.389" y2="1742.05" stroke-width="0.25" stroke="rgb(0,0,0)" />
	<line x1="348.389" y1="1743.07" x2="290.936" y2="1768.65" stroke-width="0.25" stroke="rgb(0,0,0)" />
	<line x1="293.22" y1="1768.65" x2="348.389" y2="1744.09" stroke-width="0.25" stroke="rgb(0,0,0)" />
	<line x1="348.389" y1="1745.1" x2="295.504" y2="1768.65" stroke-width="0.25" stroke="rgb(0,0,0)" />
	<line x1="297.788" y1="1768.65" x2="348.389" y2="1746.12" stroke-width="0.25" stroke="rgb(0,0,0)" />
	<line x1="348.389" y1="1747.14" x2="300.072" y2="1768.65" stroke-width="0.25" stroke="rgb(0,0,0)" />
	<line x1="302.355" y1="1768.65" x2="348.389" y2="1748.15" stroke-width="0.25" stroke="rgb(0,0,0)" />
	<line x1="348.389" y1="1749.17" x2="304.639" y2="1768.65" stroke-width="0.25" stroke="rgb(0,0,0)" />
	<line x1="306.923" y1="1768.65" x2="348.389" y2="1750.19" stroke-width="0.25" stroke="rgb(0,0,0)" />
	<line x1="348.389" y1="1751.2" x2="309.207" y2="1768.65" stroke-width="0.25" stroke="rgb(0,0,0)" />
	<line x1="311.491" y1="1768.65" x2="348.389" y2="1752.22" stroke-width="0.25" stroke="rgb(0,0,0)" />
	<line x1="348.389" y1="1753.24" x2="313.774" y2="1768.65" stroke-width="0.25" stroke="rgb(0,0,0)" />
	<line x1="316.058" y1="1768.65" x2="348.389" y2="1754.25" stroke-width="0.25" stroke="rgb(0,0,0)" />
	<line x1="348.389" y1="1755.27" x2="318.342" y2="1768.65" stroke-width="0.25" stroke="rgb(0,0,0)" />
	<line x1="320.626" y1="1768.65" x2="348.389" y2="1756.29" stroke-width="0.25" stroke="rgb(0,0,0)" />
	<line x1="348.389" y1="1757.3" x2="322.91" y2="1768.65" stroke-width="0.25" stroke="rgb(0,0,0)" />
	<line x1="325.193" y1="1768.65" x2="348.389" y2="1758.32" stroke-width="0.25" stroke="rgb(0,0,0)" />
	<line x1="348.389" y1="1759.34" x2="327.477" y2="1768.65" stroke-width="0.25" stroke="rgb(0,0,0)" />
	<line x1="329.761" y1="1768.65" x2="348.389" y2="1760.35" stroke-width="0.25" stroke="rgb(0,0,0)" />
	<line x1="348.389" y1="1761.37" x2="332.045" y2="1768.65" stroke-width="0.25" stroke="rgb(0,0,0)" />
	<line x1="334.329" y1="1768.65" x2="348.389" y2="1762.39" stroke-width="0.25" stroke="rgb(0,0,0)" />
	<line x1="348.389" y1="1763.41" x2="336.612" y2="1768.65" stroke-width="0.25" stroke="rgb(0,0,0)" />
	<line x1="338.896" y1="1768.65" x2="348.389" y2="1764.42" stroke-width="0.25" stroke="rgb(0,0,0)" />
	<line x1="348.389" y1="1765.44" x2="341.18" y2="1768.65" stroke-width="0.25" stroke="rgb(0,0,0)" />
	<line x1="343.464" y1="1768.65" x2="348.389" y2="1766.46" stroke-width="0.25" stroke="rgb(0,0,0)" />
	<line x1="348.389" y1="1767.47" x2="345.748" y2="1768.65" stroke-width="0.25" stroke="rgb(0,0,0)" />
	<line x1="348.031" y1="1768.65" x2="348.389" y2="1768.49" stroke-width="0.25" stroke="rgb(0,0,0)" />
	<line x1="152.522" y1="853.986" x2="153.147" y2="853.708" stroke-width="0.25" stroke="rgb(0,0,0)" />
	<line x1="156.083" y1="853.708" x2="152.522" y2="855.294" stroke-width="0.25" stroke="rgb(0,0,0)" />
	<line x1="152.522" y1="856.601" x2="159.02" y2="853.708" stroke-width="0.25" stroke="rgb(0,0,0)" />
	<line x1="161.956" y1="853.708" x2="152.522" y2="857.908" stroke-width="0.25" stroke="rgb(0,0,0)" />
	<line x1="152.522" y1="859.216" x2="164.892" y2="853.708" stroke-width="0.25" stroke="rgb(0,0,0)" />
	<line x1="167.829" y1="853.708" x2="152.522" y2="860.523" stroke-width="0.25" stroke="rgb(0,0,0)" />
	<line x1="152.522" y1="861.83" x2="170.765" y2="853.708" stroke-width="0.25" stroke="rgb(0,0,0)" />
	<line x1="173.701" y1="853.708" x2="152.522" y2="863.138" stroke-width="0.25" stroke="rgb(0,0,0)" />
	<line x1="152.522" y1="864.445" x2="176.638" y2="853.708" stroke-width="0.25" stroke="rgb(0,0,0)" />
	<line x1="179.574" y1="853.708" x2="152.522" y2="865.752" stroke-width="0.25" stroke="rgb(0,0,0)" />
	<line x1="152.522" y1="867.06" x2="182.51" y2="853.708" stroke-width="0.25" stroke="rgb(0,0,0)" />
	<line x1="185.447" y1="853.708" x2="152.522" y2="868.367" stroke-width="0.25" stroke="rgb(0,0,0)" />
	<line x1="152.522" y1="869.674" x2="188.383" y2="853.708" stroke-width="0.25" stroke="rgb(0,0,0)" />
	<line x1="191.319" y1="853.708" x2="152.522" y2="870.982" stroke-width="0.25" stroke="rgb(0,0,0)" />
	<line x1="152.522" y1="872.289" x2="194.256" y2="853.708" stroke-width="0.25" stroke="rgb(0,0,0)" />
	<line x1="197.192" y1="853.708" x2="152.522" y2="873.596" stroke-width="0.25" stroke="rgb(0,0,0)" />
	<line x1="152.522" y1="874.904" x2="200.128" y2="853.708" stroke-width="0.25" stroke="rgb(0,0,0)" />
	<line x1="203.064" y1="853.708" x2="152.522" y2="876.211" stroke-width="0.25" stroke="rgb(0,0,0)" />
	<line x1="152.522" y1="877.518" x2="206.001" y2="853.708" stroke-width="0.25" stroke="rgb(0,0,0)" />
	<line x1="208.937" y1="853.708" x2="152.522" y2="878.826" stroke-width="0.25" stroke="rgb(0,0,0)" />
	<line x1="152.522" y1="880.133" x2="211.873" y2="853.708" stroke-width="0.25" stroke="rgb(0,0,0)" />
	<line x1="214.81" y1="853.708" x2="152.522" y2="881.44" stroke-width="0.25" stroke="rgb(0,0,0)" />
	<line x1="152.522" y1="882.748" x2="217.746" y2="853.708" stroke-width="0.25" stroke="rgb(0,0,0)" />
	<line x1="220.682" y1="853.708" x2="152.522" y2="884.055" stroke-width="0.25" stroke="rgb(0,0,0)" />
	<line x1="152.522" y1="885.362" x2="223.619" y2="853.708" stroke-width="0.25" stroke="rgb(0,0,0)" />
	<line x1="226.555" y1="853.708" x2="152.522" y2="886.67" stroke-width="0.25" stroke="rgb(0,0,0)" />
	<line x1="152.522" y1="887.977" x2="229.491" y2="853.708" stroke-width="0.25" stroke="rgb(0,0,0)" />
	<line x1="232.428" y1="853.708" x2="152.522" y2="889.284" stroke-width="0.25" stroke="rgb(0,0,0)" />
	<line x1="152.522" y1="890.592" x2="235.364" y2="853.708" stroke-width="0.25" stroke="rgb(0,0,0)" />
	<line x1="238.3" y1="853.708" x2="152.522" y2="891.899" stroke-width="0.25" stroke="rgb(0,0,0)" />
	<line x1="152.522" y1="893.206" x2="241.237" y2="853.708" stroke-width="0.25" stroke="rgb(0,0,0)" />
	<line x1="244.173" y1="853.708" x2="152.522" y2="894.514" stroke-width="0.25" stroke="rgb(0,0,0)" />
	<line x1="152.522" y1="895.821" x2="247.109" y2="853.708" stroke-width="0.25" stroke="rgb(0,0,0)" />
	<line x1="250.046" y1="853.708" x2="152.522" y2="897.128" stroke-width="0.25" stroke="rgb(0,0,0)" />
	<line x1="152.522" y1="898.436" x2="252.982" y2="853.708" stroke-width="0.25" stroke="rgb(0,0,0)" />
	<line x1="255.918" y1="853.708" x2="152.522" y2="899.743" stroke-width="0.25" stroke="rgb(0,0,0)" />
	<line x1="152.522" y1="901.05" x2="258.855" y2="853.708" stroke-width="0.25" stroke="rgb(0,0,0)" />
	<line x1="261.791" y1="853.708" x2="152.522" y2="902.358" stroke-width="0.25" stroke="rgb(0,0,0)" />
	<line x1="152.522" y1="903.665" x2="264.727" y2="853.708" stroke-width="0.25" stroke="rgb(0,0,0)" />
	<line x1="267.664" y1="853.708" x2="152.522" y2="904.972" stroke-width="0.25" stroke="rgb(0,0,0)" />
	<line x1="152.522" y1="906.28" x2="269.399" y2="854.243" stroke-width="0.25" stroke="rgb(0,0,0)" />
	<line x1="269.399" y1="855.55" x2="152.522" y2="907.587" stroke-width="0.25" stroke="rgb(0,0,0)" />
	<line x1="152.522" y1="908.894" x2="269.399" y2="856.858" stroke-width="0.25" stroke="rgb(0,0,0)" />
	<line x1="269.399" y1="858.165" x2="152.522" y2="910.202" stroke-width="0.25" stroke="rgb(0,0,0)" />
	<line x1="152.522" y1="911.509" x2="269.399" y2="859.472" stroke-width="0.25" stroke="rgb(0,0,0)" />
	<line x1="269.399" y1="860.78" x2="152.522" y2="912.816" stroke-width="0.25" stroke="rgb(0,0,0)" />
	<line x1="152.522" y1="914.124" x2="269.399" y2="862.087" stroke-width="0.25" stroke="rgb(0,0,0)" />
	<line x1="269.399" y1="863.394" x2="152.522" y2="915.431" stroke-width="0.25" stroke="rgb(0,0,0)" />
	<line x1="152.522" y1="916.738" x2="269.399" y2="864.702" stroke-width="0.25" stroke="rgb(0,0,0)" />
	<line x1="269.399" y1="866.009" x2="152.522" y2="918.046" stroke-width="0.25" stroke="rgb(0,0,0)" />
	<line x1="152.522" y1="919.353" x2="269.399" y2="867.316" stroke-width="0.25" stroke="rgb(0,0,0)" />
	<line x1="269.399" y1="868.624" x2="152.522" y2="920.66" stroke-width="0.25" stroke="rgb(0,0,0)" />
	<line x1="152.522" y1="921.968" x2="269.399" y2="869.931" stroke-width="0.25" stroke="rgb(0,0,0)" />
	<line x1="269.399" y1="871.238" x2="152.522" y2="923.275" stroke-width="0.25" stroke="rgb(0,0,0)" />
	<line x1="152.522" y1="924.582" x2="269.399" y2="872.546" stroke-width="0.25" stroke="rgb(0,0,0)" />
	<line x1="269.399" y1="873.853" x2="152.522" y2="925.89" stroke-width="0.25" stroke="rgb(0,0,0)" />
	<line x1="152.522" y1="927.197" x2="269.399" y2="875.16" stroke-width="0.25" stroke="rgb(0,0,0)" />
	<line x1="269.399" y1="876.468" x2="152.522" y2="928.504" stroke-width="0.25" stroke="rgb(0,0,0)" />
	<line x1="152.522" y1="929.812" x2="269.399" y2="877.775" stroke-width="0.25" stroke="rgb(0,0,0)" />
	<line x1="269.399" y1="879.082" x2="152.522" y2="931.119" stroke-width="0.25" stroke="rgb(0,0,0)" />
	<line x1="152.522" y1="932.426" x2="269.399" y2="880.39" stroke-width="0.25" stroke="rgb(0,0,0)" />
	<line x1="269.399" y1="881.697" x2="152.522" y2="933.734" stroke-width="0.25" stroke="rgb(0,0,0)" />
	<line x1="152.522" y1="935.041" x2="269.399" y2="883.004" stroke-width="0.25" stroke="rgb(0,0,0)" />
	<line x1="269.399" y1="884.312" x2="152.522" y2="936.348" stroke-width="0.25" stroke="rgb(0,0,0)" />
	<line x1="152.522" y1="937.656" x2="269.399" y2="885.619" stroke-width="0.25" stroke="rgb(0,0,0)" />
	<line x1="269.399" y1="886.926" x2="152.522" y2="938.963" stroke-width="0.25" stroke="rgb(0,0,0)" />
	<line x1="152.522" y1="940.27" x2="269.399" y2="888.234" stroke-width="0.25" stroke="rgb(0,0,0)" />
	<line x1="269.399" y1="889.541" x2="152.522" y2="941.578" stroke-width="0.25" stroke="rgb(0,0,0)" />
	<line x1="152.522" y1="942.885" x2="269.399" y2="890.848" stroke-width="0.25" stroke="rgb(0,0,0)" />
	<line x1="269.399" y1="892.156" x2="152.522" y2="944.192" stroke-width="0.25" stroke="rgb(0,0,0)" />
	<line x1="152.522" y1="945.5" x2="269.399" y2="893.463" stroke-width="0.25" stroke="rgb(0,0,0)" />
	<line x1="269.399" y1="894.77" x2="152.522" y2="946.807" stroke-width="0.25" stroke="rgb(0,0,0)" />
	<line x1="152.522" y1="948.114" x2="269.399" y2="896.078" stroke-width="0.25" stroke="rgb(0,0,0)" />
	<line x1="269.399" y1="897.385" x2="152.522" y2="949.422" stroke-width="0.25" stroke="rgb(0,0,0)" />
	<line x1="152.522" y1="950.729" x2="269.399" y2="898.692" stroke-width="0.25" stroke="rgb(0,0,0)" />
	<line x1="269.399" y1="900" x2="152.522" y2="952.036" stroke-width="0.25" stroke="rgb(0,0,0)" />
	<line x1="152.522" y1="953.344" x2="269.399" y2="901.307" stroke-width="0.25" stroke="rgb(0,0,0)" />
	<line x1="269.399" y1="902.614" x2="152.522" y2="954.651" stroke-width="0.25" stroke="rgb(0,0,0)" />
	<line x1="152.522" y1="955.958" x2="269.399" y2="903.922" stroke-width="0.25" stroke="rgb(0,0,0)" />
	<line x1="269.399" y1="905.229" x2="152.522" y2="957.266" stroke-width="0.25" stroke="rgb(0,0,0)" />
	<line x1="152.522" y1="958.573" x2="269.399" y2="906.536" stroke-width="0.25" stroke="rgb(0,0,0)" />
	<line x1="269.399" y1="907.844" x2="152.522" y2="959.88" stroke-width="0.25" stroke="rgb(0,0,0)" />
	<line x1="152.522" y1="961.188" x2="269.399" y2="909.151" stroke-width="0.25" stroke="rgb(0,0,0)" />
	<line x1="269.399" y1="910.458" x2="152.522" y2="962.495" stroke-width="0.25" stroke="rgb(0,0,0)" />
	<line x1="152.522" y1="963.802" x2="269.399" y2="911.766" stroke-width="0.25" stroke="rgb(0,0,0)" />
	<line x1="269.399" y1="913.073" x2="152.522" y2="965.11" stroke-width="0.25" stroke="rgb(0,0,0)" />
	<line x1="152.522" y1="966.417" x2="269.399" y2="914.38" stroke-width="0.25" stroke="rgb(0,0,0)" />
	<line x1="269.399" y1="915.688" x2="152.522" y2="967.724" stroke-width="0.25" stroke="rgb(0,0,0)" />
	<line x1="152.522" y1="969.032" x2="269.399" y2="916.995" stroke-width="0.25" stroke="rgb(0,0,0)" />
	<line x1="269.399" y1="918.302" x2="152.522" y2="970.339" stroke-width="0.25" stroke="rgb(0,0,0)" />
	<line x1="154.907" y1="970.585" x2="269.399" y2="919.61" stroke-width="0.25" stroke="rgb(0,0,0)" />
	<line x1="269.399" y1="920.917" x2="157.843" y2="970.585" stroke-width="0.25" stroke="rgb(0,0,0)" />
	<line x1="160.78" y1="970.585" x2="269.399" y2="922.224" stroke-width="0.25" stroke="rgb(0,0,0)" />
	<line x1="269.399" y1="923.532" x2="163.716" y2="970.585" stroke-width="0.25" stroke="rgb(0,0,0)" />
	<line x1="166.652" y1="970.585" x2="269.399" y2="924.839" stroke-width="0.25" stroke="rgb(0,0,0)" />
	<line x1="269.399" y1="926.146" x2="169.589" y2="970.585" stroke-width="0.25" stroke="rgb(0,0,0)" />
	<line x1="172.525" y1="970.585" x2="269.399" y2="927.454" stroke-width="0.25" stroke="rgb(0,0,0)" />
	<line x1="269.399" y1="928.761" x2="175.461" y2="970.585" stroke-width="0.25" stroke="rgb(0,0,0)" />
	<line x1="178.398" y1="970.585" x2="269.399" y2="930.068" stroke-width="0.25" stroke="rgb(0,0,0)" />
	<line x1="269.399" y1="931.376" x2="181.334" y2="970.585" stroke-width="0.25" stroke="rgb(0,0,0)" />
	<line x1="184.27" y1="970.585" x2="269.399" y2="932.683" stroke-width="0.25" stroke="rgb(0,0,0)" />
	<line x1="269.399" y1="933.99" x2="187.207" y2="970.585" stroke-width="0.25" stroke="rgb(0,0,0)" />
	<line x1="190.143" y1="970.585" x2="269.399" y2="935.298" stroke-width="0.25" stroke="rgb(0,0,0)" />
	<line x1="269.399" y1="936.605" x2="193.079" y2="970.585" stroke-width="0.25" stroke="rgb(0,0,0)" />
	<line x1="196.016" y1="970.585" x2="269.399" y2="937.912" stroke-width="0.25" stroke="rgb(0,0,0)" />
	<line x1="269.399" y1="939.22" x2="198.952" y2="970.585" stroke-width="0.25" stroke="rgb(0,0,0)" />
	<line x1="201.888" y1="970.585" x2="269.399" y2="940.527" stroke-width="0.25" stroke="rgb(0,0,0)" />
	<line x1="269.399" y1="941.834" x2="204.825" y2="970.585" stroke-width="0.25" stroke="rgb(0,0,0)" />
	<line x1="207.761" y1="970.585" x2="269.399" y2="943.142" stroke-width="0.25" stroke="rgb(0,0,0)" />
	<line x1="269.399" y1="944.449" x2="210.697" y2="970.585" stroke-width="0.25" stroke="rgb(0,0,0)" />
	<line x1="213.634" y1="970.585" x2="269.399" y2="945.756" stroke-width="0.25" stroke="rgb(0,0,0)" />
	<line x1="269.399" y1="947.064" x2="216.57" y2="970.585" stroke-width="0.25" stroke="rgb(0,0,0)" />
	<line x1="219.506" y1="970.585" x2="269.399" y2="948.371" stroke-width="0.25" stroke="rgb(0,0,0)" />
	<line x1="269.399" y1="949.678" x2="222.443" y2="970.585" stroke-width="0.25" stroke="rgb(0,0,0)" />
	<line x1="225.379" y1="970.585" x2="269.399" y2="950.986" stroke-width="0.25" stroke="rgb(0,0,0)" />
	<line x1="269.399" y1="952.293" x2="228.315" y2="970.585" stroke-width="0.25" stroke="rgb(0,0,0)" />
	<line x1="231.251" y1="970.585" x2="269.399" y2="953.6" stroke-width="0.25" stroke="rgb(0,0,0)" />
	<line x1="269.399" y1="954.908" x2="234.188" y2="970.585" stroke-width="0.25" stroke="rgb(0,0,0)" />
	<line x1="237.124" y1="970.585" x2="269.399" y2="956.215" stroke-width="0.25" stroke="rgb(0,0,0)" />
	<line x1="269.399" y1="957.522" x2="240.06" y2="970.585" stroke-width="0.25" stroke="rgb(0,0,0)" />
	<line x1="242.997" y1="970.585" x2="269.399" y2="958.83" stroke-width="0.25" stroke="rgb(0,0,0)" />
	<line x1="269.399" y1="960.137" x2="245.933" y2="970.585" stroke-width="0.25" stroke="rgb(0,0,0)" />
	<line x1="248.869" y1="970.585" x2="269.399" y2="961.444" stroke-width="0.25" stroke="rgb(0,0,0)" />
	<line x1="269.399" y1="962.752" x2="251.806" y2="970.585" stroke-width="0.25" stroke="rgb(0,0,0)" />
	<line x1="254.742" y1="970.585" x2="269.399" y2="964.059" stroke-width="0.25" stroke="rgb(0,0,0)" />
	<line x1="269.399" y1="965.366" x2="257.678" y2="970.585" stroke-width="0.25" stroke="rgb(0,0,0)" />
	<line x1="260.615" y1="970.585" x2="269.399" y2="966.674" stroke-width="0.25" stroke="rgb(0,0,0)" />
	<line x1="269.399" y1="967.981" x2="263.551" y2="970.585" stroke-width="0.25" stroke="rgb(0,0,0)" />
	<line x1="266.487" y1="970.585" x2="269.399" y2="969.288" stroke-width="0.25" stroke="rgb(0,0,0)" />
</svg>
