<?xml version="1.0" standalone="no" ?>
<!DOCTYPE svg PUBLIC "-//W3C//DTD SVG 1.1//EN" "http://www.w3.org/Graphics/SVG/1.1/DTD/svg11.dtd">
<svg width="2000px" height="2000px" xmlns="http://www.w3.org/2000/svg" version="1.1" >
	<line x1="348.389" y1="1676.86" x2="242.451" y2="1570.92" stroke-width="0.25" stroke="rgb(0,0,0)" />
	<line x1="242.451" y1="1570.92" x2="150.665" y2="1570.92" stroke-width="0.25" stroke="rgb(0,0,0)" />
	<line x1="150.665" y1="1570.92" x2="150.665" y2="1768.65" stroke-width="0.25" stroke="rgb(0,0,0)" />
	<line x1="150.665" y1="1768.65" x2="348.389" y2="1768.65" stroke-width="0.25" stroke="rgb(0,0,0)" />
	<line x1="348.389" y1="1768.65" x2="348.389" y2="1676.86" stroke-width="0.25" stroke="rgb(0,0,0)" />
	<line x1="392.7" y1="730.407" x2="150.864" y2="730.407" stroke-width="0.25" stroke="rgb(0,0,0)" />
	<line x1="150.864" y1="730.407" x2="150.864" y2="972.243" stroke-width="0.25" stroke="rgb(0,0,0)" />
	<line x1="150.864" y1="972.243" x2="392.7" y2="972.243" stroke-width="0.25" stroke="rgb(0,0,0)" />
	<line x1="392.7" y1="972.243" x2="392.7" y2="730.407" stroke-width="0.25" stroke="rgb(0,0,0)" />
	<line x1="391.837" y1="731.27" x2="151.726" y2="731.27" stroke-width="0.25" stroke="rgb(0,0,0)" />
	<line x1="151.726" y1="731.27" x2="151.726" y2="971.381" stroke-width="0.25" stroke="rgb(0,0,0)" />
	<line x1="151.726" y1="971.381" x2="391.837" y2="971.381" stroke-width="0.25" stroke="rgb(0,0,0)" />
	<line x1="391.837" y1="971.381" x2="391.837" y2="731.27" stroke-width="0.25" stroke="rgb(0,0,0)" />
	<line x1="150.665" y1="1576.35" x2="151.235" y2="1570.92" stroke-width="0.25" stroke="rgb(0,0,0)" />
	<line x1="152.169" y1="1570.92" x2="150.665" y2="1585.24" stroke-width="0.25" stroke="rgb(0,0,0)" />
	<line x1="150.665" y1="1594.12" x2="153.103" y2="1570.92" stroke-width="0.25" stroke="rgb(0,0,0)" />
	<line x1="154.037" y1="1570.92" x2="150.665" y2="1603.01" stroke-width="0.25" stroke="rgb(0,0,0)" />
	<line x1="150.665" y1="1611.9" x2="154.971" y2="1570.92" stroke-width="0.25" stroke="rgb(0,0,0)" />
	<line x1="155.905" y1="1570.92" x2="150.665" y2="1620.78" stroke-width="0.25" stroke="rgb(0,0,0)" />
	<line x1="150.665" y1="1629.67" x2="156.839" y2="1570.92" stroke-width="0.25" stroke="rgb(0,0,0)" />
	<line x1="157.773" y1="1570.92" x2="150.665" y2="1638.56" stroke-width="0.25" stroke="rgb(0,0,0)" />
	<line x1="150.665" y1="1647.44" x2="158.707" y2="1570.92" stroke-width="0.25" stroke="rgb(0,0,0)" />
	<line x1="159.641" y1="1570.92" x2="150.665" y2="1656.33" stroke-width="0.25" stroke="rgb(0,0,0)" />
	<line x1="150.665" y1="1665.22" x2="160.575" y2="1570.92" stroke-width="0.25" stroke="rgb(0,0,0)" />
	<line x1="161.509" y1="1570.92" x2="150.665" y2="1674.1" stroke-width="0.25" stroke="rgb(0,0,0)" />
	<line x1="150.665" y1="1682.99" x2="162.443" y2="1570.92" stroke-width="0.25" stroke="rgb(0,0,0)" />
	<line x1="163.377" y1="1570.92" x2="150.665" y2="1691.88" stroke-width="0.25" stroke="rgb(0,0,0)" />
	<line x1="150.665" y1="1700.76" x2="164.311" y2="1570.92" stroke-width="0.25" stroke="rgb(0,0,0)" />
	<line x1="165.245" y1="1570.92" x2="150.665" y2="1709.65" stroke-width="0.25" stroke="rgb(0,0,0)" />
	<line x1="150.665" y1="1718.54" x2="166.179" y2="1570.92" stroke-width="0.25" stroke="rgb(0,0,0)" />
	<line x1="167.113" y1="1570.92" x2="150.665" y2="1727.42" stroke-width="0.25" stroke="rgb(0,0,0)" />
	<line x1="150.665" y1="1736.31" x2="168.047" y2="1570.92" stroke-width="0.25" stroke="rgb(0,0,0)" />
	<line x1="168.981" y1="1570.92" x2="150.665" y2="1745.2" stroke-width="0.25" stroke="rgb(0,0,0)" />
	<line x1="150.665" y1="1754.08" x2="169.915" y2="1570.92" stroke-width="0.25" stroke="rgb(0,0,0)" />
	<line x1="170.849" y1="1570.92" x2="150.665" y2="1762.97" stroke-width="0.25" stroke="rgb(0,0,0)" />
	<line x1="151.002" y1="1768.65" x2="171.783" y2="1570.92" stroke-width="0.25" stroke="rgb(0,0,0)" />
	<line x1="172.717" y1="1570.92" x2="151.936" y2="1768.65" stroke-width="0.25" stroke="rgb(0,0,0)" />
	<line x1="152.87" y1="1768.65" x2="173.651" y2="1570.92" stroke-width="0.25" stroke="rgb(0,0,0)" />
	<line x1="174.585" y1="1570.92" x2="153.804" y2="1768.65" stroke-width="0.25" stroke="rgb(0,0,0)" />
	<line x1="154.738" y1="1768.65" x2="175.519" y2="1570.92" stroke-width="0.25" stroke="rgb(0,0,0)" />
	<line x1="176.453" y1="1570.92" x2="155.672" y2="1768.65" stroke-width="0.25" stroke="rgb(0,0,0)" />
	<line x1="156.606" y1="1768.65" x2="177.387" y2="1570.92" stroke-width="0.25" stroke="rgb(0,0,0)" />
	<line x1="178.321" y1="1570.92" x2="157.54" y2="1768.65" stroke-width="0.25" stroke="rgb(0,0,0)" />
	<line x1="158.474" y1="1768.65" x2="179.255" y2="1570.92" stroke-width="0.25" stroke="rgb(0,0,0)" />
	<line x1="180.189" y1="1570.92" x2="159.408" y2="1768.65" stroke-width="0.25" stroke="rgb(0,0,0)" />
	<line x1="160.342" y1="1768.65" x2="181.123" y2="1570.92" stroke-width="0.25" stroke="rgb(0,0,0)" />
	<line x1="182.057" y1="1570.92" x2="161.276" y2="1768.65" stroke-width="0.25" stroke="rgb(0,0,0)" />
	<line x1="162.21" y1="1768.65" x2="182.992" y2="1570.92" stroke-width="0.25" stroke="rgb(0,0,0)" />
	<line x1="183.926" y1="1570.92" x2="163.144" y2="1768.65" stroke-width="0.25" stroke="rgb(0,0,0)" />
	<line x1="164.078" y1="1768.65" x2="184.86" y2="1570.92" stroke-width="0.25" stroke="rgb(0,0,0)" />
	<line x1="185.794" y1="1570.92" x2="165.012" y2="1768.65" stroke-width="0.25" stroke="rgb(0,0,0)" />
	<line x1="165.946" y1="1768.65" x2="186.728" y2="1570.92" stroke-width="0.25" stroke="rgb(0,0,0)" />
	<line x1="187.662" y1="1570.92" x2="166.88" y2="1768.65" stroke-width="0.25" stroke="rgb(0,0,0)" />
	<line x1="167.814" y1="1768.65" x2="188.596" y2="1570.92" stroke-width="0.25" stroke="rgb(0,0,0)" />
	<line x1="189.53" y1="1570.92" x2="168.748" y2="1768.65" stroke-width="0.25" stroke="rgb(0,0,0)" />
	<line x1="169.682" y1="1768.65" x2="190.464" y2="1570.92" stroke-width="0.25" stroke="rgb(0,0,0)" />
	<line x1="191.398" y1="1570.92" x2="170.616" y2="1768.65" stroke-width="0.25" stroke="rgb(0,0,0)" />
	<line x1="171.55" y1="1768.65" x2="192.332" y2="1570.92" stroke-width="0.25" stroke="rgb(0,0,0)" />
	<line x1="193.266" y1="1570.92" x2="172.484" y2="1768.65" stroke-width="0.25" stroke="rgb(0,0,0)" />
	<line x1="173.418" y1="1768.65" x2="194.2" y2="1570.92" stroke-width="0.25" stroke="rgb(0,0,0)" />
	<line x1="195.134" y1="1570.92" x2="174.352" y2="1768.65" stroke-width="0.25" stroke="rgb(0,0,0)" />
	<line x1="175.286" y1="1768.65" x2="196.068" y2="1570.92" stroke-width="0.25" stroke="rgb(0,0,0)" />
	<line x1="197.002" y1="1570.92" x2="176.22" y2="1768.65" stroke-width="0.25" stroke="rgb(0,0,0)" />
	<line x1="177.154" y1="1768.65" x2="197.936" y2="1570.92" stroke-width="0.25" stroke="rgb(0,0,0)" />
	<line x1="198.87" y1="1570.92" x2="178.088" y2="1768.65" stroke-width="0.25" stroke="rgb(0,0,0)" />
	<line x1="179.022" y1="1768.65" x2="199.804" y2="1570.92" stroke-width="0.25" stroke="rgb(0,0,0)" />
	<line x1="200.738" y1="1570.92" x2="179.956" y2="1768.65" stroke-width="0.25" stroke="rgb(0,0,0)" />
	<line x1="180.89" y1="1768.65" x2="201.672" y2="1570.92" stroke-width="0.25" stroke="rgb(0,0,0)" />
	<line x1="202.606" y1="1570.92" x2="181.824" y2="1768.65" stroke-width="0.25" stroke="rgb(0,0,0)" />
	<line x1="182.758" y1="1768.65" x2="203.54" y2="1570.92" stroke-width="0.25" stroke="rgb(0,0,0)" />
	<line x1="204.474" y1="1570.92" x2="183.692" y2="1768.65" stroke-width="0.25" stroke="rgb(0,0,0)" />
	<line x1="184.626" y1="1768.65" x2="205.408" y2="1570.92" stroke-width="0.25" stroke="rgb(0,0,0)" />
	<line x1="206.342" y1="1570.92" x2="185.56" y2="1768.65" stroke-width="0.25" stroke="rgb(0,0,0)" />
	<line x1="186.494" y1="1768.65" x2="207.276" y2="1570.92" stroke-width="0.25" stroke="rgb(0,0,0)" />
	<line x1="208.21" y1="1570.92" x2="187.428" y2="1768.65" stroke-width="0.25" stroke="rgb(0,0,0)" />
	<line x1="188.362" y1="1768.65" x2="209.144" y2="1570.92" stroke-width="0.25" stroke="rgb(0,0,0)" />
	<line x1="210.078" y1="1570.92" x2="189.297" y2="1768.65" stroke-width="0.25" stroke="rgb(0,0,0)" />
	<line x1="190.231" y1="1768.65" x2="211.012" y2="1570.92" stroke-width="0.25" stroke="rgb(0,0,0)" />
	<line x1="211.946" y1="1570.92" x2="191.165" y2="1768.65" stroke-width="0.25" stroke="rgb(0,0,0)" />
	<line x1="192.099" y1="1768.65" x2="212.88" y2="1570.92" stroke-width="0.25" stroke="rgb(0,0,0)" />
	<line x1="213.814" y1="1570.92" x2="193.033" y2="1768.65" stroke-width="0.25" stroke="rgb(0,0,0)" />
	<line x1="193.967" y1="1768.65" x2="214.748" y2="1570.92" stroke-width="0.25" stroke="rgb(0,0,0)" />
	<line x1="215.682" y1="1570.92" x2="194.901" y2="1768.65" stroke-width="0.25" stroke="rgb(0,0,0)" />
	<line x1="195.835" y1="1768.65" x2="216.616" y2="1570.92" stroke-width="0.25" stroke="rgb(0,0,0)" />
	<line x1="217.55" y1="1570.92" x2="196.769" y2="1768.65" stroke-width="0.25" stroke="rgb(0,0,0)" />
	<line x1="197.703" y1="1768.65" x2="218.484" y2="1570.92" stroke-width="0.25" stroke="rgb(0,0,0)" />
	<line x1="219.418" y1="1570.92" x2="198.637" y2="1768.65" stroke-width="0.25" stroke="rgb(0,0,0)" />
	<line x1="199.571" y1="1768.65" x2="220.352" y2="1570.92" stroke-width="0.25" stroke="rgb(0,0,0)" />
	<line x1="221.286" y1="1570.92" x2="200.505" y2="1768.65" stroke-width="0.25" stroke="rgb(0,0,0)" />
	<line x1="201.439" y1="1768.65" x2="222.221" y2="1570.92" stroke-width="0.25" stroke="rgb(0,0,0)" />
	<line x1="223.155" y1="1570.92" x2="202.373" y2="1768.65" stroke-width="0.25" stroke="rgb(0,0,0)" />
	<line x1="203.307" y1="1768.65" x2="224.089" y2="1570.92" stroke-width="0.25" stroke="rgb(0,0,0)" />
	<line x1="225.023" y1="1570.92" x2="204.241" y2="1768.65" stroke-width="0.25" stroke="rgb(0,0,0)" />
	<line x1="205.175" y1="1768.65" x2="225.957" y2="1570.92" stroke-width="0.25" stroke="rgb(0,0,0)" />
	<line x1="226.891" y1="1570.92" x2="206.109" y2="1768.65" stroke-width="0.25" stroke="rgb(0,0,0)" />
	<line x1="207.043" y1="1768.65" x2="227.825" y2="1570.92" stroke-width="0.25" stroke="rgb(0,0,0)" />
	<line x1="228.759" y1="1570.92" x2="207.977" y2="1768.65" stroke-width="0.25" stroke="rgb(0,0,0)" />
	<line x1="208.911" y1="1768.65" x2="229.693" y2="1570.92" stroke-width="0.25" stroke="rgb(0,0,0)" />
	<line x1="230.627" y1="1570.92" x2="209.845" y2="1768.65" stroke-width="0.25" stroke="rgb(0,0,0)" />
	<line x1="210.779" y1="1768.65" x2="231.561" y2="1570.92" stroke-width="0.25" stroke="rgb(0,0,0)" />
	<line x1="232.495" y1="1570.92" x2="211.713" y2="1768.65" stroke-width="0.25" stroke="rgb(0,0,0)" />
	<line x1="212.647" y1="1768.65" x2="233.429" y2="1570.92" stroke-width="0.25" stroke="rgb(0,0,0)" />
	<line x1="234.363" y1="1570.92" x2="213.581" y2="1768.65" stroke-width="0.25" stroke="rgb(0,0,0)" />
	<line x1="214.515" y1="1768.65" x2="235.297" y2="1570.92" stroke-width="0.25" stroke="rgb(0,0,0)" />
	<line x1="236.231" y1="1570.92" x2="215.449" y2="1768.65" stroke-width="0.25" stroke="rgb(0,0,0)" />
	<line x1="216.383" y1="1768.65" x2="237.165" y2="1570.92" stroke-width="0.25" stroke="rgb(0,0,0)" />
	<line x1="238.099" y1="1570.92" x2="217.317" y2="1768.65" stroke-width="0.25" stroke="rgb(0,0,0)" />
	<line x1="218.251" y1="1768.65" x2="239.033" y2="1570.92" stroke-width="0.25" stroke="rgb(0,0,0)" />
	<line x1="239.967" y1="1570.92" x2="219.185" y2="1768.65" stroke-width="0.25" stroke="rgb(0,0,0)" />
	<line x1="220.119" y1="1768.65" x2="240.901" y2="1570.92" stroke-width="0.25" stroke="rgb(0,0,0)" />
	<line x1="241.835" y1="1570.92" x2="221.053" y2="1768.65" stroke-width="0.25" stroke="rgb(0,0,0)" />
	<line x1="221.987" y1="1768.65" x2="242.739" y2="1571.21" stroke-width="0.25" stroke="rgb(0,0,0)" />
	<line x1="243.584" y1="1572.06" x2="222.921" y2="1768.65" stroke-width="0.25" stroke="rgb(0,0,0)" />
	<line x1="223.855" y1="1768.65" x2="244.429" y2="1572.9" stroke-width="0.25" stroke="rgb(0,0,0)" />
	<line x1="245.274" y1="1573.75" x2="224.789" y2="1768.65" stroke-width="0.25" stroke="rgb(0,0,0)" />
	<line x1="225.723" y1="1768.65" x2="246.12" y2="1574.59" stroke-width="0.25" stroke="rgb(0,0,0)" />
	<line x1="246.965" y1="1575.44" x2="226.657" y2="1768.65" stroke-width="0.25" stroke="rgb(0,0,0)" />
	<line x1="227.591" y1="1768.65" x2="247.81" y2="1576.28" stroke-width="0.25" stroke="rgb(0,0,0)" />
	<line x1="248.655" y1="1577.13" x2="228.526" y2="1768.65" stroke-width="0.25" stroke="rgb(0,0,0)" />
	<line x1="229.46" y1="1768.65" x2="249.5" y2="1577.97" stroke-width="0.25" stroke="rgb(0,0,0)" />
	<line x1="250.345" y1="1578.82" x2="230.394" y2="1768.65" stroke-width="0.25" stroke="rgb(0,0,0)" />
	<line x1="231.328" y1="1768.65" x2="251.191" y2="1579.66" stroke-width="0.25" stroke="rgb(0,0,0)" />
	<line x1="252.036" y1="1580.51" x2="232.262" y2="1768.65" stroke-width="0.25" stroke="rgb(0,0,0)" />
	<line x1="233.196" y1="1768.65" x2="252.881" y2="1581.35" stroke-width="0.25" stroke="rgb(0,0,0)" />
	<line x1="253.726" y1="1582.2" x2="234.13" y2="1768.65" stroke-width="0.25" stroke="rgb(0,0,0)" />
	<line x1="235.064" y1="1768.65" x2="254.571" y2="1583.04" stroke-width="0.25" stroke="rgb(0,0,0)" />
	<line x1="255.417" y1="1583.89" x2="235.998" y2="1768.65" stroke-width="0.25" stroke="rgb(0,0,0)" />
	<line x1="236.932" y1="1768.65" x2="256.262" y2="1584.73" stroke-width="0.25" stroke="rgb(0,0,0)" />
	<line x1="257.107" y1="1585.58" x2="237.866" y2="1768.65" stroke-width="0.25" stroke="rgb(0,0,0)" />
	<line x1="238.8" y1="1768.65" x2="257.952" y2="1586.43" stroke-width="0.25" stroke="rgb(0,0,0)" />
	<line x1="258.797" y1="1587.27" x2="239.734" y2="1768.65" stroke-width="0.25" stroke="rgb(0,0,0)" />
	<line x1="240.668" y1="1768.65" x2="259.643" y2="1588.12" stroke-width="0.25" stroke="rgb(0,0,0)" />
	<line x1="260.488" y1="1588.96" x2="241.602" y2="1768.65" stroke-width="0.25" stroke="rgb(0,0,0)" />
	<line x1="242.536" y1="1768.65" x2="261.333" y2="1589.81" stroke-width="0.25" stroke="rgb(0,0,0)" />
	<line x1="262.178" y1="1590.65" x2="243.47" y2="1768.65" stroke-width="0.25" stroke="rgb(0,0,0)" />
	<line x1="244.404" y1="1768.65" x2="263.023" y2="1591.5" stroke-width="0.25" stroke="rgb(0,0,0)" />
	<line x1="263.869" y1="1592.34" x2="245.338" y2="1768.65" stroke-width="0.25" stroke="rgb(0,0,0)" />
	<line x1="246.272" y1="1768.65" x2="264.714" y2="1593.19" stroke-width="0.25" stroke="rgb(0,0,0)" />
	<line x1="265.559" y1="1594.03" x2="247.206" y2="1768.65" stroke-width="0.25" stroke="rgb(0,0,0)" />
	<line x1="248.14" y1="1768.65" x2="266.404" y2="1594.88" stroke-width="0.25" stroke="rgb(0,0,0)" />
	<line x1="267.249" y1="1595.72" x2="249.074" y2="1768.65" stroke-width="0.25" stroke="rgb(0,0,0)" />
	<line x1="250.008" y1="1768.65" x2="268.094" y2="1596.57" stroke-width="0.25" stroke="rgb(0,0,0)" />
	<line x1="268.94" y1="1597.41" x2="250.942" y2="1768.65" stroke-width="0.25" stroke="rgb(0,0,0)" />
	<line x1="251.876" y1="1768.65" x2="269.785" y2="1598.26" stroke-width="0.25" stroke="rgb(0,0,0)" />
	<line x1="270.63" y1="1599.1" x2="252.81" y2="1768.65" stroke-width="0.25" stroke="rgb(0,0,0)" />
	<line x1="253.744" y1="1768.65" x2="271.475" y2="1599.95" stroke-width="0.25" stroke="rgb(0,0,0)" />
	<line x1="272.32" y1="1600.79" x2="254.678" y2="1768.65" stroke-width="0.25" stroke="rgb(0,0,0)" />
	<line x1="255.612" y1="1768.65" x2="273.166" y2="1601.64" stroke-width="0.25" stroke="rgb(0,0,0)" />
	<line x1="274.011" y1="1602.48" x2="256.546" y2="1768.65" stroke-width="0.25" stroke="rgb(0,0,0)" />
	<line x1="257.48" y1="1768.65" x2="274.856" y2="1603.33" stroke-width="0.25" stroke="rgb(0,0,0)" />
	<line x1="275.701" y1="1604.17" x2="258.414" y2="1768.65" stroke-width="0.25" stroke="rgb(0,0,0)" />
	<line x1="259.348" y1="1768.65" x2="276.546" y2="1605.02" stroke-width="0.25" stroke="rgb(0,0,0)" />
	<line x1="277.392" y1="1605.86" x2="260.282" y2="1768.65" stroke-width="0.25" stroke="rgb(0,0,0)" />
	<line x1="261.216" y1="1768.65" x2="278.237" y2="1606.71" stroke-width="0.25" stroke="rgb(0,0,0)" />
	<line x1="279.082" y1="1607.56" x2="262.15" y2="1768.65" stroke-width="0.25" stroke="rgb(0,0,0)" />
	<line x1="263.084" y1="1768.65" x2="279.927" y2="1608.4" stroke-width="0.25" stroke="rgb(0,0,0)" />
	<line x1="280.772" y1="1609.25" x2="264.018" y2="1768.65" stroke-width="0.25" stroke="rgb(0,0,0)" />
	<line x1="264.952" y1="1768.65" x2="281.618" y2="1610.09" stroke-width="0.25" stroke="rgb(0,0,0)" />
	<line x1="282.463" y1="1610.94" x2="265.886" y2="1768.65" stroke-width="0.25" stroke="rgb(0,0,0)" />
	<line x1="266.82" y1="1768.65" x2="283.308" y2="1611.78" stroke-width="0.25" stroke="rgb(0,0,0)" />
	<line x1="284.153" y1="1612.63" x2="267.755" y2="1768.65" stroke-width="0.25" stroke="rgb(0,0,0)" />
	<line x1="268.689" y1="1768.65" x2="284.998" y2="1613.47" stroke-width="0.25" stroke="rgb(0,0,0)" />
	<line x1="285.843" y1="1614.32" x2="269.623" y2="1768.65" stroke-width="0.25" stroke="rgb(0,0,0)" />
	<line x1="270.557" y1="1768.65" x2="286.689" y2="1615.16" stroke-width="0.25" stroke="rgb(0,0,0)" />
	<line x1="287.534" y1="1616.01" x2="271.491" y2="1768.65" stroke-width="0.25" stroke="rgb(0,0,0)" />
	<line x1="272.425" y1="1768.65" x2="288.379" y2="1616.85" stroke-width="0.25" stroke="rgb(0,0,0)" />
	<line x1="289.224" y1="1617.7" x2="273.359" y2="1768.65" stroke-width="0.25" stroke="rgb(0,0,0)" />
	<line x1="274.293" y1="1768.65" x2="290.069" y2="1618.54" stroke-width="0.25" stroke="rgb(0,0,0)" />
	<line x1="290.915" y1="1619.39" x2="275.227" y2="1768.65" stroke-width="0.25" stroke="rgb(0,0,0)" />
	<line x1="276.161" y1="1768.65" x2="291.76" y2="1620.23" stroke-width="0.25" stroke="rgb(0,0,0)" />
	<line x1="292.605" y1="1621.08" x2="277.095" y2="1768.65" stroke-width="0.25" stroke="rgb(0,0,0)" />
	<line x1="278.029" y1="1768.65" x2="293.45" y2="1621.92" stroke-width="0.25" stroke="rgb(0,0,0)" />
	<line x1="294.295" y1="1622.77" x2="278.963" y2="1768.65" stroke-width="0.25" stroke="rgb(0,0,0)" />
	<line x1="279.897" y1="1768.65" x2="295.141" y2="1623.61" stroke-width="0.25" stroke="rgb(0,0,0)" />
	<line x1="295.986" y1="1624.46" x2="280.831" y2="1768.65" stroke-width="0.25" stroke="rgb(0,0,0)" />
	<line x1="281.765" y1="1768.65" x2="296.831" y2="1625.3" stroke-width="0.25" stroke="rgb(0,0,0)" />
	<line x1="297.676" y1="1626.15" x2="282.699" y2="1768.65" stroke-width="0.25" stroke="rgb(0,0,0)" />
	<line x1="283.633" y1="1768.65" x2="298.521" y2="1626.99" stroke-width="0.25" stroke="rgb(0,0,0)" />
	<line x1="299.367" y1="1627.84" x2="284.567" y2="1768.65" stroke-width="0.25" stroke="rgb(0,0,0)" />
	<line x1="285.501" y1="1768.65" x2="300.212" y2="1628.68" stroke-width="0.25" stroke="rgb(0,0,0)" />
	<line x1="301.057" y1="1629.53" x2="286.435" y2="1768.65" stroke-width="0.25" stroke="rgb(0,0,0)" />
	<line x1="287.369" y1="1768.65" x2="301.902" y2="1630.38" stroke-width="0.25" stroke="rgb(0,0,0)" />
	<line x1="302.747" y1="1631.22" x2="288.303" y2="1768.65" stroke-width="0.25" stroke="rgb(0,0,0)" />
	<line x1="289.237" y1="1768.65" x2="303.592" y2="1632.07" stroke-width="0.25" stroke="rgb(0,0,0)" />
	<line x1="304.438" y1="1632.91" x2="290.171" y2="1768.65" stroke-width="0.25" stroke="rgb(0,0,0)" />
	<line x1="291.105" y1="1768.65" x2="305.283" y2="1633.76" stroke-width="0.25" stroke="rgb(0,0,0)" />
	<line x1="306.128" y1="1634.6" x2="292.039" y2="1768.65" stroke-width="0.25" stroke="rgb(0,0,0)" />
	<line x1="292.973" y1="1768.65" x2="306.973" y2="1635.45" stroke-width="0.25" stroke="rgb(0,0,0)" />
	<line x1="307.818" y1="1636.29" x2="293.907" y2="1768.65" stroke-width="0.25" stroke="rgb(0,0,0)" />
	<line x1="294.841" y1="1768.65" x2="308.664" y2="1637.14" stroke-width="0.25" stroke="rgb(0,0,0)" />
	<line x1="309.509" y1="1637.98" x2="295.775" y2="1768.65" stroke-width="0.25" stroke="rgb(0,0,0)" />
	<line x1="296.709" y1="1768.65" x2="310.354" y2="1638.83" stroke-width="0.25" stroke="rgb(0,0,0)" />
	<line x1="311.199" y1="1639.67" x2="297.643" y2="1768.65" stroke-width="0.25" stroke="rgb(0,0,0)" />
	<line x1="298.577" y1="1768.65" x2="312.044" y2="1640.52" stroke-width="0.25" stroke="rgb(0,0,0)" />
	<line x1="312.89" y1="1641.36" x2="299.511" y2="1768.65" stroke-width="0.25" stroke="rgb(0,0,0)" />
	<line x1="300.445" y1="1768.65" x2="313.735" y2="1642.21" stroke-width="0.25" stroke="rgb(0,0,0)" />
	<line x1="314.58" y1="1643.05" x2="301.379" y2="1768.65" stroke-width="0.25" stroke="rgb(0,0,0)" />
	<line x1="302.313" y1="1768.65" x2="315.425" y2="1643.9" stroke-width="0.25" stroke="rgb(0,0,0)" />
	<line x1="316.27" y1="1644.74" x2="303.247" y2="1768.65" stroke-width="0.25" stroke="rgb(0,0,0)" />
	<line x1="304.181" y1="1768.65" x2="317.116" y2="1645.59" stroke-width="0.25" stroke="rgb(0,0,0)" />
	<line x1="317.961" y1="1646.43" x2="305.115" y2="1768.65" stroke-width="0.25" stroke="rgb(0,0,0)" />
	<line x1="306.049" y1="1768.65" x2="318.806" y2="1647.28" stroke-width="0.25" stroke="rgb(0,0,0)" />
	<line x1="319.651" y1="1648.12" x2="306.984" y2="1768.65" stroke-width="0.25" stroke="rgb(0,0,0)" />
	<line x1="307.918" y1="1768.65" x2="320.496" y2="1648.97" stroke-width="0.25" stroke="rgb(0,0,0)" />
	<line x1="321.341" y1="1649.81" x2="308.852" y2="1768.65" stroke-width="0.25" stroke="rgb(0,0,0)" />
	<line x1="309.786" y1="1768.65" x2="322.187" y2="1650.66" stroke-width="0.25" stroke="rgb(0,0,0)" />
	<line x1="323.032" y1="1651.51" x2="310.72" y2="1768.65" stroke-width="0.25" stroke="rgb(0,0,0)" />
	<line x1="311.654" y1="1768.65" x2="323.877" y2="1652.35" stroke-width="0.25" stroke="rgb(0,0,0)" />
	<line x1="324.722" y1="1653.2" x2="312.588" y2="1768.65" stroke-width="0.25" stroke="rgb(0,0,0)" />
	<line x1="313.522" y1="1768.65" x2="325.567" y2="1654.04" stroke-width="0.25" stroke="rgb(0,0,0)" />
	<line x1="326.413" y1="1654.89" x2="314.456" y2="1768.65" stroke-width="0.25" stroke="rgb(0,0,0)" />
	<line x1="315.39" y1="1768.65" x2="327.258" y2="1655.73" stroke-width="0.25" stroke="rgb(0,0,0)" />
	<line x1="328.103" y1="1656.58" x2="316.324" y2="1768.65" stroke-width="0.25" stroke="rgb(0,0,0)" />
	<line x1="317.258" y1="1768.65" x2="328.948" y2="1657.42" stroke-width="0.25" stroke="rgb(0,0,0)" />
	<line x1="329.793" y1="1658.27" x2="318.192" y2="1768.65" stroke-width="0.25" stroke="rgb(0,0,0)" />
	<line x1="319.126" y1="1768.65" x2="330.639" y2="1659.11" stroke-width="0.25" stroke="rgb(0,0,0)" />
	<line x1="331.484" y1="1659.96" x2="320.06" y2="1768.65" stroke-width="0.25" stroke="rgb(0,0,0)" />
	<line x1="320.994" y1="1768.65" x2="332.329" y2="1660.8" stroke-width="0.25" stroke="rgb(0,0,0)" />
	<line x1="333.174" y1="1661.65" x2="321.928" y2="1768.65" stroke-width="0.25" stroke="rgb(0,0,0)" />
	<line x1="322.862" y1="1768.65" x2="334.019" y2="1662.49" stroke-width="0.25" stroke="rgb(0,0,0)" />
	<line x1="334.865" y1="1663.34" x2="323.796" y2="1768.65" stroke-width="0.25" stroke="rgb(0,0,0)" />
	<line x1="324.73" y1="1768.65" x2="335.71" y2="1664.18" stroke-width="0.25" stroke="rgb(0,0,0)" />
	<line x1="336.555" y1="1665.03" x2="325.664" y2="1768.65" stroke-width="0.25" stroke="rgb(0,0,0)" />
	<line x1="326.598" y1="1768.65" x2="337.4" y2="1665.87" stroke-width="0.25" stroke="rgb(0,0,0)" />
	<line x1="338.245" y1="1666.72" x2="327.532" y2="1768.65" stroke-width="0.25" stroke="rgb(0,0,0)" />
	<line x1="328.466" y1="1768.65" x2="339.09" y2="1667.56" stroke-width="0.25" stroke="rgb(0,0,0)" />
	<line x1="339.936" y1="1668.41" x2="329.4" y2="1768.65" stroke-width="0.25" stroke="rgb(0,0,0)" />
	<line x1="330.334" y1="1768.65" x2="340.781" y2="1669.25" stroke-width="0.25" stroke="rgb(0,0,0)" />
	<line x1="341.626" y1="1670.1" x2="331.268" y2="1768.65" stroke-width="0.25" stroke="rgb(0,0,0)" />
	<line x1="332.202" y1="1768.65" x2="342.471" y2="1670.94" stroke-width="0.25" stroke="rgb(0,0,0)" />
	<line x1="343.316" y1="1671.79" x2="333.136" y2="1768.65" stroke-width="0.25" stroke="rgb(0,0,0)" />
	<line x1="334.07" y1="1768.65" x2="344.162" y2="1672.63" stroke-width="0.25" stroke="rgb(0,0,0)" />
	<line x1="345.007" y1="1673.48" x2="335.004" y2="1768.65" stroke-width="0.25" stroke="rgb(0,0,0)" />
	<line x1="335.938" y1="1768.65" x2="345.852" y2="1674.33" stroke-width="0.25" stroke="rgb(0,0,0)" />
	<line x1="346.697" y1="1675.17" x2="336.872" y2="1768.65" stroke-width="0.25" stroke="rgb(0,0,0)" />
	<line x1="337.806" y1="1768.65" x2="347.542" y2="1676.02" stroke-width="0.25" stroke="rgb(0,0,0)" />
	<line x1="348.388" y1="1676.86" x2="338.74" y2="1768.65" stroke-width="0.25" stroke="rgb(0,0,0)" />
	<line x1="339.674" y1="1768.65" x2="348.389" y2="1685.73" stroke-width="0.25" stroke="rgb(0,0,0)" />
	<line x1="348.389" y1="1694.62" x2="340.608" y2="1768.65" stroke-width="0.25" stroke="rgb(0,0,0)" />
	<line x1="341.542" y1="1768.65" x2="348.389" y2="1703.51" stroke-width="0.25" stroke="rgb(0,0,0)" />
	<line x1="348.389" y1="1712.39" x2="342.476" y2="1768.65" stroke-width="0.25" stroke="rgb(0,0,0)" />
	<line x1="343.41" y1="1768.65" x2="348.389" y2="1721.28" stroke-width="0.25" stroke="rgb(0,0,0)" />
	<line x1="348.389" y1="1730.17" x2="344.344" y2="1768.65" stroke-width="0.25" stroke="rgb(0,0,0)" />
	<line x1="345.278" y1="1768.65" x2="348.389" y2="1739.05" stroke-width="0.25" stroke="rgb(0,0,0)" />
	<line x1="348.389" y1="1747.94" x2="346.212" y2="1768.65" stroke-width="0.25" stroke="rgb(0,0,0)" />
	<line x1="347.147" y1="1768.65" x2="348.389" y2="1756.83" stroke-width="0.25" stroke="rgb(0,0,0)" />
	<line x1="348.389" y1="1765.71" x2="348.081" y2="1768.65" stroke-width="0.25" stroke="rgb(0,0,0)" />
	<line x1="152.522" y1="739.833" x2="153.339" y2="732.066" stroke-width="0.25" stroke="rgb(0,0,0)" />
	<line x1="154.54" y1="732.066" x2="152.522" y2="751.258" stroke-width="0.25" stroke="rgb(0,0,0)" />
	<line x1="152.522" y1="762.684" x2="155.74" y2="732.066" stroke-width="0.25" stroke="rgb(0,0,0)" />
	<line x1="156.941" y1="732.066" x2="152.522" y2="774.11" stroke-width="0.25" stroke="rgb(0,0,0)" />
	<line x1="152.522" y1="785.535" x2="158.142" y2="732.066" stroke-width="0.25" stroke="rgb(0,0,0)" />
	<line x1="159.343" y1="732.066" x2="152.522" y2="796.961" stroke-width="0.25" stroke="rgb(0,0,0)" />
	<line x1="152.522" y1="808.387" x2="160.544" y2="732.066" stroke-width="0.25" stroke="rgb(0,0,0)" />
	<line x1="161.745" y1="732.066" x2="152.522" y2="819.812" stroke-width="0.25" stroke="rgb(0,0,0)" />
	<line x1="152.522" y1="831.238" x2="162.946" y2="732.066" stroke-width="0.25" stroke="rgb(0,0,0)" />
	<line x1="164.147" y1="732.066" x2="152.522" y2="842.664" stroke-width="0.25" stroke="rgb(0,0,0)" />
	<line x1="152.522" y1="854.089" x2="165.348" y2="732.066" stroke-width="0.25" stroke="rgb(0,0,0)" />
	<line x1="166.548" y1="732.066" x2="152.522" y2="865.515" stroke-width="0.25" stroke="rgb(0,0,0)" />
	<line x1="152.522" y1="876.941" x2="167.749" y2="732.066" stroke-width="0.25" stroke="rgb(0,0,0)" />
	<line x1="168.95" y1="732.066" x2="152.522" y2="888.367" stroke-width="0.25" stroke="rgb(0,0,0)" />
	<line x1="152.522" y1="899.792" x2="170.151" y2="732.066" stroke-width="0.25" stroke="rgb(0,0,0)" />
	<line x1="171.352" y1="732.066" x2="152.522" y2="911.218" stroke-width="0.25" stroke="rgb(0,0,0)" />
	<line x1="152.522" y1="922.644" x2="172.553" y2="732.066" stroke-width="0.25" stroke="rgb(0,0,0)" />
	<line x1="173.754" y1="732.066" x2="152.522" y2="934.069" stroke-width="0.25" stroke="rgb(0,0,0)" />
	<line x1="152.522" y1="945.495" x2="174.955" y2="732.066" stroke-width="0.25" stroke="rgb(0,0,0)" />
	<line x1="176.156" y1="732.066" x2="152.522" y2="956.921" stroke-width="0.25" stroke="rgb(0,0,0)" />
	<line x1="152.522" y1="968.346" x2="177.356" y2="732.066" stroke-width="0.25" stroke="rgb(0,0,0)" />
	<line x1="178.557" y1="732.066" x2="153.488" y2="970.585" stroke-width="0.25" stroke="rgb(0,0,0)" />
	<line x1="154.689" y1="970.585" x2="179.758" y2="732.066" stroke-width="0.25" stroke="rgb(0,0,0)" />
	<line x1="180.959" y1="732.066" x2="155.89" y2="970.585" stroke-width="0.25" stroke="rgb(0,0,0)" />
	<line x1="157.091" y1="970.585" x2="182.16" y2="732.066" stroke-width="0.25" stroke="rgb(0,0,0)" />
	<line x1="183.361" y1="732.066" x2="158.291" y2="970.585" stroke-width="0.25" stroke="rgb(0,0,0)" />
	<line x1="159.492" y1="970.585" x2="184.562" y2="732.066" stroke-width="0.25" stroke="rgb(0,0,0)" />
	<line x1="185.763" y1="732.066" x2="160.693" y2="970.585" stroke-width="0.25" stroke="rgb(0,0,0)" />
	<line x1="161.894" y1="970.585" x2="186.964" y2="732.066" stroke-width="0.25" stroke="rgb(0,0,0)" />
	<line x1="188.164" y1="732.066" x2="163.095" y2="970.585" stroke-width="0.25" stroke="rgb(0,0,0)" />
	<line x1="164.296" y1="970.585" x2="189.365" y2="732.066" stroke-width="0.25" stroke="rgb(0,0,0)" />
	<line x1="190.566" y1="732.066" x2="165.497" y2="970.585" stroke-width="0.25" stroke="rgb(0,0,0)" />
	<line x1="166.698" y1="970.585" x2="191.767" y2="732.066" stroke-width="0.25" stroke="rgb(0,0,0)" />
	<line x1="192.968" y1="732.066" x2="167.899" y2="970.585" stroke-width="0.25" stroke="rgb(0,0,0)" />
	<line x1="169.099" y1="970.585" x2="194.169" y2="732.066" stroke-width="0.25" stroke="rgb(0,0,0)" />
	<line x1="195.37" y1="732.066" x2="170.3" y2="970.585" stroke-width="0.25" stroke="rgb(0,0,0)" />
	<line x1="171.501" y1="970.585" x2="196.571" y2="732.066" stroke-width="0.25" stroke="rgb(0,0,0)" />
	<line x1="197.771" y1="732.066" x2="172.702" y2="970.585" stroke-width="0.25" stroke="rgb(0,0,0)" />
	<line x1="173.903" y1="970.585" x2="198.972" y2="732.066" stroke-width="0.25" stroke="rgb(0,0,0)" />
	<line x1="200.173" y1="732.066" x2="175.104" y2="970.585" stroke-width="0.25" stroke="rgb(0,0,0)" />
	<line x1="176.305" y1="970.585" x2="201.374" y2="732.066" stroke-width="0.25" stroke="rgb(0,0,0)" />
	<line x1="202.575" y1="732.066" x2="177.506" y2="970.585" stroke-width="0.25" stroke="rgb(0,0,0)" />
	<line x1="178.707" y1="970.585" x2="203.776" y2="732.066" stroke-width="0.25" stroke="rgb(0,0,0)" />
	<line x1="204.977" y1="732.066" x2="179.907" y2="970.585" stroke-width="0.25" stroke="rgb(0,0,0)" />
	<line x1="181.108" y1="970.585" x2="206.178" y2="732.066" stroke-width="0.25" stroke="rgb(0,0,0)" />
	<line x1="207.379" y1="732.066" x2="182.309" y2="970.585" stroke-width="0.25" stroke="rgb(0,0,0)" />
	<line x1="183.51" y1="970.585" x2="208.579" y2="732.066" stroke-width="0.25" stroke="rgb(0,0,0)" />
	<line x1="209.78" y1="732.066" x2="184.711" y2="970.585" stroke-width="0.25" stroke="rgb(0,0,0)" />
	<line x1="185.912" y1="970.585" x2="210.981" y2="732.066" stroke-width="0.25" stroke="rgb(0,0,0)" />
	<line x1="212.182" y1="732.066" x2="187.113" y2="970.585" stroke-width="0.25" stroke="rgb(0,0,0)" />
	<line x1="188.314" y1="970.585" x2="213.383" y2="732.066" stroke-width="0.25" stroke="rgb(0,0,0)" />
	<line x1="214.584" y1="732.066" x2="189.515" y2="970.585" stroke-width="0.25" stroke="rgb(0,0,0)" />
	<line x1="190.715" y1="970.585" x2="215.785" y2="732.066" stroke-width="0.25" stroke="rgb(0,0,0)" />
	<line x1="216.986" y1="732.066" x2="191.916" y2="970.585" stroke-width="0.25" stroke="rgb(0,0,0)" />
	<line x1="193.117" y1="970.585" x2="218.187" y2="732.066" stroke-width="0.25" stroke="rgb(0,0,0)" />
	<line x1="219.387" y1="732.066" x2="194.318" y2="970.585" stroke-width="0.25" stroke="rgb(0,0,0)" />
	<line x1="195.519" y1="970.585" x2="220.588" y2="732.066" stroke-width="0.25" stroke="rgb(0,0,0)" />
	<line x1="221.789" y1="732.066" x2="196.72" y2="970.585" stroke-width="0.25" stroke="rgb(0,0,0)" />
	<line x1="197.921" y1="970.585" x2="222.99" y2="732.066" stroke-width="0.25" stroke="rgb(0,0,0)" />
	<line x1="224.191" y1="732.066" x2="199.122" y2="970.585" stroke-width="0.25" stroke="rgb(0,0,0)" />
	<line x1="200.323" y1="970.585" x2="225.392" y2="732.066" stroke-width="0.25" stroke="rgb(0,0,0)" />
	<line x1="226.593" y1="732.066" x2="201.523" y2="970.585" stroke-width="0.25" stroke="rgb(0,0,0)" />
	<line x1="202.724" y1="970.585" x2="227.794" y2="732.066" stroke-width="0.25" stroke="rgb(0,0,0)" />
	<line x1="228.995" y1="732.066" x2="203.925" y2="970.585" stroke-width="0.25" stroke="rgb(0,0,0)" />
	<line x1="205.126" y1="970.585" x2="230.195" y2="732.066" stroke-width="0.25" stroke="rgb(0,0,0)" />
	<line x1="231.396" y1="732.066" x2="206.327" y2="970.585" stroke-width="0.25" stroke="rgb(0,0,0)" />
	<line x1="207.528" y1="970.585" x2="232.597" y2="732.066" stroke-width="0.25" stroke="rgb(0,0,0)" />
	<line x1="233.798" y1="732.066" x2="208.729" y2="970.585" stroke-width="0.25" stroke="rgb(0,0,0)" />
	<line x1="209.93" y1="970.585" x2="234.999" y2="732.066" stroke-width="0.25" stroke="rgb(0,0,0)" />
	<line x1="236.2" y1="732.066" x2="211.131" y2="970.585" stroke-width="0.25" stroke="rgb(0,0,0)" />
	<line x1="212.331" y1="970.585" x2="237.401" y2="732.066" stroke-width="0.25" stroke="rgb(0,0,0)" />
	<line x1="238.602" y1="732.066" x2="213.532" y2="970.585" stroke-width="0.25" stroke="rgb(0,0,0)" />
	<line x1="214.733" y1="970.585" x2="239.803" y2="732.066" stroke-width="0.25" stroke="rgb(0,0,0)" />
	<line x1="241.003" y1="732.066" x2="215.934" y2="970.585" stroke-width="0.25" stroke="rgb(0,0,0)" />
	<line x1="217.135" y1="970.585" x2="242.204" y2="732.066" stroke-width="0.25" stroke="rgb(0,0,0)" />
	<line x1="243.405" y1="732.066" x2="218.336" y2="970.585" stroke-width="0.25" stroke="rgb(0,0,0)" />
	<line x1="219.537" y1="970.585" x2="244.606" y2="732.066" stroke-width="0.25" stroke="rgb(0,0,0)" />
	<line x1="245.807" y1="732.066" x2="220.738" y2="970.585" stroke-width="0.25" stroke="rgb(0,0,0)" />
	<line x1="221.939" y1="970.585" x2="247.008" y2="732.066" stroke-width="0.25" stroke="rgb(0,0,0)" />
	<line x1="248.209" y1="732.066" x2="223.139" y2="970.585" stroke-width="0.25" stroke="rgb(0,0,0)" />
	<line x1="224.34" y1="970.585" x2="249.41" y2="732.066" stroke-width="0.25" stroke="rgb(0,0,0)" />
	<line x1="250.611" y1="732.066" x2="225.541" y2="970.585" stroke-width="0.25" stroke="rgb(0,0,0)" />
	<line x1="226.742" y1="970.585" x2="251.811" y2="732.066" stroke-width="0.25" stroke="rgb(0,0,0)" />
	<line x1="253.012" y1="732.066" x2="227.943" y2="970.585" stroke-width="0.25" stroke="rgb(0,0,0)" />
	<line x1="229.144" y1="970.585" x2="254.213" y2="732.066" stroke-width="0.25" stroke="rgb(0,0,0)" />
	<line x1="255.414" y1="732.066" x2="230.345" y2="970.585" stroke-width="0.25" stroke="rgb(0,0,0)" />
	<line x1="231.546" y1="970.585" x2="256.615" y2="732.066" stroke-width="0.25" stroke="rgb(0,0,0)" />
	<line x1="257.816" y1="732.066" x2="232.747" y2="970.585" stroke-width="0.25" stroke="rgb(0,0,0)" />
	<line x1="233.947" y1="970.585" x2="259.017" y2="732.066" stroke-width="0.25" stroke="rgb(0,0,0)" />
	<line x1="260.218" y1="732.066" x2="235.148" y2="970.585" stroke-width="0.25" stroke="rgb(0,0,0)" />
	<line x1="236.349" y1="970.585" x2="261.419" y2="732.066" stroke-width="0.25" stroke="rgb(0,0,0)" />
	<line x1="262.619" y1="732.066" x2="237.55" y2="970.585" stroke-width="0.25" stroke="rgb(0,0,0)" />
	<line x1="238.751" y1="970.585" x2="263.82" y2="732.066" stroke-width="0.25" stroke="rgb(0,0,0)" />
	<line x1="265.021" y1="732.066" x2="239.952" y2="970.585" stroke-width="0.25" stroke="rgb(0,0,0)" />
	<line x1="241.153" y1="970.585" x2="266.222" y2="732.066" stroke-width="0.25" stroke="rgb(0,0,0)" />
	<line x1="267.423" y1="732.066" x2="242.354" y2="970.585" stroke-width="0.25" stroke="rgb(0,0,0)" />
	<line x1="243.555" y1="970.585" x2="268.624" y2="732.066" stroke-width="0.25" stroke="rgb(0,0,0)" />
	<line x1="269.825" y1="732.066" x2="244.755" y2="970.585" stroke-width="0.25" stroke="rgb(0,0,0)" />
	<line x1="245.956" y1="970.585" x2="271.026" y2="732.066" stroke-width="0.25" stroke="rgb(0,0,0)" />
	<line x1="272.227" y1="732.066" x2="247.157" y2="970.585" stroke-width="0.25" stroke="rgb(0,0,0)" />
	<line x1="248.358" y1="970.585" x2="273.427" y2="732.066" stroke-width="0.25" stroke="rgb(0,0,0)" />
	<line x1="274.628" y1="732.066" x2="249.559" y2="970.585" stroke-width="0.25" stroke="rgb(0,0,0)" />
	<line x1="250.76" y1="970.585" x2="275.829" y2="732.066" stroke-width="0.25" stroke="rgb(0,0,0)" />
	<line x1="277.03" y1="732.066" x2="251.961" y2="970.585" stroke-width="0.25" stroke="rgb(0,0,0)" />
	<line x1="253.162" y1="970.585" x2="278.231" y2="732.066" stroke-width="0.25" stroke="rgb(0,0,0)" />
	<line x1="279.432" y1="732.066" x2="254.363" y2="970.585" stroke-width="0.25" stroke="rgb(0,0,0)" />
	<line x1="255.563" y1="970.585" x2="280.633" y2="732.066" stroke-width="0.25" stroke="rgb(0,0,0)" />
	<line x1="281.834" y1="732.066" x2="256.764" y2="970.585" stroke-width="0.25" stroke="rgb(0,0,0)" />
	<line x1="257.965" y1="970.585" x2="283.035" y2="732.066" stroke-width="0.25" stroke="rgb(0,0,0)" />
	<line x1="284.235" y1="732.066" x2="259.166" y2="970.585" stroke-width="0.25" stroke="rgb(0,0,0)" />
	<line x1="260.367" y1="970.585" x2="285.436" y2="732.066" stroke-width="0.25" stroke="rgb(0,0,0)" />
	<line x1="286.637" y1="732.066" x2="261.568" y2="970.585" stroke-width="0.25" stroke="rgb(0,0,0)" />
	<line x1="262.769" y1="970.585" x2="287.838" y2="732.066" stroke-width="0.25" stroke="rgb(0,0,0)" />
	<line x1="289.039" y1="732.066" x2="263.97" y2="970.585" stroke-width="0.25" stroke="rgb(0,0,0)" />
	<line x1="265.17" y1="970.585" x2="290.24" y2="732.066" stroke-width="0.25" stroke="rgb(0,0,0)" />
	<line x1="291.441" y1="732.066" x2="266.371" y2="970.585" stroke-width="0.25" stroke="rgb(0,0,0)" />
	<line x1="267.572" y1="970.585" x2="292.642" y2="732.066" stroke-width="0.25" stroke="rgb(0,0,0)" />
	<line x1="293.842" y1="732.066" x2="268.773" y2="970.585" stroke-width="0.25" stroke="rgb(0,0,0)" />
	<line x1="269.974" y1="970.585" x2="295.043" y2="732.066" stroke-width="0.25" stroke="rgb(0,0,0)" />
	<line x1="296.244" y1="732.066" x2="271.175" y2="970.585" stroke-width="0.25" stroke="rgb(0,0,0)" />
	<line x1="272.376" y1="970.585" x2="297.445" y2="732.066" stroke-width="0.25" stroke="rgb(0,0,0)" />
	<line x1="298.646" y1="732.066" x2="273.577" y2="970.585" stroke-width="0.25" stroke="rgb(0,0,0)" />
	<line x1="274.778" y1="970.585" x2="299.847" y2="732.066" stroke-width="0.25" stroke="rgb(0,0,0)" />
	<line x1="301.048" y1="732.066" x2="275.978" y2="970.585" stroke-width="0.25" stroke="rgb(0,0,0)" />
	<line x1="277.179" y1="970.585" x2="302.249" y2="732.066" stroke-width="0.25" stroke="rgb(0,0,0)" />
	<line x1="303.45" y1="732.066" x2="278.38" y2="970.585" stroke-width="0.25" stroke="rgb(0,0,0)" />
	<line x1="279.581" y1="970.585" x2="304.65" y2="732.066" stroke-width="0.25" stroke="rgb(0,0,0)" />
	<line x1="305.851" y1="732.066" x2="280.782" y2="970.585" stroke-width="0.25" stroke="rgb(0,0,0)" />
	<line x1="281.983" y1="970.585" x2="307.052" y2="732.066" stroke-width="0.25" stroke="rgb(0,0,0)" />
	<line x1="308.253" y1="732.066" x2="283.184" y2="970.585" stroke-width="0.25" stroke="rgb(0,0,0)" />
	<line x1="284.385" y1="970.585" x2="309.454" y2="732.066" stroke-width="0.25" stroke="rgb(0,0,0)" />
	<line x1="310.655" y1="732.066" x2="285.586" y2="970.585" stroke-width="0.25" stroke="rgb(0,0,0)" />
	<line x1="286.786" y1="970.585" x2="311.856" y2="732.066" stroke-width="0.25" stroke="rgb(0,0,0)" />
	<line x1="313.057" y1="732.066" x2="287.987" y2="970.585" stroke-width="0.25" stroke="rgb(0,0,0)" />
	<line x1="289.188" y1="970.585" x2="314.258" y2="732.066" stroke-width="0.25" stroke="rgb(0,0,0)" />
	<line x1="315.458" y1="732.066" x2="290.389" y2="970.585" stroke-width="0.25" stroke="rgb(0,0,0)" />
	<line x1="291.59" y1="970.585" x2="316.659" y2="732.066" stroke-width="0.25" stroke="rgb(0,0,0)" />
	<line x1="317.86" y1="732.066" x2="292.791" y2="970.585" stroke-width="0.25" stroke="rgb(0,0,0)" />
	<line x1="293.992" y1="970.585" x2="319.061" y2="732.066" stroke-width="0.25" stroke="rgb(0,0,0)" />
	<line x1="320.262" y1="732.066" x2="295.193" y2="970.585" stroke-width="0.25" stroke="rgb(0,0,0)" />
	<line x1="296.394" y1="970.585" x2="321.463" y2="732.066" stroke-width="0.25" stroke="rgb(0,0,0)" />
	<line x1="322.664" y1="732.066" x2="297.594" y2="970.585" stroke-width="0.25" stroke="rgb(0,0,0)" />
	<line x1="298.795" y1="970.585" x2="323.865" y2="732.066" stroke-width="0.25" stroke="rgb(0,0,0)" />
	<line x1="325.066" y1="732.066" x2="299.996" y2="970.585" stroke-width="0.25" stroke="rgb(0,0,0)" />
	<line x1="301.197" y1="970.585" x2="326.266" y2="732.066" stroke-width="0.25" stroke="rgb(0,0,0)" />
	<line x1="327.467" y1="732.066" x2="302.398" y2="970.585" stroke-width="0.25" stroke="rgb(0,0,0)" />
	<line x1="303.599" y1="970.585" x2="328.668" y2="732.066" stroke-width="0.25" stroke="rgb(0,0,0)" />
	<line x1="329.869" y1="732.066" x2="304.8" y2="970.585" stroke-width="0.25" stroke="rgb(0,0,0)" />
	<line x1="306.001" y1="970.585" x2="331.07" y2="732.066" stroke-width="0.25" stroke="rgb(0,0,0)" />
	<line x1="332.271" y1="732.066" x2="307.202" y2="970.585" stroke-width="0.25" stroke="rgb(0,0,0)" />
	<line x1="308.402" y1="970.585" x2="333.472" y2="732.066" stroke-width="0.25" stroke="rgb(0,0,0)" />
	<line x1="334.673" y1="732.066" x2="309.603" y2="970.585" stroke-width="0.25" stroke="rgb(0,0,0)" />
	<line x1="310.804" y1="970.585" x2="335.874" y2="732.066" stroke-width="0.25" stroke="rgb(0,0,0)" />
	<line x1="337.074" y1="732.066" x2="312.005" y2="970.585" stroke-width="0.25" stroke="rgb(0,0,0)" />
	<line x1="313.206" y1="970.585" x2="338.275" y2="732.066" stroke-width="0.25" stroke="rgb(0,0,0)" />
	<line x1="339.476" y1="732.066" x2="314.407" y2="970.585" stroke-width="0.25" stroke="rgb(0,0,0)" />
	<line x1="315.608" y1="970.585" x2="340.677" y2="732.066" stroke-width="0.25" stroke="rgb(0,0,0)" />
	<line x1="341.878" y1="732.066" x2="316.809" y2="970.585" stroke-width="0.25" stroke="rgb(0,0,0)" />
	<line x1="318.01" y1="970.585" x2="343.079" y2="732.066" stroke-width="0.25" stroke="rgb(0,0,0)" />
	<line x1="344.28" y1="732.066" x2="319.21" y2="970.585" stroke-width="0.25" stroke="rgb(0,0,0)" />
	<line x1="320.411" y1="970.585" x2="345.481" y2="732.066" stroke-width="0.25" stroke="rgb(0,0,0)" />
	<line x1="346.682" y1="732.066" x2="321.612" y2="970.585" stroke-width="0.25" stroke="rgb(0,0,0)" />
	<line x1="322.813" y1="970.585" x2="347.882" y2="732.066" stroke-width="0.25" stroke="rgb(0,0,0)" />
	<line x1="349.083" y1="732.066" x2="324.014" y2="970.585" stroke-width="0.25" stroke="rgb(0,0,0)" />
	<line x1="325.215" y1="970.585" x2="350.284" y2="732.066" stroke-width="0.25" stroke="rgb(0,0,0)" />
	<line x1="351.485" y1="732.066" x2="326.416" y2="970.585" stroke-width="0.25" stroke="rgb(0,0,0)" />
	<line x1="327.617" y1="970.585" x2="352.686" y2="732.066" stroke-width="0.25" stroke="rgb(0,0,0)" />
	<line x1="353.887" y1="732.066" x2="328.818" y2="970.585" stroke-width="0.25" stroke="rgb(0,0,0)" />
	<line x1="330.018" y1="970.585" x2="355.088" y2="732.066" stroke-width="0.25" stroke="rgb(0,0,0)" />
	<line x1="356.289" y1="732.066" x2="331.219" y2="970.585" stroke-width="0.25" stroke="rgb(0,0,0)" />
	<line x1="332.42" y1="970.585" x2="357.49" y2="732.066" stroke-width="0.25" stroke="rgb(0,0,0)" />
	<line x1="358.69" y1="732.066" x2="333.621" y2="970.585" stroke-width="0.25" stroke="rgb(0,0,0)" />
	<line x1="334.822" y1="970.585" x2="359.891" y2="732.066" stroke-width="0.25" stroke="rgb(0,0,0)" />
	<line x1="361.092" y1="732.066" x2="336.023" y2="970.585" stroke-width="0.25" stroke="rgb(0,0,0)" />
	<line x1="337.224" y1="970.585" x2="362.293" y2="732.066" stroke-width="0.25" stroke="rgb(0,0,0)" />
	<line x1="363.494" y1="732.066" x2="338.425" y2="970.585" stroke-width="0.25" stroke="rgb(0,0,0)" />
	<line x1="339.626" y1="970.585" x2="364.695" y2="732.066" stroke-width="0.25" stroke="rgb(0,0,0)" />
	<line x1="365.896" y1="732.066" x2="340.826" y2="970.585" stroke-width="0.25" stroke="rgb(0,0,0)" />
	<line x1="342.027" y1="970.585" x2="367.097" y2="732.066" stroke-width="0.25" stroke="rgb(0,0,0)" />
	<line x1="368.298" y1="732.066" x2="343.228" y2="970.585" stroke-width="0.25" stroke="rgb(0,0,0)" />
	<line x1="344.429" y1="970.585" x2="369.498" y2="732.066" stroke-width="0.25" stroke="rgb(0,0,0)" />
	<line x1="370.699" y1="732.066" x2="345.63" y2="970.585" stroke-width="0.25" stroke="rgb(0,0,0)" />
	<line x1="346.831" y1="970.585" x2="371.9" y2="732.066" stroke-width="0.25" stroke="rgb(0,0,0)" />
	<line x1="373.101" y1="732.066" x2="348.032" y2="970.585" stroke-width="0.25" stroke="rgb(0,0,0)" />
	<line x1="349.233" y1="970.585" x2="374.302" y2="732.066" stroke-width="0.25" stroke="rgb(0,0,0)" />
	<line x1="375.503" y1="732.066" x2="350.434" y2="970.585" stroke-width="0.25" stroke="rgb(0,0,0)" />
	<line x1="351.634" y1="970.585" x2="376.704" y2="732.066" stroke-width="0.25" stroke="rgb(0,0,0)" />
	<line x1="377.905" y1="732.066" x2="352.835" y2="970.585" stroke-width="0.25" stroke="rgb(0,0,0)" />
	<line x1="354.036" y1="970.585" x2="379.106" y2="732.066" stroke-width="0.25" stroke="rgb(0,0,0)" />
	<line x1="380.306" y1="732.066" x2="355.237" y2="970.585" stroke-width="0.25" stroke="rgb(0,0,0)" />
	<line x1="356.438" y1="970.585" x2="381.507" y2="732.066" stroke-width="0.25" stroke="rgb(0,0,0)" />
	<line x1="382.708" y1="732.066" x2="357.639" y2="970.585" stroke-width="0.25" stroke="rgb(0,0,0)" />
	<line x1="358.84" y1="970.585" x2="383.909" y2="732.066" stroke-width="0.25" stroke="rgb(0,0,0)" />
	<line x1="385.11" y1="732.066" x2="360.041" y2="970.585" stroke-width="0.25" stroke="rgb(0,0,0)" />
	<line x1="361.241" y1="970.585" x2="386.311" y2="732.066" stroke-width="0.25" stroke="rgb(0,0,0)" />
	<line x1="387.512" y1="732.066" x2="362.442" y2="970.585" stroke-width="0.25" stroke="rgb(0,0,0)" />
	<line x1="363.643" y1="970.585" x2="388.713" y2="732.066" stroke-width="0.25" stroke="rgb(0,0,0)" />
	<line x1="389.914" y1="732.066" x2="364.844" y2="970.585" stroke-width="0.25" stroke="rgb(0,0,0)" />
	<line x1="366.045" y1="970.585" x2="391.041" y2="732.762" stroke-width="0.25" stroke="rgb(0,0,0)" />
	<line x1="391.041" y1="744.188" x2="367.246" y2="970.585" stroke-width="0.25" stroke="rgb(0,0,0)" />
	<line x1="368.447" y1="970.585" x2="391.041" y2="755.613" stroke-width="0.25" stroke="rgb(0,0,0)" />
	<line x1="391.041" y1="767.039" x2="369.648" y2="970.585" stroke-width="0.25" stroke="rgb(0,0,0)" />
	<line x1="370.849" y1="970.585" x2="391.041" y2="778.465" stroke-width="0.25" stroke="rgb(0,0,0)" />
	<line x1="391.041" y1="789.89" x2="372.049" y2="970.585" stroke-width="0.25" stroke="rgb(0,0,0)" />
	<line x1="373.25" y1="970.585" x2="391.041" y2="801.316" stroke-width="0.25" stroke="rgb(0,0,0)" />
	<line x1="391.041" y1="812.742" x2="374.451" y2="970.585" stroke-width="0.25" stroke="rgb(0,0,0)" />
	<line x1="375.652" y1="970.585" x2="391.041" y2="824.167" stroke-width="0.25" stroke="rgb(0,0,0)" />
	<line x1="391.041" y1="835.593" x2="376.853" y2="970.585" stroke-width="0.25" stroke="rgb(0,0,0)" />
	<line x1="378.054" y1="970.585" x2="391.041" y2="847.019" stroke-width="0.25" stroke="rgb(0,0,0)" />
	<line x1="391.041" y1="858.444" x2="379.255" y2="970.585" stroke-width="0.25" stroke="rgb(0,0,0)" />
	<line x1="380.456" y1="970.585" x2="391.041" y2="869.87" stroke-width="0.25" stroke="rgb(0,0,0)" />
	<line x1="391.041" y1="881.296" x2="381.657" y2="970.585" stroke-width="0.25" stroke="rgb(0,0,0)" />
	<line x1="382.857" y1="970.585" x2="391.041" y2="892.722" stroke-width="0.25" stroke="rgb(0,0,0)" />
	<line x1="391.041" y1="904.147" x2="384.058" y2="970.585" stroke-width="0.25" stroke="rgb(0,0,0)" />
	<line x1="385.259" y1="970.585" x2="391.041" y2="915.573" stroke-width="0.25" stroke="rgb(0,0,0)" />
	<line x1="391.041" y1="926.999" x2="386.46" y2="970.585" stroke-width="0.25" stroke="rgb(0,0,0)" />
	<line x1="387.661" y1="970.585" x2="391.041" y2="938.424" stroke-width="0.25" stroke="rgb(0,0,0)" />
	<line x1="391.041" y1="949.85" x2="388.862" y2="970.585" stroke-width="0.25" stroke="rgb(0,0,0)" />
	<line x1="390.063" y1="970.585" x2="391.041" y2="961.276" stroke-width="0.25" stroke="rgb(0,0,0)" />
</svg>
