<?xml version="1.0" standalone="no" ?>
<!DOCTYPE svg PUBLIC "-//W3C//DTD SVG 1.1//EN" "http://www.w3.org/Graphics/SVG/1.1/DTD/svg11.dtd">
<svg width="2000px" height="2000px" xmlns="http://www.w3.org/2000/svg" version="1.1" >
	<line x1="348.389" y1="1600.56" x2="318.754" y2="1570.92" stroke-width="0.25" stroke="rgb(0,0,0)" />
	<line x1="318.754" y1="1570.92" x2="150.665" y2="1570.92" stroke-width="0.25" stroke="rgb(0,0,0)" />
	<line x1="150.665" y1="1570.92" x2="150.665" y2="1768.65" stroke-width="0.25" stroke="rgb(0,0,0)" />
	<line x1="150.665" y1="1768.65" x2="348.389" y2="1768.65" stroke-width="0.25" stroke="rgb(0,0,0)" />
	<line x1="348.389" y1="1768.65" x2="348.389" y2="1600.56" stroke-width="0.25" stroke="rgb(0,0,0)" />
	<line x1="265.528" y1="857.579" x2="150.864" y2="857.579" stroke-width="0.25" stroke="rgb(0,0,0)" />
	<line x1="150.864" y1="857.579" x2="150.864" y2="972.243" stroke-width="0.25" stroke="rgb(0,0,0)" />
	<line x1="150.864" y1="972.243" x2="265.528" y2="972.243" stroke-width="0.25" stroke="rgb(0,0,0)" />
	<line x1="265.528" y1="972.243" x2="265.528" y2="857.579" stroke-width="0.25" stroke="rgb(0,0,0)" />
	<line x1="264.666" y1="858.441" x2="151.726" y2="858.441" stroke-width="0.25" stroke="rgb(0,0,0)" />
	<line x1="151.726" y1="858.441" x2="151.726" y2="971.381" stroke-width="0.25" stroke="rgb(0,0,0)" />
	<line x1="151.726" y1="971.381" x2="264.666" y2="971.381" stroke-width="0.25" stroke="rgb(0,0,0)" />
	<line x1="264.666" y1="971.381" x2="264.666" y2="858.441" stroke-width="0.25" stroke="rgb(0,0,0)" />
	<line x1="318.587" y1="1570.92" x2="319.198" y2="1571.37" stroke-width="0.25" stroke="rgb(0,0,0)" />
	<line x1="323.397" y1="1575.57" x2="317.007" y2="1570.92" stroke-width="0.25" stroke="rgb(0,0,0)" />
	<line x1="315.426" y1="1570.92" x2="327.595" y2="1579.77" stroke-width="0.25" stroke="rgb(0,0,0)" />
	<line x1="331.794" y1="1583.96" x2="313.846" y2="1570.92" stroke-width="0.25" stroke="rgb(0,0,0)" />
	<line x1="312.265" y1="1570.92" x2="335.993" y2="1588.16" stroke-width="0.25" stroke="rgb(0,0,0)" />
	<line x1="340.192" y1="1592.36" x2="310.685" y2="1570.92" stroke-width="0.25" stroke="rgb(0,0,0)" />
	<line x1="309.105" y1="1570.92" x2="344.391" y2="1596.56" stroke-width="0.25" stroke="rgb(0,0,0)" />
	<line x1="348.389" y1="1600.61" x2="307.524" y2="1570.92" stroke-width="0.25" stroke="rgb(0,0,0)" />
	<line x1="305.944" y1="1570.92" x2="348.389" y2="1601.76" stroke-width="0.25" stroke="rgb(0,0,0)" />
	<line x1="348.389" y1="1602.91" x2="304.364" y2="1570.92" stroke-width="0.25" stroke="rgb(0,0,0)" />
	<line x1="302.783" y1="1570.92" x2="348.389" y2="1604.06" stroke-width="0.25" stroke="rgb(0,0,0)" />
	<line x1="348.389" y1="1605.21" x2="301.203" y2="1570.92" stroke-width="0.25" stroke="rgb(0,0,0)" />
	<line x1="299.623" y1="1570.92" x2="348.389" y2="1606.35" stroke-width="0.25" stroke="rgb(0,0,0)" />
	<line x1="348.389" y1="1607.5" x2="298.042" y2="1570.92" stroke-width="0.25" stroke="rgb(0,0,0)" />
	<line x1="296.462" y1="1570.92" x2="348.389" y2="1608.65" stroke-width="0.25" stroke="rgb(0,0,0)" />
	<line x1="348.389" y1="1609.8" x2="294.882" y2="1570.92" stroke-width="0.25" stroke="rgb(0,0,0)" />
	<line x1="293.301" y1="1570.92" x2="348.389" y2="1610.95" stroke-width="0.25" stroke="rgb(0,0,0)" />
	<line x1="348.389" y1="1612.1" x2="291.721" y2="1570.92" stroke-width="0.25" stroke="rgb(0,0,0)" />
	<line x1="290.141" y1="1570.92" x2="348.389" y2="1613.24" stroke-width="0.25" stroke="rgb(0,0,0)" />
	<line x1="348.389" y1="1614.39" x2="288.56" y2="1570.92" stroke-width="0.25" stroke="rgb(0,0,0)" />
	<line x1="286.98" y1="1570.92" x2="348.389" y2="1615.54" stroke-width="0.25" stroke="rgb(0,0,0)" />
	<line x1="348.389" y1="1616.69" x2="285.4" y2="1570.92" stroke-width="0.25" stroke="rgb(0,0,0)" />
	<line x1="283.819" y1="1570.92" x2="348.389" y2="1617.84" stroke-width="0.25" stroke="rgb(0,0,0)" />
	<line x1="348.389" y1="1618.98" x2="282.239" y2="1570.92" stroke-width="0.25" stroke="rgb(0,0,0)" />
	<line x1="280.658" y1="1570.92" x2="348.389" y2="1620.13" stroke-width="0.25" stroke="rgb(0,0,0)" />
	<line x1="348.389" y1="1621.28" x2="279.078" y2="1570.92" stroke-width="0.25" stroke="rgb(0,0,0)" />
	<line x1="277.498" y1="1570.92" x2="348.389" y2="1622.43" stroke-width="0.25" stroke="rgb(0,0,0)" />
	<line x1="348.389" y1="1623.58" x2="275.917" y2="1570.92" stroke-width="0.25" stroke="rgb(0,0,0)" />
	<line x1="274.337" y1="1570.92" x2="348.389" y2="1624.73" stroke-width="0.25" stroke="rgb(0,0,0)" />
	<line x1="348.389" y1="1625.87" x2="272.757" y2="1570.92" stroke-width="0.25" stroke="rgb(0,0,0)" />
	<line x1="271.176" y1="1570.92" x2="348.389" y2="1627.02" stroke-width="0.25" stroke="rgb(0,0,0)" />
	<line x1="348.389" y1="1628.17" x2="269.596" y2="1570.92" stroke-width="0.25" stroke="rgb(0,0,0)" />
	<line x1="268.016" y1="1570.92" x2="348.389" y2="1629.32" stroke-width="0.25" stroke="rgb(0,0,0)" />
	<line x1="348.389" y1="1630.47" x2="266.435" y2="1570.92" stroke-width="0.25" stroke="rgb(0,0,0)" />
	<line x1="264.855" y1="1570.92" x2="348.389" y2="1631.62" stroke-width="0.25" stroke="rgb(0,0,0)" />
	<line x1="348.389" y1="1632.76" x2="263.275" y2="1570.92" stroke-width="0.25" stroke="rgb(0,0,0)" />
	<line x1="261.694" y1="1570.92" x2="348.389" y2="1633.91" stroke-width="0.25" stroke="rgb(0,0,0)" />
	<line x1="348.389" y1="1635.06" x2="260.114" y2="1570.92" stroke-width="0.25" stroke="rgb(0,0,0)" />
	<line x1="258.534" y1="1570.92" x2="348.389" y2="1636.21" stroke-width="0.25" stroke="rgb(0,0,0)" />
	<line x1="348.389" y1="1637.36" x2="256.953" y2="1570.92" stroke-width="0.25" stroke="rgb(0,0,0)" />
	<line x1="255.373" y1="1570.92" x2="348.389" y2="1638.5" stroke-width="0.25" stroke="rgb(0,0,0)" />
	<line x1="348.389" y1="1639.65" x2="253.792" y2="1570.92" stroke-width="0.25" stroke="rgb(0,0,0)" />
	<line x1="252.212" y1="1570.92" x2="348.389" y2="1640.8" stroke-width="0.25" stroke="rgb(0,0,0)" />
	<line x1="348.389" y1="1641.95" x2="250.632" y2="1570.92" stroke-width="0.25" stroke="rgb(0,0,0)" />
	<line x1="249.051" y1="1570.92" x2="348.389" y2="1643.1" stroke-width="0.25" stroke="rgb(0,0,0)" />
	<line x1="348.389" y1="1644.25" x2="247.471" y2="1570.92" stroke-width="0.25" stroke="rgb(0,0,0)" />
	<line x1="245.891" y1="1570.92" x2="348.389" y2="1645.39" stroke-width="0.25" stroke="rgb(0,0,0)" />
	<line x1="348.389" y1="1646.54" x2="244.31" y2="1570.92" stroke-width="0.25" stroke="rgb(0,0,0)" />
	<line x1="242.73" y1="1570.92" x2="348.389" y2="1647.69" stroke-width="0.25" stroke="rgb(0,0,0)" />
	<line x1="348.389" y1="1648.84" x2="241.15" y2="1570.92" stroke-width="0.25" stroke="rgb(0,0,0)" />
	<line x1="239.569" y1="1570.92" x2="348.389" y2="1649.99" stroke-width="0.25" stroke="rgb(0,0,0)" />
	<line x1="348.389" y1="1651.13" x2="237.989" y2="1570.92" stroke-width="0.25" stroke="rgb(0,0,0)" />
	<line x1="236.409" y1="1570.92" x2="348.389" y2="1652.28" stroke-width="0.25" stroke="rgb(0,0,0)" />
	<line x1="348.389" y1="1653.43" x2="234.828" y2="1570.92" stroke-width="0.25" stroke="rgb(0,0,0)" />
	<line x1="233.248" y1="1570.92" x2="348.389" y2="1654.58" stroke-width="0.25" stroke="rgb(0,0,0)" />
	<line x1="348.389" y1="1655.73" x2="231.668" y2="1570.92" stroke-width="0.25" stroke="rgb(0,0,0)" />
	<line x1="230.087" y1="1570.92" x2="348.389" y2="1656.88" stroke-width="0.25" stroke="rgb(0,0,0)" />
	<line x1="348.389" y1="1658.02" x2="228.507" y2="1570.92" stroke-width="0.25" stroke="rgb(0,0,0)" />
	<line x1="226.927" y1="1570.92" x2="348.389" y2="1659.17" stroke-width="0.25" stroke="rgb(0,0,0)" />
	<line x1="348.389" y1="1660.32" x2="225.346" y2="1570.92" stroke-width="0.25" stroke="rgb(0,0,0)" />
	<line x1="223.766" y1="1570.92" x2="348.389" y2="1661.47" stroke-width="0.25" stroke="rgb(0,0,0)" />
	<line x1="348.389" y1="1662.62" x2="222.185" y2="1570.92" stroke-width="0.25" stroke="rgb(0,0,0)" />
	<line x1="220.605" y1="1570.92" x2="348.389" y2="1663.76" stroke-width="0.25" stroke="rgb(0,0,0)" />
	<line x1="348.389" y1="1664.91" x2="219.025" y2="1570.92" stroke-width="0.25" stroke="rgb(0,0,0)" />
	<line x1="217.444" y1="1570.92" x2="348.389" y2="1666.06" stroke-width="0.25" stroke="rgb(0,0,0)" />
	<line x1="348.389" y1="1667.21" x2="215.864" y2="1570.92" stroke-width="0.25" stroke="rgb(0,0,0)" />
	<line x1="214.284" y1="1570.92" x2="348.389" y2="1668.36" stroke-width="0.25" stroke="rgb(0,0,0)" />
	<line x1="348.389" y1="1669.51" x2="212.703" y2="1570.92" stroke-width="0.25" stroke="rgb(0,0,0)" />
	<line x1="211.123" y1="1570.92" x2="348.389" y2="1670.65" stroke-width="0.25" stroke="rgb(0,0,0)" />
	<line x1="348.389" y1="1671.8" x2="209.543" y2="1570.92" stroke-width="0.25" stroke="rgb(0,0,0)" />
	<line x1="207.962" y1="1570.92" x2="348.389" y2="1672.95" stroke-width="0.25" stroke="rgb(0,0,0)" />
	<line x1="348.389" y1="1674.1" x2="206.382" y2="1570.92" stroke-width="0.25" stroke="rgb(0,0,0)" />
	<line x1="204.802" y1="1570.92" x2="348.389" y2="1675.25" stroke-width="0.25" stroke="rgb(0,0,0)" />
	<line x1="348.389" y1="1676.39" x2="203.221" y2="1570.92" stroke-width="0.25" stroke="rgb(0,0,0)" />
	<line x1="201.641" y1="1570.92" x2="348.389" y2="1677.54" stroke-width="0.25" stroke="rgb(0,0,0)" />
	<line x1="348.389" y1="1678.69" x2="200.061" y2="1570.92" stroke-width="0.25" stroke="rgb(0,0,0)" />
	<line x1="198.48" y1="1570.92" x2="348.389" y2="1679.84" stroke-width="0.25" stroke="rgb(0,0,0)" />
	<line x1="348.389" y1="1680.99" x2="196.9" y2="1570.92" stroke-width="0.25" stroke="rgb(0,0,0)" />
	<line x1="195.32" y1="1570.92" x2="348.389" y2="1682.14" stroke-width="0.25" stroke="rgb(0,0,0)" />
	<line x1="348.389" y1="1683.28" x2="193.739" y2="1570.92" stroke-width="0.25" stroke="rgb(0,0,0)" />
	<line x1="192.159" y1="1570.92" x2="348.389" y2="1684.43" stroke-width="0.25" stroke="rgb(0,0,0)" />
	<line x1="348.389" y1="1685.58" x2="190.578" y2="1570.92" stroke-width="0.25" stroke="rgb(0,0,0)" />
	<line x1="188.998" y1="1570.92" x2="348.389" y2="1686.73" stroke-width="0.25" stroke="rgb(0,0,0)" />
	<line x1="348.389" y1="1687.88" x2="187.418" y2="1570.92" stroke-width="0.25" stroke="rgb(0,0,0)" />
	<line x1="185.837" y1="1570.92" x2="348.389" y2="1689.02" stroke-width="0.25" stroke="rgb(0,0,0)" />
	<line x1="348.389" y1="1690.17" x2="184.257" y2="1570.92" stroke-width="0.25" stroke="rgb(0,0,0)" />
	<line x1="182.677" y1="1570.92" x2="348.389" y2="1691.32" stroke-width="0.25" stroke="rgb(0,0,0)" />
	<line x1="348.389" y1="1692.47" x2="181.096" y2="1570.92" stroke-width="0.25" stroke="rgb(0,0,0)" />
	<line x1="179.516" y1="1570.92" x2="348.389" y2="1693.62" stroke-width="0.25" stroke="rgb(0,0,0)" />
	<line x1="348.389" y1="1694.77" x2="177.936" y2="1570.92" stroke-width="0.25" stroke="rgb(0,0,0)" />
	<line x1="176.355" y1="1570.92" x2="348.389" y2="1695.91" stroke-width="0.25" stroke="rgb(0,0,0)" />
	<line x1="348.389" y1="1697.06" x2="174.775" y2="1570.92" stroke-width="0.25" stroke="rgb(0,0,0)" />
	<line x1="173.195" y1="1570.92" x2="348.389" y2="1698.21" stroke-width="0.25" stroke="rgb(0,0,0)" />
	<line x1="348.389" y1="1699.36" x2="171.614" y2="1570.92" stroke-width="0.25" stroke="rgb(0,0,0)" />
	<line x1="170.034" y1="1570.92" x2="348.389" y2="1700.51" stroke-width="0.25" stroke="rgb(0,0,0)" />
	<line x1="348.389" y1="1701.65" x2="168.454" y2="1570.92" stroke-width="0.25" stroke="rgb(0,0,0)" />
	<line x1="166.873" y1="1570.92" x2="348.389" y2="1702.8" stroke-width="0.25" stroke="rgb(0,0,0)" />
	<line x1="348.389" y1="1703.95" x2="165.293" y2="1570.92" stroke-width="0.25" stroke="rgb(0,0,0)" />
	<line x1="163.712" y1="1570.92" x2="348.389" y2="1705.1" stroke-width="0.25" stroke="rgb(0,0,0)" />
	<line x1="348.389" y1="1706.25" x2="162.132" y2="1570.92" stroke-width="0.25" stroke="rgb(0,0,0)" />
	<line x1="160.552" y1="1570.92" x2="348.389" y2="1707.4" stroke-width="0.25" stroke="rgb(0,0,0)" />
	<line x1="348.389" y1="1708.54" x2="158.971" y2="1570.92" stroke-width="0.25" stroke="rgb(0,0,0)" />
	<line x1="157.391" y1="1570.92" x2="348.389" y2="1709.69" stroke-width="0.25" stroke="rgb(0,0,0)" />
	<line x1="348.389" y1="1710.84" x2="155.811" y2="1570.92" stroke-width="0.25" stroke="rgb(0,0,0)" />
	<line x1="154.23" y1="1570.92" x2="348.389" y2="1711.99" stroke-width="0.25" stroke="rgb(0,0,0)" />
	<line x1="348.389" y1="1713.14" x2="152.65" y2="1570.92" stroke-width="0.25" stroke="rgb(0,0,0)" />
	<line x1="151.07" y1="1570.92" x2="348.389" y2="1714.28" stroke-width="0.25" stroke="rgb(0,0,0)" />
	<line x1="348.389" y1="1715.43" x2="150.665" y2="1571.78" stroke-width="0.25" stroke="rgb(0,0,0)" />
	<line x1="150.665" y1="1572.93" x2="348.389" y2="1716.58" stroke-width="0.25" stroke="rgb(0,0,0)" />
	<line x1="348.389" y1="1717.73" x2="150.665" y2="1574.07" stroke-width="0.25" stroke="rgb(0,0,0)" />
	<line x1="150.665" y1="1575.22" x2="348.389" y2="1718.88" stroke-width="0.25" stroke="rgb(0,0,0)" />
	<line x1="348.389" y1="1720.03" x2="150.665" y2="1576.37" stroke-width="0.25" stroke="rgb(0,0,0)" />
	<line x1="150.665" y1="1577.52" x2="348.389" y2="1721.17" stroke-width="0.25" stroke="rgb(0,0,0)" />
	<line x1="348.389" y1="1722.32" x2="150.665" y2="1578.67" stroke-width="0.25" stroke="rgb(0,0,0)" />
	<line x1="150.665" y1="1579.82" x2="348.389" y2="1723.47" stroke-width="0.25" stroke="rgb(0,0,0)" />
	<line x1="348.389" y1="1724.62" x2="150.665" y2="1580.96" stroke-width="0.25" stroke="rgb(0,0,0)" />
	<line x1="150.665" y1="1582.11" x2="348.389" y2="1725.77" stroke-width="0.25" stroke="rgb(0,0,0)" />
	<line x1="348.389" y1="1726.91" x2="150.665" y2="1583.26" stroke-width="0.25" stroke="rgb(0,0,0)" />
	<line x1="150.665" y1="1584.41" x2="348.389" y2="1728.06" stroke-width="0.25" stroke="rgb(0,0,0)" />
	<line x1="348.389" y1="1729.21" x2="150.665" y2="1585.56" stroke-width="0.25" stroke="rgb(0,0,0)" />
	<line x1="150.665" y1="1586.7" x2="348.389" y2="1730.36" stroke-width="0.25" stroke="rgb(0,0,0)" />
	<line x1="348.389" y1="1731.51" x2="150.665" y2="1587.85" stroke-width="0.25" stroke="rgb(0,0,0)" />
	<line x1="150.665" y1="1589" x2="348.389" y2="1732.66" stroke-width="0.25" stroke="rgb(0,0,0)" />
	<line x1="348.389" y1="1733.8" x2="150.665" y2="1590.15" stroke-width="0.25" stroke="rgb(0,0,0)" />
	<line x1="150.665" y1="1591.3" x2="348.389" y2="1734.95" stroke-width="0.25" stroke="rgb(0,0,0)" />
	<line x1="348.389" y1="1736.1" x2="150.665" y2="1592.45" stroke-width="0.25" stroke="rgb(0,0,0)" />
	<line x1="150.665" y1="1593.59" x2="348.389" y2="1737.25" stroke-width="0.25" stroke="rgb(0,0,0)" />
	<line x1="348.389" y1="1738.4" x2="150.665" y2="1594.74" stroke-width="0.25" stroke="rgb(0,0,0)" />
	<line x1="150.665" y1="1595.89" x2="348.389" y2="1739.55" stroke-width="0.25" stroke="rgb(0,0,0)" />
	<line x1="348.389" y1="1740.69" x2="150.665" y2="1597.04" stroke-width="0.25" stroke="rgb(0,0,0)" />
	<line x1="150.665" y1="1598.19" x2="348.389" y2="1741.84" stroke-width="0.25" stroke="rgb(0,0,0)" />
	<line x1="348.389" y1="1742.99" x2="150.665" y2="1599.33" stroke-width="0.25" stroke="rgb(0,0,0)" />
	<line x1="150.665" y1="1600.48" x2="348.389" y2="1744.14" stroke-width="0.25" stroke="rgb(0,0,0)" />
	<line x1="348.389" y1="1745.29" x2="150.665" y2="1601.63" stroke-width="0.25" stroke="rgb(0,0,0)" />
	<line x1="150.665" y1="1602.78" x2="348.389" y2="1746.43" stroke-width="0.25" stroke="rgb(0,0,0)" />
	<line x1="348.389" y1="1747.58" x2="150.665" y2="1603.93" stroke-width="0.25" stroke="rgb(0,0,0)" />
	<line x1="150.665" y1="1605.08" x2="348.389" y2="1748.73" stroke-width="0.25" stroke="rgb(0,0,0)" />
	<line x1="348.389" y1="1749.88" x2="150.665" y2="1606.22" stroke-width="0.25" stroke="rgb(0,0,0)" />
	<line x1="150.665" y1="1607.37" x2="348.389" y2="1751.03" stroke-width="0.25" stroke="rgb(0,0,0)" />
	<line x1="348.389" y1="1752.18" x2="150.665" y2="1608.52" stroke-width="0.25" stroke="rgb(0,0,0)" />
	<line x1="150.665" y1="1609.67" x2="348.389" y2="1753.32" stroke-width="0.25" stroke="rgb(0,0,0)" />
	<line x1="348.389" y1="1754.47" x2="150.665" y2="1610.82" stroke-width="0.25" stroke="rgb(0,0,0)" />
	<line x1="150.665" y1="1611.96" x2="348.389" y2="1755.62" stroke-width="0.25" stroke="rgb(0,0,0)" />
	<line x1="348.389" y1="1756.77" x2="150.665" y2="1613.11" stroke-width="0.25" stroke="rgb(0,0,0)" />
	<line x1="150.665" y1="1614.26" x2="348.389" y2="1757.92" stroke-width="0.25" stroke="rgb(0,0,0)" />
	<line x1="348.389" y1="1759.06" x2="150.665" y2="1615.41" stroke-width="0.25" stroke="rgb(0,0,0)" />
	<line x1="150.665" y1="1616.56" x2="348.389" y2="1760.21" stroke-width="0.25" stroke="rgb(0,0,0)" />
	<line x1="348.389" y1="1761.36" x2="150.665" y2="1617.71" stroke-width="0.25" stroke="rgb(0,0,0)" />
	<line x1="150.665" y1="1618.85" x2="348.389" y2="1762.51" stroke-width="0.25" stroke="rgb(0,0,0)" />
	<line x1="348.389" y1="1763.66" x2="150.665" y2="1620" stroke-width="0.25" stroke="rgb(0,0,0)" />
	<line x1="150.665" y1="1621.15" x2="348.389" y2="1764.81" stroke-width="0.25" stroke="rgb(0,0,0)" />
	<line x1="348.389" y1="1765.95" x2="150.665" y2="1622.3" stroke-width="0.25" stroke="rgb(0,0,0)" />
	<line x1="150.665" y1="1623.45" x2="348.389" y2="1767.1" stroke-width="0.25" stroke="rgb(0,0,0)" />
	<line x1="348.389" y1="1768.25" x2="150.665" y2="1624.59" stroke-width="0.25" stroke="rgb(0,0,0)" />
	<line x1="150.665" y1="1625.74" x2="347.357" y2="1768.65" stroke-width="0.25" stroke="rgb(0,0,0)" />
	<line x1="345.777" y1="1768.65" x2="150.665" y2="1626.89" stroke-width="0.25" stroke="rgb(0,0,0)" />
	<line x1="150.665" y1="1628.04" x2="344.197" y2="1768.65" stroke-width="0.25" stroke="rgb(0,0,0)" />
	<line x1="342.616" y1="1768.65" x2="150.665" y2="1629.19" stroke-width="0.25" stroke="rgb(0,0,0)" />
	<line x1="150.665" y1="1630.34" x2="341.036" y2="1768.65" stroke-width="0.25" stroke="rgb(0,0,0)" />
	<line x1="339.455" y1="1768.65" x2="150.665" y2="1631.48" stroke-width="0.25" stroke="rgb(0,0,0)" />
	<line x1="150.665" y1="1632.63" x2="337.875" y2="1768.65" stroke-width="0.25" stroke="rgb(0,0,0)" />
	<line x1="336.295" y1="1768.65" x2="150.665" y2="1633.78" stroke-width="0.25" stroke="rgb(0,0,0)" />
	<line x1="150.665" y1="1634.93" x2="334.714" y2="1768.65" stroke-width="0.25" stroke="rgb(0,0,0)" />
	<line x1="333.134" y1="1768.65" x2="150.665" y2="1636.08" stroke-width="0.25" stroke="rgb(0,0,0)" />
	<line x1="150.665" y1="1637.22" x2="331.554" y2="1768.65" stroke-width="0.25" stroke="rgb(0,0,0)" />
	<line x1="329.973" y1="1768.65" x2="150.665" y2="1638.37" stroke-width="0.25" stroke="rgb(0,0,0)" />
	<line x1="150.665" y1="1639.52" x2="328.393" y2="1768.65" stroke-width="0.25" stroke="rgb(0,0,0)" />
	<line x1="326.813" y1="1768.65" x2="150.665" y2="1640.67" stroke-width="0.25" stroke="rgb(0,0,0)" />
	<line x1="150.665" y1="1641.82" x2="325.232" y2="1768.65" stroke-width="0.25" stroke="rgb(0,0,0)" />
	<line x1="323.652" y1="1768.65" x2="150.665" y2="1642.97" stroke-width="0.25" stroke="rgb(0,0,0)" />
	<line x1="150.665" y1="1644.11" x2="322.072" y2="1768.65" stroke-width="0.25" stroke="rgb(0,0,0)" />
	<line x1="320.491" y1="1768.65" x2="150.665" y2="1645.26" stroke-width="0.25" stroke="rgb(0,0,0)" />
	<line x1="150.665" y1="1646.41" x2="318.911" y2="1768.65" stroke-width="0.25" stroke="rgb(0,0,0)" />
	<line x1="317.331" y1="1768.65" x2="150.665" y2="1647.56" stroke-width="0.25" stroke="rgb(0,0,0)" />
	<line x1="150.665" y1="1648.71" x2="315.75" y2="1768.65" stroke-width="0.25" stroke="rgb(0,0,0)" />
	<line x1="314.17" y1="1768.65" x2="150.665" y2="1649.85" stroke-width="0.25" stroke="rgb(0,0,0)" />
	<line x1="150.665" y1="1651" x2="312.59" y2="1768.65" stroke-width="0.25" stroke="rgb(0,0,0)" />
	<line x1="311.009" y1="1768.65" x2="150.665" y2="1652.15" stroke-width="0.25" stroke="rgb(0,0,0)" />
	<line x1="150.665" y1="1653.3" x2="309.429" y2="1768.65" stroke-width="0.25" stroke="rgb(0,0,0)" />
	<line x1="307.848" y1="1768.65" x2="150.665" y2="1654.45" stroke-width="0.25" stroke="rgb(0,0,0)" />
	<line x1="150.665" y1="1655.6" x2="306.268" y2="1768.65" stroke-width="0.25" stroke="rgb(0,0,0)" />
	<line x1="304.688" y1="1768.65" x2="150.665" y2="1656.74" stroke-width="0.25" stroke="rgb(0,0,0)" />
	<line x1="150.665" y1="1657.89" x2="303.107" y2="1768.65" stroke-width="0.25" stroke="rgb(0,0,0)" />
	<line x1="301.527" y1="1768.65" x2="150.665" y2="1659.04" stroke-width="0.25" stroke="rgb(0,0,0)" />
	<line x1="150.665" y1="1660.19" x2="299.947" y2="1768.65" stroke-width="0.25" stroke="rgb(0,0,0)" />
	<line x1="298.366" y1="1768.65" x2="150.665" y2="1661.34" stroke-width="0.25" stroke="rgb(0,0,0)" />
	<line x1="150.665" y1="1662.49" x2="296.786" y2="1768.65" stroke-width="0.25" stroke="rgb(0,0,0)" />
	<line x1="295.206" y1="1768.65" x2="150.665" y2="1663.63" stroke-width="0.25" stroke="rgb(0,0,0)" />
	<line x1="150.665" y1="1664.78" x2="293.625" y2="1768.65" stroke-width="0.25" stroke="rgb(0,0,0)" />
	<line x1="292.045" y1="1768.65" x2="150.665" y2="1665.93" stroke-width="0.25" stroke="rgb(0,0,0)" />
	<line x1="150.665" y1="1667.08" x2="290.465" y2="1768.65" stroke-width="0.25" stroke="rgb(0,0,0)" />
	<line x1="288.884" y1="1768.65" x2="150.665" y2="1668.23" stroke-width="0.25" stroke="rgb(0,0,0)" />
	<line x1="150.665" y1="1669.37" x2="287.304" y2="1768.65" stroke-width="0.25" stroke="rgb(0,0,0)" />
	<line x1="285.724" y1="1768.65" x2="150.665" y2="1670.52" stroke-width="0.25" stroke="rgb(0,0,0)" />
	<line x1="150.665" y1="1671.67" x2="284.143" y2="1768.65" stroke-width="0.25" stroke="rgb(0,0,0)" />
	<line x1="282.563" y1="1768.65" x2="150.665" y2="1672.82" stroke-width="0.25" stroke="rgb(0,0,0)" />
	<line x1="150.665" y1="1673.97" x2="280.983" y2="1768.65" stroke-width="0.25" stroke="rgb(0,0,0)" />
	<line x1="279.402" y1="1768.65" x2="150.665" y2="1675.12" stroke-width="0.25" stroke="rgb(0,0,0)" />
	<line x1="150.665" y1="1676.26" x2="277.822" y2="1768.65" stroke-width="0.25" stroke="rgb(0,0,0)" />
	<line x1="276.241" y1="1768.65" x2="150.665" y2="1677.41" stroke-width="0.25" stroke="rgb(0,0,0)" />
	<line x1="150.665" y1="1678.56" x2="274.661" y2="1768.65" stroke-width="0.25" stroke="rgb(0,0,0)" />
	<line x1="273.081" y1="1768.65" x2="150.665" y2="1679.71" stroke-width="0.25" stroke="rgb(0,0,0)" />
	<line x1="150.665" y1="1680.86" x2="271.5" y2="1768.65" stroke-width="0.25" stroke="rgb(0,0,0)" />
	<line x1="269.92" y1="1768.65" x2="150.665" y2="1682" stroke-width="0.25" stroke="rgb(0,0,0)" />
	<line x1="150.665" y1="1683.15" x2="268.34" y2="1768.65" stroke-width="0.25" stroke="rgb(0,0,0)" />
	<line x1="266.759" y1="1768.65" x2="150.665" y2="1684.3" stroke-width="0.25" stroke="rgb(0,0,0)" />
	<line x1="150.665" y1="1685.45" x2="265.179" y2="1768.65" stroke-width="0.25" stroke="rgb(0,0,0)" />
	<line x1="263.599" y1="1768.65" x2="150.665" y2="1686.6" stroke-width="0.25" stroke="rgb(0,0,0)" />
	<line x1="150.665" y1="1687.75" x2="262.018" y2="1768.65" stroke-width="0.25" stroke="rgb(0,0,0)" />
	<line x1="260.438" y1="1768.65" x2="150.665" y2="1688.89" stroke-width="0.25" stroke="rgb(0,0,0)" />
	<line x1="150.665" y1="1690.04" x2="258.858" y2="1768.65" stroke-width="0.25" stroke="rgb(0,0,0)" />
	<line x1="257.277" y1="1768.65" x2="150.665" y2="1691.19" stroke-width="0.25" stroke="rgb(0,0,0)" />
	<line x1="150.665" y1="1692.34" x2="255.697" y2="1768.65" stroke-width="0.25" stroke="rgb(0,0,0)" />
	<line x1="254.117" y1="1768.65" x2="150.665" y2="1693.49" stroke-width="0.25" stroke="rgb(0,0,0)" />
	<line x1="150.665" y1="1694.63" x2="252.536" y2="1768.65" stroke-width="0.25" stroke="rgb(0,0,0)" />
	<line x1="250.956" y1="1768.65" x2="150.665" y2="1695.78" stroke-width="0.25" stroke="rgb(0,0,0)" />
	<line x1="150.665" y1="1696.93" x2="249.375" y2="1768.65" stroke-width="0.25" stroke="rgb(0,0,0)" />
	<line x1="247.795" y1="1768.65" x2="150.665" y2="1698.08" stroke-width="0.25" stroke="rgb(0,0,0)" />
	<line x1="150.665" y1="1699.23" x2="246.215" y2="1768.65" stroke-width="0.25" stroke="rgb(0,0,0)" />
	<line x1="244.634" y1="1768.65" x2="150.665" y2="1700.38" stroke-width="0.25" stroke="rgb(0,0,0)" />
	<line x1="150.665" y1="1701.52" x2="243.054" y2="1768.65" stroke-width="0.25" stroke="rgb(0,0,0)" />
	<line x1="241.474" y1="1768.65" x2="150.665" y2="1702.67" stroke-width="0.25" stroke="rgb(0,0,0)" />
	<line x1="150.665" y1="1703.82" x2="239.893" y2="1768.65" stroke-width="0.25" stroke="rgb(0,0,0)" />
	<line x1="238.313" y1="1768.65" x2="150.665" y2="1704.97" stroke-width="0.25" stroke="rgb(0,0,0)" />
	<line x1="150.665" y1="1706.12" x2="236.733" y2="1768.65" stroke-width="0.25" stroke="rgb(0,0,0)" />
	<line x1="235.152" y1="1768.65" x2="150.665" y2="1707.26" stroke-width="0.25" stroke="rgb(0,0,0)" />
	<line x1="150.665" y1="1708.41" x2="233.572" y2="1768.65" stroke-width="0.25" stroke="rgb(0,0,0)" />
	<line x1="231.992" y1="1768.65" x2="150.665" y2="1709.56" stroke-width="0.25" stroke="rgb(0,0,0)" />
	<line x1="150.665" y1="1710.71" x2="230.411" y2="1768.65" stroke-width="0.25" stroke="rgb(0,0,0)" />
	<line x1="228.831" y1="1768.65" x2="150.665" y2="1711.86" stroke-width="0.25" stroke="rgb(0,0,0)" />
	<line x1="150.665" y1="1713.01" x2="227.251" y2="1768.65" stroke-width="0.25" stroke="rgb(0,0,0)" />
	<line x1="225.67" y1="1768.65" x2="150.665" y2="1714.15" stroke-width="0.25" stroke="rgb(0,0,0)" />
	<line x1="150.665" y1="1715.3" x2="224.09" y2="1768.65" stroke-width="0.25" stroke="rgb(0,0,0)" />
	<line x1="222.51" y1="1768.65" x2="150.665" y2="1716.45" stroke-width="0.25" stroke="rgb(0,0,0)" />
	<line x1="150.665" y1="1717.6" x2="220.929" y2="1768.65" stroke-width="0.25" stroke="rgb(0,0,0)" />
	<line x1="219.349" y1="1768.65" x2="150.665" y2="1718.75" stroke-width="0.25" stroke="rgb(0,0,0)" />
	<line x1="150.665" y1="1719.89" x2="217.768" y2="1768.65" stroke-width="0.25" stroke="rgb(0,0,0)" />
	<line x1="216.188" y1="1768.65" x2="150.665" y2="1721.04" stroke-width="0.25" stroke="rgb(0,0,0)" />
	<line x1="150.665" y1="1722.19" x2="214.608" y2="1768.65" stroke-width="0.25" stroke="rgb(0,0,0)" />
	<line x1="213.027" y1="1768.65" x2="150.665" y2="1723.34" stroke-width="0.25" stroke="rgb(0,0,0)" />
	<line x1="150.665" y1="1724.49" x2="211.447" y2="1768.65" stroke-width="0.25" stroke="rgb(0,0,0)" />
	<line x1="209.867" y1="1768.65" x2="150.665" y2="1725.64" stroke-width="0.25" stroke="rgb(0,0,0)" />
	<line x1="150.665" y1="1726.78" x2="208.286" y2="1768.65" stroke-width="0.25" stroke="rgb(0,0,0)" />
	<line x1="206.706" y1="1768.65" x2="150.665" y2="1727.93" stroke-width="0.25" stroke="rgb(0,0,0)" />
	<line x1="150.665" y1="1729.08" x2="205.126" y2="1768.65" stroke-width="0.25" stroke="rgb(0,0,0)" />
	<line x1="203.545" y1="1768.65" x2="150.665" y2="1730.23" stroke-width="0.25" stroke="rgb(0,0,0)" />
	<line x1="150.665" y1="1731.38" x2="201.965" y2="1768.65" stroke-width="0.25" stroke="rgb(0,0,0)" />
	<line x1="200.385" y1="1768.65" x2="150.665" y2="1732.52" stroke-width="0.25" stroke="rgb(0,0,0)" />
	<line x1="150.665" y1="1733.67" x2="198.804" y2="1768.65" stroke-width="0.25" stroke="rgb(0,0,0)" />
	<line x1="197.224" y1="1768.65" x2="150.665" y2="1734.82" stroke-width="0.25" stroke="rgb(0,0,0)" />
	<line x1="150.665" y1="1735.97" x2="195.644" y2="1768.65" stroke-width="0.25" stroke="rgb(0,0,0)" />
	<line x1="194.063" y1="1768.65" x2="150.665" y2="1737.12" stroke-width="0.25" stroke="rgb(0,0,0)" />
	<line x1="150.665" y1="1738.27" x2="192.483" y2="1768.65" stroke-width="0.25" stroke="rgb(0,0,0)" />
	<line x1="190.903" y1="1768.65" x2="150.665" y2="1739.41" stroke-width="0.25" stroke="rgb(0,0,0)" />
	<line x1="150.665" y1="1740.56" x2="189.322" y2="1768.65" stroke-width="0.25" stroke="rgb(0,0,0)" />
	<line x1="187.742" y1="1768.65" x2="150.665" y2="1741.71" stroke-width="0.25" stroke="rgb(0,0,0)" />
	<line x1="150.665" y1="1742.86" x2="186.161" y2="1768.65" stroke-width="0.25" stroke="rgb(0,0,0)" />
	<line x1="184.581" y1="1768.65" x2="150.665" y2="1744.01" stroke-width="0.25" stroke="rgb(0,0,0)" />
	<line x1="150.665" y1="1745.15" x2="183.001" y2="1768.65" stroke-width="0.25" stroke="rgb(0,0,0)" />
	<line x1="181.42" y1="1768.65" x2="150.665" y2="1746.3" stroke-width="0.25" stroke="rgb(0,0,0)" />
	<line x1="150.665" y1="1747.45" x2="179.84" y2="1768.65" stroke-width="0.25" stroke="rgb(0,0,0)" />
	<line x1="178.26" y1="1768.65" x2="150.665" y2="1748.6" stroke-width="0.25" stroke="rgb(0,0,0)" />
	<line x1="150.665" y1="1749.75" x2="176.679" y2="1768.65" stroke-width="0.25" stroke="rgb(0,0,0)" />
	<line x1="175.099" y1="1768.65" x2="150.665" y2="1750.9" stroke-width="0.25" stroke="rgb(0,0,0)" />
	<line x1="150.665" y1="1752.04" x2="173.519" y2="1768.65" stroke-width="0.25" stroke="rgb(0,0,0)" />
	<line x1="171.938" y1="1768.65" x2="150.665" y2="1753.19" stroke-width="0.25" stroke="rgb(0,0,0)" />
	<line x1="150.665" y1="1754.34" x2="170.358" y2="1768.65" stroke-width="0.25" stroke="rgb(0,0,0)" />
	<line x1="168.778" y1="1768.65" x2="150.665" y2="1755.49" stroke-width="0.25" stroke="rgb(0,0,0)" />
	<line x1="150.665" y1="1756.64" x2="167.197" y2="1768.65" stroke-width="0.25" stroke="rgb(0,0,0)" />
	<line x1="165.617" y1="1768.65" x2="150.665" y2="1757.78" stroke-width="0.25" stroke="rgb(0,0,0)" />
	<line x1="150.665" y1="1758.93" x2="164.037" y2="1768.65" stroke-width="0.25" stroke="rgb(0,0,0)" />
	<line x1="162.456" y1="1768.65" x2="150.665" y2="1760.08" stroke-width="0.25" stroke="rgb(0,0,0)" />
	<line x1="150.665" y1="1761.23" x2="160.876" y2="1768.65" stroke-width="0.25" stroke="rgb(0,0,0)" />
	<line x1="159.295" y1="1768.65" x2="150.665" y2="1762.38" stroke-width="0.25" stroke="rgb(0,0,0)" />
	<line x1="150.665" y1="1763.53" x2="157.715" y2="1768.65" stroke-width="0.25" stroke="rgb(0,0,0)" />
	<line x1="156.135" y1="1768.65" x2="150.665" y2="1764.67" stroke-width="0.25" stroke="rgb(0,0,0)" />
	<line x1="150.665" y1="1765.82" x2="154.554" y2="1768.65" stroke-width="0.25" stroke="rgb(0,0,0)" />
	<line x1="152.974" y1="1768.65" x2="150.665" y2="1766.97" stroke-width="0.25" stroke="rgb(0,0,0)" />
	<line x1="150.665" y1="1768.12" x2="151.394" y2="1768.65" stroke-width="0.25" stroke="rgb(0,0,0)" />
	<line x1="263.765" y1="859.237" x2="263.87" y2="859.313" stroke-width="0.25" stroke="rgb(0,0,0)" />
	<line x1="263.87" y1="860.789" x2="261.734" y2="859.237" stroke-width="0.25" stroke="rgb(0,0,0)" />
	<line x1="259.702" y1="859.237" x2="263.87" y2="862.266" stroke-width="0.25" stroke="rgb(0,0,0)" />
	<line x1="263.87" y1="863.742" x2="257.67" y2="859.237" stroke-width="0.25" stroke="rgb(0,0,0)" />
	<line x1="255.638" y1="859.237" x2="263.87" y2="865.218" stroke-width="0.25" stroke="rgb(0,0,0)" />
	<line x1="263.87" y1="866.694" x2="253.606" y2="859.237" stroke-width="0.25" stroke="rgb(0,0,0)" />
	<line x1="251.574" y1="859.237" x2="263.87" y2="868.171" stroke-width="0.25" stroke="rgb(0,0,0)" />
	<line x1="263.87" y1="869.647" x2="249.542" y2="859.237" stroke-width="0.25" stroke="rgb(0,0,0)" />
	<line x1="247.51" y1="859.237" x2="263.87" y2="871.123" stroke-width="0.25" stroke="rgb(0,0,0)" />
	<line x1="263.87" y1="872.599" x2="245.478" y2="859.237" stroke-width="0.25" stroke="rgb(0,0,0)" />
	<line x1="243.447" y1="859.237" x2="263.87" y2="874.076" stroke-width="0.25" stroke="rgb(0,0,0)" />
	<line x1="263.87" y1="875.552" x2="241.415" y2="859.237" stroke-width="0.25" stroke="rgb(0,0,0)" />
	<line x1="239.383" y1="859.237" x2="263.87" y2="877.028" stroke-width="0.25" stroke="rgb(0,0,0)" />
	<line x1="263.87" y1="878.504" x2="237.351" y2="859.237" stroke-width="0.25" stroke="rgb(0,0,0)" />
	<line x1="235.319" y1="859.237" x2="263.87" y2="879.981" stroke-width="0.25" stroke="rgb(0,0,0)" />
	<line x1="263.87" y1="881.457" x2="233.287" y2="859.237" stroke-width="0.25" stroke="rgb(0,0,0)" />
	<line x1="231.255" y1="859.237" x2="263.87" y2="882.933" stroke-width="0.25" stroke="rgb(0,0,0)" />
	<line x1="263.87" y1="884.409" x2="229.223" y2="859.237" stroke-width="0.25" stroke="rgb(0,0,0)" />
	<line x1="227.192" y1="859.237" x2="263.87" y2="885.886" stroke-width="0.25" stroke="rgb(0,0,0)" />
	<line x1="263.87" y1="887.362" x2="225.16" y2="859.237" stroke-width="0.25" stroke="rgb(0,0,0)" />
	<line x1="223.128" y1="859.237" x2="263.87" y2="888.838" stroke-width="0.25" stroke="rgb(0,0,0)" />
	<line x1="263.87" y1="890.314" x2="221.096" y2="859.237" stroke-width="0.25" stroke="rgb(0,0,0)" />
	<line x1="219.064" y1="859.237" x2="263.87" y2="891.791" stroke-width="0.25" stroke="rgb(0,0,0)" />
	<line x1="263.87" y1="893.267" x2="217.032" y2="859.237" stroke-width="0.25" stroke="rgb(0,0,0)" />
	<line x1="215" y1="859.237" x2="263.87" y2="894.743" stroke-width="0.25" stroke="rgb(0,0,0)" />
	<line x1="263.87" y1="896.219" x2="212.968" y2="859.237" stroke-width="0.25" stroke="rgb(0,0,0)" />
	<line x1="210.937" y1="859.237" x2="263.87" y2="897.696" stroke-width="0.25" stroke="rgb(0,0,0)" />
	<line x1="263.87" y1="899.172" x2="208.905" y2="859.237" stroke-width="0.25" stroke="rgb(0,0,0)" />
	<line x1="206.873" y1="859.237" x2="263.87" y2="900.648" stroke-width="0.25" stroke="rgb(0,0,0)" />
	<line x1="263.87" y1="902.124" x2="204.841" y2="859.237" stroke-width="0.25" stroke="rgb(0,0,0)" />
	<line x1="202.809" y1="859.237" x2="263.87" y2="903.601" stroke-width="0.25" stroke="rgb(0,0,0)" />
	<line x1="263.87" y1="905.077" x2="200.777" y2="859.237" stroke-width="0.25" stroke="rgb(0,0,0)" />
	<line x1="198.745" y1="859.237" x2="263.87" y2="906.553" stroke-width="0.25" stroke="rgb(0,0,0)" />
	<line x1="263.87" y1="908.029" x2="196.713" y2="859.237" stroke-width="0.25" stroke="rgb(0,0,0)" />
	<line x1="194.681" y1="859.237" x2="263.87" y2="909.506" stroke-width="0.25" stroke="rgb(0,0,0)" />
	<line x1="263.87" y1="910.982" x2="192.65" y2="859.237" stroke-width="0.25" stroke="rgb(0,0,0)" />
	<line x1="190.618" y1="859.237" x2="263.87" y2="912.458" stroke-width="0.25" stroke="rgb(0,0,0)" />
	<line x1="263.87" y1="913.934" x2="188.586" y2="859.237" stroke-width="0.25" stroke="rgb(0,0,0)" />
	<line x1="186.554" y1="859.237" x2="263.87" y2="915.41" stroke-width="0.25" stroke="rgb(0,0,0)" />
	<line x1="263.87" y1="916.887" x2="184.522" y2="859.237" stroke-width="0.25" stroke="rgb(0,0,0)" />
	<line x1="182.49" y1="859.237" x2="263.87" y2="918.363" stroke-width="0.25" stroke="rgb(0,0,0)" />
	<line x1="263.87" y1="919.839" x2="180.458" y2="859.237" stroke-width="0.25" stroke="rgb(0,0,0)" />
	<line x1="178.426" y1="859.237" x2="263.87" y2="921.315" stroke-width="0.25" stroke="rgb(0,0,0)" />
	<line x1="263.87" y1="922.792" x2="176.395" y2="859.237" stroke-width="0.25" stroke="rgb(0,0,0)" />
	<line x1="174.363" y1="859.237" x2="263.87" y2="924.268" stroke-width="0.25" stroke="rgb(0,0,0)" />
	<line x1="263.87" y1="925.744" x2="172.331" y2="859.237" stroke-width="0.25" stroke="rgb(0,0,0)" />
	<line x1="170.299" y1="859.237" x2="263.87" y2="927.22" stroke-width="0.25" stroke="rgb(0,0,0)" />
	<line x1="263.87" y1="928.697" x2="168.267" y2="859.237" stroke-width="0.25" stroke="rgb(0,0,0)" />
	<line x1="166.235" y1="859.237" x2="263.87" y2="930.173" stroke-width="0.25" stroke="rgb(0,0,0)" />
	<line x1="263.87" y1="931.649" x2="164.203" y2="859.237" stroke-width="0.25" stroke="rgb(0,0,0)" />
	<line x1="162.171" y1="859.237" x2="263.87" y2="933.125" stroke-width="0.25" stroke="rgb(0,0,0)" />
	<line x1="263.87" y1="934.602" x2="160.14" y2="859.237" stroke-width="0.25" stroke="rgb(0,0,0)" />
	<line x1="158.108" y1="859.237" x2="263.87" y2="936.078" stroke-width="0.25" stroke="rgb(0,0,0)" />
	<line x1="263.87" y1="937.554" x2="156.076" y2="859.237" stroke-width="0.25" stroke="rgb(0,0,0)" />
	<line x1="154.044" y1="859.237" x2="263.87" y2="939.03" stroke-width="0.25" stroke="rgb(0,0,0)" />
	<line x1="263.87" y1="940.507" x2="152.522" y2="859.608" stroke-width="0.25" stroke="rgb(0,0,0)" />
	<line x1="152.522" y1="861.084" x2="263.87" y2="941.983" stroke-width="0.25" stroke="rgb(0,0,0)" />
	<line x1="263.87" y1="943.459" x2="152.522" y2="862.561" stroke-width="0.25" stroke="rgb(0,0,0)" />
	<line x1="152.522" y1="864.037" x2="263.87" y2="944.935" stroke-width="0.25" stroke="rgb(0,0,0)" />
	<line x1="263.87" y1="946.412" x2="152.522" y2="865.513" stroke-width="0.25" stroke="rgb(0,0,0)" />
	<line x1="152.522" y1="866.989" x2="263.87" y2="947.888" stroke-width="0.25" stroke="rgb(0,0,0)" />
	<line x1="263.87" y1="949.364" x2="152.522" y2="868.466" stroke-width="0.25" stroke="rgb(0,0,0)" />
	<line x1="152.522" y1="869.942" x2="263.87" y2="950.84" stroke-width="0.25" stroke="rgb(0,0,0)" />
	<line x1="263.87" y1="952.317" x2="152.522" y2="871.418" stroke-width="0.25" stroke="rgb(0,0,0)" />
	<line x1="152.522" y1="872.894" x2="263.87" y2="953.793" stroke-width="0.25" stroke="rgb(0,0,0)" />
	<line x1="263.87" y1="955.269" x2="152.522" y2="874.371" stroke-width="0.25" stroke="rgb(0,0,0)" />
	<line x1="152.522" y1="875.847" x2="263.87" y2="956.745" stroke-width="0.25" stroke="rgb(0,0,0)" />
	<line x1="263.87" y1="958.222" x2="152.522" y2="877.323" stroke-width="0.25" stroke="rgb(0,0,0)" />
	<line x1="152.522" y1="878.799" x2="263.87" y2="959.698" stroke-width="0.25" stroke="rgb(0,0,0)" />
	<line x1="263.87" y1="961.174" x2="152.522" y2="880.276" stroke-width="0.25" stroke="rgb(0,0,0)" />
	<line x1="152.522" y1="881.752" x2="263.87" y2="962.65" stroke-width="0.25" stroke="rgb(0,0,0)" />
	<line x1="263.87" y1="964.127" x2="152.522" y2="883.228" stroke-width="0.25" stroke="rgb(0,0,0)" />
	<line x1="152.522" y1="884.704" x2="263.87" y2="965.603" stroke-width="0.25" stroke="rgb(0,0,0)" />
	<line x1="263.87" y1="967.079" x2="152.522" y2="886.181" stroke-width="0.25" stroke="rgb(0,0,0)" />
	<line x1="152.522" y1="887.657" x2="263.87" y2="968.555" stroke-width="0.25" stroke="rgb(0,0,0)" />
	<line x1="263.87" y1="970.032" x2="152.522" y2="889.133" stroke-width="0.25" stroke="rgb(0,0,0)" />
	<line x1="152.522" y1="890.609" x2="262.599" y2="970.585" stroke-width="0.25" stroke="rgb(0,0,0)" />
	<line x1="260.567" y1="970.585" x2="152.522" y2="892.086" stroke-width="0.25" stroke="rgb(0,0,0)" />
	<line x1="152.522" y1="893.562" x2="258.535" y2="970.585" stroke-width="0.25" stroke="rgb(0,0,0)" />
	<line x1="256.503" y1="970.585" x2="152.522" y2="895.038" stroke-width="0.25" stroke="rgb(0,0,0)" />
	<line x1="152.522" y1="896.514" x2="254.471" y2="970.585" stroke-width="0.25" stroke="rgb(0,0,0)" />
	<line x1="252.44" y1="970.585" x2="152.522" y2="897.991" stroke-width="0.25" stroke="rgb(0,0,0)" />
	<line x1="152.522" y1="899.467" x2="250.408" y2="970.585" stroke-width="0.25" stroke="rgb(0,0,0)" />
	<line x1="248.376" y1="970.585" x2="152.522" y2="900.943" stroke-width="0.25" stroke="rgb(0,0,0)" />
	<line x1="152.522" y1="902.419" x2="246.344" y2="970.585" stroke-width="0.25" stroke="rgb(0,0,0)" />
	<line x1="244.312" y1="970.585" x2="152.522" y2="903.896" stroke-width="0.25" stroke="rgb(0,0,0)" />
	<line x1="152.522" y1="905.372" x2="242.28" y2="970.585" stroke-width="0.25" stroke="rgb(0,0,0)" />
	<line x1="240.248" y1="970.585" x2="152.522" y2="906.848" stroke-width="0.25" stroke="rgb(0,0,0)" />
	<line x1="152.522" y1="908.324" x2="238.216" y2="970.585" stroke-width="0.25" stroke="rgb(0,0,0)" />
	<line x1="236.184" y1="970.585" x2="152.522" y2="909.801" stroke-width="0.25" stroke="rgb(0,0,0)" />
	<line x1="152.522" y1="911.277" x2="234.153" y2="970.585" stroke-width="0.25" stroke="rgb(0,0,0)" />
	<line x1="232.121" y1="970.585" x2="152.522" y2="912.753" stroke-width="0.25" stroke="rgb(0,0,0)" />
	<line x1="152.522" y1="914.229" x2="230.089" y2="970.585" stroke-width="0.25" stroke="rgb(0,0,0)" />
	<line x1="228.057" y1="970.585" x2="152.522" y2="915.706" stroke-width="0.25" stroke="rgb(0,0,0)" />
	<line x1="152.522" y1="917.182" x2="226.025" y2="970.585" stroke-width="0.25" stroke="rgb(0,0,0)" />
	<line x1="223.993" y1="970.585" x2="152.522" y2="918.658" stroke-width="0.25" stroke="rgb(0,0,0)" />
	<line x1="152.522" y1="920.134" x2="221.961" y2="970.585" stroke-width="0.25" stroke="rgb(0,0,0)" />
	<line x1="219.929" y1="970.585" x2="152.522" y2="921.611" stroke-width="0.25" stroke="rgb(0,0,0)" />
	<line x1="152.522" y1="923.087" x2="217.898" y2="970.585" stroke-width="0.25" stroke="rgb(0,0,0)" />
	<line x1="215.866" y1="970.585" x2="152.522" y2="924.563" stroke-width="0.25" stroke="rgb(0,0,0)" />
	<line x1="152.522" y1="926.039" x2="213.834" y2="970.585" stroke-width="0.25" stroke="rgb(0,0,0)" />
	<line x1="211.802" y1="970.585" x2="152.522" y2="927.516" stroke-width="0.25" stroke="rgb(0,0,0)" />
	<line x1="152.522" y1="928.992" x2="209.77" y2="970.585" stroke-width="0.25" stroke="rgb(0,0,0)" />
	<line x1="207.738" y1="970.585" x2="152.522" y2="930.468" stroke-width="0.25" stroke="rgb(0,0,0)" />
	<line x1="152.522" y1="931.944" x2="205.706" y2="970.585" stroke-width="0.25" stroke="rgb(0,0,0)" />
	<line x1="203.674" y1="970.585" x2="152.522" y2="933.421" stroke-width="0.25" stroke="rgb(0,0,0)" />
	<line x1="152.522" y1="934.897" x2="201.643" y2="970.585" stroke-width="0.25" stroke="rgb(0,0,0)" />
	<line x1="199.611" y1="970.585" x2="152.522" y2="936.373" stroke-width="0.25" stroke="rgb(0,0,0)" />
	<line x1="152.522" y1="937.849" x2="197.579" y2="970.585" stroke-width="0.25" stroke="rgb(0,0,0)" />
	<line x1="195.547" y1="970.585" x2="152.522" y2="939.326" stroke-width="0.25" stroke="rgb(0,0,0)" />
	<line x1="152.522" y1="940.802" x2="193.515" y2="970.585" stroke-width="0.25" stroke="rgb(0,0,0)" />
	<line x1="191.483" y1="970.585" x2="152.522" y2="942.278" stroke-width="0.25" stroke="rgb(0,0,0)" />
	<line x1="152.522" y1="943.754" x2="189.451" y2="970.585" stroke-width="0.25" stroke="rgb(0,0,0)" />
	<line x1="187.419" y1="970.585" x2="152.522" y2="945.23" stroke-width="0.25" stroke="rgb(0,0,0)" />
	<line x1="152.522" y1="946.707" x2="185.387" y2="970.585" stroke-width="0.25" stroke="rgb(0,0,0)" />
	<line x1="183.356" y1="970.585" x2="152.522" y2="948.183" stroke-width="0.25" stroke="rgb(0,0,0)" />
	<line x1="152.522" y1="949.659" x2="181.324" y2="970.585" stroke-width="0.25" stroke="rgb(0,0,0)" />
	<line x1="179.292" y1="970.585" x2="152.522" y2="951.135" stroke-width="0.25" stroke="rgb(0,0,0)" />
	<line x1="152.522" y1="952.612" x2="177.26" y2="970.585" stroke-width="0.25" stroke="rgb(0,0,0)" />
	<line x1="175.228" y1="970.585" x2="152.522" y2="954.088" stroke-width="0.25" stroke="rgb(0,0,0)" />
	<line x1="152.522" y1="955.564" x2="173.196" y2="970.585" stroke-width="0.25" stroke="rgb(0,0,0)" />
	<line x1="171.164" y1="970.585" x2="152.522" y2="957.04" stroke-width="0.25" stroke="rgb(0,0,0)" />
	<line x1="152.522" y1="958.517" x2="169.132" y2="970.585" stroke-width="0.25" stroke="rgb(0,0,0)" />
	<line x1="167.101" y1="970.585" x2="152.522" y2="959.993" stroke-width="0.25" stroke="rgb(0,0,0)" />
	<line x1="152.522" y1="961.469" x2="165.069" y2="970.585" stroke-width="0.25" stroke="rgb(0,0,0)" />
	<line x1="163.037" y1="970.585" x2="152.522" y2="962.945" stroke-width="0.25" stroke="rgb(0,0,0)" />
	<line x1="152.522" y1="964.422" x2="161.005" y2="970.585" stroke-width="0.25" stroke="rgb(0,0,0)" />
	<line x1="158.973" y1="970.585" x2="152.522" y2="965.898" stroke-width="0.25" stroke="rgb(0,0,0)" />
	<line x1="152.522" y1="967.374" x2="156.941" y2="970.585" stroke-width="0.25" stroke="rgb(0,0,0)" />
	<line x1="154.909" y1="970.585" x2="152.522" y2="968.85" stroke-width="0.25" stroke="rgb(0,0,0)" />
	<line x1="152.522" y1="970.327" x2="152.877" y2="970.585" stroke-width="0.25" stroke="rgb(0,0,0)" />
</svg>
