<?xml version="1.0" standalone="no" ?>
<!DOCTYPE svg PUBLIC "-//W3C//DTD SVG 1.1//EN" "http://www.w3.org/Graphics/SVG/1.1/DTD/svg11.dtd">
<svg width="2000px" height="2000px" xmlns="http://www.w3.org/2000/svg" version="1.1" >
	<line x1="348.389" y1="1640.37" x2="278.944" y2="1570.92" stroke-width="0.25" stroke="rgb(0,0,0)" />
	<line x1="278.944" y1="1570.92" x2="150.665" y2="1570.92" stroke-width="0.25" stroke="rgb(0,0,0)" />
	<line x1="150.665" y1="1570.92" x2="150.665" y2="1768.65" stroke-width="0.25" stroke="rgb(0,0,0)" />
	<line x1="150.665" y1="1768.65" x2="348.389" y2="1768.65" stroke-width="0.25" stroke="rgb(0,0,0)" />
	<line x1="348.389" y1="1768.65" x2="348.389" y2="1640.37" stroke-width="0.25" stroke="rgb(0,0,0)" />
	<line x1="331.879" y1="791.228" x2="150.864" y2="791.228" stroke-width="0.25" stroke="rgb(0,0,0)" />
	<line x1="150.864" y1="791.228" x2="150.864" y2="972.243" stroke-width="0.25" stroke="rgb(0,0,0)" />
	<line x1="150.864" y1="972.243" x2="331.879" y2="972.243" stroke-width="0.25" stroke="rgb(0,0,0)" />
	<line x1="331.879" y1="972.243" x2="331.879" y2="791.228" stroke-width="0.25" stroke="rgb(0,0,0)" />
	<line x1="331.016" y1="792.091" x2="151.726" y2="792.091" stroke-width="0.25" stroke="rgb(0,0,0)" />
	<line x1="151.726" y1="792.091" x2="151.726" y2="971.381" stroke-width="0.25" stroke="rgb(0,0,0)" />
	<line x1="151.726" y1="971.381" x2="331.016" y2="971.381" stroke-width="0.25" stroke="rgb(0,0,0)" />
	<line x1="331.016" y1="971.381" x2="331.016" y2="792.091" stroke-width="0.25" stroke="rgb(0,0,0)" />
	<line x1="278.717" y1="1570.92" x2="279.546" y2="1571.53" stroke-width="0.25" stroke="rgb(0,0,0)" />
	<line x1="283.744" y1="1575.72" x2="277.137" y2="1570.92" stroke-width="0.25" stroke="rgb(0,0,0)" />
	<line x1="275.556" y1="1570.92" x2="287.943" y2="1579.92" stroke-width="0.25" stroke="rgb(0,0,0)" />
	<line x1="292.142" y1="1584.12" x2="273.976" y2="1570.92" stroke-width="0.25" stroke="rgb(0,0,0)" />
	<line x1="272.396" y1="1570.92" x2="296.341" y2="1588.32" stroke-width="0.25" stroke="rgb(0,0,0)" />
	<line x1="300.539" y1="1592.52" x2="270.815" y2="1570.92" stroke-width="0.25" stroke="rgb(0,0,0)" />
	<line x1="269.235" y1="1570.92" x2="304.738" y2="1596.72" stroke-width="0.25" stroke="rgb(0,0,0)" />
	<line x1="308.937" y1="1600.92" x2="267.655" y2="1570.92" stroke-width="0.25" stroke="rgb(0,0,0)" />
	<line x1="266.074" y1="1570.92" x2="313.136" y2="1605.12" stroke-width="0.25" stroke="rgb(0,0,0)" />
	<line x1="317.335" y1="1609.32" x2="264.494" y2="1570.92" stroke-width="0.25" stroke="rgb(0,0,0)" />
	<line x1="262.914" y1="1570.92" x2="321.533" y2="1613.51" stroke-width="0.25" stroke="rgb(0,0,0)" />
	<line x1="325.732" y1="1617.71" x2="261.333" y2="1570.92" stroke-width="0.25" stroke="rgb(0,0,0)" />
	<line x1="259.753" y1="1570.92" x2="329.931" y2="1621.91" stroke-width="0.25" stroke="rgb(0,0,0)" />
	<line x1="334.13" y1="1626.11" x2="258.173" y2="1570.92" stroke-width="0.25" stroke="rgb(0,0,0)" />
	<line x1="256.592" y1="1570.92" x2="338.329" y2="1630.31" stroke-width="0.25" stroke="rgb(0,0,0)" />
	<line x1="342.527" y1="1634.51" x2="255.012" y2="1570.92" stroke-width="0.25" stroke="rgb(0,0,0)" />
	<line x1="253.431" y1="1570.92" x2="346.726" y2="1638.71" stroke-width="0.25" stroke="rgb(0,0,0)" />
	<line x1="348.389" y1="1641.06" x2="251.851" y2="1570.92" stroke-width="0.25" stroke="rgb(0,0,0)" />
	<line x1="250.271" y1="1570.92" x2="348.389" y2="1642.21" stroke-width="0.25" stroke="rgb(0,0,0)" />
	<line x1="348.389" y1="1643.36" x2="248.69" y2="1570.92" stroke-width="0.25" stroke="rgb(0,0,0)" />
	<line x1="247.11" y1="1570.92" x2="348.389" y2="1644.51" stroke-width="0.25" stroke="rgb(0,0,0)" />
	<line x1="348.389" y1="1645.66" x2="245.53" y2="1570.92" stroke-width="0.25" stroke="rgb(0,0,0)" />
	<line x1="243.949" y1="1570.92" x2="348.389" y2="1646.8" stroke-width="0.25" stroke="rgb(0,0,0)" />
	<line x1="348.389" y1="1647.95" x2="242.369" y2="1570.92" stroke-width="0.25" stroke="rgb(0,0,0)" />
	<line x1="240.789" y1="1570.92" x2="348.389" y2="1649.1" stroke-width="0.25" stroke="rgb(0,0,0)" />
	<line x1="348.389" y1="1650.25" x2="239.208" y2="1570.92" stroke-width="0.25" stroke="rgb(0,0,0)" />
	<line x1="237.628" y1="1570.92" x2="348.389" y2="1651.4" stroke-width="0.25" stroke="rgb(0,0,0)" />
	<line x1="348.389" y1="1652.54" x2="236.048" y2="1570.92" stroke-width="0.25" stroke="rgb(0,0,0)" />
	<line x1="234.467" y1="1570.92" x2="348.389" y2="1653.69" stroke-width="0.25" stroke="rgb(0,0,0)" />
	<line x1="348.389" y1="1654.84" x2="232.887" y2="1570.92" stroke-width="0.25" stroke="rgb(0,0,0)" />
	<line x1="231.307" y1="1570.92" x2="348.389" y2="1655.99" stroke-width="0.25" stroke="rgb(0,0,0)" />
	<line x1="348.389" y1="1657.14" x2="229.726" y2="1570.92" stroke-width="0.25" stroke="rgb(0,0,0)" />
	<line x1="228.146" y1="1570.92" x2="348.389" y2="1658.29" stroke-width="0.25" stroke="rgb(0,0,0)" />
	<line x1="348.389" y1="1659.43" x2="226.566" y2="1570.92" stroke-width="0.25" stroke="rgb(0,0,0)" />
	<line x1="224.985" y1="1570.92" x2="348.389" y2="1660.58" stroke-width="0.25" stroke="rgb(0,0,0)" />
	<line x1="348.389" y1="1661.73" x2="223.405" y2="1570.92" stroke-width="0.25" stroke="rgb(0,0,0)" />
	<line x1="221.824" y1="1570.92" x2="348.389" y2="1662.88" stroke-width="0.25" stroke="rgb(0,0,0)" />
	<line x1="348.389" y1="1664.03" x2="220.244" y2="1570.92" stroke-width="0.25" stroke="rgb(0,0,0)" />
	<line x1="218.664" y1="1570.92" x2="348.389" y2="1665.17" stroke-width="0.25" stroke="rgb(0,0,0)" />
	<line x1="348.389" y1="1666.32" x2="217.083" y2="1570.92" stroke-width="0.25" stroke="rgb(0,0,0)" />
	<line x1="215.503" y1="1570.92" x2="348.389" y2="1667.47" stroke-width="0.25" stroke="rgb(0,0,0)" />
	<line x1="348.389" y1="1668.62" x2="213.923" y2="1570.92" stroke-width="0.25" stroke="rgb(0,0,0)" />
	<line x1="212.342" y1="1570.92" x2="348.389" y2="1669.77" stroke-width="0.25" stroke="rgb(0,0,0)" />
	<line x1="348.389" y1="1670.92" x2="210.762" y2="1570.92" stroke-width="0.25" stroke="rgb(0,0,0)" />
	<line x1="209.182" y1="1570.92" x2="348.389" y2="1672.06" stroke-width="0.25" stroke="rgb(0,0,0)" />
	<line x1="348.389" y1="1673.21" x2="207.601" y2="1570.92" stroke-width="0.25" stroke="rgb(0,0,0)" />
	<line x1="206.021" y1="1570.92" x2="348.389" y2="1674.36" stroke-width="0.25" stroke="rgb(0,0,0)" />
	<line x1="348.389" y1="1675.51" x2="204.441" y2="1570.92" stroke-width="0.25" stroke="rgb(0,0,0)" />
	<line x1="202.86" y1="1570.92" x2="348.389" y2="1676.66" stroke-width="0.25" stroke="rgb(0,0,0)" />
	<line x1="348.389" y1="1677.81" x2="201.28" y2="1570.92" stroke-width="0.25" stroke="rgb(0,0,0)" />
	<line x1="199.7" y1="1570.92" x2="348.389" y2="1678.95" stroke-width="0.25" stroke="rgb(0,0,0)" />
	<line x1="348.389" y1="1680.1" x2="198.119" y2="1570.92" stroke-width="0.25" stroke="rgb(0,0,0)" />
	<line x1="196.539" y1="1570.92" x2="348.389" y2="1681.25" stroke-width="0.25" stroke="rgb(0,0,0)" />
	<line x1="348.389" y1="1682.4" x2="194.959" y2="1570.92" stroke-width="0.25" stroke="rgb(0,0,0)" />
	<line x1="193.378" y1="1570.92" x2="348.389" y2="1683.55" stroke-width="0.25" stroke="rgb(0,0,0)" />
	<line x1="348.389" y1="1684.69" x2="191.798" y2="1570.92" stroke-width="0.25" stroke="rgb(0,0,0)" />
	<line x1="190.217" y1="1570.92" x2="348.389" y2="1685.84" stroke-width="0.25" stroke="rgb(0,0,0)" />
	<line x1="348.389" y1="1686.99" x2="188.637" y2="1570.92" stroke-width="0.25" stroke="rgb(0,0,0)" />
	<line x1="187.057" y1="1570.92" x2="348.389" y2="1688.14" stroke-width="0.25" stroke="rgb(0,0,0)" />
	<line x1="348.389" y1="1689.29" x2="185.476" y2="1570.92" stroke-width="0.25" stroke="rgb(0,0,0)" />
	<line x1="183.896" y1="1570.92" x2="348.389" y2="1690.44" stroke-width="0.25" stroke="rgb(0,0,0)" />
	<line x1="348.389" y1="1691.58" x2="182.316" y2="1570.92" stroke-width="0.25" stroke="rgb(0,0,0)" />
	<line x1="180.735" y1="1570.92" x2="348.389" y2="1692.73" stroke-width="0.25" stroke="rgb(0,0,0)" />
	<line x1="348.389" y1="1693.88" x2="179.155" y2="1570.92" stroke-width="0.25" stroke="rgb(0,0,0)" />
	<line x1="177.575" y1="1570.92" x2="348.389" y2="1695.03" stroke-width="0.25" stroke="rgb(0,0,0)" />
	<line x1="348.389" y1="1696.18" x2="175.994" y2="1570.92" stroke-width="0.25" stroke="rgb(0,0,0)" />
	<line x1="174.414" y1="1570.92" x2="348.389" y2="1697.32" stroke-width="0.25" stroke="rgb(0,0,0)" />
	<line x1="348.389" y1="1698.47" x2="172.834" y2="1570.92" stroke-width="0.25" stroke="rgb(0,0,0)" />
	<line x1="171.253" y1="1570.92" x2="348.389" y2="1699.62" stroke-width="0.25" stroke="rgb(0,0,0)" />
	<line x1="348.389" y1="1700.77" x2="169.673" y2="1570.92" stroke-width="0.25" stroke="rgb(0,0,0)" />
	<line x1="168.093" y1="1570.92" x2="348.389" y2="1701.92" stroke-width="0.25" stroke="rgb(0,0,0)" />
	<line x1="348.389" y1="1703.07" x2="166.512" y2="1570.92" stroke-width="0.25" stroke="rgb(0,0,0)" />
	<line x1="164.932" y1="1570.92" x2="348.389" y2="1704.21" stroke-width="0.25" stroke="rgb(0,0,0)" />
	<line x1="348.389" y1="1705.36" x2="163.351" y2="1570.92" stroke-width="0.25" stroke="rgb(0,0,0)" />
	<line x1="161.771" y1="1570.92" x2="348.389" y2="1706.51" stroke-width="0.25" stroke="rgb(0,0,0)" />
	<line x1="348.389" y1="1707.66" x2="160.191" y2="1570.92" stroke-width="0.25" stroke="rgb(0,0,0)" />
	<line x1="158.61" y1="1570.92" x2="348.389" y2="1708.81" stroke-width="0.25" stroke="rgb(0,0,0)" />
	<line x1="348.389" y1="1709.95" x2="157.03" y2="1570.92" stroke-width="0.25" stroke="rgb(0,0,0)" />
	<line x1="155.45" y1="1570.92" x2="348.389" y2="1711.1" stroke-width="0.25" stroke="rgb(0,0,0)" />
	<line x1="348.389" y1="1712.25" x2="153.869" y2="1570.92" stroke-width="0.25" stroke="rgb(0,0,0)" />
	<line x1="152.289" y1="1570.92" x2="348.389" y2="1713.4" stroke-width="0.25" stroke="rgb(0,0,0)" />
	<line x1="348.389" y1="1714.55" x2="150.709" y2="1570.92" stroke-width="0.25" stroke="rgb(0,0,0)" />
	<line x1="150.665" y1="1572.04" x2="348.389" y2="1715.7" stroke-width="0.25" stroke="rgb(0,0,0)" />
	<line x1="348.389" y1="1716.84" x2="150.665" y2="1573.19" stroke-width="0.25" stroke="rgb(0,0,0)" />
	<line x1="150.665" y1="1574.34" x2="348.389" y2="1717.99" stroke-width="0.25" stroke="rgb(0,0,0)" />
	<line x1="348.389" y1="1719.14" x2="150.665" y2="1575.48" stroke-width="0.25" stroke="rgb(0,0,0)" />
	<line x1="150.665" y1="1576.63" x2="348.389" y2="1720.29" stroke-width="0.25" stroke="rgb(0,0,0)" />
	<line x1="348.389" y1="1721.44" x2="150.665" y2="1577.78" stroke-width="0.25" stroke="rgb(0,0,0)" />
	<line x1="150.665" y1="1578.93" x2="348.389" y2="1722.58" stroke-width="0.25" stroke="rgb(0,0,0)" />
	<line x1="348.389" y1="1723.73" x2="150.665" y2="1580.08" stroke-width="0.25" stroke="rgb(0,0,0)" />
	<line x1="150.665" y1="1581.23" x2="348.389" y2="1724.88" stroke-width="0.25" stroke="rgb(0,0,0)" />
	<line x1="348.389" y1="1726.03" x2="150.665" y2="1582.37" stroke-width="0.25" stroke="rgb(0,0,0)" />
	<line x1="150.665" y1="1583.52" x2="348.389" y2="1727.18" stroke-width="0.25" stroke="rgb(0,0,0)" />
	<line x1="348.389" y1="1728.33" x2="150.665" y2="1584.67" stroke-width="0.25" stroke="rgb(0,0,0)" />
	<line x1="150.665" y1="1585.82" x2="348.389" y2="1729.47" stroke-width="0.25" stroke="rgb(0,0,0)" />
	<line x1="348.389" y1="1730.62" x2="150.665" y2="1586.97" stroke-width="0.25" stroke="rgb(0,0,0)" />
	<line x1="150.665" y1="1588.11" x2="348.389" y2="1731.77" stroke-width="0.25" stroke="rgb(0,0,0)" />
	<line x1="348.389" y1="1732.92" x2="150.665" y2="1589.26" stroke-width="0.25" stroke="rgb(0,0,0)" />
	<line x1="150.665" y1="1590.41" x2="348.389" y2="1734.07" stroke-width="0.25" stroke="rgb(0,0,0)" />
	<line x1="348.389" y1="1735.21" x2="150.665" y2="1591.56" stroke-width="0.25" stroke="rgb(0,0,0)" />
	<line x1="150.665" y1="1592.71" x2="348.389" y2="1736.36" stroke-width="0.25" stroke="rgb(0,0,0)" />
	<line x1="348.389" y1="1737.51" x2="150.665" y2="1593.86" stroke-width="0.25" stroke="rgb(0,0,0)" />
	<line x1="150.665" y1="1595" x2="348.389" y2="1738.66" stroke-width="0.25" stroke="rgb(0,0,0)" />
	<line x1="348.389" y1="1739.81" x2="150.665" y2="1596.15" stroke-width="0.25" stroke="rgb(0,0,0)" />
	<line x1="150.665" y1="1597.3" x2="348.389" y2="1740.96" stroke-width="0.25" stroke="rgb(0,0,0)" />
	<line x1="348.389" y1="1742.1" x2="150.665" y2="1598.45" stroke-width="0.25" stroke="rgb(0,0,0)" />
	<line x1="150.665" y1="1599.6" x2="348.389" y2="1743.25" stroke-width="0.25" stroke="rgb(0,0,0)" />
	<line x1="348.389" y1="1744.4" x2="150.665" y2="1600.74" stroke-width="0.25" stroke="rgb(0,0,0)" />
	<line x1="150.665" y1="1601.89" x2="348.389" y2="1745.55" stroke-width="0.25" stroke="rgb(0,0,0)" />
	<line x1="348.389" y1="1746.7" x2="150.665" y2="1603.04" stroke-width="0.25" stroke="rgb(0,0,0)" />
	<line x1="150.665" y1="1604.19" x2="348.389" y2="1747.84" stroke-width="0.25" stroke="rgb(0,0,0)" />
	<line x1="348.389" y1="1748.99" x2="150.665" y2="1605.34" stroke-width="0.25" stroke="rgb(0,0,0)" />
	<line x1="150.665" y1="1606.49" x2="348.389" y2="1750.14" stroke-width="0.25" stroke="rgb(0,0,0)" />
	<line x1="348.389" y1="1751.29" x2="150.665" y2="1607.63" stroke-width="0.25" stroke="rgb(0,0,0)" />
	<line x1="150.665" y1="1608.78" x2="348.389" y2="1752.44" stroke-width="0.25" stroke="rgb(0,0,0)" />
	<line x1="348.389" y1="1753.59" x2="150.665" y2="1609.93" stroke-width="0.25" stroke="rgb(0,0,0)" />
	<line x1="150.665" y1="1611.08" x2="348.389" y2="1754.73" stroke-width="0.25" stroke="rgb(0,0,0)" />
	<line x1="348.389" y1="1755.88" x2="150.665" y2="1612.23" stroke-width="0.25" stroke="rgb(0,0,0)" />
	<line x1="150.665" y1="1613.38" x2="348.389" y2="1757.03" stroke-width="0.25" stroke="rgb(0,0,0)" />
	<line x1="348.389" y1="1758.18" x2="150.665" y2="1614.52" stroke-width="0.25" stroke="rgb(0,0,0)" />
	<line x1="150.665" y1="1615.67" x2="348.389" y2="1759.33" stroke-width="0.25" stroke="rgb(0,0,0)" />
	<line x1="348.389" y1="1760.47" x2="150.665" y2="1616.82" stroke-width="0.25" stroke="rgb(0,0,0)" />
	<line x1="150.665" y1="1617.97" x2="348.389" y2="1761.62" stroke-width="0.25" stroke="rgb(0,0,0)" />
	<line x1="348.389" y1="1762.77" x2="150.665" y2="1619.12" stroke-width="0.25" stroke="rgb(0,0,0)" />
	<line x1="150.665" y1="1620.26" x2="348.389" y2="1763.92" stroke-width="0.25" stroke="rgb(0,0,0)" />
	<line x1="348.389" y1="1765.07" x2="150.665" y2="1621.41" stroke-width="0.25" stroke="rgb(0,0,0)" />
	<line x1="150.665" y1="1622.56" x2="348.389" y2="1766.22" stroke-width="0.25" stroke="rgb(0,0,0)" />
	<line x1="348.389" y1="1767.36" x2="150.665" y2="1623.71" stroke-width="0.25" stroke="rgb(0,0,0)" />
	<line x1="150.665" y1="1624.86" x2="348.389" y2="1768.51" stroke-width="0.25" stroke="rgb(0,0,0)" />
	<line x1="346.996" y1="1768.65" x2="150.665" y2="1626.01" stroke-width="0.25" stroke="rgb(0,0,0)" />
	<line x1="150.665" y1="1627.15" x2="345.416" y2="1768.65" stroke-width="0.25" stroke="rgb(0,0,0)" />
	<line x1="343.836" y1="1768.65" x2="150.665" y2="1628.3" stroke-width="0.25" stroke="rgb(0,0,0)" />
	<line x1="150.665" y1="1629.45" x2="342.255" y2="1768.65" stroke-width="0.25" stroke="rgb(0,0,0)" />
	<line x1="340.675" y1="1768.65" x2="150.665" y2="1630.6" stroke-width="0.25" stroke="rgb(0,0,0)" />
	<line x1="150.665" y1="1631.75" x2="339.094" y2="1768.65" stroke-width="0.25" stroke="rgb(0,0,0)" />
	<line x1="337.514" y1="1768.65" x2="150.665" y2="1632.89" stroke-width="0.25" stroke="rgb(0,0,0)" />
	<line x1="150.665" y1="1634.04" x2="335.934" y2="1768.65" stroke-width="0.25" stroke="rgb(0,0,0)" />
	<line x1="334.353" y1="1768.65" x2="150.665" y2="1635.19" stroke-width="0.25" stroke="rgb(0,0,0)" />
	<line x1="150.665" y1="1636.34" x2="332.773" y2="1768.65" stroke-width="0.25" stroke="rgb(0,0,0)" />
	<line x1="331.193" y1="1768.65" x2="150.665" y2="1637.49" stroke-width="0.25" stroke="rgb(0,0,0)" />
	<line x1="150.665" y1="1638.64" x2="329.612" y2="1768.65" stroke-width="0.25" stroke="rgb(0,0,0)" />
	<line x1="328.032" y1="1768.65" x2="150.665" y2="1639.78" stroke-width="0.25" stroke="rgb(0,0,0)" />
	<line x1="150.665" y1="1640.93" x2="326.452" y2="1768.65" stroke-width="0.25" stroke="rgb(0,0,0)" />
	<line x1="324.871" y1="1768.65" x2="150.665" y2="1642.08" stroke-width="0.25" stroke="rgb(0,0,0)" />
	<line x1="150.665" y1="1643.23" x2="323.291" y2="1768.65" stroke-width="0.25" stroke="rgb(0,0,0)" />
	<line x1="321.711" y1="1768.65" x2="150.665" y2="1644.38" stroke-width="0.25" stroke="rgb(0,0,0)" />
	<line x1="150.665" y1="1645.52" x2="320.13" y2="1768.65" stroke-width="0.25" stroke="rgb(0,0,0)" />
	<line x1="318.55" y1="1768.65" x2="150.665" y2="1646.67" stroke-width="0.25" stroke="rgb(0,0,0)" />
	<line x1="150.665" y1="1647.82" x2="316.97" y2="1768.65" stroke-width="0.25" stroke="rgb(0,0,0)" />
	<line x1="315.389" y1="1768.65" x2="150.665" y2="1648.97" stroke-width="0.25" stroke="rgb(0,0,0)" />
	<line x1="150.665" y1="1650.12" x2="313.809" y2="1768.65" stroke-width="0.25" stroke="rgb(0,0,0)" />
	<line x1="312.229" y1="1768.65" x2="150.665" y2="1651.27" stroke-width="0.25" stroke="rgb(0,0,0)" />
	<line x1="150.665" y1="1652.41" x2="310.648" y2="1768.65" stroke-width="0.25" stroke="rgb(0,0,0)" />
	<line x1="309.068" y1="1768.65" x2="150.665" y2="1653.56" stroke-width="0.25" stroke="rgb(0,0,0)" />
	<line x1="150.665" y1="1654.71" x2="307.487" y2="1768.65" stroke-width="0.25" stroke="rgb(0,0,0)" />
	<line x1="305.907" y1="1768.65" x2="150.665" y2="1655.86" stroke-width="0.25" stroke="rgb(0,0,0)" />
	<line x1="150.665" y1="1657.01" x2="304.327" y2="1768.65" stroke-width="0.25" stroke="rgb(0,0,0)" />
	<line x1="302.746" y1="1768.65" x2="150.665" y2="1658.15" stroke-width="0.25" stroke="rgb(0,0,0)" />
	<line x1="150.665" y1="1659.3" x2="301.166" y2="1768.65" stroke-width="0.25" stroke="rgb(0,0,0)" />
	<line x1="299.586" y1="1768.65" x2="150.665" y2="1660.45" stroke-width="0.25" stroke="rgb(0,0,0)" />
	<line x1="150.665" y1="1661.6" x2="298.005" y2="1768.65" stroke-width="0.25" stroke="rgb(0,0,0)" />
	<line x1="296.425" y1="1768.65" x2="150.665" y2="1662.75" stroke-width="0.25" stroke="rgb(0,0,0)" />
	<line x1="150.665" y1="1663.9" x2="294.845" y2="1768.65" stroke-width="0.25" stroke="rgb(0,0,0)" />
	<line x1="293.264" y1="1768.65" x2="150.665" y2="1665.04" stroke-width="0.25" stroke="rgb(0,0,0)" />
	<line x1="150.665" y1="1666.19" x2="291.684" y2="1768.65" stroke-width="0.25" stroke="rgb(0,0,0)" />
	<line x1="290.104" y1="1768.65" x2="150.665" y2="1667.34" stroke-width="0.25" stroke="rgb(0,0,0)" />
	<line x1="150.665" y1="1668.49" x2="288.523" y2="1768.65" stroke-width="0.25" stroke="rgb(0,0,0)" />
	<line x1="286.943" y1="1768.65" x2="150.665" y2="1669.64" stroke-width="0.25" stroke="rgb(0,0,0)" />
	<line x1="150.665" y1="1670.78" x2="285.363" y2="1768.65" stroke-width="0.25" stroke="rgb(0,0,0)" />
	<line x1="283.782" y1="1768.65" x2="150.665" y2="1671.93" stroke-width="0.25" stroke="rgb(0,0,0)" />
	<line x1="150.665" y1="1673.08" x2="282.202" y2="1768.65" stroke-width="0.25" stroke="rgb(0,0,0)" />
	<line x1="280.622" y1="1768.65" x2="150.665" y2="1674.23" stroke-width="0.25" stroke="rgb(0,0,0)" />
	<line x1="150.665" y1="1675.38" x2="279.041" y2="1768.65" stroke-width="0.25" stroke="rgb(0,0,0)" />
	<line x1="277.461" y1="1768.65" x2="150.665" y2="1676.53" stroke-width="0.25" stroke="rgb(0,0,0)" />
	<line x1="150.665" y1="1677.67" x2="275.88" y2="1768.65" stroke-width="0.25" stroke="rgb(0,0,0)" />
	<line x1="274.3" y1="1768.65" x2="150.665" y2="1678.82" stroke-width="0.25" stroke="rgb(0,0,0)" />
	<line x1="150.665" y1="1679.97" x2="272.72" y2="1768.65" stroke-width="0.25" stroke="rgb(0,0,0)" />
	<line x1="271.139" y1="1768.65" x2="150.665" y2="1681.12" stroke-width="0.25" stroke="rgb(0,0,0)" />
	<line x1="150.665" y1="1682.27" x2="269.559" y2="1768.65" stroke-width="0.25" stroke="rgb(0,0,0)" />
	<line x1="267.979" y1="1768.65" x2="150.665" y2="1683.41" stroke-width="0.25" stroke="rgb(0,0,0)" />
	<line x1="150.665" y1="1684.56" x2="266.398" y2="1768.65" stroke-width="0.25" stroke="rgb(0,0,0)" />
	<line x1="264.818" y1="1768.65" x2="150.665" y2="1685.71" stroke-width="0.25" stroke="rgb(0,0,0)" />
	<line x1="150.665" y1="1686.86" x2="263.238" y2="1768.65" stroke-width="0.25" stroke="rgb(0,0,0)" />
	<line x1="261.657" y1="1768.65" x2="150.665" y2="1688.01" stroke-width="0.25" stroke="rgb(0,0,0)" />
	<line x1="150.665" y1="1689.16" x2="260.077" y2="1768.65" stroke-width="0.25" stroke="rgb(0,0,0)" />
	<line x1="258.497" y1="1768.65" x2="150.665" y2="1690.3" stroke-width="0.25" stroke="rgb(0,0,0)" />
	<line x1="150.665" y1="1691.45" x2="256.916" y2="1768.65" stroke-width="0.25" stroke="rgb(0,0,0)" />
	<line x1="255.336" y1="1768.65" x2="150.665" y2="1692.6" stroke-width="0.25" stroke="rgb(0,0,0)" />
	<line x1="150.665" y1="1693.75" x2="253.756" y2="1768.65" stroke-width="0.25" stroke="rgb(0,0,0)" />
	<line x1="252.175" y1="1768.65" x2="150.665" y2="1694.9" stroke-width="0.25" stroke="rgb(0,0,0)" />
	<line x1="150.665" y1="1696.04" x2="250.595" y2="1768.65" stroke-width="0.25" stroke="rgb(0,0,0)" />
	<line x1="249.014" y1="1768.65" x2="150.665" y2="1697.19" stroke-width="0.25" stroke="rgb(0,0,0)" />
	<line x1="150.665" y1="1698.34" x2="247.434" y2="1768.65" stroke-width="0.25" stroke="rgb(0,0,0)" />
	<line x1="245.854" y1="1768.65" x2="150.665" y2="1699.49" stroke-width="0.25" stroke="rgb(0,0,0)" />
	<line x1="150.665" y1="1700.64" x2="244.273" y2="1768.65" stroke-width="0.25" stroke="rgb(0,0,0)" />
	<line x1="242.693" y1="1768.65" x2="150.665" y2="1701.79" stroke-width="0.25" stroke="rgb(0,0,0)" />
	<line x1="150.665" y1="1702.93" x2="241.113" y2="1768.65" stroke-width="0.25" stroke="rgb(0,0,0)" />
	<line x1="239.532" y1="1768.65" x2="150.665" y2="1704.08" stroke-width="0.25" stroke="rgb(0,0,0)" />
	<line x1="150.665" y1="1705.23" x2="237.952" y2="1768.65" stroke-width="0.25" stroke="rgb(0,0,0)" />
	<line x1="236.372" y1="1768.65" x2="150.665" y2="1706.38" stroke-width="0.25" stroke="rgb(0,0,0)" />
	<line x1="150.665" y1="1707.53" x2="234.791" y2="1768.65" stroke-width="0.25" stroke="rgb(0,0,0)" />
	<line x1="233.211" y1="1768.65" x2="150.665" y2="1708.67" stroke-width="0.25" stroke="rgb(0,0,0)" />
	<line x1="150.665" y1="1709.82" x2="231.631" y2="1768.65" stroke-width="0.25" stroke="rgb(0,0,0)" />
	<line x1="230.05" y1="1768.65" x2="150.665" y2="1710.97" stroke-width="0.25" stroke="rgb(0,0,0)" />
	<line x1="150.665" y1="1712.12" x2="228.47" y2="1768.65" stroke-width="0.25" stroke="rgb(0,0,0)" />
	<line x1="226.89" y1="1768.65" x2="150.665" y2="1713.27" stroke-width="0.25" stroke="rgb(0,0,0)" />
	<line x1="150.665" y1="1714.42" x2="225.309" y2="1768.65" stroke-width="0.25" stroke="rgb(0,0,0)" />
	<line x1="223.729" y1="1768.65" x2="150.665" y2="1715.56" stroke-width="0.25" stroke="rgb(0,0,0)" />
	<line x1="150.665" y1="1716.71" x2="222.149" y2="1768.65" stroke-width="0.25" stroke="rgb(0,0,0)" />
	<line x1="220.568" y1="1768.65" x2="150.665" y2="1717.86" stroke-width="0.25" stroke="rgb(0,0,0)" />
	<line x1="150.665" y1="1719.01" x2="218.988" y2="1768.65" stroke-width="0.25" stroke="rgb(0,0,0)" />
	<line x1="217.407" y1="1768.65" x2="150.665" y2="1720.16" stroke-width="0.25" stroke="rgb(0,0,0)" />
	<line x1="150.665" y1="1721.31" x2="215.827" y2="1768.65" stroke-width="0.25" stroke="rgb(0,0,0)" />
	<line x1="214.247" y1="1768.65" x2="150.665" y2="1722.45" stroke-width="0.25" stroke="rgb(0,0,0)" />
	<line x1="150.665" y1="1723.6" x2="212.666" y2="1768.65" stroke-width="0.25" stroke="rgb(0,0,0)" />
	<line x1="211.086" y1="1768.65" x2="150.665" y2="1724.75" stroke-width="0.25" stroke="rgb(0,0,0)" />
	<line x1="150.665" y1="1725.9" x2="209.506" y2="1768.65" stroke-width="0.25" stroke="rgb(0,0,0)" />
	<line x1="207.925" y1="1768.65" x2="150.665" y2="1727.05" stroke-width="0.25" stroke="rgb(0,0,0)" />
	<line x1="150.665" y1="1728.19" x2="206.345" y2="1768.65" stroke-width="0.25" stroke="rgb(0,0,0)" />
	<line x1="204.765" y1="1768.65" x2="150.665" y2="1729.34" stroke-width="0.25" stroke="rgb(0,0,0)" />
	<line x1="150.665" y1="1730.49" x2="203.184" y2="1768.65" stroke-width="0.25" stroke="rgb(0,0,0)" />
	<line x1="201.604" y1="1768.65" x2="150.665" y2="1731.64" stroke-width="0.25" stroke="rgb(0,0,0)" />
	<line x1="150.665" y1="1732.79" x2="200.024" y2="1768.65" stroke-width="0.25" stroke="rgb(0,0,0)" />
	<line x1="198.443" y1="1768.65" x2="150.665" y2="1733.94" stroke-width="0.25" stroke="rgb(0,0,0)" />
	<line x1="150.665" y1="1735.08" x2="196.863" y2="1768.65" stroke-width="0.25" stroke="rgb(0,0,0)" />
	<line x1="195.283" y1="1768.65" x2="150.665" y2="1736.23" stroke-width="0.25" stroke="rgb(0,0,0)" />
	<line x1="150.665" y1="1737.38" x2="193.702" y2="1768.65" stroke-width="0.25" stroke="rgb(0,0,0)" />
	<line x1="192.122" y1="1768.65" x2="150.665" y2="1738.53" stroke-width="0.25" stroke="rgb(0,0,0)" />
	<line x1="150.665" y1="1739.68" x2="190.542" y2="1768.65" stroke-width="0.25" stroke="rgb(0,0,0)" />
	<line x1="188.961" y1="1768.65" x2="150.665" y2="1740.82" stroke-width="0.25" stroke="rgb(0,0,0)" />
	<line x1="150.665" y1="1741.97" x2="187.381" y2="1768.65" stroke-width="0.25" stroke="rgb(0,0,0)" />
	<line x1="185.8" y1="1768.65" x2="150.665" y2="1743.12" stroke-width="0.25" stroke="rgb(0,0,0)" />
	<line x1="150.665" y1="1744.27" x2="184.22" y2="1768.65" stroke-width="0.25" stroke="rgb(0,0,0)" />
	<line x1="182.64" y1="1768.65" x2="150.665" y2="1745.42" stroke-width="0.25" stroke="rgb(0,0,0)" />
	<line x1="150.665" y1="1746.57" x2="181.059" y2="1768.65" stroke-width="0.25" stroke="rgb(0,0,0)" />
	<line x1="179.479" y1="1768.65" x2="150.665" y2="1747.71" stroke-width="0.25" stroke="rgb(0,0,0)" />
	<line x1="150.665" y1="1748.86" x2="177.899" y2="1768.65" stroke-width="0.25" stroke="rgb(0,0,0)" />
	<line x1="176.318" y1="1768.65" x2="150.665" y2="1750.01" stroke-width="0.25" stroke="rgb(0,0,0)" />
	<line x1="150.665" y1="1751.16" x2="174.738" y2="1768.65" stroke-width="0.25" stroke="rgb(0,0,0)" />
	<line x1="173.158" y1="1768.65" x2="150.665" y2="1752.31" stroke-width="0.25" stroke="rgb(0,0,0)" />
	<line x1="150.665" y1="1753.45" x2="171.577" y2="1768.65" stroke-width="0.25" stroke="rgb(0,0,0)" />
	<line x1="169.997" y1="1768.65" x2="150.665" y2="1754.6" stroke-width="0.25" stroke="rgb(0,0,0)" />
	<line x1="150.665" y1="1755.75" x2="168.417" y2="1768.65" stroke-width="0.25" stroke="rgb(0,0,0)" />
	<line x1="166.836" y1="1768.65" x2="150.665" y2="1756.9" stroke-width="0.25" stroke="rgb(0,0,0)" />
	<line x1="150.665" y1="1758.05" x2="165.256" y2="1768.65" stroke-width="0.25" stroke="rgb(0,0,0)" />
	<line x1="163.676" y1="1768.65" x2="150.665" y2="1759.2" stroke-width="0.25" stroke="rgb(0,0,0)" />
	<line x1="150.665" y1="1760.34" x2="162.095" y2="1768.65" stroke-width="0.25" stroke="rgb(0,0,0)" />
	<line x1="160.515" y1="1768.65" x2="150.665" y2="1761.49" stroke-width="0.25" stroke="rgb(0,0,0)" />
	<line x1="150.665" y1="1762.64" x2="158.934" y2="1768.65" stroke-width="0.25" stroke="rgb(0,0,0)" />
	<line x1="157.354" y1="1768.65" x2="150.665" y2="1763.79" stroke-width="0.25" stroke="rgb(0,0,0)" />
	<line x1="150.665" y1="1764.94" x2="155.774" y2="1768.65" stroke-width="0.25" stroke="rgb(0,0,0)" />
	<line x1="154.193" y1="1768.65" x2="150.665" y2="1766.08" stroke-width="0.25" stroke="rgb(0,0,0)" />
	<line x1="150.665" y1="1767.23" x2="152.613" y2="1768.65" stroke-width="0.25" stroke="rgb(0,0,0)" />
	<line x1="151.033" y1="1768.65" x2="150.665" y2="1768.38" stroke-width="0.25" stroke="rgb(0,0,0)" />
	<line x1="330.116" y1="792.887" x2="330.22" y2="792.963" stroke-width="0.25" stroke="rgb(0,0,0)" />
	<line x1="330.22" y1="794.439" x2="328.084" y2="792.887" stroke-width="0.25" stroke="rgb(0,0,0)" />
	<line x1="326.052" y1="792.887" x2="330.22" y2="795.915" stroke-width="0.25" stroke="rgb(0,0,0)" />
	<line x1="330.22" y1="797.391" x2="324.02" y2="792.887" stroke-width="0.25" stroke="rgb(0,0,0)" />
	<line x1="321.988" y1="792.887" x2="330.22" y2="798.868" stroke-width="0.25" stroke="rgb(0,0,0)" />
	<line x1="330.22" y1="800.344" x2="319.956" y2="792.887" stroke-width="0.25" stroke="rgb(0,0,0)" />
	<line x1="317.925" y1="792.887" x2="330.22" y2="801.82" stroke-width="0.25" stroke="rgb(0,0,0)" />
	<line x1="330.22" y1="803.296" x2="315.893" y2="792.887" stroke-width="0.25" stroke="rgb(0,0,0)" />
	<line x1="313.861" y1="792.887" x2="330.22" y2="804.773" stroke-width="0.25" stroke="rgb(0,0,0)" />
	<line x1="330.22" y1="806.249" x2="311.829" y2="792.887" stroke-width="0.25" stroke="rgb(0,0,0)" />
	<line x1="309.797" y1="792.887" x2="330.22" y2="807.725" stroke-width="0.25" stroke="rgb(0,0,0)" />
	<line x1="330.22" y1="809.201" x2="307.765" y2="792.887" stroke-width="0.25" stroke="rgb(0,0,0)" />
	<line x1="305.733" y1="792.887" x2="330.22" y2="810.678" stroke-width="0.25" stroke="rgb(0,0,0)" />
	<line x1="330.22" y1="812.154" x2="303.701" y2="792.887" stroke-width="0.25" stroke="rgb(0,0,0)" />
	<line x1="301.67" y1="792.887" x2="330.22" y2="813.63" stroke-width="0.25" stroke="rgb(0,0,0)" />
	<line x1="330.22" y1="815.106" x2="299.638" y2="792.887" stroke-width="0.25" stroke="rgb(0,0,0)" />
	<line x1="297.606" y1="792.887" x2="330.22" y2="816.583" stroke-width="0.25" stroke="rgb(0,0,0)" />
	<line x1="330.22" y1="818.059" x2="295.574" y2="792.887" stroke-width="0.25" stroke="rgb(0,0,0)" />
	<line x1="293.542" y1="792.887" x2="330.22" y2="819.535" stroke-width="0.25" stroke="rgb(0,0,0)" />
	<line x1="330.22" y1="821.011" x2="291.51" y2="792.887" stroke-width="0.25" stroke="rgb(0,0,0)" />
	<line x1="289.478" y1="792.887" x2="330.22" y2="822.488" stroke-width="0.25" stroke="rgb(0,0,0)" />
	<line x1="330.22" y1="823.964" x2="287.446" y2="792.887" stroke-width="0.25" stroke="rgb(0,0,0)" />
	<line x1="285.415" y1="792.887" x2="330.22" y2="825.44" stroke-width="0.25" stroke="rgb(0,0,0)" />
	<line x1="330.22" y1="826.916" x2="283.383" y2="792.887" stroke-width="0.25" stroke="rgb(0,0,0)" />
	<line x1="281.351" y1="792.887" x2="330.22" y2="828.393" stroke-width="0.25" stroke="rgb(0,0,0)" />
	<line x1="330.22" y1="829.869" x2="279.319" y2="792.887" stroke-width="0.25" stroke="rgb(0,0,0)" />
	<line x1="277.287" y1="792.887" x2="330.22" y2="831.345" stroke-width="0.25" stroke="rgb(0,0,0)" />
	<line x1="330.22" y1="832.821" x2="275.255" y2="792.887" stroke-width="0.25" stroke="rgb(0,0,0)" />
	<line x1="273.223" y1="792.887" x2="330.22" y2="834.298" stroke-width="0.25" stroke="rgb(0,0,0)" />
	<line x1="330.22" y1="835.774" x2="271.191" y2="792.887" stroke-width="0.25" stroke="rgb(0,0,0)" />
	<line x1="269.159" y1="792.887" x2="330.22" y2="837.25" stroke-width="0.25" stroke="rgb(0,0,0)" />
	<line x1="330.22" y1="838.726" x2="267.128" y2="792.887" stroke-width="0.25" stroke="rgb(0,0,0)" />
	<line x1="265.096" y1="792.887" x2="330.22" y2="840.203" stroke-width="0.25" stroke="rgb(0,0,0)" />
	<line x1="330.22" y1="841.679" x2="263.064" y2="792.887" stroke-width="0.25" stroke="rgb(0,0,0)" />
	<line x1="261.032" y1="792.887" x2="330.22" y2="843.155" stroke-width="0.25" stroke="rgb(0,0,0)" />
	<line x1="330.22" y1="844.631" x2="259" y2="792.887" stroke-width="0.25" stroke="rgb(0,0,0)" />
	<line x1="256.968" y1="792.887" x2="330.22" y2="846.108" stroke-width="0.25" stroke="rgb(0,0,0)" />
	<line x1="330.22" y1="847.584" x2="254.936" y2="792.887" stroke-width="0.25" stroke="rgb(0,0,0)" />
	<line x1="252.904" y1="792.887" x2="330.22" y2="849.06" stroke-width="0.25" stroke="rgb(0,0,0)" />
	<line x1="330.22" y1="850.536" x2="250.873" y2="792.887" stroke-width="0.25" stroke="rgb(0,0,0)" />
	<line x1="248.841" y1="792.887" x2="330.22" y2="852.013" stroke-width="0.25" stroke="rgb(0,0,0)" />
	<line x1="330.22" y1="853.489" x2="246.809" y2="792.887" stroke-width="0.25" stroke="rgb(0,0,0)" />
	<line x1="244.777" y1="792.887" x2="330.22" y2="854.965" stroke-width="0.25" stroke="rgb(0,0,0)" />
	<line x1="330.22" y1="856.441" x2="242.745" y2="792.887" stroke-width="0.25" stroke="rgb(0,0,0)" />
	<line x1="240.713" y1="792.887" x2="330.22" y2="857.918" stroke-width="0.25" stroke="rgb(0,0,0)" />
	<line x1="330.22" y1="859.394" x2="238.681" y2="792.887" stroke-width="0.25" stroke="rgb(0,0,0)" />
	<line x1="236.649" y1="792.887" x2="330.22" y2="860.87" stroke-width="0.25" stroke="rgb(0,0,0)" />
	<line x1="330.22" y1="862.346" x2="234.618" y2="792.887" stroke-width="0.25" stroke="rgb(0,0,0)" />
	<line x1="232.586" y1="792.887" x2="330.22" y2="863.822" stroke-width="0.25" stroke="rgb(0,0,0)" />
	<line x1="330.22" y1="865.299" x2="230.554" y2="792.887" stroke-width="0.25" stroke="rgb(0,0,0)" />
	<line x1="228.522" y1="792.887" x2="330.22" y2="866.775" stroke-width="0.25" stroke="rgb(0,0,0)" />
	<line x1="330.22" y1="868.251" x2="226.49" y2="792.887" stroke-width="0.25" stroke="rgb(0,0,0)" />
	<line x1="224.458" y1="792.887" x2="330.22" y2="869.727" stroke-width="0.25" stroke="rgb(0,0,0)" />
	<line x1="330.22" y1="871.204" x2="222.426" y2="792.887" stroke-width="0.25" stroke="rgb(0,0,0)" />
	<line x1="220.394" y1="792.887" x2="330.22" y2="872.68" stroke-width="0.25" stroke="rgb(0,0,0)" />
	<line x1="330.22" y1="874.156" x2="218.362" y2="792.887" stroke-width="0.25" stroke="rgb(0,0,0)" />
	<line x1="216.331" y1="792.887" x2="330.22" y2="875.632" stroke-width="0.25" stroke="rgb(0,0,0)" />
	<line x1="330.22" y1="877.109" x2="214.299" y2="792.887" stroke-width="0.25" stroke="rgb(0,0,0)" />
	<line x1="212.267" y1="792.887" x2="330.22" y2="878.585" stroke-width="0.25" stroke="rgb(0,0,0)" />
	<line x1="330.22" y1="880.061" x2="210.235" y2="792.887" stroke-width="0.25" stroke="rgb(0,0,0)" />
	<line x1="208.203" y1="792.887" x2="330.22" y2="881.537" stroke-width="0.25" stroke="rgb(0,0,0)" />
	<line x1="330.22" y1="883.014" x2="206.171" y2="792.887" stroke-width="0.25" stroke="rgb(0,0,0)" />
	<line x1="204.139" y1="792.887" x2="330.22" y2="884.49" stroke-width="0.25" stroke="rgb(0,0,0)" />
	<line x1="330.22" y1="885.966" x2="202.107" y2="792.887" stroke-width="0.25" stroke="rgb(0,0,0)" />
	<line x1="200.076" y1="792.887" x2="330.22" y2="887.442" stroke-width="0.25" stroke="rgb(0,0,0)" />
	<line x1="330.22" y1="888.919" x2="198.044" y2="792.887" stroke-width="0.25" stroke="rgb(0,0,0)" />
	<line x1="196.012" y1="792.887" x2="330.22" y2="890.395" stroke-width="0.25" stroke="rgb(0,0,0)" />
	<line x1="330.22" y1="891.871" x2="193.98" y2="792.887" stroke-width="0.25" stroke="rgb(0,0,0)" />
	<line x1="191.948" y1="792.887" x2="330.22" y2="893.347" stroke-width="0.25" stroke="rgb(0,0,0)" />
	<line x1="330.22" y1="894.824" x2="189.916" y2="792.887" stroke-width="0.25" stroke="rgb(0,0,0)" />
	<line x1="187.884" y1="792.887" x2="330.22" y2="896.3" stroke-width="0.25" stroke="rgb(0,0,0)" />
	<line x1="330.22" y1="897.776" x2="185.852" y2="792.887" stroke-width="0.25" stroke="rgb(0,0,0)" />
	<line x1="183.821" y1="792.887" x2="330.22" y2="899.252" stroke-width="0.25" stroke="rgb(0,0,0)" />
	<line x1="330.22" y1="900.729" x2="181.789" y2="792.887" stroke-width="0.25" stroke="rgb(0,0,0)" />
	<line x1="179.757" y1="792.887" x2="330.22" y2="902.205" stroke-width="0.25" stroke="rgb(0,0,0)" />
	<line x1="330.22" y1="903.681" x2="177.725" y2="792.887" stroke-width="0.25" stroke="rgb(0,0,0)" />
	<line x1="175.693" y1="792.887" x2="330.22" y2="905.157" stroke-width="0.25" stroke="rgb(0,0,0)" />
	<line x1="330.22" y1="906.634" x2="173.661" y2="792.887" stroke-width="0.25" stroke="rgb(0,0,0)" />
	<line x1="171.629" y1="792.887" x2="330.22" y2="908.11" stroke-width="0.25" stroke="rgb(0,0,0)" />
	<line x1="330.22" y1="909.586" x2="169.597" y2="792.887" stroke-width="0.25" stroke="rgb(0,0,0)" />
	<line x1="167.565" y1="792.887" x2="330.22" y2="911.062" stroke-width="0.25" stroke="rgb(0,0,0)" />
	<line x1="330.22" y1="912.539" x2="165.534" y2="792.887" stroke-width="0.25" stroke="rgb(0,0,0)" />
	<line x1="163.502" y1="792.887" x2="330.22" y2="914.015" stroke-width="0.25" stroke="rgb(0,0,0)" />
	<line x1="330.22" y1="915.491" x2="161.47" y2="792.887" stroke-width="0.25" stroke="rgb(0,0,0)" />
	<line x1="159.438" y1="792.887" x2="330.22" y2="916.967" stroke-width="0.25" stroke="rgb(0,0,0)" />
	<line x1="330.22" y1="918.444" x2="157.406" y2="792.887" stroke-width="0.25" stroke="rgb(0,0,0)" />
	<line x1="155.374" y1="792.887" x2="330.22" y2="919.92" stroke-width="0.25" stroke="rgb(0,0,0)" />
	<line x1="330.22" y1="921.396" x2="153.342" y2="792.887" stroke-width="0.25" stroke="rgb(0,0,0)" />
	<line x1="152.522" y1="793.767" x2="330.22" y2="922.872" stroke-width="0.25" stroke="rgb(0,0,0)" />
	<line x1="330.22" y1="924.349" x2="152.522" y2="795.244" stroke-width="0.25" stroke="rgb(0,0,0)" />
	<line x1="152.522" y1="796.72" x2="330.22" y2="925.825" stroke-width="0.25" stroke="rgb(0,0,0)" />
	<line x1="330.22" y1="927.301" x2="152.522" y2="798.196" stroke-width="0.25" stroke="rgb(0,0,0)" />
	<line x1="152.522" y1="799.672" x2="330.22" y2="928.777" stroke-width="0.25" stroke="rgb(0,0,0)" />
	<line x1="330.22" y1="930.254" x2="152.522" y2="801.149" stroke-width="0.25" stroke="rgb(0,0,0)" />
	<line x1="152.522" y1="802.625" x2="330.22" y2="931.73" stroke-width="0.25" stroke="rgb(0,0,0)" />
	<line x1="330.22" y1="933.206" x2="152.522" y2="804.101" stroke-width="0.25" stroke="rgb(0,0,0)" />
	<line x1="152.522" y1="805.577" x2="330.22" y2="934.682" stroke-width="0.25" stroke="rgb(0,0,0)" />
	<line x1="330.22" y1="936.159" x2="152.522" y2="807.054" stroke-width="0.25" stroke="rgb(0,0,0)" />
	<line x1="152.522" y1="808.53" x2="330.22" y2="937.635" stroke-width="0.25" stroke="rgb(0,0,0)" />
	<line x1="330.22" y1="939.111" x2="152.522" y2="810.006" stroke-width="0.25" stroke="rgb(0,0,0)" />
	<line x1="152.522" y1="811.482" x2="330.22" y2="940.587" stroke-width="0.25" stroke="rgb(0,0,0)" />
	<line x1="330.22" y1="942.064" x2="152.522" y2="812.959" stroke-width="0.25" stroke="rgb(0,0,0)" />
	<line x1="152.522" y1="814.435" x2="330.22" y2="943.54" stroke-width="0.25" stroke="rgb(0,0,0)" />
	<line x1="330.22" y1="945.016" x2="152.522" y2="815.911" stroke-width="0.25" stroke="rgb(0,0,0)" />
	<line x1="152.522" y1="817.387" x2="330.22" y2="946.492" stroke-width="0.25" stroke="rgb(0,0,0)" />
	<line x1="330.22" y1="947.969" x2="152.522" y2="818.864" stroke-width="0.25" stroke="rgb(0,0,0)" />
	<line x1="152.522" y1="820.34" x2="330.22" y2="949.445" stroke-width="0.25" stroke="rgb(0,0,0)" />
	<line x1="330.22" y1="950.921" x2="152.522" y2="821.816" stroke-width="0.25" stroke="rgb(0,0,0)" />
	<line x1="152.522" y1="823.292" x2="330.22" y2="952.397" stroke-width="0.25" stroke="rgb(0,0,0)" />
	<line x1="330.22" y1="953.874" x2="152.522" y2="824.769" stroke-width="0.25" stroke="rgb(0,0,0)" />
	<line x1="152.522" y1="826.245" x2="330.22" y2="955.35" stroke-width="0.25" stroke="rgb(0,0,0)" />
	<line x1="330.22" y1="956.826" x2="152.522" y2="827.721" stroke-width="0.25" stroke="rgb(0,0,0)" />
	<line x1="152.522" y1="829.197" x2="330.22" y2="958.302" stroke-width="0.25" stroke="rgb(0,0,0)" />
	<line x1="330.22" y1="959.779" x2="152.522" y2="830.674" stroke-width="0.25" stroke="rgb(0,0,0)" />
	<line x1="152.522" y1="832.15" x2="330.22" y2="961.255" stroke-width="0.25" stroke="rgb(0,0,0)" />
	<line x1="330.22" y1="962.731" x2="152.522" y2="833.626" stroke-width="0.25" stroke="rgb(0,0,0)" />
	<line x1="152.522" y1="835.102" x2="330.22" y2="964.207" stroke-width="0.25" stroke="rgb(0,0,0)" />
	<line x1="330.22" y1="965.684" x2="152.522" y2="836.579" stroke-width="0.25" stroke="rgb(0,0,0)" />
	<line x1="152.522" y1="838.055" x2="330.22" y2="967.16" stroke-width="0.25" stroke="rgb(0,0,0)" />
	<line x1="330.22" y1="968.636" x2="152.522" y2="839.531" stroke-width="0.25" stroke="rgb(0,0,0)" />
	<line x1="152.522" y1="841.007" x2="330.22" y2="970.112" stroke-width="0.25" stroke="rgb(0,0,0)" />
	<line x1="328.838" y1="970.585" x2="152.522" y2="842.484" stroke-width="0.25" stroke="rgb(0,0,0)" />
	<line x1="152.522" y1="843.96" x2="326.807" y2="970.585" stroke-width="0.25" stroke="rgb(0,0,0)" />
	<line x1="324.775" y1="970.585" x2="152.522" y2="845.436" stroke-width="0.25" stroke="rgb(0,0,0)" />
	<line x1="152.522" y1="846.912" x2="322.743" y2="970.585" stroke-width="0.25" stroke="rgb(0,0,0)" />
	<line x1="320.711" y1="970.585" x2="152.522" y2="848.389" stroke-width="0.25" stroke="rgb(0,0,0)" />
	<line x1="152.522" y1="849.865" x2="318.679" y2="970.585" stroke-width="0.25" stroke="rgb(0,0,0)" />
	<line x1="316.647" y1="970.585" x2="152.522" y2="851.341" stroke-width="0.25" stroke="rgb(0,0,0)" />
	<line x1="152.522" y1="852.817" x2="314.615" y2="970.585" stroke-width="0.25" stroke="rgb(0,0,0)" />
	<line x1="312.583" y1="970.585" x2="152.522" y2="854.294" stroke-width="0.25" stroke="rgb(0,0,0)" />
	<line x1="152.522" y1="855.77" x2="310.552" y2="970.585" stroke-width="0.25" stroke="rgb(0,0,0)" />
	<line x1="308.52" y1="970.585" x2="152.522" y2="857.246" stroke-width="0.25" stroke="rgb(0,0,0)" />
	<line x1="152.522" y1="858.722" x2="306.488" y2="970.585" stroke-width="0.25" stroke="rgb(0,0,0)" />
	<line x1="304.456" y1="970.585" x2="152.522" y2="860.198" stroke-width="0.25" stroke="rgb(0,0,0)" />
	<line x1="152.522" y1="861.675" x2="302.424" y2="970.585" stroke-width="0.25" stroke="rgb(0,0,0)" />
	<line x1="300.392" y1="970.585" x2="152.522" y2="863.151" stroke-width="0.25" stroke="rgb(0,0,0)" />
	<line x1="152.522" y1="864.627" x2="298.36" y2="970.585" stroke-width="0.25" stroke="rgb(0,0,0)" />
	<line x1="296.328" y1="970.585" x2="152.522" y2="866.103" stroke-width="0.25" stroke="rgb(0,0,0)" />
	<line x1="152.522" y1="867.58" x2="294.296" y2="970.585" stroke-width="0.25" stroke="rgb(0,0,0)" />
	<line x1="292.265" y1="970.585" x2="152.522" y2="869.056" stroke-width="0.25" stroke="rgb(0,0,0)" />
	<line x1="152.522" y1="870.532" x2="290.233" y2="970.585" stroke-width="0.25" stroke="rgb(0,0,0)" />
	<line x1="288.201" y1="970.585" x2="152.522" y2="872.008" stroke-width="0.25" stroke="rgb(0,0,0)" />
	<line x1="152.522" y1="873.485" x2="286.169" y2="970.585" stroke-width="0.25" stroke="rgb(0,0,0)" />
	<line x1="284.137" y1="970.585" x2="152.522" y2="874.961" stroke-width="0.25" stroke="rgb(0,0,0)" />
	<line x1="152.522" y1="876.437" x2="282.105" y2="970.585" stroke-width="0.25" stroke="rgb(0,0,0)" />
	<line x1="280.073" y1="970.585" x2="152.522" y2="877.913" stroke-width="0.25" stroke="rgb(0,0,0)" />
	<line x1="152.522" y1="879.39" x2="278.041" y2="970.585" stroke-width="0.25" stroke="rgb(0,0,0)" />
	<line x1="276.01" y1="970.585" x2="152.522" y2="880.866" stroke-width="0.25" stroke="rgb(0,0,0)" />
	<line x1="152.522" y1="882.342" x2="273.978" y2="970.585" stroke-width="0.25" stroke="rgb(0,0,0)" />
	<line x1="271.946" y1="970.585" x2="152.522" y2="883.818" stroke-width="0.25" stroke="rgb(0,0,0)" />
	<line x1="152.522" y1="885.295" x2="269.914" y2="970.585" stroke-width="0.25" stroke="rgb(0,0,0)" />
	<line x1="267.882" y1="970.585" x2="152.522" y2="886.771" stroke-width="0.25" stroke="rgb(0,0,0)" />
	<line x1="152.522" y1="888.247" x2="265.85" y2="970.585" stroke-width="0.25" stroke="rgb(0,0,0)" />
	<line x1="263.818" y1="970.585" x2="152.522" y2="889.723" stroke-width="0.25" stroke="rgb(0,0,0)" />
	<line x1="152.522" y1="891.2" x2="261.786" y2="970.585" stroke-width="0.25" stroke="rgb(0,0,0)" />
	<line x1="259.755" y1="970.585" x2="152.522" y2="892.676" stroke-width="0.25" stroke="rgb(0,0,0)" />
	<line x1="152.522" y1="894.152" x2="257.723" y2="970.585" stroke-width="0.25" stroke="rgb(0,0,0)" />
	<line x1="255.691" y1="970.585" x2="152.522" y2="895.628" stroke-width="0.25" stroke="rgb(0,0,0)" />
	<line x1="152.522" y1="897.105" x2="253.659" y2="970.585" stroke-width="0.25" stroke="rgb(0,0,0)" />
	<line x1="251.627" y1="970.585" x2="152.522" y2="898.581" stroke-width="0.25" stroke="rgb(0,0,0)" />
	<line x1="152.522" y1="900.057" x2="249.595" y2="970.585" stroke-width="0.25" stroke="rgb(0,0,0)" />
	<line x1="247.563" y1="970.585" x2="152.522" y2="901.533" stroke-width="0.25" stroke="rgb(0,0,0)" />
	<line x1="152.522" y1="903.01" x2="245.531" y2="970.585" stroke-width="0.25" stroke="rgb(0,0,0)" />
	<line x1="243.499" y1="970.585" x2="152.522" y2="904.486" stroke-width="0.25" stroke="rgb(0,0,0)" />
	<line x1="152.522" y1="905.962" x2="241.468" y2="970.585" stroke-width="0.25" stroke="rgb(0,0,0)" />
	<line x1="239.436" y1="970.585" x2="152.522" y2="907.438" stroke-width="0.25" stroke="rgb(0,0,0)" />
	<line x1="152.522" y1="908.915" x2="237.404" y2="970.585" stroke-width="0.25" stroke="rgb(0,0,0)" />
	<line x1="235.372" y1="970.585" x2="152.522" y2="910.391" stroke-width="0.25" stroke="rgb(0,0,0)" />
	<line x1="152.522" y1="911.867" x2="233.34" y2="970.585" stroke-width="0.25" stroke="rgb(0,0,0)" />
	<line x1="231.308" y1="970.585" x2="152.522" y2="913.343" stroke-width="0.25" stroke="rgb(0,0,0)" />
	<line x1="152.522" y1="914.82" x2="229.276" y2="970.585" stroke-width="0.25" stroke="rgb(0,0,0)" />
	<line x1="227.244" y1="970.585" x2="152.522" y2="916.296" stroke-width="0.25" stroke="rgb(0,0,0)" />
	<line x1="152.522" y1="917.772" x2="225.213" y2="970.585" stroke-width="0.25" stroke="rgb(0,0,0)" />
	<line x1="223.181" y1="970.585" x2="152.522" y2="919.248" stroke-width="0.25" stroke="rgb(0,0,0)" />
	<line x1="152.522" y1="920.725" x2="221.149" y2="970.585" stroke-width="0.25" stroke="rgb(0,0,0)" />
	<line x1="219.117" y1="970.585" x2="152.522" y2="922.201" stroke-width="0.25" stroke="rgb(0,0,0)" />
	<line x1="152.522" y1="923.677" x2="217.085" y2="970.585" stroke-width="0.25" stroke="rgb(0,0,0)" />
	<line x1="215.053" y1="970.585" x2="152.522" y2="925.153" stroke-width="0.25" stroke="rgb(0,0,0)" />
	<line x1="152.522" y1="926.63" x2="213.021" y2="970.585" stroke-width="0.25" stroke="rgb(0,0,0)" />
	<line x1="210.989" y1="970.585" x2="152.522" y2="928.106" stroke-width="0.25" stroke="rgb(0,0,0)" />
	<line x1="152.522" y1="929.582" x2="208.958" y2="970.585" stroke-width="0.25" stroke="rgb(0,0,0)" />
	<line x1="206.926" y1="970.585" x2="152.522" y2="931.058" stroke-width="0.25" stroke="rgb(0,0,0)" />
	<line x1="152.522" y1="932.535" x2="204.894" y2="970.585" stroke-width="0.25" stroke="rgb(0,0,0)" />
	<line x1="202.862" y1="970.585" x2="152.522" y2="934.011" stroke-width="0.25" stroke="rgb(0,0,0)" />
	<line x1="152.522" y1="935.487" x2="200.83" y2="970.585" stroke-width="0.25" stroke="rgb(0,0,0)" />
	<line x1="198.798" y1="970.585" x2="152.522" y2="936.963" stroke-width="0.25" stroke="rgb(0,0,0)" />
	<line x1="152.522" y1="938.44" x2="196.766" y2="970.585" stroke-width="0.25" stroke="rgb(0,0,0)" />
	<line x1="194.734" y1="970.585" x2="152.522" y2="939.916" stroke-width="0.25" stroke="rgb(0,0,0)" />
	<line x1="152.522" y1="941.392" x2="192.702" y2="970.585" stroke-width="0.25" stroke="rgb(0,0,0)" />
	<line x1="190.671" y1="970.585" x2="152.522" y2="942.868" stroke-width="0.25" stroke="rgb(0,0,0)" />
	<line x1="152.522" y1="944.345" x2="188.639" y2="970.585" stroke-width="0.25" stroke="rgb(0,0,0)" />
	<line x1="186.607" y1="970.585" x2="152.522" y2="945.821" stroke-width="0.25" stroke="rgb(0,0,0)" />
	<line x1="152.522" y1="947.297" x2="184.575" y2="970.585" stroke-width="0.25" stroke="rgb(0,0,0)" />
	<line x1="182.543" y1="970.585" x2="152.522" y2="948.773" stroke-width="0.25" stroke="rgb(0,0,0)" />
	<line x1="152.522" y1="950.25" x2="180.511" y2="970.585" stroke-width="0.25" stroke="rgb(0,0,0)" />
	<line x1="178.479" y1="970.585" x2="152.522" y2="951.726" stroke-width="0.25" stroke="rgb(0,0,0)" />
	<line x1="152.522" y1="953.202" x2="176.447" y2="970.585" stroke-width="0.25" stroke="rgb(0,0,0)" />
	<line x1="174.416" y1="970.585" x2="152.522" y2="954.678" stroke-width="0.25" stroke="rgb(0,0,0)" />
	<line x1="152.522" y1="956.155" x2="172.384" y2="970.585" stroke-width="0.25" stroke="rgb(0,0,0)" />
	<line x1="170.352" y1="970.585" x2="152.522" y2="957.631" stroke-width="0.25" stroke="rgb(0,0,0)" />
	<line x1="152.522" y1="959.107" x2="168.32" y2="970.585" stroke-width="0.25" stroke="rgb(0,0,0)" />
	<line x1="166.288" y1="970.585" x2="152.522" y2="960.583" stroke-width="0.25" stroke="rgb(0,0,0)" />
	<line x1="152.522" y1="962.06" x2="164.256" y2="970.585" stroke-width="0.25" stroke="rgb(0,0,0)" />
	<line x1="162.224" y1="970.585" x2="152.522" y2="963.536" stroke-width="0.25" stroke="rgb(0,0,0)" />
	<line x1="152.522" y1="965.012" x2="160.192" y2="970.585" stroke-width="0.25" stroke="rgb(0,0,0)" />
	<line x1="158.161" y1="970.585" x2="152.522" y2="966.488" stroke-width="0.25" stroke="rgb(0,0,0)" />
	<line x1="152.522" y1="967.965" x2="156.129" y2="970.585" stroke-width="0.25" stroke="rgb(0,0,0)" />
	<line x1="154.097" y1="970.585" x2="152.522" y2="969.441" stroke-width="0.25" stroke="rgb(0,0,0)" />
</svg>
