<?xml version="1.0" standalone="no" ?>
<!DOCTYPE svg PUBLIC "-//W3C//DTD SVG 1.1//EN" "http://www.w3.org/Graphics/SVG/1.1/DTD/svg11.dtd">
<svg width="2000px" height="2000px" xmlns="http://www.w3.org/2000/svg" version="1.1" >
	<line x1="348.389" y1="1583.97" x2="335.342" y2="1570.92" stroke-width="0.25" stroke="rgb(0,0,0)" />
	<line x1="335.342" y1="1570.92" x2="150.665" y2="1570.92" stroke-width="0.25" stroke="rgb(0,0,0)" />
	<line x1="150.665" y1="1570.92" x2="150.665" y2="1768.65" stroke-width="0.25" stroke="rgb(0,0,0)" />
	<line x1="150.665" y1="1768.65" x2="348.389" y2="1768.65" stroke-width="0.25" stroke="rgb(0,0,0)" />
	<line x1="348.389" y1="1768.65" x2="348.389" y2="1583.97" stroke-width="0.25" stroke="rgb(0,0,0)" />
	<line x1="237.882" y1="885.225" x2="150.864" y2="885.225" stroke-width="0.25" stroke="rgb(0,0,0)" />
	<line x1="150.864" y1="885.225" x2="150.864" y2="972.243" stroke-width="0.25" stroke="rgb(0,0,0)" />
	<line x1="150.864" y1="972.243" x2="237.882" y2="972.243" stroke-width="0.25" stroke="rgb(0,0,0)" />
	<line x1="237.882" y1="972.243" x2="237.882" y2="885.225" stroke-width="0.25" stroke="rgb(0,0,0)" />
	<line x1="237.02" y1="886.087" x2="151.726" y2="886.087" stroke-width="0.25" stroke="rgb(0,0,0)" />
	<line x1="151.726" y1="886.087" x2="151.726" y2="971.381" stroke-width="0.25" stroke="rgb(0,0,0)" />
	<line x1="151.726" y1="971.381" x2="237.02" y2="971.381" stroke-width="0.25" stroke="rgb(0,0,0)" />
	<line x1="237.02" y1="971.381" x2="237.02" y2="886.087" stroke-width="0.25" stroke="rgb(0,0,0)" />
	<line x1="150.665" y1="1571.43" x2="151.81" y2="1570.92" stroke-width="0.25" stroke="rgb(0,0,0)" />
	<line x1="154.094" y1="1570.92" x2="150.665" y2="1572.45" stroke-width="0.25" stroke="rgb(0,0,0)" />
	<line x1="150.665" y1="1573.47" x2="156.377" y2="1570.92" stroke-width="0.25" stroke="rgb(0,0,0)" />
	<line x1="158.661" y1="1570.92" x2="150.665" y2="1574.48" stroke-width="0.25" stroke="rgb(0,0,0)" />
	<line x1="150.665" y1="1575.5" x2="160.945" y2="1570.92" stroke-width="0.25" stroke="rgb(0,0,0)" />
	<line x1="163.229" y1="1570.92" x2="150.665" y2="1576.52" stroke-width="0.25" stroke="rgb(0,0,0)" />
	<line x1="150.665" y1="1577.53" x2="165.513" y2="1570.92" stroke-width="0.25" stroke="rgb(0,0,0)" />
	<line x1="167.796" y1="1570.92" x2="150.665" y2="1578.55" stroke-width="0.25" stroke="rgb(0,0,0)" />
	<line x1="150.665" y1="1579.57" x2="170.08" y2="1570.92" stroke-width="0.25" stroke="rgb(0,0,0)" />
	<line x1="172.364" y1="1570.92" x2="150.665" y2="1580.59" stroke-width="0.25" stroke="rgb(0,0,0)" />
	<line x1="150.665" y1="1581.6" x2="174.648" y2="1570.92" stroke-width="0.25" stroke="rgb(0,0,0)" />
	<line x1="176.932" y1="1570.92" x2="150.665" y2="1582.62" stroke-width="0.25" stroke="rgb(0,0,0)" />
	<line x1="150.665" y1="1583.64" x2="179.215" y2="1570.92" stroke-width="0.25" stroke="rgb(0,0,0)" />
	<line x1="181.499" y1="1570.92" x2="150.665" y2="1584.65" stroke-width="0.25" stroke="rgb(0,0,0)" />
	<line x1="150.665" y1="1585.67" x2="183.783" y2="1570.92" stroke-width="0.25" stroke="rgb(0,0,0)" />
	<line x1="186.067" y1="1570.92" x2="150.665" y2="1586.69" stroke-width="0.25" stroke="rgb(0,0,0)" />
	<line x1="150.665" y1="1587.7" x2="188.351" y2="1570.92" stroke-width="0.25" stroke="rgb(0,0,0)" />
	<line x1="190.635" y1="1570.92" x2="150.665" y2="1588.72" stroke-width="0.25" stroke="rgb(0,0,0)" />
	<line x1="150.665" y1="1589.74" x2="192.918" y2="1570.92" stroke-width="0.25" stroke="rgb(0,0,0)" />
	<line x1="195.202" y1="1570.92" x2="150.665" y2="1590.75" stroke-width="0.25" stroke="rgb(0,0,0)" />
	<line x1="150.665" y1="1591.77" x2="197.486" y2="1570.92" stroke-width="0.25" stroke="rgb(0,0,0)" />
	<line x1="199.77" y1="1570.92" x2="150.665" y2="1592.79" stroke-width="0.25" stroke="rgb(0,0,0)" />
	<line x1="150.665" y1="1593.8" x2="202.054" y2="1570.92" stroke-width="0.25" stroke="rgb(0,0,0)" />
	<line x1="204.337" y1="1570.92" x2="150.665" y2="1594.82" stroke-width="0.25" stroke="rgb(0,0,0)" />
	<line x1="150.665" y1="1595.84" x2="206.621" y2="1570.92" stroke-width="0.25" stroke="rgb(0,0,0)" />
	<line x1="208.905" y1="1570.92" x2="150.665" y2="1596.85" stroke-width="0.25" stroke="rgb(0,0,0)" />
	<line x1="150.665" y1="1597.87" x2="211.189" y2="1570.92" stroke-width="0.25" stroke="rgb(0,0,0)" />
	<line x1="213.473" y1="1570.92" x2="150.665" y2="1598.89" stroke-width="0.25" stroke="rgb(0,0,0)" />
	<line x1="150.665" y1="1599.9" x2="215.756" y2="1570.92" stroke-width="0.25" stroke="rgb(0,0,0)" />
	<line x1="218.04" y1="1570.92" x2="150.665" y2="1600.92" stroke-width="0.25" stroke="rgb(0,0,0)" />
	<line x1="150.665" y1="1601.94" x2="220.324" y2="1570.92" stroke-width="0.25" stroke="rgb(0,0,0)" />
	<line x1="222.608" y1="1570.92" x2="150.665" y2="1602.96" stroke-width="0.25" stroke="rgb(0,0,0)" />
	<line x1="150.665" y1="1603.97" x2="224.892" y2="1570.92" stroke-width="0.25" stroke="rgb(0,0,0)" />
	<line x1="227.175" y1="1570.92" x2="150.665" y2="1604.99" stroke-width="0.25" stroke="rgb(0,0,0)" />
	<line x1="150.665" y1="1606.01" x2="229.459" y2="1570.92" stroke-width="0.25" stroke="rgb(0,0,0)" />
	<line x1="231.743" y1="1570.92" x2="150.665" y2="1607.02" stroke-width="0.25" stroke="rgb(0,0,0)" />
	<line x1="150.665" y1="1608.04" x2="234.027" y2="1570.92" stroke-width="0.25" stroke="rgb(0,0,0)" />
	<line x1="236.311" y1="1570.92" x2="150.665" y2="1609.06" stroke-width="0.25" stroke="rgb(0,0,0)" />
	<line x1="150.665" y1="1610.07" x2="238.594" y2="1570.92" stroke-width="0.25" stroke="rgb(0,0,0)" />
	<line x1="240.878" y1="1570.92" x2="150.665" y2="1611.09" stroke-width="0.25" stroke="rgb(0,0,0)" />
	<line x1="150.665" y1="1612.11" x2="243.162" y2="1570.92" stroke-width="0.25" stroke="rgb(0,0,0)" />
	<line x1="245.446" y1="1570.92" x2="150.665" y2="1613.12" stroke-width="0.25" stroke="rgb(0,0,0)" />
	<line x1="150.665" y1="1614.14" x2="247.73" y2="1570.92" stroke-width="0.25" stroke="rgb(0,0,0)" />
	<line x1="250.013" y1="1570.92" x2="150.665" y2="1615.16" stroke-width="0.25" stroke="rgb(0,0,0)" />
	<line x1="150.665" y1="1616.17" x2="252.297" y2="1570.92" stroke-width="0.25" stroke="rgb(0,0,0)" />
	<line x1="254.581" y1="1570.92" x2="150.665" y2="1617.19" stroke-width="0.25" stroke="rgb(0,0,0)" />
	<line x1="150.665" y1="1618.21" x2="256.865" y2="1570.92" stroke-width="0.25" stroke="rgb(0,0,0)" />
	<line x1="259.149" y1="1570.92" x2="150.665" y2="1619.22" stroke-width="0.25" stroke="rgb(0,0,0)" />
	<line x1="150.665" y1="1620.24" x2="261.432" y2="1570.92" stroke-width="0.25" stroke="rgb(0,0,0)" />
	<line x1="263.716" y1="1570.92" x2="150.665" y2="1621.26" stroke-width="0.25" stroke="rgb(0,0,0)" />
	<line x1="150.665" y1="1622.27" x2="266" y2="1570.92" stroke-width="0.25" stroke="rgb(0,0,0)" />
	<line x1="268.284" y1="1570.92" x2="150.665" y2="1623.29" stroke-width="0.25" stroke="rgb(0,0,0)" />
	<line x1="150.665" y1="1624.31" x2="270.568" y2="1570.92" stroke-width="0.25" stroke="rgb(0,0,0)" />
	<line x1="272.851" y1="1570.92" x2="150.665" y2="1625.33" stroke-width="0.25" stroke="rgb(0,0,0)" />
	<line x1="150.665" y1="1626.34" x2="275.135" y2="1570.92" stroke-width="0.25" stroke="rgb(0,0,0)" />
	<line x1="277.419" y1="1570.92" x2="150.665" y2="1627.36" stroke-width="0.25" stroke="rgb(0,0,0)" />
	<line x1="150.665" y1="1628.38" x2="279.703" y2="1570.92" stroke-width="0.25" stroke="rgb(0,0,0)" />
	<line x1="281.987" y1="1570.92" x2="150.665" y2="1629.39" stroke-width="0.25" stroke="rgb(0,0,0)" />
	<line x1="150.665" y1="1630.41" x2="284.27" y2="1570.92" stroke-width="0.25" stroke="rgb(0,0,0)" />
	<line x1="286.554" y1="1570.92" x2="150.665" y2="1631.43" stroke-width="0.25" stroke="rgb(0,0,0)" />
	<line x1="150.665" y1="1632.44" x2="288.838" y2="1570.92" stroke-width="0.25" stroke="rgb(0,0,0)" />
	<line x1="291.122" y1="1570.92" x2="150.665" y2="1633.46" stroke-width="0.25" stroke="rgb(0,0,0)" />
	<line x1="150.665" y1="1634.48" x2="293.406" y2="1570.92" stroke-width="0.25" stroke="rgb(0,0,0)" />
	<line x1="295.69" y1="1570.92" x2="150.665" y2="1635.49" stroke-width="0.25" stroke="rgb(0,0,0)" />
	<line x1="150.665" y1="1636.51" x2="297.973" y2="1570.92" stroke-width="0.25" stroke="rgb(0,0,0)" />
	<line x1="300.257" y1="1570.92" x2="150.665" y2="1637.53" stroke-width="0.25" stroke="rgb(0,0,0)" />
	<line x1="150.665" y1="1638.54" x2="302.541" y2="1570.92" stroke-width="0.25" stroke="rgb(0,0,0)" />
	<line x1="304.825" y1="1570.92" x2="150.665" y2="1639.56" stroke-width="0.25" stroke="rgb(0,0,0)" />
	<line x1="150.665" y1="1640.58" x2="307.109" y2="1570.92" stroke-width="0.25" stroke="rgb(0,0,0)" />
	<line x1="309.392" y1="1570.92" x2="150.665" y2="1641.59" stroke-width="0.25" stroke="rgb(0,0,0)" />
	<line x1="150.665" y1="1642.61" x2="311.676" y2="1570.92" stroke-width="0.25" stroke="rgb(0,0,0)" />
	<line x1="313.96" y1="1570.92" x2="150.665" y2="1643.63" stroke-width="0.25" stroke="rgb(0,0,0)" />
	<line x1="150.665" y1="1644.64" x2="316.244" y2="1570.92" stroke-width="0.25" stroke="rgb(0,0,0)" />
	<line x1="318.528" y1="1570.92" x2="150.665" y2="1645.66" stroke-width="0.25" stroke="rgb(0,0,0)" />
	<line x1="150.665" y1="1646.68" x2="320.811" y2="1570.92" stroke-width="0.25" stroke="rgb(0,0,0)" />
	<line x1="323.095" y1="1570.92" x2="150.665" y2="1647.7" stroke-width="0.25" stroke="rgb(0,0,0)" />
	<line x1="150.665" y1="1648.71" x2="325.379" y2="1570.92" stroke-width="0.25" stroke="rgb(0,0,0)" />
	<line x1="327.663" y1="1570.92" x2="150.665" y2="1649.73" stroke-width="0.25" stroke="rgb(0,0,0)" />
	<line x1="150.665" y1="1650.75" x2="329.947" y2="1570.92" stroke-width="0.25" stroke="rgb(0,0,0)" />
	<line x1="332.23" y1="1570.92" x2="150.665" y2="1651.76" stroke-width="0.25" stroke="rgb(0,0,0)" />
	<line x1="150.665" y1="1652.78" x2="334.514" y2="1570.92" stroke-width="0.25" stroke="rgb(0,0,0)" />
	<line x1="335.79" y1="1571.37" x2="150.665" y2="1653.8" stroke-width="0.25" stroke="rgb(0,0,0)" />
	<line x1="150.665" y1="1654.81" x2="336.494" y2="1572.08" stroke-width="0.25" stroke="rgb(0,0,0)" />
	<line x1="337.197" y1="1572.78" x2="150.665" y2="1655.83" stroke-width="0.25" stroke="rgb(0,0,0)" />
	<line x1="150.665" y1="1656.85" x2="337.901" y2="1573.48" stroke-width="0.25" stroke="rgb(0,0,0)" />
	<line x1="338.605" y1="1574.19" x2="150.665" y2="1657.86" stroke-width="0.25" stroke="rgb(0,0,0)" />
	<line x1="150.665" y1="1658.88" x2="339.308" y2="1574.89" stroke-width="0.25" stroke="rgb(0,0,0)" />
	<line x1="340.012" y1="1575.59" x2="150.665" y2="1659.9" stroke-width="0.25" stroke="rgb(0,0,0)" />
	<line x1="150.665" y1="1660.91" x2="340.715" y2="1576.3" stroke-width="0.25" stroke="rgb(0,0,0)" />
	<line x1="341.419" y1="1577" x2="150.665" y2="1661.93" stroke-width="0.25" stroke="rgb(0,0,0)" />
	<line x1="150.665" y1="1662.95" x2="342.122" y2="1577.7" stroke-width="0.25" stroke="rgb(0,0,0)" />
	<line x1="342.826" y1="1578.41" x2="150.665" y2="1663.96" stroke-width="0.25" stroke="rgb(0,0,0)" />
	<line x1="150.665" y1="1664.98" x2="343.529" y2="1579.11" stroke-width="0.25" stroke="rgb(0,0,0)" />
	<line x1="344.233" y1="1579.82" x2="150.665" y2="1666" stroke-width="0.25" stroke="rgb(0,0,0)" />
	<line x1="150.665" y1="1667.01" x2="344.937" y2="1580.52" stroke-width="0.25" stroke="rgb(0,0,0)" />
	<line x1="345.64" y1="1581.22" x2="150.665" y2="1668.03" stroke-width="0.25" stroke="rgb(0,0,0)" />
	<line x1="150.665" y1="1669.05" x2="346.344" y2="1581.93" stroke-width="0.25" stroke="rgb(0,0,0)" />
	<line x1="347.047" y1="1582.63" x2="150.665" y2="1670.07" stroke-width="0.25" stroke="rgb(0,0,0)" />
	<line x1="150.665" y1="1671.08" x2="347.751" y2="1583.33" stroke-width="0.25" stroke="rgb(0,0,0)" />
	<line x1="348.389" y1="1584.07" x2="150.665" y2="1672.1" stroke-width="0.25" stroke="rgb(0,0,0)" />
	<line x1="150.665" y1="1673.12" x2="348.389" y2="1585.08" stroke-width="0.25" stroke="rgb(0,0,0)" />
	<line x1="348.389" y1="1586.1" x2="150.665" y2="1674.13" stroke-width="0.25" stroke="rgb(0,0,0)" />
	<line x1="150.665" y1="1675.15" x2="348.389" y2="1587.12" stroke-width="0.25" stroke="rgb(0,0,0)" />
	<line x1="348.389" y1="1588.13" x2="150.665" y2="1676.17" stroke-width="0.25" stroke="rgb(0,0,0)" />
	<line x1="150.665" y1="1677.18" x2="348.389" y2="1589.15" stroke-width="0.25" stroke="rgb(0,0,0)" />
	<line x1="348.389" y1="1590.17" x2="150.665" y2="1678.2" stroke-width="0.25" stroke="rgb(0,0,0)" />
	<line x1="150.665" y1="1679.22" x2="348.389" y2="1591.18" stroke-width="0.25" stroke="rgb(0,0,0)" />
	<line x1="348.389" y1="1592.2" x2="150.665" y2="1680.23" stroke-width="0.25" stroke="rgb(0,0,0)" />
	<line x1="150.665" y1="1681.25" x2="348.389" y2="1593.22" stroke-width="0.25" stroke="rgb(0,0,0)" />
	<line x1="348.389" y1="1594.23" x2="150.665" y2="1682.27" stroke-width="0.25" stroke="rgb(0,0,0)" />
	<line x1="150.665" y1="1683.28" x2="348.389" y2="1595.25" stroke-width="0.25" stroke="rgb(0,0,0)" />
	<line x1="348.389" y1="1596.27" x2="150.665" y2="1684.3" stroke-width="0.25" stroke="rgb(0,0,0)" />
	<line x1="150.665" y1="1685.32" x2="348.389" y2="1597.28" stroke-width="0.25" stroke="rgb(0,0,0)" />
	<line x1="348.389" y1="1598.3" x2="150.665" y2="1686.33" stroke-width="0.25" stroke="rgb(0,0,0)" />
	<line x1="150.665" y1="1687.35" x2="348.389" y2="1599.32" stroke-width="0.25" stroke="rgb(0,0,0)" />
	<line x1="348.389" y1="1600.34" x2="150.665" y2="1688.37" stroke-width="0.25" stroke="rgb(0,0,0)" />
	<line x1="150.665" y1="1689.38" x2="348.389" y2="1601.35" stroke-width="0.25" stroke="rgb(0,0,0)" />
	<line x1="348.389" y1="1602.37" x2="150.665" y2="1690.4" stroke-width="0.25" stroke="rgb(0,0,0)" />
	<line x1="150.665" y1="1691.42" x2="348.389" y2="1603.39" stroke-width="0.25" stroke="rgb(0,0,0)" />
	<line x1="348.389" y1="1604.4" x2="150.665" y2="1692.43" stroke-width="0.25" stroke="rgb(0,0,0)" />
	<line x1="150.665" y1="1693.45" x2="348.389" y2="1605.42" stroke-width="0.25" stroke="rgb(0,0,0)" />
	<line x1="348.389" y1="1606.44" x2="150.665" y2="1694.47" stroke-width="0.25" stroke="rgb(0,0,0)" />
	<line x1="150.665" y1="1695.49" x2="348.389" y2="1607.45" stroke-width="0.25" stroke="rgb(0,0,0)" />
	<line x1="348.389" y1="1608.47" x2="150.665" y2="1696.5" stroke-width="0.25" stroke="rgb(0,0,0)" />
	<line x1="150.665" y1="1697.52" x2="348.389" y2="1609.49" stroke-width="0.25" stroke="rgb(0,0,0)" />
	<line x1="348.389" y1="1610.5" x2="150.665" y2="1698.54" stroke-width="0.25" stroke="rgb(0,0,0)" />
	<line x1="150.665" y1="1699.55" x2="348.389" y2="1611.52" stroke-width="0.25" stroke="rgb(0,0,0)" />
	<line x1="348.389" y1="1612.54" x2="150.665" y2="1700.57" stroke-width="0.25" stroke="rgb(0,0,0)" />
	<line x1="150.665" y1="1701.59" x2="348.389" y2="1613.55" stroke-width="0.25" stroke="rgb(0,0,0)" />
	<line x1="348.389" y1="1614.57" x2="150.665" y2="1702.6" stroke-width="0.25" stroke="rgb(0,0,0)" />
	<line x1="150.665" y1="1703.62" x2="348.389" y2="1615.59" stroke-width="0.25" stroke="rgb(0,0,0)" />
	<line x1="348.389" y1="1616.6" x2="150.665" y2="1704.64" stroke-width="0.25" stroke="rgb(0,0,0)" />
	<line x1="150.665" y1="1705.65" x2="348.389" y2="1617.62" stroke-width="0.25" stroke="rgb(0,0,0)" />
	<line x1="348.389" y1="1618.64" x2="150.665" y2="1706.67" stroke-width="0.25" stroke="rgb(0,0,0)" />
	<line x1="150.665" y1="1707.69" x2="348.389" y2="1619.65" stroke-width="0.25" stroke="rgb(0,0,0)" />
	<line x1="348.389" y1="1620.67" x2="150.665" y2="1708.7" stroke-width="0.25" stroke="rgb(0,0,0)" />
	<line x1="150.665" y1="1709.72" x2="348.389" y2="1621.69" stroke-width="0.25" stroke="rgb(0,0,0)" />
	<line x1="348.389" y1="1622.71" x2="150.665" y2="1710.74" stroke-width="0.25" stroke="rgb(0,0,0)" />
	<line x1="150.665" y1="1711.75" x2="348.389" y2="1623.72" stroke-width="0.25" stroke="rgb(0,0,0)" />
	<line x1="348.389" y1="1624.74" x2="150.665" y2="1712.77" stroke-width="0.25" stroke="rgb(0,0,0)" />
	<line x1="150.665" y1="1713.79" x2="348.389" y2="1625.76" stroke-width="0.25" stroke="rgb(0,0,0)" />
	<line x1="348.389" y1="1626.77" x2="150.665" y2="1714.8" stroke-width="0.25" stroke="rgb(0,0,0)" />
	<line x1="150.665" y1="1715.82" x2="348.389" y2="1627.79" stroke-width="0.25" stroke="rgb(0,0,0)" />
	<line x1="348.389" y1="1628.81" x2="150.665" y2="1716.84" stroke-width="0.25" stroke="rgb(0,0,0)" />
	<line x1="150.665" y1="1717.86" x2="348.389" y2="1629.82" stroke-width="0.25" stroke="rgb(0,0,0)" />
	<line x1="348.389" y1="1630.84" x2="150.665" y2="1718.87" stroke-width="0.25" stroke="rgb(0,0,0)" />
	<line x1="150.665" y1="1719.89" x2="348.389" y2="1631.86" stroke-width="0.25" stroke="rgb(0,0,0)" />
	<line x1="348.389" y1="1632.87" x2="150.665" y2="1720.91" stroke-width="0.25" stroke="rgb(0,0,0)" />
	<line x1="150.665" y1="1721.92" x2="348.389" y2="1633.89" stroke-width="0.25" stroke="rgb(0,0,0)" />
	<line x1="348.389" y1="1634.91" x2="150.665" y2="1722.94" stroke-width="0.25" stroke="rgb(0,0,0)" />
	<line x1="150.665" y1="1723.96" x2="348.389" y2="1635.92" stroke-width="0.25" stroke="rgb(0,0,0)" />
	<line x1="348.389" y1="1636.94" x2="150.665" y2="1724.97" stroke-width="0.25" stroke="rgb(0,0,0)" />
	<line x1="150.665" y1="1725.99" x2="348.389" y2="1637.96" stroke-width="0.25" stroke="rgb(0,0,0)" />
	<line x1="348.389" y1="1638.97" x2="150.665" y2="1727.01" stroke-width="0.25" stroke="rgb(0,0,0)" />
	<line x1="150.665" y1="1728.02" x2="348.389" y2="1639.99" stroke-width="0.25" stroke="rgb(0,0,0)" />
	<line x1="348.389" y1="1641.01" x2="150.665" y2="1729.04" stroke-width="0.25" stroke="rgb(0,0,0)" />
	<line x1="150.665" y1="1730.06" x2="348.389" y2="1642.02" stroke-width="0.25" stroke="rgb(0,0,0)" />
	<line x1="348.389" y1="1643.04" x2="150.665" y2="1731.07" stroke-width="0.25" stroke="rgb(0,0,0)" />
	<line x1="150.665" y1="1732.09" x2="348.389" y2="1644.06" stroke-width="0.25" stroke="rgb(0,0,0)" />
	<line x1="348.389" y1="1645.07" x2="150.665" y2="1733.11" stroke-width="0.25" stroke="rgb(0,0,0)" />
	<line x1="150.665" y1="1734.12" x2="348.389" y2="1646.09" stroke-width="0.25" stroke="rgb(0,0,0)" />
	<line x1="348.389" y1="1647.11" x2="150.665" y2="1735.14" stroke-width="0.25" stroke="rgb(0,0,0)" />
	<line x1="150.665" y1="1736.16" x2="348.389" y2="1648.13" stroke-width="0.25" stroke="rgb(0,0,0)" />
	<line x1="348.389" y1="1649.14" x2="150.665" y2="1737.17" stroke-width="0.25" stroke="rgb(0,0,0)" />
	<line x1="150.665" y1="1738.19" x2="348.389" y2="1650.16" stroke-width="0.25" stroke="rgb(0,0,0)" />
	<line x1="348.389" y1="1651.18" x2="150.665" y2="1739.21" stroke-width="0.25" stroke="rgb(0,0,0)" />
	<line x1="150.665" y1="1740.23" x2="348.389" y2="1652.19" stroke-width="0.25" stroke="rgb(0,0,0)" />
	<line x1="348.389" y1="1653.21" x2="150.665" y2="1741.24" stroke-width="0.25" stroke="rgb(0,0,0)" />
	<line x1="150.665" y1="1742.26" x2="348.389" y2="1654.23" stroke-width="0.25" stroke="rgb(0,0,0)" />
	<line x1="348.389" y1="1655.24" x2="150.665" y2="1743.28" stroke-width="0.25" stroke="rgb(0,0,0)" />
	<line x1="150.665" y1="1744.29" x2="348.389" y2="1656.26" stroke-width="0.25" stroke="rgb(0,0,0)" />
	<line x1="348.389" y1="1657.28" x2="150.665" y2="1745.31" stroke-width="0.25" stroke="rgb(0,0,0)" />
	<line x1="150.665" y1="1746.33" x2="348.389" y2="1658.29" stroke-width="0.25" stroke="rgb(0,0,0)" />
	<line x1="348.389" y1="1659.31" x2="150.665" y2="1747.34" stroke-width="0.25" stroke="rgb(0,0,0)" />
	<line x1="150.665" y1="1748.36" x2="348.389" y2="1660.33" stroke-width="0.25" stroke="rgb(0,0,0)" />
	<line x1="348.389" y1="1661.34" x2="150.665" y2="1749.38" stroke-width="0.25" stroke="rgb(0,0,0)" />
	<line x1="150.665" y1="1750.39" x2="348.389" y2="1662.36" stroke-width="0.25" stroke="rgb(0,0,0)" />
	<line x1="348.389" y1="1663.38" x2="150.665" y2="1751.41" stroke-width="0.25" stroke="rgb(0,0,0)" />
	<line x1="150.665" y1="1752.43" x2="348.389" y2="1664.39" stroke-width="0.25" stroke="rgb(0,0,0)" />
	<line x1="348.389" y1="1665.41" x2="150.665" y2="1753.44" stroke-width="0.25" stroke="rgb(0,0,0)" />
	<line x1="150.665" y1="1754.46" x2="348.389" y2="1666.43" stroke-width="0.25" stroke="rgb(0,0,0)" />
	<line x1="348.389" y1="1667.44" x2="150.665" y2="1755.48" stroke-width="0.25" stroke="rgb(0,0,0)" />
	<line x1="150.665" y1="1756.49" x2="348.389" y2="1668.46" stroke-width="0.25" stroke="rgb(0,0,0)" />
	<line x1="348.389" y1="1669.48" x2="150.665" y2="1757.51" stroke-width="0.25" stroke="rgb(0,0,0)" />
	<line x1="150.665" y1="1758.53" x2="348.389" y2="1670.5" stroke-width="0.25" stroke="rgb(0,0,0)" />
	<line x1="348.389" y1="1671.51" x2="150.665" y2="1759.54" stroke-width="0.25" stroke="rgb(0,0,0)" />
	<line x1="150.665" y1="1760.56" x2="348.389" y2="1672.53" stroke-width="0.25" stroke="rgb(0,0,0)" />
	<line x1="348.389" y1="1673.55" x2="150.665" y2="1761.58" stroke-width="0.25" stroke="rgb(0,0,0)" />
	<line x1="150.665" y1="1762.6" x2="348.389" y2="1674.56" stroke-width="0.25" stroke="rgb(0,0,0)" />
	<line x1="348.389" y1="1675.58" x2="150.665" y2="1763.61" stroke-width="0.25" stroke="rgb(0,0,0)" />
	<line x1="150.665" y1="1764.63" x2="348.389" y2="1676.6" stroke-width="0.25" stroke="rgb(0,0,0)" />
	<line x1="348.389" y1="1677.61" x2="150.665" y2="1765.65" stroke-width="0.25" stroke="rgb(0,0,0)" />
	<line x1="150.665" y1="1766.66" x2="348.389" y2="1678.63" stroke-width="0.25" stroke="rgb(0,0,0)" />
	<line x1="348.389" y1="1679.65" x2="150.665" y2="1767.68" stroke-width="0.25" stroke="rgb(0,0,0)" />
	<line x1="150.771" y1="1768.65" x2="348.389" y2="1680.66" stroke-width="0.25" stroke="rgb(0,0,0)" />
	<line x1="348.389" y1="1681.68" x2="153.055" y2="1768.65" stroke-width="0.25" stroke="rgb(0,0,0)" />
	<line x1="155.339" y1="1768.65" x2="348.389" y2="1682.7" stroke-width="0.25" stroke="rgb(0,0,0)" />
	<line x1="348.389" y1="1683.71" x2="157.623" y2="1768.65" stroke-width="0.25" stroke="rgb(0,0,0)" />
	<line x1="159.907" y1="1768.65" x2="348.389" y2="1684.73" stroke-width="0.25" stroke="rgb(0,0,0)" />
	<line x1="348.389" y1="1685.75" x2="162.19" y2="1768.65" stroke-width="0.25" stroke="rgb(0,0,0)" />
	<line x1="164.474" y1="1768.65" x2="348.389" y2="1686.76" stroke-width="0.25" stroke="rgb(0,0,0)" />
	<line x1="348.389" y1="1687.78" x2="166.758" y2="1768.65" stroke-width="0.25" stroke="rgb(0,0,0)" />
	<line x1="169.042" y1="1768.65" x2="348.389" y2="1688.8" stroke-width="0.25" stroke="rgb(0,0,0)" />
	<line x1="348.389" y1="1689.81" x2="171.326" y2="1768.65" stroke-width="0.25" stroke="rgb(0,0,0)" />
	<line x1="173.609" y1="1768.65" x2="348.389" y2="1690.83" stroke-width="0.25" stroke="rgb(0,0,0)" />
	<line x1="348.389" y1="1691.85" x2="175.893" y2="1768.65" stroke-width="0.25" stroke="rgb(0,0,0)" />
	<line x1="178.177" y1="1768.65" x2="348.389" y2="1692.87" stroke-width="0.25" stroke="rgb(0,0,0)" />
	<line x1="348.389" y1="1693.88" x2="180.461" y2="1768.65" stroke-width="0.25" stroke="rgb(0,0,0)" />
	<line x1="182.745" y1="1768.65" x2="348.389" y2="1694.9" stroke-width="0.25" stroke="rgb(0,0,0)" />
	<line x1="348.389" y1="1695.92" x2="185.029" y2="1768.65" stroke-width="0.25" stroke="rgb(0,0,0)" />
	<line x1="187.312" y1="1768.65" x2="348.389" y2="1696.93" stroke-width="0.25" stroke="rgb(0,0,0)" />
	<line x1="348.389" y1="1697.95" x2="189.596" y2="1768.65" stroke-width="0.25" stroke="rgb(0,0,0)" />
	<line x1="191.88" y1="1768.65" x2="348.389" y2="1698.97" stroke-width="0.25" stroke="rgb(0,0,0)" />
	<line x1="348.389" y1="1699.98" x2="194.164" y2="1768.65" stroke-width="0.25" stroke="rgb(0,0,0)" />
	<line x1="196.448" y1="1768.65" x2="348.389" y2="1701" stroke-width="0.25" stroke="rgb(0,0,0)" />
	<line x1="348.389" y1="1702.02" x2="198.731" y2="1768.65" stroke-width="0.25" stroke="rgb(0,0,0)" />
	<line x1="201.015" y1="1768.65" x2="348.389" y2="1703.03" stroke-width="0.25" stroke="rgb(0,0,0)" />
	<line x1="348.389" y1="1704.05" x2="203.299" y2="1768.65" stroke-width="0.25" stroke="rgb(0,0,0)" />
	<line x1="205.583" y1="1768.65" x2="348.389" y2="1705.07" stroke-width="0.25" stroke="rgb(0,0,0)" />
	<line x1="348.389" y1="1706.08" x2="207.867" y2="1768.65" stroke-width="0.25" stroke="rgb(0,0,0)" />
	<line x1="210.15" y1="1768.65" x2="348.389" y2="1707.1" stroke-width="0.25" stroke="rgb(0,0,0)" />
	<line x1="348.389" y1="1708.12" x2="212.434" y2="1768.65" stroke-width="0.25" stroke="rgb(0,0,0)" />
	<line x1="214.718" y1="1768.65" x2="348.389" y2="1709.13" stroke-width="0.25" stroke="rgb(0,0,0)" />
	<line x1="348.389" y1="1710.15" x2="217.002" y2="1768.65" stroke-width="0.25" stroke="rgb(0,0,0)" />
	<line x1="219.286" y1="1768.65" x2="348.389" y2="1711.17" stroke-width="0.25" stroke="rgb(0,0,0)" />
	<line x1="348.389" y1="1712.18" x2="221.569" y2="1768.65" stroke-width="0.25" stroke="rgb(0,0,0)" />
	<line x1="223.853" y1="1768.65" x2="348.389" y2="1713.2" stroke-width="0.25" stroke="rgb(0,0,0)" />
	<line x1="348.389" y1="1714.22" x2="226.137" y2="1768.65" stroke-width="0.25" stroke="rgb(0,0,0)" />
	<line x1="228.421" y1="1768.65" x2="348.389" y2="1715.24" stroke-width="0.25" stroke="rgb(0,0,0)" />
	<line x1="348.389" y1="1716.25" x2="230.705" y2="1768.65" stroke-width="0.25" stroke="rgb(0,0,0)" />
	<line x1="232.988" y1="1768.65" x2="348.389" y2="1717.27" stroke-width="0.25" stroke="rgb(0,0,0)" />
	<line x1="348.389" y1="1718.29" x2="235.272" y2="1768.65" stroke-width="0.25" stroke="rgb(0,0,0)" />
	<line x1="237.556" y1="1768.65" x2="348.389" y2="1719.3" stroke-width="0.25" stroke="rgb(0,0,0)" />
	<line x1="348.389" y1="1720.32" x2="239.84" y2="1768.65" stroke-width="0.25" stroke="rgb(0,0,0)" />
	<line x1="242.124" y1="1768.65" x2="348.389" y2="1721.34" stroke-width="0.25" stroke="rgb(0,0,0)" />
	<line x1="348.389" y1="1722.35" x2="244.407" y2="1768.65" stroke-width="0.25" stroke="rgb(0,0,0)" />
	<line x1="246.691" y1="1768.65" x2="348.389" y2="1723.37" stroke-width="0.25" stroke="rgb(0,0,0)" />
	<line x1="348.389" y1="1724.39" x2="248.975" y2="1768.65" stroke-width="0.25" stroke="rgb(0,0,0)" />
	<line x1="251.259" y1="1768.65" x2="348.389" y2="1725.4" stroke-width="0.25" stroke="rgb(0,0,0)" />
	<line x1="348.389" y1="1726.42" x2="253.543" y2="1768.65" stroke-width="0.25" stroke="rgb(0,0,0)" />
	<line x1="255.826" y1="1768.65" x2="348.389" y2="1727.44" stroke-width="0.25" stroke="rgb(0,0,0)" />
	<line x1="348.389" y1="1728.45" x2="258.11" y2="1768.65" stroke-width="0.25" stroke="rgb(0,0,0)" />
	<line x1="260.394" y1="1768.65" x2="348.389" y2="1729.47" stroke-width="0.25" stroke="rgb(0,0,0)" />
	<line x1="348.389" y1="1730.49" x2="262.678" y2="1768.65" stroke-width="0.25" stroke="rgb(0,0,0)" />
	<line x1="264.962" y1="1768.65" x2="348.389" y2="1731.5" stroke-width="0.25" stroke="rgb(0,0,0)" />
	<line x1="348.389" y1="1732.52" x2="267.245" y2="1768.65" stroke-width="0.25" stroke="rgb(0,0,0)" />
	<line x1="269.529" y1="1768.65" x2="348.389" y2="1733.54" stroke-width="0.25" stroke="rgb(0,0,0)" />
	<line x1="348.389" y1="1734.55" x2="271.813" y2="1768.65" stroke-width="0.25" stroke="rgb(0,0,0)" />
	<line x1="274.097" y1="1768.65" x2="348.389" y2="1735.57" stroke-width="0.25" stroke="rgb(0,0,0)" />
	<line x1="348.389" y1="1736.59" x2="276.381" y2="1768.65" stroke-width="0.25" stroke="rgb(0,0,0)" />
	<line x1="278.664" y1="1768.65" x2="348.389" y2="1737.61" stroke-width="0.25" stroke="rgb(0,0,0)" />
	<line x1="348.389" y1="1738.62" x2="280.948" y2="1768.65" stroke-width="0.25" stroke="rgb(0,0,0)" />
	<line x1="283.232" y1="1768.65" x2="348.389" y2="1739.64" stroke-width="0.25" stroke="rgb(0,0,0)" />
	<line x1="348.389" y1="1740.66" x2="285.516" y2="1768.65" stroke-width="0.25" stroke="rgb(0,0,0)" />
	<line x1="287.8" y1="1768.65" x2="348.389" y2="1741.67" stroke-width="0.25" stroke="rgb(0,0,0)" />
	<line x1="348.389" y1="1742.69" x2="290.084" y2="1768.65" stroke-width="0.25" stroke="rgb(0,0,0)" />
	<line x1="292.367" y1="1768.65" x2="348.389" y2="1743.71" stroke-width="0.25" stroke="rgb(0,0,0)" />
	<line x1="348.389" y1="1744.72" x2="294.651" y2="1768.65" stroke-width="0.25" stroke="rgb(0,0,0)" />
	<line x1="296.935" y1="1768.65" x2="348.389" y2="1745.74" stroke-width="0.25" stroke="rgb(0,0,0)" />
	<line x1="348.389" y1="1746.76" x2="299.219" y2="1768.65" stroke-width="0.25" stroke="rgb(0,0,0)" />
	<line x1="301.503" y1="1768.65" x2="348.389" y2="1747.77" stroke-width="0.25" stroke="rgb(0,0,0)" />
	<line x1="348.389" y1="1748.79" x2="303.786" y2="1768.65" stroke-width="0.25" stroke="rgb(0,0,0)" />
	<line x1="306.07" y1="1768.65" x2="348.389" y2="1749.81" stroke-width="0.25" stroke="rgb(0,0,0)" />
	<line x1="348.389" y1="1750.82" x2="308.354" y2="1768.65" stroke-width="0.25" stroke="rgb(0,0,0)" />
	<line x1="310.638" y1="1768.65" x2="348.389" y2="1751.84" stroke-width="0.25" stroke="rgb(0,0,0)" />
	<line x1="348.389" y1="1752.86" x2="312.922" y2="1768.65" stroke-width="0.25" stroke="rgb(0,0,0)" />
	<line x1="315.205" y1="1768.65" x2="348.389" y2="1753.87" stroke-width="0.25" stroke="rgb(0,0,0)" />
	<line x1="348.389" y1="1754.89" x2="317.489" y2="1768.65" stroke-width="0.25" stroke="rgb(0,0,0)" />
	<line x1="319.773" y1="1768.65" x2="348.389" y2="1755.91" stroke-width="0.25" stroke="rgb(0,0,0)" />
	<line x1="348.389" y1="1756.92" x2="322.057" y2="1768.65" stroke-width="0.25" stroke="rgb(0,0,0)" />
	<line x1="324.341" y1="1768.65" x2="348.389" y2="1757.94" stroke-width="0.25" stroke="rgb(0,0,0)" />
	<line x1="348.389" y1="1758.96" x2="326.624" y2="1768.65" stroke-width="0.25" stroke="rgb(0,0,0)" />
	<line x1="328.908" y1="1768.65" x2="348.389" y2="1759.98" stroke-width="0.25" stroke="rgb(0,0,0)" />
	<line x1="348.389" y1="1760.99" x2="331.192" y2="1768.65" stroke-width="0.25" stroke="rgb(0,0,0)" />
	<line x1="333.476" y1="1768.65" x2="348.389" y2="1762.01" stroke-width="0.25" stroke="rgb(0,0,0)" />
	<line x1="348.389" y1="1763.03" x2="335.76" y2="1768.65" stroke-width="0.25" stroke="rgb(0,0,0)" />
	<line x1="338.043" y1="1768.65" x2="348.389" y2="1764.04" stroke-width="0.25" stroke="rgb(0,0,0)" />
	<line x1="348.389" y1="1765.06" x2="340.327" y2="1768.65" stroke-width="0.25" stroke="rgb(0,0,0)" />
	<line x1="342.611" y1="1768.65" x2="348.389" y2="1766.08" stroke-width="0.25" stroke="rgb(0,0,0)" />
	<line x1="348.389" y1="1767.09" x2="344.895" y2="1768.65" stroke-width="0.25" stroke="rgb(0,0,0)" />
	<line x1="347.179" y1="1768.65" x2="348.389" y2="1768.11" stroke-width="0.25" stroke="rgb(0,0,0)" />
	<line x1="152.522" y1="887.162" x2="153.147" y2="886.884" stroke-width="0.25" stroke="rgb(0,0,0)" />
	<line x1="156.083" y1="886.884" x2="152.522" y2="888.469" stroke-width="0.25" stroke="rgb(0,0,0)" />
	<line x1="152.522" y1="889.776" x2="159.02" y2="886.884" stroke-width="0.25" stroke="rgb(0,0,0)" />
	<line x1="161.956" y1="886.884" x2="152.522" y2="891.084" stroke-width="0.25" stroke="rgb(0,0,0)" />
	<line x1="152.522" y1="892.391" x2="164.892" y2="886.884" stroke-width="0.25" stroke="rgb(0,0,0)" />
	<line x1="167.829" y1="886.884" x2="152.522" y2="893.698" stroke-width="0.25" stroke="rgb(0,0,0)" />
	<line x1="152.522" y1="895.006" x2="170.765" y2="886.884" stroke-width="0.25" stroke="rgb(0,0,0)" />
	<line x1="173.701" y1="886.884" x2="152.522" y2="896.313" stroke-width="0.25" stroke="rgb(0,0,0)" />
	<line x1="152.522" y1="897.62" x2="176.638" y2="886.884" stroke-width="0.25" stroke="rgb(0,0,0)" />
	<line x1="179.574" y1="886.884" x2="152.522" y2="898.928" stroke-width="0.25" stroke="rgb(0,0,0)" />
	<line x1="152.522" y1="900.235" x2="182.51" y2="886.884" stroke-width="0.25" stroke="rgb(0,0,0)" />
	<line x1="185.447" y1="886.884" x2="152.522" y2="901.542" stroke-width="0.25" stroke="rgb(0,0,0)" />
	<line x1="152.522" y1="902.85" x2="188.383" y2="886.884" stroke-width="0.25" stroke="rgb(0,0,0)" />
	<line x1="191.319" y1="886.884" x2="152.522" y2="904.157" stroke-width="0.25" stroke="rgb(0,0,0)" />
	<line x1="152.522" y1="905.464" x2="194.255" y2="886.884" stroke-width="0.25" stroke="rgb(0,0,0)" />
	<line x1="197.192" y1="886.884" x2="152.522" y2="906.772" stroke-width="0.25" stroke="rgb(0,0,0)" />
	<line x1="152.522" y1="908.079" x2="200.128" y2="886.884" stroke-width="0.25" stroke="rgb(0,0,0)" />
	<line x1="203.064" y1="886.884" x2="152.522" y2="909.386" stroke-width="0.25" stroke="rgb(0,0,0)" />
	<line x1="152.522" y1="910.694" x2="206.001" y2="886.884" stroke-width="0.25" stroke="rgb(0,0,0)" />
	<line x1="208.937" y1="886.884" x2="152.522" y2="912.001" stroke-width="0.25" stroke="rgb(0,0,0)" />
	<line x1="152.522" y1="913.308" x2="211.873" y2="886.884" stroke-width="0.25" stroke="rgb(0,0,0)" />
	<line x1="214.81" y1="886.884" x2="152.522" y2="914.616" stroke-width="0.25" stroke="rgb(0,0,0)" />
	<line x1="152.522" y1="915.923" x2="217.746" y2="886.884" stroke-width="0.25" stroke="rgb(0,0,0)" />
	<line x1="220.682" y1="886.884" x2="152.522" y2="917.23" stroke-width="0.25" stroke="rgb(0,0,0)" />
	<line x1="152.522" y1="918.538" x2="223.619" y2="886.884" stroke-width="0.25" stroke="rgb(0,0,0)" />
	<line x1="226.555" y1="886.884" x2="152.522" y2="919.845" stroke-width="0.25" stroke="rgb(0,0,0)" />
	<line x1="152.522" y1="921.152" x2="229.491" y2="886.884" stroke-width="0.25" stroke="rgb(0,0,0)" />
	<line x1="232.428" y1="886.884" x2="152.522" y2="922.46" stroke-width="0.25" stroke="rgb(0,0,0)" />
	<line x1="152.522" y1="923.767" x2="235.364" y2="886.884" stroke-width="0.25" stroke="rgb(0,0,0)" />
	<line x1="236.223" y1="887.808" x2="152.522" y2="925.074" stroke-width="0.25" stroke="rgb(0,0,0)" />
	<line x1="152.522" y1="926.382" x2="236.223" y2="889.116" stroke-width="0.25" stroke="rgb(0,0,0)" />
	<line x1="236.223" y1="890.423" x2="152.522" y2="927.689" stroke-width="0.25" stroke="rgb(0,0,0)" />
	<line x1="152.522" y1="928.996" x2="236.223" y2="891.73" stroke-width="0.25" stroke="rgb(0,0,0)" />
	<line x1="236.223" y1="893.038" x2="152.522" y2="930.304" stroke-width="0.25" stroke="rgb(0,0,0)" />
	<line x1="152.522" y1="931.611" x2="236.223" y2="894.345" stroke-width="0.25" stroke="rgb(0,0,0)" />
	<line x1="236.223" y1="895.652" x2="152.522" y2="932.918" stroke-width="0.25" stroke="rgb(0,0,0)" />
	<line x1="152.522" y1="934.226" x2="236.223" y2="896.96" stroke-width="0.25" stroke="rgb(0,0,0)" />
	<line x1="236.223" y1="898.267" x2="152.522" y2="935.533" stroke-width="0.25" stroke="rgb(0,0,0)" />
	<line x1="152.522" y1="936.84" x2="236.223" y2="899.574" stroke-width="0.25" stroke="rgb(0,0,0)" />
	<line x1="236.223" y1="900.882" x2="152.522" y2="938.148" stroke-width="0.25" stroke="rgb(0,0,0)" />
	<line x1="152.522" y1="939.455" x2="236.223" y2="902.189" stroke-width="0.25" stroke="rgb(0,0,0)" />
	<line x1="236.223" y1="903.496" x2="152.522" y2="940.762" stroke-width="0.25" stroke="rgb(0,0,0)" />
	<line x1="152.522" y1="942.07" x2="236.223" y2="904.804" stroke-width="0.25" stroke="rgb(0,0,0)" />
	<line x1="236.223" y1="906.111" x2="152.522" y2="943.377" stroke-width="0.25" stroke="rgb(0,0,0)" />
	<line x1="152.522" y1="944.684" x2="236.223" y2="907.418" stroke-width="0.25" stroke="rgb(0,0,0)" />
	<line x1="236.223" y1="908.726" x2="152.522" y2="945.992" stroke-width="0.25" stroke="rgb(0,0,0)" />
	<line x1="152.522" y1="947.299" x2="236.223" y2="910.033" stroke-width="0.25" stroke="rgb(0,0,0)" />
	<line x1="236.223" y1="911.34" x2="152.522" y2="948.606" stroke-width="0.25" stroke="rgb(0,0,0)" />
	<line x1="152.522" y1="949.914" x2="236.223" y2="912.648" stroke-width="0.25" stroke="rgb(0,0,0)" />
	<line x1="236.223" y1="913.955" x2="152.522" y2="951.221" stroke-width="0.25" stroke="rgb(0,0,0)" />
	<line x1="152.522" y1="952.528" x2="236.223" y2="915.262" stroke-width="0.25" stroke="rgb(0,0,0)" />
	<line x1="236.223" y1="916.57" x2="152.522" y2="953.836" stroke-width="0.25" stroke="rgb(0,0,0)" />
	<line x1="152.522" y1="955.143" x2="236.223" y2="917.877" stroke-width="0.25" stroke="rgb(0,0,0)" />
	<line x1="236.223" y1="919.184" x2="152.522" y2="956.45" stroke-width="0.25" stroke="rgb(0,0,0)" />
	<line x1="152.522" y1="957.758" x2="236.223" y2="920.492" stroke-width="0.25" stroke="rgb(0,0,0)" />
	<line x1="236.223" y1="921.799" x2="152.522" y2="959.065" stroke-width="0.25" stroke="rgb(0,0,0)" />
	<line x1="152.522" y1="960.372" x2="236.223" y2="923.106" stroke-width="0.25" stroke="rgb(0,0,0)" />
	<line x1="236.223" y1="924.414" x2="152.522" y2="961.68" stroke-width="0.25" stroke="rgb(0,0,0)" />
	<line x1="152.522" y1="962.987" x2="236.223" y2="925.721" stroke-width="0.25" stroke="rgb(0,0,0)" />
	<line x1="236.223" y1="927.028" x2="152.522" y2="964.294" stroke-width="0.25" stroke="rgb(0,0,0)" />
	<line x1="152.522" y1="965.602" x2="236.223" y2="928.336" stroke-width="0.25" stroke="rgb(0,0,0)" />
	<line x1="236.223" y1="929.643" x2="152.522" y2="966.909" stroke-width="0.25" stroke="rgb(0,0,0)" />
	<line x1="152.522" y1="968.216" x2="236.223" y2="930.95" stroke-width="0.25" stroke="rgb(0,0,0)" />
	<line x1="236.223" y1="932.258" x2="152.522" y2="969.524" stroke-width="0.25" stroke="rgb(0,0,0)" />
	<line x1="153.076" y1="970.585" x2="236.223" y2="933.565" stroke-width="0.25" stroke="rgb(0,0,0)" />
	<line x1="236.223" y1="934.872" x2="156.012" y2="970.585" stroke-width="0.25" stroke="rgb(0,0,0)" />
	<line x1="158.948" y1="970.585" x2="236.223" y2="936.18" stroke-width="0.25" stroke="rgb(0,0,0)" />
	<line x1="236.223" y1="937.487" x2="161.885" y2="970.585" stroke-width="0.25" stroke="rgb(0,0,0)" />
	<line x1="164.821" y1="970.585" x2="236.223" y2="938.794" stroke-width="0.25" stroke="rgb(0,0,0)" />
	<line x1="236.223" y1="940.102" x2="167.757" y2="970.585" stroke-width="0.25" stroke="rgb(0,0,0)" />
	<line x1="170.694" y1="970.585" x2="236.223" y2="941.409" stroke-width="0.25" stroke="rgb(0,0,0)" />
	<line x1="236.223" y1="942.716" x2="173.63" y2="970.585" stroke-width="0.25" stroke="rgb(0,0,0)" />
	<line x1="176.566" y1="970.585" x2="236.223" y2="944.024" stroke-width="0.25" stroke="rgb(0,0,0)" />
	<line x1="236.223" y1="945.331" x2="179.502" y2="970.585" stroke-width="0.25" stroke="rgb(0,0,0)" />
	<line x1="182.439" y1="970.585" x2="236.223" y2="946.638" stroke-width="0.25" stroke="rgb(0,0,0)" />
	<line x1="236.223" y1="947.946" x2="185.375" y2="970.585" stroke-width="0.25" stroke="rgb(0,0,0)" />
	<line x1="188.311" y1="970.585" x2="236.223" y2="949.253" stroke-width="0.25" stroke="rgb(0,0,0)" />
	<line x1="236.223" y1="950.56" x2="191.248" y2="970.585" stroke-width="0.25" stroke="rgb(0,0,0)" />
	<line x1="194.184" y1="970.585" x2="236.223" y2="951.868" stroke-width="0.25" stroke="rgb(0,0,0)" />
	<line x1="236.223" y1="953.175" x2="197.12" y2="970.585" stroke-width="0.25" stroke="rgb(0,0,0)" />
	<line x1="200.057" y1="970.585" x2="236.223" y2="954.482" stroke-width="0.25" stroke="rgb(0,0,0)" />
	<line x1="236.223" y1="955.79" x2="202.993" y2="970.585" stroke-width="0.25" stroke="rgb(0,0,0)" />
	<line x1="205.929" y1="970.585" x2="236.223" y2="957.097" stroke-width="0.25" stroke="rgb(0,0,0)" />
	<line x1="236.223" y1="958.404" x2="208.866" y2="970.585" stroke-width="0.25" stroke="rgb(0,0,0)" />
	<line x1="211.802" y1="970.585" x2="236.223" y2="959.712" stroke-width="0.25" stroke="rgb(0,0,0)" />
	<line x1="236.223" y1="961.019" x2="214.738" y2="970.585" stroke-width="0.25" stroke="rgb(0,0,0)" />
	<line x1="217.675" y1="970.585" x2="236.223" y2="962.326" stroke-width="0.25" stroke="rgb(0,0,0)" />
	<line x1="236.223" y1="963.634" x2="220.611" y2="970.585" stroke-width="0.25" stroke="rgb(0,0,0)" />
	<line x1="223.547" y1="970.585" x2="236.223" y2="964.941" stroke-width="0.25" stroke="rgb(0,0,0)" />
	<line x1="236.223" y1="966.248" x2="226.484" y2="970.585" stroke-width="0.25" stroke="rgb(0,0,0)" />
	<line x1="229.42" y1="970.585" x2="236.223" y2="967.556" stroke-width="0.25" stroke="rgb(0,0,0)" />
	<line x1="236.223" y1="968.863" x2="232.356" y2="970.585" stroke-width="0.25" stroke="rgb(0,0,0)" />
	<line x1="235.293" y1="970.585" x2="236.223" y2="970.17" stroke-width="0.25" stroke="rgb(0,0,0)" />
</svg>
