<?xml version="1.0" standalone="no" ?>
<!DOCTYPE svg PUBLIC "-//W3C//DTD SVG 1.1//EN" "http://www.w3.org/Graphics/SVG/1.1/DTD/svg11.dtd">
<svg width="2000px" height="2000px" xmlns="http://www.w3.org/2000/svg" version="1.1" >
	<line x1="348.389" y1="1656.96" x2="262.356" y2="1570.92" stroke-width="0.25" stroke="rgb(0,0,0)" />
	<line x1="262.356" y1="1570.92" x2="150.665" y2="1570.92" stroke-width="0.25" stroke="rgb(0,0,0)" />
	<line x1="150.665" y1="1570.92" x2="150.665" y2="1768.65" stroke-width="0.25" stroke="rgb(0,0,0)" />
	<line x1="150.665" y1="1768.65" x2="348.389" y2="1768.65" stroke-width="0.25" stroke="rgb(0,0,0)" />
	<line x1="348.389" y1="1768.65" x2="348.389" y2="1656.96" stroke-width="0.25" stroke="rgb(0,0,0)" />
	<line x1="359.525" y1="763.582" x2="150.864" y2="763.582" stroke-width="0.25" stroke="rgb(0,0,0)" />
	<line x1="150.864" y1="763.582" x2="150.864" y2="972.243" stroke-width="0.25" stroke="rgb(0,0,0)" />
	<line x1="150.864" y1="972.243" x2="359.525" y2="972.243" stroke-width="0.25" stroke="rgb(0,0,0)" />
	<line x1="359.525" y1="972.243" x2="359.525" y2="763.582" stroke-width="0.25" stroke="rgb(0,0,0)" />
	<line x1="358.662" y1="764.445" x2="151.726" y2="764.445" stroke-width="0.25" stroke="rgb(0,0,0)" />
	<line x1="151.726" y1="764.445" x2="151.726" y2="971.381" stroke-width="0.25" stroke="rgb(0,0,0)" />
	<line x1="151.726" y1="971.381" x2="358.662" y2="971.381" stroke-width="0.25" stroke="rgb(0,0,0)" />
	<line x1="358.662" y1="971.381" x2="358.662" y2="764.445" stroke-width="0.25" stroke="rgb(0,0,0)" />
	<line x1="150.665" y1="1573.98" x2="150.985" y2="1570.92" stroke-width="0.25" stroke="rgb(0,0,0)" />
	<line x1="151.919" y1="1570.92" x2="150.665" y2="1582.86" stroke-width="0.25" stroke="rgb(0,0,0)" />
	<line x1="150.665" y1="1591.75" x2="152.854" y2="1570.92" stroke-width="0.25" stroke="rgb(0,0,0)" />
	<line x1="153.788" y1="1570.92" x2="150.665" y2="1600.64" stroke-width="0.25" stroke="rgb(0,0,0)" />
	<line x1="150.665" y1="1609.52" x2="154.722" y2="1570.92" stroke-width="0.25" stroke="rgb(0,0,0)" />
	<line x1="155.656" y1="1570.92" x2="150.665" y2="1618.41" stroke-width="0.25" stroke="rgb(0,0,0)" />
	<line x1="150.665" y1="1627.3" x2="156.59" y2="1570.92" stroke-width="0.25" stroke="rgb(0,0,0)" />
	<line x1="157.524" y1="1570.92" x2="150.665" y2="1636.18" stroke-width="0.25" stroke="rgb(0,0,0)" />
	<line x1="150.665" y1="1645.07" x2="158.458" y2="1570.92" stroke-width="0.25" stroke="rgb(0,0,0)" />
	<line x1="159.392" y1="1570.92" x2="150.665" y2="1653.96" stroke-width="0.25" stroke="rgb(0,0,0)" />
	<line x1="150.665" y1="1662.84" x2="160.326" y2="1570.92" stroke-width="0.25" stroke="rgb(0,0,0)" />
	<line x1="161.26" y1="1570.92" x2="150.665" y2="1671.73" stroke-width="0.25" stroke="rgb(0,0,0)" />
	<line x1="150.665" y1="1680.62" x2="162.194" y2="1570.92" stroke-width="0.25" stroke="rgb(0,0,0)" />
	<line x1="163.128" y1="1570.92" x2="150.665" y2="1689.5" stroke-width="0.25" stroke="rgb(0,0,0)" />
	<line x1="150.665" y1="1698.39" x2="164.062" y2="1570.92" stroke-width="0.25" stroke="rgb(0,0,0)" />
	<line x1="164.996" y1="1570.92" x2="150.665" y2="1707.28" stroke-width="0.25" stroke="rgb(0,0,0)" />
	<line x1="150.665" y1="1716.16" x2="165.93" y2="1570.92" stroke-width="0.25" stroke="rgb(0,0,0)" />
	<line x1="166.864" y1="1570.92" x2="150.665" y2="1725.05" stroke-width="0.25" stroke="rgb(0,0,0)" />
	<line x1="150.665" y1="1733.94" x2="167.798" y2="1570.92" stroke-width="0.25" stroke="rgb(0,0,0)" />
	<line x1="168.732" y1="1570.92" x2="150.665" y2="1742.82" stroke-width="0.25" stroke="rgb(0,0,0)" />
	<line x1="150.665" y1="1751.71" x2="169.666" y2="1570.92" stroke-width="0.25" stroke="rgb(0,0,0)" />
	<line x1="170.6" y1="1570.92" x2="150.665" y2="1760.6" stroke-width="0.25" stroke="rgb(0,0,0)" />
	<line x1="150.752" y1="1768.65" x2="171.534" y2="1570.92" stroke-width="0.25" stroke="rgb(0,0,0)" />
	<line x1="172.468" y1="1570.92" x2="151.686" y2="1768.65" stroke-width="0.25" stroke="rgb(0,0,0)" />
	<line x1="152.62" y1="1768.65" x2="173.402" y2="1570.92" stroke-width="0.25" stroke="rgb(0,0,0)" />
	<line x1="174.336" y1="1570.92" x2="153.554" y2="1768.65" stroke-width="0.25" stroke="rgb(0,0,0)" />
	<line x1="154.488" y1="1768.65" x2="175.27" y2="1570.92" stroke-width="0.25" stroke="rgb(0,0,0)" />
	<line x1="176.204" y1="1570.92" x2="155.422" y2="1768.65" stroke-width="0.25" stroke="rgb(0,0,0)" />
	<line x1="156.356" y1="1768.65" x2="177.138" y2="1570.92" stroke-width="0.25" stroke="rgb(0,0,0)" />
	<line x1="178.072" y1="1570.92" x2="157.29" y2="1768.65" stroke-width="0.25" stroke="rgb(0,0,0)" />
	<line x1="158.225" y1="1768.65" x2="179.006" y2="1570.92" stroke-width="0.25" stroke="rgb(0,0,0)" />
	<line x1="179.94" y1="1570.92" x2="159.159" y2="1768.65" stroke-width="0.25" stroke="rgb(0,0,0)" />
	<line x1="160.093" y1="1768.65" x2="180.874" y2="1570.92" stroke-width="0.25" stroke="rgb(0,0,0)" />
	<line x1="181.808" y1="1570.92" x2="161.027" y2="1768.65" stroke-width="0.25" stroke="rgb(0,0,0)" />
	<line x1="161.961" y1="1768.65" x2="182.742" y2="1570.92" stroke-width="0.25" stroke="rgb(0,0,0)" />
	<line x1="183.676" y1="1570.92" x2="162.895" y2="1768.65" stroke-width="0.25" stroke="rgb(0,0,0)" />
	<line x1="163.829" y1="1768.65" x2="184.61" y2="1570.92" stroke-width="0.25" stroke="rgb(0,0,0)" />
	<line x1="185.544" y1="1570.92" x2="164.763" y2="1768.65" stroke-width="0.25" stroke="rgb(0,0,0)" />
	<line x1="165.697" y1="1768.65" x2="186.478" y2="1570.92" stroke-width="0.25" stroke="rgb(0,0,0)" />
	<line x1="187.412" y1="1570.92" x2="166.631" y2="1768.65" stroke-width="0.25" stroke="rgb(0,0,0)" />
	<line x1="167.565" y1="1768.65" x2="188.346" y2="1570.92" stroke-width="0.25" stroke="rgb(0,0,0)" />
	<line x1="189.28" y1="1570.92" x2="168.499" y2="1768.65" stroke-width="0.25" stroke="rgb(0,0,0)" />
	<line x1="169.433" y1="1768.65" x2="190.214" y2="1570.92" stroke-width="0.25" stroke="rgb(0,0,0)" />
	<line x1="191.148" y1="1570.92" x2="170.367" y2="1768.65" stroke-width="0.25" stroke="rgb(0,0,0)" />
	<line x1="171.301" y1="1768.65" x2="192.083" y2="1570.92" stroke-width="0.25" stroke="rgb(0,0,0)" />
	<line x1="193.017" y1="1570.92" x2="172.235" y2="1768.65" stroke-width="0.25" stroke="rgb(0,0,0)" />
	<line x1="173.169" y1="1768.65" x2="193.951" y2="1570.92" stroke-width="0.25" stroke="rgb(0,0,0)" />
	<line x1="194.885" y1="1570.92" x2="174.103" y2="1768.65" stroke-width="0.25" stroke="rgb(0,0,0)" />
	<line x1="175.037" y1="1768.65" x2="195.819" y2="1570.92" stroke-width="0.25" stroke="rgb(0,0,0)" />
	<line x1="196.753" y1="1570.92" x2="175.971" y2="1768.65" stroke-width="0.25" stroke="rgb(0,0,0)" />
	<line x1="176.905" y1="1768.65" x2="197.687" y2="1570.92" stroke-width="0.25" stroke="rgb(0,0,0)" />
	<line x1="198.621" y1="1570.92" x2="177.839" y2="1768.65" stroke-width="0.25" stroke="rgb(0,0,0)" />
	<line x1="178.773" y1="1768.65" x2="199.555" y2="1570.92" stroke-width="0.25" stroke="rgb(0,0,0)" />
	<line x1="200.489" y1="1570.92" x2="179.707" y2="1768.65" stroke-width="0.25" stroke="rgb(0,0,0)" />
	<line x1="180.641" y1="1768.65" x2="201.423" y2="1570.92" stroke-width="0.25" stroke="rgb(0,0,0)" />
	<line x1="202.357" y1="1570.92" x2="181.575" y2="1768.65" stroke-width="0.25" stroke="rgb(0,0,0)" />
	<line x1="182.509" y1="1768.65" x2="203.291" y2="1570.92" stroke-width="0.25" stroke="rgb(0,0,0)" />
	<line x1="204.225" y1="1570.92" x2="183.443" y2="1768.65" stroke-width="0.25" stroke="rgb(0,0,0)" />
	<line x1="184.377" y1="1768.65" x2="205.159" y2="1570.92" stroke-width="0.25" stroke="rgb(0,0,0)" />
	<line x1="206.093" y1="1570.92" x2="185.311" y2="1768.65" stroke-width="0.25" stroke="rgb(0,0,0)" />
	<line x1="186.245" y1="1768.65" x2="207.027" y2="1570.92" stroke-width="0.25" stroke="rgb(0,0,0)" />
	<line x1="207.961" y1="1570.92" x2="187.179" y2="1768.65" stroke-width="0.25" stroke="rgb(0,0,0)" />
	<line x1="188.113" y1="1768.65" x2="208.895" y2="1570.92" stroke-width="0.25" stroke="rgb(0,0,0)" />
	<line x1="209.829" y1="1570.92" x2="189.047" y2="1768.65" stroke-width="0.25" stroke="rgb(0,0,0)" />
	<line x1="189.981" y1="1768.65" x2="210.763" y2="1570.92" stroke-width="0.25" stroke="rgb(0,0,0)" />
	<line x1="211.697" y1="1570.92" x2="190.915" y2="1768.65" stroke-width="0.25" stroke="rgb(0,0,0)" />
	<line x1="191.849" y1="1768.65" x2="212.631" y2="1570.92" stroke-width="0.25" stroke="rgb(0,0,0)" />
	<line x1="213.565" y1="1570.92" x2="192.783" y2="1768.65" stroke-width="0.25" stroke="rgb(0,0,0)" />
	<line x1="193.717" y1="1768.65" x2="214.499" y2="1570.92" stroke-width="0.25" stroke="rgb(0,0,0)" />
	<line x1="215.433" y1="1570.92" x2="194.651" y2="1768.65" stroke-width="0.25" stroke="rgb(0,0,0)" />
	<line x1="195.585" y1="1768.65" x2="216.367" y2="1570.92" stroke-width="0.25" stroke="rgb(0,0,0)" />
	<line x1="217.301" y1="1570.92" x2="196.519" y2="1768.65" stroke-width="0.25" stroke="rgb(0,0,0)" />
	<line x1="197.453" y1="1768.65" x2="218.235" y2="1570.92" stroke-width="0.25" stroke="rgb(0,0,0)" />
	<line x1="219.169" y1="1570.92" x2="198.388" y2="1768.65" stroke-width="0.25" stroke="rgb(0,0,0)" />
	<line x1="199.322" y1="1768.65" x2="220.103" y2="1570.92" stroke-width="0.25" stroke="rgb(0,0,0)" />
	<line x1="221.037" y1="1570.92" x2="200.256" y2="1768.65" stroke-width="0.25" stroke="rgb(0,0,0)" />
	<line x1="201.19" y1="1768.65" x2="221.971" y2="1570.92" stroke-width="0.25" stroke="rgb(0,0,0)" />
	<line x1="222.905" y1="1570.92" x2="202.124" y2="1768.65" stroke-width="0.25" stroke="rgb(0,0,0)" />
	<line x1="203.058" y1="1768.65" x2="223.839" y2="1570.92" stroke-width="0.25" stroke="rgb(0,0,0)" />
	<line x1="224.773" y1="1570.92" x2="203.992" y2="1768.65" stroke-width="0.25" stroke="rgb(0,0,0)" />
	<line x1="204.926" y1="1768.65" x2="225.707" y2="1570.92" stroke-width="0.25" stroke="rgb(0,0,0)" />
	<line x1="226.641" y1="1570.92" x2="205.86" y2="1768.65" stroke-width="0.25" stroke="rgb(0,0,0)" />
	<line x1="206.794" y1="1768.65" x2="227.575" y2="1570.92" stroke-width="0.25" stroke="rgb(0,0,0)" />
	<line x1="228.509" y1="1570.92" x2="207.728" y2="1768.65" stroke-width="0.25" stroke="rgb(0,0,0)" />
	<line x1="208.662" y1="1768.65" x2="229.443" y2="1570.92" stroke-width="0.25" stroke="rgb(0,0,0)" />
	<line x1="230.377" y1="1570.92" x2="209.596" y2="1768.65" stroke-width="0.25" stroke="rgb(0,0,0)" />
	<line x1="210.53" y1="1768.65" x2="231.312" y2="1570.92" stroke-width="0.25" stroke="rgb(0,0,0)" />
	<line x1="232.246" y1="1570.92" x2="211.464" y2="1768.65" stroke-width="0.25" stroke="rgb(0,0,0)" />
	<line x1="212.398" y1="1768.65" x2="233.18" y2="1570.92" stroke-width="0.25" stroke="rgb(0,0,0)" />
	<line x1="234.114" y1="1570.92" x2="213.332" y2="1768.65" stroke-width="0.25" stroke="rgb(0,0,0)" />
	<line x1="214.266" y1="1768.65" x2="235.048" y2="1570.92" stroke-width="0.25" stroke="rgb(0,0,0)" />
	<line x1="235.982" y1="1570.92" x2="215.2" y2="1768.65" stroke-width="0.25" stroke="rgb(0,0,0)" />
	<line x1="216.134" y1="1768.65" x2="236.916" y2="1570.92" stroke-width="0.25" stroke="rgb(0,0,0)" />
	<line x1="237.85" y1="1570.92" x2="217.068" y2="1768.65" stroke-width="0.25" stroke="rgb(0,0,0)" />
	<line x1="218.002" y1="1768.65" x2="238.784" y2="1570.92" stroke-width="0.25" stroke="rgb(0,0,0)" />
	<line x1="239.718" y1="1570.92" x2="218.936" y2="1768.65" stroke-width="0.25" stroke="rgb(0,0,0)" />
	<line x1="219.87" y1="1768.65" x2="240.652" y2="1570.92" stroke-width="0.25" stroke="rgb(0,0,0)" />
	<line x1="241.586" y1="1570.92" x2="220.804" y2="1768.65" stroke-width="0.25" stroke="rgb(0,0,0)" />
	<line x1="221.738" y1="1768.65" x2="242.52" y2="1570.92" stroke-width="0.25" stroke="rgb(0,0,0)" />
	<line x1="243.454" y1="1570.92" x2="222.672" y2="1768.65" stroke-width="0.25" stroke="rgb(0,0,0)" />
	<line x1="223.606" y1="1768.65" x2="244.388" y2="1570.92" stroke-width="0.25" stroke="rgb(0,0,0)" />
	<line x1="245.322" y1="1570.92" x2="224.54" y2="1768.65" stroke-width="0.25" stroke="rgb(0,0,0)" />
	<line x1="225.474" y1="1768.65" x2="246.256" y2="1570.92" stroke-width="0.25" stroke="rgb(0,0,0)" />
	<line x1="247.19" y1="1570.92" x2="226.408" y2="1768.65" stroke-width="0.25" stroke="rgb(0,0,0)" />
	<line x1="227.342" y1="1768.65" x2="248.124" y2="1570.92" stroke-width="0.25" stroke="rgb(0,0,0)" />
	<line x1="249.058" y1="1570.92" x2="228.276" y2="1768.65" stroke-width="0.25" stroke="rgb(0,0,0)" />
	<line x1="229.21" y1="1768.65" x2="249.992" y2="1570.92" stroke-width="0.25" stroke="rgb(0,0,0)" />
	<line x1="250.926" y1="1570.92" x2="230.144" y2="1768.65" stroke-width="0.25" stroke="rgb(0,0,0)" />
	<line x1="231.078" y1="1768.65" x2="251.86" y2="1570.92" stroke-width="0.25" stroke="rgb(0,0,0)" />
	<line x1="252.794" y1="1570.92" x2="232.012" y2="1768.65" stroke-width="0.25" stroke="rgb(0,0,0)" />
	<line x1="232.946" y1="1768.65" x2="253.728" y2="1570.92" stroke-width="0.25" stroke="rgb(0,0,0)" />
	<line x1="254.662" y1="1570.92" x2="233.88" y2="1768.65" stroke-width="0.25" stroke="rgb(0,0,0)" />
	<line x1="234.814" y1="1768.65" x2="255.596" y2="1570.92" stroke-width="0.25" stroke="rgb(0,0,0)" />
	<line x1="256.53" y1="1570.92" x2="235.748" y2="1768.65" stroke-width="0.25" stroke="rgb(0,0,0)" />
	<line x1="236.682" y1="1768.65" x2="257.464" y2="1570.92" stroke-width="0.25" stroke="rgb(0,0,0)" />
	<line x1="258.398" y1="1570.92" x2="237.617" y2="1768.65" stroke-width="0.25" stroke="rgb(0,0,0)" />
	<line x1="238.551" y1="1768.65" x2="259.332" y2="1570.92" stroke-width="0.25" stroke="rgb(0,0,0)" />
	<line x1="260.266" y1="1570.92" x2="239.485" y2="1768.65" stroke-width="0.25" stroke="rgb(0,0,0)" />
	<line x1="240.419" y1="1768.65" x2="261.2" y2="1570.92" stroke-width="0.25" stroke="rgb(0,0,0)" />
	<line x1="262.134" y1="1570.92" x2="241.353" y2="1768.65" stroke-width="0.25" stroke="rgb(0,0,0)" />
	<line x1="242.287" y1="1768.65" x2="263.001" y2="1571.57" stroke-width="0.25" stroke="rgb(0,0,0)" />
	<line x1="263.846" y1="1572.41" x2="243.221" y2="1768.65" stroke-width="0.25" stroke="rgb(0,0,0)" />
	<line x1="244.155" y1="1768.65" x2="264.691" y2="1573.26" stroke-width="0.25" stroke="rgb(0,0,0)" />
	<line x1="265.536" y1="1574.1" x2="245.089" y2="1768.65" stroke-width="0.25" stroke="rgb(0,0,0)" />
	<line x1="246.023" y1="1768.65" x2="266.381" y2="1574.95" stroke-width="0.25" stroke="rgb(0,0,0)" />
	<line x1="267.227" y1="1575.79" x2="246.957" y2="1768.65" stroke-width="0.25" stroke="rgb(0,0,0)" />
	<line x1="247.891" y1="1768.65" x2="268.072" y2="1576.64" stroke-width="0.25" stroke="rgb(0,0,0)" />
	<line x1="268.917" y1="1577.48" x2="248.825" y2="1768.65" stroke-width="0.25" stroke="rgb(0,0,0)" />
	<line x1="249.759" y1="1768.65" x2="269.762" y2="1578.33" stroke-width="0.25" stroke="rgb(0,0,0)" />
	<line x1="270.607" y1="1579.18" x2="250.693" y2="1768.65" stroke-width="0.25" stroke="rgb(0,0,0)" />
	<line x1="251.627" y1="1768.65" x2="271.452" y2="1580.02" stroke-width="0.25" stroke="rgb(0,0,0)" />
	<line x1="272.298" y1="1580.87" x2="252.561" y2="1768.65" stroke-width="0.25" stroke="rgb(0,0,0)" />
	<line x1="253.495" y1="1768.65" x2="273.143" y2="1581.71" stroke-width="0.25" stroke="rgb(0,0,0)" />
	<line x1="273.988" y1="1582.56" x2="254.429" y2="1768.65" stroke-width="0.25" stroke="rgb(0,0,0)" />
	<line x1="255.363" y1="1768.65" x2="274.833" y2="1583.4" stroke-width="0.25" stroke="rgb(0,0,0)" />
	<line x1="275.678" y1="1584.25" x2="256.297" y2="1768.65" stroke-width="0.25" stroke="rgb(0,0,0)" />
	<line x1="257.231" y1="1768.65" x2="276.524" y2="1585.09" stroke-width="0.25" stroke="rgb(0,0,0)" />
	<line x1="277.369" y1="1585.94" x2="258.165" y2="1768.65" stroke-width="0.25" stroke="rgb(0,0,0)" />
	<line x1="259.099" y1="1768.65" x2="278.214" y2="1586.78" stroke-width="0.25" stroke="rgb(0,0,0)" />
	<line x1="279.059" y1="1587.63" x2="260.033" y2="1768.65" stroke-width="0.25" stroke="rgb(0,0,0)" />
	<line x1="260.967" y1="1768.65" x2="279.904" y2="1588.47" stroke-width="0.25" stroke="rgb(0,0,0)" />
	<line x1="280.75" y1="1589.32" x2="261.901" y2="1768.65" stroke-width="0.25" stroke="rgb(0,0,0)" />
	<line x1="262.835" y1="1768.65" x2="281.595" y2="1590.16" stroke-width="0.25" stroke="rgb(0,0,0)" />
	<line x1="282.44" y1="1591.01" x2="263.769" y2="1768.65" stroke-width="0.25" stroke="rgb(0,0,0)" />
	<line x1="264.703" y1="1768.65" x2="283.285" y2="1591.85" stroke-width="0.25" stroke="rgb(0,0,0)" />
	<line x1="284.13" y1="1592.7" x2="265.637" y2="1768.65" stroke-width="0.25" stroke="rgb(0,0,0)" />
	<line x1="266.571" y1="1768.65" x2="284.976" y2="1593.54" stroke-width="0.25" stroke="rgb(0,0,0)" />
	<line x1="285.821" y1="1594.39" x2="267.505" y2="1768.65" stroke-width="0.25" stroke="rgb(0,0,0)" />
	<line x1="268.439" y1="1768.65" x2="286.666" y2="1595.23" stroke-width="0.25" stroke="rgb(0,0,0)" />
	<line x1="287.511" y1="1596.08" x2="269.373" y2="1768.65" stroke-width="0.25" stroke="rgb(0,0,0)" />
	<line x1="270.307" y1="1768.65" x2="288.356" y2="1596.92" stroke-width="0.25" stroke="rgb(0,0,0)" />
	<line x1="289.201" y1="1597.77" x2="271.241" y2="1768.65" stroke-width="0.25" stroke="rgb(0,0,0)" />
	<line x1="272.175" y1="1768.65" x2="290.047" y2="1598.61" stroke-width="0.25" stroke="rgb(0,0,0)" />
	<line x1="290.892" y1="1599.46" x2="273.109" y2="1768.65" stroke-width="0.25" stroke="rgb(0,0,0)" />
	<line x1="274.043" y1="1768.65" x2="291.737" y2="1600.31" stroke-width="0.25" stroke="rgb(0,0,0)" />
	<line x1="292.582" y1="1601.15" x2="274.977" y2="1768.65" stroke-width="0.25" stroke="rgb(0,0,0)" />
	<line x1="275.911" y1="1768.65" x2="293.427" y2="1602" stroke-width="0.25" stroke="rgb(0,0,0)" />
	<line x1="294.273" y1="1602.84" x2="276.846" y2="1768.65" stroke-width="0.25" stroke="rgb(0,0,0)" />
	<line x1="277.78" y1="1768.65" x2="295.118" y2="1603.69" stroke-width="0.25" stroke="rgb(0,0,0)" />
	<line x1="295.963" y1="1604.53" x2="278.714" y2="1768.65" stroke-width="0.25" stroke="rgb(0,0,0)" />
	<line x1="279.648" y1="1768.65" x2="296.808" y2="1605.38" stroke-width="0.25" stroke="rgb(0,0,0)" />
	<line x1="297.653" y1="1606.22" x2="280.582" y2="1768.65" stroke-width="0.25" stroke="rgb(0,0,0)" />
	<line x1="281.516" y1="1768.65" x2="298.499" y2="1607.07" stroke-width="0.25" stroke="rgb(0,0,0)" />
	<line x1="299.344" y1="1607.91" x2="282.45" y2="1768.65" stroke-width="0.25" stroke="rgb(0,0,0)" />
	<line x1="283.384" y1="1768.65" x2="300.189" y2="1608.76" stroke-width="0.25" stroke="rgb(0,0,0)" />
	<line x1="301.034" y1="1609.6" x2="284.318" y2="1768.65" stroke-width="0.25" stroke="rgb(0,0,0)" />
	<line x1="285.252" y1="1768.65" x2="301.879" y2="1610.45" stroke-width="0.25" stroke="rgb(0,0,0)" />
	<line x1="302.725" y1="1611.29" x2="286.186" y2="1768.65" stroke-width="0.25" stroke="rgb(0,0,0)" />
	<line x1="287.12" y1="1768.65" x2="303.57" y2="1612.14" stroke-width="0.25" stroke="rgb(0,0,0)" />
	<line x1="304.415" y1="1612.98" x2="288.054" y2="1768.65" stroke-width="0.25" stroke="rgb(0,0,0)" />
	<line x1="288.988" y1="1768.65" x2="305.26" y2="1613.83" stroke-width="0.25" stroke="rgb(0,0,0)" />
	<line x1="306.105" y1="1614.67" x2="289.922" y2="1768.65" stroke-width="0.25" stroke="rgb(0,0,0)" />
	<line x1="290.856" y1="1768.65" x2="306.95" y2="1615.52" stroke-width="0.25" stroke="rgb(0,0,0)" />
	<line x1="307.796" y1="1616.36" x2="291.79" y2="1768.65" stroke-width="0.25" stroke="rgb(0,0,0)" />
	<line x1="292.724" y1="1768.65" x2="308.641" y2="1617.21" stroke-width="0.25" stroke="rgb(0,0,0)" />
	<line x1="309.486" y1="1618.05" x2="293.658" y2="1768.65" stroke-width="0.25" stroke="rgb(0,0,0)" />
	<line x1="294.592" y1="1768.65" x2="310.331" y2="1618.9" stroke-width="0.25" stroke="rgb(0,0,0)" />
	<line x1="311.176" y1="1619.74" x2="295.526" y2="1768.65" stroke-width="0.25" stroke="rgb(0,0,0)" />
	<line x1="296.46" y1="1768.65" x2="312.022" y2="1620.59" stroke-width="0.25" stroke="rgb(0,0,0)" />
	<line x1="312.867" y1="1621.43" x2="297.394" y2="1768.65" stroke-width="0.25" stroke="rgb(0,0,0)" />
	<line x1="298.328" y1="1768.65" x2="313.712" y2="1622.28" stroke-width="0.25" stroke="rgb(0,0,0)" />
	<line x1="314.557" y1="1623.13" x2="299.262" y2="1768.65" stroke-width="0.25" stroke="rgb(0,0,0)" />
	<line x1="300.196" y1="1768.65" x2="315.402" y2="1623.97" stroke-width="0.25" stroke="rgb(0,0,0)" />
	<line x1="316.248" y1="1624.82" x2="301.13" y2="1768.65" stroke-width="0.25" stroke="rgb(0,0,0)" />
	<line x1="302.064" y1="1768.65" x2="317.093" y2="1625.66" stroke-width="0.25" stroke="rgb(0,0,0)" />
	<line x1="317.938" y1="1626.51" x2="302.998" y2="1768.65" stroke-width="0.25" stroke="rgb(0,0,0)" />
	<line x1="303.932" y1="1768.65" x2="318.783" y2="1627.35" stroke-width="0.25" stroke="rgb(0,0,0)" />
	<line x1="319.628" y1="1628.2" x2="304.866" y2="1768.65" stroke-width="0.25" stroke="rgb(0,0,0)" />
	<line x1="305.8" y1="1768.65" x2="320.474" y2="1629.04" stroke-width="0.25" stroke="rgb(0,0,0)" />
	<line x1="321.319" y1="1629.89" x2="306.734" y2="1768.65" stroke-width="0.25" stroke="rgb(0,0,0)" />
	<line x1="307.668" y1="1768.65" x2="322.164" y2="1630.73" stroke-width="0.25" stroke="rgb(0,0,0)" />
	<line x1="323.009" y1="1631.58" x2="308.602" y2="1768.65" stroke-width="0.25" stroke="rgb(0,0,0)" />
	<line x1="309.536" y1="1768.65" x2="323.854" y2="1632.42" stroke-width="0.25" stroke="rgb(0,0,0)" />
	<line x1="324.699" y1="1633.27" x2="310.47" y2="1768.65" stroke-width="0.25" stroke="rgb(0,0,0)" />
	<line x1="311.404" y1="1768.65" x2="325.545" y2="1634.11" stroke-width="0.25" stroke="rgb(0,0,0)" />
	<line x1="326.39" y1="1634.96" x2="312.338" y2="1768.65" stroke-width="0.25" stroke="rgb(0,0,0)" />
	<line x1="313.272" y1="1768.65" x2="327.235" y2="1635.8" stroke-width="0.25" stroke="rgb(0,0,0)" />
	<line x1="328.08" y1="1636.65" x2="314.206" y2="1768.65" stroke-width="0.25" stroke="rgb(0,0,0)" />
	<line x1="315.14" y1="1768.65" x2="328.925" y2="1637.49" stroke-width="0.25" stroke="rgb(0,0,0)" />
	<line x1="329.771" y1="1638.34" x2="316.075" y2="1768.65" stroke-width="0.25" stroke="rgb(0,0,0)" />
	<line x1="317.009" y1="1768.65" x2="330.616" y2="1639.18" stroke-width="0.25" stroke="rgb(0,0,0)" />
	<line x1="331.461" y1="1640.03" x2="317.943" y2="1768.65" stroke-width="0.25" stroke="rgb(0,0,0)" />
	<line x1="318.877" y1="1768.65" x2="332.306" y2="1640.87" stroke-width="0.25" stroke="rgb(0,0,0)" />
	<line x1="333.151" y1="1641.72" x2="319.811" y2="1768.65" stroke-width="0.25" stroke="rgb(0,0,0)" />
	<line x1="320.745" y1="1768.65" x2="333.997" y2="1642.56" stroke-width="0.25" stroke="rgb(0,0,0)" />
	<line x1="334.842" y1="1643.41" x2="321.679" y2="1768.65" stroke-width="0.25" stroke="rgb(0,0,0)" />
	<line x1="322.613" y1="1768.65" x2="335.687" y2="1644.25" stroke-width="0.25" stroke="rgb(0,0,0)" />
	<line x1="336.532" y1="1645.1" x2="323.547" y2="1768.65" stroke-width="0.25" stroke="rgb(0,0,0)" />
	<line x1="324.481" y1="1768.65" x2="337.377" y2="1645.95" stroke-width="0.25" stroke="rgb(0,0,0)" />
	<line x1="338.223" y1="1646.79" x2="325.415" y2="1768.65" stroke-width="0.25" stroke="rgb(0,0,0)" />
	<line x1="326.349" y1="1768.65" x2="339.068" y2="1647.64" stroke-width="0.25" stroke="rgb(0,0,0)" />
	<line x1="339.913" y1="1648.48" x2="327.283" y2="1768.65" stroke-width="0.25" stroke="rgb(0,0,0)" />
	<line x1="328.217" y1="1768.65" x2="340.758" y2="1649.33" stroke-width="0.25" stroke="rgb(0,0,0)" />
	<line x1="341.603" y1="1650.17" x2="329.151" y2="1768.65" stroke-width="0.25" stroke="rgb(0,0,0)" />
	<line x1="330.085" y1="1768.65" x2="342.448" y2="1651.02" stroke-width="0.25" stroke="rgb(0,0,0)" />
	<line x1="343.294" y1="1651.86" x2="331.019" y2="1768.65" stroke-width="0.25" stroke="rgb(0,0,0)" />
	<line x1="331.953" y1="1768.65" x2="344.139" y2="1652.71" stroke-width="0.25" stroke="rgb(0,0,0)" />
	<line x1="344.984" y1="1653.55" x2="332.887" y2="1768.65" stroke-width="0.25" stroke="rgb(0,0,0)" />
	<line x1="333.821" y1="1768.65" x2="345.829" y2="1654.4" stroke-width="0.25" stroke="rgb(0,0,0)" />
	<line x1="346.674" y1="1655.24" x2="334.755" y2="1768.65" stroke-width="0.25" stroke="rgb(0,0,0)" />
	<line x1="335.689" y1="1768.65" x2="347.52" y2="1656.09" stroke-width="0.25" stroke="rgb(0,0,0)" />
	<line x1="348.365" y1="1656.93" x2="336.623" y2="1768.65" stroke-width="0.25" stroke="rgb(0,0,0)" />
	<line x1="337.557" y1="1768.65" x2="348.389" y2="1665.59" stroke-width="0.25" stroke="rgb(0,0,0)" />
	<line x1="348.389" y1="1674.48" x2="338.491" y2="1768.65" stroke-width="0.25" stroke="rgb(0,0,0)" />
	<line x1="339.425" y1="1768.65" x2="348.389" y2="1683.36" stroke-width="0.25" stroke="rgb(0,0,0)" />
	<line x1="348.389" y1="1692.25" x2="340.359" y2="1768.65" stroke-width="0.25" stroke="rgb(0,0,0)" />
	<line x1="341.293" y1="1768.65" x2="348.389" y2="1701.14" stroke-width="0.25" stroke="rgb(0,0,0)" />
	<line x1="348.389" y1="1710.02" x2="342.227" y2="1768.65" stroke-width="0.25" stroke="rgb(0,0,0)" />
	<line x1="343.161" y1="1768.65" x2="348.389" y2="1718.91" stroke-width="0.25" stroke="rgb(0,0,0)" />
	<line x1="348.389" y1="1727.8" x2="344.095" y2="1768.65" stroke-width="0.25" stroke="rgb(0,0,0)" />
	<line x1="345.029" y1="1768.65" x2="348.389" y2="1736.68" stroke-width="0.25" stroke="rgb(0,0,0)" />
	<line x1="348.389" y1="1745.57" x2="345.963" y2="1768.65" stroke-width="0.25" stroke="rgb(0,0,0)" />
	<line x1="346.897" y1="1768.65" x2="348.389" y2="1754.46" stroke-width="0.25" stroke="rgb(0,0,0)" />
	<line x1="348.389" y1="1763.34" x2="347.831" y2="1768.65" stroke-width="0.25" stroke="rgb(0,0,0)" />
	<line x1="152.522" y1="773.008" x2="153.339" y2="765.241" stroke-width="0.25" stroke="rgb(0,0,0)" />
	<line x1="154.54" y1="765.241" x2="152.522" y2="784.434" stroke-width="0.25" stroke="rgb(0,0,0)" />
	<line x1="152.522" y1="795.859" x2="155.74" y2="765.241" stroke-width="0.25" stroke="rgb(0,0,0)" />
	<line x1="156.941" y1="765.241" x2="152.522" y2="807.285" stroke-width="0.25" stroke="rgb(0,0,0)" />
	<line x1="152.522" y1="818.711" x2="158.142" y2="765.241" stroke-width="0.25" stroke="rgb(0,0,0)" />
	<line x1="159.343" y1="765.241" x2="152.522" y2="830.136" stroke-width="0.25" stroke="rgb(0,0,0)" />
	<line x1="152.522" y1="841.562" x2="160.544" y2="765.241" stroke-width="0.25" stroke="rgb(0,0,0)" />
	<line x1="161.745" y1="765.241" x2="152.522" y2="852.988" stroke-width="0.25" stroke="rgb(0,0,0)" />
	<line x1="152.522" y1="864.413" x2="162.946" y2="765.241" stroke-width="0.25" stroke="rgb(0,0,0)" />
	<line x1="164.147" y1="765.241" x2="152.522" y2="875.839" stroke-width="0.25" stroke="rgb(0,0,0)" />
	<line x1="152.522" y1="887.265" x2="165.348" y2="765.241" stroke-width="0.25" stroke="rgb(0,0,0)" />
	<line x1="166.548" y1="765.241" x2="152.522" y2="898.69" stroke-width="0.25" stroke="rgb(0,0,0)" />
	<line x1="152.522" y1="910.116" x2="167.749" y2="765.241" stroke-width="0.25" stroke="rgb(0,0,0)" />
	<line x1="168.95" y1="765.241" x2="152.522" y2="921.542" stroke-width="0.25" stroke="rgb(0,0,0)" />
	<line x1="152.522" y1="932.967" x2="170.151" y2="765.241" stroke-width="0.25" stroke="rgb(0,0,0)" />
	<line x1="171.352" y1="765.241" x2="152.522" y2="944.393" stroke-width="0.25" stroke="rgb(0,0,0)" />
	<line x1="152.522" y1="955.819" x2="172.553" y2="765.241" stroke-width="0.25" stroke="rgb(0,0,0)" />
	<line x1="173.754" y1="765.241" x2="152.522" y2="967.245" stroke-width="0.25" stroke="rgb(0,0,0)" />
	<line x1="153.372" y1="970.585" x2="174.955" y2="765.241" stroke-width="0.25" stroke="rgb(0,0,0)" />
	<line x1="176.156" y1="765.241" x2="154.573" y2="970.585" stroke-width="0.25" stroke="rgb(0,0,0)" />
	<line x1="155.774" y1="970.585" x2="177.356" y2="765.241" stroke-width="0.25" stroke="rgb(0,0,0)" />
	<line x1="178.557" y1="765.241" x2="156.975" y2="970.585" stroke-width="0.25" stroke="rgb(0,0,0)" />
	<line x1="158.176" y1="970.585" x2="179.758" y2="765.241" stroke-width="0.25" stroke="rgb(0,0,0)" />
	<line x1="180.959" y1="765.241" x2="159.377" y2="970.585" stroke-width="0.25" stroke="rgb(0,0,0)" />
	<line x1="160.577" y1="970.585" x2="182.16" y2="765.241" stroke-width="0.25" stroke="rgb(0,0,0)" />
	<line x1="183.361" y1="765.241" x2="161.778" y2="970.585" stroke-width="0.25" stroke="rgb(0,0,0)" />
	<line x1="162.979" y1="970.585" x2="184.562" y2="765.241" stroke-width="0.25" stroke="rgb(0,0,0)" />
	<line x1="185.763" y1="765.241" x2="164.18" y2="970.585" stroke-width="0.25" stroke="rgb(0,0,0)" />
	<line x1="165.381" y1="970.585" x2="186.964" y2="765.241" stroke-width="0.25" stroke="rgb(0,0,0)" />
	<line x1="188.164" y1="765.241" x2="166.582" y2="970.585" stroke-width="0.25" stroke="rgb(0,0,0)" />
	<line x1="167.783" y1="970.585" x2="189.365" y2="765.241" stroke-width="0.25" stroke="rgb(0,0,0)" />
	<line x1="190.566" y1="765.241" x2="168.984" y2="970.585" stroke-width="0.25" stroke="rgb(0,0,0)" />
	<line x1="170.185" y1="970.585" x2="191.767" y2="765.241" stroke-width="0.25" stroke="rgb(0,0,0)" />
	<line x1="192.968" y1="765.241" x2="171.385" y2="970.585" stroke-width="0.25" stroke="rgb(0,0,0)" />
	<line x1="172.586" y1="970.585" x2="194.169" y2="765.241" stroke-width="0.25" stroke="rgb(0,0,0)" />
	<line x1="195.37" y1="765.241" x2="173.787" y2="970.585" stroke-width="0.25" stroke="rgb(0,0,0)" />
	<line x1="174.988" y1="970.585" x2="196.571" y2="765.241" stroke-width="0.25" stroke="rgb(0,0,0)" />
	<line x1="197.771" y1="765.241" x2="176.189" y2="970.585" stroke-width="0.25" stroke="rgb(0,0,0)" />
	<line x1="177.39" y1="970.585" x2="198.972" y2="765.241" stroke-width="0.25" stroke="rgb(0,0,0)" />
	<line x1="200.173" y1="765.241" x2="178.591" y2="970.585" stroke-width="0.25" stroke="rgb(0,0,0)" />
	<line x1="179.792" y1="970.585" x2="201.374" y2="765.241" stroke-width="0.25" stroke="rgb(0,0,0)" />
	<line x1="202.575" y1="765.241" x2="180.993" y2="970.585" stroke-width="0.25" stroke="rgb(0,0,0)" />
	<line x1="182.193" y1="970.585" x2="203.776" y2="765.241" stroke-width="0.25" stroke="rgb(0,0,0)" />
	<line x1="204.977" y1="765.241" x2="183.394" y2="970.585" stroke-width="0.25" stroke="rgb(0,0,0)" />
	<line x1="184.595" y1="970.585" x2="206.178" y2="765.241" stroke-width="0.25" stroke="rgb(0,0,0)" />
	<line x1="207.379" y1="765.241" x2="185.796" y2="970.585" stroke-width="0.25" stroke="rgb(0,0,0)" />
	<line x1="186.997" y1="970.585" x2="208.579" y2="765.241" stroke-width="0.25" stroke="rgb(0,0,0)" />
	<line x1="209.78" y1="765.241" x2="188.198" y2="970.585" stroke-width="0.25" stroke="rgb(0,0,0)" />
	<line x1="189.399" y1="970.585" x2="210.981" y2="765.241" stroke-width="0.25" stroke="rgb(0,0,0)" />
	<line x1="212.182" y1="765.241" x2="190.6" y2="970.585" stroke-width="0.25" stroke="rgb(0,0,0)" />
	<line x1="191.801" y1="970.585" x2="213.383" y2="765.241" stroke-width="0.25" stroke="rgb(0,0,0)" />
	<line x1="214.584" y1="765.241" x2="193.001" y2="970.585" stroke-width="0.25" stroke="rgb(0,0,0)" />
	<line x1="194.202" y1="970.585" x2="215.785" y2="765.241" stroke-width="0.25" stroke="rgb(0,0,0)" />
	<line x1="216.986" y1="765.241" x2="195.403" y2="970.585" stroke-width="0.25" stroke="rgb(0,0,0)" />
	<line x1="196.604" y1="970.585" x2="218.187" y2="765.241" stroke-width="0.25" stroke="rgb(0,0,0)" />
	<line x1="219.387" y1="765.241" x2="197.805" y2="970.585" stroke-width="0.25" stroke="rgb(0,0,0)" />
	<line x1="199.006" y1="970.585" x2="220.588" y2="765.241" stroke-width="0.25" stroke="rgb(0,0,0)" />
	<line x1="221.789" y1="765.241" x2="200.207" y2="970.585" stroke-width="0.25" stroke="rgb(0,0,0)" />
	<line x1="201.408" y1="970.585" x2="222.99" y2="765.241" stroke-width="0.25" stroke="rgb(0,0,0)" />
	<line x1="224.191" y1="765.241" x2="202.609" y2="970.585" stroke-width="0.25" stroke="rgb(0,0,0)" />
	<line x1="203.809" y1="970.585" x2="225.392" y2="765.241" stroke-width="0.25" stroke="rgb(0,0,0)" />
	<line x1="226.593" y1="765.241" x2="205.01" y2="970.585" stroke-width="0.25" stroke="rgb(0,0,0)" />
	<line x1="206.211" y1="970.585" x2="227.794" y2="765.241" stroke-width="0.25" stroke="rgb(0,0,0)" />
	<line x1="228.995" y1="765.241" x2="207.412" y2="970.585" stroke-width="0.25" stroke="rgb(0,0,0)" />
	<line x1="208.613" y1="970.585" x2="230.195" y2="765.241" stroke-width="0.25" stroke="rgb(0,0,0)" />
	<line x1="231.396" y1="765.241" x2="209.814" y2="970.585" stroke-width="0.25" stroke="rgb(0,0,0)" />
	<line x1="211.015" y1="970.585" x2="232.597" y2="765.241" stroke-width="0.25" stroke="rgb(0,0,0)" />
	<line x1="233.798" y1="765.241" x2="212.216" y2="970.585" stroke-width="0.25" stroke="rgb(0,0,0)" />
	<line x1="213.417" y1="970.585" x2="234.999" y2="765.241" stroke-width="0.25" stroke="rgb(0,0,0)" />
	<line x1="236.2" y1="765.241" x2="214.617" y2="970.585" stroke-width="0.25" stroke="rgb(0,0,0)" />
	<line x1="215.818" y1="970.585" x2="237.401" y2="765.241" stroke-width="0.25" stroke="rgb(0,0,0)" />
	<line x1="238.602" y1="765.241" x2="217.019" y2="970.585" stroke-width="0.25" stroke="rgb(0,0,0)" />
	<line x1="218.22" y1="970.585" x2="239.803" y2="765.241" stroke-width="0.25" stroke="rgb(0,0,0)" />
	<line x1="241.003" y1="765.241" x2="219.421" y2="970.585" stroke-width="0.25" stroke="rgb(0,0,0)" />
	<line x1="220.622" y1="970.585" x2="242.204" y2="765.241" stroke-width="0.25" stroke="rgb(0,0,0)" />
	<line x1="243.405" y1="765.241" x2="221.823" y2="970.585" stroke-width="0.25" stroke="rgb(0,0,0)" />
	<line x1="223.024" y1="970.585" x2="244.606" y2="765.241" stroke-width="0.25" stroke="rgb(0,0,0)" />
	<line x1="245.807" y1="765.241" x2="224.225" y2="970.585" stroke-width="0.25" stroke="rgb(0,0,0)" />
	<line x1="225.425" y1="970.585" x2="247.008" y2="765.241" stroke-width="0.25" stroke="rgb(0,0,0)" />
	<line x1="248.209" y1="765.241" x2="226.626" y2="970.585" stroke-width="0.25" stroke="rgb(0,0,0)" />
	<line x1="227.827" y1="970.585" x2="249.41" y2="765.241" stroke-width="0.25" stroke="rgb(0,0,0)" />
	<line x1="250.611" y1="765.241" x2="229.028" y2="970.585" stroke-width="0.25" stroke="rgb(0,0,0)" />
	<line x1="230.229" y1="970.585" x2="251.811" y2="765.241" stroke-width="0.25" stroke="rgb(0,0,0)" />
	<line x1="253.012" y1="765.241" x2="231.43" y2="970.585" stroke-width="0.25" stroke="rgb(0,0,0)" />
	<line x1="232.631" y1="970.585" x2="254.213" y2="765.241" stroke-width="0.25" stroke="rgb(0,0,0)" />
	<line x1="255.414" y1="765.241" x2="233.832" y2="970.585" stroke-width="0.25" stroke="rgb(0,0,0)" />
	<line x1="235.032" y1="970.585" x2="256.615" y2="765.241" stroke-width="0.25" stroke="rgb(0,0,0)" />
	<line x1="257.816" y1="765.241" x2="236.233" y2="970.585" stroke-width="0.25" stroke="rgb(0,0,0)" />
	<line x1="237.434" y1="970.585" x2="259.017" y2="765.241" stroke-width="0.25" stroke="rgb(0,0,0)" />
	<line x1="260.218" y1="765.241" x2="238.635" y2="970.585" stroke-width="0.25" stroke="rgb(0,0,0)" />
	<line x1="239.836" y1="970.585" x2="261.419" y2="765.241" stroke-width="0.25" stroke="rgb(0,0,0)" />
	<line x1="262.619" y1="765.241" x2="241.037" y2="970.585" stroke-width="0.25" stroke="rgb(0,0,0)" />
	<line x1="242.238" y1="970.585" x2="263.82" y2="765.241" stroke-width="0.25" stroke="rgb(0,0,0)" />
	<line x1="265.021" y1="765.241" x2="243.439" y2="970.585" stroke-width="0.25" stroke="rgb(0,0,0)" />
	<line x1="244.64" y1="970.585" x2="266.222" y2="765.241" stroke-width="0.25" stroke="rgb(0,0,0)" />
	<line x1="267.423" y1="765.241" x2="245.84" y2="970.585" stroke-width="0.25" stroke="rgb(0,0,0)" />
	<line x1="247.041" y1="970.585" x2="268.624" y2="765.241" stroke-width="0.25" stroke="rgb(0,0,0)" />
	<line x1="269.825" y1="765.241" x2="248.242" y2="970.585" stroke-width="0.25" stroke="rgb(0,0,0)" />
	<line x1="249.443" y1="970.585" x2="271.026" y2="765.241" stroke-width="0.25" stroke="rgb(0,0,0)" />
	<line x1="272.227" y1="765.241" x2="250.644" y2="970.585" stroke-width="0.25" stroke="rgb(0,0,0)" />
	<line x1="251.845" y1="970.585" x2="273.427" y2="765.241" stroke-width="0.25" stroke="rgb(0,0,0)" />
	<line x1="274.628" y1="765.241" x2="253.046" y2="970.585" stroke-width="0.25" stroke="rgb(0,0,0)" />
	<line x1="254.247" y1="970.585" x2="275.829" y2="765.241" stroke-width="0.25" stroke="rgb(0,0,0)" />
	<line x1="277.03" y1="765.241" x2="255.448" y2="970.585" stroke-width="0.25" stroke="rgb(0,0,0)" />
	<line x1="256.648" y1="970.585" x2="278.231" y2="765.241" stroke-width="0.25" stroke="rgb(0,0,0)" />
	<line x1="279.432" y1="765.241" x2="257.849" y2="970.585" stroke-width="0.25" stroke="rgb(0,0,0)" />
	<line x1="259.05" y1="970.585" x2="280.633" y2="765.241" stroke-width="0.25" stroke="rgb(0,0,0)" />
	<line x1="281.834" y1="765.241" x2="260.251" y2="970.585" stroke-width="0.25" stroke="rgb(0,0,0)" />
	<line x1="261.452" y1="970.585" x2="283.035" y2="765.241" stroke-width="0.25" stroke="rgb(0,0,0)" />
	<line x1="284.235" y1="765.241" x2="262.653" y2="970.585" stroke-width="0.25" stroke="rgb(0,0,0)" />
	<line x1="263.854" y1="970.585" x2="285.436" y2="765.241" stroke-width="0.25" stroke="rgb(0,0,0)" />
	<line x1="286.637" y1="765.241" x2="265.055" y2="970.585" stroke-width="0.25" stroke="rgb(0,0,0)" />
	<line x1="266.256" y1="970.585" x2="287.838" y2="765.241" stroke-width="0.25" stroke="rgb(0,0,0)" />
	<line x1="289.039" y1="765.241" x2="267.456" y2="970.585" stroke-width="0.25" stroke="rgb(0,0,0)" />
	<line x1="268.657" y1="970.585" x2="290.24" y2="765.241" stroke-width="0.25" stroke="rgb(0,0,0)" />
	<line x1="291.441" y1="765.241" x2="269.858" y2="970.585" stroke-width="0.25" stroke="rgb(0,0,0)" />
	<line x1="271.059" y1="970.585" x2="292.642" y2="765.241" stroke-width="0.25" stroke="rgb(0,0,0)" />
	<line x1="293.843" y1="765.241" x2="272.26" y2="970.585" stroke-width="0.25" stroke="rgb(0,0,0)" />
	<line x1="273.461" y1="970.585" x2="295.043" y2="765.241" stroke-width="0.25" stroke="rgb(0,0,0)" />
	<line x1="296.244" y1="765.241" x2="274.662" y2="970.585" stroke-width="0.25" stroke="rgb(0,0,0)" />
	<line x1="275.863" y1="970.585" x2="297.445" y2="765.241" stroke-width="0.25" stroke="rgb(0,0,0)" />
	<line x1="298.646" y1="765.241" x2="277.064" y2="970.585" stroke-width="0.25" stroke="rgb(0,0,0)" />
	<line x1="278.264" y1="970.585" x2="299.847" y2="765.241" stroke-width="0.25" stroke="rgb(0,0,0)" />
	<line x1="301.048" y1="765.241" x2="279.465" y2="970.585" stroke-width="0.25" stroke="rgb(0,0,0)" />
	<line x1="280.666" y1="970.585" x2="302.249" y2="765.241" stroke-width="0.25" stroke="rgb(0,0,0)" />
	<line x1="303.45" y1="765.241" x2="281.867" y2="970.585" stroke-width="0.25" stroke="rgb(0,0,0)" />
	<line x1="283.068" y1="970.585" x2="304.65" y2="765.241" stroke-width="0.25" stroke="rgb(0,0,0)" />
	<line x1="305.851" y1="765.241" x2="284.269" y2="970.585" stroke-width="0.25" stroke="rgb(0,0,0)" />
	<line x1="285.47" y1="970.585" x2="307.052" y2="765.241" stroke-width="0.25" stroke="rgb(0,0,0)" />
	<line x1="308.253" y1="765.241" x2="286.671" y2="970.585" stroke-width="0.25" stroke="rgb(0,0,0)" />
	<line x1="287.872" y1="970.585" x2="309.454" y2="765.241" stroke-width="0.25" stroke="rgb(0,0,0)" />
	<line x1="310.655" y1="765.241" x2="289.072" y2="970.585" stroke-width="0.25" stroke="rgb(0,0,0)" />
	<line x1="290.273" y1="970.585" x2="311.856" y2="765.241" stroke-width="0.25" stroke="rgb(0,0,0)" />
	<line x1="313.057" y1="765.241" x2="291.474" y2="970.585" stroke-width="0.25" stroke="rgb(0,0,0)" />
	<line x1="292.675" y1="970.585" x2="314.258" y2="765.241" stroke-width="0.25" stroke="rgb(0,0,0)" />
	<line x1="315.458" y1="765.241" x2="293.876" y2="970.585" stroke-width="0.25" stroke="rgb(0,0,0)" />
	<line x1="295.077" y1="970.585" x2="316.659" y2="765.241" stroke-width="0.25" stroke="rgb(0,0,0)" />
	<line x1="317.86" y1="765.241" x2="296.278" y2="970.585" stroke-width="0.25" stroke="rgb(0,0,0)" />
	<line x1="297.479" y1="970.585" x2="319.061" y2="765.241" stroke-width="0.25" stroke="rgb(0,0,0)" />
	<line x1="320.262" y1="765.241" x2="298.68" y2="970.585" stroke-width="0.25" stroke="rgb(0,0,0)" />
	<line x1="299.88" y1="970.585" x2="321.463" y2="765.241" stroke-width="0.25" stroke="rgb(0,0,0)" />
	<line x1="322.664" y1="765.241" x2="301.081" y2="970.585" stroke-width="0.25" stroke="rgb(0,0,0)" />
	<line x1="302.282" y1="970.585" x2="323.865" y2="765.241" stroke-width="0.25" stroke="rgb(0,0,0)" />
	<line x1="325.066" y1="765.241" x2="303.483" y2="970.585" stroke-width="0.25" stroke="rgb(0,0,0)" />
	<line x1="304.684" y1="970.585" x2="326.266" y2="765.241" stroke-width="0.25" stroke="rgb(0,0,0)" />
	<line x1="327.467" y1="765.241" x2="305.885" y2="970.585" stroke-width="0.25" stroke="rgb(0,0,0)" />
	<line x1="307.086" y1="970.585" x2="328.668" y2="765.241" stroke-width="0.25" stroke="rgb(0,0,0)" />
	<line x1="329.869" y1="765.241" x2="308.287" y2="970.585" stroke-width="0.25" stroke="rgb(0,0,0)" />
	<line x1="309.488" y1="970.585" x2="331.07" y2="765.241" stroke-width="0.25" stroke="rgb(0,0,0)" />
	<line x1="332.271" y1="765.241" x2="310.688" y2="970.585" stroke-width="0.25" stroke="rgb(0,0,0)" />
	<line x1="311.889" y1="970.585" x2="333.472" y2="765.241" stroke-width="0.25" stroke="rgb(0,0,0)" />
	<line x1="334.673" y1="765.241" x2="313.09" y2="970.585" stroke-width="0.25" stroke="rgb(0,0,0)" />
	<line x1="314.291" y1="970.585" x2="335.874" y2="765.241" stroke-width="0.25" stroke="rgb(0,0,0)" />
	<line x1="337.074" y1="765.241" x2="315.492" y2="970.585" stroke-width="0.25" stroke="rgb(0,0,0)" />
	<line x1="316.693" y1="970.585" x2="338.275" y2="765.241" stroke-width="0.25" stroke="rgb(0,0,0)" />
	<line x1="339.476" y1="765.241" x2="317.894" y2="970.585" stroke-width="0.25" stroke="rgb(0,0,0)" />
	<line x1="319.095" y1="970.585" x2="340.677" y2="765.241" stroke-width="0.25" stroke="rgb(0,0,0)" />
	<line x1="341.878" y1="765.241" x2="320.296" y2="970.585" stroke-width="0.25" stroke="rgb(0,0,0)" />
	<line x1="321.496" y1="970.585" x2="343.079" y2="765.241" stroke-width="0.25" stroke="rgb(0,0,0)" />
	<line x1="344.28" y1="765.241" x2="322.697" y2="970.585" stroke-width="0.25" stroke="rgb(0,0,0)" />
	<line x1="323.898" y1="970.585" x2="345.481" y2="765.241" stroke-width="0.25" stroke="rgb(0,0,0)" />
	<line x1="346.682" y1="765.241" x2="325.099" y2="970.585" stroke-width="0.25" stroke="rgb(0,0,0)" />
	<line x1="326.3" y1="970.585" x2="347.882" y2="765.241" stroke-width="0.25" stroke="rgb(0,0,0)" />
	<line x1="349.083" y1="765.241" x2="327.501" y2="970.585" stroke-width="0.25" stroke="rgb(0,0,0)" />
	<line x1="328.702" y1="970.585" x2="350.284" y2="765.241" stroke-width="0.25" stroke="rgb(0,0,0)" />
	<line x1="351.485" y1="765.241" x2="329.903" y2="970.585" stroke-width="0.25" stroke="rgb(0,0,0)" />
	<line x1="331.104" y1="970.585" x2="352.686" y2="765.241" stroke-width="0.25" stroke="rgb(0,0,0)" />
	<line x1="353.887" y1="765.241" x2="332.304" y2="970.585" stroke-width="0.25" stroke="rgb(0,0,0)" />
	<line x1="333.505" y1="970.585" x2="355.088" y2="765.241" stroke-width="0.25" stroke="rgb(0,0,0)" />
	<line x1="356.289" y1="765.241" x2="334.706" y2="970.585" stroke-width="0.25" stroke="rgb(0,0,0)" />
	<line x1="335.907" y1="970.585" x2="357.49" y2="765.241" stroke-width="0.25" stroke="rgb(0,0,0)" />
	<line x1="357.866" y1="773.085" x2="337.108" y2="970.585" stroke-width="0.25" stroke="rgb(0,0,0)" />
	<line x1="338.309" y1="970.585" x2="357.866" y2="784.511" stroke-width="0.25" stroke="rgb(0,0,0)" />
	<line x1="357.866" y1="795.937" x2="339.51" y2="970.585" stroke-width="0.25" stroke="rgb(0,0,0)" />
	<line x1="340.711" y1="970.585" x2="357.866" y2="807.362" stroke-width="0.25" stroke="rgb(0,0,0)" />
	<line x1="357.866" y1="818.788" x2="341.911" y2="970.585" stroke-width="0.25" stroke="rgb(0,0,0)" />
	<line x1="343.112" y1="970.585" x2="357.866" y2="830.214" stroke-width="0.25" stroke="rgb(0,0,0)" />
	<line x1="357.866" y1="841.639" x2="344.313" y2="970.585" stroke-width="0.25" stroke="rgb(0,0,0)" />
	<line x1="345.514" y1="970.585" x2="357.866" y2="853.065" stroke-width="0.25" stroke="rgb(0,0,0)" />
	<line x1="357.866" y1="864.491" x2="346.715" y2="970.585" stroke-width="0.25" stroke="rgb(0,0,0)" />
	<line x1="347.916" y1="970.585" x2="357.866" y2="875.916" stroke-width="0.25" stroke="rgb(0,0,0)" />
	<line x1="357.866" y1="887.342" x2="349.117" y2="970.585" stroke-width="0.25" stroke="rgb(0,0,0)" />
	<line x1="350.318" y1="970.585" x2="357.866" y2="898.768" stroke-width="0.25" stroke="rgb(0,0,0)" />
	<line x1="357.866" y1="910.193" x2="351.519" y2="970.585" stroke-width="0.25" stroke="rgb(0,0,0)" />
	<line x1="352.719" y1="970.585" x2="357.866" y2="921.619" stroke-width="0.25" stroke="rgb(0,0,0)" />
	<line x1="357.866" y1="933.045" x2="353.92" y2="970.585" stroke-width="0.25" stroke="rgb(0,0,0)" />
	<line x1="355.121" y1="970.585" x2="357.866" y2="944.47" stroke-width="0.25" stroke="rgb(0,0,0)" />
	<line x1="357.866" y1="955.896" x2="356.322" y2="970.585" stroke-width="0.25" stroke="rgb(0,0,0)" />
	<line x1="357.523" y1="970.585" x2="357.866" y2="967.322" stroke-width="0.25" stroke="rgb(0,0,0)" />
</svg>
