<?xml version="1.0" standalone="no" ?>
<!DOCTYPE svg PUBLIC "-//W3C//DTD SVG 1.1//EN" "http://www.w3.org/Graphics/SVG/1.1/DTD/svg11.dtd">
<svg width="2000px" height="2000px" xmlns="http://www.w3.org/2000/svg" version="1.1" >
	<line x1="348.389" y1="1580.65" x2="338.659" y2="1570.92" stroke-width="0.25" stroke="rgb(0,0,0)" />
	<line x1="338.659" y1="1570.92" x2="150.665" y2="1570.92" stroke-width="0.25" stroke="rgb(0,0,0)" />
	<line x1="150.665" y1="1570.92" x2="150.665" y2="1768.65" stroke-width="0.25" stroke="rgb(0,0,0)" />
	<line x1="150.665" y1="1768.65" x2="348.389" y2="1768.65" stroke-width="0.25" stroke="rgb(0,0,0)" />
	<line x1="348.389" y1="1768.65" x2="348.389" y2="1580.65" stroke-width="0.25" stroke="rgb(0,0,0)" />
	<line x1="232.353" y1="890.754" x2="150.864" y2="890.754" stroke-width="0.25" stroke="rgb(0,0,0)" />
	<line x1="150.864" y1="890.754" x2="150.864" y2="972.243" stroke-width="0.25" stroke="rgb(0,0,0)" />
	<line x1="150.864" y1="972.243" x2="232.353" y2="972.243" stroke-width="0.25" stroke="rgb(0,0,0)" />
	<line x1="232.353" y1="972.243" x2="232.353" y2="890.754" stroke-width="0.25" stroke="rgb(0,0,0)" />
	<line x1="231.491" y1="891.616" x2="151.726" y2="891.616" stroke-width="0.25" stroke="rgb(0,0,0)" />
	<line x1="151.726" y1="891.616" x2="151.726" y2="971.381" stroke-width="0.25" stroke="rgb(0,0,0)" />
	<line x1="151.726" y1="971.381" x2="231.491" y2="971.381" stroke-width="0.25" stroke="rgb(0,0,0)" />
	<line x1="231.491" y1="971.381" x2="231.491" y2="891.616" stroke-width="0.25" stroke="rgb(0,0,0)" />
	<line x1="337.732" y1="1570.92" x2="341.123" y2="1573.39" stroke-width="0.25" stroke="rgb(0,0,0)" />
	<line x1="345.322" y1="1577.59" x2="336.151" y2="1570.92" stroke-width="0.25" stroke="rgb(0,0,0)" />
	<line x1="334.571" y1="1570.92" x2="348.389" y2="1580.96" stroke-width="0.25" stroke="rgb(0,0,0)" />
	<line x1="348.389" y1="1582.11" x2="332.991" y2="1570.92" stroke-width="0.25" stroke="rgb(0,0,0)" />
	<line x1="331.41" y1="1570.92" x2="348.389" y2="1583.26" stroke-width="0.25" stroke="rgb(0,0,0)" />
	<line x1="348.389" y1="1584.41" x2="329.83" y2="1570.92" stroke-width="0.25" stroke="rgb(0,0,0)" />
	<line x1="328.249" y1="1570.92" x2="348.389" y2="1585.56" stroke-width="0.25" stroke="rgb(0,0,0)" />
	<line x1="348.389" y1="1586.7" x2="326.669" y2="1570.92" stroke-width="0.25" stroke="rgb(0,0,0)" />
	<line x1="325.089" y1="1570.92" x2="348.389" y2="1587.85" stroke-width="0.25" stroke="rgb(0,0,0)" />
	<line x1="348.389" y1="1589" x2="323.508" y2="1570.92" stroke-width="0.25" stroke="rgb(0,0,0)" />
	<line x1="321.928" y1="1570.92" x2="348.389" y2="1590.15" stroke-width="0.25" stroke="rgb(0,0,0)" />
	<line x1="348.389" y1="1591.3" x2="320.348" y2="1570.92" stroke-width="0.25" stroke="rgb(0,0,0)" />
	<line x1="318.767" y1="1570.92" x2="348.389" y2="1592.45" stroke-width="0.25" stroke="rgb(0,0,0)" />
	<line x1="348.389" y1="1593.59" x2="317.187" y2="1570.92" stroke-width="0.25" stroke="rgb(0,0,0)" />
	<line x1="315.607" y1="1570.92" x2="348.389" y2="1594.74" stroke-width="0.25" stroke="rgb(0,0,0)" />
	<line x1="348.389" y1="1595.89" x2="314.026" y2="1570.92" stroke-width="0.25" stroke="rgb(0,0,0)" />
	<line x1="312.446" y1="1570.92" x2="348.389" y2="1597.04" stroke-width="0.25" stroke="rgb(0,0,0)" />
	<line x1="348.389" y1="1598.19" x2="310.866" y2="1570.92" stroke-width="0.25" stroke="rgb(0,0,0)" />
	<line x1="309.285" y1="1570.92" x2="348.389" y2="1599.33" stroke-width="0.25" stroke="rgb(0,0,0)" />
	<line x1="348.389" y1="1600.48" x2="307.705" y2="1570.92" stroke-width="0.25" stroke="rgb(0,0,0)" />
	<line x1="306.125" y1="1570.92" x2="348.389" y2="1601.63" stroke-width="0.25" stroke="rgb(0,0,0)" />
	<line x1="348.389" y1="1602.78" x2="304.544" y2="1570.92" stroke-width="0.25" stroke="rgb(0,0,0)" />
	<line x1="302.964" y1="1570.92" x2="348.389" y2="1603.93" stroke-width="0.25" stroke="rgb(0,0,0)" />
	<line x1="348.389" y1="1605.08" x2="301.384" y2="1570.92" stroke-width="0.25" stroke="rgb(0,0,0)" />
	<line x1="299.803" y1="1570.92" x2="348.389" y2="1606.22" stroke-width="0.25" stroke="rgb(0,0,0)" />
	<line x1="348.389" y1="1607.37" x2="298.223" y2="1570.92" stroke-width="0.25" stroke="rgb(0,0,0)" />
	<line x1="296.642" y1="1570.92" x2="348.389" y2="1608.52" stroke-width="0.25" stroke="rgb(0,0,0)" />
	<line x1="348.389" y1="1609.67" x2="295.062" y2="1570.92" stroke-width="0.25" stroke="rgb(0,0,0)" />
	<line x1="293.482" y1="1570.92" x2="348.389" y2="1610.82" stroke-width="0.25" stroke="rgb(0,0,0)" />
	<line x1="348.389" y1="1611.96" x2="291.901" y2="1570.92" stroke-width="0.25" stroke="rgb(0,0,0)" />
	<line x1="290.321" y1="1570.92" x2="348.389" y2="1613.11" stroke-width="0.25" stroke="rgb(0,0,0)" />
	<line x1="348.389" y1="1614.26" x2="288.741" y2="1570.92" stroke-width="0.25" stroke="rgb(0,0,0)" />
	<line x1="287.16" y1="1570.92" x2="348.389" y2="1615.41" stroke-width="0.25" stroke="rgb(0,0,0)" />
	<line x1="348.389" y1="1616.56" x2="285.58" y2="1570.92" stroke-width="0.25" stroke="rgb(0,0,0)" />
	<line x1="284" y1="1570.92" x2="348.389" y2="1617.71" stroke-width="0.25" stroke="rgb(0,0,0)" />
	<line x1="348.389" y1="1618.85" x2="282.419" y2="1570.92" stroke-width="0.25" stroke="rgb(0,0,0)" />
	<line x1="280.839" y1="1570.92" x2="348.389" y2="1620" stroke-width="0.25" stroke="rgb(0,0,0)" />
	<line x1="348.389" y1="1621.15" x2="279.259" y2="1570.92" stroke-width="0.25" stroke="rgb(0,0,0)" />
	<line x1="277.678" y1="1570.92" x2="348.389" y2="1622.3" stroke-width="0.25" stroke="rgb(0,0,0)" />
	<line x1="348.389" y1="1623.45" x2="276.098" y2="1570.92" stroke-width="0.25" stroke="rgb(0,0,0)" />
	<line x1="274.518" y1="1570.92" x2="348.389" y2="1624.59" stroke-width="0.25" stroke="rgb(0,0,0)" />
	<line x1="348.389" y1="1625.74" x2="272.937" y2="1570.92" stroke-width="0.25" stroke="rgb(0,0,0)" />
	<line x1="271.357" y1="1570.92" x2="348.389" y2="1626.89" stroke-width="0.25" stroke="rgb(0,0,0)" />
	<line x1="348.389" y1="1628.04" x2="269.776" y2="1570.92" stroke-width="0.25" stroke="rgb(0,0,0)" />
	<line x1="268.196" y1="1570.92" x2="348.389" y2="1629.19" stroke-width="0.25" stroke="rgb(0,0,0)" />
	<line x1="348.389" y1="1630.34" x2="266.616" y2="1570.92" stroke-width="0.25" stroke="rgb(0,0,0)" />
	<line x1="265.035" y1="1570.92" x2="348.389" y2="1631.48" stroke-width="0.25" stroke="rgb(0,0,0)" />
	<line x1="348.389" y1="1632.63" x2="263.455" y2="1570.92" stroke-width="0.25" stroke="rgb(0,0,0)" />
	<line x1="261.875" y1="1570.92" x2="348.389" y2="1633.78" stroke-width="0.25" stroke="rgb(0,0,0)" />
	<line x1="348.389" y1="1634.93" x2="260.294" y2="1570.92" stroke-width="0.25" stroke="rgb(0,0,0)" />
	<line x1="258.714" y1="1570.92" x2="348.389" y2="1636.08" stroke-width="0.25" stroke="rgb(0,0,0)" />
	<line x1="348.389" y1="1637.22" x2="257.134" y2="1570.92" stroke-width="0.25" stroke="rgb(0,0,0)" />
	<line x1="255.553" y1="1570.92" x2="348.389" y2="1638.37" stroke-width="0.25" stroke="rgb(0,0,0)" />
	<line x1="348.389" y1="1639.52" x2="253.973" y2="1570.92" stroke-width="0.25" stroke="rgb(0,0,0)" />
	<line x1="252.393" y1="1570.92" x2="348.389" y2="1640.67" stroke-width="0.25" stroke="rgb(0,0,0)" />
	<line x1="348.389" y1="1641.82" x2="250.812" y2="1570.92" stroke-width="0.25" stroke="rgb(0,0,0)" />
	<line x1="249.232" y1="1570.92" x2="348.389" y2="1642.97" stroke-width="0.25" stroke="rgb(0,0,0)" />
	<line x1="348.389" y1="1644.11" x2="247.652" y2="1570.92" stroke-width="0.25" stroke="rgb(0,0,0)" />
	<line x1="246.071" y1="1570.92" x2="348.389" y2="1645.26" stroke-width="0.25" stroke="rgb(0,0,0)" />
	<line x1="348.389" y1="1646.41" x2="244.491" y2="1570.92" stroke-width="0.25" stroke="rgb(0,0,0)" />
	<line x1="242.911" y1="1570.92" x2="348.389" y2="1647.56" stroke-width="0.25" stroke="rgb(0,0,0)" />
	<line x1="348.389" y1="1648.71" x2="241.33" y2="1570.92" stroke-width="0.25" stroke="rgb(0,0,0)" />
	<line x1="239.75" y1="1570.92" x2="348.389" y2="1649.85" stroke-width="0.25" stroke="rgb(0,0,0)" />
	<line x1="348.389" y1="1651" x2="238.169" y2="1570.92" stroke-width="0.25" stroke="rgb(0,0,0)" />
	<line x1="236.589" y1="1570.92" x2="348.389" y2="1652.15" stroke-width="0.25" stroke="rgb(0,0,0)" />
	<line x1="348.389" y1="1653.3" x2="235.009" y2="1570.92" stroke-width="0.25" stroke="rgb(0,0,0)" />
	<line x1="233.428" y1="1570.92" x2="348.389" y2="1654.45" stroke-width="0.25" stroke="rgb(0,0,0)" />
	<line x1="348.389" y1="1655.6" x2="231.848" y2="1570.92" stroke-width="0.25" stroke="rgb(0,0,0)" />
	<line x1="230.268" y1="1570.92" x2="348.389" y2="1656.74" stroke-width="0.25" stroke="rgb(0,0,0)" />
	<line x1="348.389" y1="1657.89" x2="228.687" y2="1570.92" stroke-width="0.25" stroke="rgb(0,0,0)" />
	<line x1="227.107" y1="1570.92" x2="348.389" y2="1659.04" stroke-width="0.25" stroke="rgb(0,0,0)" />
	<line x1="348.389" y1="1660.19" x2="225.527" y2="1570.92" stroke-width="0.25" stroke="rgb(0,0,0)" />
	<line x1="223.946" y1="1570.92" x2="348.389" y2="1661.34" stroke-width="0.25" stroke="rgb(0,0,0)" />
	<line x1="348.389" y1="1662.49" x2="222.366" y2="1570.92" stroke-width="0.25" stroke="rgb(0,0,0)" />
	<line x1="220.786" y1="1570.92" x2="348.389" y2="1663.63" stroke-width="0.25" stroke="rgb(0,0,0)" />
	<line x1="348.389" y1="1664.78" x2="219.205" y2="1570.92" stroke-width="0.25" stroke="rgb(0,0,0)" />
	<line x1="217.625" y1="1570.92" x2="348.389" y2="1665.93" stroke-width="0.25" stroke="rgb(0,0,0)" />
	<line x1="348.389" y1="1667.08" x2="216.045" y2="1570.92" stroke-width="0.25" stroke="rgb(0,0,0)" />
	<line x1="214.464" y1="1570.92" x2="348.389" y2="1668.23" stroke-width="0.25" stroke="rgb(0,0,0)" />
	<line x1="348.389" y1="1669.37" x2="212.884" y2="1570.92" stroke-width="0.25" stroke="rgb(0,0,0)" />
	<line x1="211.304" y1="1570.92" x2="348.389" y2="1670.52" stroke-width="0.25" stroke="rgb(0,0,0)" />
	<line x1="348.389" y1="1671.67" x2="209.723" y2="1570.92" stroke-width="0.25" stroke="rgb(0,0,0)" />
	<line x1="208.143" y1="1570.92" x2="348.389" y2="1672.82" stroke-width="0.25" stroke="rgb(0,0,0)" />
	<line x1="348.389" y1="1673.97" x2="206.562" y2="1570.92" stroke-width="0.25" stroke="rgb(0,0,0)" />
	<line x1="204.982" y1="1570.92" x2="348.389" y2="1675.12" stroke-width="0.25" stroke="rgb(0,0,0)" />
	<line x1="348.389" y1="1676.26" x2="203.402" y2="1570.92" stroke-width="0.25" stroke="rgb(0,0,0)" />
	<line x1="201.821" y1="1570.92" x2="348.389" y2="1677.41" stroke-width="0.25" stroke="rgb(0,0,0)" />
	<line x1="348.389" y1="1678.56" x2="200.241" y2="1570.92" stroke-width="0.25" stroke="rgb(0,0,0)" />
	<line x1="198.661" y1="1570.92" x2="348.389" y2="1679.71" stroke-width="0.25" stroke="rgb(0,0,0)" />
	<line x1="348.389" y1="1680.86" x2="197.08" y2="1570.92" stroke-width="0.25" stroke="rgb(0,0,0)" />
	<line x1="195.5" y1="1570.92" x2="348.389" y2="1682" stroke-width="0.25" stroke="rgb(0,0,0)" />
	<line x1="348.389" y1="1683.15" x2="193.92" y2="1570.92" stroke-width="0.25" stroke="rgb(0,0,0)" />
	<line x1="192.339" y1="1570.92" x2="348.389" y2="1684.3" stroke-width="0.25" stroke="rgb(0,0,0)" />
	<line x1="348.389" y1="1685.45" x2="190.759" y2="1570.92" stroke-width="0.25" stroke="rgb(0,0,0)" />
	<line x1="189.179" y1="1570.92" x2="348.389" y2="1686.6" stroke-width="0.25" stroke="rgb(0,0,0)" />
	<line x1="348.389" y1="1687.75" x2="187.598" y2="1570.92" stroke-width="0.25" stroke="rgb(0,0,0)" />
	<line x1="186.018" y1="1570.92" x2="348.389" y2="1688.89" stroke-width="0.25" stroke="rgb(0,0,0)" />
	<line x1="348.389" y1="1690.04" x2="184.438" y2="1570.92" stroke-width="0.25" stroke="rgb(0,0,0)" />
	<line x1="182.857" y1="1570.92" x2="348.389" y2="1691.19" stroke-width="0.25" stroke="rgb(0,0,0)" />
	<line x1="348.389" y1="1692.34" x2="181.277" y2="1570.92" stroke-width="0.25" stroke="rgb(0,0,0)" />
	<line x1="179.696" y1="1570.92" x2="348.389" y2="1693.49" stroke-width="0.25" stroke="rgb(0,0,0)" />
	<line x1="348.389" y1="1694.63" x2="178.116" y2="1570.92" stroke-width="0.25" stroke="rgb(0,0,0)" />
	<line x1="176.536" y1="1570.92" x2="348.389" y2="1695.78" stroke-width="0.25" stroke="rgb(0,0,0)" />
	<line x1="348.389" y1="1696.93" x2="174.955" y2="1570.92" stroke-width="0.25" stroke="rgb(0,0,0)" />
	<line x1="173.375" y1="1570.92" x2="348.389" y2="1698.08" stroke-width="0.25" stroke="rgb(0,0,0)" />
	<line x1="348.389" y1="1699.23" x2="171.795" y2="1570.92" stroke-width="0.25" stroke="rgb(0,0,0)" />
	<line x1="170.214" y1="1570.92" x2="348.389" y2="1700.38" stroke-width="0.25" stroke="rgb(0,0,0)" />
	<line x1="348.389" y1="1701.52" x2="168.634" y2="1570.92" stroke-width="0.25" stroke="rgb(0,0,0)" />
	<line x1="167.054" y1="1570.92" x2="348.389" y2="1702.67" stroke-width="0.25" stroke="rgb(0,0,0)" />
	<line x1="348.389" y1="1703.82" x2="165.473" y2="1570.92" stroke-width="0.25" stroke="rgb(0,0,0)" />
	<line x1="163.893" y1="1570.92" x2="348.389" y2="1704.97" stroke-width="0.25" stroke="rgb(0,0,0)" />
	<line x1="348.389" y1="1706.12" x2="162.313" y2="1570.92" stroke-width="0.25" stroke="rgb(0,0,0)" />
	<line x1="160.732" y1="1570.92" x2="348.389" y2="1707.26" stroke-width="0.25" stroke="rgb(0,0,0)" />
	<line x1="348.389" y1="1708.41" x2="159.152" y2="1570.92" stroke-width="0.25" stroke="rgb(0,0,0)" />
	<line x1="157.572" y1="1570.92" x2="348.389" y2="1709.56" stroke-width="0.25" stroke="rgb(0,0,0)" />
	<line x1="348.389" y1="1710.71" x2="155.991" y2="1570.92" stroke-width="0.25" stroke="rgb(0,0,0)" />
	<line x1="154.411" y1="1570.92" x2="348.389" y2="1711.86" stroke-width="0.25" stroke="rgb(0,0,0)" />
	<line x1="348.389" y1="1713.01" x2="152.831" y2="1570.92" stroke-width="0.25" stroke="rgb(0,0,0)" />
	<line x1="151.25" y1="1570.92" x2="348.389" y2="1714.15" stroke-width="0.25" stroke="rgb(0,0,0)" />
	<line x1="348.389" y1="1715.3" x2="150.665" y2="1571.65" stroke-width="0.25" stroke="rgb(0,0,0)" />
	<line x1="150.665" y1="1572.79" x2="348.389" y2="1716.45" stroke-width="0.25" stroke="rgb(0,0,0)" />
	<line x1="348.389" y1="1717.6" x2="150.665" y2="1573.94" stroke-width="0.25" stroke="rgb(0,0,0)" />
	<line x1="150.665" y1="1575.09" x2="348.389" y2="1718.75" stroke-width="0.25" stroke="rgb(0,0,0)" />
	<line x1="348.389" y1="1719.89" x2="150.665" y2="1576.24" stroke-width="0.25" stroke="rgb(0,0,0)" />
	<line x1="150.665" y1="1577.39" x2="348.389" y2="1721.04" stroke-width="0.25" stroke="rgb(0,0,0)" />
	<line x1="348.389" y1="1722.19" x2="150.665" y2="1578.54" stroke-width="0.25" stroke="rgb(0,0,0)" />
	<line x1="150.665" y1="1579.68" x2="348.389" y2="1723.34" stroke-width="0.25" stroke="rgb(0,0,0)" />
	<line x1="348.389" y1="1724.49" x2="150.665" y2="1580.83" stroke-width="0.25" stroke="rgb(0,0,0)" />
	<line x1="150.665" y1="1581.98" x2="348.389" y2="1725.64" stroke-width="0.25" stroke="rgb(0,0,0)" />
	<line x1="348.389" y1="1726.78" x2="150.665" y2="1583.13" stroke-width="0.25" stroke="rgb(0,0,0)" />
	<line x1="150.665" y1="1584.28" x2="348.389" y2="1727.93" stroke-width="0.25" stroke="rgb(0,0,0)" />
	<line x1="348.389" y1="1729.08" x2="150.665" y2="1585.42" stroke-width="0.25" stroke="rgb(0,0,0)" />
	<line x1="150.665" y1="1586.57" x2="348.389" y2="1730.23" stroke-width="0.25" stroke="rgb(0,0,0)" />
	<line x1="348.389" y1="1731.38" x2="150.665" y2="1587.72" stroke-width="0.25" stroke="rgb(0,0,0)" />
	<line x1="150.665" y1="1588.87" x2="348.389" y2="1732.52" stroke-width="0.25" stroke="rgb(0,0,0)" />
	<line x1="348.389" y1="1733.67" x2="150.665" y2="1590.02" stroke-width="0.25" stroke="rgb(0,0,0)" />
	<line x1="150.665" y1="1591.17" x2="348.389" y2="1734.82" stroke-width="0.25" stroke="rgb(0,0,0)" />
	<line x1="348.389" y1="1735.97" x2="150.665" y2="1592.31" stroke-width="0.25" stroke="rgb(0,0,0)" />
	<line x1="150.665" y1="1593.46" x2="348.389" y2="1737.12" stroke-width="0.25" stroke="rgb(0,0,0)" />
	<line x1="348.389" y1="1738.27" x2="150.665" y2="1594.61" stroke-width="0.25" stroke="rgb(0,0,0)" />
	<line x1="150.665" y1="1595.76" x2="348.389" y2="1739.41" stroke-width="0.25" stroke="rgb(0,0,0)" />
	<line x1="348.389" y1="1740.56" x2="150.665" y2="1596.91" stroke-width="0.25" stroke="rgb(0,0,0)" />
	<line x1="150.665" y1="1598.06" x2="348.389" y2="1741.71" stroke-width="0.25" stroke="rgb(0,0,0)" />
	<line x1="348.389" y1="1742.86" x2="150.665" y2="1599.2" stroke-width="0.25" stroke="rgb(0,0,0)" />
	<line x1="150.665" y1="1600.35" x2="348.389" y2="1744.01" stroke-width="0.25" stroke="rgb(0,0,0)" />
	<line x1="348.389" y1="1745.15" x2="150.665" y2="1601.5" stroke-width="0.25" stroke="rgb(0,0,0)" />
	<line x1="150.665" y1="1602.65" x2="348.389" y2="1746.3" stroke-width="0.25" stroke="rgb(0,0,0)" />
	<line x1="348.389" y1="1747.45" x2="150.665" y2="1603.8" stroke-width="0.25" stroke="rgb(0,0,0)" />
	<line x1="150.665" y1="1604.94" x2="348.389" y2="1748.6" stroke-width="0.25" stroke="rgb(0,0,0)" />
	<line x1="348.389" y1="1749.75" x2="150.665" y2="1606.09" stroke-width="0.25" stroke="rgb(0,0,0)" />
	<line x1="150.665" y1="1607.24" x2="348.389" y2="1750.9" stroke-width="0.25" stroke="rgb(0,0,0)" />
	<line x1="348.389" y1="1752.04" x2="150.665" y2="1608.39" stroke-width="0.25" stroke="rgb(0,0,0)" />
	<line x1="150.665" y1="1609.54" x2="348.389" y2="1753.19" stroke-width="0.25" stroke="rgb(0,0,0)" />
	<line x1="348.389" y1="1754.34" x2="150.665" y2="1610.69" stroke-width="0.25" stroke="rgb(0,0,0)" />
	<line x1="150.665" y1="1611.83" x2="348.389" y2="1755.49" stroke-width="0.25" stroke="rgb(0,0,0)" />
	<line x1="348.389" y1="1756.64" x2="150.665" y2="1612.98" stroke-width="0.25" stroke="rgb(0,0,0)" />
	<line x1="150.665" y1="1614.13" x2="348.389" y2="1757.79" stroke-width="0.25" stroke="rgb(0,0,0)" />
	<line x1="348.389" y1="1758.93" x2="150.665" y2="1615.28" stroke-width="0.25" stroke="rgb(0,0,0)" />
	<line x1="150.665" y1="1616.43" x2="348.389" y2="1760.08" stroke-width="0.25" stroke="rgb(0,0,0)" />
	<line x1="348.389" y1="1761.23" x2="150.665" y2="1617.57" stroke-width="0.25" stroke="rgb(0,0,0)" />
	<line x1="150.665" y1="1618.72" x2="348.389" y2="1762.38" stroke-width="0.25" stroke="rgb(0,0,0)" />
	<line x1="348.389" y1="1763.53" x2="150.665" y2="1619.87" stroke-width="0.25" stroke="rgb(0,0,0)" />
	<line x1="150.665" y1="1621.02" x2="348.389" y2="1764.67" stroke-width="0.25" stroke="rgb(0,0,0)" />
	<line x1="348.389" y1="1765.82" x2="150.665" y2="1622.17" stroke-width="0.25" stroke="rgb(0,0,0)" />
	<line x1="150.665" y1="1623.32" x2="348.389" y2="1766.97" stroke-width="0.25" stroke="rgb(0,0,0)" />
	<line x1="348.389" y1="1768.12" x2="150.665" y2="1624.46" stroke-width="0.25" stroke="rgb(0,0,0)" />
	<line x1="150.665" y1="1625.61" x2="347.538" y2="1768.65" stroke-width="0.25" stroke="rgb(0,0,0)" />
	<line x1="345.957" y1="1768.65" x2="150.665" y2="1626.76" stroke-width="0.25" stroke="rgb(0,0,0)" />
	<line x1="150.665" y1="1627.91" x2="344.377" y2="1768.65" stroke-width="0.25" stroke="rgb(0,0,0)" />
	<line x1="342.797" y1="1768.65" x2="150.665" y2="1629.06" stroke-width="0.25" stroke="rgb(0,0,0)" />
	<line x1="150.665" y1="1630.2" x2="341.216" y2="1768.65" stroke-width="0.25" stroke="rgb(0,0,0)" />
	<line x1="339.636" y1="1768.65" x2="150.665" y2="1631.35" stroke-width="0.25" stroke="rgb(0,0,0)" />
	<line x1="150.665" y1="1632.5" x2="338.056" y2="1768.65" stroke-width="0.25" stroke="rgb(0,0,0)" />
	<line x1="336.475" y1="1768.65" x2="150.665" y2="1633.65" stroke-width="0.25" stroke="rgb(0,0,0)" />
	<line x1="150.665" y1="1634.8" x2="334.895" y2="1768.65" stroke-width="0.25" stroke="rgb(0,0,0)" />
	<line x1="333.315" y1="1768.65" x2="150.665" y2="1635.95" stroke-width="0.25" stroke="rgb(0,0,0)" />
	<line x1="150.665" y1="1637.09" x2="331.734" y2="1768.65" stroke-width="0.25" stroke="rgb(0,0,0)" />
	<line x1="330.154" y1="1768.65" x2="150.665" y2="1638.24" stroke-width="0.25" stroke="rgb(0,0,0)" />
	<line x1="150.665" y1="1639.39" x2="328.574" y2="1768.65" stroke-width="0.25" stroke="rgb(0,0,0)" />
	<line x1="326.993" y1="1768.65" x2="150.665" y2="1640.54" stroke-width="0.25" stroke="rgb(0,0,0)" />
	<line x1="150.665" y1="1641.69" x2="325.413" y2="1768.65" stroke-width="0.25" stroke="rgb(0,0,0)" />
	<line x1="323.832" y1="1768.65" x2="150.665" y2="1642.83" stroke-width="0.25" stroke="rgb(0,0,0)" />
	<line x1="150.665" y1="1643.98" x2="322.252" y2="1768.65" stroke-width="0.25" stroke="rgb(0,0,0)" />
	<line x1="320.672" y1="1768.65" x2="150.665" y2="1645.13" stroke-width="0.25" stroke="rgb(0,0,0)" />
	<line x1="150.665" y1="1646.28" x2="319.091" y2="1768.65" stroke-width="0.25" stroke="rgb(0,0,0)" />
	<line x1="317.511" y1="1768.65" x2="150.665" y2="1647.43" stroke-width="0.25" stroke="rgb(0,0,0)" />
	<line x1="150.665" y1="1648.58" x2="315.931" y2="1768.65" stroke-width="0.25" stroke="rgb(0,0,0)" />
	<line x1="314.35" y1="1768.65" x2="150.665" y2="1649.72" stroke-width="0.25" stroke="rgb(0,0,0)" />
	<line x1="150.665" y1="1650.87" x2="312.77" y2="1768.65" stroke-width="0.25" stroke="rgb(0,0,0)" />
	<line x1="311.19" y1="1768.65" x2="150.665" y2="1652.02" stroke-width="0.25" stroke="rgb(0,0,0)" />
	<line x1="150.665" y1="1653.17" x2="309.609" y2="1768.65" stroke-width="0.25" stroke="rgb(0,0,0)" />
	<line x1="308.029" y1="1768.65" x2="150.665" y2="1654.32" stroke-width="0.25" stroke="rgb(0,0,0)" />
	<line x1="150.665" y1="1655.46" x2="306.449" y2="1768.65" stroke-width="0.25" stroke="rgb(0,0,0)" />
	<line x1="304.868" y1="1768.65" x2="150.665" y2="1656.61" stroke-width="0.25" stroke="rgb(0,0,0)" />
	<line x1="150.665" y1="1657.76" x2="303.288" y2="1768.65" stroke-width="0.25" stroke="rgb(0,0,0)" />
	<line x1="301.708" y1="1768.65" x2="150.665" y2="1658.91" stroke-width="0.25" stroke="rgb(0,0,0)" />
	<line x1="150.665" y1="1660.06" x2="300.127" y2="1768.65" stroke-width="0.25" stroke="rgb(0,0,0)" />
	<line x1="298.547" y1="1768.65" x2="150.665" y2="1661.21" stroke-width="0.25" stroke="rgb(0,0,0)" />
	<line x1="150.665" y1="1662.35" x2="296.967" y2="1768.65" stroke-width="0.25" stroke="rgb(0,0,0)" />
	<line x1="295.386" y1="1768.65" x2="150.665" y2="1663.5" stroke-width="0.25" stroke="rgb(0,0,0)" />
	<line x1="150.665" y1="1664.65" x2="293.806" y2="1768.65" stroke-width="0.25" stroke="rgb(0,0,0)" />
	<line x1="292.225" y1="1768.65" x2="150.665" y2="1665.8" stroke-width="0.25" stroke="rgb(0,0,0)" />
	<line x1="150.665" y1="1666.95" x2="290.645" y2="1768.65" stroke-width="0.25" stroke="rgb(0,0,0)" />
	<line x1="289.065" y1="1768.65" x2="150.665" y2="1668.09" stroke-width="0.25" stroke="rgb(0,0,0)" />
	<line x1="150.665" y1="1669.24" x2="287.484" y2="1768.65" stroke-width="0.25" stroke="rgb(0,0,0)" />
	<line x1="285.904" y1="1768.65" x2="150.665" y2="1670.39" stroke-width="0.25" stroke="rgb(0,0,0)" />
	<line x1="150.665" y1="1671.54" x2="284.324" y2="1768.65" stroke-width="0.25" stroke="rgb(0,0,0)" />
	<line x1="282.743" y1="1768.65" x2="150.665" y2="1672.69" stroke-width="0.25" stroke="rgb(0,0,0)" />
	<line x1="150.665" y1="1673.84" x2="281.163" y2="1768.65" stroke-width="0.25" stroke="rgb(0,0,0)" />
	<line x1="279.583" y1="1768.65" x2="150.665" y2="1674.98" stroke-width="0.25" stroke="rgb(0,0,0)" />
	<line x1="150.665" y1="1676.13" x2="278.002" y2="1768.65" stroke-width="0.25" stroke="rgb(0,0,0)" />
	<line x1="276.422" y1="1768.65" x2="150.665" y2="1677.28" stroke-width="0.25" stroke="rgb(0,0,0)" />
	<line x1="150.665" y1="1678.43" x2="274.842" y2="1768.65" stroke-width="0.25" stroke="rgb(0,0,0)" />
	<line x1="273.261" y1="1768.65" x2="150.665" y2="1679.58" stroke-width="0.25" stroke="rgb(0,0,0)" />
	<line x1="150.665" y1="1680.72" x2="271.681" y2="1768.65" stroke-width="0.25" stroke="rgb(0,0,0)" />
	<line x1="270.101" y1="1768.65" x2="150.665" y2="1681.87" stroke-width="0.25" stroke="rgb(0,0,0)" />
	<line x1="150.665" y1="1683.02" x2="268.52" y2="1768.65" stroke-width="0.25" stroke="rgb(0,0,0)" />
	<line x1="266.94" y1="1768.65" x2="150.665" y2="1684.17" stroke-width="0.25" stroke="rgb(0,0,0)" />
	<line x1="150.665" y1="1685.32" x2="265.359" y2="1768.65" stroke-width="0.25" stroke="rgb(0,0,0)" />
	<line x1="263.779" y1="1768.65" x2="150.665" y2="1686.47" stroke-width="0.25" stroke="rgb(0,0,0)" />
	<line x1="150.665" y1="1687.61" x2="262.199" y2="1768.65" stroke-width="0.25" stroke="rgb(0,0,0)" />
	<line x1="260.618" y1="1768.65" x2="150.665" y2="1688.76" stroke-width="0.25" stroke="rgb(0,0,0)" />
	<line x1="150.665" y1="1689.91" x2="259.038" y2="1768.65" stroke-width="0.25" stroke="rgb(0,0,0)" />
	<line x1="257.458" y1="1768.65" x2="150.665" y2="1691.06" stroke-width="0.25" stroke="rgb(0,0,0)" />
	<line x1="150.665" y1="1692.21" x2="255.877" y2="1768.65" stroke-width="0.25" stroke="rgb(0,0,0)" />
	<line x1="254.297" y1="1768.65" x2="150.665" y2="1693.36" stroke-width="0.25" stroke="rgb(0,0,0)" />
	<line x1="150.665" y1="1694.5" x2="252.717" y2="1768.65" stroke-width="0.25" stroke="rgb(0,0,0)" />
	<line x1="251.136" y1="1768.65" x2="150.665" y2="1695.65" stroke-width="0.25" stroke="rgb(0,0,0)" />
	<line x1="150.665" y1="1696.8" x2="249.556" y2="1768.65" stroke-width="0.25" stroke="rgb(0,0,0)" />
	<line x1="247.976" y1="1768.65" x2="150.665" y2="1697.95" stroke-width="0.25" stroke="rgb(0,0,0)" />
	<line x1="150.665" y1="1699.1" x2="246.395" y2="1768.65" stroke-width="0.25" stroke="rgb(0,0,0)" />
	<line x1="244.815" y1="1768.65" x2="150.665" y2="1700.24" stroke-width="0.25" stroke="rgb(0,0,0)" />
	<line x1="150.665" y1="1701.39" x2="243.235" y2="1768.65" stroke-width="0.25" stroke="rgb(0,0,0)" />
	<line x1="241.654" y1="1768.65" x2="150.665" y2="1702.54" stroke-width="0.25" stroke="rgb(0,0,0)" />
	<line x1="150.665" y1="1703.69" x2="240.074" y2="1768.65" stroke-width="0.25" stroke="rgb(0,0,0)" />
	<line x1="238.494" y1="1768.65" x2="150.665" y2="1704.84" stroke-width="0.25" stroke="rgb(0,0,0)" />
	<line x1="150.665" y1="1705.99" x2="236.913" y2="1768.65" stroke-width="0.25" stroke="rgb(0,0,0)" />
	<line x1="235.333" y1="1768.65" x2="150.665" y2="1707.13" stroke-width="0.25" stroke="rgb(0,0,0)" />
	<line x1="150.665" y1="1708.28" x2="233.752" y2="1768.65" stroke-width="0.25" stroke="rgb(0,0,0)" />
	<line x1="232.172" y1="1768.65" x2="150.665" y2="1709.43" stroke-width="0.25" stroke="rgb(0,0,0)" />
	<line x1="150.665" y1="1710.58" x2="230.592" y2="1768.65" stroke-width="0.25" stroke="rgb(0,0,0)" />
	<line x1="229.011" y1="1768.65" x2="150.665" y2="1711.73" stroke-width="0.25" stroke="rgb(0,0,0)" />
	<line x1="150.665" y1="1712.87" x2="227.431" y2="1768.65" stroke-width="0.25" stroke="rgb(0,0,0)" />
	<line x1="225.851" y1="1768.65" x2="150.665" y2="1714.02" stroke-width="0.25" stroke="rgb(0,0,0)" />
	<line x1="150.665" y1="1715.17" x2="224.27" y2="1768.65" stroke-width="0.25" stroke="rgb(0,0,0)" />
	<line x1="222.69" y1="1768.65" x2="150.665" y2="1716.32" stroke-width="0.25" stroke="rgb(0,0,0)" />
	<line x1="150.665" y1="1717.47" x2="221.11" y2="1768.65" stroke-width="0.25" stroke="rgb(0,0,0)" />
	<line x1="219.529" y1="1768.65" x2="150.665" y2="1718.62" stroke-width="0.25" stroke="rgb(0,0,0)" />
	<line x1="150.665" y1="1719.76" x2="217.949" y2="1768.65" stroke-width="0.25" stroke="rgb(0,0,0)" />
	<line x1="216.369" y1="1768.65" x2="150.665" y2="1720.91" stroke-width="0.25" stroke="rgb(0,0,0)" />
	<line x1="150.665" y1="1722.06" x2="214.788" y2="1768.65" stroke-width="0.25" stroke="rgb(0,0,0)" />
	<line x1="213.208" y1="1768.65" x2="150.665" y2="1723.21" stroke-width="0.25" stroke="rgb(0,0,0)" />
	<line x1="150.665" y1="1724.36" x2="211.628" y2="1768.65" stroke-width="0.25" stroke="rgb(0,0,0)" />
	<line x1="210.047" y1="1768.65" x2="150.665" y2="1725.5" stroke-width="0.25" stroke="rgb(0,0,0)" />
	<line x1="150.665" y1="1726.65" x2="208.467" y2="1768.65" stroke-width="0.25" stroke="rgb(0,0,0)" />
	<line x1="206.886" y1="1768.65" x2="150.665" y2="1727.8" stroke-width="0.25" stroke="rgb(0,0,0)" />
	<line x1="150.665" y1="1728.95" x2="205.306" y2="1768.65" stroke-width="0.25" stroke="rgb(0,0,0)" />
	<line x1="203.726" y1="1768.65" x2="150.665" y2="1730.1" stroke-width="0.25" stroke="rgb(0,0,0)" />
	<line x1="150.665" y1="1731.25" x2="202.145" y2="1768.65" stroke-width="0.25" stroke="rgb(0,0,0)" />
	<line x1="200.565" y1="1768.65" x2="150.665" y2="1732.39" stroke-width="0.25" stroke="rgb(0,0,0)" />
	<line x1="150.665" y1="1733.54" x2="198.985" y2="1768.65" stroke-width="0.25" stroke="rgb(0,0,0)" />
	<line x1="197.404" y1="1768.65" x2="150.665" y2="1734.69" stroke-width="0.25" stroke="rgb(0,0,0)" />
	<line x1="150.665" y1="1735.84" x2="195.824" y2="1768.65" stroke-width="0.25" stroke="rgb(0,0,0)" />
	<line x1="194.244" y1="1768.65" x2="150.665" y2="1736.99" stroke-width="0.25" stroke="rgb(0,0,0)" />
	<line x1="150.665" y1="1738.13" x2="192.663" y2="1768.65" stroke-width="0.25" stroke="rgb(0,0,0)" />
	<line x1="191.083" y1="1768.65" x2="150.665" y2="1739.28" stroke-width="0.25" stroke="rgb(0,0,0)" />
	<line x1="150.665" y1="1740.43" x2="189.503" y2="1768.65" stroke-width="0.25" stroke="rgb(0,0,0)" />
	<line x1="187.922" y1="1768.65" x2="150.665" y2="1741.58" stroke-width="0.25" stroke="rgb(0,0,0)" />
	<line x1="150.665" y1="1742.73" x2="186.342" y2="1768.65" stroke-width="0.25" stroke="rgb(0,0,0)" />
	<line x1="184.762" y1="1768.65" x2="150.665" y2="1743.88" stroke-width="0.25" stroke="rgb(0,0,0)" />
	<line x1="150.665" y1="1745.02" x2="183.181" y2="1768.65" stroke-width="0.25" stroke="rgb(0,0,0)" />
	<line x1="181.601" y1="1768.65" x2="150.665" y2="1746.17" stroke-width="0.25" stroke="rgb(0,0,0)" />
	<line x1="150.665" y1="1747.32" x2="180.021" y2="1768.65" stroke-width="0.25" stroke="rgb(0,0,0)" />
	<line x1="178.44" y1="1768.65" x2="150.665" y2="1748.47" stroke-width="0.25" stroke="rgb(0,0,0)" />
	<line x1="150.665" y1="1749.62" x2="176.86" y2="1768.65" stroke-width="0.25" stroke="rgb(0,0,0)" />
	<line x1="175.279" y1="1768.65" x2="150.665" y2="1750.76" stroke-width="0.25" stroke="rgb(0,0,0)" />
	<line x1="150.665" y1="1751.91" x2="173.699" y2="1768.65" stroke-width="0.25" stroke="rgb(0,0,0)" />
	<line x1="172.119" y1="1768.65" x2="150.665" y2="1753.06" stroke-width="0.25" stroke="rgb(0,0,0)" />
	<line x1="150.665" y1="1754.21" x2="170.538" y2="1768.65" stroke-width="0.25" stroke="rgb(0,0,0)" />
	<line x1="168.958" y1="1768.65" x2="150.665" y2="1755.36" stroke-width="0.25" stroke="rgb(0,0,0)" />
	<line x1="150.665" y1="1756.51" x2="167.378" y2="1768.65" stroke-width="0.25" stroke="rgb(0,0,0)" />
	<line x1="165.797" y1="1768.65" x2="150.665" y2="1757.65" stroke-width="0.25" stroke="rgb(0,0,0)" />
	<line x1="150.665" y1="1758.8" x2="164.217" y2="1768.65" stroke-width="0.25" stroke="rgb(0,0,0)" />
	<line x1="162.637" y1="1768.65" x2="150.665" y2="1759.95" stroke-width="0.25" stroke="rgb(0,0,0)" />
	<line x1="150.665" y1="1761.1" x2="161.056" y2="1768.65" stroke-width="0.25" stroke="rgb(0,0,0)" />
	<line x1="159.476" y1="1768.65" x2="150.665" y2="1762.25" stroke-width="0.25" stroke="rgb(0,0,0)" />
	<line x1="150.665" y1="1763.39" x2="157.896" y2="1768.65" stroke-width="0.25" stroke="rgb(0,0,0)" />
	<line x1="156.315" y1="1768.65" x2="150.665" y2="1764.54" stroke-width="0.25" stroke="rgb(0,0,0)" />
	<line x1="150.665" y1="1765.69" x2="154.735" y2="1768.65" stroke-width="0.25" stroke="rgb(0,0,0)" />
	<line x1="153.155" y1="1768.65" x2="150.665" y2="1766.84" stroke-width="0.25" stroke="rgb(0,0,0)" />
	<line x1="150.665" y1="1767.99" x2="151.574" y2="1768.65" stroke-width="0.25" stroke="rgb(0,0,0)" />
	<line x1="230.59" y1="892.413" x2="230.694" y2="892.488" stroke-width="0.25" stroke="rgb(0,0,0)" />
	<line x1="230.694" y1="893.965" x2="228.558" y2="892.413" stroke-width="0.25" stroke="rgb(0,0,0)" />
	<line x1="226.526" y1="892.413" x2="230.694" y2="895.441" stroke-width="0.25" stroke="rgb(0,0,0)" />
	<line x1="230.694" y1="896.917" x2="224.495" y2="892.413" stroke-width="0.25" stroke="rgb(0,0,0)" />
	<line x1="222.463" y1="892.413" x2="230.694" y2="898.393" stroke-width="0.25" stroke="rgb(0,0,0)" />
	<line x1="230.694" y1="899.87" x2="220.431" y2="892.413" stroke-width="0.25" stroke="rgb(0,0,0)" />
	<line x1="218.399" y1="892.413" x2="230.694" y2="901.346" stroke-width="0.25" stroke="rgb(0,0,0)" />
	<line x1="230.694" y1="902.822" x2="216.367" y2="892.413" stroke-width="0.25" stroke="rgb(0,0,0)" />
	<line x1="214.335" y1="892.413" x2="230.694" y2="904.298" stroke-width="0.25" stroke="rgb(0,0,0)" />
	<line x1="230.694" y1="905.775" x2="212.303" y2="892.413" stroke-width="0.25" stroke="rgb(0,0,0)" />
	<line x1="210.271" y1="892.413" x2="230.694" y2="907.251" stroke-width="0.25" stroke="rgb(0,0,0)" />
	<line x1="230.694" y1="908.727" x2="208.239" y2="892.413" stroke-width="0.25" stroke="rgb(0,0,0)" />
	<line x1="206.208" y1="892.413" x2="230.694" y2="910.203" stroke-width="0.25" stroke="rgb(0,0,0)" />
	<line x1="230.694" y1="911.68" x2="204.176" y2="892.413" stroke-width="0.25" stroke="rgb(0,0,0)" />
	<line x1="202.144" y1="892.413" x2="230.694" y2="913.156" stroke-width="0.25" stroke="rgb(0,0,0)" />
	<line x1="230.694" y1="914.632" x2="200.112" y2="892.413" stroke-width="0.25" stroke="rgb(0,0,0)" />
	<line x1="198.08" y1="892.413" x2="230.694" y2="916.108" stroke-width="0.25" stroke="rgb(0,0,0)" />
	<line x1="230.694" y1="917.585" x2="196.048" y2="892.413" stroke-width="0.25" stroke="rgb(0,0,0)" />
	<line x1="194.016" y1="892.413" x2="230.694" y2="919.061" stroke-width="0.25" stroke="rgb(0,0,0)" />
	<line x1="230.694" y1="920.537" x2="191.984" y2="892.413" stroke-width="0.25" stroke="rgb(0,0,0)" />
	<line x1="189.953" y1="892.413" x2="230.694" y2="922.013" stroke-width="0.25" stroke="rgb(0,0,0)" />
	<line x1="230.694" y1="923.49" x2="187.921" y2="892.413" stroke-width="0.25" stroke="rgb(0,0,0)" />
	<line x1="185.889" y1="892.413" x2="230.694" y2="924.966" stroke-width="0.25" stroke="rgb(0,0,0)" />
	<line x1="230.694" y1="926.442" x2="183.857" y2="892.413" stroke-width="0.25" stroke="rgb(0,0,0)" />
	<line x1="181.825" y1="892.413" x2="230.694" y2="927.918" stroke-width="0.25" stroke="rgb(0,0,0)" />
	<line x1="230.694" y1="929.395" x2="179.793" y2="892.413" stroke-width="0.25" stroke="rgb(0,0,0)" />
	<line x1="177.761" y1="892.413" x2="230.694" y2="930.871" stroke-width="0.25" stroke="rgb(0,0,0)" />
	<line x1="230.694" y1="932.347" x2="175.729" y2="892.413" stroke-width="0.25" stroke="rgb(0,0,0)" />
	<line x1="173.698" y1="892.413" x2="230.694" y2="933.823" stroke-width="0.25" stroke="rgb(0,0,0)" />
	<line x1="230.694" y1="935.3" x2="171.666" y2="892.413" stroke-width="0.25" stroke="rgb(0,0,0)" />
	<line x1="169.634" y1="892.413" x2="230.694" y2="936.776" stroke-width="0.25" stroke="rgb(0,0,0)" />
	<line x1="230.694" y1="938.252" x2="167.602" y2="892.413" stroke-width="0.25" stroke="rgb(0,0,0)" />
	<line x1="165.57" y1="892.413" x2="230.694" y2="939.728" stroke-width="0.25" stroke="rgb(0,0,0)" />
	<line x1="230.694" y1="941.205" x2="163.538" y2="892.413" stroke-width="0.25" stroke="rgb(0,0,0)" />
	<line x1="161.506" y1="892.413" x2="230.694" y2="942.681" stroke-width="0.25" stroke="rgb(0,0,0)" />
	<line x1="230.694" y1="944.157" x2="159.474" y2="892.413" stroke-width="0.25" stroke="rgb(0,0,0)" />
	<line x1="157.442" y1="892.413" x2="230.694" y2="945.633" stroke-width="0.25" stroke="rgb(0,0,0)" />
	<line x1="230.694" y1="947.11" x2="155.411" y2="892.413" stroke-width="0.25" stroke="rgb(0,0,0)" />
	<line x1="153.379" y1="892.413" x2="230.694" y2="948.586" stroke-width="0.25" stroke="rgb(0,0,0)" />
	<line x1="230.694" y1="950.062" x2="152.522" y2="893.267" stroke-width="0.25" stroke="rgb(0,0,0)" />
	<line x1="152.522" y1="894.743" x2="230.694" y2="951.538" stroke-width="0.25" stroke="rgb(0,0,0)" />
	<line x1="230.694" y1="953.014" x2="152.522" y2="896.219" stroke-width="0.25" stroke="rgb(0,0,0)" />
	<line x1="152.522" y1="897.695" x2="230.694" y2="954.491" stroke-width="0.25" stroke="rgb(0,0,0)" />
	<line x1="230.694" y1="955.967" x2="152.522" y2="899.172" stroke-width="0.25" stroke="rgb(0,0,0)" />
	<line x1="152.522" y1="900.648" x2="230.694" y2="957.443" stroke-width="0.25" stroke="rgb(0,0,0)" />
	<line x1="230.694" y1="958.919" x2="152.522" y2="902.124" stroke-width="0.25" stroke="rgb(0,0,0)" />
	<line x1="152.522" y1="903.6" x2="230.694" y2="960.396" stroke-width="0.25" stroke="rgb(0,0,0)" />
	<line x1="230.694" y1="961.872" x2="152.522" y2="905.077" stroke-width="0.25" stroke="rgb(0,0,0)" />
	<line x1="152.522" y1="906.553" x2="230.694" y2="963.348" stroke-width="0.25" stroke="rgb(0,0,0)" />
	<line x1="230.694" y1="964.824" x2="152.522" y2="908.029" stroke-width="0.25" stroke="rgb(0,0,0)" />
	<line x1="152.522" y1="909.505" x2="230.694" y2="966.301" stroke-width="0.25" stroke="rgb(0,0,0)" />
	<line x1="230.694" y1="967.777" x2="152.522" y2="910.982" stroke-width="0.25" stroke="rgb(0,0,0)" />
	<line x1="152.522" y1="912.458" x2="230.694" y2="969.253" stroke-width="0.25" stroke="rgb(0,0,0)" />
	<line x1="230.495" y1="970.585" x2="152.522" y2="913.934" stroke-width="0.25" stroke="rgb(0,0,0)" />
	<line x1="152.522" y1="915.41" x2="228.463" y2="970.585" stroke-width="0.25" stroke="rgb(0,0,0)" />
	<line x1="226.431" y1="970.585" x2="152.522" y2="916.887" stroke-width="0.25" stroke="rgb(0,0,0)" />
	<line x1="152.522" y1="918.363" x2="224.399" y2="970.585" stroke-width="0.25" stroke="rgb(0,0,0)" />
	<line x1="222.368" y1="970.585" x2="152.522" y2="919.839" stroke-width="0.25" stroke="rgb(0,0,0)" />
	<line x1="152.522" y1="921.315" x2="220.336" y2="970.585" stroke-width="0.25" stroke="rgb(0,0,0)" />
	<line x1="218.304" y1="970.585" x2="152.522" y2="922.792" stroke-width="0.25" stroke="rgb(0,0,0)" />
	<line x1="152.522" y1="924.268" x2="216.272" y2="970.585" stroke-width="0.25" stroke="rgb(0,0,0)" />
	<line x1="214.24" y1="970.585" x2="152.522" y2="925.744" stroke-width="0.25" stroke="rgb(0,0,0)" />
	<line x1="152.522" y1="927.22" x2="212.208" y2="970.585" stroke-width="0.25" stroke="rgb(0,0,0)" />
	<line x1="210.176" y1="970.585" x2="152.522" y2="928.697" stroke-width="0.25" stroke="rgb(0,0,0)" />
	<line x1="152.522" y1="930.173" x2="208.144" y2="970.585" stroke-width="0.25" stroke="rgb(0,0,0)" />
	<line x1="206.113" y1="970.585" x2="152.522" y2="931.649" stroke-width="0.25" stroke="rgb(0,0,0)" />
	<line x1="152.522" y1="933.125" x2="204.081" y2="970.585" stroke-width="0.25" stroke="rgb(0,0,0)" />
	<line x1="202.049" y1="970.585" x2="152.522" y2="934.602" stroke-width="0.25" stroke="rgb(0,0,0)" />
	<line x1="152.522" y1="936.078" x2="200.017" y2="970.585" stroke-width="0.25" stroke="rgb(0,0,0)" />
	<line x1="197.985" y1="970.585" x2="152.522" y2="937.554" stroke-width="0.25" stroke="rgb(0,0,0)" />
	<line x1="152.522" y1="939.03" x2="195.953" y2="970.585" stroke-width="0.25" stroke="rgb(0,0,0)" />
	<line x1="193.921" y1="970.585" x2="152.522" y2="940.507" stroke-width="0.25" stroke="rgb(0,0,0)" />
	<line x1="152.522" y1="941.983" x2="191.889" y2="970.585" stroke-width="0.25" stroke="rgb(0,0,0)" />
	<line x1="189.857" y1="970.585" x2="152.522" y2="943.459" stroke-width="0.25" stroke="rgb(0,0,0)" />
	<line x1="152.522" y1="944.935" x2="187.826" y2="970.585" stroke-width="0.25" stroke="rgb(0,0,0)" />
	<line x1="185.794" y1="970.585" x2="152.522" y2="946.412" stroke-width="0.25" stroke="rgb(0,0,0)" />
	<line x1="152.522" y1="947.888" x2="183.762" y2="970.585" stroke-width="0.25" stroke="rgb(0,0,0)" />
	<line x1="181.73" y1="970.585" x2="152.522" y2="949.364" stroke-width="0.25" stroke="rgb(0,0,0)" />
	<line x1="152.522" y1="950.84" x2="179.698" y2="970.585" stroke-width="0.25" stroke="rgb(0,0,0)" />
	<line x1="177.666" y1="970.585" x2="152.522" y2="952.317" stroke-width="0.25" stroke="rgb(0,0,0)" />
	<line x1="152.522" y1="953.793" x2="175.634" y2="970.585" stroke-width="0.25" stroke="rgb(0,0,0)" />
	<line x1="173.602" y1="970.585" x2="152.522" y2="955.269" stroke-width="0.25" stroke="rgb(0,0,0)" />
	<line x1="152.522" y1="956.745" x2="171.571" y2="970.585" stroke-width="0.25" stroke="rgb(0,0,0)" />
	<line x1="169.539" y1="970.585" x2="152.522" y2="958.222" stroke-width="0.25" stroke="rgb(0,0,0)" />
	<line x1="152.522" y1="959.698" x2="167.507" y2="970.585" stroke-width="0.25" stroke="rgb(0,0,0)" />
	<line x1="165.475" y1="970.585" x2="152.522" y2="961.174" stroke-width="0.25" stroke="rgb(0,0,0)" />
	<line x1="152.522" y1="962.65" x2="163.443" y2="970.585" stroke-width="0.25" stroke="rgb(0,0,0)" />
	<line x1="161.411" y1="970.585" x2="152.522" y2="964.127" stroke-width="0.25" stroke="rgb(0,0,0)" />
	<line x1="152.522" y1="965.603" x2="159.379" y2="970.585" stroke-width="0.25" stroke="rgb(0,0,0)" />
	<line x1="157.347" y1="970.585" x2="152.522" y2="967.079" stroke-width="0.25" stroke="rgb(0,0,0)" />
	<line x1="152.522" y1="968.555" x2="155.316" y2="970.585" stroke-width="0.25" stroke="rgb(0,0,0)" />
	<line x1="153.284" y1="970.585" x2="152.522" y2="970.032" stroke-width="0.25" stroke="rgb(0,0,0)" />
</svg>
