<?xml version="1.0" standalone="no" ?>
<!DOCTYPE svg PUBLIC "-//W3C//DTD SVG 1.1//EN" "http://www.w3.org/Graphics/SVG/1.1/DTD/svg11.dtd">
<svg width="2000px" height="2000px" xmlns="http://www.w3.org/2000/svg" version="1.1" >
	<line x1="348.389" y1="1597.24" x2="322.071" y2="1570.92" stroke-width="0.25" stroke="rgb(0,0,0)" />
	<line x1="322.071" y1="1570.92" x2="150.665" y2="1570.92" stroke-width="0.25" stroke="rgb(0,0,0)" />
	<line x1="150.665" y1="1570.92" x2="150.665" y2="1768.65" stroke-width="0.25" stroke="rgb(0,0,0)" />
	<line x1="150.665" y1="1768.65" x2="348.389" y2="1768.65" stroke-width="0.25" stroke="rgb(0,0,0)" />
	<line x1="348.389" y1="1768.65" x2="348.389" y2="1597.24" stroke-width="0.25" stroke="rgb(0,0,0)" />
	<line x1="259.999" y1="863.108" x2="150.864" y2="863.108" stroke-width="0.25" stroke="rgb(0,0,0)" />
	<line x1="150.864" y1="863.108" x2="150.864" y2="972.243" stroke-width="0.25" stroke="rgb(0,0,0)" />
	<line x1="150.864" y1="972.243" x2="259.999" y2="972.243" stroke-width="0.25" stroke="rgb(0,0,0)" />
	<line x1="259.999" y1="972.243" x2="259.999" y2="863.108" stroke-width="0.25" stroke="rgb(0,0,0)" />
	<line x1="259.136" y1="863.971" x2="151.726" y2="863.971" stroke-width="0.25" stroke="rgb(0,0,0)" />
	<line x1="151.726" y1="863.971" x2="151.726" y2="971.381" stroke-width="0.25" stroke="rgb(0,0,0)" />
	<line x1="151.726" y1="971.381" x2="259.136" y2="971.381" stroke-width="0.25" stroke="rgb(0,0,0)" />
	<line x1="259.136" y1="971.381" x2="259.136" y2="863.971" stroke-width="0.25" stroke="rgb(0,0,0)" />
	<line x1="150.665" y1="1575.75" x2="151.172" y2="1570.92" stroke-width="0.25" stroke="rgb(0,0,0)" />
	<line x1="152.106" y1="1570.92" x2="150.665" y2="1584.64" stroke-width="0.25" stroke="rgb(0,0,0)" />
	<line x1="150.665" y1="1593.52" x2="153.04" y2="1570.92" stroke-width="0.25" stroke="rgb(0,0,0)" />
	<line x1="153.974" y1="1570.92" x2="150.665" y2="1602.41" stroke-width="0.25" stroke="rgb(0,0,0)" />
	<line x1="150.665" y1="1611.3" x2="154.908" y2="1570.92" stroke-width="0.25" stroke="rgb(0,0,0)" />
	<line x1="155.842" y1="1570.92" x2="150.665" y2="1620.18" stroke-width="0.25" stroke="rgb(0,0,0)" />
	<line x1="150.665" y1="1629.07" x2="156.776" y2="1570.92" stroke-width="0.25" stroke="rgb(0,0,0)" />
	<line x1="157.71" y1="1570.92" x2="150.665" y2="1637.96" stroke-width="0.25" stroke="rgb(0,0,0)" />
	<line x1="150.665" y1="1646.84" x2="158.644" y2="1570.92" stroke-width="0.25" stroke="rgb(0,0,0)" />
	<line x1="159.578" y1="1570.92" x2="150.665" y2="1655.73" stroke-width="0.25" stroke="rgb(0,0,0)" />
	<line x1="150.665" y1="1664.62" x2="160.512" y2="1570.92" stroke-width="0.25" stroke="rgb(0,0,0)" />
	<line x1="161.446" y1="1570.92" x2="150.665" y2="1673.5" stroke-width="0.25" stroke="rgb(0,0,0)" />
	<line x1="150.665" y1="1682.39" x2="162.38" y2="1570.92" stroke-width="0.25" stroke="rgb(0,0,0)" />
	<line x1="163.314" y1="1570.92" x2="150.665" y2="1691.28" stroke-width="0.25" stroke="rgb(0,0,0)" />
	<line x1="150.665" y1="1700.16" x2="164.248" y2="1570.92" stroke-width="0.25" stroke="rgb(0,0,0)" />
	<line x1="165.182" y1="1570.92" x2="150.665" y2="1709.05" stroke-width="0.25" stroke="rgb(0,0,0)" />
	<line x1="150.665" y1="1717.94" x2="166.116" y2="1570.92" stroke-width="0.25" stroke="rgb(0,0,0)" />
	<line x1="167.05" y1="1570.92" x2="150.665" y2="1726.82" stroke-width="0.25" stroke="rgb(0,0,0)" />
	<line x1="150.665" y1="1735.71" x2="167.984" y2="1570.92" stroke-width="0.25" stroke="rgb(0,0,0)" />
	<line x1="168.918" y1="1570.92" x2="150.665" y2="1744.6" stroke-width="0.25" stroke="rgb(0,0,0)" />
	<line x1="150.665" y1="1753.48" x2="169.852" y2="1570.92" stroke-width="0.25" stroke="rgb(0,0,0)" />
	<line x1="170.786" y1="1570.92" x2="150.665" y2="1762.37" stroke-width="0.25" stroke="rgb(0,0,0)" />
	<line x1="150.939" y1="1768.65" x2="171.72" y2="1570.92" stroke-width="0.25" stroke="rgb(0,0,0)" />
	<line x1="172.654" y1="1570.92" x2="151.873" y2="1768.65" stroke-width="0.25" stroke="rgb(0,0,0)" />
	<line x1="152.807" y1="1768.65" x2="173.588" y2="1570.92" stroke-width="0.25" stroke="rgb(0,0,0)" />
	<line x1="174.522" y1="1570.92" x2="153.741" y2="1768.65" stroke-width="0.25" stroke="rgb(0,0,0)" />
	<line x1="154.675" y1="1768.65" x2="175.456" y2="1570.92" stroke-width="0.25" stroke="rgb(0,0,0)" />
	<line x1="176.39" y1="1570.92" x2="155.609" y2="1768.65" stroke-width="0.25" stroke="rgb(0,0,0)" />
	<line x1="156.543" y1="1768.65" x2="177.324" y2="1570.92" stroke-width="0.25" stroke="rgb(0,0,0)" />
	<line x1="178.258" y1="1570.92" x2="157.477" y2="1768.65" stroke-width="0.25" stroke="rgb(0,0,0)" />
	<line x1="158.411" y1="1768.65" x2="179.193" y2="1570.92" stroke-width="0.25" stroke="rgb(0,0,0)" />
	<line x1="180.127" y1="1570.92" x2="159.345" y2="1768.65" stroke-width="0.25" stroke="rgb(0,0,0)" />
	<line x1="160.279" y1="1768.65" x2="181.061" y2="1570.92" stroke-width="0.25" stroke="rgb(0,0,0)" />
	<line x1="181.995" y1="1570.92" x2="161.213" y2="1768.65" stroke-width="0.25" stroke="rgb(0,0,0)" />
	<line x1="162.147" y1="1768.65" x2="182.929" y2="1570.92" stroke-width="0.25" stroke="rgb(0,0,0)" />
	<line x1="183.863" y1="1570.92" x2="163.081" y2="1768.65" stroke-width="0.25" stroke="rgb(0,0,0)" />
	<line x1="164.015" y1="1768.65" x2="184.797" y2="1570.92" stroke-width="0.25" stroke="rgb(0,0,0)" />
	<line x1="185.731" y1="1570.92" x2="164.949" y2="1768.65" stroke-width="0.25" stroke="rgb(0,0,0)" />
	<line x1="165.883" y1="1768.65" x2="186.665" y2="1570.92" stroke-width="0.25" stroke="rgb(0,0,0)" />
	<line x1="187.599" y1="1570.92" x2="166.817" y2="1768.65" stroke-width="0.25" stroke="rgb(0,0,0)" />
	<line x1="167.751" y1="1768.65" x2="188.533" y2="1570.92" stroke-width="0.25" stroke="rgb(0,0,0)" />
	<line x1="189.467" y1="1570.92" x2="168.685" y2="1768.65" stroke-width="0.25" stroke="rgb(0,0,0)" />
	<line x1="169.619" y1="1768.65" x2="190.401" y2="1570.92" stroke-width="0.25" stroke="rgb(0,0,0)" />
	<line x1="191.335" y1="1570.92" x2="170.553" y2="1768.65" stroke-width="0.25" stroke="rgb(0,0,0)" />
	<line x1="171.487" y1="1768.65" x2="192.269" y2="1570.92" stroke-width="0.25" stroke="rgb(0,0,0)" />
	<line x1="193.203" y1="1570.92" x2="172.421" y2="1768.65" stroke-width="0.25" stroke="rgb(0,0,0)" />
	<line x1="173.355" y1="1768.65" x2="194.137" y2="1570.92" stroke-width="0.25" stroke="rgb(0,0,0)" />
	<line x1="195.071" y1="1570.92" x2="174.289" y2="1768.65" stroke-width="0.25" stroke="rgb(0,0,0)" />
	<line x1="175.223" y1="1768.65" x2="196.005" y2="1570.92" stroke-width="0.25" stroke="rgb(0,0,0)" />
	<line x1="196.939" y1="1570.92" x2="176.157" y2="1768.65" stroke-width="0.25" stroke="rgb(0,0,0)" />
	<line x1="177.091" y1="1768.65" x2="197.873" y2="1570.92" stroke-width="0.25" stroke="rgb(0,0,0)" />
	<line x1="198.807" y1="1570.92" x2="178.025" y2="1768.65" stroke-width="0.25" stroke="rgb(0,0,0)" />
	<line x1="178.959" y1="1768.65" x2="199.741" y2="1570.92" stroke-width="0.25" stroke="rgb(0,0,0)" />
	<line x1="200.675" y1="1570.92" x2="179.893" y2="1768.65" stroke-width="0.25" stroke="rgb(0,0,0)" />
	<line x1="180.827" y1="1768.65" x2="201.609" y2="1570.92" stroke-width="0.25" stroke="rgb(0,0,0)" />
	<line x1="202.543" y1="1570.92" x2="181.761" y2="1768.65" stroke-width="0.25" stroke="rgb(0,0,0)" />
	<line x1="182.695" y1="1768.65" x2="203.477" y2="1570.92" stroke-width="0.25" stroke="rgb(0,0,0)" />
	<line x1="204.411" y1="1570.92" x2="183.629" y2="1768.65" stroke-width="0.25" stroke="rgb(0,0,0)" />
	<line x1="184.563" y1="1768.65" x2="205.345" y2="1570.92" stroke-width="0.25" stroke="rgb(0,0,0)" />
	<line x1="206.279" y1="1570.92" x2="185.498" y2="1768.65" stroke-width="0.25" stroke="rgb(0,0,0)" />
	<line x1="186.432" y1="1768.65" x2="207.213" y2="1570.92" stroke-width="0.25" stroke="rgb(0,0,0)" />
	<line x1="208.147" y1="1570.92" x2="187.366" y2="1768.65" stroke-width="0.25" stroke="rgb(0,0,0)" />
	<line x1="188.3" y1="1768.65" x2="209.081" y2="1570.92" stroke-width="0.25" stroke="rgb(0,0,0)" />
	<line x1="210.015" y1="1570.92" x2="189.234" y2="1768.65" stroke-width="0.25" stroke="rgb(0,0,0)" />
	<line x1="190.168" y1="1768.65" x2="210.949" y2="1570.92" stroke-width="0.25" stroke="rgb(0,0,0)" />
	<line x1="211.883" y1="1570.92" x2="191.102" y2="1768.65" stroke-width="0.25" stroke="rgb(0,0,0)" />
	<line x1="192.036" y1="1768.65" x2="212.817" y2="1570.92" stroke-width="0.25" stroke="rgb(0,0,0)" />
	<line x1="213.751" y1="1570.92" x2="192.97" y2="1768.65" stroke-width="0.25" stroke="rgb(0,0,0)" />
	<line x1="193.904" y1="1768.65" x2="214.685" y2="1570.92" stroke-width="0.25" stroke="rgb(0,0,0)" />
	<line x1="215.619" y1="1570.92" x2="194.838" y2="1768.65" stroke-width="0.25" stroke="rgb(0,0,0)" />
	<line x1="195.772" y1="1768.65" x2="216.553" y2="1570.92" stroke-width="0.25" stroke="rgb(0,0,0)" />
	<line x1="217.487" y1="1570.92" x2="196.706" y2="1768.65" stroke-width="0.25" stroke="rgb(0,0,0)" />
	<line x1="197.64" y1="1768.65" x2="218.421" y2="1570.92" stroke-width="0.25" stroke="rgb(0,0,0)" />
	<line x1="219.356" y1="1570.92" x2="198.574" y2="1768.65" stroke-width="0.25" stroke="rgb(0,0,0)" />
	<line x1="199.508" y1="1768.65" x2="220.29" y2="1570.92" stroke-width="0.25" stroke="rgb(0,0,0)" />
	<line x1="221.224" y1="1570.92" x2="200.442" y2="1768.65" stroke-width="0.25" stroke="rgb(0,0,0)" />
	<line x1="201.376" y1="1768.65" x2="222.158" y2="1570.92" stroke-width="0.25" stroke="rgb(0,0,0)" />
	<line x1="223.092" y1="1570.92" x2="202.31" y2="1768.65" stroke-width="0.25" stroke="rgb(0,0,0)" />
	<line x1="203.244" y1="1768.65" x2="224.026" y2="1570.92" stroke-width="0.25" stroke="rgb(0,0,0)" />
	<line x1="224.96" y1="1570.92" x2="204.178" y2="1768.65" stroke-width="0.25" stroke="rgb(0,0,0)" />
	<line x1="205.112" y1="1768.65" x2="225.894" y2="1570.92" stroke-width="0.25" stroke="rgb(0,0,0)" />
	<line x1="226.828" y1="1570.92" x2="206.046" y2="1768.65" stroke-width="0.25" stroke="rgb(0,0,0)" />
	<line x1="206.98" y1="1768.65" x2="227.762" y2="1570.92" stroke-width="0.25" stroke="rgb(0,0,0)" />
	<line x1="228.696" y1="1570.92" x2="207.914" y2="1768.65" stroke-width="0.25" stroke="rgb(0,0,0)" />
	<line x1="208.848" y1="1768.65" x2="229.63" y2="1570.92" stroke-width="0.25" stroke="rgb(0,0,0)" />
	<line x1="230.564" y1="1570.92" x2="209.782" y2="1768.65" stroke-width="0.25" stroke="rgb(0,0,0)" />
	<line x1="210.716" y1="1768.65" x2="231.498" y2="1570.92" stroke-width="0.25" stroke="rgb(0,0,0)" />
	<line x1="232.432" y1="1570.92" x2="211.65" y2="1768.65" stroke-width="0.25" stroke="rgb(0,0,0)" />
	<line x1="212.584" y1="1768.65" x2="233.366" y2="1570.92" stroke-width="0.25" stroke="rgb(0,0,0)" />
	<line x1="234.3" y1="1570.92" x2="213.518" y2="1768.65" stroke-width="0.25" stroke="rgb(0,0,0)" />
	<line x1="214.452" y1="1768.65" x2="235.234" y2="1570.92" stroke-width="0.25" stroke="rgb(0,0,0)" />
	<line x1="236.168" y1="1570.92" x2="215.386" y2="1768.65" stroke-width="0.25" stroke="rgb(0,0,0)" />
	<line x1="216.32" y1="1768.65" x2="237.102" y2="1570.92" stroke-width="0.25" stroke="rgb(0,0,0)" />
	<line x1="238.036" y1="1570.92" x2="217.254" y2="1768.65" stroke-width="0.25" stroke="rgb(0,0,0)" />
	<line x1="218.188" y1="1768.65" x2="238.97" y2="1570.92" stroke-width="0.25" stroke="rgb(0,0,0)" />
	<line x1="239.904" y1="1570.92" x2="219.122" y2="1768.65" stroke-width="0.25" stroke="rgb(0,0,0)" />
	<line x1="220.056" y1="1768.65" x2="240.838" y2="1570.92" stroke-width="0.25" stroke="rgb(0,0,0)" />
	<line x1="241.772" y1="1570.92" x2="220.99" y2="1768.65" stroke-width="0.25" stroke="rgb(0,0,0)" />
	<line x1="221.924" y1="1768.65" x2="242.706" y2="1570.92" stroke-width="0.25" stroke="rgb(0,0,0)" />
	<line x1="243.64" y1="1570.92" x2="222.858" y2="1768.65" stroke-width="0.25" stroke="rgb(0,0,0)" />
	<line x1="223.792" y1="1768.65" x2="244.574" y2="1570.92" stroke-width="0.25" stroke="rgb(0,0,0)" />
	<line x1="245.508" y1="1570.92" x2="224.727" y2="1768.65" stroke-width="0.25" stroke="rgb(0,0,0)" />
	<line x1="225.661" y1="1768.65" x2="246.442" y2="1570.92" stroke-width="0.25" stroke="rgb(0,0,0)" />
	<line x1="247.376" y1="1570.92" x2="226.595" y2="1768.65" stroke-width="0.25" stroke="rgb(0,0,0)" />
	<line x1="227.529" y1="1768.65" x2="248.31" y2="1570.92" stroke-width="0.25" stroke="rgb(0,0,0)" />
	<line x1="249.244" y1="1570.92" x2="228.463" y2="1768.65" stroke-width="0.25" stroke="rgb(0,0,0)" />
	<line x1="229.397" y1="1768.65" x2="250.178" y2="1570.92" stroke-width="0.25" stroke="rgb(0,0,0)" />
	<line x1="251.112" y1="1570.92" x2="230.331" y2="1768.65" stroke-width="0.25" stroke="rgb(0,0,0)" />
	<line x1="231.265" y1="1768.65" x2="252.046" y2="1570.92" stroke-width="0.25" stroke="rgb(0,0,0)" />
	<line x1="252.98" y1="1570.92" x2="232.199" y2="1768.65" stroke-width="0.25" stroke="rgb(0,0,0)" />
	<line x1="233.133" y1="1768.65" x2="253.914" y2="1570.92" stroke-width="0.25" stroke="rgb(0,0,0)" />
	<line x1="254.848" y1="1570.92" x2="234.067" y2="1768.65" stroke-width="0.25" stroke="rgb(0,0,0)" />
	<line x1="235.001" y1="1768.65" x2="255.782" y2="1570.92" stroke-width="0.25" stroke="rgb(0,0,0)" />
	<line x1="256.716" y1="1570.92" x2="235.935" y2="1768.65" stroke-width="0.25" stroke="rgb(0,0,0)" />
	<line x1="236.869" y1="1768.65" x2="257.65" y2="1570.92" stroke-width="0.25" stroke="rgb(0,0,0)" />
	<line x1="258.585" y1="1570.92" x2="237.803" y2="1768.65" stroke-width="0.25" stroke="rgb(0,0,0)" />
	<line x1="238.737" y1="1768.65" x2="259.519" y2="1570.92" stroke-width="0.25" stroke="rgb(0,0,0)" />
	<line x1="260.453" y1="1570.92" x2="239.671" y2="1768.65" stroke-width="0.25" stroke="rgb(0,0,0)" />
	<line x1="240.605" y1="1768.65" x2="261.387" y2="1570.92" stroke-width="0.25" stroke="rgb(0,0,0)" />
	<line x1="262.321" y1="1570.92" x2="241.539" y2="1768.65" stroke-width="0.25" stroke="rgb(0,0,0)" />
	<line x1="242.473" y1="1768.65" x2="263.255" y2="1570.92" stroke-width="0.25" stroke="rgb(0,0,0)" />
	<line x1="264.189" y1="1570.92" x2="243.407" y2="1768.65" stroke-width="0.25" stroke="rgb(0,0,0)" />
	<line x1="244.341" y1="1768.65" x2="265.123" y2="1570.92" stroke-width="0.25" stroke="rgb(0,0,0)" />
	<line x1="266.057" y1="1570.92" x2="245.275" y2="1768.65" stroke-width="0.25" stroke="rgb(0,0,0)" />
	<line x1="246.209" y1="1768.65" x2="266.991" y2="1570.92" stroke-width="0.25" stroke="rgb(0,0,0)" />
	<line x1="267.925" y1="1570.92" x2="247.143" y2="1768.65" stroke-width="0.25" stroke="rgb(0,0,0)" />
	<line x1="248.077" y1="1768.65" x2="268.859" y2="1570.92" stroke-width="0.25" stroke="rgb(0,0,0)" />
	<line x1="269.793" y1="1570.92" x2="249.011" y2="1768.65" stroke-width="0.25" stroke="rgb(0,0,0)" />
	<line x1="249.945" y1="1768.65" x2="270.727" y2="1570.92" stroke-width="0.25" stroke="rgb(0,0,0)" />
	<line x1="271.661" y1="1570.92" x2="250.879" y2="1768.65" stroke-width="0.25" stroke="rgb(0,0,0)" />
	<line x1="251.813" y1="1768.65" x2="272.595" y2="1570.92" stroke-width="0.25" stroke="rgb(0,0,0)" />
	<line x1="273.529" y1="1570.92" x2="252.747" y2="1768.65" stroke-width="0.25" stroke="rgb(0,0,0)" />
	<line x1="253.681" y1="1768.65" x2="274.463" y2="1570.92" stroke-width="0.25" stroke="rgb(0,0,0)" />
	<line x1="275.397" y1="1570.92" x2="254.615" y2="1768.65" stroke-width="0.25" stroke="rgb(0,0,0)" />
	<line x1="255.549" y1="1768.65" x2="276.331" y2="1570.92" stroke-width="0.25" stroke="rgb(0,0,0)" />
	<line x1="277.265" y1="1570.92" x2="256.483" y2="1768.65" stroke-width="0.25" stroke="rgb(0,0,0)" />
	<line x1="257.417" y1="1768.65" x2="278.199" y2="1570.92" stroke-width="0.25" stroke="rgb(0,0,0)" />
	<line x1="279.133" y1="1570.92" x2="258.351" y2="1768.65" stroke-width="0.25" stroke="rgb(0,0,0)" />
	<line x1="259.285" y1="1768.65" x2="280.067" y2="1570.92" stroke-width="0.25" stroke="rgb(0,0,0)" />
	<line x1="281.001" y1="1570.92" x2="260.219" y2="1768.65" stroke-width="0.25" stroke="rgb(0,0,0)" />
	<line x1="261.153" y1="1768.65" x2="281.935" y2="1570.92" stroke-width="0.25" stroke="rgb(0,0,0)" />
	<line x1="282.869" y1="1570.92" x2="262.087" y2="1768.65" stroke-width="0.25" stroke="rgb(0,0,0)" />
	<line x1="263.021" y1="1768.65" x2="283.803" y2="1570.92" stroke-width="0.25" stroke="rgb(0,0,0)" />
	<line x1="284.737" y1="1570.92" x2="263.955" y2="1768.65" stroke-width="0.25" stroke="rgb(0,0,0)" />
	<line x1="264.89" y1="1768.65" x2="285.671" y2="1570.92" stroke-width="0.25" stroke="rgb(0,0,0)" />
	<line x1="286.605" y1="1570.92" x2="265.824" y2="1768.65" stroke-width="0.25" stroke="rgb(0,0,0)" />
	<line x1="266.758" y1="1768.65" x2="287.539" y2="1570.92" stroke-width="0.25" stroke="rgb(0,0,0)" />
	<line x1="288.473" y1="1570.92" x2="267.692" y2="1768.65" stroke-width="0.25" stroke="rgb(0,0,0)" />
	<line x1="268.626" y1="1768.65" x2="289.407" y2="1570.92" stroke-width="0.25" stroke="rgb(0,0,0)" />
	<line x1="290.341" y1="1570.92" x2="269.56" y2="1768.65" stroke-width="0.25" stroke="rgb(0,0,0)" />
	<line x1="270.494" y1="1768.65" x2="291.275" y2="1570.92" stroke-width="0.25" stroke="rgb(0,0,0)" />
	<line x1="292.209" y1="1570.92" x2="271.428" y2="1768.65" stroke-width="0.25" stroke="rgb(0,0,0)" />
	<line x1="272.362" y1="1768.65" x2="293.143" y2="1570.92" stroke-width="0.25" stroke="rgb(0,0,0)" />
	<line x1="294.077" y1="1570.92" x2="273.296" y2="1768.65" stroke-width="0.25" stroke="rgb(0,0,0)" />
	<line x1="274.23" y1="1768.65" x2="295.011" y2="1570.92" stroke-width="0.25" stroke="rgb(0,0,0)" />
	<line x1="295.945" y1="1570.92" x2="275.164" y2="1768.65" stroke-width="0.25" stroke="rgb(0,0,0)" />
	<line x1="276.098" y1="1768.65" x2="296.879" y2="1570.92" stroke-width="0.25" stroke="rgb(0,0,0)" />
	<line x1="297.814" y1="1570.92" x2="277.032" y2="1768.65" stroke-width="0.25" stroke="rgb(0,0,0)" />
	<line x1="277.966" y1="1768.65" x2="298.748" y2="1570.92" stroke-width="0.25" stroke="rgb(0,0,0)" />
	<line x1="299.682" y1="1570.92" x2="278.9" y2="1768.65" stroke-width="0.25" stroke="rgb(0,0,0)" />
	<line x1="279.834" y1="1768.65" x2="300.616" y2="1570.92" stroke-width="0.25" stroke="rgb(0,0,0)" />
	<line x1="301.55" y1="1570.92" x2="280.768" y2="1768.65" stroke-width="0.25" stroke="rgb(0,0,0)" />
	<line x1="281.702" y1="1768.65" x2="302.484" y2="1570.92" stroke-width="0.25" stroke="rgb(0,0,0)" />
	<line x1="303.418" y1="1570.92" x2="282.636" y2="1768.65" stroke-width="0.25" stroke="rgb(0,0,0)" />
	<line x1="283.57" y1="1768.65" x2="304.352" y2="1570.92" stroke-width="0.25" stroke="rgb(0,0,0)" />
	<line x1="305.286" y1="1570.92" x2="284.504" y2="1768.65" stroke-width="0.25" stroke="rgb(0,0,0)" />
	<line x1="285.438" y1="1768.65" x2="306.22" y2="1570.92" stroke-width="0.25" stroke="rgb(0,0,0)" />
	<line x1="307.154" y1="1570.92" x2="286.372" y2="1768.65" stroke-width="0.25" stroke="rgb(0,0,0)" />
	<line x1="287.306" y1="1768.65" x2="308.088" y2="1570.92" stroke-width="0.25" stroke="rgb(0,0,0)" />
	<line x1="309.022" y1="1570.92" x2="288.24" y2="1768.65" stroke-width="0.25" stroke="rgb(0,0,0)" />
	<line x1="289.174" y1="1768.65" x2="309.956" y2="1570.92" stroke-width="0.25" stroke="rgb(0,0,0)" />
	<line x1="310.89" y1="1570.92" x2="290.108" y2="1768.65" stroke-width="0.25" stroke="rgb(0,0,0)" />
	<line x1="291.042" y1="1768.65" x2="311.824" y2="1570.92" stroke-width="0.25" stroke="rgb(0,0,0)" />
	<line x1="312.758" y1="1570.92" x2="291.976" y2="1768.65" stroke-width="0.25" stroke="rgb(0,0,0)" />
	<line x1="292.91" y1="1768.65" x2="313.692" y2="1570.92" stroke-width="0.25" stroke="rgb(0,0,0)" />
	<line x1="314.626" y1="1570.92" x2="293.844" y2="1768.65" stroke-width="0.25" stroke="rgb(0,0,0)" />
	<line x1="294.778" y1="1768.65" x2="315.56" y2="1570.92" stroke-width="0.25" stroke="rgb(0,0,0)" />
	<line x1="316.494" y1="1570.92" x2="295.712" y2="1768.65" stroke-width="0.25" stroke="rgb(0,0,0)" />
	<line x1="296.646" y1="1768.65" x2="317.428" y2="1570.92" stroke-width="0.25" stroke="rgb(0,0,0)" />
	<line x1="318.362" y1="1570.92" x2="297.58" y2="1768.65" stroke-width="0.25" stroke="rgb(0,0,0)" />
	<line x1="298.514" y1="1768.65" x2="319.296" y2="1570.92" stroke-width="0.25" stroke="rgb(0,0,0)" />
	<line x1="320.23" y1="1570.92" x2="299.448" y2="1768.65" stroke-width="0.25" stroke="rgb(0,0,0)" />
	<line x1="300.382" y1="1768.65" x2="321.164" y2="1570.92" stroke-width="0.25" stroke="rgb(0,0,0)" />
	<line x1="322.096" y1="1570.95" x2="301.316" y2="1768.65" stroke-width="0.25" stroke="rgb(0,0,0)" />
	<line x1="302.25" y1="1768.65" x2="322.941" y2="1571.79" stroke-width="0.25" stroke="rgb(0,0,0)" />
	<line x1="323.786" y1="1572.64" x2="303.184" y2="1768.65" stroke-width="0.25" stroke="rgb(0,0,0)" />
	<line x1="304.119" y1="1768.65" x2="324.631" y2="1573.48" stroke-width="0.25" stroke="rgb(0,0,0)" />
	<line x1="325.476" y1="1574.33" x2="305.053" y2="1768.65" stroke-width="0.25" stroke="rgb(0,0,0)" />
	<line x1="305.987" y1="1768.65" x2="326.322" y2="1575.17" stroke-width="0.25" stroke="rgb(0,0,0)" />
	<line x1="327.167" y1="1576.02" x2="306.921" y2="1768.65" stroke-width="0.25" stroke="rgb(0,0,0)" />
	<line x1="307.855" y1="1768.65" x2="328.012" y2="1576.86" stroke-width="0.25" stroke="rgb(0,0,0)" />
	<line x1="328.857" y1="1577.71" x2="308.789" y2="1768.65" stroke-width="0.25" stroke="rgb(0,0,0)" />
	<line x1="309.723" y1="1768.65" x2="329.702" y2="1578.55" stroke-width="0.25" stroke="rgb(0,0,0)" />
	<line x1="330.547" y1="1579.4" x2="310.657" y2="1768.65" stroke-width="0.25" stroke="rgb(0,0,0)" />
	<line x1="311.591" y1="1768.65" x2="331.393" y2="1580.25" stroke-width="0.25" stroke="rgb(0,0,0)" />
	<line x1="332.238" y1="1581.09" x2="312.525" y2="1768.65" stroke-width="0.25" stroke="rgb(0,0,0)" />
	<line x1="313.459" y1="1768.65" x2="333.083" y2="1581.94" stroke-width="0.25" stroke="rgb(0,0,0)" />
	<line x1="333.928" y1="1582.78" x2="314.393" y2="1768.65" stroke-width="0.25" stroke="rgb(0,0,0)" />
	<line x1="315.327" y1="1768.65" x2="334.773" y2="1583.63" stroke-width="0.25" stroke="rgb(0,0,0)" />
	<line x1="335.619" y1="1584.47" x2="316.261" y2="1768.65" stroke-width="0.25" stroke="rgb(0,0,0)" />
	<line x1="317.195" y1="1768.65" x2="336.464" y2="1585.32" stroke-width="0.25" stroke="rgb(0,0,0)" />
	<line x1="337.309" y1="1586.16" x2="318.129" y2="1768.65" stroke-width="0.25" stroke="rgb(0,0,0)" />
	<line x1="319.063" y1="1768.65" x2="338.154" y2="1587.01" stroke-width="0.25" stroke="rgb(0,0,0)" />
	<line x1="338.999" y1="1587.85" x2="319.997" y2="1768.65" stroke-width="0.25" stroke="rgb(0,0,0)" />
	<line x1="320.931" y1="1768.65" x2="339.845" y2="1588.7" stroke-width="0.25" stroke="rgb(0,0,0)" />
	<line x1="340.69" y1="1589.54" x2="321.865" y2="1768.65" stroke-width="0.25" stroke="rgb(0,0,0)" />
	<line x1="322.799" y1="1768.65" x2="341.535" y2="1590.39" stroke-width="0.25" stroke="rgb(0,0,0)" />
	<line x1="342.38" y1="1591.23" x2="323.733" y2="1768.65" stroke-width="0.25" stroke="rgb(0,0,0)" />
	<line x1="324.667" y1="1768.65" x2="343.225" y2="1592.08" stroke-width="0.25" stroke="rgb(0,0,0)" />
	<line x1="344.071" y1="1592.92" x2="325.601" y2="1768.65" stroke-width="0.25" stroke="rgb(0,0,0)" />
	<line x1="326.535" y1="1768.65" x2="344.916" y2="1593.77" stroke-width="0.25" stroke="rgb(0,0,0)" />
	<line x1="345.761" y1="1594.61" x2="327.469" y2="1768.65" stroke-width="0.25" stroke="rgb(0,0,0)" />
	<line x1="328.403" y1="1768.65" x2="346.606" y2="1595.46" stroke-width="0.25" stroke="rgb(0,0,0)" />
	<line x1="347.451" y1="1596.3" x2="329.337" y2="1768.65" stroke-width="0.25" stroke="rgb(0,0,0)" />
	<line x1="330.271" y1="1768.65" x2="348.296" y2="1597.15" stroke-width="0.25" stroke="rgb(0,0,0)" />
	<line x1="348.389" y1="1605.16" x2="331.205" y2="1768.65" stroke-width="0.25" stroke="rgb(0,0,0)" />
	<line x1="332.139" y1="1768.65" x2="348.389" y2="1614.04" stroke-width="0.25" stroke="rgb(0,0,0)" />
	<line x1="348.389" y1="1622.93" x2="333.073" y2="1768.65" stroke-width="0.25" stroke="rgb(0,0,0)" />
	<line x1="334.007" y1="1768.65" x2="348.389" y2="1631.82" stroke-width="0.25" stroke="rgb(0,0,0)" />
	<line x1="348.389" y1="1640.7" x2="334.941" y2="1768.65" stroke-width="0.25" stroke="rgb(0,0,0)" />
	<line x1="335.875" y1="1768.65" x2="348.389" y2="1649.59" stroke-width="0.25" stroke="rgb(0,0,0)" />
	<line x1="348.389" y1="1658.48" x2="336.809" y2="1768.65" stroke-width="0.25" stroke="rgb(0,0,0)" />
	<line x1="337.743" y1="1768.65" x2="348.389" y2="1667.36" stroke-width="0.25" stroke="rgb(0,0,0)" />
	<line x1="348.389" y1="1676.25" x2="338.677" y2="1768.65" stroke-width="0.25" stroke="rgb(0,0,0)" />
	<line x1="339.611" y1="1768.65" x2="348.389" y2="1685.14" stroke-width="0.25" stroke="rgb(0,0,0)" />
	<line x1="348.389" y1="1694.02" x2="340.545" y2="1768.65" stroke-width="0.25" stroke="rgb(0,0,0)" />
	<line x1="341.479" y1="1768.65" x2="348.389" y2="1702.91" stroke-width="0.25" stroke="rgb(0,0,0)" />
	<line x1="348.389" y1="1711.8" x2="342.413" y2="1768.65" stroke-width="0.25" stroke="rgb(0,0,0)" />
	<line x1="343.348" y1="1768.65" x2="348.389" y2="1720.68" stroke-width="0.25" stroke="rgb(0,0,0)" />
	<line x1="348.389" y1="1729.57" x2="344.282" y2="1768.65" stroke-width="0.25" stroke="rgb(0,0,0)" />
	<line x1="345.216" y1="1768.65" x2="348.389" y2="1738.46" stroke-width="0.25" stroke="rgb(0,0,0)" />
	<line x1="348.389" y1="1747.34" x2="346.15" y2="1768.65" stroke-width="0.25" stroke="rgb(0,0,0)" />
	<line x1="347.084" y1="1768.65" x2="348.389" y2="1756.23" stroke-width="0.25" stroke="rgb(0,0,0)" />
	<line x1="348.389" y1="1765.12" x2="348.018" y2="1768.65" stroke-width="0.25" stroke="rgb(0,0,0)" />
	<line x1="152.522" y1="872.534" x2="153.339" y2="864.767" stroke-width="0.25" stroke="rgb(0,0,0)" />
	<line x1="154.54" y1="864.767" x2="152.522" y2="883.959" stroke-width="0.25" stroke="rgb(0,0,0)" />
	<line x1="152.522" y1="895.385" x2="155.74" y2="864.767" stroke-width="0.25" stroke="rgb(0,0,0)" />
	<line x1="156.941" y1="864.767" x2="152.522" y2="906.811" stroke-width="0.25" stroke="rgb(0,0,0)" />
	<line x1="152.522" y1="918.236" x2="158.142" y2="864.767" stroke-width="0.25" stroke="rgb(0,0,0)" />
	<line x1="159.343" y1="864.767" x2="152.522" y2="929.662" stroke-width="0.25" stroke="rgb(0,0,0)" />
	<line x1="152.522" y1="941.088" x2="160.544" y2="864.767" stroke-width="0.25" stroke="rgb(0,0,0)" />
	<line x1="161.745" y1="864.767" x2="152.522" y2="952.513" stroke-width="0.25" stroke="rgb(0,0,0)" />
	<line x1="152.522" y1="963.939" x2="162.946" y2="864.767" stroke-width="0.25" stroke="rgb(0,0,0)" />
	<line x1="164.147" y1="864.767" x2="153.025" y2="970.585" stroke-width="0.25" stroke="rgb(0,0,0)" />
	<line x1="154.226" y1="970.585" x2="165.348" y2="864.767" stroke-width="0.25" stroke="rgb(0,0,0)" />
	<line x1="166.548" y1="864.767" x2="155.427" y2="970.585" stroke-width="0.25" stroke="rgb(0,0,0)" />
	<line x1="156.627" y1="970.585" x2="167.749" y2="864.767" stroke-width="0.25" stroke="rgb(0,0,0)" />
	<line x1="168.95" y1="864.767" x2="157.828" y2="970.585" stroke-width="0.25" stroke="rgb(0,0,0)" />
	<line x1="159.029" y1="970.585" x2="170.151" y2="864.767" stroke-width="0.25" stroke="rgb(0,0,0)" />
	<line x1="171.352" y1="864.767" x2="160.23" y2="970.585" stroke-width="0.25" stroke="rgb(0,0,0)" />
	<line x1="161.431" y1="970.585" x2="172.553" y2="864.767" stroke-width="0.25" stroke="rgb(0,0,0)" />
	<line x1="173.754" y1="864.767" x2="162.632" y2="970.585" stroke-width="0.25" stroke="rgb(0,0,0)" />
	<line x1="163.833" y1="970.585" x2="174.955" y2="864.767" stroke-width="0.25" stroke="rgb(0,0,0)" />
	<line x1="176.156" y1="864.767" x2="165.034" y2="970.585" stroke-width="0.25" stroke="rgb(0,0,0)" />
	<line x1="166.234" y1="970.585" x2="177.356" y2="864.767" stroke-width="0.25" stroke="rgb(0,0,0)" />
	<line x1="178.557" y1="864.767" x2="167.435" y2="970.585" stroke-width="0.25" stroke="rgb(0,0,0)" />
	<line x1="168.636" y1="970.585" x2="179.758" y2="864.767" stroke-width="0.25" stroke="rgb(0,0,0)" />
	<line x1="180.959" y1="864.767" x2="169.837" y2="970.585" stroke-width="0.25" stroke="rgb(0,0,0)" />
	<line x1="171.038" y1="970.585" x2="182.16" y2="864.767" stroke-width="0.25" stroke="rgb(0,0,0)" />
	<line x1="183.361" y1="864.767" x2="172.239" y2="970.585" stroke-width="0.25" stroke="rgb(0,0,0)" />
	<line x1="173.44" y1="970.585" x2="184.562" y2="864.767" stroke-width="0.25" stroke="rgb(0,0,0)" />
	<line x1="185.763" y1="864.767" x2="174.641" y2="970.585" stroke-width="0.25" stroke="rgb(0,0,0)" />
	<line x1="175.842" y1="970.585" x2="186.964" y2="864.767" stroke-width="0.25" stroke="rgb(0,0,0)" />
	<line x1="188.164" y1="864.767" x2="177.042" y2="970.585" stroke-width="0.25" stroke="rgb(0,0,0)" />
	<line x1="178.243" y1="970.585" x2="189.365" y2="864.767" stroke-width="0.25" stroke="rgb(0,0,0)" />
	<line x1="190.566" y1="864.767" x2="179.444" y2="970.585" stroke-width="0.25" stroke="rgb(0,0,0)" />
	<line x1="180.645" y1="970.585" x2="191.767" y2="864.767" stroke-width="0.25" stroke="rgb(0,0,0)" />
	<line x1="192.968" y1="864.767" x2="181.846" y2="970.585" stroke-width="0.25" stroke="rgb(0,0,0)" />
	<line x1="183.047" y1="970.585" x2="194.169" y2="864.767" stroke-width="0.25" stroke="rgb(0,0,0)" />
	<line x1="195.37" y1="864.767" x2="184.248" y2="970.585" stroke-width="0.25" stroke="rgb(0,0,0)" />
	<line x1="185.449" y1="970.585" x2="196.571" y2="864.767" stroke-width="0.25" stroke="rgb(0,0,0)" />
	<line x1="197.771" y1="864.767" x2="186.65" y2="970.585" stroke-width="0.25" stroke="rgb(0,0,0)" />
	<line x1="187.85" y1="970.585" x2="198.972" y2="864.767" stroke-width="0.25" stroke="rgb(0,0,0)" />
	<line x1="200.173" y1="864.767" x2="189.051" y2="970.585" stroke-width="0.25" stroke="rgb(0,0,0)" />
	<line x1="190.252" y1="970.585" x2="201.374" y2="864.767" stroke-width="0.25" stroke="rgb(0,0,0)" />
	<line x1="202.575" y1="864.767" x2="191.453" y2="970.585" stroke-width="0.25" stroke="rgb(0,0,0)" />
	<line x1="192.654" y1="970.585" x2="203.776" y2="864.767" stroke-width="0.25" stroke="rgb(0,0,0)" />
	<line x1="204.977" y1="864.767" x2="193.855" y2="970.585" stroke-width="0.25" stroke="rgb(0,0,0)" />
	<line x1="195.056" y1="970.585" x2="206.178" y2="864.767" stroke-width="0.25" stroke="rgb(0,0,0)" />
	<line x1="207.379" y1="864.767" x2="196.257" y2="970.585" stroke-width="0.25" stroke="rgb(0,0,0)" />
	<line x1="197.458" y1="970.585" x2="208.579" y2="864.767" stroke-width="0.25" stroke="rgb(0,0,0)" />
	<line x1="209.78" y1="864.767" x2="198.658" y2="970.585" stroke-width="0.25" stroke="rgb(0,0,0)" />
	<line x1="199.859" y1="970.585" x2="210.981" y2="864.767" stroke-width="0.25" stroke="rgb(0,0,0)" />
	<line x1="212.182" y1="864.767" x2="201.06" y2="970.585" stroke-width="0.25" stroke="rgb(0,0,0)" />
	<line x1="202.261" y1="970.585" x2="213.383" y2="864.767" stroke-width="0.25" stroke="rgb(0,0,0)" />
	<line x1="214.584" y1="864.767" x2="203.462" y2="970.585" stroke-width="0.25" stroke="rgb(0,0,0)" />
	<line x1="204.663" y1="970.585" x2="215.785" y2="864.767" stroke-width="0.25" stroke="rgb(0,0,0)" />
	<line x1="216.986" y1="864.767" x2="205.864" y2="970.585" stroke-width="0.25" stroke="rgb(0,0,0)" />
	<line x1="207.065" y1="970.585" x2="218.187" y2="864.767" stroke-width="0.25" stroke="rgb(0,0,0)" />
	<line x1="219.387" y1="864.767" x2="208.266" y2="970.585" stroke-width="0.25" stroke="rgb(0,0,0)" />
	<line x1="209.466" y1="970.585" x2="220.588" y2="864.767" stroke-width="0.25" stroke="rgb(0,0,0)" />
	<line x1="221.789" y1="864.767" x2="210.667" y2="970.585" stroke-width="0.25" stroke="rgb(0,0,0)" />
	<line x1="211.868" y1="970.585" x2="222.99" y2="864.767" stroke-width="0.25" stroke="rgb(0,0,0)" />
	<line x1="224.191" y1="864.767" x2="213.069" y2="970.585" stroke-width="0.25" stroke="rgb(0,0,0)" />
	<line x1="214.27" y1="970.585" x2="225.392" y2="864.767" stroke-width="0.25" stroke="rgb(0,0,0)" />
	<line x1="226.593" y1="864.767" x2="215.471" y2="970.585" stroke-width="0.25" stroke="rgb(0,0,0)" />
	<line x1="216.672" y1="970.585" x2="227.794" y2="864.767" stroke-width="0.25" stroke="rgb(0,0,0)" />
	<line x1="228.995" y1="864.767" x2="217.873" y2="970.585" stroke-width="0.25" stroke="rgb(0,0,0)" />
	<line x1="219.074" y1="970.585" x2="230.195" y2="864.767" stroke-width="0.25" stroke="rgb(0,0,0)" />
	<line x1="231.396" y1="864.767" x2="220.274" y2="970.585" stroke-width="0.25" stroke="rgb(0,0,0)" />
	<line x1="221.475" y1="970.585" x2="232.597" y2="864.767" stroke-width="0.25" stroke="rgb(0,0,0)" />
	<line x1="233.798" y1="864.767" x2="222.676" y2="970.585" stroke-width="0.25" stroke="rgb(0,0,0)" />
	<line x1="223.877" y1="970.585" x2="234.999" y2="864.767" stroke-width="0.25" stroke="rgb(0,0,0)" />
	<line x1="236.2" y1="864.767" x2="225.078" y2="970.585" stroke-width="0.25" stroke="rgb(0,0,0)" />
	<line x1="226.279" y1="970.585" x2="237.401" y2="864.767" stroke-width="0.25" stroke="rgb(0,0,0)" />
	<line x1="238.602" y1="864.767" x2="227.48" y2="970.585" stroke-width="0.25" stroke="rgb(0,0,0)" />
	<line x1="228.681" y1="970.585" x2="239.803" y2="864.767" stroke-width="0.25" stroke="rgb(0,0,0)" />
	<line x1="241.003" y1="864.767" x2="229.882" y2="970.585" stroke-width="0.25" stroke="rgb(0,0,0)" />
	<line x1="231.082" y1="970.585" x2="242.204" y2="864.767" stroke-width="0.25" stroke="rgb(0,0,0)" />
	<line x1="243.405" y1="864.767" x2="232.283" y2="970.585" stroke-width="0.25" stroke="rgb(0,0,0)" />
	<line x1="233.484" y1="970.585" x2="244.606" y2="864.767" stroke-width="0.25" stroke="rgb(0,0,0)" />
	<line x1="245.807" y1="864.767" x2="234.685" y2="970.585" stroke-width="0.25" stroke="rgb(0,0,0)" />
	<line x1="235.886" y1="970.585" x2="247.008" y2="864.767" stroke-width="0.25" stroke="rgb(0,0,0)" />
	<line x1="248.209" y1="864.767" x2="237.087" y2="970.585" stroke-width="0.25" stroke="rgb(0,0,0)" />
	<line x1="238.288" y1="970.585" x2="249.41" y2="864.767" stroke-width="0.25" stroke="rgb(0,0,0)" />
	<line x1="250.611" y1="864.767" x2="239.489" y2="970.585" stroke-width="0.25" stroke="rgb(0,0,0)" />
	<line x1="240.69" y1="970.585" x2="251.811" y2="864.767" stroke-width="0.25" stroke="rgb(0,0,0)" />
	<line x1="253.012" y1="864.767" x2="241.89" y2="970.585" stroke-width="0.25" stroke="rgb(0,0,0)" />
	<line x1="243.091" y1="970.585" x2="254.213" y2="864.767" stroke-width="0.25" stroke="rgb(0,0,0)" />
	<line x1="255.414" y1="864.767" x2="244.292" y2="970.585" stroke-width="0.25" stroke="rgb(0,0,0)" />
	<line x1="245.493" y1="970.585" x2="256.615" y2="864.767" stroke-width="0.25" stroke="rgb(0,0,0)" />
	<line x1="257.816" y1="864.767" x2="246.694" y2="970.585" stroke-width="0.25" stroke="rgb(0,0,0)" />
	<line x1="247.895" y1="970.585" x2="258.34" y2="871.204" stroke-width="0.25" stroke="rgb(0,0,0)" />
	<line x1="258.34" y1="882.629" x2="249.096" y2="970.585" stroke-width="0.25" stroke="rgb(0,0,0)" />
	<line x1="250.297" y1="970.585" x2="258.34" y2="894.055" stroke-width="0.25" stroke="rgb(0,0,0)" />
	<line x1="258.34" y1="905.481" x2="251.498" y2="970.585" stroke-width="0.25" stroke="rgb(0,0,0)" />
	<line x1="252.698" y1="970.585" x2="258.34" y2="916.906" stroke-width="0.25" stroke="rgb(0,0,0)" />
	<line x1="258.34" y1="928.332" x2="253.899" y2="970.585" stroke-width="0.25" stroke="rgb(0,0,0)" />
	<line x1="255.1" y1="970.585" x2="258.34" y2="939.758" stroke-width="0.25" stroke="rgb(0,0,0)" />
	<line x1="258.34" y1="951.183" x2="256.301" y2="970.585" stroke-width="0.25" stroke="rgb(0,0,0)" />
	<line x1="257.502" y1="970.585" x2="258.34" y2="962.609" stroke-width="0.25" stroke="rgb(0,0,0)" />
</svg>
