<?xml version="1.0" standalone="no" ?>
<!DOCTYPE svg PUBLIC "-//W3C//DTD SVG 1.1//EN" "http://www.w3.org/Graphics/SVG/1.1/DTD/svg11.dtd">
<svg width="2000px" height="2000px" xmlns="http://www.w3.org/2000/svg" version="1.1" >
	<line x1="348.389" y1="1627.1" x2="292.214" y2="1570.92" stroke-width="0.25" stroke="rgb(0,0,0)" />
	<line x1="292.214" y1="1570.92" x2="150.665" y2="1570.92" stroke-width="0.25" stroke="rgb(0,0,0)" />
	<line x1="150.665" y1="1570.92" x2="150.665" y2="1768.65" stroke-width="0.25" stroke="rgb(0,0,0)" />
	<line x1="150.665" y1="1768.65" x2="348.389" y2="1768.65" stroke-width="0.25" stroke="rgb(0,0,0)" />
	<line x1="348.389" y1="1768.65" x2="348.389" y2="1627.1" stroke-width="0.25" stroke="rgb(0,0,0)" />
	<line x1="309.762" y1="813.345" x2="150.864" y2="813.345" stroke-width="0.25" stroke="rgb(0,0,0)" />
	<line x1="150.864" y1="813.345" x2="150.864" y2="972.243" stroke-width="0.25" stroke="rgb(0,0,0)" />
	<line x1="150.864" y1="972.243" x2="309.762" y2="972.243" stroke-width="0.25" stroke="rgb(0,0,0)" />
	<line x1="309.762" y1="972.243" x2="309.762" y2="813.345" stroke-width="0.25" stroke="rgb(0,0,0)" />
	<line x1="308.899" y1="814.208" x2="151.726" y2="814.208" stroke-width="0.25" stroke="rgb(0,0,0)" />
	<line x1="151.726" y1="814.208" x2="151.726" y2="971.381" stroke-width="0.25" stroke="rgb(0,0,0)" />
	<line x1="151.726" y1="971.381" x2="308.899" y2="971.381" stroke-width="0.25" stroke="rgb(0,0,0)" />
	<line x1="308.899" y1="971.381" x2="308.899" y2="814.208" stroke-width="0.25" stroke="rgb(0,0,0)" />
	<line x1="348.188" y1="1768.65" x2="348.389" y2="1766.74" stroke-width="0.25" stroke="rgb(0,0,0)" />
	<line x1="348.389" y1="1757.85" x2="347.254" y2="1768.65" stroke-width="0.25" stroke="rgb(0,0,0)" />
	<line x1="346.32" y1="1768.65" x2="348.389" y2="1748.96" stroke-width="0.25" stroke="rgb(0,0,0)" />
	<line x1="348.389" y1="1740.08" x2="345.386" y2="1768.65" stroke-width="0.25" stroke="rgb(0,0,0)" />
	<line x1="344.452" y1="1768.65" x2="348.389" y2="1731.19" stroke-width="0.25" stroke="rgb(0,0,0)" />
	<line x1="348.389" y1="1722.3" x2="343.518" y2="1768.65" stroke-width="0.25" stroke="rgb(0,0,0)" />
	<line x1="342.584" y1="1768.65" x2="348.389" y2="1713.42" stroke-width="0.25" stroke="rgb(0,0,0)" />
	<line x1="348.389" y1="1704.53" x2="341.65" y2="1768.65" stroke-width="0.25" stroke="rgb(0,0,0)" />
	<line x1="340.716" y1="1768.65" x2="348.389" y2="1695.65" stroke-width="0.25" stroke="rgb(0,0,0)" />
	<line x1="348.389" y1="1686.76" x2="339.782" y2="1768.65" stroke-width="0.25" stroke="rgb(0,0,0)" />
	<line x1="338.848" y1="1768.65" x2="348.389" y2="1677.87" stroke-width="0.25" stroke="rgb(0,0,0)" />
	<line x1="348.389" y1="1668.99" x2="337.914" y2="1768.65" stroke-width="0.25" stroke="rgb(0,0,0)" />
	<line x1="336.98" y1="1768.65" x2="348.389" y2="1660.1" stroke-width="0.25" stroke="rgb(0,0,0)" />
	<line x1="348.389" y1="1651.21" x2="336.046" y2="1768.65" stroke-width="0.25" stroke="rgb(0,0,0)" />
	<line x1="335.112" y1="1768.65" x2="348.389" y2="1642.33" stroke-width="0.25" stroke="rgb(0,0,0)" />
	<line x1="348.389" y1="1633.44" x2="334.178" y2="1768.65" stroke-width="0.25" stroke="rgb(0,0,0)" />
	<line x1="333.244" y1="1768.65" x2="348.147" y2="1626.86" stroke-width="0.25" stroke="rgb(0,0,0)" />
	<line x1="347.302" y1="1626.01" x2="332.31" y2="1768.65" stroke-width="0.25" stroke="rgb(0,0,0)" />
	<line x1="331.376" y1="1768.65" x2="346.456" y2="1625.17" stroke-width="0.25" stroke="rgb(0,0,0)" />
	<line x1="345.611" y1="1624.32" x2="330.442" y2="1768.65" stroke-width="0.25" stroke="rgb(0,0,0)" />
	<line x1="329.508" y1="1768.65" x2="344.766" y2="1623.48" stroke-width="0.25" stroke="rgb(0,0,0)" />
	<line x1="343.921" y1="1622.63" x2="328.574" y2="1768.65" stroke-width="0.25" stroke="rgb(0,0,0)" />
	<line x1="327.64" y1="1768.65" x2="343.076" y2="1621.79" stroke-width="0.25" stroke="rgb(0,0,0)" />
	<line x1="342.23" y1="1620.94" x2="326.706" y2="1768.65" stroke-width="0.25" stroke="rgb(0,0,0)" />
	<line x1="325.772" y1="1768.65" x2="341.385" y2="1620.1" stroke-width="0.25" stroke="rgb(0,0,0)" />
	<line x1="340.54" y1="1619.25" x2="324.838" y2="1768.65" stroke-width="0.25" stroke="rgb(0,0,0)" />
	<line x1="323.904" y1="1768.65" x2="339.695" y2="1618.41" stroke-width="0.25" stroke="rgb(0,0,0)" />
	<line x1="338.85" y1="1617.56" x2="322.97" y2="1768.65" stroke-width="0.25" stroke="rgb(0,0,0)" />
	<line x1="322.036" y1="1768.65" x2="338.004" y2="1616.71" stroke-width="0.25" stroke="rgb(0,0,0)" />
	<line x1="337.159" y1="1615.87" x2="321.102" y2="1768.65" stroke-width="0.25" stroke="rgb(0,0,0)" />
	<line x1="320.168" y1="1768.65" x2="336.314" y2="1615.02" stroke-width="0.25" stroke="rgb(0,0,0)" />
	<line x1="335.469" y1="1614.18" x2="319.233" y2="1768.65" stroke-width="0.25" stroke="rgb(0,0,0)" />
	<line x1="318.299" y1="1768.65" x2="334.624" y2="1613.33" stroke-width="0.25" stroke="rgb(0,0,0)" />
	<line x1="333.778" y1="1612.49" x2="317.365" y2="1768.65" stroke-width="0.25" stroke="rgb(0,0,0)" />
	<line x1="316.431" y1="1768.65" x2="332.933" y2="1611.64" stroke-width="0.25" stroke="rgb(0,0,0)" />
	<line x1="332.088" y1="1610.8" x2="315.497" y2="1768.65" stroke-width="0.25" stroke="rgb(0,0,0)" />
	<line x1="314.563" y1="1768.65" x2="331.243" y2="1609.95" stroke-width="0.25" stroke="rgb(0,0,0)" />
	<line x1="330.398" y1="1609.11" x2="313.629" y2="1768.65" stroke-width="0.25" stroke="rgb(0,0,0)" />
	<line x1="312.695" y1="1768.65" x2="329.553" y2="1608.26" stroke-width="0.25" stroke="rgb(0,0,0)" />
	<line x1="328.707" y1="1607.42" x2="311.761" y2="1768.65" stroke-width="0.25" stroke="rgb(0,0,0)" />
	<line x1="310.827" y1="1768.65" x2="327.862" y2="1606.57" stroke-width="0.25" stroke="rgb(0,0,0)" />
	<line x1="327.017" y1="1605.73" x2="309.893" y2="1768.65" stroke-width="0.25" stroke="rgb(0,0,0)" />
	<line x1="308.959" y1="1768.65" x2="326.172" y2="1604.88" stroke-width="0.25" stroke="rgb(0,0,0)" />
	<line x1="325.327" y1="1604.04" x2="308.025" y2="1768.65" stroke-width="0.25" stroke="rgb(0,0,0)" />
	<line x1="307.091" y1="1768.65" x2="324.481" y2="1603.19" stroke-width="0.25" stroke="rgb(0,0,0)" />
	<line x1="323.636" y1="1602.35" x2="306.157" y2="1768.65" stroke-width="0.25" stroke="rgb(0,0,0)" />
	<line x1="305.223" y1="1768.65" x2="322.791" y2="1601.5" stroke-width="0.25" stroke="rgb(0,0,0)" />
	<line x1="321.946" y1="1600.66" x2="304.289" y2="1768.65" stroke-width="0.25" stroke="rgb(0,0,0)" />
	<line x1="303.355" y1="1768.65" x2="321.101" y2="1599.81" stroke-width="0.25" stroke="rgb(0,0,0)" />
	<line x1="320.255" y1="1598.97" x2="302.421" y2="1768.65" stroke-width="0.25" stroke="rgb(0,0,0)" />
	<line x1="301.487" y1="1768.65" x2="319.41" y2="1598.12" stroke-width="0.25" stroke="rgb(0,0,0)" />
	<line x1="318.565" y1="1597.28" x2="300.553" y2="1768.65" stroke-width="0.25" stroke="rgb(0,0,0)" />
	<line x1="299.619" y1="1768.65" x2="317.72" y2="1596.43" stroke-width="0.25" stroke="rgb(0,0,0)" />
	<line x1="316.875" y1="1595.58" x2="298.685" y2="1768.65" stroke-width="0.25" stroke="rgb(0,0,0)" />
	<line x1="297.751" y1="1768.65" x2="316.029" y2="1594.74" stroke-width="0.25" stroke="rgb(0,0,0)" />
	<line x1="315.184" y1="1593.89" x2="296.817" y2="1768.65" stroke-width="0.25" stroke="rgb(0,0,0)" />
	<line x1="295.883" y1="1768.65" x2="314.339" y2="1593.05" stroke-width="0.25" stroke="rgb(0,0,0)" />
	<line x1="313.494" y1="1592.2" x2="294.949" y2="1768.65" stroke-width="0.25" stroke="rgb(0,0,0)" />
	<line x1="294.015" y1="1768.65" x2="312.649" y2="1591.36" stroke-width="0.25" stroke="rgb(0,0,0)" />
	<line x1="311.804" y1="1590.51" x2="293.081" y2="1768.65" stroke-width="0.25" stroke="rgb(0,0,0)" />
	<line x1="292.147" y1="1768.65" x2="310.958" y2="1589.67" stroke-width="0.25" stroke="rgb(0,0,0)" />
	<line x1="310.113" y1="1588.82" x2="291.213" y2="1768.65" stroke-width="0.25" stroke="rgb(0,0,0)" />
	<line x1="290.279" y1="1768.65" x2="309.268" y2="1587.98" stroke-width="0.25" stroke="rgb(0,0,0)" />
	<line x1="308.423" y1="1587.13" x2="289.345" y2="1768.65" stroke-width="0.25" stroke="rgb(0,0,0)" />
	<line x1="288.411" y1="1768.65" x2="307.578" y2="1586.29" stroke-width="0.25" stroke="rgb(0,0,0)" />
	<line x1="306.732" y1="1585.44" x2="287.477" y2="1768.65" stroke-width="0.25" stroke="rgb(0,0,0)" />
	<line x1="286.543" y1="1768.65" x2="305.887" y2="1584.6" stroke-width="0.25" stroke="rgb(0,0,0)" />
	<line x1="305.042" y1="1583.75" x2="285.609" y2="1768.65" stroke-width="0.25" stroke="rgb(0,0,0)" />
	<line x1="284.675" y1="1768.65" x2="304.197" y2="1582.91" stroke-width="0.25" stroke="rgb(0,0,0)" />
	<line x1="303.352" y1="1582.06" x2="283.741" y2="1768.65" stroke-width="0.25" stroke="rgb(0,0,0)" />
	<line x1="282.807" y1="1768.65" x2="302.506" y2="1581.22" stroke-width="0.25" stroke="rgb(0,0,0)" />
	<line x1="301.661" y1="1580.37" x2="281.873" y2="1768.65" stroke-width="0.25" stroke="rgb(0,0,0)" />
	<line x1="280.939" y1="1768.65" x2="300.816" y2="1579.53" stroke-width="0.25" stroke="rgb(0,0,0)" />
	<line x1="299.971" y1="1578.68" x2="280.004" y2="1768.65" stroke-width="0.25" stroke="rgb(0,0,0)" />
	<line x1="279.07" y1="1768.65" x2="299.126" y2="1577.84" stroke-width="0.25" stroke="rgb(0,0,0)" />
	<line x1="298.28" y1="1576.99" x2="278.136" y2="1768.65" stroke-width="0.25" stroke="rgb(0,0,0)" />
	<line x1="277.202" y1="1768.65" x2="297.435" y2="1576.15" stroke-width="0.25" stroke="rgb(0,0,0)" />
	<line x1="296.59" y1="1575.3" x2="276.268" y2="1768.65" stroke-width="0.25" stroke="rgb(0,0,0)" />
	<line x1="275.334" y1="1768.65" x2="295.745" y2="1574.46" stroke-width="0.25" stroke="rgb(0,0,0)" />
	<line x1="294.9" y1="1573.61" x2="274.4" y2="1768.65" stroke-width="0.25" stroke="rgb(0,0,0)" />
	<line x1="273.466" y1="1768.65" x2="294.055" y2="1572.76" stroke-width="0.25" stroke="rgb(0,0,0)" />
	<line x1="293.209" y1="1571.92" x2="272.532" y2="1768.65" stroke-width="0.25" stroke="rgb(0,0,0)" />
	<line x1="271.598" y1="1768.65" x2="292.364" y2="1571.07" stroke-width="0.25" stroke="rgb(0,0,0)" />
	<line x1="291.446" y1="1570.92" x2="270.664" y2="1768.65" stroke-width="0.25" stroke="rgb(0,0,0)" />
	<line x1="269.73" y1="1768.65" x2="290.512" y2="1570.92" stroke-width="0.25" stroke="rgb(0,0,0)" />
	<line x1="289.578" y1="1570.92" x2="268.796" y2="1768.65" stroke-width="0.25" stroke="rgb(0,0,0)" />
	<line x1="267.862" y1="1768.65" x2="288.644" y2="1570.92" stroke-width="0.25" stroke="rgb(0,0,0)" />
	<line x1="287.71" y1="1570.92" x2="266.928" y2="1768.65" stroke-width="0.25" stroke="rgb(0,0,0)" />
	<line x1="265.994" y1="1768.65" x2="286.776" y2="1570.92" stroke-width="0.25" stroke="rgb(0,0,0)" />
	<line x1="285.842" y1="1570.92" x2="265.06" y2="1768.65" stroke-width="0.25" stroke="rgb(0,0,0)" />
	<line x1="264.126" y1="1768.65" x2="284.908" y2="1570.92" stroke-width="0.25" stroke="rgb(0,0,0)" />
	<line x1="283.974" y1="1570.92" x2="263.192" y2="1768.65" stroke-width="0.25" stroke="rgb(0,0,0)" />
	<line x1="262.258" y1="1768.65" x2="283.04" y2="1570.92" stroke-width="0.25" stroke="rgb(0,0,0)" />
	<line x1="282.106" y1="1570.92" x2="261.324" y2="1768.65" stroke-width="0.25" stroke="rgb(0,0,0)" />
	<line x1="260.39" y1="1768.65" x2="281.172" y2="1570.92" stroke-width="0.25" stroke="rgb(0,0,0)" />
	<line x1="280.238" y1="1570.92" x2="259.456" y2="1768.65" stroke-width="0.25" stroke="rgb(0,0,0)" />
	<line x1="258.522" y1="1768.65" x2="279.304" y2="1570.92" stroke-width="0.25" stroke="rgb(0,0,0)" />
	<line x1="278.37" y1="1570.92" x2="257.588" y2="1768.65" stroke-width="0.25" stroke="rgb(0,0,0)" />
	<line x1="256.654" y1="1768.65" x2="277.436" y2="1570.92" stroke-width="0.25" stroke="rgb(0,0,0)" />
	<line x1="276.502" y1="1570.92" x2="255.72" y2="1768.65" stroke-width="0.25" stroke="rgb(0,0,0)" />
	<line x1="254.786" y1="1768.65" x2="275.568" y2="1570.92" stroke-width="0.25" stroke="rgb(0,0,0)" />
	<line x1="274.634" y1="1570.92" x2="253.852" y2="1768.65" stroke-width="0.25" stroke="rgb(0,0,0)" />
	<line x1="252.918" y1="1768.65" x2="273.699" y2="1570.92" stroke-width="0.25" stroke="rgb(0,0,0)" />
	<line x1="272.765" y1="1570.92" x2="251.984" y2="1768.65" stroke-width="0.25" stroke="rgb(0,0,0)" />
	<line x1="251.05" y1="1768.65" x2="271.831" y2="1570.92" stroke-width="0.25" stroke="rgb(0,0,0)" />
	<line x1="270.897" y1="1570.92" x2="250.116" y2="1768.65" stroke-width="0.25" stroke="rgb(0,0,0)" />
	<line x1="249.182" y1="1768.65" x2="269.963" y2="1570.92" stroke-width="0.25" stroke="rgb(0,0,0)" />
	<line x1="269.029" y1="1570.92" x2="248.248" y2="1768.65" stroke-width="0.25" stroke="rgb(0,0,0)" />
	<line x1="247.314" y1="1768.65" x2="268.095" y2="1570.92" stroke-width="0.25" stroke="rgb(0,0,0)" />
	<line x1="267.161" y1="1570.92" x2="246.38" y2="1768.65" stroke-width="0.25" stroke="rgb(0,0,0)" />
	<line x1="245.446" y1="1768.65" x2="266.227" y2="1570.92" stroke-width="0.25" stroke="rgb(0,0,0)" />
	<line x1="265.293" y1="1570.92" x2="244.512" y2="1768.65" stroke-width="0.25" stroke="rgb(0,0,0)" />
	<line x1="243.578" y1="1768.65" x2="264.359" y2="1570.92" stroke-width="0.25" stroke="rgb(0,0,0)" />
	<line x1="263.425" y1="1570.92" x2="242.644" y2="1768.65" stroke-width="0.25" stroke="rgb(0,0,0)" />
	<line x1="241.71" y1="1768.65" x2="262.491" y2="1570.92" stroke-width="0.25" stroke="rgb(0,0,0)" />
	<line x1="261.557" y1="1570.92" x2="240.775" y2="1768.65" stroke-width="0.25" stroke="rgb(0,0,0)" />
	<line x1="239.841" y1="1768.65" x2="260.623" y2="1570.92" stroke-width="0.25" stroke="rgb(0,0,0)" />
	<line x1="259.689" y1="1570.92" x2="238.907" y2="1768.65" stroke-width="0.25" stroke="rgb(0,0,0)" />
	<line x1="237.973" y1="1768.65" x2="258.755" y2="1570.92" stroke-width="0.25" stroke="rgb(0,0,0)" />
	<line x1="257.821" y1="1570.92" x2="237.039" y2="1768.65" stroke-width="0.25" stroke="rgb(0,0,0)" />
	<line x1="236.105" y1="1768.65" x2="256.887" y2="1570.92" stroke-width="0.25" stroke="rgb(0,0,0)" />
	<line x1="255.953" y1="1570.92" x2="235.171" y2="1768.65" stroke-width="0.25" stroke="rgb(0,0,0)" />
	<line x1="234.237" y1="1768.65" x2="255.019" y2="1570.92" stroke-width="0.25" stroke="rgb(0,0,0)" />
	<line x1="254.085" y1="1570.92" x2="233.303" y2="1768.65" stroke-width="0.25" stroke="rgb(0,0,0)" />
	<line x1="232.369" y1="1768.65" x2="253.151" y2="1570.92" stroke-width="0.25" stroke="rgb(0,0,0)" />
	<line x1="252.217" y1="1570.92" x2="231.435" y2="1768.65" stroke-width="0.25" stroke="rgb(0,0,0)" />
	<line x1="230.501" y1="1768.65" x2="251.283" y2="1570.92" stroke-width="0.25" stroke="rgb(0,0,0)" />
	<line x1="250.349" y1="1570.92" x2="229.567" y2="1768.65" stroke-width="0.25" stroke="rgb(0,0,0)" />
	<line x1="228.633" y1="1768.65" x2="249.415" y2="1570.92" stroke-width="0.25" stroke="rgb(0,0,0)" />
	<line x1="248.481" y1="1570.92" x2="227.699" y2="1768.65" stroke-width="0.25" stroke="rgb(0,0,0)" />
	<line x1="226.765" y1="1768.65" x2="247.547" y2="1570.92" stroke-width="0.25" stroke="rgb(0,0,0)" />
	<line x1="246.613" y1="1570.92" x2="225.831" y2="1768.65" stroke-width="0.25" stroke="rgb(0,0,0)" />
	<line x1="224.897" y1="1768.65" x2="245.679" y2="1570.92" stroke-width="0.25" stroke="rgb(0,0,0)" />
	<line x1="244.745" y1="1570.92" x2="223.963" y2="1768.65" stroke-width="0.25" stroke="rgb(0,0,0)" />
	<line x1="223.029" y1="1768.65" x2="243.811" y2="1570.92" stroke-width="0.25" stroke="rgb(0,0,0)" />
	<line x1="242.877" y1="1570.92" x2="222.095" y2="1768.65" stroke-width="0.25" stroke="rgb(0,0,0)" />
	<line x1="221.161" y1="1768.65" x2="241.943" y2="1570.92" stroke-width="0.25" stroke="rgb(0,0,0)" />
	<line x1="241.009" y1="1570.92" x2="220.227" y2="1768.65" stroke-width="0.25" stroke="rgb(0,0,0)" />
	<line x1="219.293" y1="1768.65" x2="240.075" y2="1570.92" stroke-width="0.25" stroke="rgb(0,0,0)" />
	<line x1="239.141" y1="1570.92" x2="218.359" y2="1768.65" stroke-width="0.25" stroke="rgb(0,0,0)" />
	<line x1="217.425" y1="1768.65" x2="238.207" y2="1570.92" stroke-width="0.25" stroke="rgb(0,0,0)" />
	<line x1="237.273" y1="1570.92" x2="216.491" y2="1768.65" stroke-width="0.25" stroke="rgb(0,0,0)" />
	<line x1="215.557" y1="1768.65" x2="236.339" y2="1570.92" stroke-width="0.25" stroke="rgb(0,0,0)" />
	<line x1="235.405" y1="1570.92" x2="214.623" y2="1768.65" stroke-width="0.25" stroke="rgb(0,0,0)" />
	<line x1="213.689" y1="1768.65" x2="234.47" y2="1570.92" stroke-width="0.25" stroke="rgb(0,0,0)" />
	<line x1="233.536" y1="1570.92" x2="212.755" y2="1768.65" stroke-width="0.25" stroke="rgb(0,0,0)" />
	<line x1="211.821" y1="1768.65" x2="232.602" y2="1570.92" stroke-width="0.25" stroke="rgb(0,0,0)" />
	<line x1="231.668" y1="1570.92" x2="210.887" y2="1768.65" stroke-width="0.25" stroke="rgb(0,0,0)" />
	<line x1="209.953" y1="1768.65" x2="230.734" y2="1570.92" stroke-width="0.25" stroke="rgb(0,0,0)" />
	<line x1="229.8" y1="1570.92" x2="209.019" y2="1768.65" stroke-width="0.25" stroke="rgb(0,0,0)" />
	<line x1="208.085" y1="1768.65" x2="228.866" y2="1570.92" stroke-width="0.25" stroke="rgb(0,0,0)" />
	<line x1="227.932" y1="1570.92" x2="207.151" y2="1768.65" stroke-width="0.25" stroke="rgb(0,0,0)" />
	<line x1="206.217" y1="1768.65" x2="226.998" y2="1570.92" stroke-width="0.25" stroke="rgb(0,0,0)" />
	<line x1="226.064" y1="1570.92" x2="205.283" y2="1768.65" stroke-width="0.25" stroke="rgb(0,0,0)" />
	<line x1="204.349" y1="1768.65" x2="225.13" y2="1570.92" stroke-width="0.25" stroke="rgb(0,0,0)" />
	<line x1="224.196" y1="1570.92" x2="203.415" y2="1768.65" stroke-width="0.25" stroke="rgb(0,0,0)" />
	<line x1="202.481" y1="1768.65" x2="223.262" y2="1570.92" stroke-width="0.25" stroke="rgb(0,0,0)" />
	<line x1="222.328" y1="1570.92" x2="201.546" y2="1768.65" stroke-width="0.25" stroke="rgb(0,0,0)" />
	<line x1="200.612" y1="1768.65" x2="221.394" y2="1570.92" stroke-width="0.25" stroke="rgb(0,0,0)" />
	<line x1="220.46" y1="1570.92" x2="199.678" y2="1768.65" stroke-width="0.25" stroke="rgb(0,0,0)" />
	<line x1="198.744" y1="1768.65" x2="219.526" y2="1570.92" stroke-width="0.25" stroke="rgb(0,0,0)" />
	<line x1="218.592" y1="1570.92" x2="197.81" y2="1768.65" stroke-width="0.25" stroke="rgb(0,0,0)" />
	<line x1="196.876" y1="1768.65" x2="217.658" y2="1570.92" stroke-width="0.25" stroke="rgb(0,0,0)" />
	<line x1="216.724" y1="1570.92" x2="195.942" y2="1768.65" stroke-width="0.25" stroke="rgb(0,0,0)" />
	<line x1="195.008" y1="1768.65" x2="215.79" y2="1570.92" stroke-width="0.25" stroke="rgb(0,0,0)" />
	<line x1="214.856" y1="1570.92" x2="194.074" y2="1768.65" stroke-width="0.25" stroke="rgb(0,0,0)" />
	<line x1="193.14" y1="1768.65" x2="213.922" y2="1570.92" stroke-width="0.25" stroke="rgb(0,0,0)" />
	<line x1="212.988" y1="1570.92" x2="192.206" y2="1768.65" stroke-width="0.25" stroke="rgb(0,0,0)" />
	<line x1="191.272" y1="1768.65" x2="212.054" y2="1570.92" stroke-width="0.25" stroke="rgb(0,0,0)" />
	<line x1="211.12" y1="1570.92" x2="190.338" y2="1768.65" stroke-width="0.25" stroke="rgb(0,0,0)" />
	<line x1="189.404" y1="1768.65" x2="210.186" y2="1570.92" stroke-width="0.25" stroke="rgb(0,0,0)" />
	<line x1="209.252" y1="1570.92" x2="188.47" y2="1768.65" stroke-width="0.25" stroke="rgb(0,0,0)" />
	<line x1="187.536" y1="1768.65" x2="208.318" y2="1570.92" stroke-width="0.25" stroke="rgb(0,0,0)" />
	<line x1="207.384" y1="1570.92" x2="186.602" y2="1768.65" stroke-width="0.25" stroke="rgb(0,0,0)" />
	<line x1="185.668" y1="1768.65" x2="206.45" y2="1570.92" stroke-width="0.25" stroke="rgb(0,0,0)" />
	<line x1="205.516" y1="1570.92" x2="184.734" y2="1768.65" stroke-width="0.25" stroke="rgb(0,0,0)" />
	<line x1="183.8" y1="1768.65" x2="204.582" y2="1570.92" stroke-width="0.25" stroke="rgb(0,0,0)" />
	<line x1="203.648" y1="1570.92" x2="182.866" y2="1768.65" stroke-width="0.25" stroke="rgb(0,0,0)" />
	<line x1="181.932" y1="1768.65" x2="202.714" y2="1570.92" stroke-width="0.25" stroke="rgb(0,0,0)" />
	<line x1="201.78" y1="1570.92" x2="180.998" y2="1768.65" stroke-width="0.25" stroke="rgb(0,0,0)" />
	<line x1="180.064" y1="1768.65" x2="200.846" y2="1570.92" stroke-width="0.25" stroke="rgb(0,0,0)" />
	<line x1="199.912" y1="1570.92" x2="179.13" y2="1768.65" stroke-width="0.25" stroke="rgb(0,0,0)" />
	<line x1="178.196" y1="1768.65" x2="198.978" y2="1570.92" stroke-width="0.25" stroke="rgb(0,0,0)" />
	<line x1="198.044" y1="1570.92" x2="177.262" y2="1768.65" stroke-width="0.25" stroke="rgb(0,0,0)" />
	<line x1="176.328" y1="1768.65" x2="197.11" y2="1570.92" stroke-width="0.25" stroke="rgb(0,0,0)" />
	<line x1="196.176" y1="1570.92" x2="175.394" y2="1768.65" stroke-width="0.25" stroke="rgb(0,0,0)" />
	<line x1="174.46" y1="1768.65" x2="195.241" y2="1570.92" stroke-width="0.25" stroke="rgb(0,0,0)" />
	<line x1="194.307" y1="1570.92" x2="173.526" y2="1768.65" stroke-width="0.25" stroke="rgb(0,0,0)" />
	<line x1="172.592" y1="1768.65" x2="193.373" y2="1570.92" stroke-width="0.25" stroke="rgb(0,0,0)" />
	<line x1="192.439" y1="1570.92" x2="171.658" y2="1768.65" stroke-width="0.25" stroke="rgb(0,0,0)" />
	<line x1="170.724" y1="1768.65" x2="191.505" y2="1570.92" stroke-width="0.25" stroke="rgb(0,0,0)" />
	<line x1="190.571" y1="1570.92" x2="169.79" y2="1768.65" stroke-width="0.25" stroke="rgb(0,0,0)" />
	<line x1="168.856" y1="1768.65" x2="189.637" y2="1570.92" stroke-width="0.25" stroke="rgb(0,0,0)" />
	<line x1="188.703" y1="1570.92" x2="167.922" y2="1768.65" stroke-width="0.25" stroke="rgb(0,0,0)" />
	<line x1="166.988" y1="1768.65" x2="187.769" y2="1570.92" stroke-width="0.25" stroke="rgb(0,0,0)" />
	<line x1="186.835" y1="1570.92" x2="166.054" y2="1768.65" stroke-width="0.25" stroke="rgb(0,0,0)" />
	<line x1="165.12" y1="1768.65" x2="185.901" y2="1570.92" stroke-width="0.25" stroke="rgb(0,0,0)" />
	<line x1="184.967" y1="1570.92" x2="164.186" y2="1768.65" stroke-width="0.25" stroke="rgb(0,0,0)" />
	<line x1="163.252" y1="1768.65" x2="184.033" y2="1570.92" stroke-width="0.25" stroke="rgb(0,0,0)" />
	<line x1="183.099" y1="1570.92" x2="162.318" y2="1768.65" stroke-width="0.25" stroke="rgb(0,0,0)" />
	<line x1="161.383" y1="1768.65" x2="182.165" y2="1570.92" stroke-width="0.25" stroke="rgb(0,0,0)" />
	<line x1="181.231" y1="1570.92" x2="160.449" y2="1768.65" stroke-width="0.25" stroke="rgb(0,0,0)" />
	<line x1="159.515" y1="1768.65" x2="180.297" y2="1570.92" stroke-width="0.25" stroke="rgb(0,0,0)" />
	<line x1="179.363" y1="1570.92" x2="158.581" y2="1768.65" stroke-width="0.25" stroke="rgb(0,0,0)" />
	<line x1="157.647" y1="1768.65" x2="178.429" y2="1570.92" stroke-width="0.25" stroke="rgb(0,0,0)" />
	<line x1="177.495" y1="1570.92" x2="156.713" y2="1768.65" stroke-width="0.25" stroke="rgb(0,0,0)" />
	<line x1="155.779" y1="1768.65" x2="176.561" y2="1570.92" stroke-width="0.25" stroke="rgb(0,0,0)" />
	<line x1="175.627" y1="1570.92" x2="154.845" y2="1768.65" stroke-width="0.25" stroke="rgb(0,0,0)" />
	<line x1="153.911" y1="1768.65" x2="174.693" y2="1570.92" stroke-width="0.25" stroke="rgb(0,0,0)" />
	<line x1="173.759" y1="1570.92" x2="152.977" y2="1768.65" stroke-width="0.25" stroke="rgb(0,0,0)" />
	<line x1="152.043" y1="1768.65" x2="172.825" y2="1570.92" stroke-width="0.25" stroke="rgb(0,0,0)" />
	<line x1="171.891" y1="1570.92" x2="151.109" y2="1768.65" stroke-width="0.25" stroke="rgb(0,0,0)" />
	<line x1="150.665" y1="1763.99" x2="170.957" y2="1570.92" stroke-width="0.25" stroke="rgb(0,0,0)" />
	<line x1="170.023" y1="1570.92" x2="150.665" y2="1755.11" stroke-width="0.25" stroke="rgb(0,0,0)" />
	<line x1="150.665" y1="1746.22" x2="169.089" y2="1570.92" stroke-width="0.25" stroke="rgb(0,0,0)" />
	<line x1="168.155" y1="1570.92" x2="150.665" y2="1737.33" stroke-width="0.25" stroke="rgb(0,0,0)" />
	<line x1="150.665" y1="1728.45" x2="167.221" y2="1570.92" stroke-width="0.25" stroke="rgb(0,0,0)" />
	<line x1="166.287" y1="1570.92" x2="150.665" y2="1719.56" stroke-width="0.25" stroke="rgb(0,0,0)" />
	<line x1="150.665" y1="1710.67" x2="165.353" y2="1570.92" stroke-width="0.25" stroke="rgb(0,0,0)" />
	<line x1="164.419" y1="1570.92" x2="150.665" y2="1701.79" stroke-width="0.25" stroke="rgb(0,0,0)" />
	<line x1="150.665" y1="1692.9" x2="163.485" y2="1570.92" stroke-width="0.25" stroke="rgb(0,0,0)" />
	<line x1="162.551" y1="1570.92" x2="150.665" y2="1684.01" stroke-width="0.25" stroke="rgb(0,0,0)" />
	<line x1="150.665" y1="1675.13" x2="161.617" y2="1570.92" stroke-width="0.25" stroke="rgb(0,0,0)" />
	<line x1="160.683" y1="1570.92" x2="150.665" y2="1666.24" stroke-width="0.25" stroke="rgb(0,0,0)" />
	<line x1="150.665" y1="1657.35" x2="159.749" y2="1570.92" stroke-width="0.25" stroke="rgb(0,0,0)" />
	<line x1="158.815" y1="1570.92" x2="150.665" y2="1648.47" stroke-width="0.25" stroke="rgb(0,0,0)" />
	<line x1="150.665" y1="1639.58" x2="157.881" y2="1570.92" stroke-width="0.25" stroke="rgb(0,0,0)" />
	<line x1="156.947" y1="1570.92" x2="150.665" y2="1630.69" stroke-width="0.25" stroke="rgb(0,0,0)" />
	<line x1="150.665" y1="1621.81" x2="156.012" y2="1570.92" stroke-width="0.25" stroke="rgb(0,0,0)" />
	<line x1="155.078" y1="1570.92" x2="150.665" y2="1612.92" stroke-width="0.25" stroke="rgb(0,0,0)" />
	<line x1="150.665" y1="1604.03" x2="154.144" y2="1570.92" stroke-width="0.25" stroke="rgb(0,0,0)" />
	<line x1="153.21" y1="1570.92" x2="150.665" y2="1595.15" stroke-width="0.25" stroke="rgb(0,0,0)" />
	<line x1="150.665" y1="1586.26" x2="152.276" y2="1570.92" stroke-width="0.25" stroke="rgb(0,0,0)" />
	<line x1="151.342" y1="1570.92" x2="150.665" y2="1577.37" stroke-width="0.25" stroke="rgb(0,0,0)" />
	<line x1="306.909" y1="970.585" x2="308.103" y2="959.223" stroke-width="0.25" stroke="rgb(0,0,0)" />
	<line x1="308.103" y1="947.797" x2="305.708" y2="970.585" stroke-width="0.25" stroke="rgb(0,0,0)" />
	<line x1="304.507" y1="970.585" x2="308.103" y2="936.372" stroke-width="0.25" stroke="rgb(0,0,0)" />
	<line x1="308.103" y1="924.946" x2="303.306" y2="970.585" stroke-width="0.25" stroke="rgb(0,0,0)" />
	<line x1="302.105" y1="970.585" x2="308.103" y2="913.52" stroke-width="0.25" stroke="rgb(0,0,0)" />
	<line x1="308.103" y1="902.095" x2="300.904" y2="970.585" stroke-width="0.25" stroke="rgb(0,0,0)" />
	<line x1="299.704" y1="970.585" x2="308.103" y2="890.669" stroke-width="0.25" stroke="rgb(0,0,0)" />
	<line x1="308.103" y1="879.243" x2="298.503" y2="970.585" stroke-width="0.25" stroke="rgb(0,0,0)" />
	<line x1="297.302" y1="970.585" x2="308.103" y2="867.817" stroke-width="0.25" stroke="rgb(0,0,0)" />
	<line x1="308.103" y1="856.392" x2="296.101" y2="970.585" stroke-width="0.25" stroke="rgb(0,0,0)" />
	<line x1="294.9" y1="970.585" x2="308.103" y2="844.966" stroke-width="0.25" stroke="rgb(0,0,0)" />
	<line x1="308.103" y1="833.54" x2="293.699" y2="970.585" stroke-width="0.25" stroke="rgb(0,0,0)" />
	<line x1="292.498" y1="970.585" x2="308.103" y2="822.115" stroke-width="0.25" stroke="rgb(0,0,0)" />
	<line x1="307.65" y1="815.004" x2="291.297" y2="970.585" stroke-width="0.25" stroke="rgb(0,0,0)" />
	<line x1="290.097" y1="970.585" x2="306.449" y2="815.004" stroke-width="0.25" stroke="rgb(0,0,0)" />
	<line x1="305.248" y1="815.004" x2="288.896" y2="970.585" stroke-width="0.25" stroke="rgb(0,0,0)" />
	<line x1="287.695" y1="970.585" x2="304.047" y2="815.004" stroke-width="0.25" stroke="rgb(0,0,0)" />
	<line x1="302.846" y1="815.004" x2="286.494" y2="970.585" stroke-width="0.25" stroke="rgb(0,0,0)" />
	<line x1="285.293" y1="970.585" x2="301.645" y2="815.004" stroke-width="0.25" stroke="rgb(0,0,0)" />
	<line x1="300.444" y1="815.004" x2="284.092" y2="970.585" stroke-width="0.25" stroke="rgb(0,0,0)" />
	<line x1="282.891" y1="970.585" x2="299.243" y2="815.004" stroke-width="0.25" stroke="rgb(0,0,0)" />
	<line x1="298.042" y1="815.004" x2="281.69" y2="970.585" stroke-width="0.25" stroke="rgb(0,0,0)" />
	<line x1="280.489" y1="970.585" x2="296.842" y2="815.004" stroke-width="0.25" stroke="rgb(0,0,0)" />
	<line x1="295.641" y1="815.004" x2="279.289" y2="970.585" stroke-width="0.25" stroke="rgb(0,0,0)" />
	<line x1="278.088" y1="970.585" x2="294.44" y2="815.004" stroke-width="0.25" stroke="rgb(0,0,0)" />
	<line x1="293.239" y1="815.004" x2="276.887" y2="970.585" stroke-width="0.25" stroke="rgb(0,0,0)" />
	<line x1="275.686" y1="970.585" x2="292.038" y2="815.004" stroke-width="0.25" stroke="rgb(0,0,0)" />
	<line x1="290.837" y1="815.004" x2="274.485" y2="970.585" stroke-width="0.25" stroke="rgb(0,0,0)" />
	<line x1="273.284" y1="970.585" x2="289.636" y2="815.004" stroke-width="0.25" stroke="rgb(0,0,0)" />
	<line x1="288.435" y1="815.004" x2="272.083" y2="970.585" stroke-width="0.25" stroke="rgb(0,0,0)" />
	<line x1="270.882" y1="970.585" x2="287.234" y2="815.004" stroke-width="0.25" stroke="rgb(0,0,0)" />
	<line x1="286.034" y1="815.004" x2="269.681" y2="970.585" stroke-width="0.25" stroke="rgb(0,0,0)" />
	<line x1="268.481" y1="970.585" x2="284.833" y2="815.004" stroke-width="0.25" stroke="rgb(0,0,0)" />
	<line x1="283.632" y1="815.004" x2="267.28" y2="970.585" stroke-width="0.25" stroke="rgb(0,0,0)" />
	<line x1="266.079" y1="970.585" x2="282.431" y2="815.004" stroke-width="0.25" stroke="rgb(0,0,0)" />
	<line x1="281.23" y1="815.004" x2="264.878" y2="970.585" stroke-width="0.25" stroke="rgb(0,0,0)" />
	<line x1="263.677" y1="970.585" x2="280.029" y2="815.004" stroke-width="0.25" stroke="rgb(0,0,0)" />
	<line x1="278.828" y1="815.004" x2="262.476" y2="970.585" stroke-width="0.25" stroke="rgb(0,0,0)" />
	<line x1="261.275" y1="970.585" x2="277.627" y2="815.004" stroke-width="0.25" stroke="rgb(0,0,0)" />
	<line x1="276.427" y1="815.004" x2="260.074" y2="970.585" stroke-width="0.25" stroke="rgb(0,0,0)" />
	<line x1="258.873" y1="970.585" x2="275.226" y2="815.004" stroke-width="0.25" stroke="rgb(0,0,0)" />
	<line x1="274.025" y1="815.004" x2="257.673" y2="970.585" stroke-width="0.25" stroke="rgb(0,0,0)" />
	<line x1="256.472" y1="970.585" x2="272.824" y2="815.004" stroke-width="0.25" stroke="rgb(0,0,0)" />
	<line x1="271.623" y1="815.004" x2="255.271" y2="970.585" stroke-width="0.25" stroke="rgb(0,0,0)" />
	<line x1="254.07" y1="970.585" x2="270.422" y2="815.004" stroke-width="0.25" stroke="rgb(0,0,0)" />
	<line x1="269.221" y1="815.004" x2="252.869" y2="970.585" stroke-width="0.25" stroke="rgb(0,0,0)" />
	<line x1="251.668" y1="970.585" x2="268.02" y2="815.004" stroke-width="0.25" stroke="rgb(0,0,0)" />
	<line x1="266.819" y1="815.004" x2="250.467" y2="970.585" stroke-width="0.25" stroke="rgb(0,0,0)" />
	<line x1="249.266" y1="970.585" x2="265.619" y2="815.004" stroke-width="0.25" stroke="rgb(0,0,0)" />
	<line x1="264.418" y1="815.004" x2="248.065" y2="970.585" stroke-width="0.25" stroke="rgb(0,0,0)" />
	<line x1="246.865" y1="970.585" x2="263.217" y2="815.004" stroke-width="0.25" stroke="rgb(0,0,0)" />
	<line x1="262.016" y1="815.004" x2="245.664" y2="970.585" stroke-width="0.25" stroke="rgb(0,0,0)" />
	<line x1="244.463" y1="970.585" x2="260.815" y2="815.004" stroke-width="0.25" stroke="rgb(0,0,0)" />
	<line x1="259.614" y1="815.004" x2="243.262" y2="970.585" stroke-width="0.25" stroke="rgb(0,0,0)" />
	<line x1="242.061" y1="970.585" x2="258.413" y2="815.004" stroke-width="0.25" stroke="rgb(0,0,0)" />
	<line x1="257.212" y1="815.004" x2="240.86" y2="970.585" stroke-width="0.25" stroke="rgb(0,0,0)" />
	<line x1="239.659" y1="970.585" x2="256.011" y2="815.004" stroke-width="0.25" stroke="rgb(0,0,0)" />
	<line x1="254.811" y1="815.004" x2="238.458" y2="970.585" stroke-width="0.25" stroke="rgb(0,0,0)" />
	<line x1="237.257" y1="970.585" x2="253.61" y2="815.004" stroke-width="0.25" stroke="rgb(0,0,0)" />
	<line x1="252.409" y1="815.004" x2="236.057" y2="970.585" stroke-width="0.25" stroke="rgb(0,0,0)" />
	<line x1="234.856" y1="970.585" x2="251.208" y2="815.004" stroke-width="0.25" stroke="rgb(0,0,0)" />
	<line x1="250.007" y1="815.004" x2="233.655" y2="970.585" stroke-width="0.25" stroke="rgb(0,0,0)" />
	<line x1="232.454" y1="970.585" x2="248.806" y2="815.004" stroke-width="0.25" stroke="rgb(0,0,0)" />
	<line x1="247.605" y1="815.004" x2="231.253" y2="970.585" stroke-width="0.25" stroke="rgb(0,0,0)" />
	<line x1="230.052" y1="970.585" x2="246.404" y2="815.004" stroke-width="0.25" stroke="rgb(0,0,0)" />
	<line x1="245.203" y1="815.004" x2="228.851" y2="970.585" stroke-width="0.25" stroke="rgb(0,0,0)" />
	<line x1="227.65" y1="970.585" x2="244.003" y2="815.004" stroke-width="0.25" stroke="rgb(0,0,0)" />
	<line x1="242.802" y1="815.004" x2="226.449" y2="970.585" stroke-width="0.25" stroke="rgb(0,0,0)" />
	<line x1="225.249" y1="970.585" x2="241.601" y2="815.004" stroke-width="0.25" stroke="rgb(0,0,0)" />
	<line x1="240.4" y1="815.004" x2="224.048" y2="970.585" stroke-width="0.25" stroke="rgb(0,0,0)" />
	<line x1="222.847" y1="970.585" x2="239.199" y2="815.004" stroke-width="0.25" stroke="rgb(0,0,0)" />
	<line x1="237.998" y1="815.004" x2="221.646" y2="970.585" stroke-width="0.25" stroke="rgb(0,0,0)" />
	<line x1="220.445" y1="970.585" x2="236.797" y2="815.004" stroke-width="0.25" stroke="rgb(0,0,0)" />
	<line x1="235.596" y1="815.004" x2="219.244" y2="970.585" stroke-width="0.25" stroke="rgb(0,0,0)" />
	<line x1="218.043" y1="970.585" x2="234.395" y2="815.004" stroke-width="0.25" stroke="rgb(0,0,0)" />
	<line x1="233.195" y1="815.004" x2="216.842" y2="970.585" stroke-width="0.25" stroke="rgb(0,0,0)" />
	<line x1="215.641" y1="970.585" x2="231.994" y2="815.004" stroke-width="0.25" stroke="rgb(0,0,0)" />
	<line x1="230.793" y1="815.004" x2="214.441" y2="970.585" stroke-width="0.25" stroke="rgb(0,0,0)" />
	<line x1="213.24" y1="970.585" x2="229.592" y2="815.004" stroke-width="0.25" stroke="rgb(0,0,0)" />
	<line x1="228.391" y1="815.004" x2="212.039" y2="970.585" stroke-width="0.25" stroke="rgb(0,0,0)" />
	<line x1="210.838" y1="970.585" x2="227.19" y2="815.004" stroke-width="0.25" stroke="rgb(0,0,0)" />
	<line x1="225.989" y1="815.004" x2="209.637" y2="970.585" stroke-width="0.25" stroke="rgb(0,0,0)" />
	<line x1="208.436" y1="970.585" x2="224.788" y2="815.004" stroke-width="0.25" stroke="rgb(0,0,0)" />
	<line x1="223.587" y1="815.004" x2="207.235" y2="970.585" stroke-width="0.25" stroke="rgb(0,0,0)" />
	<line x1="206.034" y1="970.585" x2="222.387" y2="815.004" stroke-width="0.25" stroke="rgb(0,0,0)" />
	<line x1="221.186" y1="815.004" x2="204.833" y2="970.585" stroke-width="0.25" stroke="rgb(0,0,0)" />
	<line x1="203.633" y1="970.585" x2="219.985" y2="815.004" stroke-width="0.25" stroke="rgb(0,0,0)" />
	<line x1="218.784" y1="815.004" x2="202.432" y2="970.585" stroke-width="0.25" stroke="rgb(0,0,0)" />
	<line x1="201.231" y1="970.585" x2="217.583" y2="815.004" stroke-width="0.25" stroke="rgb(0,0,0)" />
	<line x1="216.382" y1="815.004" x2="200.03" y2="970.585" stroke-width="0.25" stroke="rgb(0,0,0)" />
	<line x1="198.829" y1="970.585" x2="215.181" y2="815.004" stroke-width="0.25" stroke="rgb(0,0,0)" />
	<line x1="213.98" y1="815.004" x2="197.628" y2="970.585" stroke-width="0.25" stroke="rgb(0,0,0)" />
	<line x1="196.427" y1="970.585" x2="212.779" y2="815.004" stroke-width="0.25" stroke="rgb(0,0,0)" />
	<line x1="211.579" y1="815.004" x2="195.226" y2="970.585" stroke-width="0.25" stroke="rgb(0,0,0)" />
	<line x1="194.025" y1="970.585" x2="210.378" y2="815.004" stroke-width="0.25" stroke="rgb(0,0,0)" />
	<line x1="209.177" y1="815.004" x2="192.825" y2="970.585" stroke-width="0.25" stroke="rgb(0,0,0)" />
	<line x1="191.624" y1="970.585" x2="207.976" y2="815.004" stroke-width="0.25" stroke="rgb(0,0,0)" />
	<line x1="206.775" y1="815.004" x2="190.423" y2="970.585" stroke-width="0.25" stroke="rgb(0,0,0)" />
	<line x1="189.222" y1="970.585" x2="205.574" y2="815.004" stroke-width="0.25" stroke="rgb(0,0,0)" />
	<line x1="204.373" y1="815.004" x2="188.021" y2="970.585" stroke-width="0.25" stroke="rgb(0,0,0)" />
	<line x1="186.82" y1="970.585" x2="203.172" y2="815.004" stroke-width="0.25" stroke="rgb(0,0,0)" />
	<line x1="201.971" y1="815.004" x2="185.619" y2="970.585" stroke-width="0.25" stroke="rgb(0,0,0)" />
	<line x1="184.418" y1="970.585" x2="200.771" y2="815.004" stroke-width="0.25" stroke="rgb(0,0,0)" />
	<line x1="199.57" y1="815.004" x2="183.218" y2="970.585" stroke-width="0.25" stroke="rgb(0,0,0)" />
	<line x1="182.017" y1="970.585" x2="198.369" y2="815.004" stroke-width="0.25" stroke="rgb(0,0,0)" />
	<line x1="197.168" y1="815.004" x2="180.816" y2="970.585" stroke-width="0.25" stroke="rgb(0,0,0)" />
	<line x1="179.615" y1="970.585" x2="195.967" y2="815.004" stroke-width="0.25" stroke="rgb(0,0,0)" />
	<line x1="194.766" y1="815.004" x2="178.414" y2="970.585" stroke-width="0.25" stroke="rgb(0,0,0)" />
	<line x1="177.213" y1="970.585" x2="193.565" y2="815.004" stroke-width="0.25" stroke="rgb(0,0,0)" />
	<line x1="192.364" y1="815.004" x2="176.012" y2="970.585" stroke-width="0.25" stroke="rgb(0,0,0)" />
	<line x1="174.811" y1="970.585" x2="191.163" y2="815.004" stroke-width="0.25" stroke="rgb(0,0,0)" />
	<line x1="189.963" y1="815.004" x2="173.61" y2="970.585" stroke-width="0.25" stroke="rgb(0,0,0)" />
	<line x1="172.41" y1="970.585" x2="188.762" y2="815.004" stroke-width="0.25" stroke="rgb(0,0,0)" />
	<line x1="187.561" y1="815.004" x2="171.209" y2="970.585" stroke-width="0.25" stroke="rgb(0,0,0)" />
	<line x1="170.008" y1="970.585" x2="186.36" y2="815.004" stroke-width="0.25" stroke="rgb(0,0,0)" />
	<line x1="185.159" y1="815.004" x2="168.807" y2="970.585" stroke-width="0.25" stroke="rgb(0,0,0)" />
	<line x1="167.606" y1="970.585" x2="183.958" y2="815.004" stroke-width="0.25" stroke="rgb(0,0,0)" />
	<line x1="182.757" y1="815.004" x2="166.405" y2="970.585" stroke-width="0.25" stroke="rgb(0,0,0)" />
	<line x1="165.204" y1="970.585" x2="181.556" y2="815.004" stroke-width="0.25" stroke="rgb(0,0,0)" />
	<line x1="180.356" y1="815.004" x2="164.003" y2="970.585" stroke-width="0.25" stroke="rgb(0,0,0)" />
	<line x1="162.802" y1="970.585" x2="179.155" y2="815.004" stroke-width="0.25" stroke="rgb(0,0,0)" />
	<line x1="177.954" y1="815.004" x2="161.602" y2="970.585" stroke-width="0.25" stroke="rgb(0,0,0)" />
	<line x1="160.401" y1="970.585" x2="176.753" y2="815.004" stroke-width="0.25" stroke="rgb(0,0,0)" />
	<line x1="175.552" y1="815.004" x2="159.2" y2="970.585" stroke-width="0.25" stroke="rgb(0,0,0)" />
	<line x1="157.999" y1="970.585" x2="174.351" y2="815.004" stroke-width="0.25" stroke="rgb(0,0,0)" />
	<line x1="173.15" y1="815.004" x2="156.798" y2="970.585" stroke-width="0.25" stroke="rgb(0,0,0)" />
	<line x1="155.597" y1="970.585" x2="171.949" y2="815.004" stroke-width="0.25" stroke="rgb(0,0,0)" />
	<line x1="170.748" y1="815.004" x2="154.396" y2="970.585" stroke-width="0.25" stroke="rgb(0,0,0)" />
	<line x1="153.195" y1="970.585" x2="169.548" y2="815.004" stroke-width="0.25" stroke="rgb(0,0,0)" />
	<line x1="168.347" y1="815.004" x2="152.522" y2="965.562" stroke-width="0.25" stroke="rgb(0,0,0)" />
	<line x1="152.522" y1="954.136" x2="167.146" y2="815.004" stroke-width="0.25" stroke="rgb(0,0,0)" />
	<line x1="165.945" y1="815.004" x2="152.522" y2="942.711" stroke-width="0.25" stroke="rgb(0,0,0)" />
	<line x1="152.522" y1="931.285" x2="164.744" y2="815.004" stroke-width="0.25" stroke="rgb(0,0,0)" />
	<line x1="163.543" y1="815.004" x2="152.522" y2="919.859" stroke-width="0.25" stroke="rgb(0,0,0)" />
	<line x1="152.522" y1="908.434" x2="162.342" y2="815.004" stroke-width="0.25" stroke="rgb(0,0,0)" />
	<line x1="161.141" y1="815.004" x2="152.522" y2="897.008" stroke-width="0.25" stroke="rgb(0,0,0)" />
	<line x1="152.522" y1="885.582" x2="159.94" y2="815.004" stroke-width="0.25" stroke="rgb(0,0,0)" />
	<line x1="158.74" y1="815.004" x2="152.522" y2="874.157" stroke-width="0.25" stroke="rgb(0,0,0)" />
	<line x1="152.522" y1="862.731" x2="157.539" y2="815.004" stroke-width="0.25" stroke="rgb(0,0,0)" />
	<line x1="156.338" y1="815.004" x2="152.522" y2="851.305" stroke-width="0.25" stroke="rgb(0,0,0)" />
	<line x1="152.522" y1="839.88" x2="155.137" y2="815.004" stroke-width="0.25" stroke="rgb(0,0,0)" />
	<line x1="153.936" y1="815.004" x2="152.522" y2="828.454" stroke-width="0.25" stroke="rgb(0,0,0)" />
	<line x1="152.522" y1="817.028" x2="152.735" y2="815.004" stroke-width="0.25" stroke="rgb(0,0,0)" />
</svg>
