<?xml version="1.0" standalone="no" ?>
<!DOCTYPE svg PUBLIC "-//W3C//DTD SVG 1.1//EN" "http://www.w3.org/Graphics/SVG/1.1/DTD/svg11.dtd">
<svg width="2000px" height="2000px" xmlns="http://www.w3.org/2000/svg" version="1.1" >
	<line x1="348.389" y1="1620.46" x2="298.849" y2="1570.92" stroke-width="0.25" stroke="rgb(0,0,0)" />
	<line x1="298.849" y1="1570.92" x2="150.665" y2="1570.92" stroke-width="0.25" stroke="rgb(0,0,0)" />
	<line x1="150.665" y1="1570.92" x2="150.665" y2="1768.65" stroke-width="0.25" stroke="rgb(0,0,0)" />
	<line x1="150.665" y1="1768.65" x2="348.389" y2="1768.65" stroke-width="0.25" stroke="rgb(0,0,0)" />
	<line x1="348.389" y1="1768.65" x2="348.389" y2="1620.46" stroke-width="0.25" stroke="rgb(0,0,0)" />
	<line x1="298.704" y1="824.403" x2="150.864" y2="824.403" stroke-width="0.25" stroke="rgb(0,0,0)" />
	<line x1="150.864" y1="824.403" x2="150.864" y2="972.243" stroke-width="0.25" stroke="rgb(0,0,0)" />
	<line x1="150.864" y1="972.243" x2="298.704" y2="972.243" stroke-width="0.25" stroke="rgb(0,0,0)" />
	<line x1="298.704" y1="972.243" x2="298.704" y2="824.403" stroke-width="0.25" stroke="rgb(0,0,0)" />
	<line x1="297.841" y1="825.266" x2="151.726" y2="825.266" stroke-width="0.25" stroke="rgb(0,0,0)" />
	<line x1="151.726" y1="825.266" x2="151.726" y2="971.381" stroke-width="0.25" stroke="rgb(0,0,0)" />
	<line x1="151.726" y1="971.381" x2="297.841" y2="971.381" stroke-width="0.25" stroke="rgb(0,0,0)" />
	<line x1="297.841" y1="971.381" x2="297.841" y2="825.266" stroke-width="0.25" stroke="rgb(0,0,0)" />
	<line x1="297.862" y1="1570.92" x2="301.471" y2="1573.55" stroke-width="0.25" stroke="rgb(0,0,0)" />
	<line x1="305.67" y1="1577.75" x2="296.281" y2="1570.92" stroke-width="0.25" stroke="rgb(0,0,0)" />
	<line x1="294.701" y1="1570.92" x2="309.869" y2="1581.94" stroke-width="0.25" stroke="rgb(0,0,0)" />
	<line x1="314.067" y1="1586.14" x2="293.121" y2="1570.92" stroke-width="0.25" stroke="rgb(0,0,0)" />
	<line x1="291.54" y1="1570.92" x2="318.266" y2="1590.34" stroke-width="0.25" stroke="rgb(0,0,0)" />
	<line x1="322.465" y1="1594.54" x2="289.96" y2="1570.92" stroke-width="0.25" stroke="rgb(0,0,0)" />
	<line x1="288.38" y1="1570.92" x2="326.664" y2="1598.74" stroke-width="0.25" stroke="rgb(0,0,0)" />
	<line x1="330.863" y1="1602.94" x2="286.799" y2="1570.92" stroke-width="0.25" stroke="rgb(0,0,0)" />
	<line x1="285.219" y1="1570.92" x2="335.061" y2="1607.14" stroke-width="0.25" stroke="rgb(0,0,0)" />
	<line x1="339.26" y1="1611.34" x2="283.639" y2="1570.92" stroke-width="0.25" stroke="rgb(0,0,0)" />
	<line x1="282.058" y1="1570.92" x2="343.459" y2="1615.53" stroke-width="0.25" stroke="rgb(0,0,0)" />
	<line x1="347.658" y1="1619.73" x2="280.478" y2="1570.92" stroke-width="0.25" stroke="rgb(0,0,0)" />
	<line x1="278.898" y1="1570.92" x2="348.389" y2="1621.41" stroke-width="0.25" stroke="rgb(0,0,0)" />
	<line x1="348.389" y1="1622.56" x2="277.317" y2="1570.92" stroke-width="0.25" stroke="rgb(0,0,0)" />
	<line x1="275.737" y1="1570.92" x2="348.389" y2="1623.71" stroke-width="0.25" stroke="rgb(0,0,0)" />
	<line x1="348.389" y1="1624.86" x2="274.157" y2="1570.92" stroke-width="0.25" stroke="rgb(0,0,0)" />
	<line x1="272.576" y1="1570.92" x2="348.389" y2="1626.01" stroke-width="0.25" stroke="rgb(0,0,0)" />
	<line x1="348.389" y1="1627.15" x2="270.996" y2="1570.92" stroke-width="0.25" stroke="rgb(0,0,0)" />
	<line x1="269.416" y1="1570.92" x2="348.389" y2="1628.3" stroke-width="0.25" stroke="rgb(0,0,0)" />
	<line x1="348.389" y1="1629.45" x2="267.835" y2="1570.92" stroke-width="0.25" stroke="rgb(0,0,0)" />
	<line x1="266.255" y1="1570.92" x2="348.389" y2="1630.6" stroke-width="0.25" stroke="rgb(0,0,0)" />
	<line x1="348.389" y1="1631.75" x2="264.674" y2="1570.92" stroke-width="0.25" stroke="rgb(0,0,0)" />
	<line x1="263.094" y1="1570.92" x2="348.389" y2="1632.89" stroke-width="0.25" stroke="rgb(0,0,0)" />
	<line x1="348.389" y1="1634.04" x2="261.514" y2="1570.92" stroke-width="0.25" stroke="rgb(0,0,0)" />
	<line x1="259.933" y1="1570.92" x2="348.389" y2="1635.19" stroke-width="0.25" stroke="rgb(0,0,0)" />
	<line x1="348.389" y1="1636.34" x2="258.353" y2="1570.92" stroke-width="0.25" stroke="rgb(0,0,0)" />
	<line x1="256.773" y1="1570.92" x2="348.389" y2="1637.49" stroke-width="0.25" stroke="rgb(0,0,0)" />
	<line x1="348.389" y1="1638.64" x2="255.192" y2="1570.92" stroke-width="0.25" stroke="rgb(0,0,0)" />
	<line x1="253.612" y1="1570.92" x2="348.389" y2="1639.78" stroke-width="0.25" stroke="rgb(0,0,0)" />
	<line x1="348.389" y1="1640.93" x2="252.032" y2="1570.92" stroke-width="0.25" stroke="rgb(0,0,0)" />
	<line x1="250.451" y1="1570.92" x2="348.389" y2="1642.08" stroke-width="0.25" stroke="rgb(0,0,0)" />
	<line x1="348.389" y1="1643.23" x2="248.871" y2="1570.92" stroke-width="0.25" stroke="rgb(0,0,0)" />
	<line x1="247.291" y1="1570.92" x2="348.389" y2="1644.38" stroke-width="0.25" stroke="rgb(0,0,0)" />
	<line x1="348.389" y1="1645.52" x2="245.71" y2="1570.92" stroke-width="0.25" stroke="rgb(0,0,0)" />
	<line x1="244.13" y1="1570.92" x2="348.389" y2="1646.67" stroke-width="0.25" stroke="rgb(0,0,0)" />
	<line x1="348.389" y1="1647.82" x2="242.55" y2="1570.92" stroke-width="0.25" stroke="rgb(0,0,0)" />
	<line x1="240.969" y1="1570.92" x2="348.389" y2="1648.97" stroke-width="0.25" stroke="rgb(0,0,0)" />
	<line x1="348.389" y1="1650.12" x2="239.389" y2="1570.92" stroke-width="0.25" stroke="rgb(0,0,0)" />
	<line x1="237.809" y1="1570.92" x2="348.389" y2="1651.27" stroke-width="0.25" stroke="rgb(0,0,0)" />
	<line x1="348.389" y1="1652.41" x2="236.228" y2="1570.92" stroke-width="0.25" stroke="rgb(0,0,0)" />
	<line x1="234.648" y1="1570.92" x2="348.389" y2="1653.56" stroke-width="0.25" stroke="rgb(0,0,0)" />
	<line x1="348.389" y1="1654.71" x2="233.067" y2="1570.92" stroke-width="0.25" stroke="rgb(0,0,0)" />
	<line x1="231.487" y1="1570.92" x2="348.389" y2="1655.86" stroke-width="0.25" stroke="rgb(0,0,0)" />
	<line x1="348.389" y1="1657.01" x2="229.907" y2="1570.92" stroke-width="0.25" stroke="rgb(0,0,0)" />
	<line x1="228.326" y1="1570.92" x2="348.389" y2="1658.15" stroke-width="0.25" stroke="rgb(0,0,0)" />
	<line x1="348.389" y1="1659.3" x2="226.746" y2="1570.92" stroke-width="0.25" stroke="rgb(0,0,0)" />
	<line x1="225.166" y1="1570.92" x2="348.389" y2="1660.45" stroke-width="0.25" stroke="rgb(0,0,0)" />
	<line x1="348.389" y1="1661.6" x2="223.585" y2="1570.92" stroke-width="0.25" stroke="rgb(0,0,0)" />
	<line x1="222.005" y1="1570.92" x2="348.389" y2="1662.75" stroke-width="0.25" stroke="rgb(0,0,0)" />
	<line x1="348.389" y1="1663.9" x2="220.425" y2="1570.92" stroke-width="0.25" stroke="rgb(0,0,0)" />
	<line x1="218.844" y1="1570.92" x2="348.389" y2="1665.04" stroke-width="0.25" stroke="rgb(0,0,0)" />
	<line x1="348.389" y1="1666.19" x2="217.264" y2="1570.92" stroke-width="0.25" stroke="rgb(0,0,0)" />
	<line x1="215.684" y1="1570.92" x2="348.389" y2="1667.34" stroke-width="0.25" stroke="rgb(0,0,0)" />
	<line x1="348.389" y1="1668.49" x2="214.103" y2="1570.92" stroke-width="0.25" stroke="rgb(0,0,0)" />
	<line x1="212.523" y1="1570.92" x2="348.389" y2="1669.64" stroke-width="0.25" stroke="rgb(0,0,0)" />
	<line x1="348.389" y1="1670.78" x2="210.943" y2="1570.92" stroke-width="0.25" stroke="rgb(0,0,0)" />
	<line x1="209.362" y1="1570.92" x2="348.389" y2="1671.93" stroke-width="0.25" stroke="rgb(0,0,0)" />
	<line x1="348.389" y1="1673.08" x2="207.782" y2="1570.92" stroke-width="0.25" stroke="rgb(0,0,0)" />
	<line x1="206.201" y1="1570.92" x2="348.389" y2="1674.23" stroke-width="0.25" stroke="rgb(0,0,0)" />
	<line x1="348.389" y1="1675.38" x2="204.621" y2="1570.92" stroke-width="0.25" stroke="rgb(0,0,0)" />
	<line x1="203.041" y1="1570.92" x2="348.389" y2="1676.53" stroke-width="0.25" stroke="rgb(0,0,0)" />
	<line x1="348.389" y1="1677.67" x2="201.46" y2="1570.92" stroke-width="0.25" stroke="rgb(0,0,0)" />
	<line x1="199.88" y1="1570.92" x2="348.389" y2="1678.82" stroke-width="0.25" stroke="rgb(0,0,0)" />
	<line x1="348.389" y1="1679.97" x2="198.3" y2="1570.92" stroke-width="0.25" stroke="rgb(0,0,0)" />
	<line x1="196.719" y1="1570.92" x2="348.389" y2="1681.12" stroke-width="0.25" stroke="rgb(0,0,0)" />
	<line x1="348.389" y1="1682.27" x2="195.139" y2="1570.92" stroke-width="0.25" stroke="rgb(0,0,0)" />
	<line x1="193.559" y1="1570.92" x2="348.389" y2="1683.41" stroke-width="0.25" stroke="rgb(0,0,0)" />
	<line x1="348.389" y1="1684.56" x2="191.978" y2="1570.92" stroke-width="0.25" stroke="rgb(0,0,0)" />
	<line x1="190.398" y1="1570.92" x2="348.389" y2="1685.71" stroke-width="0.25" stroke="rgb(0,0,0)" />
	<line x1="348.389" y1="1686.86" x2="188.818" y2="1570.92" stroke-width="0.25" stroke="rgb(0,0,0)" />
	<line x1="187.237" y1="1570.92" x2="348.389" y2="1688.01" stroke-width="0.25" stroke="rgb(0,0,0)" />
	<line x1="348.389" y1="1689.16" x2="185.657" y2="1570.92" stroke-width="0.25" stroke="rgb(0,0,0)" />
	<line x1="184.077" y1="1570.92" x2="348.389" y2="1690.3" stroke-width="0.25" stroke="rgb(0,0,0)" />
	<line x1="348.389" y1="1691.45" x2="182.496" y2="1570.92" stroke-width="0.25" stroke="rgb(0,0,0)" />
	<line x1="180.916" y1="1570.92" x2="348.389" y2="1692.6" stroke-width="0.25" stroke="rgb(0,0,0)" />
	<line x1="348.389" y1="1693.75" x2="179.336" y2="1570.92" stroke-width="0.25" stroke="rgb(0,0,0)" />
	<line x1="177.755" y1="1570.92" x2="348.389" y2="1694.9" stroke-width="0.25" stroke="rgb(0,0,0)" />
	<line x1="348.389" y1="1696.04" x2="176.175" y2="1570.92" stroke-width="0.25" stroke="rgb(0,0,0)" />
	<line x1="174.594" y1="1570.92" x2="348.389" y2="1697.19" stroke-width="0.25" stroke="rgb(0,0,0)" />
	<line x1="348.389" y1="1698.34" x2="173.014" y2="1570.92" stroke-width="0.25" stroke="rgb(0,0,0)" />
	<line x1="171.434" y1="1570.92" x2="348.389" y2="1699.49" stroke-width="0.25" stroke="rgb(0,0,0)" />
	<line x1="348.389" y1="1700.64" x2="169.853" y2="1570.92" stroke-width="0.25" stroke="rgb(0,0,0)" />
	<line x1="168.273" y1="1570.92" x2="348.389" y2="1701.79" stroke-width="0.25" stroke="rgb(0,0,0)" />
	<line x1="348.389" y1="1702.93" x2="166.693" y2="1570.92" stroke-width="0.25" stroke="rgb(0,0,0)" />
	<line x1="165.112" y1="1570.92" x2="348.389" y2="1704.08" stroke-width="0.25" stroke="rgb(0,0,0)" />
	<line x1="348.389" y1="1705.23" x2="163.532" y2="1570.92" stroke-width="0.25" stroke="rgb(0,0,0)" />
	<line x1="161.952" y1="1570.92" x2="348.389" y2="1706.38" stroke-width="0.25" stroke="rgb(0,0,0)" />
	<line x1="348.389" y1="1707.53" x2="160.371" y2="1570.92" stroke-width="0.25" stroke="rgb(0,0,0)" />
	<line x1="158.791" y1="1570.92" x2="348.389" y2="1708.68" stroke-width="0.25" stroke="rgb(0,0,0)" />
	<line x1="348.389" y1="1709.82" x2="157.211" y2="1570.92" stroke-width="0.25" stroke="rgb(0,0,0)" />
	<line x1="155.63" y1="1570.92" x2="348.389" y2="1710.97" stroke-width="0.25" stroke="rgb(0,0,0)" />
	<line x1="348.389" y1="1712.12" x2="154.05" y2="1570.92" stroke-width="0.25" stroke="rgb(0,0,0)" />
	<line x1="152.47" y1="1570.92" x2="348.389" y2="1713.27" stroke-width="0.25" stroke="rgb(0,0,0)" />
	<line x1="348.389" y1="1714.42" x2="150.889" y2="1570.92" stroke-width="0.25" stroke="rgb(0,0,0)" />
	<line x1="150.665" y1="1571.91" x2="348.389" y2="1715.56" stroke-width="0.25" stroke="rgb(0,0,0)" />
	<line x1="348.389" y1="1716.71" x2="150.665" y2="1573.06" stroke-width="0.25" stroke="rgb(0,0,0)" />
	<line x1="150.665" y1="1574.21" x2="348.389" y2="1717.86" stroke-width="0.25" stroke="rgb(0,0,0)" />
	<line x1="348.389" y1="1719.01" x2="150.665" y2="1575.35" stroke-width="0.25" stroke="rgb(0,0,0)" />
	<line x1="150.665" y1="1576.5" x2="348.389" y2="1720.16" stroke-width="0.25" stroke="rgb(0,0,0)" />
	<line x1="348.389" y1="1721.31" x2="150.665" y2="1577.65" stroke-width="0.25" stroke="rgb(0,0,0)" />
	<line x1="150.665" y1="1578.8" x2="348.389" y2="1722.45" stroke-width="0.25" stroke="rgb(0,0,0)" />
	<line x1="348.389" y1="1723.6" x2="150.665" y2="1579.95" stroke-width="0.25" stroke="rgb(0,0,0)" />
	<line x1="150.665" y1="1581.09" x2="348.389" y2="1724.75" stroke-width="0.25" stroke="rgb(0,0,0)" />
	<line x1="348.389" y1="1725.9" x2="150.665" y2="1582.24" stroke-width="0.25" stroke="rgb(0,0,0)" />
	<line x1="150.665" y1="1583.39" x2="348.389" y2="1727.05" stroke-width="0.25" stroke="rgb(0,0,0)" />
	<line x1="348.389" y1="1728.19" x2="150.665" y2="1584.54" stroke-width="0.25" stroke="rgb(0,0,0)" />
	<line x1="150.665" y1="1585.69" x2="348.389" y2="1729.34" stroke-width="0.25" stroke="rgb(0,0,0)" />
	<line x1="348.389" y1="1730.49" x2="150.665" y2="1586.84" stroke-width="0.25" stroke="rgb(0,0,0)" />
	<line x1="150.665" y1="1587.98" x2="348.389" y2="1731.64" stroke-width="0.25" stroke="rgb(0,0,0)" />
	<line x1="348.389" y1="1732.79" x2="150.665" y2="1589.13" stroke-width="0.25" stroke="rgb(0,0,0)" />
	<line x1="150.665" y1="1590.28" x2="348.389" y2="1733.94" stroke-width="0.25" stroke="rgb(0,0,0)" />
	<line x1="348.389" y1="1735.08" x2="150.665" y2="1591.43" stroke-width="0.25" stroke="rgb(0,0,0)" />
	<line x1="150.665" y1="1592.58" x2="348.389" y2="1736.23" stroke-width="0.25" stroke="rgb(0,0,0)" />
	<line x1="348.389" y1="1737.38" x2="150.665" y2="1593.72" stroke-width="0.25" stroke="rgb(0,0,0)" />
	<line x1="150.665" y1="1594.87" x2="348.389" y2="1738.53" stroke-width="0.25" stroke="rgb(0,0,0)" />
	<line x1="348.389" y1="1739.68" x2="150.665" y2="1596.02" stroke-width="0.25" stroke="rgb(0,0,0)" />
	<line x1="150.665" y1="1597.17" x2="348.389" y2="1740.82" stroke-width="0.25" stroke="rgb(0,0,0)" />
	<line x1="348.389" y1="1741.97" x2="150.665" y2="1598.32" stroke-width="0.25" stroke="rgb(0,0,0)" />
	<line x1="150.665" y1="1599.47" x2="348.389" y2="1743.12" stroke-width="0.25" stroke="rgb(0,0,0)" />
	<line x1="348.389" y1="1744.27" x2="150.665" y2="1600.61" stroke-width="0.25" stroke="rgb(0,0,0)" />
	<line x1="150.665" y1="1601.76" x2="348.389" y2="1745.42" stroke-width="0.25" stroke="rgb(0,0,0)" />
	<line x1="348.389" y1="1746.57" x2="150.665" y2="1602.91" stroke-width="0.25" stroke="rgb(0,0,0)" />
	<line x1="150.665" y1="1604.06" x2="348.389" y2="1747.71" stroke-width="0.25" stroke="rgb(0,0,0)" />
	<line x1="348.389" y1="1748.86" x2="150.665" y2="1605.21" stroke-width="0.25" stroke="rgb(0,0,0)" />
	<line x1="150.665" y1="1606.35" x2="348.389" y2="1750.01" stroke-width="0.25" stroke="rgb(0,0,0)" />
	<line x1="348.389" y1="1751.16" x2="150.665" y2="1607.5" stroke-width="0.25" stroke="rgb(0,0,0)" />
	<line x1="150.665" y1="1608.65" x2="348.389" y2="1752.31" stroke-width="0.25" stroke="rgb(0,0,0)" />
	<line x1="348.389" y1="1753.45" x2="150.665" y2="1609.8" stroke-width="0.25" stroke="rgb(0,0,0)" />
	<line x1="150.665" y1="1610.95" x2="348.389" y2="1754.6" stroke-width="0.25" stroke="rgb(0,0,0)" />
	<line x1="348.389" y1="1755.75" x2="150.665" y2="1612.1" stroke-width="0.25" stroke="rgb(0,0,0)" />
	<line x1="150.665" y1="1613.24" x2="348.389" y2="1756.9" stroke-width="0.25" stroke="rgb(0,0,0)" />
	<line x1="348.389" y1="1758.05" x2="150.665" y2="1614.39" stroke-width="0.25" stroke="rgb(0,0,0)" />
	<line x1="150.665" y1="1615.54" x2="348.389" y2="1759.2" stroke-width="0.25" stroke="rgb(0,0,0)" />
	<line x1="348.389" y1="1760.34" x2="150.665" y2="1616.69" stroke-width="0.25" stroke="rgb(0,0,0)" />
	<line x1="150.665" y1="1617.84" x2="348.389" y2="1761.49" stroke-width="0.25" stroke="rgb(0,0,0)" />
	<line x1="348.389" y1="1762.64" x2="150.665" y2="1618.98" stroke-width="0.25" stroke="rgb(0,0,0)" />
	<line x1="150.665" y1="1620.13" x2="348.389" y2="1763.79" stroke-width="0.25" stroke="rgb(0,0,0)" />
	<line x1="348.389" y1="1764.94" x2="150.665" y2="1621.28" stroke-width="0.25" stroke="rgb(0,0,0)" />
	<line x1="150.665" y1="1622.43" x2="348.389" y2="1766.08" stroke-width="0.25" stroke="rgb(0,0,0)" />
	<line x1="348.389" y1="1767.23" x2="150.665" y2="1623.58" stroke-width="0.25" stroke="rgb(0,0,0)" />
	<line x1="150.665" y1="1624.73" x2="348.389" y2="1768.38" stroke-width="0.25" stroke="rgb(0,0,0)" />
	<line x1="347.177" y1="1768.65" x2="150.665" y2="1625.87" stroke-width="0.25" stroke="rgb(0,0,0)" />
	<line x1="150.665" y1="1627.02" x2="345.596" y2="1768.65" stroke-width="0.25" stroke="rgb(0,0,0)" />
	<line x1="344.016" y1="1768.65" x2="150.665" y2="1628.17" stroke-width="0.25" stroke="rgb(0,0,0)" />
	<line x1="150.665" y1="1629.32" x2="342.436" y2="1768.65" stroke-width="0.25" stroke="rgb(0,0,0)" />
	<line x1="340.855" y1="1768.65" x2="150.665" y2="1630.47" stroke-width="0.25" stroke="rgb(0,0,0)" />
	<line x1="150.665" y1="1631.61" x2="339.275" y2="1768.65" stroke-width="0.25" stroke="rgb(0,0,0)" />
	<line x1="337.695" y1="1768.65" x2="150.665" y2="1632.76" stroke-width="0.25" stroke="rgb(0,0,0)" />
	<line x1="150.665" y1="1633.91" x2="336.114" y2="1768.65" stroke-width="0.25" stroke="rgb(0,0,0)" />
	<line x1="334.534" y1="1768.65" x2="150.665" y2="1635.06" stroke-width="0.25" stroke="rgb(0,0,0)" />
	<line x1="150.665" y1="1636.21" x2="332.954" y2="1768.65" stroke-width="0.25" stroke="rgb(0,0,0)" />
	<line x1="331.373" y1="1768.65" x2="150.665" y2="1637.36" stroke-width="0.25" stroke="rgb(0,0,0)" />
	<line x1="150.665" y1="1638.5" x2="329.793" y2="1768.65" stroke-width="0.25" stroke="rgb(0,0,0)" />
	<line x1="328.213" y1="1768.65" x2="150.665" y2="1639.65" stroke-width="0.25" stroke="rgb(0,0,0)" />
	<line x1="150.665" y1="1640.8" x2="326.632" y2="1768.65" stroke-width="0.25" stroke="rgb(0,0,0)" />
	<line x1="325.052" y1="1768.65" x2="150.665" y2="1641.95" stroke-width="0.25" stroke="rgb(0,0,0)" />
	<line x1="150.665" y1="1643.1" x2="323.472" y2="1768.65" stroke-width="0.25" stroke="rgb(0,0,0)" />
	<line x1="321.891" y1="1768.65" x2="150.665" y2="1644.25" stroke-width="0.25" stroke="rgb(0,0,0)" />
	<line x1="150.665" y1="1645.39" x2="320.311" y2="1768.65" stroke-width="0.25" stroke="rgb(0,0,0)" />
	<line x1="318.73" y1="1768.65" x2="150.665" y2="1646.54" stroke-width="0.25" stroke="rgb(0,0,0)" />
	<line x1="150.665" y1="1647.69" x2="317.15" y2="1768.65" stroke-width="0.25" stroke="rgb(0,0,0)" />
	<line x1="315.57" y1="1768.65" x2="150.665" y2="1648.84" stroke-width="0.25" stroke="rgb(0,0,0)" />
	<line x1="150.665" y1="1649.99" x2="313.989" y2="1768.65" stroke-width="0.25" stroke="rgb(0,0,0)" />
	<line x1="312.409" y1="1768.65" x2="150.665" y2="1651.13" stroke-width="0.25" stroke="rgb(0,0,0)" />
	<line x1="150.665" y1="1652.28" x2="310.829" y2="1768.65" stroke-width="0.25" stroke="rgb(0,0,0)" />
	<line x1="309.248" y1="1768.65" x2="150.665" y2="1653.43" stroke-width="0.25" stroke="rgb(0,0,0)" />
	<line x1="150.665" y1="1654.58" x2="307.668" y2="1768.65" stroke-width="0.25" stroke="rgb(0,0,0)" />
	<line x1="306.088" y1="1768.65" x2="150.665" y2="1655.73" stroke-width="0.25" stroke="rgb(0,0,0)" />
	<line x1="150.665" y1="1656.88" x2="304.507" y2="1768.65" stroke-width="0.25" stroke="rgb(0,0,0)" />
	<line x1="302.927" y1="1768.65" x2="150.665" y2="1658.02" stroke-width="0.25" stroke="rgb(0,0,0)" />
	<line x1="150.665" y1="1659.17" x2="301.347" y2="1768.65" stroke-width="0.25" stroke="rgb(0,0,0)" />
	<line x1="299.766" y1="1768.65" x2="150.665" y2="1660.32" stroke-width="0.25" stroke="rgb(0,0,0)" />
	<line x1="150.665" y1="1661.47" x2="298.186" y2="1768.65" stroke-width="0.25" stroke="rgb(0,0,0)" />
	<line x1="296.606" y1="1768.65" x2="150.665" y2="1662.62" stroke-width="0.25" stroke="rgb(0,0,0)" />
	<line x1="150.665" y1="1663.76" x2="295.025" y2="1768.65" stroke-width="0.25" stroke="rgb(0,0,0)" />
	<line x1="293.445" y1="1768.65" x2="150.665" y2="1664.91" stroke-width="0.25" stroke="rgb(0,0,0)" />
	<line x1="150.665" y1="1666.06" x2="291.864" y2="1768.65" stroke-width="0.25" stroke="rgb(0,0,0)" />
	<line x1="290.284" y1="1768.65" x2="150.665" y2="1667.21" stroke-width="0.25" stroke="rgb(0,0,0)" />
	<line x1="150.665" y1="1668.36" x2="288.704" y2="1768.65" stroke-width="0.25" stroke="rgb(0,0,0)" />
	<line x1="287.123" y1="1768.65" x2="150.665" y2="1669.51" stroke-width="0.25" stroke="rgb(0,0,0)" />
	<line x1="150.665" y1="1670.65" x2="285.543" y2="1768.65" stroke-width="0.25" stroke="rgb(0,0,0)" />
	<line x1="283.963" y1="1768.65" x2="150.665" y2="1671.8" stroke-width="0.25" stroke="rgb(0,0,0)" />
	<line x1="150.665" y1="1672.95" x2="282.382" y2="1768.65" stroke-width="0.25" stroke="rgb(0,0,0)" />
	<line x1="280.802" y1="1768.65" x2="150.665" y2="1674.1" stroke-width="0.25" stroke="rgb(0,0,0)" />
	<line x1="150.665" y1="1675.25" x2="279.222" y2="1768.65" stroke-width="0.25" stroke="rgb(0,0,0)" />
	<line x1="277.641" y1="1768.65" x2="150.665" y2="1676.39" stroke-width="0.25" stroke="rgb(0,0,0)" />
	<line x1="150.665" y1="1677.54" x2="276.061" y2="1768.65" stroke-width="0.25" stroke="rgb(0,0,0)" />
	<line x1="274.481" y1="1768.65" x2="150.665" y2="1678.69" stroke-width="0.25" stroke="rgb(0,0,0)" />
	<line x1="150.665" y1="1679.84" x2="272.9" y2="1768.65" stroke-width="0.25" stroke="rgb(0,0,0)" />
	<line x1="271.32" y1="1768.65" x2="150.665" y2="1680.99" stroke-width="0.25" stroke="rgb(0,0,0)" />
	<line x1="150.665" y1="1682.14" x2="269.74" y2="1768.65" stroke-width="0.25" stroke="rgb(0,0,0)" />
	<line x1="268.159" y1="1768.65" x2="150.665" y2="1683.28" stroke-width="0.25" stroke="rgb(0,0,0)" />
	<line x1="150.665" y1="1684.43" x2="266.579" y2="1768.65" stroke-width="0.25" stroke="rgb(0,0,0)" />
	<line x1="264.999" y1="1768.65" x2="150.665" y2="1685.58" stroke-width="0.25" stroke="rgb(0,0,0)" />
	<line x1="150.665" y1="1686.73" x2="263.418" y2="1768.65" stroke-width="0.25" stroke="rgb(0,0,0)" />
	<line x1="261.838" y1="1768.65" x2="150.665" y2="1687.88" stroke-width="0.25" stroke="rgb(0,0,0)" />
	<line x1="150.665" y1="1689.02" x2="260.257" y2="1768.65" stroke-width="0.25" stroke="rgb(0,0,0)" />
	<line x1="258.677" y1="1768.65" x2="150.665" y2="1690.17" stroke-width="0.25" stroke="rgb(0,0,0)" />
	<line x1="150.665" y1="1691.32" x2="257.097" y2="1768.65" stroke-width="0.25" stroke="rgb(0,0,0)" />
	<line x1="255.516" y1="1768.65" x2="150.665" y2="1692.47" stroke-width="0.25" stroke="rgb(0,0,0)" />
	<line x1="150.665" y1="1693.62" x2="253.936" y2="1768.65" stroke-width="0.25" stroke="rgb(0,0,0)" />
	<line x1="252.356" y1="1768.65" x2="150.665" y2="1694.77" stroke-width="0.25" stroke="rgb(0,0,0)" />
	<line x1="150.665" y1="1695.91" x2="250.775" y2="1768.65" stroke-width="0.25" stroke="rgb(0,0,0)" />
	<line x1="249.195" y1="1768.65" x2="150.665" y2="1697.06" stroke-width="0.25" stroke="rgb(0,0,0)" />
	<line x1="150.665" y1="1698.21" x2="247.615" y2="1768.65" stroke-width="0.25" stroke="rgb(0,0,0)" />
	<line x1="246.034" y1="1768.65" x2="150.665" y2="1699.36" stroke-width="0.25" stroke="rgb(0,0,0)" />
	<line x1="150.665" y1="1700.51" x2="244.454" y2="1768.65" stroke-width="0.25" stroke="rgb(0,0,0)" />
	<line x1="242.874" y1="1768.65" x2="150.665" y2="1701.65" stroke-width="0.25" stroke="rgb(0,0,0)" />
	<line x1="150.665" y1="1702.8" x2="241.293" y2="1768.65" stroke-width="0.25" stroke="rgb(0,0,0)" />
	<line x1="239.713" y1="1768.65" x2="150.665" y2="1703.95" stroke-width="0.25" stroke="rgb(0,0,0)" />
	<line x1="150.665" y1="1705.1" x2="238.133" y2="1768.65" stroke-width="0.25" stroke="rgb(0,0,0)" />
	<line x1="236.552" y1="1768.65" x2="150.665" y2="1706.25" stroke-width="0.25" stroke="rgb(0,0,0)" />
	<line x1="150.665" y1="1707.4" x2="234.972" y2="1768.65" stroke-width="0.25" stroke="rgb(0,0,0)" />
	<line x1="233.391" y1="1768.65" x2="150.665" y2="1708.54" stroke-width="0.25" stroke="rgb(0,0,0)" />
	<line x1="150.665" y1="1709.69" x2="231.811" y2="1768.65" stroke-width="0.25" stroke="rgb(0,0,0)" />
	<line x1="230.231" y1="1768.65" x2="150.665" y2="1710.84" stroke-width="0.25" stroke="rgb(0,0,0)" />
	<line x1="150.665" y1="1711.99" x2="228.65" y2="1768.65" stroke-width="0.25" stroke="rgb(0,0,0)" />
	<line x1="227.07" y1="1768.65" x2="150.665" y2="1713.14" stroke-width="0.25" stroke="rgb(0,0,0)" />
	<line x1="150.665" y1="1714.28" x2="225.49" y2="1768.65" stroke-width="0.25" stroke="rgb(0,0,0)" />
	<line x1="223.909" y1="1768.65" x2="150.665" y2="1715.43" stroke-width="0.25" stroke="rgb(0,0,0)" />
	<line x1="150.665" y1="1716.58" x2="222.329" y2="1768.65" stroke-width="0.25" stroke="rgb(0,0,0)" />
	<line x1="220.749" y1="1768.65" x2="150.665" y2="1717.73" stroke-width="0.25" stroke="rgb(0,0,0)" />
	<line x1="150.665" y1="1718.88" x2="219.168" y2="1768.65" stroke-width="0.25" stroke="rgb(0,0,0)" />
	<line x1="217.588" y1="1768.65" x2="150.665" y2="1720.03" stroke-width="0.25" stroke="rgb(0,0,0)" />
	<line x1="150.665" y1="1721.17" x2="216.008" y2="1768.65" stroke-width="0.25" stroke="rgb(0,0,0)" />
	<line x1="214.427" y1="1768.65" x2="150.665" y2="1722.32" stroke-width="0.25" stroke="rgb(0,0,0)" />
	<line x1="150.665" y1="1723.47" x2="212.847" y2="1768.65" stroke-width="0.25" stroke="rgb(0,0,0)" />
	<line x1="211.267" y1="1768.65" x2="150.665" y2="1724.62" stroke-width="0.25" stroke="rgb(0,0,0)" />
	<line x1="150.665" y1="1725.77" x2="209.686" y2="1768.65" stroke-width="0.25" stroke="rgb(0,0,0)" />
	<line x1="208.106" y1="1768.65" x2="150.665" y2="1726.91" stroke-width="0.25" stroke="rgb(0,0,0)" />
	<line x1="150.665" y1="1728.06" x2="206.526" y2="1768.65" stroke-width="0.25" stroke="rgb(0,0,0)" />
	<line x1="204.945" y1="1768.65" x2="150.665" y2="1729.21" stroke-width="0.25" stroke="rgb(0,0,0)" />
	<line x1="150.665" y1="1730.36" x2="203.365" y2="1768.65" stroke-width="0.25" stroke="rgb(0,0,0)" />
	<line x1="201.784" y1="1768.65" x2="150.665" y2="1731.51" stroke-width="0.25" stroke="rgb(0,0,0)" />
	<line x1="150.665" y1="1732.66" x2="200.204" y2="1768.65" stroke-width="0.25" stroke="rgb(0,0,0)" />
	<line x1="198.624" y1="1768.65" x2="150.665" y2="1733.8" stroke-width="0.25" stroke="rgb(0,0,0)" />
	<line x1="150.665" y1="1734.95" x2="197.043" y2="1768.65" stroke-width="0.25" stroke="rgb(0,0,0)" />
	<line x1="195.463" y1="1768.65" x2="150.665" y2="1736.1" stroke-width="0.25" stroke="rgb(0,0,0)" />
	<line x1="150.665" y1="1737.25" x2="193.883" y2="1768.65" stroke-width="0.25" stroke="rgb(0,0,0)" />
	<line x1="192.302" y1="1768.65" x2="150.665" y2="1738.4" stroke-width="0.25" stroke="rgb(0,0,0)" />
	<line x1="150.665" y1="1739.55" x2="190.722" y2="1768.65" stroke-width="0.25" stroke="rgb(0,0,0)" />
	<line x1="189.142" y1="1768.65" x2="150.665" y2="1740.69" stroke-width="0.25" stroke="rgb(0,0,0)" />
	<line x1="150.665" y1="1741.84" x2="187.561" y2="1768.65" stroke-width="0.25" stroke="rgb(0,0,0)" />
	<line x1="185.981" y1="1768.65" x2="150.665" y2="1742.99" stroke-width="0.25" stroke="rgb(0,0,0)" />
	<line x1="150.665" y1="1744.14" x2="184.401" y2="1768.65" stroke-width="0.25" stroke="rgb(0,0,0)" />
	<line x1="182.82" y1="1768.65" x2="150.665" y2="1745.29" stroke-width="0.25" stroke="rgb(0,0,0)" />
	<line x1="150.665" y1="1746.43" x2="181.24" y2="1768.65" stroke-width="0.25" stroke="rgb(0,0,0)" />
	<line x1="179.66" y1="1768.65" x2="150.665" y2="1747.58" stroke-width="0.25" stroke="rgb(0,0,0)" />
	<line x1="150.665" y1="1748.73" x2="178.079" y2="1768.65" stroke-width="0.25" stroke="rgb(0,0,0)" />
	<line x1="176.499" y1="1768.65" x2="150.665" y2="1749.88" stroke-width="0.25" stroke="rgb(0,0,0)" />
	<line x1="150.665" y1="1751.03" x2="174.919" y2="1768.65" stroke-width="0.25" stroke="rgb(0,0,0)" />
	<line x1="173.338" y1="1768.65" x2="150.665" y2="1752.18" stroke-width="0.25" stroke="rgb(0,0,0)" />
	<line x1="150.665" y1="1753.32" x2="171.758" y2="1768.65" stroke-width="0.25" stroke="rgb(0,0,0)" />
	<line x1="170.177" y1="1768.65" x2="150.665" y2="1754.47" stroke-width="0.25" stroke="rgb(0,0,0)" />
	<line x1="150.665" y1="1755.62" x2="168.597" y2="1768.65" stroke-width="0.25" stroke="rgb(0,0,0)" />
	<line x1="167.017" y1="1768.65" x2="150.665" y2="1756.77" stroke-width="0.25" stroke="rgb(0,0,0)" />
	<line x1="150.665" y1="1757.92" x2="165.436" y2="1768.65" stroke-width="0.25" stroke="rgb(0,0,0)" />
	<line x1="163.856" y1="1768.65" x2="150.665" y2="1759.06" stroke-width="0.25" stroke="rgb(0,0,0)" />
	<line x1="150.665" y1="1760.21" x2="162.276" y2="1768.65" stroke-width="0.25" stroke="rgb(0,0,0)" />
	<line x1="160.695" y1="1768.65" x2="150.665" y2="1761.36" stroke-width="0.25" stroke="rgb(0,0,0)" />
	<line x1="150.665" y1="1762.51" x2="159.115" y2="1768.65" stroke-width="0.25" stroke="rgb(0,0,0)" />
	<line x1="157.535" y1="1768.65" x2="150.665" y2="1763.66" stroke-width="0.25" stroke="rgb(0,0,0)" />
	<line x1="150.665" y1="1764.81" x2="155.954" y2="1768.65" stroke-width="0.25" stroke="rgb(0,0,0)" />
	<line x1="154.374" y1="1768.65" x2="150.665" y2="1765.95" stroke-width="0.25" stroke="rgb(0,0,0)" />
	<line x1="150.665" y1="1767.1" x2="152.794" y2="1768.65" stroke-width="0.25" stroke="rgb(0,0,0)" />
	<line x1="151.213" y1="1768.65" x2="150.665" y2="1768.25" stroke-width="0.25" stroke="rgb(0,0,0)" />
	<line x1="296.941" y1="826.062" x2="297.045" y2="826.138" stroke-width="0.25" stroke="rgb(0,0,0)" />
	<line x1="297.045" y1="827.614" x2="294.909" y2="826.062" stroke-width="0.25" stroke="rgb(0,0,0)" />
	<line x1="292.877" y1="826.062" x2="297.045" y2="829.09" stroke-width="0.25" stroke="rgb(0,0,0)" />
	<line x1="297.045" y1="830.567" x2="290.845" y2="826.062" stroke-width="0.25" stroke="rgb(0,0,0)" />
	<line x1="288.813" y1="826.062" x2="297.045" y2="832.043" stroke-width="0.25" stroke="rgb(0,0,0)" />
	<line x1="297.045" y1="833.519" x2="286.781" y2="826.062" stroke-width="0.25" stroke="rgb(0,0,0)" />
	<line x1="284.749" y1="826.062" x2="297.045" y2="834.995" stroke-width="0.25" stroke="rgb(0,0,0)" />
	<line x1="297.045" y1="836.472" x2="282.717" y2="826.062" stroke-width="0.25" stroke="rgb(0,0,0)" />
	<line x1="280.686" y1="826.062" x2="297.045" y2="837.948" stroke-width="0.25" stroke="rgb(0,0,0)" />
	<line x1="297.045" y1="839.424" x2="278.654" y2="826.062" stroke-width="0.25" stroke="rgb(0,0,0)" />
	<line x1="276.622" y1="826.062" x2="297.045" y2="840.9" stroke-width="0.25" stroke="rgb(0,0,0)" />
	<line x1="297.045" y1="842.377" x2="274.59" y2="826.062" stroke-width="0.25" stroke="rgb(0,0,0)" />
	<line x1="272.558" y1="826.062" x2="297.045" y2="843.853" stroke-width="0.25" stroke="rgb(0,0,0)" />
	<line x1="297.045" y1="845.329" x2="270.526" y2="826.062" stroke-width="0.25" stroke="rgb(0,0,0)" />
	<line x1="268.494" y1="826.062" x2="297.045" y2="846.805" stroke-width="0.25" stroke="rgb(0,0,0)" />
	<line x1="297.045" y1="848.282" x2="266.462" y2="826.062" stroke-width="0.25" stroke="rgb(0,0,0)" />
	<line x1="264.431" y1="826.062" x2="297.045" y2="849.758" stroke-width="0.25" stroke="rgb(0,0,0)" />
	<line x1="297.045" y1="851.234" x2="262.399" y2="826.062" stroke-width="0.25" stroke="rgb(0,0,0)" />
	<line x1="260.367" y1="826.062" x2="297.045" y2="852.71" stroke-width="0.25" stroke="rgb(0,0,0)" />
	<line x1="297.045" y1="854.187" x2="258.335" y2="826.062" stroke-width="0.25" stroke="rgb(0,0,0)" />
	<line x1="256.303" y1="826.062" x2="297.045" y2="855.663" stroke-width="0.25" stroke="rgb(0,0,0)" />
	<line x1="297.045" y1="857.139" x2="254.271" y2="826.062" stroke-width="0.25" stroke="rgb(0,0,0)" />
	<line x1="252.239" y1="826.062" x2="297.045" y2="858.615" stroke-width="0.25" stroke="rgb(0,0,0)" />
	<line x1="297.045" y1="860.092" x2="250.207" y2="826.062" stroke-width="0.25" stroke="rgb(0,0,0)" />
	<line x1="248.176" y1="826.062" x2="297.045" y2="861.568" stroke-width="0.25" stroke="rgb(0,0,0)" />
	<line x1="297.045" y1="863.044" x2="246.144" y2="826.062" stroke-width="0.25" stroke="rgb(0,0,0)" />
	<line x1="244.112" y1="826.062" x2="297.045" y2="864.52" stroke-width="0.25" stroke="rgb(0,0,0)" />
	<line x1="297.045" y1="865.997" x2="242.08" y2="826.062" stroke-width="0.25" stroke="rgb(0,0,0)" />
	<line x1="240.048" y1="826.062" x2="297.045" y2="867.473" stroke-width="0.25" stroke="rgb(0,0,0)" />
	<line x1="297.045" y1="868.949" x2="238.016" y2="826.062" stroke-width="0.25" stroke="rgb(0,0,0)" />
	<line x1="235.984" y1="826.062" x2="297.045" y2="870.425" stroke-width="0.25" stroke="rgb(0,0,0)" />
	<line x1="297.045" y1="871.902" x2="233.952" y2="826.062" stroke-width="0.25" stroke="rgb(0,0,0)" />
	<line x1="231.92" y1="826.062" x2="297.045" y2="873.378" stroke-width="0.25" stroke="rgb(0,0,0)" />
	<line x1="297.045" y1="874.854" x2="229.889" y2="826.062" stroke-width="0.25" stroke="rgb(0,0,0)" />
	<line x1="227.857" y1="826.062" x2="297.045" y2="876.33" stroke-width="0.25" stroke="rgb(0,0,0)" />
	<line x1="297.045" y1="877.807" x2="225.825" y2="826.062" stroke-width="0.25" stroke="rgb(0,0,0)" />
	<line x1="223.793" y1="826.062" x2="297.045" y2="879.283" stroke-width="0.25" stroke="rgb(0,0,0)" />
	<line x1="297.045" y1="880.759" x2="221.761" y2="826.062" stroke-width="0.25" stroke="rgb(0,0,0)" />
	<line x1="219.729" y1="826.062" x2="297.045" y2="882.235" stroke-width="0.25" stroke="rgb(0,0,0)" />
	<line x1="297.045" y1="883.711" x2="217.697" y2="826.062" stroke-width="0.25" stroke="rgb(0,0,0)" />
	<line x1="215.665" y1="826.062" x2="297.045" y2="885.188" stroke-width="0.25" stroke="rgb(0,0,0)" />
	<line x1="297.045" y1="886.664" x2="213.634" y2="826.062" stroke-width="0.25" stroke="rgb(0,0,0)" />
	<line x1="211.602" y1="826.062" x2="297.045" y2="888.14" stroke-width="0.25" stroke="rgb(0,0,0)" />
	<line x1="297.045" y1="889.616" x2="209.57" y2="826.062" stroke-width="0.25" stroke="rgb(0,0,0)" />
	<line x1="207.538" y1="826.062" x2="297.045" y2="891.093" stroke-width="0.25" stroke="rgb(0,0,0)" />
	<line x1="297.045" y1="892.569" x2="205.506" y2="826.062" stroke-width="0.25" stroke="rgb(0,0,0)" />
	<line x1="203.474" y1="826.062" x2="297.045" y2="894.045" stroke-width="0.25" stroke="rgb(0,0,0)" />
	<line x1="297.045" y1="895.521" x2="201.442" y2="826.062" stroke-width="0.25" stroke="rgb(0,0,0)" />
	<line x1="199.41" y1="826.062" x2="297.045" y2="896.998" stroke-width="0.25" stroke="rgb(0,0,0)" />
	<line x1="297.045" y1="898.474" x2="197.379" y2="826.062" stroke-width="0.25" stroke="rgb(0,0,0)" />
	<line x1="195.347" y1="826.062" x2="297.045" y2="899.95" stroke-width="0.25" stroke="rgb(0,0,0)" />
	<line x1="297.045" y1="901.426" x2="193.315" y2="826.062" stroke-width="0.25" stroke="rgb(0,0,0)" />
	<line x1="191.283" y1="826.062" x2="297.045" y2="902.903" stroke-width="0.25" stroke="rgb(0,0,0)" />
	<line x1="297.045" y1="904.379" x2="189.251" y2="826.062" stroke-width="0.25" stroke="rgb(0,0,0)" />
	<line x1="187.219" y1="826.062" x2="297.045" y2="905.855" stroke-width="0.25" stroke="rgb(0,0,0)" />
	<line x1="297.045" y1="907.331" x2="185.187" y2="826.062" stroke-width="0.25" stroke="rgb(0,0,0)" />
	<line x1="183.155" y1="826.062" x2="297.045" y2="908.808" stroke-width="0.25" stroke="rgb(0,0,0)" />
	<line x1="297.045" y1="910.284" x2="181.123" y2="826.062" stroke-width="0.25" stroke="rgb(0,0,0)" />
	<line x1="179.092" y1="826.062" x2="297.045" y2="911.76" stroke-width="0.25" stroke="rgb(0,0,0)" />
	<line x1="297.045" y1="913.236" x2="177.06" y2="826.062" stroke-width="0.25" stroke="rgb(0,0,0)" />
	<line x1="175.028" y1="826.062" x2="297.045" y2="914.713" stroke-width="0.25" stroke="rgb(0,0,0)" />
	<line x1="297.045" y1="916.189" x2="172.996" y2="826.062" stroke-width="0.25" stroke="rgb(0,0,0)" />
	<line x1="170.964" y1="826.062" x2="297.045" y2="917.665" stroke-width="0.25" stroke="rgb(0,0,0)" />
	<line x1="297.045" y1="919.141" x2="168.932" y2="826.062" stroke-width="0.25" stroke="rgb(0,0,0)" />
	<line x1="166.9" y1="826.062" x2="297.045" y2="920.618" stroke-width="0.25" stroke="rgb(0,0,0)" />
	<line x1="297.045" y1="922.094" x2="164.868" y2="826.062" stroke-width="0.25" stroke="rgb(0,0,0)" />
	<line x1="162.837" y1="826.062" x2="297.045" y2="923.57" stroke-width="0.25" stroke="rgb(0,0,0)" />
	<line x1="297.045" y1="925.046" x2="160.805" y2="826.062" stroke-width="0.25" stroke="rgb(0,0,0)" />
	<line x1="158.773" y1="826.062" x2="297.045" y2="926.523" stroke-width="0.25" stroke="rgb(0,0,0)" />
	<line x1="297.045" y1="927.999" x2="156.741" y2="826.062" stroke-width="0.25" stroke="rgb(0,0,0)" />
	<line x1="154.709" y1="826.062" x2="297.045" y2="929.475" stroke-width="0.25" stroke="rgb(0,0,0)" />
	<line x1="297.045" y1="930.951" x2="152.677" y2="826.062" stroke-width="0.25" stroke="rgb(0,0,0)" />
	<line x1="152.522" y1="827.426" x2="297.045" y2="932.428" stroke-width="0.25" stroke="rgb(0,0,0)" />
	<line x1="297.045" y1="933.904" x2="152.522" y2="828.902" stroke-width="0.25" stroke="rgb(0,0,0)" />
	<line x1="152.522" y1="830.378" x2="297.045" y2="935.38" stroke-width="0.25" stroke="rgb(0,0,0)" />
	<line x1="297.045" y1="936.856" x2="152.522" y2="831.855" stroke-width="0.25" stroke="rgb(0,0,0)" />
	<line x1="152.522" y1="833.331" x2="297.045" y2="938.333" stroke-width="0.25" stroke="rgb(0,0,0)" />
	<line x1="297.045" y1="939.809" x2="152.522" y2="834.807" stroke-width="0.25" stroke="rgb(0,0,0)" />
	<line x1="152.522" y1="836.283" x2="297.045" y2="941.285" stroke-width="0.25" stroke="rgb(0,0,0)" />
	<line x1="297.045" y1="942.761" x2="152.522" y2="837.76" stroke-width="0.25" stroke="rgb(0,0,0)" />
	<line x1="152.522" y1="839.236" x2="297.045" y2="944.238" stroke-width="0.25" stroke="rgb(0,0,0)" />
	<line x1="297.045" y1="945.714" x2="152.522" y2="840.712" stroke-width="0.25" stroke="rgb(0,0,0)" />
	<line x1="152.522" y1="842.188" x2="297.045" y2="947.19" stroke-width="0.25" stroke="rgb(0,0,0)" />
	<line x1="297.045" y1="948.666" x2="152.522" y2="843.665" stroke-width="0.25" stroke="rgb(0,0,0)" />
	<line x1="152.522" y1="845.141" x2="297.045" y2="950.143" stroke-width="0.25" stroke="rgb(0,0,0)" />
	<line x1="297.045" y1="951.619" x2="152.522" y2="846.617" stroke-width="0.25" stroke="rgb(0,0,0)" />
	<line x1="152.522" y1="848.093" x2="297.045" y2="953.095" stroke-width="0.25" stroke="rgb(0,0,0)" />
	<line x1="297.045" y1="954.571" x2="152.522" y2="849.57" stroke-width="0.25" stroke="rgb(0,0,0)" />
	<line x1="152.522" y1="851.046" x2="297.045" y2="956.048" stroke-width="0.25" stroke="rgb(0,0,0)" />
	<line x1="297.045" y1="957.524" x2="152.522" y2="852.522" stroke-width="0.25" stroke="rgb(0,0,0)" />
	<line x1="152.522" y1="853.998" x2="297.045" y2="959" stroke-width="0.25" stroke="rgb(0,0,0)" />
	<line x1="297.045" y1="960.476" x2="152.522" y2="855.475" stroke-width="0.25" stroke="rgb(0,0,0)" />
	<line x1="152.522" y1="856.951" x2="297.045" y2="961.953" stroke-width="0.25" stroke="rgb(0,0,0)" />
	<line x1="297.045" y1="963.429" x2="152.522" y2="858.427" stroke-width="0.25" stroke="rgb(0,0,0)" />
	<line x1="152.522" y1="859.903" x2="297.045" y2="964.905" stroke-width="0.25" stroke="rgb(0,0,0)" />
	<line x1="297.045" y1="966.381" x2="152.522" y2="861.38" stroke-width="0.25" stroke="rgb(0,0,0)" />
	<line x1="152.522" y1="862.856" x2="297.045" y2="967.858" stroke-width="0.25" stroke="rgb(0,0,0)" />
	<line x1="297.045" y1="969.334" x2="152.522" y2="864.332" stroke-width="0.25" stroke="rgb(0,0,0)" />
	<line x1="152.522" y1="865.808" x2="296.735" y2="970.585" stroke-width="0.25" stroke="rgb(0,0,0)" />
	<line x1="294.703" y1="970.585" x2="152.522" y2="867.285" stroke-width="0.25" stroke="rgb(0,0,0)" />
	<line x1="152.522" y1="868.761" x2="292.671" y2="970.585" stroke-width="0.25" stroke="rgb(0,0,0)" />
	<line x1="290.639" y1="970.585" x2="152.522" y2="870.237" stroke-width="0.25" stroke="rgb(0,0,0)" />
	<line x1="152.522" y1="871.713" x2="288.607" y2="970.585" stroke-width="0.25" stroke="rgb(0,0,0)" />
	<line x1="286.575" y1="970.585" x2="152.522" y2="873.19" stroke-width="0.25" stroke="rgb(0,0,0)" />
	<line x1="152.522" y1="874.666" x2="284.543" y2="970.585" stroke-width="0.25" stroke="rgb(0,0,0)" />
	<line x1="282.511" y1="970.585" x2="152.522" y2="876.142" stroke-width="0.25" stroke="rgb(0,0,0)" />
	<line x1="152.522" y1="877.618" x2="280.48" y2="970.585" stroke-width="0.25" stroke="rgb(0,0,0)" />
	<line x1="278.448" y1="970.585" x2="152.522" y2="879.095" stroke-width="0.25" stroke="rgb(0,0,0)" />
	<line x1="152.522" y1="880.571" x2="276.416" y2="970.585" stroke-width="0.25" stroke="rgb(0,0,0)" />
	<line x1="274.384" y1="970.585" x2="152.522" y2="882.047" stroke-width="0.25" stroke="rgb(0,0,0)" />
	<line x1="152.522" y1="883.523" x2="272.352" y2="970.585" stroke-width="0.25" stroke="rgb(0,0,0)" />
	<line x1="270.32" y1="970.585" x2="152.522" y2="885" stroke-width="0.25" stroke="rgb(0,0,0)" />
	<line x1="152.522" y1="886.476" x2="268.288" y2="970.585" stroke-width="0.25" stroke="rgb(0,0,0)" />
	<line x1="266.256" y1="970.585" x2="152.522" y2="887.952" stroke-width="0.25" stroke="rgb(0,0,0)" />
	<line x1="152.522" y1="889.428" x2="264.225" y2="970.585" stroke-width="0.25" stroke="rgb(0,0,0)" />
	<line x1="262.193" y1="970.585" x2="152.522" y2="890.905" stroke-width="0.25" stroke="rgb(0,0,0)" />
	<line x1="152.522" y1="892.381" x2="260.161" y2="970.585" stroke-width="0.25" stroke="rgb(0,0,0)" />
	<line x1="258.129" y1="970.585" x2="152.522" y2="893.857" stroke-width="0.25" stroke="rgb(0,0,0)" />
	<line x1="152.522" y1="895.333" x2="256.097" y2="970.585" stroke-width="0.25" stroke="rgb(0,0,0)" />
	<line x1="254.065" y1="970.585" x2="152.522" y2="896.809" stroke-width="0.25" stroke="rgb(0,0,0)" />
	<line x1="152.522" y1="898.286" x2="252.033" y2="970.585" stroke-width="0.25" stroke="rgb(0,0,0)" />
	<line x1="250.001" y1="970.585" x2="152.522" y2="899.762" stroke-width="0.25" stroke="rgb(0,0,0)" />
	<line x1="152.522" y1="901.238" x2="247.97" y2="970.585" stroke-width="0.25" stroke="rgb(0,0,0)" />
	<line x1="245.938" y1="970.585" x2="152.522" y2="902.714" stroke-width="0.25" stroke="rgb(0,0,0)" />
	<line x1="152.522" y1="904.191" x2="243.906" y2="970.585" stroke-width="0.25" stroke="rgb(0,0,0)" />
	<line x1="241.874" y1="970.585" x2="152.522" y2="905.667" stroke-width="0.25" stroke="rgb(0,0,0)" />
	<line x1="152.522" y1="907.143" x2="239.842" y2="970.585" stroke-width="0.25" stroke="rgb(0,0,0)" />
	<line x1="237.81" y1="970.585" x2="152.522" y2="908.619" stroke-width="0.25" stroke="rgb(0,0,0)" />
	<line x1="152.522" y1="910.096" x2="235.778" y2="970.585" stroke-width="0.25" stroke="rgb(0,0,0)" />
	<line x1="233.746" y1="970.585" x2="152.522" y2="911.572" stroke-width="0.25" stroke="rgb(0,0,0)" />
	<line x1="152.522" y1="913.048" x2="231.714" y2="970.585" stroke-width="0.25" stroke="rgb(0,0,0)" />
	<line x1="229.683" y1="970.585" x2="152.522" y2="914.524" stroke-width="0.25" stroke="rgb(0,0,0)" />
	<line x1="152.522" y1="916.001" x2="227.651" y2="970.585" stroke-width="0.25" stroke="rgb(0,0,0)" />
	<line x1="225.619" y1="970.585" x2="152.522" y2="917.477" stroke-width="0.25" stroke="rgb(0,0,0)" />
	<line x1="152.522" y1="918.953" x2="223.587" y2="970.585" stroke-width="0.25" stroke="rgb(0,0,0)" />
	<line x1="221.555" y1="970.585" x2="152.522" y2="920.429" stroke-width="0.25" stroke="rgb(0,0,0)" />
	<line x1="152.522" y1="921.906" x2="219.523" y2="970.585" stroke-width="0.25" stroke="rgb(0,0,0)" />
	<line x1="217.491" y1="970.585" x2="152.522" y2="923.382" stroke-width="0.25" stroke="rgb(0,0,0)" />
	<line x1="152.522" y1="924.858" x2="215.459" y2="970.585" stroke-width="0.25" stroke="rgb(0,0,0)" />
	<line x1="213.428" y1="970.585" x2="152.522" y2="926.334" stroke-width="0.25" stroke="rgb(0,0,0)" />
	<line x1="152.522" y1="927.811" x2="211.396" y2="970.585" stroke-width="0.25" stroke="rgb(0,0,0)" />
	<line x1="209.364" y1="970.585" x2="152.522" y2="929.287" stroke-width="0.25" stroke="rgb(0,0,0)" />
	<line x1="152.522" y1="930.763" x2="207.332" y2="970.585" stroke-width="0.25" stroke="rgb(0,0,0)" />
	<line x1="205.3" y1="970.585" x2="152.522" y2="932.239" stroke-width="0.25" stroke="rgb(0,0,0)" />
	<line x1="152.522" y1="933.716" x2="203.268" y2="970.585" stroke-width="0.25" stroke="rgb(0,0,0)" />
	<line x1="201.236" y1="970.585" x2="152.522" y2="935.192" stroke-width="0.25" stroke="rgb(0,0,0)" />
	<line x1="152.522" y1="936.668" x2="199.204" y2="970.585" stroke-width="0.25" stroke="rgb(0,0,0)" />
	<line x1="197.173" y1="970.585" x2="152.522" y2="938.144" stroke-width="0.25" stroke="rgb(0,0,0)" />
	<line x1="152.522" y1="939.621" x2="195.141" y2="970.585" stroke-width="0.25" stroke="rgb(0,0,0)" />
	<line x1="193.109" y1="970.585" x2="152.522" y2="941.097" stroke-width="0.25" stroke="rgb(0,0,0)" />
	<line x1="152.522" y1="942.573" x2="191.077" y2="970.585" stroke-width="0.25" stroke="rgb(0,0,0)" />
	<line x1="189.045" y1="970.585" x2="152.522" y2="944.049" stroke-width="0.25" stroke="rgb(0,0,0)" />
	<line x1="152.522" y1="945.526" x2="187.013" y2="970.585" stroke-width="0.25" stroke="rgb(0,0,0)" />
	<line x1="184.981" y1="970.585" x2="152.522" y2="947.002" stroke-width="0.25" stroke="rgb(0,0,0)" />
	<line x1="152.522" y1="948.478" x2="182.949" y2="970.585" stroke-width="0.25" stroke="rgb(0,0,0)" />
	<line x1="180.917" y1="970.585" x2="152.522" y2="949.954" stroke-width="0.25" stroke="rgb(0,0,0)" />
	<line x1="152.522" y1="951.431" x2="178.886" y2="970.585" stroke-width="0.25" stroke="rgb(0,0,0)" />
	<line x1="176.854" y1="970.585" x2="152.522" y2="952.907" stroke-width="0.25" stroke="rgb(0,0,0)" />
	<line x1="152.522" y1="954.383" x2="174.822" y2="970.585" stroke-width="0.25" stroke="rgb(0,0,0)" />
	<line x1="172.79" y1="970.585" x2="152.522" y2="955.859" stroke-width="0.25" stroke="rgb(0,0,0)" />
	<line x1="152.522" y1="957.336" x2="170.758" y2="970.585" stroke-width="0.25" stroke="rgb(0,0,0)" />
	<line x1="168.726" y1="970.585" x2="152.522" y2="958.812" stroke-width="0.25" stroke="rgb(0,0,0)" />
	<line x1="152.522" y1="960.288" x2="166.694" y2="970.585" stroke-width="0.25" stroke="rgb(0,0,0)" />
	<line x1="164.662" y1="970.585" x2="152.522" y2="961.764" stroke-width="0.25" stroke="rgb(0,0,0)" />
	<line x1="152.522" y1="963.241" x2="162.631" y2="970.585" stroke-width="0.25" stroke="rgb(0,0,0)" />
	<line x1="160.599" y1="970.585" x2="152.522" y2="964.717" stroke-width="0.25" stroke="rgb(0,0,0)" />
	<line x1="152.522" y1="966.193" x2="158.567" y2="970.585" stroke-width="0.25" stroke="rgb(0,0,0)" />
	<line x1="156.535" y1="970.585" x2="152.522" y2="967.669" stroke-width="0.25" stroke="rgb(0,0,0)" />
	<line x1="152.522" y1="969.146" x2="154.503" y2="970.585" stroke-width="0.25" stroke="rgb(0,0,0)" />
</svg>
