<?xml version="1.0" standalone="no" ?>
<!DOCTYPE svg PUBLIC "-//W3C//DTD SVG 1.1//EN" "http://www.w3.org/Graphics/SVG/1.1/DTD/svg11.dtd">
<svg width="2000px" height="2000px" xmlns="http://www.w3.org/2000/svg" version="1.1" >
	<line x1="348.389" y1="1617.15" x2="302.166" y2="1570.92" stroke-width="0.25" stroke="rgb(0,0,0)" />
	<line x1="302.166" y1="1570.92" x2="150.665" y2="1570.92" stroke-width="0.25" stroke="rgb(0,0,0)" />
	<line x1="150.665" y1="1570.92" x2="150.665" y2="1768.65" stroke-width="0.25" stroke="rgb(0,0,0)" />
	<line x1="150.665" y1="1768.65" x2="348.389" y2="1768.65" stroke-width="0.25" stroke="rgb(0,0,0)" />
	<line x1="348.389" y1="1768.65" x2="348.389" y2="1617.15" stroke-width="0.25" stroke="rgb(0,0,0)" />
	<line x1="293.174" y1="829.933" x2="150.864" y2="829.933" stroke-width="0.25" stroke="rgb(0,0,0)" />
	<line x1="150.864" y1="829.933" x2="150.864" y2="972.243" stroke-width="0.25" stroke="rgb(0,0,0)" />
	<line x1="150.864" y1="972.243" x2="293.174" y2="972.243" stroke-width="0.25" stroke="rgb(0,0,0)" />
	<line x1="293.174" y1="972.243" x2="293.174" y2="829.933" stroke-width="0.25" stroke="rgb(0,0,0)" />
	<line x1="292.312" y1="830.795" x2="151.726" y2="830.795" stroke-width="0.25" stroke="rgb(0,0,0)" />
	<line x1="151.726" y1="830.795" x2="151.726" y2="971.381" stroke-width="0.25" stroke="rgb(0,0,0)" />
	<line x1="151.726" y1="971.381" x2="292.312" y2="971.381" stroke-width="0.25" stroke="rgb(0,0,0)" />
	<line x1="292.312" y1="971.381" x2="292.312" y2="830.795" stroke-width="0.25" stroke="rgb(0,0,0)" />
	<line x1="150.665" y1="1578.12" x2="151.421" y2="1570.92" stroke-width="0.25" stroke="rgb(0,0,0)" />
	<line x1="152.355" y1="1570.92" x2="150.665" y2="1587.01" stroke-width="0.25" stroke="rgb(0,0,0)" />
	<line x1="150.665" y1="1595.9" x2="153.289" y2="1570.92" stroke-width="0.25" stroke="rgb(0,0,0)" />
	<line x1="154.223" y1="1570.92" x2="150.665" y2="1604.78" stroke-width="0.25" stroke="rgb(0,0,0)" />
	<line x1="150.665" y1="1613.67" x2="155.157" y2="1570.92" stroke-width="0.25" stroke="rgb(0,0,0)" />
	<line x1="156.091" y1="1570.92" x2="150.665" y2="1622.56" stroke-width="0.25" stroke="rgb(0,0,0)" />
	<line x1="150.665" y1="1631.44" x2="157.025" y2="1570.92" stroke-width="0.25" stroke="rgb(0,0,0)" />
	<line x1="157.959" y1="1570.92" x2="150.665" y2="1640.33" stroke-width="0.25" stroke="rgb(0,0,0)" />
	<line x1="150.665" y1="1649.21" x2="158.893" y2="1570.92" stroke-width="0.25" stroke="rgb(0,0,0)" />
	<line x1="159.827" y1="1570.92" x2="150.665" y2="1658.1" stroke-width="0.25" stroke="rgb(0,0,0)" />
	<line x1="150.665" y1="1666.99" x2="160.761" y2="1570.92" stroke-width="0.25" stroke="rgb(0,0,0)" />
	<line x1="161.695" y1="1570.92" x2="150.665" y2="1675.87" stroke-width="0.25" stroke="rgb(0,0,0)" />
	<line x1="150.665" y1="1684.76" x2="162.629" y2="1570.92" stroke-width="0.25" stroke="rgb(0,0,0)" />
	<line x1="163.563" y1="1570.92" x2="150.665" y2="1693.65" stroke-width="0.25" stroke="rgb(0,0,0)" />
	<line x1="150.665" y1="1702.53" x2="164.497" y2="1570.92" stroke-width="0.25" stroke="rgb(0,0,0)" />
	<line x1="165.431" y1="1570.92" x2="150.665" y2="1711.42" stroke-width="0.25" stroke="rgb(0,0,0)" />
	<line x1="150.665" y1="1720.31" x2="166.365" y2="1570.92" stroke-width="0.25" stroke="rgb(0,0,0)" />
	<line x1="167.299" y1="1570.92" x2="150.665" y2="1729.19" stroke-width="0.25" stroke="rgb(0,0,0)" />
	<line x1="150.665" y1="1738.08" x2="168.233" y2="1570.92" stroke-width="0.25" stroke="rgb(0,0,0)" />
	<line x1="169.167" y1="1570.92" x2="150.665" y2="1746.97" stroke-width="0.25" stroke="rgb(0,0,0)" />
	<line x1="150.665" y1="1755.85" x2="170.101" y2="1570.92" stroke-width="0.25" stroke="rgb(0,0,0)" />
	<line x1="171.036" y1="1570.92" x2="150.665" y2="1764.74" stroke-width="0.25" stroke="rgb(0,0,0)" />
	<line x1="151.188" y1="1768.65" x2="171.97" y2="1570.92" stroke-width="0.25" stroke="rgb(0,0,0)" />
	<line x1="172.904" y1="1570.92" x2="152.122" y2="1768.65" stroke-width="0.25" stroke="rgb(0,0,0)" />
	<line x1="153.056" y1="1768.65" x2="173.838" y2="1570.92" stroke-width="0.25" stroke="rgb(0,0,0)" />
	<line x1="174.772" y1="1570.92" x2="153.99" y2="1768.65" stroke-width="0.25" stroke="rgb(0,0,0)" />
	<line x1="154.924" y1="1768.65" x2="175.706" y2="1570.92" stroke-width="0.25" stroke="rgb(0,0,0)" />
	<line x1="176.64" y1="1570.92" x2="155.858" y2="1768.65" stroke-width="0.25" stroke="rgb(0,0,0)" />
	<line x1="156.792" y1="1768.65" x2="177.574" y2="1570.92" stroke-width="0.25" stroke="rgb(0,0,0)" />
	<line x1="178.508" y1="1570.92" x2="157.726" y2="1768.65" stroke-width="0.25" stroke="rgb(0,0,0)" />
	<line x1="158.66" y1="1768.65" x2="179.442" y2="1570.92" stroke-width="0.25" stroke="rgb(0,0,0)" />
	<line x1="180.376" y1="1570.92" x2="159.594" y2="1768.65" stroke-width="0.25" stroke="rgb(0,0,0)" />
	<line x1="160.528" y1="1768.65" x2="181.31" y2="1570.92" stroke-width="0.25" stroke="rgb(0,0,0)" />
	<line x1="182.244" y1="1570.92" x2="161.462" y2="1768.65" stroke-width="0.25" stroke="rgb(0,0,0)" />
	<line x1="162.396" y1="1768.65" x2="183.178" y2="1570.92" stroke-width="0.25" stroke="rgb(0,0,0)" />
	<line x1="184.112" y1="1570.92" x2="163.33" y2="1768.65" stroke-width="0.25" stroke="rgb(0,0,0)" />
	<line x1="164.264" y1="1768.65" x2="185.046" y2="1570.92" stroke-width="0.25" stroke="rgb(0,0,0)" />
	<line x1="185.98" y1="1570.92" x2="165.198" y2="1768.65" stroke-width="0.25" stroke="rgb(0,0,0)" />
	<line x1="166.132" y1="1768.65" x2="186.914" y2="1570.92" stroke-width="0.25" stroke="rgb(0,0,0)" />
	<line x1="187.848" y1="1570.92" x2="167.066" y2="1768.65" stroke-width="0.25" stroke="rgb(0,0,0)" />
	<line x1="168" y1="1768.65" x2="188.782" y2="1570.92" stroke-width="0.25" stroke="rgb(0,0,0)" />
	<line x1="189.716" y1="1570.92" x2="168.934" y2="1768.65" stroke-width="0.25" stroke="rgb(0,0,0)" />
	<line x1="169.868" y1="1768.65" x2="190.65" y2="1570.92" stroke-width="0.25" stroke="rgb(0,0,0)" />
	<line x1="191.584" y1="1570.92" x2="170.802" y2="1768.65" stroke-width="0.25" stroke="rgb(0,0,0)" />
	<line x1="171.736" y1="1768.65" x2="192.518" y2="1570.92" stroke-width="0.25" stroke="rgb(0,0,0)" />
	<line x1="193.452" y1="1570.92" x2="172.67" y2="1768.65" stroke-width="0.25" stroke="rgb(0,0,0)" />
	<line x1="173.604" y1="1768.65" x2="194.386" y2="1570.92" stroke-width="0.25" stroke="rgb(0,0,0)" />
	<line x1="195.32" y1="1570.92" x2="174.538" y2="1768.65" stroke-width="0.25" stroke="rgb(0,0,0)" />
	<line x1="175.472" y1="1768.65" x2="196.254" y2="1570.92" stroke-width="0.25" stroke="rgb(0,0,0)" />
	<line x1="197.188" y1="1570.92" x2="176.407" y2="1768.65" stroke-width="0.25" stroke="rgb(0,0,0)" />
	<line x1="177.341" y1="1768.65" x2="198.122" y2="1570.92" stroke-width="0.25" stroke="rgb(0,0,0)" />
	<line x1="199.056" y1="1570.92" x2="178.275" y2="1768.65" stroke-width="0.25" stroke="rgb(0,0,0)" />
	<line x1="179.209" y1="1768.65" x2="199.99" y2="1570.92" stroke-width="0.25" stroke="rgb(0,0,0)" />
	<line x1="200.924" y1="1570.92" x2="180.143" y2="1768.65" stroke-width="0.25" stroke="rgb(0,0,0)" />
	<line x1="181.077" y1="1768.65" x2="201.858" y2="1570.92" stroke-width="0.25" stroke="rgb(0,0,0)" />
	<line x1="202.792" y1="1570.92" x2="182.011" y2="1768.65" stroke-width="0.25" stroke="rgb(0,0,0)" />
	<line x1="182.945" y1="1768.65" x2="203.726" y2="1570.92" stroke-width="0.25" stroke="rgb(0,0,0)" />
	<line x1="204.66" y1="1570.92" x2="183.879" y2="1768.65" stroke-width="0.25" stroke="rgb(0,0,0)" />
	<line x1="184.813" y1="1768.65" x2="205.594" y2="1570.92" stroke-width="0.25" stroke="rgb(0,0,0)" />
	<line x1="206.528" y1="1570.92" x2="185.747" y2="1768.65" stroke-width="0.25" stroke="rgb(0,0,0)" />
	<line x1="186.681" y1="1768.65" x2="207.462" y2="1570.92" stroke-width="0.25" stroke="rgb(0,0,0)" />
	<line x1="208.396" y1="1570.92" x2="187.615" y2="1768.65" stroke-width="0.25" stroke="rgb(0,0,0)" />
	<line x1="188.549" y1="1768.65" x2="209.33" y2="1570.92" stroke-width="0.25" stroke="rgb(0,0,0)" />
	<line x1="210.265" y1="1570.92" x2="189.483" y2="1768.65" stroke-width="0.25" stroke="rgb(0,0,0)" />
	<line x1="190.417" y1="1768.65" x2="211.199" y2="1570.92" stroke-width="0.25" stroke="rgb(0,0,0)" />
	<line x1="212.133" y1="1570.92" x2="191.351" y2="1768.65" stroke-width="0.25" stroke="rgb(0,0,0)" />
	<line x1="192.285" y1="1768.65" x2="213.067" y2="1570.92" stroke-width="0.25" stroke="rgb(0,0,0)" />
	<line x1="214.001" y1="1570.92" x2="193.219" y2="1768.65" stroke-width="0.25" stroke="rgb(0,0,0)" />
	<line x1="194.153" y1="1768.65" x2="214.935" y2="1570.92" stroke-width="0.25" stroke="rgb(0,0,0)" />
	<line x1="215.869" y1="1570.92" x2="195.087" y2="1768.65" stroke-width="0.25" stroke="rgb(0,0,0)" />
	<line x1="196.021" y1="1768.65" x2="216.803" y2="1570.92" stroke-width="0.25" stroke="rgb(0,0,0)" />
	<line x1="217.737" y1="1570.92" x2="196.955" y2="1768.65" stroke-width="0.25" stroke="rgb(0,0,0)" />
	<line x1="197.889" y1="1768.65" x2="218.671" y2="1570.92" stroke-width="0.25" stroke="rgb(0,0,0)" />
	<line x1="219.605" y1="1570.92" x2="198.823" y2="1768.65" stroke-width="0.25" stroke="rgb(0,0,0)" />
	<line x1="199.757" y1="1768.65" x2="220.539" y2="1570.92" stroke-width="0.25" stroke="rgb(0,0,0)" />
	<line x1="221.473" y1="1570.92" x2="200.691" y2="1768.65" stroke-width="0.25" stroke="rgb(0,0,0)" />
	<line x1="201.625" y1="1768.65" x2="222.407" y2="1570.92" stroke-width="0.25" stroke="rgb(0,0,0)" />
	<line x1="223.341" y1="1570.92" x2="202.559" y2="1768.65" stroke-width="0.25" stroke="rgb(0,0,0)" />
	<line x1="203.493" y1="1768.65" x2="224.275" y2="1570.92" stroke-width="0.25" stroke="rgb(0,0,0)" />
	<line x1="225.209" y1="1570.92" x2="204.427" y2="1768.65" stroke-width="0.25" stroke="rgb(0,0,0)" />
	<line x1="205.361" y1="1768.65" x2="226.143" y2="1570.92" stroke-width="0.25" stroke="rgb(0,0,0)" />
	<line x1="227.077" y1="1570.92" x2="206.295" y2="1768.65" stroke-width="0.25" stroke="rgb(0,0,0)" />
	<line x1="207.229" y1="1768.65" x2="228.011" y2="1570.92" stroke-width="0.25" stroke="rgb(0,0,0)" />
	<line x1="228.945" y1="1570.92" x2="208.163" y2="1768.65" stroke-width="0.25" stroke="rgb(0,0,0)" />
	<line x1="209.097" y1="1768.65" x2="229.879" y2="1570.92" stroke-width="0.25" stroke="rgb(0,0,0)" />
	<line x1="230.813" y1="1570.92" x2="210.031" y2="1768.65" stroke-width="0.25" stroke="rgb(0,0,0)" />
	<line x1="210.965" y1="1768.65" x2="231.747" y2="1570.92" stroke-width="0.25" stroke="rgb(0,0,0)" />
	<line x1="232.681" y1="1570.92" x2="211.899" y2="1768.65" stroke-width="0.25" stroke="rgb(0,0,0)" />
	<line x1="212.833" y1="1768.65" x2="233.615" y2="1570.92" stroke-width="0.25" stroke="rgb(0,0,0)" />
	<line x1="234.549" y1="1570.92" x2="213.767" y2="1768.65" stroke-width="0.25" stroke="rgb(0,0,0)" />
	<line x1="214.701" y1="1768.65" x2="235.483" y2="1570.92" stroke-width="0.25" stroke="rgb(0,0,0)" />
	<line x1="236.417" y1="1570.92" x2="215.635" y2="1768.65" stroke-width="0.25" stroke="rgb(0,0,0)" />
	<line x1="216.57" y1="1768.65" x2="237.351" y2="1570.92" stroke-width="0.25" stroke="rgb(0,0,0)" />
	<line x1="238.285" y1="1570.92" x2="217.504" y2="1768.65" stroke-width="0.25" stroke="rgb(0,0,0)" />
	<line x1="218.438" y1="1768.65" x2="239.219" y2="1570.92" stroke-width="0.25" stroke="rgb(0,0,0)" />
	<line x1="240.153" y1="1570.92" x2="219.372" y2="1768.65" stroke-width="0.25" stroke="rgb(0,0,0)" />
	<line x1="220.306" y1="1768.65" x2="241.087" y2="1570.92" stroke-width="0.25" stroke="rgb(0,0,0)" />
	<line x1="242.021" y1="1570.92" x2="221.24" y2="1768.65" stroke-width="0.25" stroke="rgb(0,0,0)" />
	<line x1="222.174" y1="1768.65" x2="242.955" y2="1570.92" stroke-width="0.25" stroke="rgb(0,0,0)" />
	<line x1="243.889" y1="1570.92" x2="223.108" y2="1768.65" stroke-width="0.25" stroke="rgb(0,0,0)" />
	<line x1="224.042" y1="1768.65" x2="244.823" y2="1570.92" stroke-width="0.25" stroke="rgb(0,0,0)" />
	<line x1="245.757" y1="1570.92" x2="224.976" y2="1768.65" stroke-width="0.25" stroke="rgb(0,0,0)" />
	<line x1="225.91" y1="1768.65" x2="246.691" y2="1570.92" stroke-width="0.25" stroke="rgb(0,0,0)" />
	<line x1="247.625" y1="1570.92" x2="226.844" y2="1768.65" stroke-width="0.25" stroke="rgb(0,0,0)" />
	<line x1="227.778" y1="1768.65" x2="248.559" y2="1570.92" stroke-width="0.25" stroke="rgb(0,0,0)" />
	<line x1="249.494" y1="1570.92" x2="228.712" y2="1768.65" stroke-width="0.25" stroke="rgb(0,0,0)" />
	<line x1="229.646" y1="1768.65" x2="250.428" y2="1570.92" stroke-width="0.25" stroke="rgb(0,0,0)" />
	<line x1="251.362" y1="1570.92" x2="230.58" y2="1768.65" stroke-width="0.25" stroke="rgb(0,0,0)" />
	<line x1="231.514" y1="1768.65" x2="252.296" y2="1570.92" stroke-width="0.25" stroke="rgb(0,0,0)" />
	<line x1="253.23" y1="1570.92" x2="232.448" y2="1768.65" stroke-width="0.25" stroke="rgb(0,0,0)" />
	<line x1="233.382" y1="1768.65" x2="254.164" y2="1570.92" stroke-width="0.25" stroke="rgb(0,0,0)" />
	<line x1="255.098" y1="1570.92" x2="234.316" y2="1768.65" stroke-width="0.25" stroke="rgb(0,0,0)" />
	<line x1="235.25" y1="1768.65" x2="256.032" y2="1570.92" stroke-width="0.25" stroke="rgb(0,0,0)" />
	<line x1="256.966" y1="1570.92" x2="236.184" y2="1768.65" stroke-width="0.25" stroke="rgb(0,0,0)" />
	<line x1="237.118" y1="1768.65" x2="257.9" y2="1570.92" stroke-width="0.25" stroke="rgb(0,0,0)" />
	<line x1="258.834" y1="1570.92" x2="238.052" y2="1768.65" stroke-width="0.25" stroke="rgb(0,0,0)" />
	<line x1="238.986" y1="1768.65" x2="259.768" y2="1570.92" stroke-width="0.25" stroke="rgb(0,0,0)" />
	<line x1="260.702" y1="1570.92" x2="239.92" y2="1768.65" stroke-width="0.25" stroke="rgb(0,0,0)" />
	<line x1="240.854" y1="1768.65" x2="261.636" y2="1570.92" stroke-width="0.25" stroke="rgb(0,0,0)" />
	<line x1="262.57" y1="1570.92" x2="241.788" y2="1768.65" stroke-width="0.25" stroke="rgb(0,0,0)" />
	<line x1="242.722" y1="1768.65" x2="263.504" y2="1570.92" stroke-width="0.25" stroke="rgb(0,0,0)" />
	<line x1="264.438" y1="1570.92" x2="243.656" y2="1768.65" stroke-width="0.25" stroke="rgb(0,0,0)" />
	<line x1="244.59" y1="1768.65" x2="265.372" y2="1570.92" stroke-width="0.25" stroke="rgb(0,0,0)" />
	<line x1="266.306" y1="1570.92" x2="245.524" y2="1768.65" stroke-width="0.25" stroke="rgb(0,0,0)" />
	<line x1="246.458" y1="1768.65" x2="267.24" y2="1570.92" stroke-width="0.25" stroke="rgb(0,0,0)" />
	<line x1="268.174" y1="1570.92" x2="247.392" y2="1768.65" stroke-width="0.25" stroke="rgb(0,0,0)" />
	<line x1="248.326" y1="1768.65" x2="269.108" y2="1570.92" stroke-width="0.25" stroke="rgb(0,0,0)" />
	<line x1="270.042" y1="1570.92" x2="249.26" y2="1768.65" stroke-width="0.25" stroke="rgb(0,0,0)" />
	<line x1="250.194" y1="1768.65" x2="270.976" y2="1570.92" stroke-width="0.25" stroke="rgb(0,0,0)" />
	<line x1="271.91" y1="1570.92" x2="251.128" y2="1768.65" stroke-width="0.25" stroke="rgb(0,0,0)" />
	<line x1="252.062" y1="1768.65" x2="272.844" y2="1570.92" stroke-width="0.25" stroke="rgb(0,0,0)" />
	<line x1="273.778" y1="1570.92" x2="252.996" y2="1768.65" stroke-width="0.25" stroke="rgb(0,0,0)" />
	<line x1="253.93" y1="1768.65" x2="274.712" y2="1570.92" stroke-width="0.25" stroke="rgb(0,0,0)" />
	<line x1="275.646" y1="1570.92" x2="254.864" y2="1768.65" stroke-width="0.25" stroke="rgb(0,0,0)" />
	<line x1="255.799" y1="1768.65" x2="276.58" y2="1570.92" stroke-width="0.25" stroke="rgb(0,0,0)" />
	<line x1="277.514" y1="1570.92" x2="256.733" y2="1768.65" stroke-width="0.25" stroke="rgb(0,0,0)" />
	<line x1="257.667" y1="1768.65" x2="278.448" y2="1570.92" stroke-width="0.25" stroke="rgb(0,0,0)" />
	<line x1="279.382" y1="1570.92" x2="258.601" y2="1768.65" stroke-width="0.25" stroke="rgb(0,0,0)" />
	<line x1="259.535" y1="1768.65" x2="280.316" y2="1570.92" stroke-width="0.25" stroke="rgb(0,0,0)" />
	<line x1="281.25" y1="1570.92" x2="260.469" y2="1768.65" stroke-width="0.25" stroke="rgb(0,0,0)" />
	<line x1="261.403" y1="1768.65" x2="282.184" y2="1570.92" stroke-width="0.25" stroke="rgb(0,0,0)" />
	<line x1="283.118" y1="1570.92" x2="262.337" y2="1768.65" stroke-width="0.25" stroke="rgb(0,0,0)" />
	<line x1="263.271" y1="1768.65" x2="284.052" y2="1570.92" stroke-width="0.25" stroke="rgb(0,0,0)" />
	<line x1="284.986" y1="1570.92" x2="264.205" y2="1768.65" stroke-width="0.25" stroke="rgb(0,0,0)" />
	<line x1="265.139" y1="1768.65" x2="285.92" y2="1570.92" stroke-width="0.25" stroke="rgb(0,0,0)" />
	<line x1="286.854" y1="1570.92" x2="266.073" y2="1768.65" stroke-width="0.25" stroke="rgb(0,0,0)" />
	<line x1="267.007" y1="1768.65" x2="287.788" y2="1570.92" stroke-width="0.25" stroke="rgb(0,0,0)" />
	<line x1="288.723" y1="1570.92" x2="267.941" y2="1768.65" stroke-width="0.25" stroke="rgb(0,0,0)" />
	<line x1="268.875" y1="1768.65" x2="289.657" y2="1570.92" stroke-width="0.25" stroke="rgb(0,0,0)" />
	<line x1="290.591" y1="1570.92" x2="269.809" y2="1768.65" stroke-width="0.25" stroke="rgb(0,0,0)" />
	<line x1="270.743" y1="1768.65" x2="291.525" y2="1570.92" stroke-width="0.25" stroke="rgb(0,0,0)" />
	<line x1="292.459" y1="1570.92" x2="271.677" y2="1768.65" stroke-width="0.25" stroke="rgb(0,0,0)" />
	<line x1="272.611" y1="1768.65" x2="293.393" y2="1570.92" stroke-width="0.25" stroke="rgb(0,0,0)" />
	<line x1="294.327" y1="1570.92" x2="273.545" y2="1768.65" stroke-width="0.25" stroke="rgb(0,0,0)" />
	<line x1="274.479" y1="1768.65" x2="295.261" y2="1570.92" stroke-width="0.25" stroke="rgb(0,0,0)" />
	<line x1="296.195" y1="1570.92" x2="275.413" y2="1768.65" stroke-width="0.25" stroke="rgb(0,0,0)" />
	<line x1="276.347" y1="1768.65" x2="297.129" y2="1570.92" stroke-width="0.25" stroke="rgb(0,0,0)" />
	<line x1="298.063" y1="1570.92" x2="277.281" y2="1768.65" stroke-width="0.25" stroke="rgb(0,0,0)" />
	<line x1="278.215" y1="1768.65" x2="298.997" y2="1570.92" stroke-width="0.25" stroke="rgb(0,0,0)" />
	<line x1="299.931" y1="1570.92" x2="279.149" y2="1768.65" stroke-width="0.25" stroke="rgb(0,0,0)" />
	<line x1="280.083" y1="1768.65" x2="300.865" y2="1570.92" stroke-width="0.25" stroke="rgb(0,0,0)" />
	<line x1="301.799" y1="1570.92" x2="281.017" y2="1768.65" stroke-width="0.25" stroke="rgb(0,0,0)" />
	<line x1="281.951" y1="1768.65" x2="302.679" y2="1571.44" stroke-width="0.25" stroke="rgb(0,0,0)" />
	<line x1="303.524" y1="1572.28" x2="282.885" y2="1768.65" stroke-width="0.25" stroke="rgb(0,0,0)" />
	<line x1="283.819" y1="1768.65" x2="304.369" y2="1573.13" stroke-width="0.25" stroke="rgb(0,0,0)" />
	<line x1="305.215" y1="1573.97" x2="284.753" y2="1768.65" stroke-width="0.25" stroke="rgb(0,0,0)" />
	<line x1="285.687" y1="1768.65" x2="306.06" y2="1574.82" stroke-width="0.25" stroke="rgb(0,0,0)" />
	<line x1="306.905" y1="1575.66" x2="286.621" y2="1768.65" stroke-width="0.25" stroke="rgb(0,0,0)" />
	<line x1="287.555" y1="1768.65" x2="307.75" y2="1576.51" stroke-width="0.25" stroke="rgb(0,0,0)" />
	<line x1="308.595" y1="1577.35" x2="288.489" y2="1768.65" stroke-width="0.25" stroke="rgb(0,0,0)" />
	<line x1="289.423" y1="1768.65" x2="309.441" y2="1578.2" stroke-width="0.25" stroke="rgb(0,0,0)" />
	<line x1="310.286" y1="1579.04" x2="290.357" y2="1768.65" stroke-width="0.25" stroke="rgb(0,0,0)" />
	<line x1="291.291" y1="1768.65" x2="311.131" y2="1579.89" stroke-width="0.25" stroke="rgb(0,0,0)" />
	<line x1="311.976" y1="1580.73" x2="292.225" y2="1768.65" stroke-width="0.25" stroke="rgb(0,0,0)" />
	<line x1="293.159" y1="1768.65" x2="312.821" y2="1581.58" stroke-width="0.25" stroke="rgb(0,0,0)" />
	<line x1="313.666" y1="1582.42" x2="294.093" y2="1768.65" stroke-width="0.25" stroke="rgb(0,0,0)" />
	<line x1="295.028" y1="1768.65" x2="314.512" y2="1583.27" stroke-width="0.25" stroke="rgb(0,0,0)" />
	<line x1="315.357" y1="1584.11" x2="295.962" y2="1768.65" stroke-width="0.25" stroke="rgb(0,0,0)" />
	<line x1="296.896" y1="1768.65" x2="316.202" y2="1584.96" stroke-width="0.25" stroke="rgb(0,0,0)" />
	<line x1="317.047" y1="1585.8" x2="297.83" y2="1768.65" stroke-width="0.25" stroke="rgb(0,0,0)" />
	<line x1="298.764" y1="1768.65" x2="317.892" y2="1586.65" stroke-width="0.25" stroke="rgb(0,0,0)" />
	<line x1="318.738" y1="1587.5" x2="299.698" y2="1768.65" stroke-width="0.25" stroke="rgb(0,0,0)" />
	<line x1="300.632" y1="1768.65" x2="319.583" y2="1588.34" stroke-width="0.25" stroke="rgb(0,0,0)" />
	<line x1="320.428" y1="1589.19" x2="301.566" y2="1768.65" stroke-width="0.25" stroke="rgb(0,0,0)" />
	<line x1="302.5" y1="1768.65" x2="321.273" y2="1590.03" stroke-width="0.25" stroke="rgb(0,0,0)" />
	<line x1="322.118" y1="1590.88" x2="303.434" y2="1768.65" stroke-width="0.25" stroke="rgb(0,0,0)" />
	<line x1="304.368" y1="1768.65" x2="322.964" y2="1591.72" stroke-width="0.25" stroke="rgb(0,0,0)" />
	<line x1="323.809" y1="1592.57" x2="305.302" y2="1768.65" stroke-width="0.25" stroke="rgb(0,0,0)" />
	<line x1="306.236" y1="1768.65" x2="324.654" y2="1593.41" stroke-width="0.25" stroke="rgb(0,0,0)" />
	<line x1="325.499" y1="1594.26" x2="307.17" y2="1768.65" stroke-width="0.25" stroke="rgb(0,0,0)" />
	<line x1="308.104" y1="1768.65" x2="326.344" y2="1595.1" stroke-width="0.25" stroke="rgb(0,0,0)" />
	<line x1="327.19" y1="1595.95" x2="309.038" y2="1768.65" stroke-width="0.25" stroke="rgb(0,0,0)" />
	<line x1="309.972" y1="1768.65" x2="328.035" y2="1596.79" stroke-width="0.25" stroke="rgb(0,0,0)" />
	<line x1="328.88" y1="1597.64" x2="310.906" y2="1768.65" stroke-width="0.25" stroke="rgb(0,0,0)" />
	<line x1="311.84" y1="1768.65" x2="329.725" y2="1598.48" stroke-width="0.25" stroke="rgb(0,0,0)" />
	<line x1="330.57" y1="1599.33" x2="312.774" y2="1768.65" stroke-width="0.25" stroke="rgb(0,0,0)" />
	<line x1="313.708" y1="1768.65" x2="331.415" y2="1600.17" stroke-width="0.25" stroke="rgb(0,0,0)" />
	<line x1="332.261" y1="1601.02" x2="314.642" y2="1768.65" stroke-width="0.25" stroke="rgb(0,0,0)" />
	<line x1="315.576" y1="1768.65" x2="333.106" y2="1601.86" stroke-width="0.25" stroke="rgb(0,0,0)" />
	<line x1="333.951" y1="1602.71" x2="316.51" y2="1768.65" stroke-width="0.25" stroke="rgb(0,0,0)" />
	<line x1="317.444" y1="1768.65" x2="334.796" y2="1603.55" stroke-width="0.25" stroke="rgb(0,0,0)" />
	<line x1="335.641" y1="1604.4" x2="318.378" y2="1768.65" stroke-width="0.25" stroke="rgb(0,0,0)" />
	<line x1="319.312" y1="1768.65" x2="336.487" y2="1605.24" stroke-width="0.25" stroke="rgb(0,0,0)" />
	<line x1="337.332" y1="1606.09" x2="320.246" y2="1768.65" stroke-width="0.25" stroke="rgb(0,0,0)" />
	<line x1="321.18" y1="1768.65" x2="338.177" y2="1606.93" stroke-width="0.25" stroke="rgb(0,0,0)" />
	<line x1="339.022" y1="1607.78" x2="322.114" y2="1768.65" stroke-width="0.25" stroke="rgb(0,0,0)" />
	<line x1="323.048" y1="1768.65" x2="339.867" y2="1608.63" stroke-width="0.25" stroke="rgb(0,0,0)" />
	<line x1="340.713" y1="1609.47" x2="323.982" y2="1768.65" stroke-width="0.25" stroke="rgb(0,0,0)" />
	<line x1="324.916" y1="1768.65" x2="341.558" y2="1610.32" stroke-width="0.25" stroke="rgb(0,0,0)" />
	<line x1="342.403" y1="1611.16" x2="325.85" y2="1768.65" stroke-width="0.25" stroke="rgb(0,0,0)" />
	<line x1="326.784" y1="1768.65" x2="343.248" y2="1612.01" stroke-width="0.25" stroke="rgb(0,0,0)" />
	<line x1="344.093" y1="1612.85" x2="327.718" y2="1768.65" stroke-width="0.25" stroke="rgb(0,0,0)" />
	<line x1="328.652" y1="1768.65" x2="344.939" y2="1613.7" stroke-width="0.25" stroke="rgb(0,0,0)" />
	<line x1="345.784" y1="1614.54" x2="329.586" y2="1768.65" stroke-width="0.25" stroke="rgb(0,0,0)" />
	<line x1="330.52" y1="1768.65" x2="346.629" y2="1615.39" stroke-width="0.25" stroke="rgb(0,0,0)" />
	<line x1="347.474" y1="1616.23" x2="331.454" y2="1768.65" stroke-width="0.25" stroke="rgb(0,0,0)" />
	<line x1="332.388" y1="1768.65" x2="348.319" y2="1617.08" stroke-width="0.25" stroke="rgb(0,0,0)" />
	<line x1="348.389" y1="1625.3" x2="333.322" y2="1768.65" stroke-width="0.25" stroke="rgb(0,0,0)" />
	<line x1="334.257" y1="1768.65" x2="348.389" y2="1634.19" stroke-width="0.25" stroke="rgb(0,0,0)" />
	<line x1="348.389" y1="1643.07" x2="335.191" y2="1768.65" stroke-width="0.25" stroke="rgb(0,0,0)" />
	<line x1="336.125" y1="1768.65" x2="348.389" y2="1651.96" stroke-width="0.25" stroke="rgb(0,0,0)" />
	<line x1="348.389" y1="1660.85" x2="337.059" y2="1768.65" stroke-width="0.25" stroke="rgb(0,0,0)" />
	<line x1="337.993" y1="1768.65" x2="348.389" y2="1669.73" stroke-width="0.25" stroke="rgb(0,0,0)" />
	<line x1="348.389" y1="1678.62" x2="338.927" y2="1768.65" stroke-width="0.25" stroke="rgb(0,0,0)" />
	<line x1="339.861" y1="1768.65" x2="348.389" y2="1687.51" stroke-width="0.25" stroke="rgb(0,0,0)" />
	<line x1="348.389" y1="1696.39" x2="340.795" y2="1768.65" stroke-width="0.25" stroke="rgb(0,0,0)" />
	<line x1="341.729" y1="1768.65" x2="348.389" y2="1705.28" stroke-width="0.25" stroke="rgb(0,0,0)" />
	<line x1="348.389" y1="1714.17" x2="342.663" y2="1768.65" stroke-width="0.25" stroke="rgb(0,0,0)" />
	<line x1="343.597" y1="1768.65" x2="348.389" y2="1723.05" stroke-width="0.25" stroke="rgb(0,0,0)" />
	<line x1="348.389" y1="1731.94" x2="344.531" y2="1768.65" stroke-width="0.25" stroke="rgb(0,0,0)" />
	<line x1="345.465" y1="1768.65" x2="348.389" y2="1740.83" stroke-width="0.25" stroke="rgb(0,0,0)" />
	<line x1="348.389" y1="1749.71" x2="346.399" y2="1768.65" stroke-width="0.25" stroke="rgb(0,0,0)" />
	<line x1="347.333" y1="1768.65" x2="348.389" y2="1758.6" stroke-width="0.25" stroke="rgb(0,0,0)" />
	<line x1="348.389" y1="1767.49" x2="348.267" y2="1768.65" stroke-width="0.25" stroke="rgb(0,0,0)" />
	<line x1="152.522" y1="839.358" x2="153.339" y2="831.592" stroke-width="0.25" stroke="rgb(0,0,0)" />
	<line x1="154.54" y1="831.592" x2="152.522" y2="850.784" stroke-width="0.25" stroke="rgb(0,0,0)" />
	<line x1="152.522" y1="862.21" x2="155.74" y2="831.592" stroke-width="0.25" stroke="rgb(0,0,0)" />
	<line x1="156.941" y1="831.592" x2="152.522" y2="873.635" stroke-width="0.25" stroke="rgb(0,0,0)" />
	<line x1="152.522" y1="885.061" x2="158.142" y2="831.592" stroke-width="0.25" stroke="rgb(0,0,0)" />
	<line x1="159.343" y1="831.592" x2="152.522" y2="896.487" stroke-width="0.25" stroke="rgb(0,0,0)" />
	<line x1="152.522" y1="907.912" x2="160.544" y2="831.592" stroke-width="0.25" stroke="rgb(0,0,0)" />
	<line x1="161.745" y1="831.592" x2="152.522" y2="919.338" stroke-width="0.25" stroke="rgb(0,0,0)" />
	<line x1="152.522" y1="930.764" x2="162.946" y2="831.592" stroke-width="0.25" stroke="rgb(0,0,0)" />
	<line x1="164.147" y1="831.592" x2="152.522" y2="942.19" stroke-width="0.25" stroke="rgb(0,0,0)" />
	<line x1="152.522" y1="953.615" x2="165.348" y2="831.592" stroke-width="0.25" stroke="rgb(0,0,0)" />
	<line x1="166.548" y1="831.592" x2="152.522" y2="965.041" stroke-width="0.25" stroke="rgb(0,0,0)" />
	<line x1="153.141" y1="970.585" x2="167.749" y2="831.592" stroke-width="0.25" stroke="rgb(0,0,0)" />
	<line x1="168.95" y1="831.592" x2="154.341" y2="970.585" stroke-width="0.25" stroke="rgb(0,0,0)" />
	<line x1="155.542" y1="970.585" x2="170.151" y2="831.592" stroke-width="0.25" stroke="rgb(0,0,0)" />
	<line x1="171.352" y1="831.592" x2="156.743" y2="970.585" stroke-width="0.25" stroke="rgb(0,0,0)" />
	<line x1="157.944" y1="970.585" x2="172.553" y2="831.592" stroke-width="0.25" stroke="rgb(0,0,0)" />
	<line x1="173.754" y1="831.592" x2="159.145" y2="970.585" stroke-width="0.25" stroke="rgb(0,0,0)" />
	<line x1="160.346" y1="970.585" x2="174.955" y2="831.592" stroke-width="0.25" stroke="rgb(0,0,0)" />
	<line x1="176.156" y1="831.592" x2="161.547" y2="970.585" stroke-width="0.25" stroke="rgb(0,0,0)" />
	<line x1="162.748" y1="970.585" x2="177.356" y2="831.592" stroke-width="0.25" stroke="rgb(0,0,0)" />
	<line x1="178.557" y1="831.592" x2="163.949" y2="970.585" stroke-width="0.25" stroke="rgb(0,0,0)" />
	<line x1="165.149" y1="970.585" x2="179.758" y2="831.592" stroke-width="0.25" stroke="rgb(0,0,0)" />
	<line x1="180.959" y1="831.592" x2="166.35" y2="970.585" stroke-width="0.25" stroke="rgb(0,0,0)" />
	<line x1="167.551" y1="970.585" x2="182.16" y2="831.592" stroke-width="0.25" stroke="rgb(0,0,0)" />
	<line x1="183.361" y1="831.592" x2="168.752" y2="970.585" stroke-width="0.25" stroke="rgb(0,0,0)" />
	<line x1="169.953" y1="970.585" x2="184.562" y2="831.592" stroke-width="0.25" stroke="rgb(0,0,0)" />
	<line x1="185.763" y1="831.592" x2="171.154" y2="970.585" stroke-width="0.25" stroke="rgb(0,0,0)" />
	<line x1="172.355" y1="970.585" x2="186.964" y2="831.592" stroke-width="0.25" stroke="rgb(0,0,0)" />
	<line x1="188.164" y1="831.592" x2="173.556" y2="970.585" stroke-width="0.25" stroke="rgb(0,0,0)" />
	<line x1="174.757" y1="970.585" x2="189.365" y2="831.592" stroke-width="0.25" stroke="rgb(0,0,0)" />
	<line x1="190.566" y1="831.592" x2="175.957" y2="970.585" stroke-width="0.25" stroke="rgb(0,0,0)" />
	<line x1="177.158" y1="970.585" x2="191.767" y2="831.592" stroke-width="0.25" stroke="rgb(0,0,0)" />
	<line x1="192.968" y1="831.592" x2="178.359" y2="970.585" stroke-width="0.25" stroke="rgb(0,0,0)" />
	<line x1="179.56" y1="970.585" x2="194.169" y2="831.592" stroke-width="0.25" stroke="rgb(0,0,0)" />
	<line x1="195.37" y1="831.592" x2="180.761" y2="970.585" stroke-width="0.25" stroke="rgb(0,0,0)" />
	<line x1="181.962" y1="970.585" x2="196.571" y2="831.592" stroke-width="0.25" stroke="rgb(0,0,0)" />
	<line x1="197.771" y1="831.592" x2="183.163" y2="970.585" stroke-width="0.25" stroke="rgb(0,0,0)" />
	<line x1="184.364" y1="970.585" x2="198.972" y2="831.592" stroke-width="0.25" stroke="rgb(0,0,0)" />
	<line x1="200.173" y1="831.592" x2="185.564" y2="970.585" stroke-width="0.25" stroke="rgb(0,0,0)" />
	<line x1="186.765" y1="970.585" x2="201.374" y2="831.592" stroke-width="0.25" stroke="rgb(0,0,0)" />
	<line x1="202.575" y1="831.592" x2="187.966" y2="970.585" stroke-width="0.25" stroke="rgb(0,0,0)" />
	<line x1="189.167" y1="970.585" x2="203.776" y2="831.592" stroke-width="0.25" stroke="rgb(0,0,0)" />
	<line x1="204.977" y1="831.592" x2="190.368" y2="970.585" stroke-width="0.25" stroke="rgb(0,0,0)" />
	<line x1="191.569" y1="970.585" x2="206.178" y2="831.592" stroke-width="0.25" stroke="rgb(0,0,0)" />
	<line x1="207.379" y1="831.592" x2="192.77" y2="970.585" stroke-width="0.25" stroke="rgb(0,0,0)" />
	<line x1="193.971" y1="970.585" x2="208.579" y2="831.592" stroke-width="0.25" stroke="rgb(0,0,0)" />
	<line x1="209.78" y1="831.592" x2="195.172" y2="970.585" stroke-width="0.25" stroke="rgb(0,0,0)" />
	<line x1="196.372" y1="970.585" x2="210.981" y2="831.592" stroke-width="0.25" stroke="rgb(0,0,0)" />
	<line x1="212.182" y1="831.592" x2="197.573" y2="970.585" stroke-width="0.25" stroke="rgb(0,0,0)" />
	<line x1="198.774" y1="970.585" x2="213.383" y2="831.592" stroke-width="0.25" stroke="rgb(0,0,0)" />
	<line x1="214.584" y1="831.592" x2="199.975" y2="970.585" stroke-width="0.25" stroke="rgb(0,0,0)" />
	<line x1="201.176" y1="970.585" x2="215.785" y2="831.592" stroke-width="0.25" stroke="rgb(0,0,0)" />
	<line x1="216.986" y1="831.592" x2="202.377" y2="970.585" stroke-width="0.25" stroke="rgb(0,0,0)" />
	<line x1="203.578" y1="970.585" x2="218.187" y2="831.592" stroke-width="0.25" stroke="rgb(0,0,0)" />
	<line x1="219.387" y1="831.592" x2="204.779" y2="970.585" stroke-width="0.25" stroke="rgb(0,0,0)" />
	<line x1="205.98" y1="970.585" x2="220.588" y2="831.592" stroke-width="0.25" stroke="rgb(0,0,0)" />
	<line x1="221.789" y1="831.592" x2="207.18" y2="970.585" stroke-width="0.25" stroke="rgb(0,0,0)" />
	<line x1="208.381" y1="970.585" x2="222.99" y2="831.592" stroke-width="0.25" stroke="rgb(0,0,0)" />
	<line x1="224.191" y1="831.592" x2="209.582" y2="970.585" stroke-width="0.25" stroke="rgb(0,0,0)" />
	<line x1="210.783" y1="970.585" x2="225.392" y2="831.592" stroke-width="0.25" stroke="rgb(0,0,0)" />
	<line x1="226.593" y1="831.592" x2="211.984" y2="970.585" stroke-width="0.25" stroke="rgb(0,0,0)" />
	<line x1="213.185" y1="970.585" x2="227.794" y2="831.592" stroke-width="0.25" stroke="rgb(0,0,0)" />
	<line x1="228.995" y1="831.592" x2="214.386" y2="970.585" stroke-width="0.25" stroke="rgb(0,0,0)" />
	<line x1="215.587" y1="970.585" x2="230.195" y2="831.592" stroke-width="0.25" stroke="rgb(0,0,0)" />
	<line x1="231.396" y1="831.592" x2="216.788" y2="970.585" stroke-width="0.25" stroke="rgb(0,0,0)" />
	<line x1="217.988" y1="970.585" x2="232.597" y2="831.592" stroke-width="0.25" stroke="rgb(0,0,0)" />
	<line x1="233.798" y1="831.592" x2="219.189" y2="970.585" stroke-width="0.25" stroke="rgb(0,0,0)" />
	<line x1="220.39" y1="970.585" x2="234.999" y2="831.592" stroke-width="0.25" stroke="rgb(0,0,0)" />
	<line x1="236.2" y1="831.592" x2="221.591" y2="970.585" stroke-width="0.25" stroke="rgb(0,0,0)" />
	<line x1="222.792" y1="970.585" x2="237.401" y2="831.592" stroke-width="0.25" stroke="rgb(0,0,0)" />
	<line x1="238.602" y1="831.592" x2="223.993" y2="970.585" stroke-width="0.25" stroke="rgb(0,0,0)" />
	<line x1="225.194" y1="970.585" x2="239.803" y2="831.592" stroke-width="0.25" stroke="rgb(0,0,0)" />
	<line x1="241.003" y1="831.592" x2="226.395" y2="970.585" stroke-width="0.25" stroke="rgb(0,0,0)" />
	<line x1="227.596" y1="970.585" x2="242.204" y2="831.592" stroke-width="0.25" stroke="rgb(0,0,0)" />
	<line x1="243.405" y1="831.592" x2="228.796" y2="970.585" stroke-width="0.25" stroke="rgb(0,0,0)" />
	<line x1="229.997" y1="970.585" x2="244.606" y2="831.592" stroke-width="0.25" stroke="rgb(0,0,0)" />
	<line x1="245.807" y1="831.592" x2="231.198" y2="970.585" stroke-width="0.25" stroke="rgb(0,0,0)" />
	<line x1="232.399" y1="970.585" x2="247.008" y2="831.592" stroke-width="0.25" stroke="rgb(0,0,0)" />
	<line x1="248.209" y1="831.592" x2="233.6" y2="970.585" stroke-width="0.25" stroke="rgb(0,0,0)" />
	<line x1="234.801" y1="970.585" x2="249.41" y2="831.592" stroke-width="0.25" stroke="rgb(0,0,0)" />
	<line x1="250.611" y1="831.592" x2="236.002" y2="970.585" stroke-width="0.25" stroke="rgb(0,0,0)" />
	<line x1="237.203" y1="970.585" x2="251.811" y2="831.592" stroke-width="0.25" stroke="rgb(0,0,0)" />
	<line x1="253.012" y1="831.592" x2="238.404" y2="970.585" stroke-width="0.25" stroke="rgb(0,0,0)" />
	<line x1="239.604" y1="970.585" x2="254.213" y2="831.592" stroke-width="0.25" stroke="rgb(0,0,0)" />
	<line x1="255.414" y1="831.592" x2="240.805" y2="970.585" stroke-width="0.25" stroke="rgb(0,0,0)" />
	<line x1="242.006" y1="970.585" x2="256.615" y2="831.592" stroke-width="0.25" stroke="rgb(0,0,0)" />
	<line x1="257.816" y1="831.592" x2="243.207" y2="970.585" stroke-width="0.25" stroke="rgb(0,0,0)" />
	<line x1="244.408" y1="970.585" x2="259.017" y2="831.592" stroke-width="0.25" stroke="rgb(0,0,0)" />
	<line x1="260.218" y1="831.592" x2="245.609" y2="970.585" stroke-width="0.25" stroke="rgb(0,0,0)" />
	<line x1="246.81" y1="970.585" x2="261.419" y2="831.592" stroke-width="0.25" stroke="rgb(0,0,0)" />
	<line x1="262.619" y1="831.592" x2="248.011" y2="970.585" stroke-width="0.25" stroke="rgb(0,0,0)" />
	<line x1="249.212" y1="970.585" x2="263.82" y2="831.592" stroke-width="0.25" stroke="rgb(0,0,0)" />
	<line x1="265.021" y1="831.592" x2="250.412" y2="970.585" stroke-width="0.25" stroke="rgb(0,0,0)" />
	<line x1="251.613" y1="970.585" x2="266.222" y2="831.592" stroke-width="0.25" stroke="rgb(0,0,0)" />
	<line x1="267.423" y1="831.592" x2="252.814" y2="970.585" stroke-width="0.25" stroke="rgb(0,0,0)" />
	<line x1="254.015" y1="970.585" x2="268.624" y2="831.592" stroke-width="0.25" stroke="rgb(0,0,0)" />
	<line x1="269.825" y1="831.592" x2="255.216" y2="970.585" stroke-width="0.25" stroke="rgb(0,0,0)" />
	<line x1="256.417" y1="970.585" x2="271.026" y2="831.592" stroke-width="0.25" stroke="rgb(0,0,0)" />
	<line x1="272.227" y1="831.592" x2="257.618" y2="970.585" stroke-width="0.25" stroke="rgb(0,0,0)" />
	<line x1="258.819" y1="970.585" x2="273.427" y2="831.592" stroke-width="0.25" stroke="rgb(0,0,0)" />
	<line x1="274.628" y1="831.592" x2="260.02" y2="970.585" stroke-width="0.25" stroke="rgb(0,0,0)" />
	<line x1="261.22" y1="970.585" x2="275.829" y2="831.592" stroke-width="0.25" stroke="rgb(0,0,0)" />
	<line x1="277.03" y1="831.592" x2="262.421" y2="970.585" stroke-width="0.25" stroke="rgb(0,0,0)" />
	<line x1="263.622" y1="970.585" x2="278.231" y2="831.592" stroke-width="0.25" stroke="rgb(0,0,0)" />
	<line x1="279.432" y1="831.592" x2="264.823" y2="970.585" stroke-width="0.25" stroke="rgb(0,0,0)" />
	<line x1="266.024" y1="970.585" x2="280.633" y2="831.592" stroke-width="0.25" stroke="rgb(0,0,0)" />
	<line x1="281.834" y1="831.592" x2="267.225" y2="970.585" stroke-width="0.25" stroke="rgb(0,0,0)" />
	<line x1="268.426" y1="970.585" x2="283.035" y2="831.592" stroke-width="0.25" stroke="rgb(0,0,0)" />
	<line x1="284.235" y1="831.592" x2="269.627" y2="970.585" stroke-width="0.25" stroke="rgb(0,0,0)" />
	<line x1="270.828" y1="970.585" x2="285.436" y2="831.592" stroke-width="0.25" stroke="rgb(0,0,0)" />
	<line x1="286.637" y1="831.592" x2="272.028" y2="970.585" stroke-width="0.25" stroke="rgb(0,0,0)" />
	<line x1="273.229" y1="970.585" x2="287.838" y2="831.592" stroke-width="0.25" stroke="rgb(0,0,0)" />
	<line x1="289.039" y1="831.592" x2="274.43" y2="970.585" stroke-width="0.25" stroke="rgb(0,0,0)" />
	<line x1="275.631" y1="970.585" x2="290.24" y2="831.592" stroke-width="0.25" stroke="rgb(0,0,0)" />
	<line x1="291.441" y1="831.592" x2="276.832" y2="970.585" stroke-width="0.25" stroke="rgb(0,0,0)" />
	<line x1="278.033" y1="970.585" x2="291.515" y2="842.306" stroke-width="0.25" stroke="rgb(0,0,0)" />
	<line x1="291.515" y1="853.732" x2="279.234" y2="970.585" stroke-width="0.25" stroke="rgb(0,0,0)" />
	<line x1="280.435" y1="970.585" x2="291.515" y2="865.157" stroke-width="0.25" stroke="rgb(0,0,0)" />
	<line x1="291.515" y1="876.583" x2="281.636" y2="970.585" stroke-width="0.25" stroke="rgb(0,0,0)" />
	<line x1="282.836" y1="970.585" x2="291.515" y2="888.009" stroke-width="0.25" stroke="rgb(0,0,0)" />
	<line x1="291.515" y1="899.434" x2="284.037" y2="970.585" stroke-width="0.25" stroke="rgb(0,0,0)" />
	<line x1="285.238" y1="970.585" x2="291.515" y2="910.86" stroke-width="0.25" stroke="rgb(0,0,0)" />
	<line x1="291.515" y1="922.286" x2="286.439" y2="970.585" stroke-width="0.25" stroke="rgb(0,0,0)" />
	<line x1="287.64" y1="970.585" x2="291.515" y2="933.712" stroke-width="0.25" stroke="rgb(0,0,0)" />
	<line x1="291.515" y1="945.137" x2="288.841" y2="970.585" stroke-width="0.25" stroke="rgb(0,0,0)" />
	<line x1="290.042" y1="970.585" x2="291.515" y2="956.563" stroke-width="0.25" stroke="rgb(0,0,0)" />
	<line x1="291.515" y1="967.989" x2="291.243" y2="970.585" stroke-width="0.25" stroke="rgb(0,0,0)" />
</svg>
