<?xml version="1.0" standalone="no" ?>
<!DOCTYPE svg PUBLIC "-//W3C//DTD SVG 1.1//EN" "http://www.w3.org/Graphics/SVG/1.1/DTD/svg11.dtd">
<svg width="2000px" height="2000px" xmlns="http://www.w3.org/2000/svg" version="1.1" >
	<line x1="348.389" y1="1593.92" x2="325.389" y2="1570.92" stroke-width="0.25" stroke="rgb(0,0,0)" />
	<line x1="325.389" y1="1570.92" x2="150.665" y2="1570.92" stroke-width="0.25" stroke="rgb(0,0,0)" />
	<line x1="150.665" y1="1570.92" x2="150.665" y2="1768.65" stroke-width="0.25" stroke="rgb(0,0,0)" />
	<line x1="150.665" y1="1768.65" x2="348.389" y2="1768.65" stroke-width="0.25" stroke="rgb(0,0,0)" />
	<line x1="348.389" y1="1768.65" x2="348.389" y2="1593.92" stroke-width="0.25" stroke="rgb(0,0,0)" />
	<line x1="254.47" y1="868.637" x2="150.864" y2="868.637" stroke-width="0.25" stroke="rgb(0,0,0)" />
	<line x1="150.864" y1="868.637" x2="150.864" y2="972.243" stroke-width="0.25" stroke="rgb(0,0,0)" />
	<line x1="150.864" y1="972.243" x2="254.47" y2="972.243" stroke-width="0.25" stroke="rgb(0,0,0)" />
	<line x1="254.47" y1="972.243" x2="254.47" y2="868.637" stroke-width="0.25" stroke="rgb(0,0,0)" />
	<line x1="253.607" y1="869.5" x2="151.726" y2="869.5" stroke-width="0.25" stroke="rgb(0,0,0)" />
	<line x1="151.726" y1="869.5" x2="151.726" y2="971.381" stroke-width="0.25" stroke="rgb(0,0,0)" />
	<line x1="151.726" y1="971.381" x2="253.607" y2="971.381" stroke-width="0.25" stroke="rgb(0,0,0)" />
	<line x1="253.607" y1="971.381" x2="253.607" y2="869.5" stroke-width="0.25" stroke="rgb(0,0,0)" />
	<line x1="348.259" y1="1768.65" x2="348.389" y2="1768.59" stroke-width="0.25" stroke="rgb(0,0,0)" />
	<line x1="348.389" y1="1767.57" x2="345.975" y2="1768.65" stroke-width="0.25" stroke="rgb(0,0,0)" />
	<line x1="343.691" y1="1768.65" x2="348.389" y2="1766.56" stroke-width="0.25" stroke="rgb(0,0,0)" />
	<line x1="348.389" y1="1765.54" x2="341.408" y2="1768.65" stroke-width="0.25" stroke="rgb(0,0,0)" />
	<line x1="339.124" y1="1768.65" x2="348.389" y2="1764.52" stroke-width="0.25" stroke="rgb(0,0,0)" />
	<line x1="348.389" y1="1763.51" x2="336.84" y2="1768.65" stroke-width="0.25" stroke="rgb(0,0,0)" />
	<line x1="334.556" y1="1768.65" x2="348.389" y2="1762.49" stroke-width="0.25" stroke="rgb(0,0,0)" />
	<line x1="348.389" y1="1761.47" x2="332.272" y2="1768.65" stroke-width="0.25" stroke="rgb(0,0,0)" />
	<line x1="329.989" y1="1768.65" x2="348.389" y2="1760.46" stroke-width="0.25" stroke="rgb(0,0,0)" />
	<line x1="348.389" y1="1759.44" x2="327.705" y2="1768.65" stroke-width="0.25" stroke="rgb(0,0,0)" />
	<line x1="325.421" y1="1768.65" x2="348.389" y2="1758.42" stroke-width="0.25" stroke="rgb(0,0,0)" />
	<line x1="348.389" y1="1757.41" x2="323.137" y2="1768.65" stroke-width="0.25" stroke="rgb(0,0,0)" />
	<line x1="320.853" y1="1768.65" x2="348.389" y2="1756.39" stroke-width="0.25" stroke="rgb(0,0,0)" />
	<line x1="348.389" y1="1755.37" x2="318.569" y2="1768.65" stroke-width="0.25" stroke="rgb(0,0,0)" />
	<line x1="316.286" y1="1768.65" x2="348.389" y2="1754.36" stroke-width="0.25" stroke="rgb(0,0,0)" />
	<line x1="348.389" y1="1753.34" x2="314.002" y2="1768.65" stroke-width="0.25" stroke="rgb(0,0,0)" />
	<line x1="311.718" y1="1768.65" x2="348.389" y2="1752.32" stroke-width="0.25" stroke="rgb(0,0,0)" />
	<line x1="348.389" y1="1751.3" x2="309.434" y2="1768.65" stroke-width="0.25" stroke="rgb(0,0,0)" />
	<line x1="307.15" y1="1768.65" x2="348.389" y2="1750.29" stroke-width="0.25" stroke="rgb(0,0,0)" />
	<line x1="348.389" y1="1749.27" x2="304.867" y2="1768.65" stroke-width="0.25" stroke="rgb(0,0,0)" />
	<line x1="302.583" y1="1768.65" x2="348.389" y2="1748.25" stroke-width="0.25" stroke="rgb(0,0,0)" />
	<line x1="348.389" y1="1747.24" x2="300.299" y2="1768.65" stroke-width="0.25" stroke="rgb(0,0,0)" />
	<line x1="298.015" y1="1768.65" x2="348.389" y2="1746.22" stroke-width="0.25" stroke="rgb(0,0,0)" />
	<line x1="348.389" y1="1745.2" x2="295.731" y2="1768.65" stroke-width="0.25" stroke="rgb(0,0,0)" />
	<line x1="293.448" y1="1768.65" x2="348.389" y2="1744.19" stroke-width="0.25" stroke="rgb(0,0,0)" />
	<line x1="348.389" y1="1743.17" x2="291.164" y2="1768.65" stroke-width="0.25" stroke="rgb(0,0,0)" />
	<line x1="288.88" y1="1768.65" x2="348.389" y2="1742.15" stroke-width="0.25" stroke="rgb(0,0,0)" />
	<line x1="348.389" y1="1741.14" x2="286.596" y2="1768.65" stroke-width="0.25" stroke="rgb(0,0,0)" />
	<line x1="284.312" y1="1768.65" x2="348.389" y2="1740.12" stroke-width="0.25" stroke="rgb(0,0,0)" />
	<line x1="348.389" y1="1739.1" x2="282.029" y2="1768.65" stroke-width="0.25" stroke="rgb(0,0,0)" />
	<line x1="279.745" y1="1768.65" x2="348.389" y2="1738.09" stroke-width="0.25" stroke="rgb(0,0,0)" />
	<line x1="348.389" y1="1737.07" x2="277.461" y2="1768.65" stroke-width="0.25" stroke="rgb(0,0,0)" />
	<line x1="275.177" y1="1768.65" x2="348.389" y2="1736.05" stroke-width="0.25" stroke="rgb(0,0,0)" />
	<line x1="348.389" y1="1735.04" x2="272.893" y2="1768.65" stroke-width="0.25" stroke="rgb(0,0,0)" />
	<line x1="270.61" y1="1768.65" x2="348.389" y2="1734.02" stroke-width="0.25" stroke="rgb(0,0,0)" />
	<line x1="348.389" y1="1733" x2="268.326" y2="1768.65" stroke-width="0.25" stroke="rgb(0,0,0)" />
	<line x1="266.042" y1="1768.65" x2="348.389" y2="1731.99" stroke-width="0.25" stroke="rgb(0,0,0)" />
	<line x1="348.389" y1="1730.97" x2="263.758" y2="1768.65" stroke-width="0.25" stroke="rgb(0,0,0)" />
	<line x1="261.474" y1="1768.65" x2="348.389" y2="1729.95" stroke-width="0.25" stroke="rgb(0,0,0)" />
	<line x1="348.389" y1="1728.93" x2="259.191" y2="1768.65" stroke-width="0.25" stroke="rgb(0,0,0)" />
	<line x1="256.907" y1="1768.65" x2="348.389" y2="1727.92" stroke-width="0.25" stroke="rgb(0,0,0)" />
	<line x1="348.389" y1="1726.9" x2="254.623" y2="1768.65" stroke-width="0.25" stroke="rgb(0,0,0)" />
	<line x1="252.339" y1="1768.65" x2="348.389" y2="1725.88" stroke-width="0.25" stroke="rgb(0,0,0)" />
	<line x1="348.389" y1="1724.87" x2="250.055" y2="1768.65" stroke-width="0.25" stroke="rgb(0,0,0)" />
	<line x1="247.772" y1="1768.65" x2="348.389" y2="1723.85" stroke-width="0.25" stroke="rgb(0,0,0)" />
	<line x1="348.389" y1="1722.83" x2="245.488" y2="1768.65" stroke-width="0.25" stroke="rgb(0,0,0)" />
	<line x1="243.204" y1="1768.65" x2="348.389" y2="1721.82" stroke-width="0.25" stroke="rgb(0,0,0)" />
	<line x1="348.389" y1="1720.8" x2="240.92" y2="1768.65" stroke-width="0.25" stroke="rgb(0,0,0)" />
	<line x1="238.636" y1="1768.65" x2="348.389" y2="1719.78" stroke-width="0.25" stroke="rgb(0,0,0)" />
	<line x1="348.389" y1="1718.77" x2="236.353" y2="1768.65" stroke-width="0.25" stroke="rgb(0,0,0)" />
	<line x1="234.069" y1="1768.65" x2="348.389" y2="1717.75" stroke-width="0.25" stroke="rgb(0,0,0)" />
	<line x1="348.389" y1="1716.73" x2="231.785" y2="1768.65" stroke-width="0.25" stroke="rgb(0,0,0)" />
	<line x1="229.501" y1="1768.65" x2="348.389" y2="1715.72" stroke-width="0.25" stroke="rgb(0,0,0)" />
	<line x1="348.389" y1="1714.7" x2="227.217" y2="1768.65" stroke-width="0.25" stroke="rgb(0,0,0)" />
	<line x1="224.934" y1="1768.65" x2="348.389" y2="1713.68" stroke-width="0.25" stroke="rgb(0,0,0)" />
	<line x1="348.389" y1="1712.67" x2="222.65" y2="1768.65" stroke-width="0.25" stroke="rgb(0,0,0)" />
	<line x1="220.366" y1="1768.65" x2="348.389" y2="1711.65" stroke-width="0.25" stroke="rgb(0,0,0)" />
	<line x1="348.389" y1="1710.63" x2="218.082" y2="1768.65" stroke-width="0.25" stroke="rgb(0,0,0)" />
	<line x1="215.798" y1="1768.65" x2="348.389" y2="1709.62" stroke-width="0.25" stroke="rgb(0,0,0)" />
	<line x1="348.389" y1="1708.6" x2="213.514" y2="1768.65" stroke-width="0.25" stroke="rgb(0,0,0)" />
	<line x1="211.231" y1="1768.65" x2="348.389" y2="1707.58" stroke-width="0.25" stroke="rgb(0,0,0)" />
	<line x1="348.389" y1="1706.56" x2="208.947" y2="1768.65" stroke-width="0.25" stroke="rgb(0,0,0)" />
	<line x1="206.663" y1="1768.65" x2="348.389" y2="1705.55" stroke-width="0.25" stroke="rgb(0,0,0)" />
	<line x1="348.389" y1="1704.53" x2="204.379" y2="1768.65" stroke-width="0.25" stroke="rgb(0,0,0)" />
	<line x1="202.095" y1="1768.65" x2="348.389" y2="1703.51" stroke-width="0.25" stroke="rgb(0,0,0)" />
	<line x1="348.389" y1="1702.5" x2="199.812" y2="1768.65" stroke-width="0.25" stroke="rgb(0,0,0)" />
	<line x1="197.528" y1="1768.65" x2="348.389" y2="1701.48" stroke-width="0.25" stroke="rgb(0,0,0)" />
	<line x1="348.389" y1="1700.46" x2="195.244" y2="1768.65" stroke-width="0.25" stroke="rgb(0,0,0)" />
	<line x1="192.96" y1="1768.65" x2="348.389" y2="1699.45" stroke-width="0.25" stroke="rgb(0,0,0)" />
	<line x1="348.389" y1="1698.43" x2="190.676" y2="1768.65" stroke-width="0.25" stroke="rgb(0,0,0)" />
	<line x1="188.393" y1="1768.65" x2="348.389" y2="1697.41" stroke-width="0.25" stroke="rgb(0,0,0)" />
	<line x1="348.389" y1="1696.4" x2="186.109" y2="1768.65" stroke-width="0.25" stroke="rgb(0,0,0)" />
	<line x1="183.825" y1="1768.65" x2="348.389" y2="1695.38" stroke-width="0.25" stroke="rgb(0,0,0)" />
	<line x1="348.389" y1="1694.36" x2="181.541" y2="1768.65" stroke-width="0.25" stroke="rgb(0,0,0)" />
	<line x1="179.257" y1="1768.65" x2="348.389" y2="1693.35" stroke-width="0.25" stroke="rgb(0,0,0)" />
	<line x1="348.389" y1="1692.33" x2="176.974" y2="1768.65" stroke-width="0.25" stroke="rgb(0,0,0)" />
	<line x1="174.69" y1="1768.65" x2="348.389" y2="1691.31" stroke-width="0.25" stroke="rgb(0,0,0)" />
	<line x1="348.389" y1="1690.3" x2="172.406" y2="1768.65" stroke-width="0.25" stroke="rgb(0,0,0)" />
	<line x1="170.122" y1="1768.65" x2="348.389" y2="1689.28" stroke-width="0.25" stroke="rgb(0,0,0)" />
	<line x1="348.389" y1="1688.26" x2="167.838" y2="1768.65" stroke-width="0.25" stroke="rgb(0,0,0)" />
	<line x1="165.555" y1="1768.65" x2="348.389" y2="1687.25" stroke-width="0.25" stroke="rgb(0,0,0)" />
	<line x1="348.389" y1="1686.23" x2="163.271" y2="1768.65" stroke-width="0.25" stroke="rgb(0,0,0)" />
	<line x1="160.987" y1="1768.65" x2="348.389" y2="1685.21" stroke-width="0.25" stroke="rgb(0,0,0)" />
	<line x1="348.389" y1="1684.19" x2="158.703" y2="1768.65" stroke-width="0.25" stroke="rgb(0,0,0)" />
	<line x1="156.419" y1="1768.65" x2="348.389" y2="1683.18" stroke-width="0.25" stroke="rgb(0,0,0)" />
	<line x1="348.389" y1="1682.16" x2="154.136" y2="1768.65" stroke-width="0.25" stroke="rgb(0,0,0)" />
	<line x1="151.852" y1="1768.65" x2="348.389" y2="1681.14" stroke-width="0.25" stroke="rgb(0,0,0)" />
	<line x1="348.389" y1="1680.13" x2="150.665" y2="1768.16" stroke-width="0.25" stroke="rgb(0,0,0)" />
	<line x1="150.665" y1="1767.14" x2="348.389" y2="1679.11" stroke-width="0.25" stroke="rgb(0,0,0)" />
	<line x1="348.389" y1="1678.09" x2="150.665" y2="1766.13" stroke-width="0.25" stroke="rgb(0,0,0)" />
	<line x1="150.665" y1="1765.11" x2="348.389" y2="1677.08" stroke-width="0.25" stroke="rgb(0,0,0)" />
	<line x1="348.389" y1="1676.06" x2="150.665" y2="1764.09" stroke-width="0.25" stroke="rgb(0,0,0)" />
	<line x1="150.665" y1="1763.08" x2="348.389" y2="1675.04" stroke-width="0.25" stroke="rgb(0,0,0)" />
	<line x1="348.389" y1="1674.03" x2="150.665" y2="1762.06" stroke-width="0.25" stroke="rgb(0,0,0)" />
	<line x1="150.665" y1="1761.04" x2="348.389" y2="1673.01" stroke-width="0.25" stroke="rgb(0,0,0)" />
	<line x1="348.389" y1="1671.99" x2="150.665" y2="1760.03" stroke-width="0.25" stroke="rgb(0,0,0)" />
	<line x1="150.665" y1="1759.01" x2="348.389" y2="1670.98" stroke-width="0.25" stroke="rgb(0,0,0)" />
	<line x1="348.389" y1="1669.96" x2="150.665" y2="1757.99" stroke-width="0.25" stroke="rgb(0,0,0)" />
	<line x1="150.665" y1="1756.98" x2="348.389" y2="1668.94" stroke-width="0.25" stroke="rgb(0,0,0)" />
	<line x1="348.389" y1="1667.93" x2="150.665" y2="1755.96" stroke-width="0.25" stroke="rgb(0,0,0)" />
	<line x1="150.665" y1="1754.94" x2="348.389" y2="1666.91" stroke-width="0.25" stroke="rgb(0,0,0)" />
	<line x1="348.389" y1="1665.89" x2="150.665" y2="1753.92" stroke-width="0.25" stroke="rgb(0,0,0)" />
	<line x1="150.665" y1="1752.91" x2="348.389" y2="1664.88" stroke-width="0.25" stroke="rgb(0,0,0)" />
	<line x1="348.389" y1="1663.86" x2="150.665" y2="1751.89" stroke-width="0.25" stroke="rgb(0,0,0)" />
	<line x1="150.665" y1="1750.87" x2="348.389" y2="1662.84" stroke-width="0.25" stroke="rgb(0,0,0)" />
	<line x1="348.389" y1="1661.82" x2="150.665" y2="1749.86" stroke-width="0.25" stroke="rgb(0,0,0)" />
	<line x1="150.665" y1="1748.84" x2="348.389" y2="1660.81" stroke-width="0.25" stroke="rgb(0,0,0)" />
	<line x1="348.389" y1="1659.79" x2="150.665" y2="1747.82" stroke-width="0.25" stroke="rgb(0,0,0)" />
	<line x1="150.665" y1="1746.81" x2="348.389" y2="1658.77" stroke-width="0.25" stroke="rgb(0,0,0)" />
	<line x1="348.389" y1="1657.76" x2="150.665" y2="1745.79" stroke-width="0.25" stroke="rgb(0,0,0)" />
	<line x1="150.665" y1="1744.77" x2="348.389" y2="1656.74" stroke-width="0.25" stroke="rgb(0,0,0)" />
	<line x1="348.389" y1="1655.72" x2="150.665" y2="1743.76" stroke-width="0.25" stroke="rgb(0,0,0)" />
	<line x1="150.665" y1="1742.74" x2="348.389" y2="1654.71" stroke-width="0.25" stroke="rgb(0,0,0)" />
	<line x1="348.389" y1="1653.69" x2="150.665" y2="1741.72" stroke-width="0.25" stroke="rgb(0,0,0)" />
	<line x1="150.665" y1="1740.71" x2="348.389" y2="1652.67" stroke-width="0.25" stroke="rgb(0,0,0)" />
	<line x1="348.389" y1="1651.66" x2="150.665" y2="1739.69" stroke-width="0.25" stroke="rgb(0,0,0)" />
	<line x1="150.665" y1="1738.67" x2="348.389" y2="1650.64" stroke-width="0.25" stroke="rgb(0,0,0)" />
	<line x1="348.389" y1="1649.62" x2="150.665" y2="1737.66" stroke-width="0.25" stroke="rgb(0,0,0)" />
	<line x1="150.665" y1="1736.64" x2="348.389" y2="1648.61" stroke-width="0.25" stroke="rgb(0,0,0)" />
	<line x1="348.389" y1="1647.59" x2="150.665" y2="1735.62" stroke-width="0.25" stroke="rgb(0,0,0)" />
	<line x1="150.665" y1="1734.61" x2="348.389" y2="1646.57" stroke-width="0.25" stroke="rgb(0,0,0)" />
	<line x1="348.389" y1="1645.56" x2="150.665" y2="1733.59" stroke-width="0.25" stroke="rgb(0,0,0)" />
	<line x1="150.665" y1="1732.57" x2="348.389" y2="1644.54" stroke-width="0.25" stroke="rgb(0,0,0)" />
	<line x1="348.389" y1="1643.52" x2="150.665" y2="1731.55" stroke-width="0.25" stroke="rgb(0,0,0)" />
	<line x1="150.665" y1="1730.54" x2="348.389" y2="1642.51" stroke-width="0.25" stroke="rgb(0,0,0)" />
	<line x1="348.389" y1="1641.49" x2="150.665" y2="1729.52" stroke-width="0.25" stroke="rgb(0,0,0)" />
	<line x1="150.665" y1="1728.5" x2="348.389" y2="1640.47" stroke-width="0.25" stroke="rgb(0,0,0)" />
	<line x1="348.389" y1="1639.46" x2="150.665" y2="1727.49" stroke-width="0.25" stroke="rgb(0,0,0)" />
	<line x1="150.665" y1="1726.47" x2="348.389" y2="1638.44" stroke-width="0.25" stroke="rgb(0,0,0)" />
	<line x1="348.389" y1="1637.42" x2="150.665" y2="1725.45" stroke-width="0.25" stroke="rgb(0,0,0)" />
	<line x1="150.665" y1="1724.44" x2="348.389" y2="1636.4" stroke-width="0.25" stroke="rgb(0,0,0)" />
	<line x1="348.389" y1="1635.39" x2="150.665" y2="1723.42" stroke-width="0.25" stroke="rgb(0,0,0)" />
	<line x1="150.665" y1="1722.4" x2="348.389" y2="1634.37" stroke-width="0.25" stroke="rgb(0,0,0)" />
	<line x1="348.389" y1="1633.35" x2="150.665" y2="1721.39" stroke-width="0.25" stroke="rgb(0,0,0)" />
	<line x1="150.665" y1="1720.37" x2="348.389" y2="1632.34" stroke-width="0.25" stroke="rgb(0,0,0)" />
	<line x1="348.389" y1="1631.32" x2="150.665" y2="1719.35" stroke-width="0.25" stroke="rgb(0,0,0)" />
	<line x1="150.665" y1="1718.34" x2="348.389" y2="1630.3" stroke-width="0.25" stroke="rgb(0,0,0)" />
	<line x1="348.389" y1="1629.29" x2="150.665" y2="1717.32" stroke-width="0.25" stroke="rgb(0,0,0)" />
	<line x1="150.665" y1="1716.3" x2="348.389" y2="1628.27" stroke-width="0.25" stroke="rgb(0,0,0)" />
	<line x1="348.389" y1="1627.25" x2="150.665" y2="1715.29" stroke-width="0.25" stroke="rgb(0,0,0)" />
	<line x1="150.665" y1="1714.27" x2="348.389" y2="1626.24" stroke-width="0.25" stroke="rgb(0,0,0)" />
	<line x1="348.389" y1="1625.22" x2="150.665" y2="1713.25" stroke-width="0.25" stroke="rgb(0,0,0)" />
	<line x1="150.665" y1="1712.24" x2="348.389" y2="1624.2" stroke-width="0.25" stroke="rgb(0,0,0)" />
	<line x1="348.389" y1="1623.19" x2="150.665" y2="1711.22" stroke-width="0.25" stroke="rgb(0,0,0)" />
	<line x1="150.665" y1="1710.2" x2="348.389" y2="1622.17" stroke-width="0.25" stroke="rgb(0,0,0)" />
	<line x1="348.389" y1="1621.15" x2="150.665" y2="1709.18" stroke-width="0.25" stroke="rgb(0,0,0)" />
	<line x1="150.665" y1="1708.17" x2="348.389" y2="1620.14" stroke-width="0.25" stroke="rgb(0,0,0)" />
	<line x1="348.389" y1="1619.12" x2="150.665" y2="1707.15" stroke-width="0.25" stroke="rgb(0,0,0)" />
	<line x1="150.665" y1="1706.13" x2="348.389" y2="1618.1" stroke-width="0.25" stroke="rgb(0,0,0)" />
	<line x1="348.389" y1="1617.09" x2="150.665" y2="1705.12" stroke-width="0.25" stroke="rgb(0,0,0)" />
	<line x1="150.665" y1="1704.1" x2="348.389" y2="1616.07" stroke-width="0.25" stroke="rgb(0,0,0)" />
	<line x1="348.389" y1="1615.05" x2="150.665" y2="1703.08" stroke-width="0.25" stroke="rgb(0,0,0)" />
	<line x1="150.665" y1="1702.07" x2="348.389" y2="1614.03" stroke-width="0.25" stroke="rgb(0,0,0)" />
	<line x1="348.389" y1="1613.02" x2="150.665" y2="1701.05" stroke-width="0.25" stroke="rgb(0,0,0)" />
	<line x1="150.665" y1="1700.03" x2="348.389" y2="1612" stroke-width="0.25" stroke="rgb(0,0,0)" />
	<line x1="348.389" y1="1610.98" x2="150.665" y2="1699.02" stroke-width="0.25" stroke="rgb(0,0,0)" />
	<line x1="150.665" y1="1698" x2="348.389" y2="1609.97" stroke-width="0.25" stroke="rgb(0,0,0)" />
	<line x1="348.389" y1="1608.95" x2="150.665" y2="1696.98" stroke-width="0.25" stroke="rgb(0,0,0)" />
	<line x1="150.665" y1="1695.97" x2="348.389" y2="1607.93" stroke-width="0.25" stroke="rgb(0,0,0)" />
	<line x1="348.389" y1="1606.92" x2="150.665" y2="1694.95" stroke-width="0.25" stroke="rgb(0,0,0)" />
	<line x1="150.665" y1="1693.93" x2="348.389" y2="1605.9" stroke-width="0.25" stroke="rgb(0,0,0)" />
	<line x1="348.389" y1="1604.88" x2="150.665" y2="1692.92" stroke-width="0.25" stroke="rgb(0,0,0)" />
	<line x1="150.665" y1="1691.9" x2="348.389" y2="1603.87" stroke-width="0.25" stroke="rgb(0,0,0)" />
	<line x1="348.389" y1="1602.85" x2="150.665" y2="1690.88" stroke-width="0.25" stroke="rgb(0,0,0)" />
	<line x1="150.665" y1="1689.87" x2="348.389" y2="1601.83" stroke-width="0.25" stroke="rgb(0,0,0)" />
	<line x1="348.389" y1="1600.82" x2="150.665" y2="1688.85" stroke-width="0.25" stroke="rgb(0,0,0)" />
	<line x1="150.665" y1="1687.83" x2="348.389" y2="1599.8" stroke-width="0.25" stroke="rgb(0,0,0)" />
	<line x1="348.389" y1="1598.78" x2="150.665" y2="1686.82" stroke-width="0.25" stroke="rgb(0,0,0)" />
	<line x1="150.665" y1="1685.8" x2="348.389" y2="1597.77" stroke-width="0.25" stroke="rgb(0,0,0)" />
	<line x1="348.389" y1="1596.75" x2="150.665" y2="1684.78" stroke-width="0.25" stroke="rgb(0,0,0)" />
	<line x1="150.665" y1="1683.76" x2="348.389" y2="1595.73" stroke-width="0.25" stroke="rgb(0,0,0)" />
	<line x1="348.389" y1="1594.72" x2="150.665" y2="1682.75" stroke-width="0.25" stroke="rgb(0,0,0)" />
	<line x1="150.665" y1="1681.73" x2="348.233" y2="1593.77" stroke-width="0.25" stroke="rgb(0,0,0)" />
	<line x1="347.529" y1="1593.06" x2="150.665" y2="1680.71" stroke-width="0.25" stroke="rgb(0,0,0)" />
	<line x1="150.665" y1="1679.7" x2="346.826" y2="1592.36" stroke-width="0.25" stroke="rgb(0,0,0)" />
	<line x1="346.122" y1="1591.66" x2="150.665" y2="1678.68" stroke-width="0.25" stroke="rgb(0,0,0)" />
	<line x1="150.665" y1="1677.66" x2="345.419" y2="1590.95" stroke-width="0.25" stroke="rgb(0,0,0)" />
	<line x1="344.715" y1="1590.25" x2="150.665" y2="1676.65" stroke-width="0.25" stroke="rgb(0,0,0)" />
	<line x1="150.665" y1="1675.63" x2="344.011" y2="1589.55" stroke-width="0.25" stroke="rgb(0,0,0)" />
	<line x1="343.308" y1="1588.84" x2="150.665" y2="1674.61" stroke-width="0.25" stroke="rgb(0,0,0)" />
	<line x1="150.665" y1="1673.6" x2="342.604" y2="1588.14" stroke-width="0.25" stroke="rgb(0,0,0)" />
	<line x1="341.901" y1="1587.44" x2="150.665" y2="1672.58" stroke-width="0.25" stroke="rgb(0,0,0)" />
	<line x1="150.665" y1="1671.56" x2="341.197" y2="1586.73" stroke-width="0.25" stroke="rgb(0,0,0)" />
	<line x1="340.494" y1="1586.03" x2="150.665" y2="1670.55" stroke-width="0.25" stroke="rgb(0,0,0)" />
	<line x1="150.665" y1="1669.53" x2="339.79" y2="1585.33" stroke-width="0.25" stroke="rgb(0,0,0)" />
	<line x1="339.086" y1="1584.62" x2="150.665" y2="1668.51" stroke-width="0.25" stroke="rgb(0,0,0)" />
	<line x1="150.665" y1="1667.5" x2="338.383" y2="1583.92" stroke-width="0.25" stroke="rgb(0,0,0)" />
	<line x1="337.679" y1="1583.21" x2="150.665" y2="1666.48" stroke-width="0.25" stroke="rgb(0,0,0)" />
	<line x1="150.665" y1="1665.46" x2="336.976" y2="1582.51" stroke-width="0.25" stroke="rgb(0,0,0)" />
	<line x1="336.272" y1="1581.81" x2="150.665" y2="1664.45" stroke-width="0.25" stroke="rgb(0,0,0)" />
	<line x1="150.665" y1="1663.43" x2="335.569" y2="1581.1" stroke-width="0.25" stroke="rgb(0,0,0)" />
	<line x1="334.865" y1="1580.4" x2="150.665" y2="1662.41" stroke-width="0.25" stroke="rgb(0,0,0)" />
	<line x1="150.665" y1="1661.39" x2="334.162" y2="1579.7" stroke-width="0.25" stroke="rgb(0,0,0)" />
	<line x1="333.458" y1="1578.99" x2="150.665" y2="1660.38" stroke-width="0.25" stroke="rgb(0,0,0)" />
	<line x1="150.665" y1="1659.36" x2="332.754" y2="1578.29" stroke-width="0.25" stroke="rgb(0,0,0)" />
	<line x1="332.051" y1="1577.59" x2="150.665" y2="1658.34" stroke-width="0.25" stroke="rgb(0,0,0)" />
	<line x1="150.665" y1="1657.33" x2="331.347" y2="1576.88" stroke-width="0.25" stroke="rgb(0,0,0)" />
	<line x1="330.644" y1="1576.18" x2="150.665" y2="1656.31" stroke-width="0.25" stroke="rgb(0,0,0)" />
	<line x1="150.665" y1="1655.29" x2="329.94" y2="1575.48" stroke-width="0.25" stroke="rgb(0,0,0)" />
	<line x1="329.237" y1="1574.77" x2="150.665" y2="1654.28" stroke-width="0.25" stroke="rgb(0,0,0)" />
	<line x1="150.665" y1="1653.26" x2="328.533" y2="1574.07" stroke-width="0.25" stroke="rgb(0,0,0)" />
	<line x1="327.829" y1="1573.36" x2="150.665" y2="1652.24" stroke-width="0.25" stroke="rgb(0,0,0)" />
	<line x1="150.665" y1="1651.23" x2="327.126" y2="1572.66" stroke-width="0.25" stroke="rgb(0,0,0)" />
	<line x1="326.422" y1="1571.96" x2="150.665" y2="1650.21" stroke-width="0.25" stroke="rgb(0,0,0)" />
	<line x1="150.665" y1="1649.19" x2="325.719" y2="1571.25" stroke-width="0.25" stroke="rgb(0,0,0)" />
	<line x1="324.175" y1="1570.92" x2="150.665" y2="1648.18" stroke-width="0.25" stroke="rgb(0,0,0)" />
	<line x1="150.665" y1="1647.16" x2="321.892" y2="1570.92" stroke-width="0.25" stroke="rgb(0,0,0)" />
	<line x1="319.608" y1="1570.92" x2="150.665" y2="1646.14" stroke-width="0.25" stroke="rgb(0,0,0)" />
	<line x1="150.665" y1="1645.13" x2="317.324" y2="1570.92" stroke-width="0.25" stroke="rgb(0,0,0)" />
	<line x1="315.04" y1="1570.92" x2="150.665" y2="1644.11" stroke-width="0.25" stroke="rgb(0,0,0)" />
	<line x1="150.665" y1="1643.09" x2="312.756" y2="1570.92" stroke-width="0.25" stroke="rgb(0,0,0)" />
	<line x1="310.473" y1="1570.92" x2="150.665" y2="1642.08" stroke-width="0.25" stroke="rgb(0,0,0)" />
	<line x1="150.665" y1="1641.06" x2="308.189" y2="1570.92" stroke-width="0.25" stroke="rgb(0,0,0)" />
	<line x1="305.905" y1="1570.92" x2="150.665" y2="1640.04" stroke-width="0.25" stroke="rgb(0,0,0)" />
	<line x1="150.665" y1="1639.02" x2="303.621" y2="1570.92" stroke-width="0.25" stroke="rgb(0,0,0)" />
	<line x1="301.337" y1="1570.92" x2="150.665" y2="1638.01" stroke-width="0.25" stroke="rgb(0,0,0)" />
	<line x1="150.665" y1="1636.99" x2="299.054" y2="1570.92" stroke-width="0.25" stroke="rgb(0,0,0)" />
	<line x1="296.77" y1="1570.92" x2="150.665" y2="1635.97" stroke-width="0.25" stroke="rgb(0,0,0)" />
	<line x1="150.665" y1="1634.96" x2="294.486" y2="1570.92" stroke-width="0.25" stroke="rgb(0,0,0)" />
	<line x1="292.202" y1="1570.92" x2="150.665" y2="1633.94" stroke-width="0.25" stroke="rgb(0,0,0)" />
	<line x1="150.665" y1="1632.92" x2="289.918" y2="1570.92" stroke-width="0.25" stroke="rgb(0,0,0)" />
	<line x1="287.635" y1="1570.92" x2="150.665" y2="1631.91" stroke-width="0.25" stroke="rgb(0,0,0)" />
	<line x1="150.665" y1="1630.89" x2="285.351" y2="1570.92" stroke-width="0.25" stroke="rgb(0,0,0)" />
	<line x1="283.067" y1="1570.92" x2="150.665" y2="1629.87" stroke-width="0.25" stroke="rgb(0,0,0)" />
	<line x1="150.665" y1="1628.86" x2="280.783" y2="1570.92" stroke-width="0.25" stroke="rgb(0,0,0)" />
	<line x1="278.499" y1="1570.92" x2="150.665" y2="1627.84" stroke-width="0.25" stroke="rgb(0,0,0)" />
	<line x1="150.665" y1="1626.82" x2="276.216" y2="1570.92" stroke-width="0.25" stroke="rgb(0,0,0)" />
	<line x1="273.932" y1="1570.92" x2="150.665" y2="1625.81" stroke-width="0.25" stroke="rgb(0,0,0)" />
	<line x1="150.665" y1="1624.79" x2="271.648" y2="1570.92" stroke-width="0.25" stroke="rgb(0,0,0)" />
	<line x1="269.364" y1="1570.92" x2="150.665" y2="1623.77" stroke-width="0.25" stroke="rgb(0,0,0)" />
	<line x1="150.665" y1="1622.76" x2="267.08" y2="1570.92" stroke-width="0.25" stroke="rgb(0,0,0)" />
	<line x1="264.797" y1="1570.92" x2="150.665" y2="1621.74" stroke-width="0.25" stroke="rgb(0,0,0)" />
	<line x1="150.665" y1="1620.72" x2="262.513" y2="1570.92" stroke-width="0.25" stroke="rgb(0,0,0)" />
	<line x1="260.229" y1="1570.92" x2="150.665" y2="1619.71" stroke-width="0.25" stroke="rgb(0,0,0)" />
	<line x1="150.665" y1="1618.69" x2="257.945" y2="1570.92" stroke-width="0.25" stroke="rgb(0,0,0)" />
	<line x1="255.661" y1="1570.92" x2="150.665" y2="1617.67" stroke-width="0.25" stroke="rgb(0,0,0)" />
	<line x1="150.665" y1="1616.65" x2="253.378" y2="1570.92" stroke-width="0.25" stroke="rgb(0,0,0)" />
	<line x1="251.094" y1="1570.92" x2="150.665" y2="1615.64" stroke-width="0.25" stroke="rgb(0,0,0)" />
	<line x1="150.665" y1="1614.62" x2="248.81" y2="1570.92" stroke-width="0.25" stroke="rgb(0,0,0)" />
	<line x1="246.526" y1="1570.92" x2="150.665" y2="1613.6" stroke-width="0.25" stroke="rgb(0,0,0)" />
	<line x1="150.665" y1="1612.59" x2="244.242" y2="1570.92" stroke-width="0.25" stroke="rgb(0,0,0)" />
	<line x1="241.959" y1="1570.92" x2="150.665" y2="1611.57" stroke-width="0.25" stroke="rgb(0,0,0)" />
	<line x1="150.665" y1="1610.55" x2="239.675" y2="1570.92" stroke-width="0.25" stroke="rgb(0,0,0)" />
	<line x1="237.391" y1="1570.92" x2="150.665" y2="1609.54" stroke-width="0.25" stroke="rgb(0,0,0)" />
	<line x1="150.665" y1="1608.52" x2="235.107" y2="1570.92" stroke-width="0.25" stroke="rgb(0,0,0)" />
	<line x1="232.823" y1="1570.92" x2="150.665" y2="1607.5" stroke-width="0.25" stroke="rgb(0,0,0)" />
	<line x1="150.665" y1="1606.49" x2="230.54" y2="1570.92" stroke-width="0.25" stroke="rgb(0,0,0)" />
	<line x1="228.256" y1="1570.92" x2="150.665" y2="1605.47" stroke-width="0.25" stroke="rgb(0,0,0)" />
	<line x1="150.665" y1="1604.45" x2="225.972" y2="1570.92" stroke-width="0.25" stroke="rgb(0,0,0)" />
	<line x1="223.688" y1="1570.92" x2="150.665" y2="1603.44" stroke-width="0.25" stroke="rgb(0,0,0)" />
	<line x1="150.665" y1="1602.42" x2="221.404" y2="1570.92" stroke-width="0.25" stroke="rgb(0,0,0)" />
	<line x1="219.12" y1="1570.92" x2="150.665" y2="1601.4" stroke-width="0.25" stroke="rgb(0,0,0)" />
	<line x1="150.665" y1="1600.39" x2="216.837" y2="1570.92" stroke-width="0.25" stroke="rgb(0,0,0)" />
	<line x1="214.553" y1="1570.92" x2="150.665" y2="1599.37" stroke-width="0.25" stroke="rgb(0,0,0)" />
	<line x1="150.665" y1="1598.35" x2="212.269" y2="1570.92" stroke-width="0.25" stroke="rgb(0,0,0)" />
	<line x1="209.985" y1="1570.92" x2="150.665" y2="1597.34" stroke-width="0.25" stroke="rgb(0,0,0)" />
	<line x1="150.665" y1="1596.32" x2="207.701" y2="1570.92" stroke-width="0.25" stroke="rgb(0,0,0)" />
	<line x1="205.418" y1="1570.92" x2="150.665" y2="1595.3" stroke-width="0.25" stroke="rgb(0,0,0)" />
	<line x1="150.665" y1="1594.28" x2="203.134" y2="1570.92" stroke-width="0.25" stroke="rgb(0,0,0)" />
	<line x1="200.85" y1="1570.92" x2="150.665" y2="1593.27" stroke-width="0.25" stroke="rgb(0,0,0)" />
	<line x1="150.665" y1="1592.25" x2="198.566" y2="1570.92" stroke-width="0.25" stroke="rgb(0,0,0)" />
	<line x1="196.282" y1="1570.92" x2="150.665" y2="1591.23" stroke-width="0.25" stroke="rgb(0,0,0)" />
	<line x1="150.665" y1="1590.22" x2="193.999" y2="1570.92" stroke-width="0.25" stroke="rgb(0,0,0)" />
	<line x1="191.715" y1="1570.92" x2="150.665" y2="1589.2" stroke-width="0.25" stroke="rgb(0,0,0)" />
	<line x1="150.665" y1="1588.18" x2="189.431" y2="1570.92" stroke-width="0.25" stroke="rgb(0,0,0)" />
	<line x1="187.147" y1="1570.92" x2="150.665" y2="1587.17" stroke-width="0.25" stroke="rgb(0,0,0)" />
	<line x1="150.665" y1="1586.15" x2="184.863" y2="1570.92" stroke-width="0.25" stroke="rgb(0,0,0)" />
	<line x1="182.58" y1="1570.92" x2="150.665" y2="1585.13" stroke-width="0.25" stroke="rgb(0,0,0)" />
	<line x1="150.665" y1="1584.12" x2="180.296" y2="1570.92" stroke-width="0.25" stroke="rgb(0,0,0)" />
	<line x1="178.012" y1="1570.92" x2="150.665" y2="1583.1" stroke-width="0.25" stroke="rgb(0,0,0)" />
	<line x1="150.665" y1="1582.08" x2="175.728" y2="1570.92" stroke-width="0.25" stroke="rgb(0,0,0)" />
	<line x1="173.444" y1="1570.92" x2="150.665" y2="1581.07" stroke-width="0.25" stroke="rgb(0,0,0)" />
	<line x1="150.665" y1="1580.05" x2="171.161" y2="1570.92" stroke-width="0.25" stroke="rgb(0,0,0)" />
	<line x1="168.877" y1="1570.92" x2="150.665" y2="1579.03" stroke-width="0.25" stroke="rgb(0,0,0)" />
	<line x1="150.665" y1="1578.02" x2="166.593" y2="1570.92" stroke-width="0.25" stroke="rgb(0,0,0)" />
	<line x1="164.309" y1="1570.92" x2="150.665" y2="1577" stroke-width="0.25" stroke="rgb(0,0,0)" />
	<line x1="150.665" y1="1575.98" x2="162.025" y2="1570.92" stroke-width="0.25" stroke="rgb(0,0,0)" />
	<line x1="159.742" y1="1570.92" x2="150.665" y2="1574.97" stroke-width="0.25" stroke="rgb(0,0,0)" />
	<line x1="150.665" y1="1573.95" x2="157.458" y2="1570.92" stroke-width="0.25" stroke="rgb(0,0,0)" />
	<line x1="155.174" y1="1570.92" x2="150.665" y2="1572.93" stroke-width="0.25" stroke="rgb(0,0,0)" />
	<line x1="150.665" y1="1571.91" x2="152.89" y2="1570.92" stroke-width="0.25" stroke="rgb(0,0,0)" />
	<line x1="252.033" y1="970.585" x2="252.811" y2="970.238" stroke-width="0.25" stroke="rgb(0,0,0)" />
	<line x1="252.811" y1="968.931" x2="249.097" y2="970.585" stroke-width="0.25" stroke="rgb(0,0,0)" />
	<line x1="246.161" y1="970.585" x2="252.811" y2="967.624" stroke-width="0.25" stroke="rgb(0,0,0)" />
	<line x1="252.811" y1="966.316" x2="243.224" y2="970.585" stroke-width="0.25" stroke="rgb(0,0,0)" />
	<line x1="240.288" y1="970.585" x2="252.811" y2="965.009" stroke-width="0.25" stroke="rgb(0,0,0)" />
	<line x1="252.811" y1="963.702" x2="237.352" y2="970.585" stroke-width="0.25" stroke="rgb(0,0,0)" />
	<line x1="234.415" y1="970.585" x2="252.811" y2="962.394" stroke-width="0.25" stroke="rgb(0,0,0)" />
	<line x1="252.811" y1="961.087" x2="231.479" y2="970.585" stroke-width="0.25" stroke="rgb(0,0,0)" />
	<line x1="228.543" y1="970.585" x2="252.811" y2="959.78" stroke-width="0.25" stroke="rgb(0,0,0)" />
	<line x1="252.811" y1="958.472" x2="225.606" y2="970.585" stroke-width="0.25" stroke="rgb(0,0,0)" />
	<line x1="222.67" y1="970.585" x2="252.811" y2="957.165" stroke-width="0.25" stroke="rgb(0,0,0)" />
	<line x1="252.811" y1="955.858" x2="219.734" y2="970.585" stroke-width="0.25" stroke="rgb(0,0,0)" />
	<line x1="216.797" y1="970.585" x2="252.811" y2="954.55" stroke-width="0.25" stroke="rgb(0,0,0)" />
	<line x1="252.811" y1="953.243" x2="213.861" y2="970.585" stroke-width="0.25" stroke="rgb(0,0,0)" />
	<line x1="210.925" y1="970.585" x2="252.811" y2="951.936" stroke-width="0.25" stroke="rgb(0,0,0)" />
	<line x1="252.811" y1="950.628" x2="207.988" y2="970.585" stroke-width="0.25" stroke="rgb(0,0,0)" />
	<line x1="205.052" y1="970.585" x2="252.811" y2="949.321" stroke-width="0.25" stroke="rgb(0,0,0)" />
	<line x1="252.811" y1="948.014" x2="202.116" y2="970.585" stroke-width="0.25" stroke="rgb(0,0,0)" />
	<line x1="199.179" y1="970.585" x2="252.811" y2="946.706" stroke-width="0.25" stroke="rgb(0,0,0)" />
	<line x1="252.811" y1="945.399" x2="196.243" y2="970.585" stroke-width="0.25" stroke="rgb(0,0,0)" />
	<line x1="193.307" y1="970.585" x2="252.811" y2="944.092" stroke-width="0.25" stroke="rgb(0,0,0)" />
	<line x1="252.811" y1="942.784" x2="190.371" y2="970.585" stroke-width="0.25" stroke="rgb(0,0,0)" />
	<line x1="187.434" y1="970.585" x2="252.811" y2="941.477" stroke-width="0.25" stroke="rgb(0,0,0)" />
	<line x1="252.811" y1="940.17" x2="184.498" y2="970.585" stroke-width="0.25" stroke="rgb(0,0,0)" />
	<line x1="181.562" y1="970.585" x2="252.811" y2="938.862" stroke-width="0.25" stroke="rgb(0,0,0)" />
	<line x1="252.811" y1="937.555" x2="178.625" y2="970.585" stroke-width="0.25" stroke="rgb(0,0,0)" />
	<line x1="175.689" y1="970.585" x2="252.811" y2="936.248" stroke-width="0.25" stroke="rgb(0,0,0)" />
	<line x1="252.811" y1="934.94" x2="172.753" y2="970.585" stroke-width="0.25" stroke="rgb(0,0,0)" />
	<line x1="169.816" y1="970.585" x2="252.811" y2="933.633" stroke-width="0.25" stroke="rgb(0,0,0)" />
	<line x1="252.811" y1="932.326" x2="166.88" y2="970.585" stroke-width="0.25" stroke="rgb(0,0,0)" />
	<line x1="163.944" y1="970.585" x2="252.811" y2="931.018" stroke-width="0.25" stroke="rgb(0,0,0)" />
	<line x1="252.811" y1="929.711" x2="161.007" y2="970.585" stroke-width="0.25" stroke="rgb(0,0,0)" />
	<line x1="158.071" y1="970.585" x2="252.811" y2="928.404" stroke-width="0.25" stroke="rgb(0,0,0)" />
	<line x1="252.811" y1="927.096" x2="155.135" y2="970.585" stroke-width="0.25" stroke="rgb(0,0,0)" />
	<line x1="152.522" y1="970.44" x2="252.811" y2="925.789" stroke-width="0.25" stroke="rgb(0,0,0)" />
	<line x1="252.811" y1="924.482" x2="152.522" y2="969.133" stroke-width="0.25" stroke="rgb(0,0,0)" />
	<line x1="152.522" y1="967.826" x2="252.811" y2="923.174" stroke-width="0.25" stroke="rgb(0,0,0)" />
	<line x1="252.811" y1="921.867" x2="152.522" y2="966.518" stroke-width="0.25" stroke="rgb(0,0,0)" />
	<line x1="152.522" y1="965.211" x2="252.811" y2="920.56" stroke-width="0.25" stroke="rgb(0,0,0)" />
	<line x1="252.811" y1="919.252" x2="152.522" y2="963.904" stroke-width="0.25" stroke="rgb(0,0,0)" />
	<line x1="152.522" y1="962.596" x2="252.811" y2="917.945" stroke-width="0.25" stroke="rgb(0,0,0)" />
	<line x1="252.811" y1="916.638" x2="152.522" y2="961.289" stroke-width="0.25" stroke="rgb(0,0,0)" />
	<line x1="152.522" y1="959.982" x2="252.811" y2="915.33" stroke-width="0.25" stroke="rgb(0,0,0)" />
	<line x1="252.811" y1="914.023" x2="152.522" y2="958.674" stroke-width="0.25" stroke="rgb(0,0,0)" />
	<line x1="152.522" y1="957.367" x2="252.811" y2="912.716" stroke-width="0.25" stroke="rgb(0,0,0)" />
	<line x1="252.811" y1="911.408" x2="152.522" y2="956.06" stroke-width="0.25" stroke="rgb(0,0,0)" />
	<line x1="152.522" y1="954.752" x2="252.811" y2="910.101" stroke-width="0.25" stroke="rgb(0,0,0)" />
	<line x1="252.811" y1="908.794" x2="152.522" y2="953.445" stroke-width="0.25" stroke="rgb(0,0,0)" />
	<line x1="152.522" y1="952.138" x2="252.811" y2="907.486" stroke-width="0.25" stroke="rgb(0,0,0)" />
	<line x1="252.811" y1="906.179" x2="152.522" y2="950.83" stroke-width="0.25" stroke="rgb(0,0,0)" />
	<line x1="152.522" y1="949.523" x2="252.811" y2="904.872" stroke-width="0.25" stroke="rgb(0,0,0)" />
	<line x1="252.811" y1="903.564" x2="152.522" y2="948.216" stroke-width="0.25" stroke="rgb(0,0,0)" />
	<line x1="152.522" y1="946.908" x2="252.811" y2="902.257" stroke-width="0.25" stroke="rgb(0,0,0)" />
	<line x1="252.811" y1="900.95" x2="152.522" y2="945.601" stroke-width="0.25" stroke="rgb(0,0,0)" />
	<line x1="152.522" y1="944.294" x2="252.811" y2="899.642" stroke-width="0.25" stroke="rgb(0,0,0)" />
	<line x1="252.811" y1="898.335" x2="152.522" y2="942.986" stroke-width="0.25" stroke="rgb(0,0,0)" />
	<line x1="152.522" y1="941.679" x2="252.811" y2="897.028" stroke-width="0.25" stroke="rgb(0,0,0)" />
	<line x1="252.811" y1="895.72" x2="152.522" y2="940.372" stroke-width="0.25" stroke="rgb(0,0,0)" />
	<line x1="152.522" y1="939.064" x2="252.811" y2="894.413" stroke-width="0.25" stroke="rgb(0,0,0)" />
	<line x1="252.811" y1="893.106" x2="152.522" y2="937.757" stroke-width="0.25" stroke="rgb(0,0,0)" />
	<line x1="152.522" y1="936.45" x2="252.811" y2="891.798" stroke-width="0.25" stroke="rgb(0,0,0)" />
	<line x1="252.811" y1="890.491" x2="152.522" y2="935.142" stroke-width="0.25" stroke="rgb(0,0,0)" />
	<line x1="152.522" y1="933.835" x2="252.811" y2="889.184" stroke-width="0.25" stroke="rgb(0,0,0)" />
	<line x1="252.811" y1="887.876" x2="152.522" y2="932.528" stroke-width="0.25" stroke="rgb(0,0,0)" />
	<line x1="152.522" y1="931.22" x2="252.811" y2="886.569" stroke-width="0.25" stroke="rgb(0,0,0)" />
	<line x1="252.811" y1="885.262" x2="152.522" y2="929.913" stroke-width="0.25" stroke="rgb(0,0,0)" />
	<line x1="152.522" y1="928.606" x2="252.811" y2="883.954" stroke-width="0.25" stroke="rgb(0,0,0)" />
	<line x1="252.811" y1="882.647" x2="152.522" y2="927.298" stroke-width="0.25" stroke="rgb(0,0,0)" />
	<line x1="152.522" y1="925.991" x2="252.811" y2="881.34" stroke-width="0.25" stroke="rgb(0,0,0)" />
	<line x1="252.811" y1="880.032" x2="152.522" y2="924.684" stroke-width="0.25" stroke="rgb(0,0,0)" />
	<line x1="152.522" y1="923.376" x2="252.811" y2="878.725" stroke-width="0.25" stroke="rgb(0,0,0)" />
	<line x1="252.811" y1="877.418" x2="152.522" y2="922.069" stroke-width="0.25" stroke="rgb(0,0,0)" />
	<line x1="152.522" y1="920.762" x2="252.811" y2="876.11" stroke-width="0.25" stroke="rgb(0,0,0)" />
	<line x1="252.811" y1="874.803" x2="152.522" y2="919.454" stroke-width="0.25" stroke="rgb(0,0,0)" />
	<line x1="152.522" y1="918.147" x2="252.811" y2="873.496" stroke-width="0.25" stroke="rgb(0,0,0)" />
	<line x1="252.811" y1="872.188" x2="152.522" y2="916.84" stroke-width="0.25" stroke="rgb(0,0,0)" />
	<line x1="152.522" y1="915.532" x2="252.811" y2="870.881" stroke-width="0.25" stroke="rgb(0,0,0)" />
	<line x1="251.189" y1="870.296" x2="152.522" y2="914.225" stroke-width="0.25" stroke="rgb(0,0,0)" />
	<line x1="152.522" y1="912.918" x2="248.253" y2="870.296" stroke-width="0.25" stroke="rgb(0,0,0)" />
	<line x1="245.316" y1="870.296" x2="152.522" y2="911.61" stroke-width="0.25" stroke="rgb(0,0,0)" />
	<line x1="152.522" y1="910.303" x2="242.38" y2="870.296" stroke-width="0.25" stroke="rgb(0,0,0)" />
	<line x1="239.444" y1="870.296" x2="152.522" y2="908.996" stroke-width="0.25" stroke="rgb(0,0,0)" />
	<line x1="152.522" y1="907.688" x2="236.507" y2="870.296" stroke-width="0.25" stroke="rgb(0,0,0)" />
	<line x1="233.571" y1="870.296" x2="152.522" y2="906.381" stroke-width="0.25" stroke="rgb(0,0,0)" />
	<line x1="152.522" y1="905.074" x2="230.635" y2="870.296" stroke-width="0.25" stroke="rgb(0,0,0)" />
	<line x1="227.698" y1="870.296" x2="152.522" y2="903.766" stroke-width="0.25" stroke="rgb(0,0,0)" />
	<line x1="152.522" y1="902.459" x2="224.762" y2="870.296" stroke-width="0.25" stroke="rgb(0,0,0)" />
	<line x1="221.826" y1="870.296" x2="152.522" y2="901.152" stroke-width="0.25" stroke="rgb(0,0,0)" />
	<line x1="152.522" y1="899.844" x2="218.889" y2="870.296" stroke-width="0.25" stroke="rgb(0,0,0)" />
	<line x1="215.953" y1="870.296" x2="152.522" y2="898.537" stroke-width="0.25" stroke="rgb(0,0,0)" />
	<line x1="152.522" y1="897.23" x2="213.017" y2="870.296" stroke-width="0.25" stroke="rgb(0,0,0)" />
	<line x1="210.08" y1="870.296" x2="152.522" y2="895.922" stroke-width="0.25" stroke="rgb(0,0,0)" />
	<line x1="152.522" y1="894.615" x2="207.144" y2="870.296" stroke-width="0.25" stroke="rgb(0,0,0)" />
	<line x1="204.208" y1="870.296" x2="152.522" y2="893.308" stroke-width="0.25" stroke="rgb(0,0,0)" />
	<line x1="152.522" y1="892" x2="201.271" y2="870.296" stroke-width="0.25" stroke="rgb(0,0,0)" />
	<line x1="198.335" y1="870.296" x2="152.522" y2="890.693" stroke-width="0.25" stroke="rgb(0,0,0)" />
	<line x1="152.522" y1="889.386" x2="195.399" y2="870.296" stroke-width="0.25" stroke="rgb(0,0,0)" />
	<line x1="192.462" y1="870.296" x2="152.522" y2="888.078" stroke-width="0.25" stroke="rgb(0,0,0)" />
	<line x1="152.522" y1="886.771" x2="189.526" y2="870.296" stroke-width="0.25" stroke="rgb(0,0,0)" />
	<line x1="186.59" y1="870.296" x2="152.522" y2="885.464" stroke-width="0.25" stroke="rgb(0,0,0)" />
	<line x1="152.522" y1="884.156" x2="183.654" y2="870.296" stroke-width="0.25" stroke="rgb(0,0,0)" />
	<line x1="180.717" y1="870.296" x2="152.522" y2="882.849" stroke-width="0.25" stroke="rgb(0,0,0)" />
	<line x1="152.522" y1="881.542" x2="177.781" y2="870.296" stroke-width="0.25" stroke="rgb(0,0,0)" />
	<line x1="174.845" y1="870.296" x2="152.522" y2="880.234" stroke-width="0.25" stroke="rgb(0,0,0)" />
	<line x1="152.522" y1="878.927" x2="171.908" y2="870.296" stroke-width="0.25" stroke="rgb(0,0,0)" />
	<line x1="168.972" y1="870.296" x2="152.522" y2="877.62" stroke-width="0.25" stroke="rgb(0,0,0)" />
	<line x1="152.522" y1="876.312" x2="166.036" y2="870.296" stroke-width="0.25" stroke="rgb(0,0,0)" />
	<line x1="163.099" y1="870.296" x2="152.522" y2="875.005" stroke-width="0.25" stroke="rgb(0,0,0)" />
	<line x1="152.522" y1="873.698" x2="160.163" y2="870.296" stroke-width="0.25" stroke="rgb(0,0,0)" />
	<line x1="157.227" y1="870.296" x2="152.522" y2="872.39" stroke-width="0.25" stroke="rgb(0,0,0)" />
	<line x1="152.522" y1="871.083" x2="154.29" y2="870.296" stroke-width="0.25" stroke="rgb(0,0,0)" />
</svg>
