<?xml version="1.0" standalone="no" ?>
<!DOCTYPE svg PUBLIC "-//W3C//DTD SVG 1.1//EN" "http://www.w3.org/Graphics/SVG/1.1/DTD/svg11.dtd">
<svg width="2000px" height="2000px" xmlns="http://www.w3.org/2000/svg" version="1.1" >
	<line x1="348.389" y1="1637.05" x2="282.261" y2="1570.92" stroke-width="0.25" stroke="rgb(0,0,0)" />
	<line x1="282.261" y1="1570.92" x2="150.665" y2="1570.92" stroke-width="0.25" stroke="rgb(0,0,0)" />
	<line x1="150.665" y1="1570.92" x2="150.665" y2="1768.65" stroke-width="0.25" stroke="rgb(0,0,0)" />
	<line x1="150.665" y1="1768.65" x2="348.389" y2="1768.65" stroke-width="0.25" stroke="rgb(0,0,0)" />
	<line x1="348.389" y1="1768.65" x2="348.389" y2="1637.05" stroke-width="0.25" stroke="rgb(0,0,0)" />
	<line x1="326.349" y1="796.758" x2="150.864" y2="796.758" stroke-width="0.25" stroke="rgb(0,0,0)" />
	<line x1="150.864" y1="796.758" x2="150.864" y2="972.243" stroke-width="0.25" stroke="rgb(0,0,0)" />
	<line x1="150.864" y1="972.243" x2="326.349" y2="972.243" stroke-width="0.25" stroke="rgb(0,0,0)" />
	<line x1="326.349" y1="972.243" x2="326.349" y2="796.758" stroke-width="0.25" stroke="rgb(0,0,0)" />
	<line x1="325.487" y1="797.62" x2="151.726" y2="797.62" stroke-width="0.25" stroke="rgb(0,0,0)" />
	<line x1="151.726" y1="797.62" x2="151.726" y2="971.381" stroke-width="0.25" stroke="rgb(0,0,0)" />
	<line x1="151.726" y1="971.381" x2="325.487" y2="971.381" stroke-width="0.25" stroke="rgb(0,0,0)" />
	<line x1="325.487" y1="971.381" x2="325.487" y2="797.62" stroke-width="0.25" stroke="rgb(0,0,0)" />
	<line x1="150.665" y1="1571.61" x2="150.736" y2="1570.92" stroke-width="0.25" stroke="rgb(0,0,0)" />
	<line x1="151.67" y1="1570.92" x2="150.665" y2="1580.49" stroke-width="0.25" stroke="rgb(0,0,0)" />
	<line x1="150.665" y1="1589.38" x2="152.604" y2="1570.92" stroke-width="0.25" stroke="rgb(0,0,0)" />
	<line x1="153.538" y1="1570.92" x2="150.665" y2="1598.27" stroke-width="0.25" stroke="rgb(0,0,0)" />
	<line x1="150.665" y1="1607.15" x2="154.472" y2="1570.92" stroke-width="0.25" stroke="rgb(0,0,0)" />
	<line x1="155.406" y1="1570.92" x2="150.665" y2="1616.04" stroke-width="0.25" stroke="rgb(0,0,0)" />
	<line x1="150.665" y1="1624.93" x2="156.34" y2="1570.92" stroke-width="0.25" stroke="rgb(0,0,0)" />
	<line x1="157.274" y1="1570.92" x2="150.665" y2="1633.81" stroke-width="0.25" stroke="rgb(0,0,0)" />
	<line x1="150.665" y1="1642.7" x2="158.208" y2="1570.92" stroke-width="0.25" stroke="rgb(0,0,0)" />
	<line x1="159.142" y1="1570.92" x2="150.665" y2="1651.59" stroke-width="0.25" stroke="rgb(0,0,0)" />
	<line x1="150.665" y1="1660.47" x2="160.076" y2="1570.92" stroke-width="0.25" stroke="rgb(0,0,0)" />
	<line x1="161.011" y1="1570.92" x2="150.665" y2="1669.36" stroke-width="0.25" stroke="rgb(0,0,0)" />
	<line x1="150.665" y1="1678.25" x2="161.945" y2="1570.92" stroke-width="0.25" stroke="rgb(0,0,0)" />
	<line x1="162.879" y1="1570.92" x2="150.665" y2="1687.13" stroke-width="0.25" stroke="rgb(0,0,0)" />
	<line x1="150.665" y1="1696.02" x2="163.813" y2="1570.92" stroke-width="0.25" stroke="rgb(0,0,0)" />
	<line x1="164.747" y1="1570.92" x2="150.665" y2="1704.91" stroke-width="0.25" stroke="rgb(0,0,0)" />
	<line x1="150.665" y1="1713.79" x2="165.681" y2="1570.92" stroke-width="0.25" stroke="rgb(0,0,0)" />
	<line x1="166.615" y1="1570.92" x2="150.665" y2="1722.68" stroke-width="0.25" stroke="rgb(0,0,0)" />
	<line x1="150.665" y1="1731.57" x2="167.549" y2="1570.92" stroke-width="0.25" stroke="rgb(0,0,0)" />
	<line x1="168.483" y1="1570.92" x2="150.665" y2="1740.45" stroke-width="0.25" stroke="rgb(0,0,0)" />
	<line x1="150.665" y1="1749.34" x2="169.417" y2="1570.92" stroke-width="0.25" stroke="rgb(0,0,0)" />
	<line x1="170.351" y1="1570.92" x2="150.665" y2="1758.23" stroke-width="0.25" stroke="rgb(0,0,0)" />
	<line x1="150.665" y1="1767.11" x2="171.285" y2="1570.92" stroke-width="0.25" stroke="rgb(0,0,0)" />
	<line x1="172.219" y1="1570.92" x2="151.437" y2="1768.65" stroke-width="0.25" stroke="rgb(0,0,0)" />
	<line x1="152.371" y1="1768.65" x2="173.153" y2="1570.92" stroke-width="0.25" stroke="rgb(0,0,0)" />
	<line x1="174.087" y1="1570.92" x2="153.305" y2="1768.65" stroke-width="0.25" stroke="rgb(0,0,0)" />
	<line x1="154.239" y1="1768.65" x2="175.021" y2="1570.92" stroke-width="0.25" stroke="rgb(0,0,0)" />
	<line x1="175.955" y1="1570.92" x2="155.173" y2="1768.65" stroke-width="0.25" stroke="rgb(0,0,0)" />
	<line x1="156.107" y1="1768.65" x2="176.889" y2="1570.92" stroke-width="0.25" stroke="rgb(0,0,0)" />
	<line x1="177.823" y1="1570.92" x2="157.041" y2="1768.65" stroke-width="0.25" stroke="rgb(0,0,0)" />
	<line x1="157.975" y1="1768.65" x2="178.757" y2="1570.92" stroke-width="0.25" stroke="rgb(0,0,0)" />
	<line x1="179.691" y1="1570.92" x2="158.909" y2="1768.65" stroke-width="0.25" stroke="rgb(0,0,0)" />
	<line x1="159.843" y1="1768.65" x2="180.625" y2="1570.92" stroke-width="0.25" stroke="rgb(0,0,0)" />
	<line x1="181.559" y1="1570.92" x2="160.777" y2="1768.65" stroke-width="0.25" stroke="rgb(0,0,0)" />
	<line x1="161.711" y1="1768.65" x2="182.493" y2="1570.92" stroke-width="0.25" stroke="rgb(0,0,0)" />
	<line x1="183.427" y1="1570.92" x2="162.645" y2="1768.65" stroke-width="0.25" stroke="rgb(0,0,0)" />
	<line x1="163.579" y1="1768.65" x2="184.361" y2="1570.92" stroke-width="0.25" stroke="rgb(0,0,0)" />
	<line x1="185.295" y1="1570.92" x2="164.513" y2="1768.65" stroke-width="0.25" stroke="rgb(0,0,0)" />
	<line x1="165.447" y1="1768.65" x2="186.229" y2="1570.92" stroke-width="0.25" stroke="rgb(0,0,0)" />
	<line x1="187.163" y1="1570.92" x2="166.381" y2="1768.65" stroke-width="0.25" stroke="rgb(0,0,0)" />
	<line x1="167.316" y1="1768.65" x2="188.097" y2="1570.92" stroke-width="0.25" stroke="rgb(0,0,0)" />
	<line x1="189.031" y1="1570.92" x2="168.25" y2="1768.65" stroke-width="0.25" stroke="rgb(0,0,0)" />
	<line x1="169.184" y1="1768.65" x2="189.965" y2="1570.92" stroke-width="0.25" stroke="rgb(0,0,0)" />
	<line x1="190.899" y1="1570.92" x2="170.118" y2="1768.65" stroke-width="0.25" stroke="rgb(0,0,0)" />
	<line x1="171.052" y1="1768.65" x2="191.833" y2="1570.92" stroke-width="0.25" stroke="rgb(0,0,0)" />
	<line x1="192.767" y1="1570.92" x2="171.986" y2="1768.65" stroke-width="0.25" stroke="rgb(0,0,0)" />
	<line x1="172.92" y1="1768.65" x2="193.701" y2="1570.92" stroke-width="0.25" stroke="rgb(0,0,0)" />
	<line x1="194.635" y1="1570.92" x2="173.854" y2="1768.65" stroke-width="0.25" stroke="rgb(0,0,0)" />
	<line x1="174.788" y1="1768.65" x2="195.569" y2="1570.92" stroke-width="0.25" stroke="rgb(0,0,0)" />
	<line x1="196.503" y1="1570.92" x2="175.722" y2="1768.65" stroke-width="0.25" stroke="rgb(0,0,0)" />
	<line x1="176.656" y1="1768.65" x2="197.437" y2="1570.92" stroke-width="0.25" stroke="rgb(0,0,0)" />
	<line x1="198.371" y1="1570.92" x2="177.59" y2="1768.65" stroke-width="0.25" stroke="rgb(0,0,0)" />
	<line x1="178.524" y1="1768.65" x2="199.305" y2="1570.92" stroke-width="0.25" stroke="rgb(0,0,0)" />
	<line x1="200.239" y1="1570.92" x2="179.458" y2="1768.65" stroke-width="0.25" stroke="rgb(0,0,0)" />
	<line x1="180.392" y1="1768.65" x2="201.174" y2="1570.92" stroke-width="0.25" stroke="rgb(0,0,0)" />
	<line x1="202.108" y1="1570.92" x2="181.326" y2="1768.65" stroke-width="0.25" stroke="rgb(0,0,0)" />
	<line x1="182.26" y1="1768.65" x2="203.042" y2="1570.92" stroke-width="0.25" stroke="rgb(0,0,0)" />
	<line x1="203.976" y1="1570.92" x2="183.194" y2="1768.65" stroke-width="0.25" stroke="rgb(0,0,0)" />
	<line x1="184.128" y1="1768.65" x2="204.91" y2="1570.92" stroke-width="0.25" stroke="rgb(0,0,0)" />
	<line x1="205.844" y1="1570.92" x2="185.062" y2="1768.65" stroke-width="0.25" stroke="rgb(0,0,0)" />
	<line x1="185.996" y1="1768.65" x2="206.778" y2="1570.92" stroke-width="0.25" stroke="rgb(0,0,0)" />
	<line x1="207.712" y1="1570.92" x2="186.93" y2="1768.65" stroke-width="0.25" stroke="rgb(0,0,0)" />
	<line x1="187.864" y1="1768.65" x2="208.646" y2="1570.92" stroke-width="0.25" stroke="rgb(0,0,0)" />
	<line x1="209.58" y1="1570.92" x2="188.798" y2="1768.65" stroke-width="0.25" stroke="rgb(0,0,0)" />
	<line x1="189.732" y1="1768.65" x2="210.514" y2="1570.92" stroke-width="0.25" stroke="rgb(0,0,0)" />
	<line x1="211.448" y1="1570.92" x2="190.666" y2="1768.65" stroke-width="0.25" stroke="rgb(0,0,0)" />
	<line x1="191.6" y1="1768.65" x2="212.382" y2="1570.92" stroke-width="0.25" stroke="rgb(0,0,0)" />
	<line x1="213.316" y1="1570.92" x2="192.534" y2="1768.65" stroke-width="0.25" stroke="rgb(0,0,0)" />
	<line x1="193.468" y1="1768.65" x2="214.25" y2="1570.92" stroke-width="0.25" stroke="rgb(0,0,0)" />
	<line x1="215.184" y1="1570.92" x2="194.402" y2="1768.65" stroke-width="0.25" stroke="rgb(0,0,0)" />
	<line x1="195.336" y1="1768.65" x2="216.118" y2="1570.92" stroke-width="0.25" stroke="rgb(0,0,0)" />
	<line x1="217.052" y1="1570.92" x2="196.27" y2="1768.65" stroke-width="0.25" stroke="rgb(0,0,0)" />
	<line x1="197.204" y1="1768.65" x2="217.986" y2="1570.92" stroke-width="0.25" stroke="rgb(0,0,0)" />
	<line x1="218.92" y1="1570.92" x2="198.138" y2="1768.65" stroke-width="0.25" stroke="rgb(0,0,0)" />
	<line x1="199.072" y1="1768.65" x2="219.854" y2="1570.92" stroke-width="0.25" stroke="rgb(0,0,0)" />
	<line x1="220.788" y1="1570.92" x2="200.006" y2="1768.65" stroke-width="0.25" stroke="rgb(0,0,0)" />
	<line x1="200.94" y1="1768.65" x2="221.722" y2="1570.92" stroke-width="0.25" stroke="rgb(0,0,0)" />
	<line x1="222.656" y1="1570.92" x2="201.874" y2="1768.65" stroke-width="0.25" stroke="rgb(0,0,0)" />
	<line x1="202.808" y1="1768.65" x2="223.59" y2="1570.92" stroke-width="0.25" stroke="rgb(0,0,0)" />
	<line x1="224.524" y1="1570.92" x2="203.742" y2="1768.65" stroke-width="0.25" stroke="rgb(0,0,0)" />
	<line x1="204.676" y1="1768.65" x2="225.458" y2="1570.92" stroke-width="0.25" stroke="rgb(0,0,0)" />
	<line x1="226.392" y1="1570.92" x2="205.61" y2="1768.65" stroke-width="0.25" stroke="rgb(0,0,0)" />
	<line x1="206.545" y1="1768.65" x2="227.326" y2="1570.92" stroke-width="0.25" stroke="rgb(0,0,0)" />
	<line x1="228.26" y1="1570.92" x2="207.479" y2="1768.65" stroke-width="0.25" stroke="rgb(0,0,0)" />
	<line x1="208.413" y1="1768.65" x2="229.194" y2="1570.92" stroke-width="0.25" stroke="rgb(0,0,0)" />
	<line x1="230.128" y1="1570.92" x2="209.347" y2="1768.65" stroke-width="0.25" stroke="rgb(0,0,0)" />
	<line x1="210.281" y1="1768.65" x2="231.062" y2="1570.92" stroke-width="0.25" stroke="rgb(0,0,0)" />
	<line x1="231.996" y1="1570.92" x2="211.215" y2="1768.65" stroke-width="0.25" stroke="rgb(0,0,0)" />
	<line x1="212.149" y1="1768.65" x2="232.93" y2="1570.92" stroke-width="0.25" stroke="rgb(0,0,0)" />
	<line x1="233.864" y1="1570.92" x2="213.083" y2="1768.65" stroke-width="0.25" stroke="rgb(0,0,0)" />
	<line x1="214.017" y1="1768.65" x2="234.798" y2="1570.92" stroke-width="0.25" stroke="rgb(0,0,0)" />
	<line x1="235.732" y1="1570.92" x2="214.951" y2="1768.65" stroke-width="0.25" stroke="rgb(0,0,0)" />
	<line x1="215.885" y1="1768.65" x2="236.666" y2="1570.92" stroke-width="0.25" stroke="rgb(0,0,0)" />
	<line x1="237.6" y1="1570.92" x2="216.819" y2="1768.65" stroke-width="0.25" stroke="rgb(0,0,0)" />
	<line x1="217.753" y1="1768.65" x2="238.534" y2="1570.92" stroke-width="0.25" stroke="rgb(0,0,0)" />
	<line x1="239.468" y1="1570.92" x2="218.687" y2="1768.65" stroke-width="0.25" stroke="rgb(0,0,0)" />
	<line x1="219.621" y1="1768.65" x2="240.403" y2="1570.92" stroke-width="0.25" stroke="rgb(0,0,0)" />
	<line x1="241.337" y1="1570.92" x2="220.555" y2="1768.65" stroke-width="0.25" stroke="rgb(0,0,0)" />
	<line x1="221.489" y1="1768.65" x2="242.271" y2="1570.92" stroke-width="0.25" stroke="rgb(0,0,0)" />
	<line x1="243.205" y1="1570.92" x2="222.423" y2="1768.65" stroke-width="0.25" stroke="rgb(0,0,0)" />
	<line x1="223.357" y1="1768.65" x2="244.139" y2="1570.92" stroke-width="0.25" stroke="rgb(0,0,0)" />
	<line x1="245.073" y1="1570.92" x2="224.291" y2="1768.65" stroke-width="0.25" stroke="rgb(0,0,0)" />
	<line x1="225.225" y1="1768.65" x2="246.007" y2="1570.92" stroke-width="0.25" stroke="rgb(0,0,0)" />
	<line x1="246.941" y1="1570.92" x2="226.159" y2="1768.65" stroke-width="0.25" stroke="rgb(0,0,0)" />
	<line x1="227.093" y1="1768.65" x2="247.875" y2="1570.92" stroke-width="0.25" stroke="rgb(0,0,0)" />
	<line x1="248.809" y1="1570.92" x2="228.027" y2="1768.65" stroke-width="0.25" stroke="rgb(0,0,0)" />
	<line x1="228.961" y1="1768.65" x2="249.743" y2="1570.92" stroke-width="0.25" stroke="rgb(0,0,0)" />
	<line x1="250.677" y1="1570.92" x2="229.895" y2="1768.65" stroke-width="0.25" stroke="rgb(0,0,0)" />
	<line x1="230.829" y1="1768.65" x2="251.611" y2="1570.92" stroke-width="0.25" stroke="rgb(0,0,0)" />
	<line x1="252.545" y1="1570.92" x2="231.763" y2="1768.65" stroke-width="0.25" stroke="rgb(0,0,0)" />
	<line x1="232.697" y1="1768.65" x2="253.479" y2="1570.92" stroke-width="0.25" stroke="rgb(0,0,0)" />
	<line x1="254.413" y1="1570.92" x2="233.631" y2="1768.65" stroke-width="0.25" stroke="rgb(0,0,0)" />
	<line x1="234.565" y1="1768.65" x2="255.347" y2="1570.92" stroke-width="0.25" stroke="rgb(0,0,0)" />
	<line x1="256.281" y1="1570.92" x2="235.499" y2="1768.65" stroke-width="0.25" stroke="rgb(0,0,0)" />
	<line x1="236.433" y1="1768.65" x2="257.215" y2="1570.92" stroke-width="0.25" stroke="rgb(0,0,0)" />
	<line x1="258.149" y1="1570.92" x2="237.367" y2="1768.65" stroke-width="0.25" stroke="rgb(0,0,0)" />
	<line x1="238.301" y1="1768.65" x2="259.083" y2="1570.92" stroke-width="0.25" stroke="rgb(0,0,0)" />
	<line x1="260.017" y1="1570.92" x2="239.235" y2="1768.65" stroke-width="0.25" stroke="rgb(0,0,0)" />
	<line x1="240.169" y1="1768.65" x2="260.951" y2="1570.92" stroke-width="0.25" stroke="rgb(0,0,0)" />
	<line x1="261.885" y1="1570.92" x2="241.103" y2="1768.65" stroke-width="0.25" stroke="rgb(0,0,0)" />
	<line x1="242.037" y1="1768.65" x2="262.819" y2="1570.92" stroke-width="0.25" stroke="rgb(0,0,0)" />
	<line x1="263.753" y1="1570.92" x2="242.971" y2="1768.65" stroke-width="0.25" stroke="rgb(0,0,0)" />
	<line x1="243.905" y1="1768.65" x2="264.687" y2="1570.92" stroke-width="0.25" stroke="rgb(0,0,0)" />
	<line x1="265.621" y1="1570.92" x2="244.839" y2="1768.65" stroke-width="0.25" stroke="rgb(0,0,0)" />
	<line x1="245.773" y1="1768.65" x2="266.555" y2="1570.92" stroke-width="0.25" stroke="rgb(0,0,0)" />
	<line x1="267.489" y1="1570.92" x2="246.708" y2="1768.65" stroke-width="0.25" stroke="rgb(0,0,0)" />
	<line x1="247.642" y1="1768.65" x2="268.423" y2="1570.92" stroke-width="0.25" stroke="rgb(0,0,0)" />
	<line x1="269.357" y1="1570.92" x2="248.576" y2="1768.65" stroke-width="0.25" stroke="rgb(0,0,0)" />
	<line x1="249.51" y1="1768.65" x2="270.291" y2="1570.92" stroke-width="0.25" stroke="rgb(0,0,0)" />
	<line x1="271.225" y1="1570.92" x2="250.444" y2="1768.65" stroke-width="0.25" stroke="rgb(0,0,0)" />
	<line x1="251.378" y1="1768.65" x2="272.159" y2="1570.92" stroke-width="0.25" stroke="rgb(0,0,0)" />
	<line x1="273.093" y1="1570.92" x2="252.312" y2="1768.65" stroke-width="0.25" stroke="rgb(0,0,0)" />
	<line x1="253.246" y1="1768.65" x2="274.027" y2="1570.92" stroke-width="0.25" stroke="rgb(0,0,0)" />
	<line x1="274.961" y1="1570.92" x2="254.18" y2="1768.65" stroke-width="0.25" stroke="rgb(0,0,0)" />
	<line x1="255.114" y1="1768.65" x2="275.895" y2="1570.92" stroke-width="0.25" stroke="rgb(0,0,0)" />
	<line x1="276.829" y1="1570.92" x2="256.048" y2="1768.65" stroke-width="0.25" stroke="rgb(0,0,0)" />
	<line x1="256.982" y1="1768.65" x2="277.763" y2="1570.92" stroke-width="0.25" stroke="rgb(0,0,0)" />
	<line x1="278.697" y1="1570.92" x2="257.916" y2="1768.65" stroke-width="0.25" stroke="rgb(0,0,0)" />
	<line x1="258.85" y1="1768.65" x2="279.632" y2="1570.92" stroke-width="0.25" stroke="rgb(0,0,0)" />
	<line x1="280.566" y1="1570.92" x2="259.784" y2="1768.65" stroke-width="0.25" stroke="rgb(0,0,0)" />
	<line x1="260.718" y1="1768.65" x2="281.5" y2="1570.92" stroke-width="0.25" stroke="rgb(0,0,0)" />
	<line x1="282.417" y1="1571.08" x2="261.652" y2="1768.65" stroke-width="0.25" stroke="rgb(0,0,0)" />
	<line x1="262.586" y1="1768.65" x2="283.262" y2="1571.93" stroke-width="0.25" stroke="rgb(0,0,0)" />
	<line x1="284.108" y1="1572.77" x2="263.52" y2="1768.65" stroke-width="0.25" stroke="rgb(0,0,0)" />
	<line x1="264.454" y1="1768.65" x2="284.953" y2="1573.62" stroke-width="0.25" stroke="rgb(0,0,0)" />
	<line x1="285.798" y1="1574.46" x2="265.388" y2="1768.65" stroke-width="0.25" stroke="rgb(0,0,0)" />
	<line x1="266.322" y1="1768.65" x2="286.643" y2="1575.31" stroke-width="0.25" stroke="rgb(0,0,0)" />
	<line x1="287.488" y1="1576.15" x2="267.256" y2="1768.65" stroke-width="0.25" stroke="rgb(0,0,0)" />
	<line x1="268.19" y1="1768.65" x2="288.334" y2="1577" stroke-width="0.25" stroke="rgb(0,0,0)" />
	<line x1="289.179" y1="1577.84" x2="269.124" y2="1768.65" stroke-width="0.25" stroke="rgb(0,0,0)" />
	<line x1="270.058" y1="1768.65" x2="290.024" y2="1578.69" stroke-width="0.25" stroke="rgb(0,0,0)" />
	<line x1="290.869" y1="1579.53" x2="270.992" y2="1768.65" stroke-width="0.25" stroke="rgb(0,0,0)" />
	<line x1="271.926" y1="1768.65" x2="291.714" y2="1580.38" stroke-width="0.25" stroke="rgb(0,0,0)" />
	<line x1="292.559" y1="1581.22" x2="272.86" y2="1768.65" stroke-width="0.25" stroke="rgb(0,0,0)" />
	<line x1="273.794" y1="1768.65" x2="293.405" y2="1582.07" stroke-width="0.25" stroke="rgb(0,0,0)" />
	<line x1="294.25" y1="1582.91" x2="274.728" y2="1768.65" stroke-width="0.25" stroke="rgb(0,0,0)" />
	<line x1="275.662" y1="1768.65" x2="295.095" y2="1583.76" stroke-width="0.25" stroke="rgb(0,0,0)" />
	<line x1="295.94" y1="1584.6" x2="276.596" y2="1768.65" stroke-width="0.25" stroke="rgb(0,0,0)" />
	<line x1="277.53" y1="1768.65" x2="296.785" y2="1585.45" stroke-width="0.25" stroke="rgb(0,0,0)" />
	<line x1="297.631" y1="1586.29" x2="278.464" y2="1768.65" stroke-width="0.25" stroke="rgb(0,0,0)" />
	<line x1="279.398" y1="1768.65" x2="298.476" y2="1587.14" stroke-width="0.25" stroke="rgb(0,0,0)" />
	<line x1="299.321" y1="1587.98" x2="280.332" y2="1768.65" stroke-width="0.25" stroke="rgb(0,0,0)" />
	<line x1="281.266" y1="1768.65" x2="300.166" y2="1588.83" stroke-width="0.25" stroke="rgb(0,0,0)" />
	<line x1="301.011" y1="1589.67" x2="282.2" y2="1768.65" stroke-width="0.25" stroke="rgb(0,0,0)" />
	<line x1="283.134" y1="1768.65" x2="301.857" y2="1590.52" stroke-width="0.25" stroke="rgb(0,0,0)" />
	<line x1="302.702" y1="1591.36" x2="284.068" y2="1768.65" stroke-width="0.25" stroke="rgb(0,0,0)" />
	<line x1="285.002" y1="1768.65" x2="303.547" y2="1592.21" stroke-width="0.25" stroke="rgb(0,0,0)" />
	<line x1="304.392" y1="1593.05" x2="285.937" y2="1768.65" stroke-width="0.25" stroke="rgb(0,0,0)" />
	<line x1="286.871" y1="1768.65" x2="305.237" y2="1593.9" stroke-width="0.25" stroke="rgb(0,0,0)" />
	<line x1="306.083" y1="1594.75" x2="287.805" y2="1768.65" stroke-width="0.25" stroke="rgb(0,0,0)" />
	<line x1="288.739" y1="1768.65" x2="306.928" y2="1595.59" stroke-width="0.25" stroke="rgb(0,0,0)" />
	<line x1="307.773" y1="1596.44" x2="289.673" y2="1768.65" stroke-width="0.25" stroke="rgb(0,0,0)" />
	<line x1="290.607" y1="1768.65" x2="308.618" y2="1597.28" stroke-width="0.25" stroke="rgb(0,0,0)" />
	<line x1="309.463" y1="1598.13" x2="291.541" y2="1768.65" stroke-width="0.25" stroke="rgb(0,0,0)" />
	<line x1="292.475" y1="1768.65" x2="310.308" y2="1598.97" stroke-width="0.25" stroke="rgb(0,0,0)" />
	<line x1="311.154" y1="1599.82" x2="293.409" y2="1768.65" stroke-width="0.25" stroke="rgb(0,0,0)" />
	<line x1="294.343" y1="1768.65" x2="311.999" y2="1600.66" stroke-width="0.25" stroke="rgb(0,0,0)" />
	<line x1="312.844" y1="1601.51" x2="295.277" y2="1768.65" stroke-width="0.25" stroke="rgb(0,0,0)" />
	<line x1="296.211" y1="1768.65" x2="313.689" y2="1602.35" stroke-width="0.25" stroke="rgb(0,0,0)" />
	<line x1="314.534" y1="1603.2" x2="297.145" y2="1768.65" stroke-width="0.25" stroke="rgb(0,0,0)" />
	<line x1="298.079" y1="1768.65" x2="315.38" y2="1604.04" stroke-width="0.25" stroke="rgb(0,0,0)" />
	<line x1="316.225" y1="1604.89" x2="299.013" y2="1768.65" stroke-width="0.25" stroke="rgb(0,0,0)" />
	<line x1="299.947" y1="1768.65" x2="317.07" y2="1605.73" stroke-width="0.25" stroke="rgb(0,0,0)" />
	<line x1="317.915" y1="1606.58" x2="300.881" y2="1768.65" stroke-width="0.25" stroke="rgb(0,0,0)" />
	<line x1="301.815" y1="1768.65" x2="318.76" y2="1607.42" stroke-width="0.25" stroke="rgb(0,0,0)" />
	<line x1="319.606" y1="1608.27" x2="302.749" y2="1768.65" stroke-width="0.25" stroke="rgb(0,0,0)" />
	<line x1="303.683" y1="1768.65" x2="320.451" y2="1609.11" stroke-width="0.25" stroke="rgb(0,0,0)" />
	<line x1="321.296" y1="1609.96" x2="304.617" y2="1768.65" stroke-width="0.25" stroke="rgb(0,0,0)" />
	<line x1="305.551" y1="1768.65" x2="322.141" y2="1610.8" stroke-width="0.25" stroke="rgb(0,0,0)" />
	<line x1="322.986" y1="1611.65" x2="306.485" y2="1768.65" stroke-width="0.25" stroke="rgb(0,0,0)" />
	<line x1="307.419" y1="1768.65" x2="323.832" y2="1612.49" stroke-width="0.25" stroke="rgb(0,0,0)" />
	<line x1="324.677" y1="1613.34" x2="308.353" y2="1768.65" stroke-width="0.25" stroke="rgb(0,0,0)" />
	<line x1="309.287" y1="1768.65" x2="325.522" y2="1614.18" stroke-width="0.25" stroke="rgb(0,0,0)" />
	<line x1="326.367" y1="1615.03" x2="310.221" y2="1768.65" stroke-width="0.25" stroke="rgb(0,0,0)" />
	<line x1="311.155" y1="1768.65" x2="327.212" y2="1615.88" stroke-width="0.25" stroke="rgb(0,0,0)" />
	<line x1="328.057" y1="1616.72" x2="312.089" y2="1768.65" stroke-width="0.25" stroke="rgb(0,0,0)" />
	<line x1="313.023" y1="1768.65" x2="328.903" y2="1617.57" stroke-width="0.25" stroke="rgb(0,0,0)" />
	<line x1="329.748" y1="1618.41" x2="313.957" y2="1768.65" stroke-width="0.25" stroke="rgb(0,0,0)" />
	<line x1="314.891" y1="1768.65" x2="330.593" y2="1619.26" stroke-width="0.25" stroke="rgb(0,0,0)" />
	<line x1="331.438" y1="1620.1" x2="315.825" y2="1768.65" stroke-width="0.25" stroke="rgb(0,0,0)" />
	<line x1="316.759" y1="1768.65" x2="332.283" y2="1620.95" stroke-width="0.25" stroke="rgb(0,0,0)" />
	<line x1="333.129" y1="1621.79" x2="317.693" y2="1768.65" stroke-width="0.25" stroke="rgb(0,0,0)" />
	<line x1="318.627" y1="1768.65" x2="333.974" y2="1622.64" stroke-width="0.25" stroke="rgb(0,0,0)" />
	<line x1="334.819" y1="1623.48" x2="319.561" y2="1768.65" stroke-width="0.25" stroke="rgb(0,0,0)" />
	<line x1="320.495" y1="1768.65" x2="335.664" y2="1624.33" stroke-width="0.25" stroke="rgb(0,0,0)" />
	<line x1="336.509" y1="1625.17" x2="321.429" y2="1768.65" stroke-width="0.25" stroke="rgb(0,0,0)" />
	<line x1="322.363" y1="1768.65" x2="337.355" y2="1626.02" stroke-width="0.25" stroke="rgb(0,0,0)" />
	<line x1="338.2" y1="1626.86" x2="323.297" y2="1768.65" stroke-width="0.25" stroke="rgb(0,0,0)" />
	<line x1="324.231" y1="1768.65" x2="339.045" y2="1627.71" stroke-width="0.25" stroke="rgb(0,0,0)" />
	<line x1="339.89" y1="1628.55" x2="325.166" y2="1768.65" stroke-width="0.25" stroke="rgb(0,0,0)" />
	<line x1="326.1" y1="1768.65" x2="340.735" y2="1629.4" stroke-width="0.25" stroke="rgb(0,0,0)" />
	<line x1="341.581" y1="1630.24" x2="327.034" y2="1768.65" stroke-width="0.25" stroke="rgb(0,0,0)" />
	<line x1="327.968" y1="1768.65" x2="342.426" y2="1631.09" stroke-width="0.25" stroke="rgb(0,0,0)" />
	<line x1="343.271" y1="1631.93" x2="328.902" y2="1768.65" stroke-width="0.25" stroke="rgb(0,0,0)" />
	<line x1="329.836" y1="1768.65" x2="344.116" y2="1632.78" stroke-width="0.25" stroke="rgb(0,0,0)" />
	<line x1="344.961" y1="1633.62" x2="330.77" y2="1768.65" stroke-width="0.25" stroke="rgb(0,0,0)" />
	<line x1="331.704" y1="1768.65" x2="345.806" y2="1634.47" stroke-width="0.25" stroke="rgb(0,0,0)" />
	<line x1="346.652" y1="1635.31" x2="332.638" y2="1768.65" stroke-width="0.25" stroke="rgb(0,0,0)" />
	<line x1="333.572" y1="1768.65" x2="347.497" y2="1636.16" stroke-width="0.25" stroke="rgb(0,0,0)" />
	<line x1="348.342" y1="1637" x2="334.506" y2="1768.65" stroke-width="0.25" stroke="rgb(0,0,0)" />
	<line x1="335.44" y1="1768.65" x2="348.389" y2="1645.44" stroke-width="0.25" stroke="rgb(0,0,0)" />
	<line x1="348.389" y1="1654.33" x2="336.374" y2="1768.65" stroke-width="0.25" stroke="rgb(0,0,0)" />
	<line x1="337.308" y1="1768.65" x2="348.389" y2="1663.22" stroke-width="0.25" stroke="rgb(0,0,0)" />
	<line x1="348.389" y1="1672.1" x2="338.242" y2="1768.65" stroke-width="0.25" stroke="rgb(0,0,0)" />
	<line x1="339.176" y1="1768.65" x2="348.389" y2="1680.99" stroke-width="0.25" stroke="rgb(0,0,0)" />
	<line x1="348.389" y1="1689.88" x2="340.11" y2="1768.65" stroke-width="0.25" stroke="rgb(0,0,0)" />
	<line x1="341.044" y1="1768.65" x2="348.389" y2="1698.76" stroke-width="0.25" stroke="rgb(0,0,0)" />
	<line x1="348.389" y1="1707.65" x2="341.978" y2="1768.65" stroke-width="0.25" stroke="rgb(0,0,0)" />
	<line x1="342.912" y1="1768.65" x2="348.389" y2="1716.54" stroke-width="0.25" stroke="rgb(0,0,0)" />
	<line x1="348.389" y1="1725.42" x2="343.846" y2="1768.65" stroke-width="0.25" stroke="rgb(0,0,0)" />
	<line x1="344.78" y1="1768.65" x2="348.389" y2="1734.31" stroke-width="0.25" stroke="rgb(0,0,0)" />
	<line x1="348.389" y1="1743.2" x2="345.714" y2="1768.65" stroke-width="0.25" stroke="rgb(0,0,0)" />
	<line x1="346.648" y1="1768.65" x2="348.389" y2="1752.08" stroke-width="0.25" stroke="rgb(0,0,0)" />
	<line x1="348.389" y1="1760.97" x2="347.582" y2="1768.65" stroke-width="0.25" stroke="rgb(0,0,0)" />
	<line x1="152.522" y1="806.183" x2="153.339" y2="798.416" stroke-width="0.25" stroke="rgb(0,0,0)" />
	<line x1="154.54" y1="798.416" x2="152.522" y2="817.609" stroke-width="0.25" stroke="rgb(0,0,0)" />
	<line x1="152.522" y1="829.035" x2="155.74" y2="798.416" stroke-width="0.25" stroke="rgb(0,0,0)" />
	<line x1="156.941" y1="798.416" x2="152.522" y2="840.46" stroke-width="0.25" stroke="rgb(0,0,0)" />
	<line x1="152.522" y1="851.886" x2="158.142" y2="798.416" stroke-width="0.25" stroke="rgb(0,0,0)" />
	<line x1="159.343" y1="798.416" x2="152.522" y2="863.312" stroke-width="0.25" stroke="rgb(0,0,0)" />
	<line x1="152.522" y1="874.737" x2="160.544" y2="798.416" stroke-width="0.25" stroke="rgb(0,0,0)" />
	<line x1="161.745" y1="798.416" x2="152.522" y2="886.163" stroke-width="0.25" stroke="rgb(0,0,0)" />
	<line x1="152.522" y1="897.589" x2="162.946" y2="798.416" stroke-width="0.25" stroke="rgb(0,0,0)" />
	<line x1="164.147" y1="798.416" x2="152.522" y2="909.014" stroke-width="0.25" stroke="rgb(0,0,0)" />
	<line x1="152.522" y1="920.44" x2="165.348" y2="798.416" stroke-width="0.25" stroke="rgb(0,0,0)" />
	<line x1="166.548" y1="798.416" x2="152.522" y2="931.866" stroke-width="0.25" stroke="rgb(0,0,0)" />
	<line x1="152.522" y1="943.291" x2="167.749" y2="798.416" stroke-width="0.25" stroke="rgb(0,0,0)" />
	<line x1="168.95" y1="798.416" x2="152.522" y2="954.717" stroke-width="0.25" stroke="rgb(0,0,0)" />
	<line x1="152.522" y1="966.143" x2="170.151" y2="798.416" stroke-width="0.25" stroke="rgb(0,0,0)" />
	<line x1="171.352" y1="798.416" x2="153.256" y2="970.585" stroke-width="0.25" stroke="rgb(0,0,0)" />
	<line x1="154.457" y1="970.585" x2="172.553" y2="798.416" stroke-width="0.25" stroke="rgb(0,0,0)" />
	<line x1="173.754" y1="798.416" x2="155.658" y2="970.585" stroke-width="0.25" stroke="rgb(0,0,0)" />
	<line x1="156.859" y1="970.585" x2="174.955" y2="798.416" stroke-width="0.25" stroke="rgb(0,0,0)" />
	<line x1="176.156" y1="798.416" x2="158.06" y2="970.585" stroke-width="0.25" stroke="rgb(0,0,0)" />
	<line x1="159.261" y1="970.585" x2="177.356" y2="798.416" stroke-width="0.25" stroke="rgb(0,0,0)" />
	<line x1="178.557" y1="798.416" x2="160.462" y2="970.585" stroke-width="0.25" stroke="rgb(0,0,0)" />
	<line x1="161.663" y1="970.585" x2="179.758" y2="798.416" stroke-width="0.25" stroke="rgb(0,0,0)" />
	<line x1="180.959" y1="798.416" x2="162.863" y2="970.585" stroke-width="0.25" stroke="rgb(0,0,0)" />
	<line x1="164.064" y1="970.585" x2="182.16" y2="798.416" stroke-width="0.25" stroke="rgb(0,0,0)" />
	<line x1="183.361" y1="798.416" x2="165.265" y2="970.585" stroke-width="0.25" stroke="rgb(0,0,0)" />
	<line x1="166.466" y1="970.585" x2="184.562" y2="798.416" stroke-width="0.25" stroke="rgb(0,0,0)" />
	<line x1="185.763" y1="798.416" x2="167.667" y2="970.585" stroke-width="0.25" stroke="rgb(0,0,0)" />
	<line x1="168.868" y1="970.585" x2="186.964" y2="798.416" stroke-width="0.25" stroke="rgb(0,0,0)" />
	<line x1="188.164" y1="798.416" x2="170.069" y2="970.585" stroke-width="0.25" stroke="rgb(0,0,0)" />
	<line x1="171.27" y1="970.585" x2="189.365" y2="798.416" stroke-width="0.25" stroke="rgb(0,0,0)" />
	<line x1="190.566" y1="798.416" x2="172.471" y2="970.585" stroke-width="0.25" stroke="rgb(0,0,0)" />
	<line x1="173.671" y1="970.585" x2="191.767" y2="798.416" stroke-width="0.25" stroke="rgb(0,0,0)" />
	<line x1="192.968" y1="798.416" x2="174.872" y2="970.585" stroke-width="0.25" stroke="rgb(0,0,0)" />
	<line x1="176.073" y1="970.585" x2="194.169" y2="798.416" stroke-width="0.25" stroke="rgb(0,0,0)" />
	<line x1="195.37" y1="798.416" x2="177.274" y2="970.585" stroke-width="0.25" stroke="rgb(0,0,0)" />
	<line x1="178.475" y1="970.585" x2="196.571" y2="798.416" stroke-width="0.25" stroke="rgb(0,0,0)" />
	<line x1="197.771" y1="798.416" x2="179.676" y2="970.585" stroke-width="0.25" stroke="rgb(0,0,0)" />
	<line x1="180.877" y1="970.585" x2="198.972" y2="798.416" stroke-width="0.25" stroke="rgb(0,0,0)" />
	<line x1="200.173" y1="798.416" x2="182.078" y2="970.585" stroke-width="0.25" stroke="rgb(0,0,0)" />
	<line x1="183.279" y1="970.585" x2="201.374" y2="798.416" stroke-width="0.25" stroke="rgb(0,0,0)" />
	<line x1="202.575" y1="798.416" x2="184.479" y2="970.585" stroke-width="0.25" stroke="rgb(0,0,0)" />
	<line x1="185.68" y1="970.585" x2="203.776" y2="798.416" stroke-width="0.25" stroke="rgb(0,0,0)" />
	<line x1="204.977" y1="798.416" x2="186.881" y2="970.585" stroke-width="0.25" stroke="rgb(0,0,0)" />
	<line x1="188.082" y1="970.585" x2="206.178" y2="798.416" stroke-width="0.25" stroke="rgb(0,0,0)" />
	<line x1="207.379" y1="798.416" x2="189.283" y2="970.585" stroke-width="0.25" stroke="rgb(0,0,0)" />
	<line x1="190.484" y1="970.585" x2="208.579" y2="798.416" stroke-width="0.25" stroke="rgb(0,0,0)" />
	<line x1="209.78" y1="798.416" x2="191.685" y2="970.585" stroke-width="0.25" stroke="rgb(0,0,0)" />
	<line x1="192.886" y1="970.585" x2="210.981" y2="798.416" stroke-width="0.25" stroke="rgb(0,0,0)" />
	<line x1="212.182" y1="798.416" x2="194.087" y2="970.585" stroke-width="0.25" stroke="rgb(0,0,0)" />
	<line x1="195.287" y1="970.585" x2="213.383" y2="798.416" stroke-width="0.25" stroke="rgb(0,0,0)" />
	<line x1="214.584" y1="798.416" x2="196.488" y2="970.585" stroke-width="0.25" stroke="rgb(0,0,0)" />
	<line x1="197.689" y1="970.585" x2="215.785" y2="798.416" stroke-width="0.25" stroke="rgb(0,0,0)" />
	<line x1="216.986" y1="798.416" x2="198.89" y2="970.585" stroke-width="0.25" stroke="rgb(0,0,0)" />
	<line x1="200.091" y1="970.585" x2="218.187" y2="798.416" stroke-width="0.25" stroke="rgb(0,0,0)" />
	<line x1="219.387" y1="798.416" x2="201.292" y2="970.585" stroke-width="0.25" stroke="rgb(0,0,0)" />
	<line x1="202.493" y1="970.585" x2="220.588" y2="798.416" stroke-width="0.25" stroke="rgb(0,0,0)" />
	<line x1="221.789" y1="798.416" x2="203.694" y2="970.585" stroke-width="0.25" stroke="rgb(0,0,0)" />
	<line x1="204.895" y1="970.585" x2="222.99" y2="798.416" stroke-width="0.25" stroke="rgb(0,0,0)" />
	<line x1="224.191" y1="798.416" x2="206.095" y2="970.585" stroke-width="0.25" stroke="rgb(0,0,0)" />
	<line x1="207.296" y1="970.585" x2="225.392" y2="798.416" stroke-width="0.25" stroke="rgb(0,0,0)" />
	<line x1="226.593" y1="798.416" x2="208.497" y2="970.585" stroke-width="0.25" stroke="rgb(0,0,0)" />
	<line x1="209.698" y1="970.585" x2="227.794" y2="798.416" stroke-width="0.25" stroke="rgb(0,0,0)" />
	<line x1="228.995" y1="798.416" x2="210.899" y2="970.585" stroke-width="0.25" stroke="rgb(0,0,0)" />
	<line x1="212.1" y1="970.585" x2="230.195" y2="798.416" stroke-width="0.25" stroke="rgb(0,0,0)" />
	<line x1="231.396" y1="798.416" x2="213.301" y2="970.585" stroke-width="0.25" stroke="rgb(0,0,0)" />
	<line x1="214.502" y1="970.585" x2="232.597" y2="798.416" stroke-width="0.25" stroke="rgb(0,0,0)" />
	<line x1="233.798" y1="798.416" x2="215.702" y2="970.585" stroke-width="0.25" stroke="rgb(0,0,0)" />
	<line x1="216.903" y1="970.585" x2="234.999" y2="798.416" stroke-width="0.25" stroke="rgb(0,0,0)" />
	<line x1="236.2" y1="798.416" x2="218.104" y2="970.585" stroke-width="0.25" stroke="rgb(0,0,0)" />
	<line x1="219.305" y1="970.585" x2="237.401" y2="798.416" stroke-width="0.25" stroke="rgb(0,0,0)" />
	<line x1="238.602" y1="798.416" x2="220.506" y2="970.585" stroke-width="0.25" stroke="rgb(0,0,0)" />
	<line x1="221.707" y1="970.585" x2="239.803" y2="798.416" stroke-width="0.25" stroke="rgb(0,0,0)" />
	<line x1="241.003" y1="798.416" x2="222.908" y2="970.585" stroke-width="0.25" stroke="rgb(0,0,0)" />
	<line x1="224.109" y1="970.585" x2="242.204" y2="798.416" stroke-width="0.25" stroke="rgb(0,0,0)" />
	<line x1="243.405" y1="798.416" x2="225.31" y2="970.585" stroke-width="0.25" stroke="rgb(0,0,0)" />
	<line x1="226.51" y1="970.585" x2="244.606" y2="798.416" stroke-width="0.25" stroke="rgb(0,0,0)" />
	<line x1="245.807" y1="798.416" x2="227.711" y2="970.585" stroke-width="0.25" stroke="rgb(0,0,0)" />
	<line x1="228.912" y1="970.585" x2="247.008" y2="798.416" stroke-width="0.25" stroke="rgb(0,0,0)" />
	<line x1="248.209" y1="798.416" x2="230.113" y2="970.585" stroke-width="0.25" stroke="rgb(0,0,0)" />
	<line x1="231.314" y1="970.585" x2="249.41" y2="798.416" stroke-width="0.25" stroke="rgb(0,0,0)" />
	<line x1="250.611" y1="798.416" x2="232.515" y2="970.585" stroke-width="0.25" stroke="rgb(0,0,0)" />
	<line x1="233.716" y1="970.585" x2="251.811" y2="798.416" stroke-width="0.25" stroke="rgb(0,0,0)" />
	<line x1="253.012" y1="798.416" x2="234.917" y2="970.585" stroke-width="0.25" stroke="rgb(0,0,0)" />
	<line x1="236.118" y1="970.585" x2="254.213" y2="798.416" stroke-width="0.25" stroke="rgb(0,0,0)" />
	<line x1="255.414" y1="798.416" x2="237.318" y2="970.585" stroke-width="0.25" stroke="rgb(0,0,0)" />
	<line x1="238.519" y1="970.585" x2="256.615" y2="798.416" stroke-width="0.25" stroke="rgb(0,0,0)" />
	<line x1="257.816" y1="798.416" x2="239.72" y2="970.585" stroke-width="0.25" stroke="rgb(0,0,0)" />
	<line x1="240.921" y1="970.585" x2="259.017" y2="798.416" stroke-width="0.25" stroke="rgb(0,0,0)" />
	<line x1="260.218" y1="798.416" x2="242.122" y2="970.585" stroke-width="0.25" stroke="rgb(0,0,0)" />
	<line x1="243.323" y1="970.585" x2="261.419" y2="798.416" stroke-width="0.25" stroke="rgb(0,0,0)" />
	<line x1="262.619" y1="798.416" x2="244.524" y2="970.585" stroke-width="0.25" stroke="rgb(0,0,0)" />
	<line x1="245.725" y1="970.585" x2="263.82" y2="798.416" stroke-width="0.25" stroke="rgb(0,0,0)" />
	<line x1="265.021" y1="798.416" x2="246.926" y2="970.585" stroke-width="0.25" stroke="rgb(0,0,0)" />
	<line x1="248.126" y1="970.585" x2="266.222" y2="798.416" stroke-width="0.25" stroke="rgb(0,0,0)" />
	<line x1="267.423" y1="798.416" x2="249.327" y2="970.585" stroke-width="0.25" stroke="rgb(0,0,0)" />
	<line x1="250.528" y1="970.585" x2="268.624" y2="798.416" stroke-width="0.25" stroke="rgb(0,0,0)" />
	<line x1="269.825" y1="798.416" x2="251.729" y2="970.585" stroke-width="0.25" stroke="rgb(0,0,0)" />
	<line x1="252.93" y1="970.585" x2="271.026" y2="798.416" stroke-width="0.25" stroke="rgb(0,0,0)" />
	<line x1="272.227" y1="798.416" x2="254.131" y2="970.585" stroke-width="0.25" stroke="rgb(0,0,0)" />
	<line x1="255.332" y1="970.585" x2="273.427" y2="798.416" stroke-width="0.25" stroke="rgb(0,0,0)" />
	<line x1="274.628" y1="798.416" x2="256.533" y2="970.585" stroke-width="0.25" stroke="rgb(0,0,0)" />
	<line x1="257.734" y1="970.585" x2="275.829" y2="798.416" stroke-width="0.25" stroke="rgb(0,0,0)" />
	<line x1="277.03" y1="798.416" x2="258.934" y2="970.585" stroke-width="0.25" stroke="rgb(0,0,0)" />
	<line x1="260.135" y1="970.585" x2="278.231" y2="798.416" stroke-width="0.25" stroke="rgb(0,0,0)" />
	<line x1="279.432" y1="798.416" x2="261.336" y2="970.585" stroke-width="0.25" stroke="rgb(0,0,0)" />
	<line x1="262.537" y1="970.585" x2="280.633" y2="798.416" stroke-width="0.25" stroke="rgb(0,0,0)" />
	<line x1="281.834" y1="798.416" x2="263.738" y2="970.585" stroke-width="0.25" stroke="rgb(0,0,0)" />
	<line x1="264.939" y1="970.585" x2="283.035" y2="798.416" stroke-width="0.25" stroke="rgb(0,0,0)" />
	<line x1="284.235" y1="798.416" x2="266.14" y2="970.585" stroke-width="0.25" stroke="rgb(0,0,0)" />
	<line x1="267.341" y1="970.585" x2="285.436" y2="798.416" stroke-width="0.25" stroke="rgb(0,0,0)" />
	<line x1="286.637" y1="798.416" x2="268.542" y2="970.585" stroke-width="0.25" stroke="rgb(0,0,0)" />
	<line x1="269.742" y1="970.585" x2="287.838" y2="798.416" stroke-width="0.25" stroke="rgb(0,0,0)" />
	<line x1="289.039" y1="798.416" x2="270.943" y2="970.585" stroke-width="0.25" stroke="rgb(0,0,0)" />
	<line x1="272.144" y1="970.585" x2="290.24" y2="798.416" stroke-width="0.25" stroke="rgb(0,0,0)" />
	<line x1="291.441" y1="798.416" x2="273.345" y2="970.585" stroke-width="0.25" stroke="rgb(0,0,0)" />
	<line x1="274.546" y1="970.585" x2="292.642" y2="798.416" stroke-width="0.25" stroke="rgb(0,0,0)" />
	<line x1="293.843" y1="798.416" x2="275.747" y2="970.585" stroke-width="0.25" stroke="rgb(0,0,0)" />
	<line x1="276.948" y1="970.585" x2="295.043" y2="798.416" stroke-width="0.25" stroke="rgb(0,0,0)" />
	<line x1="296.244" y1="798.416" x2="278.149" y2="970.585" stroke-width="0.25" stroke="rgb(0,0,0)" />
	<line x1="279.35" y1="970.585" x2="297.445" y2="798.416" stroke-width="0.25" stroke="rgb(0,0,0)" />
	<line x1="298.646" y1="798.416" x2="280.55" y2="970.585" stroke-width="0.25" stroke="rgb(0,0,0)" />
	<line x1="281.751" y1="970.585" x2="299.847" y2="798.416" stroke-width="0.25" stroke="rgb(0,0,0)" />
	<line x1="301.048" y1="798.416" x2="282.952" y2="970.585" stroke-width="0.25" stroke="rgb(0,0,0)" />
	<line x1="284.153" y1="970.585" x2="302.249" y2="798.416" stroke-width="0.25" stroke="rgb(0,0,0)" />
	<line x1="303.45" y1="798.416" x2="285.354" y2="970.585" stroke-width="0.25" stroke="rgb(0,0,0)" />
	<line x1="286.555" y1="970.585" x2="304.65" y2="798.416" stroke-width="0.25" stroke="rgb(0,0,0)" />
	<line x1="305.851" y1="798.416" x2="287.756" y2="970.585" stroke-width="0.25" stroke="rgb(0,0,0)" />
	<line x1="288.957" y1="970.585" x2="307.052" y2="798.416" stroke-width="0.25" stroke="rgb(0,0,0)" />
	<line x1="308.253" y1="798.416" x2="290.158" y2="970.585" stroke-width="0.25" stroke="rgb(0,0,0)" />
	<line x1="291.358" y1="970.585" x2="309.454" y2="798.416" stroke-width="0.25" stroke="rgb(0,0,0)" />
	<line x1="310.655" y1="798.416" x2="292.559" y2="970.585" stroke-width="0.25" stroke="rgb(0,0,0)" />
	<line x1="293.76" y1="970.585" x2="311.856" y2="798.416" stroke-width="0.25" stroke="rgb(0,0,0)" />
	<line x1="313.057" y1="798.416" x2="294.961" y2="970.585" stroke-width="0.25" stroke="rgb(0,0,0)" />
	<line x1="296.162" y1="970.585" x2="314.258" y2="798.416" stroke-width="0.25" stroke="rgb(0,0,0)" />
	<line x1="315.458" y1="798.416" x2="297.363" y2="970.585" stroke-width="0.25" stroke="rgb(0,0,0)" />
	<line x1="298.564" y1="970.585" x2="316.659" y2="798.416" stroke-width="0.25" stroke="rgb(0,0,0)" />
	<line x1="317.86" y1="798.416" x2="299.765" y2="970.585" stroke-width="0.25" stroke="rgb(0,0,0)" />
	<line x1="300.966" y1="970.585" x2="319.061" y2="798.416" stroke-width="0.25" stroke="rgb(0,0,0)" />
	<line x1="320.262" y1="798.416" x2="302.166" y2="970.585" stroke-width="0.25" stroke="rgb(0,0,0)" />
	<line x1="303.367" y1="970.585" x2="321.463" y2="798.416" stroke-width="0.25" stroke="rgb(0,0,0)" />
	<line x1="322.664" y1="798.416" x2="304.568" y2="970.585" stroke-width="0.25" stroke="rgb(0,0,0)" />
	<line x1="305.769" y1="970.585" x2="323.865" y2="798.416" stroke-width="0.25" stroke="rgb(0,0,0)" />
	<line x1="324.691" y1="801.983" x2="306.97" y2="970.585" stroke-width="0.25" stroke="rgb(0,0,0)" />
	<line x1="308.171" y1="970.585" x2="324.691" y2="813.409" stroke-width="0.25" stroke="rgb(0,0,0)" />
	<line x1="324.691" y1="824.834" x2="309.372" y2="970.585" stroke-width="0.25" stroke="rgb(0,0,0)" />
	<line x1="310.573" y1="970.585" x2="324.691" y2="836.26" stroke-width="0.25" stroke="rgb(0,0,0)" />
	<line x1="324.691" y1="847.686" x2="311.774" y2="970.585" stroke-width="0.25" stroke="rgb(0,0,0)" />
	<line x1="312.974" y1="970.585" x2="324.691" y2="859.111" stroke-width="0.25" stroke="rgb(0,0,0)" />
	<line x1="324.691" y1="870.537" x2="314.175" y2="970.585" stroke-width="0.25" stroke="rgb(0,0,0)" />
	<line x1="315.376" y1="970.585" x2="324.691" y2="881.963" stroke-width="0.25" stroke="rgb(0,0,0)" />
	<line x1="324.691" y1="893.388" x2="316.577" y2="970.585" stroke-width="0.25" stroke="rgb(0,0,0)" />
	<line x1="317.778" y1="970.585" x2="324.691" y2="904.814" stroke-width="0.25" stroke="rgb(0,0,0)" />
	<line x1="324.691" y1="916.24" x2="318.979" y2="970.585" stroke-width="0.25" stroke="rgb(0,0,0)" />
	<line x1="320.18" y1="970.585" x2="324.691" y2="927.665" stroke-width="0.25" stroke="rgb(0,0,0)" />
	<line x1="324.691" y1="939.091" x2="321.381" y2="970.585" stroke-width="0.25" stroke="rgb(0,0,0)" />
	<line x1="322.581" y1="970.585" x2="324.691" y2="950.517" stroke-width="0.25" stroke="rgb(0,0,0)" />
	<line x1="324.691" y1="961.942" x2="323.782" y2="970.585" stroke-width="0.25" stroke="rgb(0,0,0)" />
</svg>
