<?xml version="1.0" standalone="no" ?>
<!DOCTYPE svg PUBLIC "-//W3C//DTD SVG 1.1//EN" "http://www.w3.org/Graphics/SVG/1.1/DTD/svg11.dtd">
<svg width="2000px" height="2000px" xmlns="http://www.w3.org/2000/svg" version="1.1" >
	<line x1="348.389" y1="1613.83" x2="305.484" y2="1570.92" stroke-width="0.25" stroke="rgb(0,0,0)" />
	<line x1="305.484" y1="1570.92" x2="150.665" y2="1570.92" stroke-width="0.25" stroke="rgb(0,0,0)" />
	<line x1="150.665" y1="1570.92" x2="150.665" y2="1768.65" stroke-width="0.25" stroke="rgb(0,0,0)" />
	<line x1="150.665" y1="1768.65" x2="348.389" y2="1768.65" stroke-width="0.25" stroke="rgb(0,0,0)" />
	<line x1="348.389" y1="1768.65" x2="348.389" y2="1613.83" stroke-width="0.25" stroke="rgb(0,0,0)" />
	<line x1="287.645" y1="835.462" x2="150.864" y2="835.462" stroke-width="0.25" stroke="rgb(0,0,0)" />
	<line x1="150.864" y1="835.462" x2="150.864" y2="972.243" stroke-width="0.25" stroke="rgb(0,0,0)" />
	<line x1="150.864" y1="972.243" x2="287.645" y2="972.243" stroke-width="0.25" stroke="rgb(0,0,0)" />
	<line x1="287.645" y1="972.243" x2="287.645" y2="835.462" stroke-width="0.25" stroke="rgb(0,0,0)" />
	<line x1="286.783" y1="836.324" x2="151.726" y2="836.324" stroke-width="0.25" stroke="rgb(0,0,0)" />
	<line x1="151.726" y1="836.324" x2="151.726" y2="971.381" stroke-width="0.25" stroke="rgb(0,0,0)" />
	<line x1="151.726" y1="971.381" x2="286.783" y2="971.381" stroke-width="0.25" stroke="rgb(0,0,0)" />
	<line x1="286.783" y1="971.381" x2="286.783" y2="836.324" stroke-width="0.25" stroke="rgb(0,0,0)" />
	<line x1="348.259" y1="1768.65" x2="348.389" y2="1768.59" stroke-width="0.25" stroke="rgb(0,0,0)" />
	<line x1="348.389" y1="1767.57" x2="345.975" y2="1768.65" stroke-width="0.25" stroke="rgb(0,0,0)" />
	<line x1="343.691" y1="1768.65" x2="348.389" y2="1766.56" stroke-width="0.25" stroke="rgb(0,0,0)" />
	<line x1="348.389" y1="1765.54" x2="341.408" y2="1768.65" stroke-width="0.25" stroke="rgb(0,0,0)" />
	<line x1="339.124" y1="1768.65" x2="348.389" y2="1764.52" stroke-width="0.25" stroke="rgb(0,0,0)" />
	<line x1="348.389" y1="1763.51" x2="336.84" y2="1768.65" stroke-width="0.25" stroke="rgb(0,0,0)" />
	<line x1="334.556" y1="1768.65" x2="348.389" y2="1762.49" stroke-width="0.25" stroke="rgb(0,0,0)" />
	<line x1="348.389" y1="1761.47" x2="332.272" y2="1768.65" stroke-width="0.25" stroke="rgb(0,0,0)" />
	<line x1="329.989" y1="1768.65" x2="348.389" y2="1760.46" stroke-width="0.25" stroke="rgb(0,0,0)" />
	<line x1="348.389" y1="1759.44" x2="327.705" y2="1768.65" stroke-width="0.25" stroke="rgb(0,0,0)" />
	<line x1="325.421" y1="1768.65" x2="348.389" y2="1758.42" stroke-width="0.25" stroke="rgb(0,0,0)" />
	<line x1="348.389" y1="1757.41" x2="323.137" y2="1768.65" stroke-width="0.25" stroke="rgb(0,0,0)" />
	<line x1="320.853" y1="1768.65" x2="348.389" y2="1756.39" stroke-width="0.25" stroke="rgb(0,0,0)" />
	<line x1="348.389" y1="1755.37" x2="318.569" y2="1768.65" stroke-width="0.25" stroke="rgb(0,0,0)" />
	<line x1="316.286" y1="1768.65" x2="348.389" y2="1754.36" stroke-width="0.25" stroke="rgb(0,0,0)" />
	<line x1="348.389" y1="1753.34" x2="314.002" y2="1768.65" stroke-width="0.25" stroke="rgb(0,0,0)" />
	<line x1="311.718" y1="1768.65" x2="348.389" y2="1752.32" stroke-width="0.25" stroke="rgb(0,0,0)" />
	<line x1="348.389" y1="1751.3" x2="309.434" y2="1768.65" stroke-width="0.25" stroke="rgb(0,0,0)" />
	<line x1="307.15" y1="1768.65" x2="348.389" y2="1750.29" stroke-width="0.25" stroke="rgb(0,0,0)" />
	<line x1="348.389" y1="1749.27" x2="304.867" y2="1768.65" stroke-width="0.25" stroke="rgb(0,0,0)" />
	<line x1="302.583" y1="1768.65" x2="348.389" y2="1748.25" stroke-width="0.25" stroke="rgb(0,0,0)" />
	<line x1="348.389" y1="1747.24" x2="300.299" y2="1768.65" stroke-width="0.25" stroke="rgb(0,0,0)" />
	<line x1="298.015" y1="1768.65" x2="348.389" y2="1746.22" stroke-width="0.25" stroke="rgb(0,0,0)" />
	<line x1="348.389" y1="1745.2" x2="295.731" y2="1768.65" stroke-width="0.25" stroke="rgb(0,0,0)" />
	<line x1="293.448" y1="1768.65" x2="348.389" y2="1744.19" stroke-width="0.25" stroke="rgb(0,0,0)" />
	<line x1="348.389" y1="1743.17" x2="291.164" y2="1768.65" stroke-width="0.25" stroke="rgb(0,0,0)" />
	<line x1="288.88" y1="1768.65" x2="348.389" y2="1742.15" stroke-width="0.25" stroke="rgb(0,0,0)" />
	<line x1="348.389" y1="1741.14" x2="286.596" y2="1768.65" stroke-width="0.25" stroke="rgb(0,0,0)" />
	<line x1="284.312" y1="1768.65" x2="348.389" y2="1740.12" stroke-width="0.25" stroke="rgb(0,0,0)" />
	<line x1="348.389" y1="1739.1" x2="282.029" y2="1768.65" stroke-width="0.25" stroke="rgb(0,0,0)" />
	<line x1="279.745" y1="1768.65" x2="348.389" y2="1738.09" stroke-width="0.25" stroke="rgb(0,0,0)" />
	<line x1="348.389" y1="1737.07" x2="277.461" y2="1768.65" stroke-width="0.25" stroke="rgb(0,0,0)" />
	<line x1="275.177" y1="1768.65" x2="348.389" y2="1736.05" stroke-width="0.25" stroke="rgb(0,0,0)" />
	<line x1="348.389" y1="1735.04" x2="272.893" y2="1768.65" stroke-width="0.25" stroke="rgb(0,0,0)" />
	<line x1="270.61" y1="1768.65" x2="348.389" y2="1734.02" stroke-width="0.25" stroke="rgb(0,0,0)" />
	<line x1="348.389" y1="1733" x2="268.326" y2="1768.65" stroke-width="0.25" stroke="rgb(0,0,0)" />
	<line x1="266.042" y1="1768.65" x2="348.389" y2="1731.99" stroke-width="0.25" stroke="rgb(0,0,0)" />
	<line x1="348.389" y1="1730.97" x2="263.758" y2="1768.65" stroke-width="0.25" stroke="rgb(0,0,0)" />
	<line x1="261.474" y1="1768.65" x2="348.389" y2="1729.95" stroke-width="0.25" stroke="rgb(0,0,0)" />
	<line x1="348.389" y1="1728.93" x2="259.191" y2="1768.65" stroke-width="0.25" stroke="rgb(0,0,0)" />
	<line x1="256.907" y1="1768.65" x2="348.389" y2="1727.92" stroke-width="0.25" stroke="rgb(0,0,0)" />
	<line x1="348.389" y1="1726.9" x2="254.623" y2="1768.65" stroke-width="0.25" stroke="rgb(0,0,0)" />
	<line x1="252.339" y1="1768.65" x2="348.389" y2="1725.88" stroke-width="0.25" stroke="rgb(0,0,0)" />
	<line x1="348.389" y1="1724.87" x2="250.055" y2="1768.65" stroke-width="0.25" stroke="rgb(0,0,0)" />
	<line x1="247.772" y1="1768.65" x2="348.389" y2="1723.85" stroke-width="0.25" stroke="rgb(0,0,0)" />
	<line x1="348.389" y1="1722.83" x2="245.488" y2="1768.65" stroke-width="0.25" stroke="rgb(0,0,0)" />
	<line x1="243.204" y1="1768.65" x2="348.389" y2="1721.82" stroke-width="0.25" stroke="rgb(0,0,0)" />
	<line x1="348.389" y1="1720.8" x2="240.92" y2="1768.65" stroke-width="0.25" stroke="rgb(0,0,0)" />
	<line x1="238.636" y1="1768.65" x2="348.389" y2="1719.78" stroke-width="0.25" stroke="rgb(0,0,0)" />
	<line x1="348.389" y1="1718.77" x2="236.353" y2="1768.65" stroke-width="0.25" stroke="rgb(0,0,0)" />
	<line x1="234.069" y1="1768.65" x2="348.389" y2="1717.75" stroke-width="0.25" stroke="rgb(0,0,0)" />
	<line x1="348.389" y1="1716.73" x2="231.785" y2="1768.65" stroke-width="0.25" stroke="rgb(0,0,0)" />
	<line x1="229.501" y1="1768.65" x2="348.389" y2="1715.72" stroke-width="0.25" stroke="rgb(0,0,0)" />
	<line x1="348.389" y1="1714.7" x2="227.217" y2="1768.65" stroke-width="0.25" stroke="rgb(0,0,0)" />
	<line x1="224.934" y1="1768.65" x2="348.389" y2="1713.68" stroke-width="0.25" stroke="rgb(0,0,0)" />
	<line x1="348.389" y1="1712.67" x2="222.65" y2="1768.65" stroke-width="0.25" stroke="rgb(0,0,0)" />
	<line x1="220.366" y1="1768.65" x2="348.389" y2="1711.65" stroke-width="0.25" stroke="rgb(0,0,0)" />
	<line x1="348.389" y1="1710.63" x2="218.082" y2="1768.65" stroke-width="0.25" stroke="rgb(0,0,0)" />
	<line x1="215.798" y1="1768.65" x2="348.389" y2="1709.62" stroke-width="0.25" stroke="rgb(0,0,0)" />
	<line x1="348.389" y1="1708.6" x2="213.514" y2="1768.65" stroke-width="0.25" stroke="rgb(0,0,0)" />
	<line x1="211.231" y1="1768.65" x2="348.389" y2="1707.58" stroke-width="0.25" stroke="rgb(0,0,0)" />
	<line x1="348.389" y1="1706.56" x2="208.947" y2="1768.65" stroke-width="0.25" stroke="rgb(0,0,0)" />
	<line x1="206.663" y1="1768.65" x2="348.389" y2="1705.55" stroke-width="0.25" stroke="rgb(0,0,0)" />
	<line x1="348.389" y1="1704.53" x2="204.379" y2="1768.65" stroke-width="0.25" stroke="rgb(0,0,0)" />
	<line x1="202.095" y1="1768.65" x2="348.389" y2="1703.51" stroke-width="0.25" stroke="rgb(0,0,0)" />
	<line x1="348.389" y1="1702.5" x2="199.812" y2="1768.65" stroke-width="0.25" stroke="rgb(0,0,0)" />
	<line x1="197.528" y1="1768.65" x2="348.389" y2="1701.48" stroke-width="0.25" stroke="rgb(0,0,0)" />
	<line x1="348.389" y1="1700.46" x2="195.244" y2="1768.65" stroke-width="0.25" stroke="rgb(0,0,0)" />
	<line x1="192.96" y1="1768.65" x2="348.389" y2="1699.45" stroke-width="0.25" stroke="rgb(0,0,0)" />
	<line x1="348.389" y1="1698.43" x2="190.676" y2="1768.65" stroke-width="0.25" stroke="rgb(0,0,0)" />
	<line x1="188.393" y1="1768.65" x2="348.389" y2="1697.41" stroke-width="0.25" stroke="rgb(0,0,0)" />
	<line x1="348.389" y1="1696.4" x2="186.109" y2="1768.65" stroke-width="0.25" stroke="rgb(0,0,0)" />
	<line x1="183.825" y1="1768.65" x2="348.389" y2="1695.38" stroke-width="0.25" stroke="rgb(0,0,0)" />
	<line x1="348.389" y1="1694.36" x2="181.541" y2="1768.65" stroke-width="0.25" stroke="rgb(0,0,0)" />
	<line x1="179.257" y1="1768.65" x2="348.389" y2="1693.35" stroke-width="0.25" stroke="rgb(0,0,0)" />
	<line x1="348.389" y1="1692.33" x2="176.974" y2="1768.65" stroke-width="0.25" stroke="rgb(0,0,0)" />
	<line x1="174.69" y1="1768.65" x2="348.389" y2="1691.31" stroke-width="0.25" stroke="rgb(0,0,0)" />
	<line x1="348.389" y1="1690.3" x2="172.406" y2="1768.65" stroke-width="0.25" stroke="rgb(0,0,0)" />
	<line x1="170.122" y1="1768.65" x2="348.389" y2="1689.28" stroke-width="0.25" stroke="rgb(0,0,0)" />
	<line x1="348.389" y1="1688.26" x2="167.838" y2="1768.65" stroke-width="0.25" stroke="rgb(0,0,0)" />
	<line x1="165.555" y1="1768.65" x2="348.389" y2="1687.25" stroke-width="0.25" stroke="rgb(0,0,0)" />
	<line x1="348.389" y1="1686.23" x2="163.271" y2="1768.65" stroke-width="0.25" stroke="rgb(0,0,0)" />
	<line x1="160.987" y1="1768.65" x2="348.389" y2="1685.21" stroke-width="0.25" stroke="rgb(0,0,0)" />
	<line x1="348.389" y1="1684.19" x2="158.703" y2="1768.65" stroke-width="0.25" stroke="rgb(0,0,0)" />
	<line x1="156.419" y1="1768.65" x2="348.389" y2="1683.18" stroke-width="0.25" stroke="rgb(0,0,0)" />
	<line x1="348.389" y1="1682.16" x2="154.136" y2="1768.65" stroke-width="0.25" stroke="rgb(0,0,0)" />
	<line x1="151.852" y1="1768.65" x2="348.389" y2="1681.14" stroke-width="0.25" stroke="rgb(0,0,0)" />
	<line x1="348.389" y1="1680.13" x2="150.665" y2="1768.16" stroke-width="0.25" stroke="rgb(0,0,0)" />
	<line x1="150.665" y1="1767.14" x2="348.389" y2="1679.11" stroke-width="0.25" stroke="rgb(0,0,0)" />
	<line x1="348.389" y1="1678.09" x2="150.665" y2="1766.13" stroke-width="0.25" stroke="rgb(0,0,0)" />
	<line x1="150.665" y1="1765.11" x2="348.389" y2="1677.08" stroke-width="0.25" stroke="rgb(0,0,0)" />
	<line x1="348.389" y1="1676.06" x2="150.665" y2="1764.09" stroke-width="0.25" stroke="rgb(0,0,0)" />
	<line x1="150.665" y1="1763.08" x2="348.389" y2="1675.04" stroke-width="0.25" stroke="rgb(0,0,0)" />
	<line x1="348.389" y1="1674.03" x2="150.665" y2="1762.06" stroke-width="0.25" stroke="rgb(0,0,0)" />
	<line x1="150.665" y1="1761.04" x2="348.389" y2="1673.01" stroke-width="0.25" stroke="rgb(0,0,0)" />
	<line x1="348.389" y1="1671.99" x2="150.665" y2="1760.03" stroke-width="0.25" stroke="rgb(0,0,0)" />
	<line x1="150.665" y1="1759.01" x2="348.389" y2="1670.98" stroke-width="0.25" stroke="rgb(0,0,0)" />
	<line x1="348.389" y1="1669.96" x2="150.665" y2="1757.99" stroke-width="0.25" stroke="rgb(0,0,0)" />
	<line x1="150.665" y1="1756.98" x2="348.389" y2="1668.94" stroke-width="0.25" stroke="rgb(0,0,0)" />
	<line x1="348.389" y1="1667.93" x2="150.665" y2="1755.96" stroke-width="0.25" stroke="rgb(0,0,0)" />
	<line x1="150.665" y1="1754.94" x2="348.389" y2="1666.91" stroke-width="0.25" stroke="rgb(0,0,0)" />
	<line x1="348.389" y1="1665.89" x2="150.665" y2="1753.92" stroke-width="0.25" stroke="rgb(0,0,0)" />
	<line x1="150.665" y1="1752.91" x2="348.389" y2="1664.88" stroke-width="0.25" stroke="rgb(0,0,0)" />
	<line x1="348.389" y1="1663.86" x2="150.665" y2="1751.89" stroke-width="0.25" stroke="rgb(0,0,0)" />
	<line x1="150.665" y1="1750.87" x2="348.389" y2="1662.84" stroke-width="0.25" stroke="rgb(0,0,0)" />
	<line x1="348.389" y1="1661.82" x2="150.665" y2="1749.86" stroke-width="0.25" stroke="rgb(0,0,0)" />
	<line x1="150.665" y1="1748.84" x2="348.389" y2="1660.81" stroke-width="0.25" stroke="rgb(0,0,0)" />
	<line x1="348.389" y1="1659.79" x2="150.665" y2="1747.82" stroke-width="0.25" stroke="rgb(0,0,0)" />
	<line x1="150.665" y1="1746.81" x2="348.389" y2="1658.77" stroke-width="0.25" stroke="rgb(0,0,0)" />
	<line x1="348.389" y1="1657.76" x2="150.665" y2="1745.79" stroke-width="0.25" stroke="rgb(0,0,0)" />
	<line x1="150.665" y1="1744.77" x2="348.389" y2="1656.74" stroke-width="0.25" stroke="rgb(0,0,0)" />
	<line x1="348.389" y1="1655.72" x2="150.665" y2="1743.76" stroke-width="0.25" stroke="rgb(0,0,0)" />
	<line x1="150.665" y1="1742.74" x2="348.389" y2="1654.71" stroke-width="0.25" stroke="rgb(0,0,0)" />
	<line x1="348.389" y1="1653.69" x2="150.665" y2="1741.72" stroke-width="0.25" stroke="rgb(0,0,0)" />
	<line x1="150.665" y1="1740.71" x2="348.389" y2="1652.67" stroke-width="0.25" stroke="rgb(0,0,0)" />
	<line x1="348.389" y1="1651.66" x2="150.665" y2="1739.69" stroke-width="0.25" stroke="rgb(0,0,0)" />
	<line x1="150.665" y1="1738.67" x2="348.389" y2="1650.64" stroke-width="0.25" stroke="rgb(0,0,0)" />
	<line x1="348.389" y1="1649.62" x2="150.665" y2="1737.66" stroke-width="0.25" stroke="rgb(0,0,0)" />
	<line x1="150.665" y1="1736.64" x2="348.389" y2="1648.61" stroke-width="0.25" stroke="rgb(0,0,0)" />
	<line x1="348.389" y1="1647.59" x2="150.665" y2="1735.62" stroke-width="0.25" stroke="rgb(0,0,0)" />
	<line x1="150.665" y1="1734.61" x2="348.389" y2="1646.57" stroke-width="0.25" stroke="rgb(0,0,0)" />
	<line x1="348.389" y1="1645.56" x2="150.665" y2="1733.59" stroke-width="0.25" stroke="rgb(0,0,0)" />
	<line x1="150.665" y1="1732.57" x2="348.389" y2="1644.54" stroke-width="0.25" stroke="rgb(0,0,0)" />
	<line x1="348.389" y1="1643.52" x2="150.665" y2="1731.55" stroke-width="0.25" stroke="rgb(0,0,0)" />
	<line x1="150.665" y1="1730.54" x2="348.389" y2="1642.51" stroke-width="0.25" stroke="rgb(0,0,0)" />
	<line x1="348.389" y1="1641.49" x2="150.665" y2="1729.52" stroke-width="0.25" stroke="rgb(0,0,0)" />
	<line x1="150.665" y1="1728.5" x2="348.389" y2="1640.47" stroke-width="0.25" stroke="rgb(0,0,0)" />
	<line x1="348.389" y1="1639.46" x2="150.665" y2="1727.49" stroke-width="0.25" stroke="rgb(0,0,0)" />
	<line x1="150.665" y1="1726.47" x2="348.389" y2="1638.44" stroke-width="0.25" stroke="rgb(0,0,0)" />
	<line x1="348.389" y1="1637.42" x2="150.665" y2="1725.45" stroke-width="0.25" stroke="rgb(0,0,0)" />
	<line x1="150.665" y1="1724.44" x2="348.389" y2="1636.4" stroke-width="0.25" stroke="rgb(0,0,0)" />
	<line x1="348.389" y1="1635.39" x2="150.665" y2="1723.42" stroke-width="0.25" stroke="rgb(0,0,0)" />
	<line x1="150.665" y1="1722.4" x2="348.389" y2="1634.37" stroke-width="0.25" stroke="rgb(0,0,0)" />
	<line x1="348.389" y1="1633.35" x2="150.665" y2="1721.39" stroke-width="0.25" stroke="rgb(0,0,0)" />
	<line x1="150.665" y1="1720.37" x2="348.389" y2="1632.34" stroke-width="0.25" stroke="rgb(0,0,0)" />
	<line x1="348.389" y1="1631.32" x2="150.665" y2="1719.35" stroke-width="0.25" stroke="rgb(0,0,0)" />
	<line x1="150.665" y1="1718.34" x2="348.389" y2="1630.3" stroke-width="0.25" stroke="rgb(0,0,0)" />
	<line x1="348.389" y1="1629.29" x2="150.665" y2="1717.32" stroke-width="0.25" stroke="rgb(0,0,0)" />
	<line x1="150.665" y1="1716.3" x2="348.389" y2="1628.27" stroke-width="0.25" stroke="rgb(0,0,0)" />
	<line x1="348.389" y1="1627.25" x2="150.665" y2="1715.29" stroke-width="0.25" stroke="rgb(0,0,0)" />
	<line x1="150.665" y1="1714.27" x2="348.389" y2="1626.24" stroke-width="0.25" stroke="rgb(0,0,0)" />
	<line x1="348.389" y1="1625.22" x2="150.665" y2="1713.25" stroke-width="0.25" stroke="rgb(0,0,0)" />
	<line x1="150.665" y1="1712.24" x2="348.389" y2="1624.2" stroke-width="0.25" stroke="rgb(0,0,0)" />
	<line x1="348.389" y1="1623.19" x2="150.665" y2="1711.22" stroke-width="0.25" stroke="rgb(0,0,0)" />
	<line x1="150.665" y1="1710.2" x2="348.389" y2="1622.17" stroke-width="0.25" stroke="rgb(0,0,0)" />
	<line x1="348.389" y1="1621.15" x2="150.665" y2="1709.18" stroke-width="0.25" stroke="rgb(0,0,0)" />
	<line x1="150.665" y1="1708.17" x2="348.389" y2="1620.14" stroke-width="0.25" stroke="rgb(0,0,0)" />
	<line x1="348.389" y1="1619.12" x2="150.665" y2="1707.15" stroke-width="0.25" stroke="rgb(0,0,0)" />
	<line x1="150.665" y1="1706.13" x2="348.389" y2="1618.1" stroke-width="0.25" stroke="rgb(0,0,0)" />
	<line x1="348.389" y1="1617.09" x2="150.665" y2="1705.12" stroke-width="0.25" stroke="rgb(0,0,0)" />
	<line x1="150.665" y1="1704.1" x2="348.389" y2="1616.07" stroke-width="0.25" stroke="rgb(0,0,0)" />
	<line x1="348.389" y1="1615.05" x2="150.665" y2="1703.08" stroke-width="0.25" stroke="rgb(0,0,0)" />
	<line x1="150.665" y1="1702.07" x2="348.389" y2="1614.03" stroke-width="0.25" stroke="rgb(0,0,0)" />
	<line x1="347.828" y1="1613.27" x2="150.665" y2="1701.05" stroke-width="0.25" stroke="rgb(0,0,0)" />
	<line x1="150.665" y1="1700.03" x2="347.124" y2="1612.56" stroke-width="0.25" stroke="rgb(0,0,0)" />
	<line x1="346.42" y1="1611.86" x2="150.665" y2="1699.02" stroke-width="0.25" stroke="rgb(0,0,0)" />
	<line x1="150.665" y1="1698" x2="345.717" y2="1611.16" stroke-width="0.25" stroke="rgb(0,0,0)" />
	<line x1="345.013" y1="1610.45" x2="150.665" y2="1696.98" stroke-width="0.25" stroke="rgb(0,0,0)" />
	<line x1="150.665" y1="1695.97" x2="344.31" y2="1609.75" stroke-width="0.25" stroke="rgb(0,0,0)" />
	<line x1="343.606" y1="1609.05" x2="150.665" y2="1694.95" stroke-width="0.25" stroke="rgb(0,0,0)" />
	<line x1="150.665" y1="1693.93" x2="342.903" y2="1608.34" stroke-width="0.25" stroke="rgb(0,0,0)" />
	<line x1="342.199" y1="1607.64" x2="150.665" y2="1692.92" stroke-width="0.25" stroke="rgb(0,0,0)" />
	<line x1="150.665" y1="1691.9" x2="341.496" y2="1606.94" stroke-width="0.25" stroke="rgb(0,0,0)" />
	<line x1="340.792" y1="1606.23" x2="150.665" y2="1690.88" stroke-width="0.25" stroke="rgb(0,0,0)" />
	<line x1="150.665" y1="1689.87" x2="340.088" y2="1605.53" stroke-width="0.25" stroke="rgb(0,0,0)" />
	<line x1="339.385" y1="1604.82" x2="150.665" y2="1688.85" stroke-width="0.25" stroke="rgb(0,0,0)" />
	<line x1="150.665" y1="1687.83" x2="338.681" y2="1604.12" stroke-width="0.25" stroke="rgb(0,0,0)" />
	<line x1="337.978" y1="1603.42" x2="150.665" y2="1686.82" stroke-width="0.25" stroke="rgb(0,0,0)" />
	<line x1="150.665" y1="1685.8" x2="337.274" y2="1602.71" stroke-width="0.25" stroke="rgb(0,0,0)" />
	<line x1="336.571" y1="1602.01" x2="150.665" y2="1684.78" stroke-width="0.25" stroke="rgb(0,0,0)" />
	<line x1="150.665" y1="1683.76" x2="335.867" y2="1601.31" stroke-width="0.25" stroke="rgb(0,0,0)" />
	<line x1="335.163" y1="1600.6" x2="150.665" y2="1682.75" stroke-width="0.25" stroke="rgb(0,0,0)" />
	<line x1="150.665" y1="1681.73" x2="334.46" y2="1599.9" stroke-width="0.25" stroke="rgb(0,0,0)" />
	<line x1="333.756" y1="1599.2" x2="150.665" y2="1680.71" stroke-width="0.25" stroke="rgb(0,0,0)" />
	<line x1="150.665" y1="1679.7" x2="333.053" y2="1598.49" stroke-width="0.25" stroke="rgb(0,0,0)" />
	<line x1="332.349" y1="1597.79" x2="150.665" y2="1678.68" stroke-width="0.25" stroke="rgb(0,0,0)" />
	<line x1="150.665" y1="1677.66" x2="331.646" y2="1597.09" stroke-width="0.25" stroke="rgb(0,0,0)" />
	<line x1="330.942" y1="1596.38" x2="150.665" y2="1676.65" stroke-width="0.25" stroke="rgb(0,0,0)" />
	<line x1="150.665" y1="1675.63" x2="330.238" y2="1595.68" stroke-width="0.25" stroke="rgb(0,0,0)" />
	<line x1="329.535" y1="1594.98" x2="150.665" y2="1674.61" stroke-width="0.25" stroke="rgb(0,0,0)" />
	<line x1="150.665" y1="1673.6" x2="328.831" y2="1594.27" stroke-width="0.25" stroke="rgb(0,0,0)" />
	<line x1="328.128" y1="1593.57" x2="150.665" y2="1672.58" stroke-width="0.25" stroke="rgb(0,0,0)" />
	<line x1="150.665" y1="1671.56" x2="327.424" y2="1592.86" stroke-width="0.25" stroke="rgb(0,0,0)" />
	<line x1="326.721" y1="1592.16" x2="150.665" y2="1670.55" stroke-width="0.25" stroke="rgb(0,0,0)" />
	<line x1="150.665" y1="1669.53" x2="326.017" y2="1591.46" stroke-width="0.25" stroke="rgb(0,0,0)" />
	<line x1="325.313" y1="1590.75" x2="150.665" y2="1668.51" stroke-width="0.25" stroke="rgb(0,0,0)" />
	<line x1="150.665" y1="1667.5" x2="324.61" y2="1590.05" stroke-width="0.25" stroke="rgb(0,0,0)" />
	<line x1="323.906" y1="1589.35" x2="150.665" y2="1666.48" stroke-width="0.25" stroke="rgb(0,0,0)" />
	<line x1="150.665" y1="1665.46" x2="323.203" y2="1588.64" stroke-width="0.25" stroke="rgb(0,0,0)" />
	<line x1="322.499" y1="1587.94" x2="150.665" y2="1664.45" stroke-width="0.25" stroke="rgb(0,0,0)" />
	<line x1="150.665" y1="1663.43" x2="321.796" y2="1587.24" stroke-width="0.25" stroke="rgb(0,0,0)" />
	<line x1="321.092" y1="1586.53" x2="150.665" y2="1662.41" stroke-width="0.25" stroke="rgb(0,0,0)" />
	<line x1="150.665" y1="1661.39" x2="320.389" y2="1585.83" stroke-width="0.25" stroke="rgb(0,0,0)" />
	<line x1="319.685" y1="1585.13" x2="150.665" y2="1660.38" stroke-width="0.25" stroke="rgb(0,0,0)" />
	<line x1="150.665" y1="1659.36" x2="318.981" y2="1584.42" stroke-width="0.25" stroke="rgb(0,0,0)" />
	<line x1="318.278" y1="1583.72" x2="150.665" y2="1658.34" stroke-width="0.25" stroke="rgb(0,0,0)" />
	<line x1="150.665" y1="1657.33" x2="317.574" y2="1583.01" stroke-width="0.25" stroke="rgb(0,0,0)" />
	<line x1="316.871" y1="1582.31" x2="150.665" y2="1656.31" stroke-width="0.25" stroke="rgb(0,0,0)" />
	<line x1="150.665" y1="1655.29" x2="316.167" y2="1581.61" stroke-width="0.25" stroke="rgb(0,0,0)" />
	<line x1="315.464" y1="1580.9" x2="150.665" y2="1654.28" stroke-width="0.25" stroke="rgb(0,0,0)" />
	<line x1="150.665" y1="1653.26" x2="314.76" y2="1580.2" stroke-width="0.25" stroke="rgb(0,0,0)" />
	<line x1="314.056" y1="1579.5" x2="150.665" y2="1652.24" stroke-width="0.25" stroke="rgb(0,0,0)" />
	<line x1="150.665" y1="1651.23" x2="313.353" y2="1578.79" stroke-width="0.25" stroke="rgb(0,0,0)" />
	<line x1="312.649" y1="1578.09" x2="150.665" y2="1650.21" stroke-width="0.25" stroke="rgb(0,0,0)" />
	<line x1="150.665" y1="1649.19" x2="311.946" y2="1577.39" stroke-width="0.25" stroke="rgb(0,0,0)" />
	<line x1="311.242" y1="1576.68" x2="150.665" y2="1648.18" stroke-width="0.25" stroke="rgb(0,0,0)" />
	<line x1="150.665" y1="1647.16" x2="310.539" y2="1575.98" stroke-width="0.25" stroke="rgb(0,0,0)" />
	<line x1="309.835" y1="1575.28" x2="150.665" y2="1646.14" stroke-width="0.25" stroke="rgb(0,0,0)" />
	<line x1="150.665" y1="1645.13" x2="309.131" y2="1574.57" stroke-width="0.25" stroke="rgb(0,0,0)" />
	<line x1="308.428" y1="1573.87" x2="150.665" y2="1644.11" stroke-width="0.25" stroke="rgb(0,0,0)" />
	<line x1="150.665" y1="1643.09" x2="307.724" y2="1573.16" stroke-width="0.25" stroke="rgb(0,0,0)" />
	<line x1="307.021" y1="1572.46" x2="150.665" y2="1642.08" stroke-width="0.25" stroke="rgb(0,0,0)" />
	<line x1="150.665" y1="1641.06" x2="306.317" y2="1571.76" stroke-width="0.25" stroke="rgb(0,0,0)" />
	<line x1="305.614" y1="1571.05" x2="150.665" y2="1640.04" stroke-width="0.25" stroke="rgb(0,0,0)" />
	<line x1="150.665" y1="1639.02" x2="303.621" y2="1570.92" stroke-width="0.25" stroke="rgb(0,0,0)" />
	<line x1="301.337" y1="1570.92" x2="150.665" y2="1638.01" stroke-width="0.25" stroke="rgb(0,0,0)" />
	<line x1="150.665" y1="1636.99" x2="299.054" y2="1570.92" stroke-width="0.25" stroke="rgb(0,0,0)" />
	<line x1="296.77" y1="1570.92" x2="150.665" y2="1635.97" stroke-width="0.25" stroke="rgb(0,0,0)" />
	<line x1="150.665" y1="1634.96" x2="294.486" y2="1570.92" stroke-width="0.25" stroke="rgb(0,0,0)" />
	<line x1="292.202" y1="1570.92" x2="150.665" y2="1633.94" stroke-width="0.25" stroke="rgb(0,0,0)" />
	<line x1="150.665" y1="1632.92" x2="289.918" y2="1570.92" stroke-width="0.25" stroke="rgb(0,0,0)" />
	<line x1="287.635" y1="1570.92" x2="150.665" y2="1631.91" stroke-width="0.25" stroke="rgb(0,0,0)" />
	<line x1="150.665" y1="1630.89" x2="285.351" y2="1570.92" stroke-width="0.25" stroke="rgb(0,0,0)" />
	<line x1="283.067" y1="1570.92" x2="150.665" y2="1629.87" stroke-width="0.25" stroke="rgb(0,0,0)" />
	<line x1="150.665" y1="1628.86" x2="280.783" y2="1570.92" stroke-width="0.25" stroke="rgb(0,0,0)" />
	<line x1="278.499" y1="1570.92" x2="150.665" y2="1627.84" stroke-width="0.25" stroke="rgb(0,0,0)" />
	<line x1="150.665" y1="1626.82" x2="276.216" y2="1570.92" stroke-width="0.25" stroke="rgb(0,0,0)" />
	<line x1="273.932" y1="1570.92" x2="150.665" y2="1625.81" stroke-width="0.25" stroke="rgb(0,0,0)" />
	<line x1="150.665" y1="1624.79" x2="271.648" y2="1570.92" stroke-width="0.25" stroke="rgb(0,0,0)" />
	<line x1="269.364" y1="1570.92" x2="150.665" y2="1623.77" stroke-width="0.25" stroke="rgb(0,0,0)" />
	<line x1="150.665" y1="1622.76" x2="267.08" y2="1570.92" stroke-width="0.25" stroke="rgb(0,0,0)" />
	<line x1="264.797" y1="1570.92" x2="150.665" y2="1621.74" stroke-width="0.25" stroke="rgb(0,0,0)" />
	<line x1="150.665" y1="1620.72" x2="262.513" y2="1570.92" stroke-width="0.25" stroke="rgb(0,0,0)" />
	<line x1="260.229" y1="1570.92" x2="150.665" y2="1619.71" stroke-width="0.25" stroke="rgb(0,0,0)" />
	<line x1="150.665" y1="1618.69" x2="257.945" y2="1570.92" stroke-width="0.25" stroke="rgb(0,0,0)" />
	<line x1="255.661" y1="1570.92" x2="150.665" y2="1617.67" stroke-width="0.25" stroke="rgb(0,0,0)" />
	<line x1="150.665" y1="1616.65" x2="253.378" y2="1570.92" stroke-width="0.25" stroke="rgb(0,0,0)" />
	<line x1="251.094" y1="1570.92" x2="150.665" y2="1615.64" stroke-width="0.25" stroke="rgb(0,0,0)" />
	<line x1="150.665" y1="1614.62" x2="248.81" y2="1570.92" stroke-width="0.25" stroke="rgb(0,0,0)" />
	<line x1="246.526" y1="1570.92" x2="150.665" y2="1613.6" stroke-width="0.25" stroke="rgb(0,0,0)" />
	<line x1="150.665" y1="1612.59" x2="244.242" y2="1570.92" stroke-width="0.25" stroke="rgb(0,0,0)" />
	<line x1="241.959" y1="1570.92" x2="150.665" y2="1611.57" stroke-width="0.25" stroke="rgb(0,0,0)" />
	<line x1="150.665" y1="1610.55" x2="239.675" y2="1570.92" stroke-width="0.25" stroke="rgb(0,0,0)" />
	<line x1="237.391" y1="1570.92" x2="150.665" y2="1609.54" stroke-width="0.25" stroke="rgb(0,0,0)" />
	<line x1="150.665" y1="1608.52" x2="235.107" y2="1570.92" stroke-width="0.25" stroke="rgb(0,0,0)" />
	<line x1="232.823" y1="1570.92" x2="150.665" y2="1607.5" stroke-width="0.25" stroke="rgb(0,0,0)" />
	<line x1="150.665" y1="1606.49" x2="230.54" y2="1570.92" stroke-width="0.25" stroke="rgb(0,0,0)" />
	<line x1="228.256" y1="1570.92" x2="150.665" y2="1605.47" stroke-width="0.25" stroke="rgb(0,0,0)" />
	<line x1="150.665" y1="1604.45" x2="225.972" y2="1570.92" stroke-width="0.25" stroke="rgb(0,0,0)" />
	<line x1="223.688" y1="1570.92" x2="150.665" y2="1603.44" stroke-width="0.25" stroke="rgb(0,0,0)" />
	<line x1="150.665" y1="1602.42" x2="221.404" y2="1570.92" stroke-width="0.25" stroke="rgb(0,0,0)" />
	<line x1="219.12" y1="1570.92" x2="150.665" y2="1601.4" stroke-width="0.25" stroke="rgb(0,0,0)" />
	<line x1="150.665" y1="1600.39" x2="216.837" y2="1570.92" stroke-width="0.25" stroke="rgb(0,0,0)" />
	<line x1="214.553" y1="1570.92" x2="150.665" y2="1599.37" stroke-width="0.25" stroke="rgb(0,0,0)" />
	<line x1="150.665" y1="1598.35" x2="212.269" y2="1570.92" stroke-width="0.25" stroke="rgb(0,0,0)" />
	<line x1="209.985" y1="1570.92" x2="150.665" y2="1597.34" stroke-width="0.25" stroke="rgb(0,0,0)" />
	<line x1="150.665" y1="1596.32" x2="207.701" y2="1570.92" stroke-width="0.25" stroke="rgb(0,0,0)" />
	<line x1="205.418" y1="1570.92" x2="150.665" y2="1595.3" stroke-width="0.25" stroke="rgb(0,0,0)" />
	<line x1="150.665" y1="1594.28" x2="203.134" y2="1570.92" stroke-width="0.25" stroke="rgb(0,0,0)" />
	<line x1="200.85" y1="1570.92" x2="150.665" y2="1593.27" stroke-width="0.25" stroke="rgb(0,0,0)" />
	<line x1="150.665" y1="1592.25" x2="198.566" y2="1570.92" stroke-width="0.25" stroke="rgb(0,0,0)" />
	<line x1="196.282" y1="1570.92" x2="150.665" y2="1591.23" stroke-width="0.25" stroke="rgb(0,0,0)" />
	<line x1="150.665" y1="1590.22" x2="193.999" y2="1570.92" stroke-width="0.25" stroke="rgb(0,0,0)" />
	<line x1="191.715" y1="1570.92" x2="150.665" y2="1589.2" stroke-width="0.25" stroke="rgb(0,0,0)" />
	<line x1="150.665" y1="1588.18" x2="189.431" y2="1570.92" stroke-width="0.25" stroke="rgb(0,0,0)" />
	<line x1="187.147" y1="1570.92" x2="150.665" y2="1587.17" stroke-width="0.25" stroke="rgb(0,0,0)" />
	<line x1="150.665" y1="1586.15" x2="184.863" y2="1570.92" stroke-width="0.25" stroke="rgb(0,0,0)" />
	<line x1="182.58" y1="1570.92" x2="150.665" y2="1585.13" stroke-width="0.25" stroke="rgb(0,0,0)" />
	<line x1="150.665" y1="1584.12" x2="180.296" y2="1570.92" stroke-width="0.25" stroke="rgb(0,0,0)" />
	<line x1="178.012" y1="1570.92" x2="150.665" y2="1583.1" stroke-width="0.25" stroke="rgb(0,0,0)" />
	<line x1="150.665" y1="1582.08" x2="175.728" y2="1570.92" stroke-width="0.25" stroke="rgb(0,0,0)" />
	<line x1="173.444" y1="1570.92" x2="150.665" y2="1581.07" stroke-width="0.25" stroke="rgb(0,0,0)" />
	<line x1="150.665" y1="1580.05" x2="171.161" y2="1570.92" stroke-width="0.25" stroke="rgb(0,0,0)" />
	<line x1="168.877" y1="1570.92" x2="150.665" y2="1579.03" stroke-width="0.25" stroke="rgb(0,0,0)" />
	<line x1="150.665" y1="1578.02" x2="166.593" y2="1570.92" stroke-width="0.25" stroke="rgb(0,0,0)" />
	<line x1="164.309" y1="1570.92" x2="150.665" y2="1577" stroke-width="0.25" stroke="rgb(0,0,0)" />
	<line x1="150.665" y1="1575.98" x2="162.025" y2="1570.92" stroke-width="0.25" stroke="rgb(0,0,0)" />
	<line x1="159.742" y1="1570.92" x2="150.665" y2="1574.97" stroke-width="0.25" stroke="rgb(0,0,0)" />
	<line x1="150.665" y1="1573.95" x2="157.458" y2="1570.92" stroke-width="0.25" stroke="rgb(0,0,0)" />
	<line x1="155.174" y1="1570.92" x2="150.665" y2="1572.93" stroke-width="0.25" stroke="rgb(0,0,0)" />
	<line x1="150.665" y1="1571.91" x2="152.89" y2="1570.92" stroke-width="0.25" stroke="rgb(0,0,0)" />
	<line x1="284.333" y1="970.585" x2="285.986" y2="969.848" stroke-width="0.25" stroke="rgb(0,0,0)" />
	<line x1="285.986" y1="968.541" x2="281.396" y2="970.585" stroke-width="0.25" stroke="rgb(0,0,0)" />
	<line x1="278.46" y1="970.585" x2="285.986" y2="967.234" stroke-width="0.25" stroke="rgb(0,0,0)" />
	<line x1="285.986" y1="965.926" x2="275.524" y2="970.585" stroke-width="0.25" stroke="rgb(0,0,0)" />
	<line x1="272.587" y1="970.585" x2="285.986" y2="964.619" stroke-width="0.25" stroke="rgb(0,0,0)" />
	<line x1="285.986" y1="963.312" x2="269.651" y2="970.585" stroke-width="0.25" stroke="rgb(0,0,0)" />
	<line x1="266.715" y1="970.585" x2="285.986" y2="962.004" stroke-width="0.25" stroke="rgb(0,0,0)" />
	<line x1="285.986" y1="960.697" x2="263.779" y2="970.585" stroke-width="0.25" stroke="rgb(0,0,0)" />
	<line x1="260.842" y1="970.585" x2="285.986" y2="959.39" stroke-width="0.25" stroke="rgb(0,0,0)" />
	<line x1="285.986" y1="958.082" x2="257.906" y2="970.585" stroke-width="0.25" stroke="rgb(0,0,0)" />
	<line x1="254.97" y1="970.585" x2="285.986" y2="956.775" stroke-width="0.25" stroke="rgb(0,0,0)" />
	<line x1="285.986" y1="955.468" x2="252.033" y2="970.585" stroke-width="0.25" stroke="rgb(0,0,0)" />
	<line x1="249.097" y1="970.585" x2="285.986" y2="954.16" stroke-width="0.25" stroke="rgb(0,0,0)" />
	<line x1="285.986" y1="952.853" x2="246.161" y2="970.585" stroke-width="0.25" stroke="rgb(0,0,0)" />
	<line x1="243.224" y1="970.585" x2="285.986" y2="951.546" stroke-width="0.25" stroke="rgb(0,0,0)" />
	<line x1="285.986" y1="950.238" x2="240.288" y2="970.585" stroke-width="0.25" stroke="rgb(0,0,0)" />
	<line x1="237.352" y1="970.585" x2="285.986" y2="948.931" stroke-width="0.25" stroke="rgb(0,0,0)" />
	<line x1="285.986" y1="947.624" x2="234.415" y2="970.585" stroke-width="0.25" stroke="rgb(0,0,0)" />
	<line x1="231.479" y1="970.585" x2="285.986" y2="946.316" stroke-width="0.25" stroke="rgb(0,0,0)" />
	<line x1="285.986" y1="945.009" x2="228.543" y2="970.585" stroke-width="0.25" stroke="rgb(0,0,0)" />
	<line x1="225.606" y1="970.585" x2="285.986" y2="943.702" stroke-width="0.25" stroke="rgb(0,0,0)" />
	<line x1="285.986" y1="942.394" x2="222.67" y2="970.585" stroke-width="0.25" stroke="rgb(0,0,0)" />
	<line x1="219.734" y1="970.585" x2="285.986" y2="941.087" stroke-width="0.25" stroke="rgb(0,0,0)" />
	<line x1="285.986" y1="939.78" x2="216.797" y2="970.585" stroke-width="0.25" stroke="rgb(0,0,0)" />
	<line x1="213.861" y1="970.585" x2="285.986" y2="938.472" stroke-width="0.25" stroke="rgb(0,0,0)" />
	<line x1="285.986" y1="937.165" x2="210.925" y2="970.585" stroke-width="0.25" stroke="rgb(0,0,0)" />
	<line x1="207.988" y1="970.585" x2="285.986" y2="935.858" stroke-width="0.25" stroke="rgb(0,0,0)" />
	<line x1="285.986" y1="934.55" x2="205.052" y2="970.585" stroke-width="0.25" stroke="rgb(0,0,0)" />
	<line x1="202.116" y1="970.585" x2="285.986" y2="933.243" stroke-width="0.25" stroke="rgb(0,0,0)" />
	<line x1="285.986" y1="931.936" x2="199.179" y2="970.585" stroke-width="0.25" stroke="rgb(0,0,0)" />
	<line x1="196.243" y1="970.585" x2="285.986" y2="930.628" stroke-width="0.25" stroke="rgb(0,0,0)" />
	<line x1="285.986" y1="929.321" x2="193.307" y2="970.585" stroke-width="0.25" stroke="rgb(0,0,0)" />
	<line x1="190.371" y1="970.585" x2="285.986" y2="928.014" stroke-width="0.25" stroke="rgb(0,0,0)" />
	<line x1="285.986" y1="926.706" x2="187.434" y2="970.585" stroke-width="0.25" stroke="rgb(0,0,0)" />
	<line x1="184.498" y1="970.585" x2="285.986" y2="925.399" stroke-width="0.25" stroke="rgb(0,0,0)" />
	<line x1="285.986" y1="924.092" x2="181.562" y2="970.585" stroke-width="0.25" stroke="rgb(0,0,0)" />
	<line x1="178.625" y1="970.585" x2="285.986" y2="922.784" stroke-width="0.25" stroke="rgb(0,0,0)" />
	<line x1="285.986" y1="921.477" x2="175.689" y2="970.585" stroke-width="0.25" stroke="rgb(0,0,0)" />
	<line x1="172.753" y1="970.585" x2="285.986" y2="920.17" stroke-width="0.25" stroke="rgb(0,0,0)" />
	<line x1="285.986" y1="918.862" x2="169.816" y2="970.585" stroke-width="0.25" stroke="rgb(0,0,0)" />
	<line x1="166.88" y1="970.585" x2="285.986" y2="917.555" stroke-width="0.25" stroke="rgb(0,0,0)" />
	<line x1="285.986" y1="916.248" x2="163.944" y2="970.585" stroke-width="0.25" stroke="rgb(0,0,0)" />
	<line x1="161.007" y1="970.585" x2="285.986" y2="914.94" stroke-width="0.25" stroke="rgb(0,0,0)" />
	<line x1="285.986" y1="913.633" x2="158.071" y2="970.585" stroke-width="0.25" stroke="rgb(0,0,0)" />
	<line x1="155.135" y1="970.585" x2="285.986" y2="912.326" stroke-width="0.25" stroke="rgb(0,0,0)" />
	<line x1="285.986" y1="911.018" x2="152.522" y2="970.44" stroke-width="0.25" stroke="rgb(0,0,0)" />
	<line x1="152.522" y1="969.133" x2="285.986" y2="909.711" stroke-width="0.25" stroke="rgb(0,0,0)" />
	<line x1="285.986" y1="908.404" x2="152.522" y2="967.826" stroke-width="0.25" stroke="rgb(0,0,0)" />
	<line x1="152.522" y1="966.518" x2="285.986" y2="907.096" stroke-width="0.25" stroke="rgb(0,0,0)" />
	<line x1="285.986" y1="905.789" x2="152.522" y2="965.211" stroke-width="0.25" stroke="rgb(0,0,0)" />
	<line x1="152.522" y1="963.904" x2="285.986" y2="904.482" stroke-width="0.25" stroke="rgb(0,0,0)" />
	<line x1="285.986" y1="903.174" x2="152.522" y2="962.596" stroke-width="0.25" stroke="rgb(0,0,0)" />
	<line x1="152.522" y1="961.289" x2="285.986" y2="901.867" stroke-width="0.25" stroke="rgb(0,0,0)" />
	<line x1="285.986" y1="900.56" x2="152.522" y2="959.982" stroke-width="0.25" stroke="rgb(0,0,0)" />
	<line x1="152.522" y1="958.674" x2="285.986" y2="899.252" stroke-width="0.25" stroke="rgb(0,0,0)" />
	<line x1="285.986" y1="897.945" x2="152.522" y2="957.367" stroke-width="0.25" stroke="rgb(0,0,0)" />
	<line x1="152.522" y1="956.06" x2="285.986" y2="896.638" stroke-width="0.25" stroke="rgb(0,0,0)" />
	<line x1="285.986" y1="895.33" x2="152.522" y2="954.752" stroke-width="0.25" stroke="rgb(0,0,0)" />
	<line x1="152.522" y1="953.445" x2="285.986" y2="894.023" stroke-width="0.25" stroke="rgb(0,0,0)" />
	<line x1="285.986" y1="892.716" x2="152.522" y2="952.138" stroke-width="0.25" stroke="rgb(0,0,0)" />
	<line x1="152.522" y1="950.83" x2="285.986" y2="891.408" stroke-width="0.25" stroke="rgb(0,0,0)" />
	<line x1="285.986" y1="890.101" x2="152.522" y2="949.523" stroke-width="0.25" stroke="rgb(0,0,0)" />
	<line x1="152.522" y1="948.216" x2="285.986" y2="888.794" stroke-width="0.25" stroke="rgb(0,0,0)" />
	<line x1="285.986" y1="887.486" x2="152.522" y2="946.908" stroke-width="0.25" stroke="rgb(0,0,0)" />
	<line x1="152.522" y1="945.601" x2="285.986" y2="886.179" stroke-width="0.25" stroke="rgb(0,0,0)" />
	<line x1="285.986" y1="884.872" x2="152.522" y2="944.294" stroke-width="0.25" stroke="rgb(0,0,0)" />
	<line x1="152.522" y1="942.986" x2="285.986" y2="883.564" stroke-width="0.25" stroke="rgb(0,0,0)" />
	<line x1="285.986" y1="882.257" x2="152.522" y2="941.679" stroke-width="0.25" stroke="rgb(0,0,0)" />
	<line x1="152.522" y1="940.372" x2="285.986" y2="880.95" stroke-width="0.25" stroke="rgb(0,0,0)" />
	<line x1="285.986" y1="879.642" x2="152.522" y2="939.064" stroke-width="0.25" stroke="rgb(0,0,0)" />
	<line x1="152.522" y1="937.757" x2="285.986" y2="878.335" stroke-width="0.25" stroke="rgb(0,0,0)" />
	<line x1="285.986" y1="877.028" x2="152.522" y2="936.45" stroke-width="0.25" stroke="rgb(0,0,0)" />
	<line x1="152.522" y1="935.142" x2="285.986" y2="875.72" stroke-width="0.25" stroke="rgb(0,0,0)" />
	<line x1="285.986" y1="874.413" x2="152.522" y2="933.835" stroke-width="0.25" stroke="rgb(0,0,0)" />
	<line x1="152.522" y1="932.528" x2="285.986" y2="873.106" stroke-width="0.25" stroke="rgb(0,0,0)" />
	<line x1="285.986" y1="871.798" x2="152.522" y2="931.22" stroke-width="0.25" stroke="rgb(0,0,0)" />
	<line x1="152.522" y1="929.913" x2="285.986" y2="870.491" stroke-width="0.25" stroke="rgb(0,0,0)" />
	<line x1="285.986" y1="869.184" x2="152.522" y2="928.606" stroke-width="0.25" stroke="rgb(0,0,0)" />
	<line x1="152.522" y1="927.298" x2="285.986" y2="867.876" stroke-width="0.25" stroke="rgb(0,0,0)" />
	<line x1="285.986" y1="866.569" x2="152.522" y2="925.991" stroke-width="0.25" stroke="rgb(0,0,0)" />
	<line x1="152.522" y1="924.684" x2="285.986" y2="865.262" stroke-width="0.25" stroke="rgb(0,0,0)" />
	<line x1="285.986" y1="863.954" x2="152.522" y2="923.376" stroke-width="0.25" stroke="rgb(0,0,0)" />
	<line x1="152.522" y1="922.069" x2="285.986" y2="862.647" stroke-width="0.25" stroke="rgb(0,0,0)" />
	<line x1="285.986" y1="861.34" x2="152.522" y2="920.762" stroke-width="0.25" stroke="rgb(0,0,0)" />
	<line x1="152.522" y1="919.454" x2="285.986" y2="860.032" stroke-width="0.25" stroke="rgb(0,0,0)" />
	<line x1="285.986" y1="858.725" x2="152.522" y2="918.147" stroke-width="0.25" stroke="rgb(0,0,0)" />
	<line x1="152.522" y1="916.84" x2="285.986" y2="857.418" stroke-width="0.25" stroke="rgb(0,0,0)" />
	<line x1="285.986" y1="856.11" x2="152.522" y2="915.532" stroke-width="0.25" stroke="rgb(0,0,0)" />
	<line x1="152.522" y1="914.225" x2="285.986" y2="854.803" stroke-width="0.25" stroke="rgb(0,0,0)" />
	<line x1="285.986" y1="853.496" x2="152.522" y2="912.918" stroke-width="0.25" stroke="rgb(0,0,0)" />
	<line x1="152.522" y1="911.61" x2="285.986" y2="852.188" stroke-width="0.25" stroke="rgb(0,0,0)" />
	<line x1="285.986" y1="850.881" x2="152.522" y2="910.303" stroke-width="0.25" stroke="rgb(0,0,0)" />
	<line x1="152.522" y1="908.996" x2="285.986" y2="849.574" stroke-width="0.25" stroke="rgb(0,0,0)" />
	<line x1="285.986" y1="848.266" x2="152.522" y2="907.688" stroke-width="0.25" stroke="rgb(0,0,0)" />
	<line x1="152.522" y1="906.381" x2="285.986" y2="846.959" stroke-width="0.25" stroke="rgb(0,0,0)" />
	<line x1="285.986" y1="845.652" x2="152.522" y2="905.074" stroke-width="0.25" stroke="rgb(0,0,0)" />
	<line x1="152.522" y1="903.766" x2="285.986" y2="844.344" stroke-width="0.25" stroke="rgb(0,0,0)" />
	<line x1="285.986" y1="843.037" x2="152.522" y2="902.459" stroke-width="0.25" stroke="rgb(0,0,0)" />
	<line x1="152.522" y1="901.152" x2="285.986" y2="841.73" stroke-width="0.25" stroke="rgb(0,0,0)" />
	<line x1="285.986" y1="840.422" x2="152.522" y2="899.844" stroke-width="0.25" stroke="rgb(0,0,0)" />
	<line x1="152.522" y1="898.537" x2="285.986" y2="839.115" stroke-width="0.25" stroke="rgb(0,0,0)" />
	<line x1="285.986" y1="837.808" x2="152.522" y2="897.23" stroke-width="0.25" stroke="rgb(0,0,0)" />
	<line x1="152.522" y1="895.922" x2="284.593" y2="837.121" stroke-width="0.25" stroke="rgb(0,0,0)" />
	<line x1="281.657" y1="837.121" x2="152.522" y2="894.615" stroke-width="0.25" stroke="rgb(0,0,0)" />
	<line x1="152.522" y1="893.308" x2="278.721" y2="837.121" stroke-width="0.25" stroke="rgb(0,0,0)" />
	<line x1="275.784" y1="837.121" x2="152.522" y2="892" stroke-width="0.25" stroke="rgb(0,0,0)" />
	<line x1="152.522" y1="890.693" x2="272.848" y2="837.121" stroke-width="0.25" stroke="rgb(0,0,0)" />
	<line x1="269.912" y1="837.121" x2="152.522" y2="889.386" stroke-width="0.25" stroke="rgb(0,0,0)" />
	<line x1="152.522" y1="888.078" x2="266.975" y2="837.121" stroke-width="0.25" stroke="rgb(0,0,0)" />
	<line x1="264.039" y1="837.121" x2="152.522" y2="886.771" stroke-width="0.25" stroke="rgb(0,0,0)" />
	<line x1="152.522" y1="885.464" x2="261.103" y2="837.121" stroke-width="0.25" stroke="rgb(0,0,0)" />
	<line x1="258.166" y1="837.121" x2="152.522" y2="884.156" stroke-width="0.25" stroke="rgb(0,0,0)" />
	<line x1="152.522" y1="882.849" x2="255.23" y2="837.121" stroke-width="0.25" stroke="rgb(0,0,0)" />
	<line x1="252.294" y1="837.121" x2="152.522" y2="881.542" stroke-width="0.25" stroke="rgb(0,0,0)" />
	<line x1="152.522" y1="880.234" x2="249.357" y2="837.121" stroke-width="0.25" stroke="rgb(0,0,0)" />
	<line x1="246.421" y1="837.121" x2="152.522" y2="878.927" stroke-width="0.25" stroke="rgb(0,0,0)" />
	<line x1="152.522" y1="877.62" x2="243.485" y2="837.121" stroke-width="0.25" stroke="rgb(0,0,0)" />
	<line x1="240.548" y1="837.121" x2="152.522" y2="876.312" stroke-width="0.25" stroke="rgb(0,0,0)" />
	<line x1="152.522" y1="875.005" x2="237.612" y2="837.121" stroke-width="0.25" stroke="rgb(0,0,0)" />
	<line x1="234.676" y1="837.121" x2="152.522" y2="873.698" stroke-width="0.25" stroke="rgb(0,0,0)" />
	<line x1="152.522" y1="872.39" x2="231.739" y2="837.121" stroke-width="0.25" stroke="rgb(0,0,0)" />
	<line x1="228.803" y1="837.121" x2="152.522" y2="871.083" stroke-width="0.25" stroke="rgb(0,0,0)" />
	<line x1="152.522" y1="869.776" x2="225.867" y2="837.121" stroke-width="0.25" stroke="rgb(0,0,0)" />
	<line x1="222.931" y1="837.121" x2="152.522" y2="868.468" stroke-width="0.25" stroke="rgb(0,0,0)" />
	<line x1="152.522" y1="867.161" x2="219.994" y2="837.121" stroke-width="0.25" stroke="rgb(0,0,0)" />
	<line x1="217.058" y1="837.121" x2="152.522" y2="865.854" stroke-width="0.25" stroke="rgb(0,0,0)" />
	<line x1="152.522" y1="864.546" x2="214.122" y2="837.121" stroke-width="0.25" stroke="rgb(0,0,0)" />
	<line x1="211.185" y1="837.121" x2="152.522" y2="863.239" stroke-width="0.25" stroke="rgb(0,0,0)" />
	<line x1="152.522" y1="861.932" x2="208.249" y2="837.121" stroke-width="0.25" stroke="rgb(0,0,0)" />
	<line x1="205.313" y1="837.121" x2="152.522" y2="860.624" stroke-width="0.25" stroke="rgb(0,0,0)" />
	<line x1="152.522" y1="859.317" x2="202.376" y2="837.121" stroke-width="0.25" stroke="rgb(0,0,0)" />
	<line x1="199.44" y1="837.121" x2="152.522" y2="858.01" stroke-width="0.25" stroke="rgb(0,0,0)" />
	<line x1="152.522" y1="856.702" x2="196.504" y2="837.121" stroke-width="0.25" stroke="rgb(0,0,0)" />
	<line x1="193.567" y1="837.121" x2="152.522" y2="855.395" stroke-width="0.25" stroke="rgb(0,0,0)" />
	<line x1="152.522" y1="854.088" x2="190.631" y2="837.121" stroke-width="0.25" stroke="rgb(0,0,0)" />
	<line x1="187.695" y1="837.121" x2="152.522" y2="852.78" stroke-width="0.25" stroke="rgb(0,0,0)" />
	<line x1="152.522" y1="851.473" x2="184.758" y2="837.121" stroke-width="0.25" stroke="rgb(0,0,0)" />
	<line x1="181.822" y1="837.121" x2="152.522" y2="850.166" stroke-width="0.25" stroke="rgb(0,0,0)" />
	<line x1="152.522" y1="848.858" x2="178.886" y2="837.121" stroke-width="0.25" stroke="rgb(0,0,0)" />
	<line x1="175.949" y1="837.121" x2="152.522" y2="847.551" stroke-width="0.25" stroke="rgb(0,0,0)" />
	<line x1="152.522" y1="846.244" x2="173.013" y2="837.121" stroke-width="0.25" stroke="rgb(0,0,0)" />
	<line x1="170.077" y1="837.121" x2="152.522" y2="844.936" stroke-width="0.25" stroke="rgb(0,0,0)" />
	<line x1="152.522" y1="843.629" x2="167.14" y2="837.121" stroke-width="0.25" stroke="rgb(0,0,0)" />
	<line x1="164.204" y1="837.121" x2="152.522" y2="842.322" stroke-width="0.25" stroke="rgb(0,0,0)" />
	<line x1="152.522" y1="841.014" x2="161.268" y2="837.121" stroke-width="0.25" stroke="rgb(0,0,0)" />
	<line x1="158.331" y1="837.121" x2="152.522" y2="839.707" stroke-width="0.25" stroke="rgb(0,0,0)" />
	<line x1="152.522" y1="838.4" x2="155.395" y2="837.121" stroke-width="0.25" stroke="rgb(0,0,0)" />
</svg>
