<?xml version="1.0" standalone="no" ?>
<!DOCTYPE svg PUBLIC "-//W3C//DTD SVG 1.1//EN" "http://www.w3.org/Graphics/SVG/1.1/DTD/svg11.dtd">
<svg width="2000px" height="2000px" xmlns="http://www.w3.org/2000/svg" version="1.1" >
	<line x1="348.389" y1="1577.34" x2="341.977" y2="1570.92" stroke-width="0.25" stroke="rgb(0,0,0)" />
	<line x1="341.977" y1="1570.92" x2="150.665" y2="1570.92" stroke-width="0.25" stroke="rgb(0,0,0)" />
	<line x1="150.665" y1="1570.92" x2="150.665" y2="1768.65" stroke-width="0.25" stroke="rgb(0,0,0)" />
	<line x1="150.665" y1="1768.65" x2="348.389" y2="1768.65" stroke-width="0.25" stroke="rgb(0,0,0)" />
	<line x1="348.389" y1="1768.65" x2="348.389" y2="1577.34" stroke-width="0.25" stroke="rgb(0,0,0)" />
	<line x1="226.824" y1="896.283" x2="150.864" y2="896.283" stroke-width="0.25" stroke="rgb(0,0,0)" />
	<line x1="150.864" y1="896.283" x2="150.864" y2="972.243" stroke-width="0.25" stroke="rgb(0,0,0)" />
	<line x1="150.864" y1="972.243" x2="226.824" y2="972.243" stroke-width="0.25" stroke="rgb(0,0,0)" />
	<line x1="226.824" y1="972.243" x2="226.824" y2="896.283" stroke-width="0.25" stroke="rgb(0,0,0)" />
	<line x1="225.961" y1="897.146" x2="151.726" y2="897.146" stroke-width="0.25" stroke="rgb(0,0,0)" />
	<line x1="151.726" y1="897.146" x2="151.726" y2="971.381" stroke-width="0.25" stroke="rgb(0,0,0)" />
	<line x1="151.726" y1="971.381" x2="225.961" y2="971.381" stroke-width="0.25" stroke="rgb(0,0,0)" />
	<line x1="225.961" y1="971.381" x2="225.961" y2="897.146" stroke-width="0.25" stroke="rgb(0,0,0)" />
	<line x1="150.665" y1="1573.38" x2="150.923" y2="1570.92" stroke-width="0.25" stroke="rgb(0,0,0)" />
	<line x1="151.857" y1="1570.92" x2="150.665" y2="1582.27" stroke-width="0.25" stroke="rgb(0,0,0)" />
	<line x1="150.665" y1="1591.15" x2="152.791" y2="1570.92" stroke-width="0.25" stroke="rgb(0,0,0)" />
	<line x1="153.725" y1="1570.92" x2="150.665" y2="1600.04" stroke-width="0.25" stroke="rgb(0,0,0)" />
	<line x1="150.665" y1="1608.93" x2="154.659" y2="1570.92" stroke-width="0.25" stroke="rgb(0,0,0)" />
	<line x1="155.593" y1="1570.92" x2="150.665" y2="1617.81" stroke-width="0.25" stroke="rgb(0,0,0)" />
	<line x1="150.665" y1="1626.7" x2="156.527" y2="1570.92" stroke-width="0.25" stroke="rgb(0,0,0)" />
	<line x1="157.461" y1="1570.92" x2="150.665" y2="1635.59" stroke-width="0.25" stroke="rgb(0,0,0)" />
	<line x1="150.665" y1="1644.47" x2="158.395" y2="1570.92" stroke-width="0.25" stroke="rgb(0,0,0)" />
	<line x1="159.329" y1="1570.92" x2="150.665" y2="1653.36" stroke-width="0.25" stroke="rgb(0,0,0)" />
	<line x1="150.665" y1="1662.25" x2="160.263" y2="1570.92" stroke-width="0.25" stroke="rgb(0,0,0)" />
	<line x1="161.197" y1="1570.92" x2="150.665" y2="1671.13" stroke-width="0.25" stroke="rgb(0,0,0)" />
	<line x1="150.665" y1="1680.02" x2="162.131" y2="1570.92" stroke-width="0.25" stroke="rgb(0,0,0)" />
	<line x1="163.065" y1="1570.92" x2="150.665" y2="1688.91" stroke-width="0.25" stroke="rgb(0,0,0)" />
	<line x1="150.665" y1="1697.79" x2="163.999" y2="1570.92" stroke-width="0.25" stroke="rgb(0,0,0)" />
	<line x1="164.933" y1="1570.92" x2="150.665" y2="1706.68" stroke-width="0.25" stroke="rgb(0,0,0)" />
	<line x1="150.665" y1="1715.57" x2="165.867" y2="1570.92" stroke-width="0.25" stroke="rgb(0,0,0)" />
	<line x1="166.801" y1="1570.92" x2="150.665" y2="1724.45" stroke-width="0.25" stroke="rgb(0,0,0)" />
	<line x1="150.665" y1="1733.34" x2="167.735" y2="1570.92" stroke-width="0.25" stroke="rgb(0,0,0)" />
	<line x1="168.669" y1="1570.92" x2="150.665" y2="1742.23" stroke-width="0.25" stroke="rgb(0,0,0)" />
	<line x1="150.665" y1="1751.11" x2="169.603" y2="1570.92" stroke-width="0.25" stroke="rgb(0,0,0)" />
	<line x1="170.537" y1="1570.92" x2="150.665" y2="1760" stroke-width="0.25" stroke="rgb(0,0,0)" />
	<line x1="150.689" y1="1768.65" x2="171.471" y2="1570.92" stroke-width="0.25" stroke="rgb(0,0,0)" />
	<line x1="172.405" y1="1570.92" x2="151.623" y2="1768.65" stroke-width="0.25" stroke="rgb(0,0,0)" />
	<line x1="152.557" y1="1768.65" x2="173.339" y2="1570.92" stroke-width="0.25" stroke="rgb(0,0,0)" />
	<line x1="174.273" y1="1570.92" x2="153.491" y2="1768.65" stroke-width="0.25" stroke="rgb(0,0,0)" />
	<line x1="154.425" y1="1768.65" x2="175.207" y2="1570.92" stroke-width="0.25" stroke="rgb(0,0,0)" />
	<line x1="176.141" y1="1570.92" x2="155.36" y2="1768.65" stroke-width="0.25" stroke="rgb(0,0,0)" />
	<line x1="156.294" y1="1768.65" x2="177.075" y2="1570.92" stroke-width="0.25" stroke="rgb(0,0,0)" />
	<line x1="178.009" y1="1570.92" x2="157.228" y2="1768.65" stroke-width="0.25" stroke="rgb(0,0,0)" />
	<line x1="158.162" y1="1768.65" x2="178.943" y2="1570.92" stroke-width="0.25" stroke="rgb(0,0,0)" />
	<line x1="179.877" y1="1570.92" x2="159.096" y2="1768.65" stroke-width="0.25" stroke="rgb(0,0,0)" />
	<line x1="160.03" y1="1768.65" x2="180.811" y2="1570.92" stroke-width="0.25" stroke="rgb(0,0,0)" />
	<line x1="181.745" y1="1570.92" x2="160.964" y2="1768.65" stroke-width="0.25" stroke="rgb(0,0,0)" />
	<line x1="161.898" y1="1768.65" x2="182.679" y2="1570.92" stroke-width="0.25" stroke="rgb(0,0,0)" />
	<line x1="183.613" y1="1570.92" x2="162.832" y2="1768.65" stroke-width="0.25" stroke="rgb(0,0,0)" />
	<line x1="163.766" y1="1768.65" x2="184.547" y2="1570.92" stroke-width="0.25" stroke="rgb(0,0,0)" />
	<line x1="185.481" y1="1570.92" x2="164.7" y2="1768.65" stroke-width="0.25" stroke="rgb(0,0,0)" />
	<line x1="165.634" y1="1768.65" x2="186.415" y2="1570.92" stroke-width="0.25" stroke="rgb(0,0,0)" />
	<line x1="187.349" y1="1570.92" x2="166.568" y2="1768.65" stroke-width="0.25" stroke="rgb(0,0,0)" />
	<line x1="167.502" y1="1768.65" x2="188.284" y2="1570.92" stroke-width="0.25" stroke="rgb(0,0,0)" />
	<line x1="189.218" y1="1570.92" x2="168.436" y2="1768.65" stroke-width="0.25" stroke="rgb(0,0,0)" />
	<line x1="169.37" y1="1768.65" x2="190.152" y2="1570.92" stroke-width="0.25" stroke="rgb(0,0,0)" />
	<line x1="191.086" y1="1570.92" x2="170.304" y2="1768.65" stroke-width="0.25" stroke="rgb(0,0,0)" />
	<line x1="171.238" y1="1768.65" x2="192.02" y2="1570.92" stroke-width="0.25" stroke="rgb(0,0,0)" />
	<line x1="192.954" y1="1570.92" x2="172.172" y2="1768.65" stroke-width="0.25" stroke="rgb(0,0,0)" />
	<line x1="173.106" y1="1768.65" x2="193.888" y2="1570.92" stroke-width="0.25" stroke="rgb(0,0,0)" />
	<line x1="194.822" y1="1570.92" x2="174.04" y2="1768.65" stroke-width="0.25" stroke="rgb(0,0,0)" />
	<line x1="174.974" y1="1768.65" x2="195.756" y2="1570.92" stroke-width="0.25" stroke="rgb(0,0,0)" />
	<line x1="196.69" y1="1570.92" x2="175.908" y2="1768.65" stroke-width="0.25" stroke="rgb(0,0,0)" />
	<line x1="176.842" y1="1768.65" x2="197.624" y2="1570.92" stroke-width="0.25" stroke="rgb(0,0,0)" />
	<line x1="198.558" y1="1570.92" x2="177.776" y2="1768.65" stroke-width="0.25" stroke="rgb(0,0,0)" />
	<line x1="178.71" y1="1768.65" x2="199.492" y2="1570.92" stroke-width="0.25" stroke="rgb(0,0,0)" />
	<line x1="200.426" y1="1570.92" x2="179.644" y2="1768.65" stroke-width="0.25" stroke="rgb(0,0,0)" />
	<line x1="180.578" y1="1768.65" x2="201.36" y2="1570.92" stroke-width="0.25" stroke="rgb(0,0,0)" />
	<line x1="202.294" y1="1570.92" x2="181.512" y2="1768.65" stroke-width="0.25" stroke="rgb(0,0,0)" />
	<line x1="182.446" y1="1768.65" x2="203.228" y2="1570.92" stroke-width="0.25" stroke="rgb(0,0,0)" />
	<line x1="204.162" y1="1570.92" x2="183.38" y2="1768.65" stroke-width="0.25" stroke="rgb(0,0,0)" />
	<line x1="184.314" y1="1768.65" x2="205.096" y2="1570.92" stroke-width="0.25" stroke="rgb(0,0,0)" />
	<line x1="206.03" y1="1570.92" x2="185.248" y2="1768.65" stroke-width="0.25" stroke="rgb(0,0,0)" />
	<line x1="186.182" y1="1768.65" x2="206.964" y2="1570.92" stroke-width="0.25" stroke="rgb(0,0,0)" />
	<line x1="207.898" y1="1570.92" x2="187.116" y2="1768.65" stroke-width="0.25" stroke="rgb(0,0,0)" />
	<line x1="188.05" y1="1768.65" x2="208.832" y2="1570.92" stroke-width="0.25" stroke="rgb(0,0,0)" />
	<line x1="209.766" y1="1570.92" x2="188.984" y2="1768.65" stroke-width="0.25" stroke="rgb(0,0,0)" />
	<line x1="189.918" y1="1768.65" x2="210.7" y2="1570.92" stroke-width="0.25" stroke="rgb(0,0,0)" />
	<line x1="211.634" y1="1570.92" x2="190.852" y2="1768.65" stroke-width="0.25" stroke="rgb(0,0,0)" />
	<line x1="191.786" y1="1768.65" x2="212.568" y2="1570.92" stroke-width="0.25" stroke="rgb(0,0,0)" />
	<line x1="213.502" y1="1570.92" x2="192.72" y2="1768.65" stroke-width="0.25" stroke="rgb(0,0,0)" />
	<line x1="193.654" y1="1768.65" x2="214.436" y2="1570.92" stroke-width="0.25" stroke="rgb(0,0,0)" />
	<line x1="215.37" y1="1570.92" x2="194.589" y2="1768.65" stroke-width="0.25" stroke="rgb(0,0,0)" />
	<line x1="195.523" y1="1768.65" x2="216.304" y2="1570.92" stroke-width="0.25" stroke="rgb(0,0,0)" />
	<line x1="217.238" y1="1570.92" x2="196.457" y2="1768.65" stroke-width="0.25" stroke="rgb(0,0,0)" />
	<line x1="197.391" y1="1768.65" x2="218.172" y2="1570.92" stroke-width="0.25" stroke="rgb(0,0,0)" />
	<line x1="219.106" y1="1570.92" x2="198.325" y2="1768.65" stroke-width="0.25" stroke="rgb(0,0,0)" />
	<line x1="199.259" y1="1768.65" x2="220.04" y2="1570.92" stroke-width="0.25" stroke="rgb(0,0,0)" />
	<line x1="220.974" y1="1570.92" x2="200.193" y2="1768.65" stroke-width="0.25" stroke="rgb(0,0,0)" />
	<line x1="201.127" y1="1768.65" x2="221.908" y2="1570.92" stroke-width="0.25" stroke="rgb(0,0,0)" />
	<line x1="222.842" y1="1570.92" x2="202.061" y2="1768.65" stroke-width="0.25" stroke="rgb(0,0,0)" />
	<line x1="202.995" y1="1768.65" x2="223.776" y2="1570.92" stroke-width="0.25" stroke="rgb(0,0,0)" />
	<line x1="224.71" y1="1570.92" x2="203.929" y2="1768.65" stroke-width="0.25" stroke="rgb(0,0,0)" />
	<line x1="204.863" y1="1768.65" x2="225.644" y2="1570.92" stroke-width="0.25" stroke="rgb(0,0,0)" />
	<line x1="226.578" y1="1570.92" x2="205.797" y2="1768.65" stroke-width="0.25" stroke="rgb(0,0,0)" />
	<line x1="206.731" y1="1768.65" x2="227.512" y2="1570.92" stroke-width="0.25" stroke="rgb(0,0,0)" />
	<line x1="228.447" y1="1570.92" x2="207.665" y2="1768.65" stroke-width="0.25" stroke="rgb(0,0,0)" />
	<line x1="208.599" y1="1768.65" x2="229.381" y2="1570.92" stroke-width="0.25" stroke="rgb(0,0,0)" />
	<line x1="230.315" y1="1570.92" x2="209.533" y2="1768.65" stroke-width="0.25" stroke="rgb(0,0,0)" />
	<line x1="210.467" y1="1768.65" x2="231.249" y2="1570.92" stroke-width="0.25" stroke="rgb(0,0,0)" />
	<line x1="232.183" y1="1570.92" x2="211.401" y2="1768.65" stroke-width="0.25" stroke="rgb(0,0,0)" />
	<line x1="212.335" y1="1768.65" x2="233.117" y2="1570.92" stroke-width="0.25" stroke="rgb(0,0,0)" />
	<line x1="234.051" y1="1570.92" x2="213.269" y2="1768.65" stroke-width="0.25" stroke="rgb(0,0,0)" />
	<line x1="214.203" y1="1768.65" x2="234.985" y2="1570.92" stroke-width="0.25" stroke="rgb(0,0,0)" />
	<line x1="235.919" y1="1570.92" x2="215.137" y2="1768.65" stroke-width="0.25" stroke="rgb(0,0,0)" />
	<line x1="216.071" y1="1768.65" x2="236.853" y2="1570.92" stroke-width="0.25" stroke="rgb(0,0,0)" />
	<line x1="237.787" y1="1570.92" x2="217.005" y2="1768.65" stroke-width="0.25" stroke="rgb(0,0,0)" />
	<line x1="217.939" y1="1768.65" x2="238.721" y2="1570.92" stroke-width="0.25" stroke="rgb(0,0,0)" />
	<line x1="239.655" y1="1570.92" x2="218.873" y2="1768.65" stroke-width="0.25" stroke="rgb(0,0,0)" />
	<line x1="219.807" y1="1768.65" x2="240.589" y2="1570.92" stroke-width="0.25" stroke="rgb(0,0,0)" />
	<line x1="241.523" y1="1570.92" x2="220.741" y2="1768.65" stroke-width="0.25" stroke="rgb(0,0,0)" />
	<line x1="221.675" y1="1768.65" x2="242.457" y2="1570.92" stroke-width="0.25" stroke="rgb(0,0,0)" />
	<line x1="243.391" y1="1570.92" x2="222.609" y2="1768.65" stroke-width="0.25" stroke="rgb(0,0,0)" />
	<line x1="223.543" y1="1768.65" x2="244.325" y2="1570.92" stroke-width="0.25" stroke="rgb(0,0,0)" />
	<line x1="245.259" y1="1570.92" x2="224.477" y2="1768.65" stroke-width="0.25" stroke="rgb(0,0,0)" />
	<line x1="225.411" y1="1768.65" x2="246.193" y2="1570.92" stroke-width="0.25" stroke="rgb(0,0,0)" />
	<line x1="247.127" y1="1570.92" x2="226.345" y2="1768.65" stroke-width="0.25" stroke="rgb(0,0,0)" />
	<line x1="227.279" y1="1768.65" x2="248.061" y2="1570.92" stroke-width="0.25" stroke="rgb(0,0,0)" />
	<line x1="248.995" y1="1570.92" x2="228.213" y2="1768.65" stroke-width="0.25" stroke="rgb(0,0,0)" />
	<line x1="229.147" y1="1768.65" x2="249.929" y2="1570.92" stroke-width="0.25" stroke="rgb(0,0,0)" />
	<line x1="250.863" y1="1570.92" x2="230.081" y2="1768.65" stroke-width="0.25" stroke="rgb(0,0,0)" />
	<line x1="231.015" y1="1768.65" x2="251.797" y2="1570.92" stroke-width="0.25" stroke="rgb(0,0,0)" />
	<line x1="252.731" y1="1570.92" x2="231.949" y2="1768.65" stroke-width="0.25" stroke="rgb(0,0,0)" />
	<line x1="232.883" y1="1768.65" x2="253.665" y2="1570.92" stroke-width="0.25" stroke="rgb(0,0,0)" />
	<line x1="254.599" y1="1570.92" x2="233.818" y2="1768.65" stroke-width="0.25" stroke="rgb(0,0,0)" />
	<line x1="234.752" y1="1768.65" x2="255.533" y2="1570.92" stroke-width="0.25" stroke="rgb(0,0,0)" />
	<line x1="256.467" y1="1570.92" x2="235.686" y2="1768.65" stroke-width="0.25" stroke="rgb(0,0,0)" />
	<line x1="236.62" y1="1768.65" x2="257.401" y2="1570.92" stroke-width="0.25" stroke="rgb(0,0,0)" />
	<line x1="258.335" y1="1570.92" x2="237.554" y2="1768.65" stroke-width="0.25" stroke="rgb(0,0,0)" />
	<line x1="238.488" y1="1768.65" x2="259.269" y2="1570.92" stroke-width="0.25" stroke="rgb(0,0,0)" />
	<line x1="260.203" y1="1570.92" x2="239.422" y2="1768.65" stroke-width="0.25" stroke="rgb(0,0,0)" />
	<line x1="240.356" y1="1768.65" x2="261.137" y2="1570.92" stroke-width="0.25" stroke="rgb(0,0,0)" />
	<line x1="262.071" y1="1570.92" x2="241.29" y2="1768.65" stroke-width="0.25" stroke="rgb(0,0,0)" />
	<line x1="242.224" y1="1768.65" x2="263.005" y2="1570.92" stroke-width="0.25" stroke="rgb(0,0,0)" />
	<line x1="263.939" y1="1570.92" x2="243.158" y2="1768.65" stroke-width="0.25" stroke="rgb(0,0,0)" />
	<line x1="244.092" y1="1768.65" x2="264.873" y2="1570.92" stroke-width="0.25" stroke="rgb(0,0,0)" />
	<line x1="265.807" y1="1570.92" x2="245.026" y2="1768.65" stroke-width="0.25" stroke="rgb(0,0,0)" />
	<line x1="245.96" y1="1768.65" x2="266.741" y2="1570.92" stroke-width="0.25" stroke="rgb(0,0,0)" />
	<line x1="267.676" y1="1570.92" x2="246.894" y2="1768.65" stroke-width="0.25" stroke="rgb(0,0,0)" />
	<line x1="247.828" y1="1768.65" x2="268.61" y2="1570.92" stroke-width="0.25" stroke="rgb(0,0,0)" />
	<line x1="269.544" y1="1570.92" x2="248.762" y2="1768.65" stroke-width="0.25" stroke="rgb(0,0,0)" />
	<line x1="249.696" y1="1768.65" x2="270.478" y2="1570.92" stroke-width="0.25" stroke="rgb(0,0,0)" />
	<line x1="271.412" y1="1570.92" x2="250.63" y2="1768.65" stroke-width="0.25" stroke="rgb(0,0,0)" />
	<line x1="251.564" y1="1768.65" x2="272.346" y2="1570.92" stroke-width="0.25" stroke="rgb(0,0,0)" />
	<line x1="273.28" y1="1570.92" x2="252.498" y2="1768.65" stroke-width="0.25" stroke="rgb(0,0,0)" />
	<line x1="253.432" y1="1768.65" x2="274.214" y2="1570.92" stroke-width="0.25" stroke="rgb(0,0,0)" />
	<line x1="275.148" y1="1570.92" x2="254.366" y2="1768.65" stroke-width="0.25" stroke="rgb(0,0,0)" />
	<line x1="255.3" y1="1768.65" x2="276.082" y2="1570.92" stroke-width="0.25" stroke="rgb(0,0,0)" />
	<line x1="277.016" y1="1570.92" x2="256.234" y2="1768.65" stroke-width="0.25" stroke="rgb(0,0,0)" />
	<line x1="257.168" y1="1768.65" x2="277.95" y2="1570.92" stroke-width="0.25" stroke="rgb(0,0,0)" />
	<line x1="278.884" y1="1570.92" x2="258.102" y2="1768.65" stroke-width="0.25" stroke="rgb(0,0,0)" />
	<line x1="259.036" y1="1768.65" x2="279.818" y2="1570.92" stroke-width="0.25" stroke="rgb(0,0,0)" />
	<line x1="280.752" y1="1570.92" x2="259.97" y2="1768.65" stroke-width="0.25" stroke="rgb(0,0,0)" />
	<line x1="260.904" y1="1768.65" x2="281.686" y2="1570.92" stroke-width="0.25" stroke="rgb(0,0,0)" />
	<line x1="282.62" y1="1570.92" x2="261.838" y2="1768.65" stroke-width="0.25" stroke="rgb(0,0,0)" />
	<line x1="262.772" y1="1768.65" x2="283.554" y2="1570.92" stroke-width="0.25" stroke="rgb(0,0,0)" />
	<line x1="284.488" y1="1570.92" x2="263.706" y2="1768.65" stroke-width="0.25" stroke="rgb(0,0,0)" />
	<line x1="264.64" y1="1768.65" x2="285.422" y2="1570.92" stroke-width="0.25" stroke="rgb(0,0,0)" />
	<line x1="286.356" y1="1570.92" x2="265.574" y2="1768.65" stroke-width="0.25" stroke="rgb(0,0,0)" />
	<line x1="266.508" y1="1768.65" x2="287.29" y2="1570.92" stroke-width="0.25" stroke="rgb(0,0,0)" />
	<line x1="288.224" y1="1570.92" x2="267.442" y2="1768.65" stroke-width="0.25" stroke="rgb(0,0,0)" />
	<line x1="268.376" y1="1768.65" x2="289.158" y2="1570.92" stroke-width="0.25" stroke="rgb(0,0,0)" />
	<line x1="290.092" y1="1570.92" x2="269.31" y2="1768.65" stroke-width="0.25" stroke="rgb(0,0,0)" />
	<line x1="270.244" y1="1768.65" x2="291.026" y2="1570.92" stroke-width="0.25" stroke="rgb(0,0,0)" />
	<line x1="291.96" y1="1570.92" x2="271.178" y2="1768.65" stroke-width="0.25" stroke="rgb(0,0,0)" />
	<line x1="272.112" y1="1768.65" x2="292.894" y2="1570.92" stroke-width="0.25" stroke="rgb(0,0,0)" />
	<line x1="293.828" y1="1570.92" x2="273.046" y2="1768.65" stroke-width="0.25" stroke="rgb(0,0,0)" />
	<line x1="273.981" y1="1768.65" x2="294.762" y2="1570.92" stroke-width="0.25" stroke="rgb(0,0,0)" />
	<line x1="295.696" y1="1570.92" x2="274.915" y2="1768.65" stroke-width="0.25" stroke="rgb(0,0,0)" />
	<line x1="275.849" y1="1768.65" x2="296.63" y2="1570.92" stroke-width="0.25" stroke="rgb(0,0,0)" />
	<line x1="297.564" y1="1570.92" x2="276.783" y2="1768.65" stroke-width="0.25" stroke="rgb(0,0,0)" />
	<line x1="277.717" y1="1768.65" x2="298.498" y2="1570.92" stroke-width="0.25" stroke="rgb(0,0,0)" />
	<line x1="299.432" y1="1570.92" x2="278.651" y2="1768.65" stroke-width="0.25" stroke="rgb(0,0,0)" />
	<line x1="279.585" y1="1768.65" x2="300.366" y2="1570.92" stroke-width="0.25" stroke="rgb(0,0,0)" />
	<line x1="301.3" y1="1570.92" x2="280.519" y2="1768.65" stroke-width="0.25" stroke="rgb(0,0,0)" />
	<line x1="281.453" y1="1768.65" x2="302.234" y2="1570.92" stroke-width="0.25" stroke="rgb(0,0,0)" />
	<line x1="303.168" y1="1570.92" x2="282.387" y2="1768.65" stroke-width="0.25" stroke="rgb(0,0,0)" />
	<line x1="283.321" y1="1768.65" x2="304.102" y2="1570.92" stroke-width="0.25" stroke="rgb(0,0,0)" />
	<line x1="305.036" y1="1570.92" x2="284.255" y2="1768.65" stroke-width="0.25" stroke="rgb(0,0,0)" />
	<line x1="285.189" y1="1768.65" x2="305.97" y2="1570.92" stroke-width="0.25" stroke="rgb(0,0,0)" />
	<line x1="306.905" y1="1570.92" x2="286.123" y2="1768.65" stroke-width="0.25" stroke="rgb(0,0,0)" />
	<line x1="287.057" y1="1768.65" x2="307.839" y2="1570.92" stroke-width="0.25" stroke="rgb(0,0,0)" />
	<line x1="308.773" y1="1570.92" x2="287.991" y2="1768.65" stroke-width="0.25" stroke="rgb(0,0,0)" />
	<line x1="288.925" y1="1768.65" x2="309.707" y2="1570.92" stroke-width="0.25" stroke="rgb(0,0,0)" />
	<line x1="310.641" y1="1570.92" x2="289.859" y2="1768.65" stroke-width="0.25" stroke="rgb(0,0,0)" />
	<line x1="290.793" y1="1768.65" x2="311.575" y2="1570.92" stroke-width="0.25" stroke="rgb(0,0,0)" />
	<line x1="312.509" y1="1570.92" x2="291.727" y2="1768.65" stroke-width="0.25" stroke="rgb(0,0,0)" />
	<line x1="292.661" y1="1768.65" x2="313.443" y2="1570.92" stroke-width="0.25" stroke="rgb(0,0,0)" />
	<line x1="314.377" y1="1570.92" x2="293.595" y2="1768.65" stroke-width="0.25" stroke="rgb(0,0,0)" />
	<line x1="294.529" y1="1768.65" x2="315.311" y2="1570.92" stroke-width="0.25" stroke="rgb(0,0,0)" />
	<line x1="316.245" y1="1570.92" x2="295.463" y2="1768.65" stroke-width="0.25" stroke="rgb(0,0,0)" />
	<line x1="296.397" y1="1768.65" x2="317.179" y2="1570.92" stroke-width="0.25" stroke="rgb(0,0,0)" />
	<line x1="318.113" y1="1570.92" x2="297.331" y2="1768.65" stroke-width="0.25" stroke="rgb(0,0,0)" />
	<line x1="298.265" y1="1768.65" x2="319.047" y2="1570.92" stroke-width="0.25" stroke="rgb(0,0,0)" />
	<line x1="319.981" y1="1570.92" x2="299.199" y2="1768.65" stroke-width="0.25" stroke="rgb(0,0,0)" />
	<line x1="300.133" y1="1768.65" x2="320.915" y2="1570.92" stroke-width="0.25" stroke="rgb(0,0,0)" />
	<line x1="321.849" y1="1570.92" x2="301.067" y2="1768.65" stroke-width="0.25" stroke="rgb(0,0,0)" />
	<line x1="302.001" y1="1768.65" x2="322.783" y2="1570.92" stroke-width="0.25" stroke="rgb(0,0,0)" />
	<line x1="323.717" y1="1570.92" x2="302.935" y2="1768.65" stroke-width="0.25" stroke="rgb(0,0,0)" />
	<line x1="303.869" y1="1768.65" x2="324.651" y2="1570.92" stroke-width="0.25" stroke="rgb(0,0,0)" />
	<line x1="325.585" y1="1570.92" x2="304.803" y2="1768.65" stroke-width="0.25" stroke="rgb(0,0,0)" />
	<line x1="305.737" y1="1768.65" x2="326.519" y2="1570.92" stroke-width="0.25" stroke="rgb(0,0,0)" />
	<line x1="327.453" y1="1570.92" x2="306.671" y2="1768.65" stroke-width="0.25" stroke="rgb(0,0,0)" />
	<line x1="307.605" y1="1768.65" x2="328.387" y2="1570.92" stroke-width="0.25" stroke="rgb(0,0,0)" />
	<line x1="329.321" y1="1570.92" x2="308.539" y2="1768.65" stroke-width="0.25" stroke="rgb(0,0,0)" />
	<line x1="309.473" y1="1768.65" x2="330.255" y2="1570.92" stroke-width="0.25" stroke="rgb(0,0,0)" />
	<line x1="331.189" y1="1570.92" x2="310.407" y2="1768.65" stroke-width="0.25" stroke="rgb(0,0,0)" />
	<line x1="311.341" y1="1768.65" x2="332.123" y2="1570.92" stroke-width="0.25" stroke="rgb(0,0,0)" />
	<line x1="333.057" y1="1570.92" x2="312.275" y2="1768.65" stroke-width="0.25" stroke="rgb(0,0,0)" />
	<line x1="313.21" y1="1768.65" x2="333.991" y2="1570.92" stroke-width="0.25" stroke="rgb(0,0,0)" />
	<line x1="334.925" y1="1570.92" x2="314.144" y2="1768.65" stroke-width="0.25" stroke="rgb(0,0,0)" />
	<line x1="315.078" y1="1768.65" x2="335.859" y2="1570.92" stroke-width="0.25" stroke="rgb(0,0,0)" />
	<line x1="336.793" y1="1570.92" x2="316.012" y2="1768.65" stroke-width="0.25" stroke="rgb(0,0,0)" />
	<line x1="316.946" y1="1768.65" x2="337.727" y2="1570.92" stroke-width="0.25" stroke="rgb(0,0,0)" />
	<line x1="338.661" y1="1570.92" x2="317.88" y2="1768.65" stroke-width="0.25" stroke="rgb(0,0,0)" />
	<line x1="318.814" y1="1768.65" x2="339.595" y2="1570.92" stroke-width="0.25" stroke="rgb(0,0,0)" />
	<line x1="340.529" y1="1570.92" x2="319.748" y2="1768.65" stroke-width="0.25" stroke="rgb(0,0,0)" />
	<line x1="320.682" y1="1768.65" x2="341.463" y2="1570.92" stroke-width="0.25" stroke="rgb(0,0,0)" />
	<line x1="342.357" y1="1571.3" x2="321.616" y2="1768.65" stroke-width="0.25" stroke="rgb(0,0,0)" />
	<line x1="322.55" y1="1768.65" x2="343.203" y2="1572.15" stroke-width="0.25" stroke="rgb(0,0,0)" />
	<line x1="344.048" y1="1573" x2="323.484" y2="1768.65" stroke-width="0.25" stroke="rgb(0,0,0)" />
	<line x1="324.418" y1="1768.65" x2="344.893" y2="1573.84" stroke-width="0.25" stroke="rgb(0,0,0)" />
	<line x1="345.738" y1="1574.69" x2="325.352" y2="1768.65" stroke-width="0.25" stroke="rgb(0,0,0)" />
	<line x1="326.286" y1="1768.65" x2="346.583" y2="1575.53" stroke-width="0.25" stroke="rgb(0,0,0)" />
	<line x1="347.429" y1="1576.38" x2="327.22" y2="1768.65" stroke-width="0.25" stroke="rgb(0,0,0)" />
	<line x1="328.154" y1="1768.65" x2="348.274" y2="1577.22" stroke-width="0.25" stroke="rgb(0,0,0)" />
	<line x1="348.389" y1="1585.01" x2="329.088" y2="1768.65" stroke-width="0.25" stroke="rgb(0,0,0)" />
	<line x1="330.022" y1="1768.65" x2="348.389" y2="1593.9" stroke-width="0.25" stroke="rgb(0,0,0)" />
	<line x1="348.389" y1="1602.78" x2="330.956" y2="1768.65" stroke-width="0.25" stroke="rgb(0,0,0)" />
	<line x1="331.89" y1="1768.65" x2="348.389" y2="1611.67" stroke-width="0.25" stroke="rgb(0,0,0)" />
	<line x1="348.389" y1="1620.56" x2="332.824" y2="1768.65" stroke-width="0.25" stroke="rgb(0,0,0)" />
	<line x1="333.758" y1="1768.65" x2="348.389" y2="1629.44" stroke-width="0.25" stroke="rgb(0,0,0)" />
	<line x1="348.389" y1="1638.33" x2="334.692" y2="1768.65" stroke-width="0.25" stroke="rgb(0,0,0)" />
	<line x1="335.626" y1="1768.65" x2="348.389" y2="1647.22" stroke-width="0.25" stroke="rgb(0,0,0)" />
	<line x1="348.389" y1="1656.1" x2="336.56" y2="1768.65" stroke-width="0.25" stroke="rgb(0,0,0)" />
	<line x1="337.494" y1="1768.65" x2="348.389" y2="1664.99" stroke-width="0.25" stroke="rgb(0,0,0)" />
	<line x1="348.389" y1="1673.88" x2="338.428" y2="1768.65" stroke-width="0.25" stroke="rgb(0,0,0)" />
	<line x1="339.362" y1="1768.65" x2="348.389" y2="1682.76" stroke-width="0.25" stroke="rgb(0,0,0)" />
	<line x1="348.389" y1="1691.65" x2="340.296" y2="1768.65" stroke-width="0.25" stroke="rgb(0,0,0)" />
	<line x1="341.23" y1="1768.65" x2="348.389" y2="1700.54" stroke-width="0.25" stroke="rgb(0,0,0)" />
	<line x1="348.389" y1="1709.42" x2="342.164" y2="1768.65" stroke-width="0.25" stroke="rgb(0,0,0)" />
	<line x1="343.098" y1="1768.65" x2="348.389" y2="1718.31" stroke-width="0.25" stroke="rgb(0,0,0)" />
	<line x1="348.389" y1="1727.2" x2="344.032" y2="1768.65" stroke-width="0.25" stroke="rgb(0,0,0)" />
	<line x1="344.966" y1="1768.65" x2="348.389" y2="1736.08" stroke-width="0.25" stroke="rgb(0,0,0)" />
	<line x1="348.389" y1="1744.97" x2="345.9" y2="1768.65" stroke-width="0.25" stroke="rgb(0,0,0)" />
	<line x1="346.834" y1="1768.65" x2="348.389" y2="1753.86" stroke-width="0.25" stroke="rgb(0,0,0)" />
	<line x1="348.389" y1="1762.74" x2="347.768" y2="1768.65" stroke-width="0.25" stroke="rgb(0,0,0)" />
	<line x1="152.522" y1="905.709" x2="153.339" y2="897.942" stroke-width="0.25" stroke="rgb(0,0,0)" />
	<line x1="154.54" y1="897.942" x2="152.522" y2="917.135" stroke-width="0.25" stroke="rgb(0,0,0)" />
	<line x1="152.522" y1="928.56" x2="155.74" y2="897.942" stroke-width="0.25" stroke="rgb(0,0,0)" />
	<line x1="156.941" y1="897.942" x2="152.522" y2="939.986" stroke-width="0.25" stroke="rgb(0,0,0)" />
	<line x1="152.522" y1="951.412" x2="158.142" y2="897.942" stroke-width="0.25" stroke="rgb(0,0,0)" />
	<line x1="159.343" y1="897.942" x2="152.522" y2="962.837" stroke-width="0.25" stroke="rgb(0,0,0)" />
	<line x1="152.909" y1="970.585" x2="160.544" y2="897.942" stroke-width="0.25" stroke="rgb(0,0,0)" />
	<line x1="161.745" y1="897.942" x2="154.11" y2="970.585" stroke-width="0.25" stroke="rgb(0,0,0)" />
	<line x1="155.311" y1="970.585" x2="162.946" y2="897.942" stroke-width="0.25" stroke="rgb(0,0,0)" />
	<line x1="164.147" y1="897.942" x2="156.512" y2="970.585" stroke-width="0.25" stroke="rgb(0,0,0)" />
	<line x1="157.712" y1="970.585" x2="165.348" y2="897.942" stroke-width="0.25" stroke="rgb(0,0,0)" />
	<line x1="166.548" y1="897.942" x2="158.913" y2="970.585" stroke-width="0.25" stroke="rgb(0,0,0)" />
	<line x1="160.114" y1="970.585" x2="167.749" y2="897.942" stroke-width="0.25" stroke="rgb(0,0,0)" />
	<line x1="168.95" y1="897.942" x2="161.315" y2="970.585" stroke-width="0.25" stroke="rgb(0,0,0)" />
	<line x1="162.516" y1="970.585" x2="170.151" y2="897.942" stroke-width="0.25" stroke="rgb(0,0,0)" />
	<line x1="171.352" y1="897.942" x2="163.717" y2="970.585" stroke-width="0.25" stroke="rgb(0,0,0)" />
	<line x1="164.918" y1="970.585" x2="172.553" y2="897.942" stroke-width="0.25" stroke="rgb(0,0,0)" />
	<line x1="173.754" y1="897.942" x2="166.119" y2="970.585" stroke-width="0.25" stroke="rgb(0,0,0)" />
	<line x1="167.32" y1="970.585" x2="174.955" y2="897.942" stroke-width="0.25" stroke="rgb(0,0,0)" />
	<line x1="176.156" y1="897.942" x2="168.52" y2="970.585" stroke-width="0.25" stroke="rgb(0,0,0)" />
	<line x1="169.721" y1="970.585" x2="177.356" y2="897.942" stroke-width="0.25" stroke="rgb(0,0,0)" />
	<line x1="178.557" y1="897.942" x2="170.922" y2="970.585" stroke-width="0.25" stroke="rgb(0,0,0)" />
	<line x1="172.123" y1="970.585" x2="179.758" y2="897.942" stroke-width="0.25" stroke="rgb(0,0,0)" />
	<line x1="180.959" y1="897.942" x2="173.324" y2="970.585" stroke-width="0.25" stroke="rgb(0,0,0)" />
	<line x1="174.525" y1="970.585" x2="182.16" y2="897.942" stroke-width="0.25" stroke="rgb(0,0,0)" />
	<line x1="183.361" y1="897.942" x2="175.726" y2="970.585" stroke-width="0.25" stroke="rgb(0,0,0)" />
	<line x1="176.927" y1="970.585" x2="184.562" y2="897.942" stroke-width="0.25" stroke="rgb(0,0,0)" />
	<line x1="185.763" y1="897.942" x2="178.128" y2="970.585" stroke-width="0.25" stroke="rgb(0,0,0)" />
	<line x1="179.328" y1="970.585" x2="186.964" y2="897.942" stroke-width="0.25" stroke="rgb(0,0,0)" />
	<line x1="188.164" y1="897.942" x2="180.529" y2="970.585" stroke-width="0.25" stroke="rgb(0,0,0)" />
	<line x1="181.73" y1="970.585" x2="189.365" y2="897.942" stroke-width="0.25" stroke="rgb(0,0,0)" />
	<line x1="190.566" y1="897.942" x2="182.931" y2="970.585" stroke-width="0.25" stroke="rgb(0,0,0)" />
	<line x1="184.132" y1="970.585" x2="191.767" y2="897.942" stroke-width="0.25" stroke="rgb(0,0,0)" />
	<line x1="192.968" y1="897.942" x2="185.333" y2="970.585" stroke-width="0.25" stroke="rgb(0,0,0)" />
	<line x1="186.534" y1="970.585" x2="194.169" y2="897.942" stroke-width="0.25" stroke="rgb(0,0,0)" />
	<line x1="195.37" y1="897.942" x2="187.735" y2="970.585" stroke-width="0.25" stroke="rgb(0,0,0)" />
	<line x1="188.936" y1="970.585" x2="196.571" y2="897.942" stroke-width="0.25" stroke="rgb(0,0,0)" />
	<line x1="197.771" y1="897.942" x2="190.136" y2="970.585" stroke-width="0.25" stroke="rgb(0,0,0)" />
	<line x1="191.337" y1="970.585" x2="198.972" y2="897.942" stroke-width="0.25" stroke="rgb(0,0,0)" />
	<line x1="200.173" y1="897.942" x2="192.538" y2="970.585" stroke-width="0.25" stroke="rgb(0,0,0)" />
	<line x1="193.739" y1="970.585" x2="201.374" y2="897.942" stroke-width="0.25" stroke="rgb(0,0,0)" />
	<line x1="202.575" y1="897.942" x2="194.94" y2="970.585" stroke-width="0.25" stroke="rgb(0,0,0)" />
	<line x1="196.141" y1="970.585" x2="203.776" y2="897.942" stroke-width="0.25" stroke="rgb(0,0,0)" />
	<line x1="204.977" y1="897.942" x2="197.342" y2="970.585" stroke-width="0.25" stroke="rgb(0,0,0)" />
	<line x1="198.543" y1="970.585" x2="206.178" y2="897.942" stroke-width="0.25" stroke="rgb(0,0,0)" />
	<line x1="207.379" y1="897.942" x2="199.744" y2="970.585" stroke-width="0.25" stroke="rgb(0,0,0)" />
	<line x1="200.944" y1="970.585" x2="208.579" y2="897.942" stroke-width="0.25" stroke="rgb(0,0,0)" />
	<line x1="209.78" y1="897.942" x2="202.145" y2="970.585" stroke-width="0.25" stroke="rgb(0,0,0)" />
	<line x1="203.346" y1="970.585" x2="210.981" y2="897.942" stroke-width="0.25" stroke="rgb(0,0,0)" />
	<line x1="212.182" y1="897.942" x2="204.547" y2="970.585" stroke-width="0.25" stroke="rgb(0,0,0)" />
	<line x1="205.748" y1="970.585" x2="213.383" y2="897.942" stroke-width="0.25" stroke="rgb(0,0,0)" />
	<line x1="214.584" y1="897.942" x2="206.949" y2="970.585" stroke-width="0.25" stroke="rgb(0,0,0)" />
	<line x1="208.15" y1="970.585" x2="215.785" y2="897.942" stroke-width="0.25" stroke="rgb(0,0,0)" />
	<line x1="216.986" y1="897.942" x2="209.351" y2="970.585" stroke-width="0.25" stroke="rgb(0,0,0)" />
	<line x1="210.552" y1="970.585" x2="218.187" y2="897.942" stroke-width="0.25" stroke="rgb(0,0,0)" />
	<line x1="219.387" y1="897.942" x2="211.752" y2="970.585" stroke-width="0.25" stroke="rgb(0,0,0)" />
	<line x1="212.953" y1="970.585" x2="220.588" y2="897.942" stroke-width="0.25" stroke="rgb(0,0,0)" />
	<line x1="221.789" y1="897.942" x2="214.154" y2="970.585" stroke-width="0.25" stroke="rgb(0,0,0)" />
	<line x1="215.355" y1="970.585" x2="222.99" y2="897.942" stroke-width="0.25" stroke="rgb(0,0,0)" />
	<line x1="224.191" y1="897.942" x2="216.556" y2="970.585" stroke-width="0.25" stroke="rgb(0,0,0)" />
	<line x1="217.757" y1="970.585" x2="225.165" y2="900.101" stroke-width="0.25" stroke="rgb(0,0,0)" />
	<line x1="225.165" y1="911.527" x2="218.958" y2="970.585" stroke-width="0.25" stroke="rgb(0,0,0)" />
	<line x1="220.159" y1="970.585" x2="225.165" y2="922.953" stroke-width="0.25" stroke="rgb(0,0,0)" />
	<line x1="225.165" y1="934.378" x2="221.36" y2="970.585" stroke-width="0.25" stroke="rgb(0,0,0)" />
	<line x1="222.56" y1="970.585" x2="225.165" y2="945.804" stroke-width="0.25" stroke="rgb(0,0,0)" />
	<line x1="225.165" y1="957.23" x2="223.761" y2="970.585" stroke-width="0.25" stroke="rgb(0,0,0)" />
	<line x1="224.962" y1="970.585" x2="225.165" y2="968.655" stroke-width="0.25" stroke="rgb(0,0,0)" />
</svg>
