<?xml version="1.0" standalone="no" ?>
<!DOCTYPE svg PUBLIC "-//W3C//DTD SVG 1.1//EN" "http://www.w3.org/Graphics/SVG/1.1/DTD/svg11.dtd">
<svg width="2000px" height="2000px" xmlns="http://www.w3.org/2000/svg" version="1.1" >
	<line x1="348.389" y1="1686.81" x2="232.498" y2="1570.92" stroke-width="0.25" stroke="rgb(0,0,0)" />
	<line x1="232.498" y1="1570.92" x2="150.665" y2="1570.92" stroke-width="0.25" stroke="rgb(0,0,0)" />
	<line x1="150.665" y1="1570.92" x2="150.665" y2="1768.65" stroke-width="0.25" stroke="rgb(0,0,0)" />
	<line x1="150.665" y1="1768.65" x2="348.389" y2="1768.65" stroke-width="0.25" stroke="rgb(0,0,0)" />
	<line x1="348.389" y1="1768.65" x2="348.389" y2="1686.81" stroke-width="0.25" stroke="rgb(0,0,0)" />
	<line x1="409.288" y1="713.819" x2="150.864" y2="713.819" stroke-width="0.25" stroke="rgb(0,0,0)" />
	<line x1="150.864" y1="713.819" x2="150.864" y2="972.243" stroke-width="0.25" stroke="rgb(0,0,0)" />
	<line x1="150.864" y1="972.243" x2="409.288" y2="972.243" stroke-width="0.25" stroke="rgb(0,0,0)" />
	<line x1="409.288" y1="972.243" x2="409.288" y2="713.819" stroke-width="0.25" stroke="rgb(0,0,0)" />
	<line x1="408.425" y1="714.682" x2="151.726" y2="714.682" stroke-width="0.25" stroke="rgb(0,0,0)" />
	<line x1="151.726" y1="714.682" x2="151.726" y2="971.381" stroke-width="0.25" stroke="rgb(0,0,0)" />
	<line x1="151.726" y1="971.381" x2="408.425" y2="971.381" stroke-width="0.25" stroke="rgb(0,0,0)" />
	<line x1="408.425" y1="971.381" x2="408.425" y2="714.682" stroke-width="0.25" stroke="rgb(0,0,0)" />
	<line x1="348.188" y1="1768.65" x2="348.389" y2="1766.74" stroke-width="0.25" stroke="rgb(0,0,0)" />
	<line x1="348.389" y1="1757.85" x2="347.254" y2="1768.65" stroke-width="0.25" stroke="rgb(0,0,0)" />
	<line x1="346.32" y1="1768.65" x2="348.389" y2="1748.96" stroke-width="0.25" stroke="rgb(0,0,0)" />
	<line x1="348.389" y1="1740.08" x2="345.386" y2="1768.65" stroke-width="0.25" stroke="rgb(0,0,0)" />
	<line x1="344.452" y1="1768.65" x2="348.389" y2="1731.19" stroke-width="0.25" stroke="rgb(0,0,0)" />
	<line x1="348.389" y1="1722.3" x2="343.518" y2="1768.65" stroke-width="0.25" stroke="rgb(0,0,0)" />
	<line x1="342.584" y1="1768.65" x2="348.389" y2="1713.42" stroke-width="0.25" stroke="rgb(0,0,0)" />
	<line x1="348.389" y1="1704.53" x2="341.65" y2="1768.65" stroke-width="0.25" stroke="rgb(0,0,0)" />
	<line x1="340.716" y1="1768.65" x2="348.389" y2="1695.65" stroke-width="0.25" stroke="rgb(0,0,0)" />
	<line x1="348.384" y1="1686.81" x2="339.782" y2="1768.65" stroke-width="0.25" stroke="rgb(0,0,0)" />
	<line x1="338.848" y1="1768.65" x2="347.538" y2="1685.96" stroke-width="0.25" stroke="rgb(0,0,0)" />
	<line x1="346.693" y1="1685.12" x2="337.914" y2="1768.65" stroke-width="0.25" stroke="rgb(0,0,0)" />
	<line x1="336.98" y1="1768.65" x2="345.848" y2="1684.27" stroke-width="0.25" stroke="rgb(0,0,0)" />
	<line x1="345.003" y1="1683.43" x2="336.046" y2="1768.65" stroke-width="0.25" stroke="rgb(0,0,0)" />
	<line x1="335.112" y1="1768.65" x2="344.158" y2="1682.58" stroke-width="0.25" stroke="rgb(0,0,0)" />
	<line x1="343.312" y1="1681.74" x2="334.178" y2="1768.65" stroke-width="0.25" stroke="rgb(0,0,0)" />
	<line x1="333.244" y1="1768.65" x2="342.467" y2="1680.89" stroke-width="0.25" stroke="rgb(0,0,0)" />
	<line x1="341.622" y1="1680.05" x2="332.31" y2="1768.65" stroke-width="0.25" stroke="rgb(0,0,0)" />
	<line x1="331.376" y1="1768.65" x2="340.777" y2="1679.2" stroke-width="0.25" stroke="rgb(0,0,0)" />
	<line x1="339.932" y1="1678.36" x2="330.442" y2="1768.65" stroke-width="0.25" stroke="rgb(0,0,0)" />
	<line x1="329.508" y1="1768.65" x2="339.087" y2="1677.51" stroke-width="0.25" stroke="rgb(0,0,0)" />
	<line x1="338.241" y1="1676.67" x2="328.574" y2="1768.65" stroke-width="0.25" stroke="rgb(0,0,0)" />
	<line x1="327.64" y1="1768.65" x2="337.396" y2="1675.82" stroke-width="0.25" stroke="rgb(0,0,0)" />
	<line x1="336.551" y1="1674.98" x2="326.706" y2="1768.65" stroke-width="0.25" stroke="rgb(0,0,0)" />
	<line x1="325.772" y1="1768.65" x2="335.706" y2="1674.13" stroke-width="0.25" stroke="rgb(0,0,0)" />
	<line x1="334.861" y1="1673.29" x2="324.838" y2="1768.65" stroke-width="0.25" stroke="rgb(0,0,0)" />
	<line x1="323.904" y1="1768.65" x2="334.015" y2="1672.44" stroke-width="0.25" stroke="rgb(0,0,0)" />
	<line x1="333.17" y1="1671.6" x2="322.97" y2="1768.65" stroke-width="0.25" stroke="rgb(0,0,0)" />
	<line x1="322.036" y1="1768.65" x2="332.325" y2="1670.75" stroke-width="0.25" stroke="rgb(0,0,0)" />
	<line x1="331.48" y1="1669.91" x2="321.102" y2="1768.65" stroke-width="0.25" stroke="rgb(0,0,0)" />
	<line x1="320.168" y1="1768.65" x2="330.635" y2="1669.06" stroke-width="0.25" stroke="rgb(0,0,0)" />
	<line x1="329.789" y1="1668.22" x2="319.233" y2="1768.65" stroke-width="0.25" stroke="rgb(0,0,0)" />
	<line x1="318.299" y1="1768.65" x2="328.944" y2="1667.37" stroke-width="0.25" stroke="rgb(0,0,0)" />
	<line x1="328.099" y1="1666.52" x2="317.365" y2="1768.65" stroke-width="0.25" stroke="rgb(0,0,0)" />
	<line x1="316.431" y1="1768.65" x2="327.254" y2="1665.68" stroke-width="0.25" stroke="rgb(0,0,0)" />
	<line x1="326.409" y1="1664.83" x2="315.497" y2="1768.65" stroke-width="0.25" stroke="rgb(0,0,0)" />
	<line x1="314.563" y1="1768.65" x2="325.563" y2="1663.99" stroke-width="0.25" stroke="rgb(0,0,0)" />
	<line x1="324.718" y1="1663.14" x2="313.629" y2="1768.65" stroke-width="0.25" stroke="rgb(0,0,0)" />
	<line x1="312.695" y1="1768.65" x2="323.873" y2="1662.3" stroke-width="0.25" stroke="rgb(0,0,0)" />
	<line x1="323.028" y1="1661.45" x2="311.761" y2="1768.65" stroke-width="0.25" stroke="rgb(0,0,0)" />
	<line x1="310.827" y1="1768.65" x2="322.183" y2="1660.61" stroke-width="0.25" stroke="rgb(0,0,0)" />
	<line x1="321.338" y1="1659.76" x2="309.893" y2="1768.65" stroke-width="0.25" stroke="rgb(0,0,0)" />
	<line x1="308.959" y1="1768.65" x2="320.492" y2="1658.92" stroke-width="0.25" stroke="rgb(0,0,0)" />
	<line x1="319.647" y1="1658.07" x2="308.025" y2="1768.65" stroke-width="0.25" stroke="rgb(0,0,0)" />
	<line x1="307.091" y1="1768.65" x2="318.802" y2="1657.23" stroke-width="0.25" stroke="rgb(0,0,0)" />
	<line x1="317.957" y1="1656.38" x2="306.157" y2="1768.65" stroke-width="0.25" stroke="rgb(0,0,0)" />
	<line x1="305.223" y1="1768.65" x2="317.112" y2="1655.54" stroke-width="0.25" stroke="rgb(0,0,0)" />
	<line x1="316.266" y1="1654.69" x2="304.289" y2="1768.65" stroke-width="0.25" stroke="rgb(0,0,0)" />
	<line x1="303.355" y1="1768.65" x2="315.421" y2="1653.85" stroke-width="0.25" stroke="rgb(0,0,0)" />
	<line x1="314.576" y1="1653" x2="302.421" y2="1768.65" stroke-width="0.25" stroke="rgb(0,0,0)" />
	<line x1="301.487" y1="1768.65" x2="313.731" y2="1652.16" stroke-width="0.25" stroke="rgb(0,0,0)" />
	<line x1="312.886" y1="1651.31" x2="300.553" y2="1768.65" stroke-width="0.25" stroke="rgb(0,0,0)" />
	<line x1="299.619" y1="1768.65" x2="312.04" y2="1650.47" stroke-width="0.25" stroke="rgb(0,0,0)" />
	<line x1="311.195" y1="1649.62" x2="298.685" y2="1768.65" stroke-width="0.25" stroke="rgb(0,0,0)" />
	<line x1="297.751" y1="1768.65" x2="310.35" y2="1648.78" stroke-width="0.25" stroke="rgb(0,0,0)" />
	<line x1="309.505" y1="1647.93" x2="296.817" y2="1768.65" stroke-width="0.25" stroke="rgb(0,0,0)" />
	<line x1="295.883" y1="1768.65" x2="308.66" y2="1647.09" stroke-width="0.25" stroke="rgb(0,0,0)" />
	<line x1="307.814" y1="1646.24" x2="294.949" y2="1768.65" stroke-width="0.25" stroke="rgb(0,0,0)" />
	<line x1="294.015" y1="1768.65" x2="306.969" y2="1645.4" stroke-width="0.25" stroke="rgb(0,0,0)" />
	<line x1="306.124" y1="1644.55" x2="293.081" y2="1768.65" stroke-width="0.25" stroke="rgb(0,0,0)" />
	<line x1="292.147" y1="1768.65" x2="305.279" y2="1643.7" stroke-width="0.25" stroke="rgb(0,0,0)" />
	<line x1="304.434" y1="1642.86" x2="291.213" y2="1768.65" stroke-width="0.25" stroke="rgb(0,0,0)" />
	<line x1="290.279" y1="1768.65" x2="303.589" y2="1642.01" stroke-width="0.25" stroke="rgb(0,0,0)" />
	<line x1="302.743" y1="1641.17" x2="289.345" y2="1768.65" stroke-width="0.25" stroke="rgb(0,0,0)" />
	<line x1="288.411" y1="1768.65" x2="301.898" y2="1640.32" stroke-width="0.25" stroke="rgb(0,0,0)" />
	<line x1="301.053" y1="1639.48" x2="287.477" y2="1768.65" stroke-width="0.25" stroke="rgb(0,0,0)" />
	<line x1="286.543" y1="1768.65" x2="300.208" y2="1638.63" stroke-width="0.25" stroke="rgb(0,0,0)" />
	<line x1="299.363" y1="1637.79" x2="285.609" y2="1768.65" stroke-width="0.25" stroke="rgb(0,0,0)" />
	<line x1="284.675" y1="1768.65" x2="298.517" y2="1636.94" stroke-width="0.25" stroke="rgb(0,0,0)" />
	<line x1="297.672" y1="1636.1" x2="283.741" y2="1768.65" stroke-width="0.25" stroke="rgb(0,0,0)" />
	<line x1="282.807" y1="1768.65" x2="296.827" y2="1635.25" stroke-width="0.25" stroke="rgb(0,0,0)" />
	<line x1="295.982" y1="1634.41" x2="281.873" y2="1768.65" stroke-width="0.25" stroke="rgb(0,0,0)" />
	<line x1="280.939" y1="1768.65" x2="295.137" y2="1633.56" stroke-width="0.25" stroke="rgb(0,0,0)" />
	<line x1="294.291" y1="1632.72" x2="280.004" y2="1768.65" stroke-width="0.25" stroke="rgb(0,0,0)" />
	<line x1="279.07" y1="1768.65" x2="293.446" y2="1631.87" stroke-width="0.25" stroke="rgb(0,0,0)" />
	<line x1="292.601" y1="1631.03" x2="278.136" y2="1768.65" stroke-width="0.25" stroke="rgb(0,0,0)" />
	<line x1="277.202" y1="1768.65" x2="291.756" y2="1630.18" stroke-width="0.25" stroke="rgb(0,0,0)" />
	<line x1="290.911" y1="1629.34" x2="276.268" y2="1768.65" stroke-width="0.25" stroke="rgb(0,0,0)" />
	<line x1="275.334" y1="1768.65" x2="290.065" y2="1628.49" stroke-width="0.25" stroke="rgb(0,0,0)" />
	<line x1="289.22" y1="1627.65" x2="274.4" y2="1768.65" stroke-width="0.25" stroke="rgb(0,0,0)" />
	<line x1="273.466" y1="1768.65" x2="288.375" y2="1626.8" stroke-width="0.25" stroke="rgb(0,0,0)" />
	<line x1="287.53" y1="1625.96" x2="272.532" y2="1768.65" stroke-width="0.25" stroke="rgb(0,0,0)" />
	<line x1="271.598" y1="1768.65" x2="286.685" y2="1625.11" stroke-width="0.25" stroke="rgb(0,0,0)" />
	<line x1="285.84" y1="1624.27" x2="270.664" y2="1768.65" stroke-width="0.25" stroke="rgb(0,0,0)" />
	<line x1="269.73" y1="1768.65" x2="284.994" y2="1623.42" stroke-width="0.25" stroke="rgb(0,0,0)" />
	<line x1="284.149" y1="1622.57" x2="268.796" y2="1768.65" stroke-width="0.25" stroke="rgb(0,0,0)" />
	<line x1="267.862" y1="1768.65" x2="283.304" y2="1621.73" stroke-width="0.25" stroke="rgb(0,0,0)" />
	<line x1="282.459" y1="1620.88" x2="266.928" y2="1768.65" stroke-width="0.25" stroke="rgb(0,0,0)" />
	<line x1="265.994" y1="1768.65" x2="281.614" y2="1620.04" stroke-width="0.25" stroke="rgb(0,0,0)" />
	<line x1="280.768" y1="1619.19" x2="265.06" y2="1768.65" stroke-width="0.25" stroke="rgb(0,0,0)" />
	<line x1="264.126" y1="1768.65" x2="279.923" y2="1618.35" stroke-width="0.25" stroke="rgb(0,0,0)" />
	<line x1="279.078" y1="1617.5" x2="263.192" y2="1768.65" stroke-width="0.25" stroke="rgb(0,0,0)" />
	<line x1="262.258" y1="1768.65" x2="278.233" y2="1616.66" stroke-width="0.25" stroke="rgb(0,0,0)" />
	<line x1="277.388" y1="1615.81" x2="261.324" y2="1768.65" stroke-width="0.25" stroke="rgb(0,0,0)" />
	<line x1="260.39" y1="1768.65" x2="276.542" y2="1614.97" stroke-width="0.25" stroke="rgb(0,0,0)" />
	<line x1="275.697" y1="1614.12" x2="259.456" y2="1768.65" stroke-width="0.25" stroke="rgb(0,0,0)" />
	<line x1="258.522" y1="1768.65" x2="274.852" y2="1613.28" stroke-width="0.25" stroke="rgb(0,0,0)" />
	<line x1="274.007" y1="1612.43" x2="257.588" y2="1768.65" stroke-width="0.25" stroke="rgb(0,0,0)" />
	<line x1="256.654" y1="1768.65" x2="273.162" y2="1611.59" stroke-width="0.25" stroke="rgb(0,0,0)" />
	<line x1="272.316" y1="1610.74" x2="255.72" y2="1768.65" stroke-width="0.25" stroke="rgb(0,0,0)" />
	<line x1="254.786" y1="1768.65" x2="271.471" y2="1609.9" stroke-width="0.25" stroke="rgb(0,0,0)" />
	<line x1="270.626" y1="1609.05" x2="253.852" y2="1768.65" stroke-width="0.25" stroke="rgb(0,0,0)" />
	<line x1="252.918" y1="1768.65" x2="269.781" y2="1608.21" stroke-width="0.25" stroke="rgb(0,0,0)" />
	<line x1="268.936" y1="1607.36" x2="251.984" y2="1768.65" stroke-width="0.25" stroke="rgb(0,0,0)" />
	<line x1="251.05" y1="1768.65" x2="268.091" y2="1606.52" stroke-width="0.25" stroke="rgb(0,0,0)" />
	<line x1="267.245" y1="1605.67" x2="250.116" y2="1768.65" stroke-width="0.25" stroke="rgb(0,0,0)" />
	<line x1="249.182" y1="1768.65" x2="266.4" y2="1604.83" stroke-width="0.25" stroke="rgb(0,0,0)" />
	<line x1="265.555" y1="1603.98" x2="248.248" y2="1768.65" stroke-width="0.25" stroke="rgb(0,0,0)" />
	<line x1="247.314" y1="1768.65" x2="264.71" y2="1603.14" stroke-width="0.25" stroke="rgb(0,0,0)" />
	<line x1="263.865" y1="1602.29" x2="246.38" y2="1768.65" stroke-width="0.25" stroke="rgb(0,0,0)" />
	<line x1="245.446" y1="1768.65" x2="263.019" y2="1601.45" stroke-width="0.25" stroke="rgb(0,0,0)" />
	<line x1="262.174" y1="1600.6" x2="244.512" y2="1768.65" stroke-width="0.25" stroke="rgb(0,0,0)" />
	<line x1="243.578" y1="1768.65" x2="261.329" y2="1599.75" stroke-width="0.25" stroke="rgb(0,0,0)" />
	<line x1="260.484" y1="1598.91" x2="242.644" y2="1768.65" stroke-width="0.25" stroke="rgb(0,0,0)" />
	<line x1="241.71" y1="1768.65" x2="259.639" y2="1598.06" stroke-width="0.25" stroke="rgb(0,0,0)" />
	<line x1="258.793" y1="1597.22" x2="240.775" y2="1768.65" stroke-width="0.25" stroke="rgb(0,0,0)" />
	<line x1="239.841" y1="1768.65" x2="257.948" y2="1596.37" stroke-width="0.25" stroke="rgb(0,0,0)" />
	<line x1="257.103" y1="1595.53" x2="238.907" y2="1768.65" stroke-width="0.25" stroke="rgb(0,0,0)" />
	<line x1="237.973" y1="1768.65" x2="256.258" y2="1594.68" stroke-width="0.25" stroke="rgb(0,0,0)" />
	<line x1="255.413" y1="1593.84" x2="237.039" y2="1768.65" stroke-width="0.25" stroke="rgb(0,0,0)" />
	<line x1="236.105" y1="1768.65" x2="254.567" y2="1592.99" stroke-width="0.25" stroke="rgb(0,0,0)" />
	<line x1="253.722" y1="1592.15" x2="235.171" y2="1768.65" stroke-width="0.25" stroke="rgb(0,0,0)" />
	<line x1="234.237" y1="1768.65" x2="252.877" y2="1591.3" stroke-width="0.25" stroke="rgb(0,0,0)" />
	<line x1="252.032" y1="1590.46" x2="233.303" y2="1768.65" stroke-width="0.25" stroke="rgb(0,0,0)" />
	<line x1="232.369" y1="1768.65" x2="251.187" y2="1589.61" stroke-width="0.25" stroke="rgb(0,0,0)" />
	<line x1="250.342" y1="1588.77" x2="231.435" y2="1768.65" stroke-width="0.25" stroke="rgb(0,0,0)" />
	<line x1="230.501" y1="1768.65" x2="249.496" y2="1587.92" stroke-width="0.25" stroke="rgb(0,0,0)" />
	<line x1="248.651" y1="1587.08" x2="229.567" y2="1768.65" stroke-width="0.25" stroke="rgb(0,0,0)" />
	<line x1="228.633" y1="1768.65" x2="247.806" y2="1586.23" stroke-width="0.25" stroke="rgb(0,0,0)" />
	<line x1="246.961" y1="1585.39" x2="227.699" y2="1768.65" stroke-width="0.25" stroke="rgb(0,0,0)" />
	<line x1="226.765" y1="1768.65" x2="246.116" y2="1584.54" stroke-width="0.25" stroke="rgb(0,0,0)" />
	<line x1="245.27" y1="1583.7" x2="225.831" y2="1768.65" stroke-width="0.25" stroke="rgb(0,0,0)" />
	<line x1="224.897" y1="1768.65" x2="244.425" y2="1582.85" stroke-width="0.25" stroke="rgb(0,0,0)" />
	<line x1="243.58" y1="1582.01" x2="223.963" y2="1768.65" stroke-width="0.25" stroke="rgb(0,0,0)" />
	<line x1="223.029" y1="1768.65" x2="242.735" y2="1581.16" stroke-width="0.25" stroke="rgb(0,0,0)" />
	<line x1="241.89" y1="1580.32" x2="222.095" y2="1768.65" stroke-width="0.25" stroke="rgb(0,0,0)" />
	<line x1="221.161" y1="1768.65" x2="241.044" y2="1579.47" stroke-width="0.25" stroke="rgb(0,0,0)" />
	<line x1="240.199" y1="1578.62" x2="220.227" y2="1768.65" stroke-width="0.25" stroke="rgb(0,0,0)" />
	<line x1="219.293" y1="1768.65" x2="239.354" y2="1577.78" stroke-width="0.25" stroke="rgb(0,0,0)" />
	<line x1="238.509" y1="1576.93" x2="218.359" y2="1768.65" stroke-width="0.25" stroke="rgb(0,0,0)" />
	<line x1="217.425" y1="1768.65" x2="237.664" y2="1576.09" stroke-width="0.25" stroke="rgb(0,0,0)" />
	<line x1="236.818" y1="1575.24" x2="216.491" y2="1768.65" stroke-width="0.25" stroke="rgb(0,0,0)" />
	<line x1="215.557" y1="1768.65" x2="235.973" y2="1574.4" stroke-width="0.25" stroke="rgb(0,0,0)" />
	<line x1="235.128" y1="1573.55" x2="214.623" y2="1768.65" stroke-width="0.25" stroke="rgb(0,0,0)" />
	<line x1="213.689" y1="1768.65" x2="234.283" y2="1572.71" stroke-width="0.25" stroke="rgb(0,0,0)" />
	<line x1="233.438" y1="1571.86" x2="212.755" y2="1768.65" stroke-width="0.25" stroke="rgb(0,0,0)" />
	<line x1="211.821" y1="1768.65" x2="232.593" y2="1571.02" stroke-width="0.25" stroke="rgb(0,0,0)" />
	<line x1="231.668" y1="1570.92" x2="210.887" y2="1768.65" stroke-width="0.25" stroke="rgb(0,0,0)" />
	<line x1="209.953" y1="1768.65" x2="230.734" y2="1570.92" stroke-width="0.25" stroke="rgb(0,0,0)" />
	<line x1="229.8" y1="1570.92" x2="209.019" y2="1768.65" stroke-width="0.25" stroke="rgb(0,0,0)" />
	<line x1="208.085" y1="1768.65" x2="228.866" y2="1570.92" stroke-width="0.25" stroke="rgb(0,0,0)" />
	<line x1="227.932" y1="1570.92" x2="207.151" y2="1768.65" stroke-width="0.25" stroke="rgb(0,0,0)" />
	<line x1="206.217" y1="1768.65" x2="226.998" y2="1570.92" stroke-width="0.25" stroke="rgb(0,0,0)" />
	<line x1="226.064" y1="1570.92" x2="205.283" y2="1768.65" stroke-width="0.25" stroke="rgb(0,0,0)" />
	<line x1="204.349" y1="1768.65" x2="225.13" y2="1570.92" stroke-width="0.25" stroke="rgb(0,0,0)" />
	<line x1="224.196" y1="1570.92" x2="203.415" y2="1768.65" stroke-width="0.25" stroke="rgb(0,0,0)" />
	<line x1="202.481" y1="1768.65" x2="223.262" y2="1570.92" stroke-width="0.25" stroke="rgb(0,0,0)" />
	<line x1="222.328" y1="1570.92" x2="201.546" y2="1768.65" stroke-width="0.25" stroke="rgb(0,0,0)" />
	<line x1="200.612" y1="1768.65" x2="221.394" y2="1570.92" stroke-width="0.25" stroke="rgb(0,0,0)" />
	<line x1="220.46" y1="1570.92" x2="199.678" y2="1768.65" stroke-width="0.25" stroke="rgb(0,0,0)" />
	<line x1="198.744" y1="1768.65" x2="219.526" y2="1570.92" stroke-width="0.25" stroke="rgb(0,0,0)" />
	<line x1="218.592" y1="1570.92" x2="197.81" y2="1768.65" stroke-width="0.25" stroke="rgb(0,0,0)" />
	<line x1="196.876" y1="1768.65" x2="217.658" y2="1570.92" stroke-width="0.25" stroke="rgb(0,0,0)" />
	<line x1="216.724" y1="1570.92" x2="195.942" y2="1768.65" stroke-width="0.25" stroke="rgb(0,0,0)" />
	<line x1="195.008" y1="1768.65" x2="215.79" y2="1570.92" stroke-width="0.25" stroke="rgb(0,0,0)" />
	<line x1="214.856" y1="1570.92" x2="194.074" y2="1768.65" stroke-width="0.25" stroke="rgb(0,0,0)" />
	<line x1="193.14" y1="1768.65" x2="213.922" y2="1570.92" stroke-width="0.25" stroke="rgb(0,0,0)" />
	<line x1="212.988" y1="1570.92" x2="192.206" y2="1768.65" stroke-width="0.25" stroke="rgb(0,0,0)" />
	<line x1="191.272" y1="1768.65" x2="212.054" y2="1570.92" stroke-width="0.25" stroke="rgb(0,0,0)" />
	<line x1="211.12" y1="1570.92" x2="190.338" y2="1768.65" stroke-width="0.25" stroke="rgb(0,0,0)" />
	<line x1="189.404" y1="1768.65" x2="210.186" y2="1570.92" stroke-width="0.25" stroke="rgb(0,0,0)" />
	<line x1="209.252" y1="1570.92" x2="188.47" y2="1768.65" stroke-width="0.25" stroke="rgb(0,0,0)" />
	<line x1="187.536" y1="1768.65" x2="208.318" y2="1570.92" stroke-width="0.25" stroke="rgb(0,0,0)" />
	<line x1="207.384" y1="1570.92" x2="186.602" y2="1768.65" stroke-width="0.25" stroke="rgb(0,0,0)" />
	<line x1="185.668" y1="1768.65" x2="206.45" y2="1570.92" stroke-width="0.25" stroke="rgb(0,0,0)" />
	<line x1="205.516" y1="1570.92" x2="184.734" y2="1768.65" stroke-width="0.25" stroke="rgb(0,0,0)" />
	<line x1="183.8" y1="1768.65" x2="204.582" y2="1570.92" stroke-width="0.25" stroke="rgb(0,0,0)" />
	<line x1="203.648" y1="1570.92" x2="182.866" y2="1768.65" stroke-width="0.25" stroke="rgb(0,0,0)" />
	<line x1="181.932" y1="1768.65" x2="202.714" y2="1570.92" stroke-width="0.25" stroke="rgb(0,0,0)" />
	<line x1="201.78" y1="1570.92" x2="180.998" y2="1768.65" stroke-width="0.25" stroke="rgb(0,0,0)" />
	<line x1="180.064" y1="1768.65" x2="200.846" y2="1570.92" stroke-width="0.25" stroke="rgb(0,0,0)" />
	<line x1="199.912" y1="1570.92" x2="179.13" y2="1768.65" stroke-width="0.25" stroke="rgb(0,0,0)" />
	<line x1="178.196" y1="1768.65" x2="198.978" y2="1570.92" stroke-width="0.25" stroke="rgb(0,0,0)" />
	<line x1="198.044" y1="1570.92" x2="177.262" y2="1768.65" stroke-width="0.25" stroke="rgb(0,0,0)" />
	<line x1="176.328" y1="1768.65" x2="197.11" y2="1570.92" stroke-width="0.25" stroke="rgb(0,0,0)" />
	<line x1="196.176" y1="1570.92" x2="175.394" y2="1768.65" stroke-width="0.25" stroke="rgb(0,0,0)" />
	<line x1="174.46" y1="1768.65" x2="195.241" y2="1570.92" stroke-width="0.25" stroke="rgb(0,0,0)" />
	<line x1="194.307" y1="1570.92" x2="173.526" y2="1768.65" stroke-width="0.25" stroke="rgb(0,0,0)" />
	<line x1="172.592" y1="1768.65" x2="193.373" y2="1570.92" stroke-width="0.25" stroke="rgb(0,0,0)" />
	<line x1="192.439" y1="1570.92" x2="171.658" y2="1768.65" stroke-width="0.25" stroke="rgb(0,0,0)" />
	<line x1="170.724" y1="1768.65" x2="191.505" y2="1570.92" stroke-width="0.25" stroke="rgb(0,0,0)" />
	<line x1="190.571" y1="1570.92" x2="169.79" y2="1768.65" stroke-width="0.25" stroke="rgb(0,0,0)" />
	<line x1="168.856" y1="1768.65" x2="189.637" y2="1570.92" stroke-width="0.25" stroke="rgb(0,0,0)" />
	<line x1="188.703" y1="1570.92" x2="167.922" y2="1768.65" stroke-width="0.25" stroke="rgb(0,0,0)" />
	<line x1="166.988" y1="1768.65" x2="187.769" y2="1570.92" stroke-width="0.25" stroke="rgb(0,0,0)" />
	<line x1="186.835" y1="1570.92" x2="166.054" y2="1768.65" stroke-width="0.25" stroke="rgb(0,0,0)" />
	<line x1="165.12" y1="1768.65" x2="185.901" y2="1570.92" stroke-width="0.25" stroke="rgb(0,0,0)" />
	<line x1="184.967" y1="1570.92" x2="164.186" y2="1768.65" stroke-width="0.25" stroke="rgb(0,0,0)" />
	<line x1="163.252" y1="1768.65" x2="184.033" y2="1570.92" stroke-width="0.25" stroke="rgb(0,0,0)" />
	<line x1="183.099" y1="1570.92" x2="162.318" y2="1768.65" stroke-width="0.25" stroke="rgb(0,0,0)" />
	<line x1="161.383" y1="1768.65" x2="182.165" y2="1570.92" stroke-width="0.25" stroke="rgb(0,0,0)" />
	<line x1="181.231" y1="1570.92" x2="160.449" y2="1768.65" stroke-width="0.25" stroke="rgb(0,0,0)" />
	<line x1="159.515" y1="1768.65" x2="180.297" y2="1570.92" stroke-width="0.25" stroke="rgb(0,0,0)" />
	<line x1="179.363" y1="1570.92" x2="158.581" y2="1768.65" stroke-width="0.25" stroke="rgb(0,0,0)" />
	<line x1="157.647" y1="1768.65" x2="178.429" y2="1570.92" stroke-width="0.25" stroke="rgb(0,0,0)" />
	<line x1="177.495" y1="1570.92" x2="156.713" y2="1768.65" stroke-width="0.25" stroke="rgb(0,0,0)" />
	<line x1="155.779" y1="1768.65" x2="176.561" y2="1570.92" stroke-width="0.25" stroke="rgb(0,0,0)" />
	<line x1="175.627" y1="1570.92" x2="154.845" y2="1768.65" stroke-width="0.25" stroke="rgb(0,0,0)" />
	<line x1="153.911" y1="1768.65" x2="174.693" y2="1570.92" stroke-width="0.25" stroke="rgb(0,0,0)" />
	<line x1="173.759" y1="1570.92" x2="152.977" y2="1768.65" stroke-width="0.25" stroke="rgb(0,0,0)" />
	<line x1="152.043" y1="1768.65" x2="172.825" y2="1570.92" stroke-width="0.25" stroke="rgb(0,0,0)" />
	<line x1="171.891" y1="1570.92" x2="151.109" y2="1768.65" stroke-width="0.25" stroke="rgb(0,0,0)" />
	<line x1="150.665" y1="1763.99" x2="170.957" y2="1570.92" stroke-width="0.25" stroke="rgb(0,0,0)" />
	<line x1="170.023" y1="1570.92" x2="150.665" y2="1755.11" stroke-width="0.25" stroke="rgb(0,0,0)" />
	<line x1="150.665" y1="1746.22" x2="169.089" y2="1570.92" stroke-width="0.25" stroke="rgb(0,0,0)" />
	<line x1="168.155" y1="1570.92" x2="150.665" y2="1737.33" stroke-width="0.25" stroke="rgb(0,0,0)" />
	<line x1="150.665" y1="1728.45" x2="167.221" y2="1570.92" stroke-width="0.25" stroke="rgb(0,0,0)" />
	<line x1="166.287" y1="1570.92" x2="150.665" y2="1719.56" stroke-width="0.25" stroke="rgb(0,0,0)" />
	<line x1="150.665" y1="1710.67" x2="165.353" y2="1570.92" stroke-width="0.25" stroke="rgb(0,0,0)" />
	<line x1="164.419" y1="1570.92" x2="150.665" y2="1701.79" stroke-width="0.25" stroke="rgb(0,0,0)" />
	<line x1="150.665" y1="1692.9" x2="163.485" y2="1570.92" stroke-width="0.25" stroke="rgb(0,0,0)" />
	<line x1="162.551" y1="1570.92" x2="150.665" y2="1684.01" stroke-width="0.25" stroke="rgb(0,0,0)" />
	<line x1="150.665" y1="1675.13" x2="161.617" y2="1570.92" stroke-width="0.25" stroke="rgb(0,0,0)" />
	<line x1="160.683" y1="1570.92" x2="150.665" y2="1666.24" stroke-width="0.25" stroke="rgb(0,0,0)" />
	<line x1="150.665" y1="1657.35" x2="159.749" y2="1570.92" stroke-width="0.25" stroke="rgb(0,0,0)" />
	<line x1="158.815" y1="1570.92" x2="150.665" y2="1648.47" stroke-width="0.25" stroke="rgb(0,0,0)" />
	<line x1="150.665" y1="1639.58" x2="157.881" y2="1570.92" stroke-width="0.25" stroke="rgb(0,0,0)" />
	<line x1="156.947" y1="1570.92" x2="150.665" y2="1630.69" stroke-width="0.25" stroke="rgb(0,0,0)" />
	<line x1="150.665" y1="1621.81" x2="156.012" y2="1570.92" stroke-width="0.25" stroke="rgb(0,0,0)" />
	<line x1="155.078" y1="1570.92" x2="150.665" y2="1612.92" stroke-width="0.25" stroke="rgb(0,0,0)" />
	<line x1="150.665" y1="1604.03" x2="154.144" y2="1570.92" stroke-width="0.25" stroke="rgb(0,0,0)" />
	<line x1="153.21" y1="1570.92" x2="150.665" y2="1595.15" stroke-width="0.25" stroke="rgb(0,0,0)" />
	<line x1="150.665" y1="1586.26" x2="152.276" y2="1570.92" stroke-width="0.25" stroke="rgb(0,0,0)" />
	<line x1="151.342" y1="1570.92" x2="150.665" y2="1577.37" stroke-width="0.25" stroke="rgb(0,0,0)" />
	<line x1="406.583" y1="970.585" x2="407.629" y2="960.63" stroke-width="0.25" stroke="rgb(0,0,0)" />
	<line x1="407.629" y1="949.205" x2="405.382" y2="970.585" stroke-width="0.25" stroke="rgb(0,0,0)" />
	<line x1="404.181" y1="970.585" x2="407.629" y2="937.779" stroke-width="0.25" stroke="rgb(0,0,0)" />
	<line x1="407.629" y1="926.353" x2="402.98" y2="970.585" stroke-width="0.25" stroke="rgb(0,0,0)" />
	<line x1="401.779" y1="970.585" x2="407.629" y2="914.928" stroke-width="0.25" stroke="rgb(0,0,0)" />
	<line x1="407.629" y1="903.502" x2="400.578" y2="970.585" stroke-width="0.25" stroke="rgb(0,0,0)" />
	<line x1="399.377" y1="970.585" x2="407.629" y2="892.076" stroke-width="0.25" stroke="rgb(0,0,0)" />
	<line x1="407.629" y1="880.651" x2="398.176" y2="970.585" stroke-width="0.25" stroke="rgb(0,0,0)" />
	<line x1="396.975" y1="970.585" x2="407.629" y2="869.225" stroke-width="0.25" stroke="rgb(0,0,0)" />
	<line x1="407.629" y1="857.799" x2="395.775" y2="970.585" stroke-width="0.25" stroke="rgb(0,0,0)" />
	<line x1="394.574" y1="970.585" x2="407.629" y2="846.373" stroke-width="0.25" stroke="rgb(0,0,0)" />
	<line x1="407.629" y1="834.948" x2="393.373" y2="970.585" stroke-width="0.25" stroke="rgb(0,0,0)" />
	<line x1="392.172" y1="970.585" x2="407.629" y2="823.522" stroke-width="0.25" stroke="rgb(0,0,0)" />
	<line x1="407.629" y1="812.096" x2="390.971" y2="970.585" stroke-width="0.25" stroke="rgb(0,0,0)" />
	<line x1="389.77" y1="970.585" x2="407.629" y2="800.671" stroke-width="0.25" stroke="rgb(0,0,0)" />
	<line x1="407.629" y1="789.245" x2="388.569" y2="970.585" stroke-width="0.25" stroke="rgb(0,0,0)" />
	<line x1="387.368" y1="970.585" x2="407.629" y2="777.819" stroke-width="0.25" stroke="rgb(0,0,0)" />
	<line x1="407.629" y1="766.394" x2="386.168" y2="970.585" stroke-width="0.25" stroke="rgb(0,0,0)" />
	<line x1="384.967" y1="970.585" x2="407.629" y2="754.968" stroke-width="0.25" stroke="rgb(0,0,0)" />
	<line x1="407.629" y1="743.542" x2="383.766" y2="970.585" stroke-width="0.25" stroke="rgb(0,0,0)" />
	<line x1="382.565" y1="970.585" x2="407.629" y2="732.117" stroke-width="0.25" stroke="rgb(0,0,0)" />
	<line x1="407.629" y1="720.691" x2="381.364" y2="970.585" stroke-width="0.25" stroke="rgb(0,0,0)" />
	<line x1="380.163" y1="970.585" x2="406.976" y2="715.478" stroke-width="0.25" stroke="rgb(0,0,0)" />
	<line x1="405.775" y1="715.478" x2="378.962" y2="970.585" stroke-width="0.25" stroke="rgb(0,0,0)" />
	<line x1="377.761" y1="970.585" x2="404.574" y2="715.478" stroke-width="0.25" stroke="rgb(0,0,0)" />
	<line x1="403.373" y1="715.478" x2="376.56" y2="970.585" stroke-width="0.25" stroke="rgb(0,0,0)" />
	<line x1="375.36" y1="970.585" x2="402.172" y2="715.478" stroke-width="0.25" stroke="rgb(0,0,0)" />
	<line x1="400.971" y1="715.478" x2="374.159" y2="970.585" stroke-width="0.25" stroke="rgb(0,0,0)" />
	<line x1="372.958" y1="970.585" x2="399.771" y2="715.478" stroke-width="0.25" stroke="rgb(0,0,0)" />
	<line x1="398.57" y1="715.478" x2="371.757" y2="970.585" stroke-width="0.25" stroke="rgb(0,0,0)" />
	<line x1="370.556" y1="970.585" x2="397.369" y2="715.478" stroke-width="0.25" stroke="rgb(0,0,0)" />
	<line x1="396.168" y1="715.478" x2="369.355" y2="970.585" stroke-width="0.25" stroke="rgb(0,0,0)" />
	<line x1="368.154" y1="970.585" x2="394.967" y2="715.478" stroke-width="0.25" stroke="rgb(0,0,0)" />
	<line x1="393.766" y1="715.478" x2="366.953" y2="970.585" stroke-width="0.25" stroke="rgb(0,0,0)" />
	<line x1="365.752" y1="970.585" x2="392.565" y2="715.478" stroke-width="0.25" stroke="rgb(0,0,0)" />
	<line x1="391.364" y1="715.478" x2="364.552" y2="970.585" stroke-width="0.25" stroke="rgb(0,0,0)" />
	<line x1="363.351" y1="970.585" x2="390.163" y2="715.478" stroke-width="0.25" stroke="rgb(0,0,0)" />
	<line x1="388.963" y1="715.478" x2="362.15" y2="970.585" stroke-width="0.25" stroke="rgb(0,0,0)" />
	<line x1="360.949" y1="970.585" x2="387.762" y2="715.478" stroke-width="0.25" stroke="rgb(0,0,0)" />
	<line x1="386.561" y1="715.478" x2="359.748" y2="970.585" stroke-width="0.25" stroke="rgb(0,0,0)" />
	<line x1="358.547" y1="970.585" x2="385.36" y2="715.478" stroke-width="0.25" stroke="rgb(0,0,0)" />
	<line x1="384.159" y1="715.478" x2="357.346" y2="970.585" stroke-width="0.25" stroke="rgb(0,0,0)" />
	<line x1="356.145" y1="970.585" x2="382.958" y2="715.478" stroke-width="0.25" stroke="rgb(0,0,0)" />
	<line x1="381.757" y1="715.478" x2="354.944" y2="970.585" stroke-width="0.25" stroke="rgb(0,0,0)" />
	<line x1="353.744" y1="970.585" x2="380.556" y2="715.478" stroke-width="0.25" stroke="rgb(0,0,0)" />
	<line x1="379.355" y1="715.478" x2="352.543" y2="970.585" stroke-width="0.25" stroke="rgb(0,0,0)" />
	<line x1="351.342" y1="970.585" x2="378.155" y2="715.478" stroke-width="0.25" stroke="rgb(0,0,0)" />
	<line x1="376.954" y1="715.478" x2="350.141" y2="970.585" stroke-width="0.25" stroke="rgb(0,0,0)" />
	<line x1="348.94" y1="970.585" x2="375.753" y2="715.478" stroke-width="0.25" stroke="rgb(0,0,0)" />
	<line x1="374.552" y1="715.478" x2="347.739" y2="970.585" stroke-width="0.25" stroke="rgb(0,0,0)" />
	<line x1="346.538" y1="970.585" x2="373.351" y2="715.478" stroke-width="0.25" stroke="rgb(0,0,0)" />
	<line x1="372.15" y1="715.478" x2="345.337" y2="970.585" stroke-width="0.25" stroke="rgb(0,0,0)" />
	<line x1="344.136" y1="970.585" x2="370.949" y2="715.478" stroke-width="0.25" stroke="rgb(0,0,0)" />
	<line x1="369.748" y1="715.478" x2="342.936" y2="970.585" stroke-width="0.25" stroke="rgb(0,0,0)" />
	<line x1="341.735" y1="970.585" x2="368.547" y2="715.478" stroke-width="0.25" stroke="rgb(0,0,0)" />
	<line x1="367.347" y1="715.478" x2="340.534" y2="970.585" stroke-width="0.25" stroke="rgb(0,0,0)" />
	<line x1="339.333" y1="970.585" x2="366.146" y2="715.478" stroke-width="0.25" stroke="rgb(0,0,0)" />
	<line x1="364.945" y1="715.478" x2="338.132" y2="970.585" stroke-width="0.25" stroke="rgb(0,0,0)" />
	<line x1="336.931" y1="970.585" x2="363.744" y2="715.478" stroke-width="0.25" stroke="rgb(0,0,0)" />
	<line x1="362.543" y1="715.478" x2="335.73" y2="970.585" stroke-width="0.25" stroke="rgb(0,0,0)" />
	<line x1="334.529" y1="970.585" x2="361.342" y2="715.478" stroke-width="0.25" stroke="rgb(0,0,0)" />
	<line x1="360.141" y1="715.478" x2="333.328" y2="970.585" stroke-width="0.25" stroke="rgb(0,0,0)" />
	<line x1="332.128" y1="970.585" x2="358.94" y2="715.478" stroke-width="0.25" stroke="rgb(0,0,0)" />
	<line x1="357.739" y1="715.478" x2="330.927" y2="970.585" stroke-width="0.25" stroke="rgb(0,0,0)" />
	<line x1="329.726" y1="970.585" x2="356.539" y2="715.478" stroke-width="0.25" stroke="rgb(0,0,0)" />
	<line x1="355.338" y1="715.478" x2="328.525" y2="970.585" stroke-width="0.25" stroke="rgb(0,0,0)" />
	<line x1="327.324" y1="970.585" x2="354.137" y2="715.478" stroke-width="0.25" stroke="rgb(0,0,0)" />
	<line x1="352.936" y1="715.478" x2="326.123" y2="970.585" stroke-width="0.25" stroke="rgb(0,0,0)" />
	<line x1="324.922" y1="970.585" x2="351.735" y2="715.478" stroke-width="0.25" stroke="rgb(0,0,0)" />
	<line x1="350.534" y1="715.478" x2="323.721" y2="970.585" stroke-width="0.25" stroke="rgb(0,0,0)" />
	<line x1="322.52" y1="970.585" x2="349.333" y2="715.478" stroke-width="0.25" stroke="rgb(0,0,0)" />
	<line x1="348.132" y1="715.478" x2="321.32" y2="970.585" stroke-width="0.25" stroke="rgb(0,0,0)" />
	<line x1="320.119" y1="970.585" x2="346.931" y2="715.478" stroke-width="0.25" stroke="rgb(0,0,0)" />
	<line x1="345.731" y1="715.478" x2="318.918" y2="970.585" stroke-width="0.25" stroke="rgb(0,0,0)" />
	<line x1="317.717" y1="970.585" x2="344.53" y2="715.478" stroke-width="0.25" stroke="rgb(0,0,0)" />
	<line x1="343.329" y1="715.478" x2="316.516" y2="970.585" stroke-width="0.25" stroke="rgb(0,0,0)" />
	<line x1="315.315" y1="970.585" x2="342.128" y2="715.478" stroke-width="0.25" stroke="rgb(0,0,0)" />
	<line x1="340.927" y1="715.478" x2="314.114" y2="970.585" stroke-width="0.25" stroke="rgb(0,0,0)" />
	<line x1="312.913" y1="970.585" x2="339.726" y2="715.478" stroke-width="0.25" stroke="rgb(0,0,0)" />
	<line x1="338.525" y1="715.478" x2="311.712" y2="970.585" stroke-width="0.25" stroke="rgb(0,0,0)" />
	<line x1="310.512" y1="970.585" x2="337.324" y2="715.478" stroke-width="0.25" stroke="rgb(0,0,0)" />
	<line x1="336.123" y1="715.478" x2="309.311" y2="970.585" stroke-width="0.25" stroke="rgb(0,0,0)" />
	<line x1="308.11" y1="970.585" x2="334.923" y2="715.478" stroke-width="0.25" stroke="rgb(0,0,0)" />
	<line x1="333.722" y1="715.478" x2="306.909" y2="970.585" stroke-width="0.25" stroke="rgb(0,0,0)" />
	<line x1="305.708" y1="970.585" x2="332.521" y2="715.478" stroke-width="0.25" stroke="rgb(0,0,0)" />
	<line x1="331.32" y1="715.478" x2="304.507" y2="970.585" stroke-width="0.25" stroke="rgb(0,0,0)" />
	<line x1="303.306" y1="970.585" x2="330.119" y2="715.478" stroke-width="0.25" stroke="rgb(0,0,0)" />
	<line x1="328.918" y1="715.478" x2="302.105" y2="970.585" stroke-width="0.25" stroke="rgb(0,0,0)" />
	<line x1="300.904" y1="970.585" x2="327.717" y2="715.478" stroke-width="0.25" stroke="rgb(0,0,0)" />
	<line x1="326.516" y1="715.478" x2="299.704" y2="970.585" stroke-width="0.25" stroke="rgb(0,0,0)" />
	<line x1="298.503" y1="970.585" x2="325.315" y2="715.478" stroke-width="0.25" stroke="rgb(0,0,0)" />
	<line x1="324.115" y1="715.478" x2="297.302" y2="970.585" stroke-width="0.25" stroke="rgb(0,0,0)" />
	<line x1="296.101" y1="970.585" x2="322.914" y2="715.478" stroke-width="0.25" stroke="rgb(0,0,0)" />
	<line x1="321.713" y1="715.478" x2="294.9" y2="970.585" stroke-width="0.25" stroke="rgb(0,0,0)" />
	<line x1="293.699" y1="970.585" x2="320.512" y2="715.478" stroke-width="0.25" stroke="rgb(0,0,0)" />
	<line x1="319.311" y1="715.478" x2="292.498" y2="970.585" stroke-width="0.25" stroke="rgb(0,0,0)" />
	<line x1="291.297" y1="970.585" x2="318.11" y2="715.478" stroke-width="0.25" stroke="rgb(0,0,0)" />
	<line x1="316.909" y1="715.478" x2="290.097" y2="970.585" stroke-width="0.25" stroke="rgb(0,0,0)" />
	<line x1="288.896" y1="970.585" x2="315.708" y2="715.478" stroke-width="0.25" stroke="rgb(0,0,0)" />
	<line x1="314.508" y1="715.478" x2="287.695" y2="970.585" stroke-width="0.25" stroke="rgb(0,0,0)" />
	<line x1="286.494" y1="970.585" x2="313.307" y2="715.478" stroke-width="0.25" stroke="rgb(0,0,0)" />
	<line x1="312.106" y1="715.478" x2="285.293" y2="970.585" stroke-width="0.25" stroke="rgb(0,0,0)" />
	<line x1="284.092" y1="970.585" x2="310.905" y2="715.478" stroke-width="0.25" stroke="rgb(0,0,0)" />
	<line x1="309.704" y1="715.478" x2="282.891" y2="970.585" stroke-width="0.25" stroke="rgb(0,0,0)" />
	<line x1="281.69" y1="970.585" x2="308.503" y2="715.478" stroke-width="0.25" stroke="rgb(0,0,0)" />
	<line x1="307.302" y1="715.478" x2="280.489" y2="970.585" stroke-width="0.25" stroke="rgb(0,0,0)" />
	<line x1="279.289" y1="970.585" x2="306.101" y2="715.478" stroke-width="0.25" stroke="rgb(0,0,0)" />
	<line x1="304.9" y1="715.478" x2="278.088" y2="970.585" stroke-width="0.25" stroke="rgb(0,0,0)" />
	<line x1="276.887" y1="970.585" x2="303.7" y2="715.478" stroke-width="0.25" stroke="rgb(0,0,0)" />
	<line x1="302.499" y1="715.478" x2="275.686" y2="970.585" stroke-width="0.25" stroke="rgb(0,0,0)" />
	<line x1="274.485" y1="970.585" x2="301.298" y2="715.478" stroke-width="0.25" stroke="rgb(0,0,0)" />
	<line x1="300.097" y1="715.478" x2="273.284" y2="970.585" stroke-width="0.25" stroke="rgb(0,0,0)" />
	<line x1="272.083" y1="970.585" x2="298.896" y2="715.478" stroke-width="0.25" stroke="rgb(0,0,0)" />
	<line x1="297.695" y1="715.478" x2="270.882" y2="970.585" stroke-width="0.25" stroke="rgb(0,0,0)" />
	<line x1="269.681" y1="970.585" x2="296.494" y2="715.478" stroke-width="0.25" stroke="rgb(0,0,0)" />
	<line x1="295.293" y1="715.478" x2="268.481" y2="970.585" stroke-width="0.25" stroke="rgb(0,0,0)" />
	<line x1="267.28" y1="970.585" x2="294.092" y2="715.478" stroke-width="0.25" stroke="rgb(0,0,0)" />
	<line x1="292.892" y1="715.478" x2="266.079" y2="970.585" stroke-width="0.25" stroke="rgb(0,0,0)" />
	<line x1="264.878" y1="970.585" x2="291.691" y2="715.478" stroke-width="0.25" stroke="rgb(0,0,0)" />
	<line x1="290.49" y1="715.478" x2="263.677" y2="970.585" stroke-width="0.25" stroke="rgb(0,0,0)" />
	<line x1="262.476" y1="970.585" x2="289.289" y2="715.478" stroke-width="0.25" stroke="rgb(0,0,0)" />
	<line x1="288.088" y1="715.478" x2="261.275" y2="970.585" stroke-width="0.25" stroke="rgb(0,0,0)" />
	<line x1="260.074" y1="970.585" x2="286.887" y2="715.478" stroke-width="0.25" stroke="rgb(0,0,0)" />
	<line x1="285.686" y1="715.478" x2="258.873" y2="970.585" stroke-width="0.25" stroke="rgb(0,0,0)" />
	<line x1="257.673" y1="970.585" x2="284.485" y2="715.478" stroke-width="0.25" stroke="rgb(0,0,0)" />
	<line x1="283.284" y1="715.478" x2="256.472" y2="970.585" stroke-width="0.25" stroke="rgb(0,0,0)" />
	<line x1="255.271" y1="970.585" x2="282.084" y2="715.478" stroke-width="0.25" stroke="rgb(0,0,0)" />
	<line x1="280.883" y1="715.478" x2="254.07" y2="970.585" stroke-width="0.25" stroke="rgb(0,0,0)" />
	<line x1="252.869" y1="970.585" x2="279.682" y2="715.478" stroke-width="0.25" stroke="rgb(0,0,0)" />
	<line x1="278.481" y1="715.478" x2="251.668" y2="970.585" stroke-width="0.25" stroke="rgb(0,0,0)" />
	<line x1="250.467" y1="970.585" x2="277.28" y2="715.478" stroke-width="0.25" stroke="rgb(0,0,0)" />
	<line x1="276.079" y1="715.478" x2="249.266" y2="970.585" stroke-width="0.25" stroke="rgb(0,0,0)" />
	<line x1="248.065" y1="970.585" x2="274.878" y2="715.478" stroke-width="0.25" stroke="rgb(0,0,0)" />
	<line x1="273.677" y1="715.478" x2="246.865" y2="970.585" stroke-width="0.25" stroke="rgb(0,0,0)" />
	<line x1="245.664" y1="970.585" x2="272.476" y2="715.478" stroke-width="0.25" stroke="rgb(0,0,0)" />
	<line x1="271.276" y1="715.478" x2="244.463" y2="970.585" stroke-width="0.25" stroke="rgb(0,0,0)" />
	<line x1="243.262" y1="970.585" x2="270.075" y2="715.478" stroke-width="0.25" stroke="rgb(0,0,0)" />
	<line x1="268.874" y1="715.478" x2="242.061" y2="970.585" stroke-width="0.25" stroke="rgb(0,0,0)" />
	<line x1="240.86" y1="970.585" x2="267.673" y2="715.478" stroke-width="0.25" stroke="rgb(0,0,0)" />
	<line x1="266.472" y1="715.478" x2="239.659" y2="970.585" stroke-width="0.25" stroke="rgb(0,0,0)" />
	<line x1="238.458" y1="970.585" x2="265.271" y2="715.478" stroke-width="0.25" stroke="rgb(0,0,0)" />
	<line x1="264.07" y1="715.478" x2="237.257" y2="970.585" stroke-width="0.25" stroke="rgb(0,0,0)" />
	<line x1="236.057" y1="970.585" x2="262.869" y2="715.478" stroke-width="0.25" stroke="rgb(0,0,0)" />
	<line x1="261.668" y1="715.478" x2="234.856" y2="970.585" stroke-width="0.25" stroke="rgb(0,0,0)" />
	<line x1="233.655" y1="970.585" x2="260.468" y2="715.478" stroke-width="0.25" stroke="rgb(0,0,0)" />
	<line x1="259.267" y1="715.478" x2="232.454" y2="970.585" stroke-width="0.25" stroke="rgb(0,0,0)" />
	<line x1="231.253" y1="970.585" x2="258.066" y2="715.478" stroke-width="0.25" stroke="rgb(0,0,0)" />
	<line x1="256.865" y1="715.478" x2="230.052" y2="970.585" stroke-width="0.25" stroke="rgb(0,0,0)" />
	<line x1="228.851" y1="970.585" x2="255.664" y2="715.478" stroke-width="0.25" stroke="rgb(0,0,0)" />
	<line x1="254.463" y1="715.478" x2="227.65" y2="970.585" stroke-width="0.25" stroke="rgb(0,0,0)" />
	<line x1="226.449" y1="970.585" x2="253.262" y2="715.478" stroke-width="0.25" stroke="rgb(0,0,0)" />
	<line x1="252.061" y1="715.478" x2="225.249" y2="970.585" stroke-width="0.25" stroke="rgb(0,0,0)" />
	<line x1="224.048" y1="970.585" x2="250.86" y2="715.478" stroke-width="0.25" stroke="rgb(0,0,0)" />
	<line x1="249.66" y1="715.478" x2="222.847" y2="970.585" stroke-width="0.25" stroke="rgb(0,0,0)" />
	<line x1="221.646" y1="970.585" x2="248.459" y2="715.478" stroke-width="0.25" stroke="rgb(0,0,0)" />
	<line x1="247.258" y1="715.478" x2="220.445" y2="970.585" stroke-width="0.25" stroke="rgb(0,0,0)" />
	<line x1="219.244" y1="970.585" x2="246.057" y2="715.478" stroke-width="0.25" stroke="rgb(0,0,0)" />
	<line x1="244.856" y1="715.478" x2="218.043" y2="970.585" stroke-width="0.25" stroke="rgb(0,0,0)" />
	<line x1="216.842" y1="970.585" x2="243.655" y2="715.478" stroke-width="0.25" stroke="rgb(0,0,0)" />
	<line x1="242.454" y1="715.478" x2="215.641" y2="970.585" stroke-width="0.25" stroke="rgb(0,0,0)" />
	<line x1="214.441" y1="970.585" x2="241.253" y2="715.478" stroke-width="0.25" stroke="rgb(0,0,0)" />
	<line x1="240.052" y1="715.478" x2="213.24" y2="970.585" stroke-width="0.25" stroke="rgb(0,0,0)" />
	<line x1="212.039" y1="970.585" x2="238.852" y2="715.478" stroke-width="0.25" stroke="rgb(0,0,0)" />
	<line x1="237.651" y1="715.478" x2="210.838" y2="970.585" stroke-width="0.25" stroke="rgb(0,0,0)" />
	<line x1="209.637" y1="970.585" x2="236.45" y2="715.478" stroke-width="0.25" stroke="rgb(0,0,0)" />
	<line x1="235.249" y1="715.478" x2="208.436" y2="970.585" stroke-width="0.25" stroke="rgb(0,0,0)" />
	<line x1="207.235" y1="970.585" x2="234.048" y2="715.478" stroke-width="0.25" stroke="rgb(0,0,0)" />
	<line x1="232.847" y1="715.478" x2="206.034" y2="970.585" stroke-width="0.25" stroke="rgb(0,0,0)" />
	<line x1="204.833" y1="970.585" x2="231.646" y2="715.478" stroke-width="0.25" stroke="rgb(0,0,0)" />
	<line x1="230.445" y1="715.478" x2="203.633" y2="970.585" stroke-width="0.25" stroke="rgb(0,0,0)" />
	<line x1="202.432" y1="970.585" x2="229.244" y2="715.478" stroke-width="0.25" stroke="rgb(0,0,0)" />
	<line x1="228.044" y1="715.478" x2="201.231" y2="970.585" stroke-width="0.25" stroke="rgb(0,0,0)" />
	<line x1="200.03" y1="970.585" x2="226.843" y2="715.478" stroke-width="0.25" stroke="rgb(0,0,0)" />
	<line x1="225.642" y1="715.478" x2="198.829" y2="970.585" stroke-width="0.25" stroke="rgb(0,0,0)" />
	<line x1="197.628" y1="970.585" x2="224.441" y2="715.478" stroke-width="0.25" stroke="rgb(0,0,0)" />
	<line x1="223.24" y1="715.478" x2="196.427" y2="970.585" stroke-width="0.25" stroke="rgb(0,0,0)" />
	<line x1="195.226" y1="970.585" x2="222.039" y2="715.478" stroke-width="0.25" stroke="rgb(0,0,0)" />
	<line x1="220.838" y1="715.478" x2="194.025" y2="970.585" stroke-width="0.25" stroke="rgb(0,0,0)" />
	<line x1="192.825" y1="970.585" x2="219.637" y2="715.478" stroke-width="0.25" stroke="rgb(0,0,0)" />
	<line x1="218.436" y1="715.478" x2="191.624" y2="970.585" stroke-width="0.25" stroke="rgb(0,0,0)" />
	<line x1="190.423" y1="970.585" x2="217.236" y2="715.478" stroke-width="0.25" stroke="rgb(0,0,0)" />
	<line x1="216.035" y1="715.478" x2="189.222" y2="970.585" stroke-width="0.25" stroke="rgb(0,0,0)" />
	<line x1="188.021" y1="970.585" x2="214.834" y2="715.478" stroke-width="0.25" stroke="rgb(0,0,0)" />
	<line x1="213.633" y1="715.478" x2="186.82" y2="970.585" stroke-width="0.25" stroke="rgb(0,0,0)" />
	<line x1="185.619" y1="970.585" x2="212.432" y2="715.478" stroke-width="0.25" stroke="rgb(0,0,0)" />
	<line x1="211.231" y1="715.478" x2="184.418" y2="970.585" stroke-width="0.25" stroke="rgb(0,0,0)" />
	<line x1="183.218" y1="970.585" x2="210.03" y2="715.478" stroke-width="0.25" stroke="rgb(0,0,0)" />
	<line x1="208.829" y1="715.478" x2="182.017" y2="970.585" stroke-width="0.25" stroke="rgb(0,0,0)" />
	<line x1="180.816" y1="970.585" x2="207.629" y2="715.478" stroke-width="0.25" stroke="rgb(0,0,0)" />
	<line x1="206.428" y1="715.478" x2="179.615" y2="970.585" stroke-width="0.25" stroke="rgb(0,0,0)" />
	<line x1="178.414" y1="970.585" x2="205.227" y2="715.478" stroke-width="0.25" stroke="rgb(0,0,0)" />
	<line x1="204.026" y1="715.478" x2="177.213" y2="970.585" stroke-width="0.25" stroke="rgb(0,0,0)" />
	<line x1="176.012" y1="970.585" x2="202.825" y2="715.478" stroke-width="0.25" stroke="rgb(0,0,0)" />
	<line x1="201.624" y1="715.478" x2="174.811" y2="970.585" stroke-width="0.25" stroke="rgb(0,0,0)" />
	<line x1="173.61" y1="970.585" x2="200.423" y2="715.478" stroke-width="0.25" stroke="rgb(0,0,0)" />
	<line x1="199.222" y1="715.478" x2="172.41" y2="970.585" stroke-width="0.25" stroke="rgb(0,0,0)" />
	<line x1="171.209" y1="970.585" x2="198.021" y2="715.478" stroke-width="0.25" stroke="rgb(0,0,0)" />
	<line x1="196.821" y1="715.478" x2="170.008" y2="970.585" stroke-width="0.25" stroke="rgb(0,0,0)" />
	<line x1="168.807" y1="970.585" x2="195.62" y2="715.478" stroke-width="0.25" stroke="rgb(0,0,0)" />
	<line x1="194.419" y1="715.478" x2="167.606" y2="970.585" stroke-width="0.25" stroke="rgb(0,0,0)" />
	<line x1="166.405" y1="970.585" x2="193.218" y2="715.478" stroke-width="0.25" stroke="rgb(0,0,0)" />
	<line x1="192.017" y1="715.478" x2="165.204" y2="970.585" stroke-width="0.25" stroke="rgb(0,0,0)" />
	<line x1="164.003" y1="970.585" x2="190.816" y2="715.478" stroke-width="0.25" stroke="rgb(0,0,0)" />
	<line x1="189.615" y1="715.478" x2="162.802" y2="970.585" stroke-width="0.25" stroke="rgb(0,0,0)" />
	<line x1="161.602" y1="970.585" x2="188.414" y2="715.478" stroke-width="0.25" stroke="rgb(0,0,0)" />
	<line x1="187.213" y1="715.478" x2="160.401" y2="970.585" stroke-width="0.25" stroke="rgb(0,0,0)" />
	<line x1="159.2" y1="970.585" x2="186.013" y2="715.478" stroke-width="0.25" stroke="rgb(0,0,0)" />
	<line x1="184.812" y1="715.478" x2="157.999" y2="970.585" stroke-width="0.25" stroke="rgb(0,0,0)" />
	<line x1="156.798" y1="970.585" x2="183.611" y2="715.478" stroke-width="0.25" stroke="rgb(0,0,0)" />
	<line x1="182.41" y1="715.478" x2="155.597" y2="970.585" stroke-width="0.25" stroke="rgb(0,0,0)" />
	<line x1="154.396" y1="970.585" x2="181.209" y2="715.478" stroke-width="0.25" stroke="rgb(0,0,0)" />
	<line x1="180.008" y1="715.478" x2="153.195" y2="970.585" stroke-width="0.25" stroke="rgb(0,0,0)" />
	<line x1="152.522" y1="965.562" x2="178.807" y2="715.478" stroke-width="0.25" stroke="rgb(0,0,0)" />
	<line x1="177.606" y1="715.478" x2="152.522" y2="954.136" stroke-width="0.25" stroke="rgb(0,0,0)" />
	<line x1="152.522" y1="942.711" x2="176.405" y2="715.478" stroke-width="0.25" stroke="rgb(0,0,0)" />
	<line x1="175.205" y1="715.478" x2="152.522" y2="931.285" stroke-width="0.25" stroke="rgb(0,0,0)" />
	<line x1="152.522" y1="919.859" x2="174.004" y2="715.478" stroke-width="0.25" stroke="rgb(0,0,0)" />
	<line x1="172.803" y1="715.478" x2="152.522" y2="908.434" stroke-width="0.25" stroke="rgb(0,0,0)" />
	<line x1="152.522" y1="897.008" x2="171.602" y2="715.478" stroke-width="0.25" stroke="rgb(0,0,0)" />
	<line x1="170.401" y1="715.478" x2="152.522" y2="885.582" stroke-width="0.25" stroke="rgb(0,0,0)" />
	<line x1="152.522" y1="874.157" x2="169.2" y2="715.478" stroke-width="0.25" stroke="rgb(0,0,0)" />
	<line x1="167.999" y1="715.478" x2="152.522" y2="862.731" stroke-width="0.25" stroke="rgb(0,0,0)" />
	<line x1="152.522" y1="851.305" x2="166.798" y2="715.478" stroke-width="0.25" stroke="rgb(0,0,0)" />
	<line x1="165.597" y1="715.478" x2="152.522" y2="839.88" stroke-width="0.25" stroke="rgb(0,0,0)" />
	<line x1="152.522" y1="828.454" x2="164.397" y2="715.478" stroke-width="0.25" stroke="rgb(0,0,0)" />
	<line x1="163.196" y1="715.478" x2="152.522" y2="817.028" stroke-width="0.25" stroke="rgb(0,0,0)" />
	<line x1="152.522" y1="805.603" x2="161.995" y2="715.478" stroke-width="0.25" stroke="rgb(0,0,0)" />
	<line x1="160.794" y1="715.478" x2="152.522" y2="794.177" stroke-width="0.25" stroke="rgb(0,0,0)" />
	<line x1="152.522" y1="782.751" x2="159.593" y2="715.478" stroke-width="0.25" stroke="rgb(0,0,0)" />
	<line x1="158.392" y1="715.478" x2="152.522" y2="771.326" stroke-width="0.25" stroke="rgb(0,0,0)" />
	<line x1="152.522" y1="759.9" x2="157.191" y2="715.478" stroke-width="0.25" stroke="rgb(0,0,0)" />
	<line x1="155.99" y1="715.478" x2="152.522" y2="748.474" stroke-width="0.25" stroke="rgb(0,0,0)" />
	<line x1="152.522" y1="737.048" x2="154.789" y2="715.478" stroke-width="0.25" stroke="rgb(0,0,0)" />
	<line x1="153.589" y1="715.478" x2="152.522" y2="725.623" stroke-width="0.25" stroke="rgb(0,0,0)" />
</svg>
