<?xml version="1.0" standalone="no" ?>
<!DOCTYPE svg PUBLIC "-//W3C//DTD SVG 1.1//EN" "http://www.w3.org/Graphics/SVG/1.1/DTD/svg11.dtd">
<svg width="2000px" height="2000px" xmlns="http://www.w3.org/2000/svg" version="1.1" >
	<line x1="348.389" y1="1630.42" x2="288.896" y2="1570.92" stroke-width="0.25" stroke="rgb(0,0,0)" />
	<line x1="288.896" y1="1570.92" x2="150.665" y2="1570.92" stroke-width="0.25" stroke="rgb(0,0,0)" />
	<line x1="150.665" y1="1570.92" x2="150.665" y2="1768.65" stroke-width="0.25" stroke="rgb(0,0,0)" />
	<line x1="150.665" y1="1768.65" x2="348.389" y2="1768.65" stroke-width="0.25" stroke="rgb(0,0,0)" />
	<line x1="348.389" y1="1768.65" x2="348.389" y2="1630.42" stroke-width="0.25" stroke="rgb(0,0,0)" />
	<line x1="315.291" y1="807.816" x2="150.864" y2="807.816" stroke-width="0.25" stroke="rgb(0,0,0)" />
	<line x1="150.864" y1="807.816" x2="150.864" y2="972.243" stroke-width="0.25" stroke="rgb(0,0,0)" />
	<line x1="150.864" y1="972.243" x2="315.291" y2="972.243" stroke-width="0.25" stroke="rgb(0,0,0)" />
	<line x1="315.291" y1="972.243" x2="315.291" y2="807.816" stroke-width="0.25" stroke="rgb(0,0,0)" />
	<line x1="314.429" y1="808.678" x2="151.726" y2="808.678" stroke-width="0.25" stroke="rgb(0,0,0)" />
	<line x1="151.726" y1="808.678" x2="151.726" y2="971.381" stroke-width="0.25" stroke="rgb(0,0,0)" />
	<line x1="151.726" y1="971.381" x2="314.429" y2="971.381" stroke-width="0.25" stroke="rgb(0,0,0)" />
	<line x1="314.429" y1="971.381" x2="314.429" y2="808.678" stroke-width="0.25" stroke="rgb(0,0,0)" />
	<line x1="150.665" y1="1768.65" x2="150.668" y2="1768.65" stroke-width="0.25" stroke="rgb(0,0,0)" />
	<line x1="152.248" y1="1768.65" x2="150.665" y2="1767.5" stroke-width="0.25" stroke="rgb(0,0,0)" />
	<line x1="150.665" y1="1766.35" x2="153.829" y2="1768.65" stroke-width="0.25" stroke="rgb(0,0,0)" />
	<line x1="155.409" y1="1768.65" x2="150.665" y2="1765.2" stroke-width="0.25" stroke="rgb(0,0,0)" />
	<line x1="150.665" y1="1764.05" x2="156.99" y2="1768.65" stroke-width="0.25" stroke="rgb(0,0,0)" />
	<line x1="158.57" y1="1768.65" x2="150.665" y2="1762.9" stroke-width="0.25" stroke="rgb(0,0,0)" />
	<line x1="150.665" y1="1761.76" x2="160.15" y2="1768.65" stroke-width="0.25" stroke="rgb(0,0,0)" />
	<line x1="161.731" y1="1768.65" x2="150.665" y2="1760.61" stroke-width="0.25" stroke="rgb(0,0,0)" />
	<line x1="150.665" y1="1759.46" x2="163.311" y2="1768.65" stroke-width="0.25" stroke="rgb(0,0,0)" />
	<line x1="164.891" y1="1768.65" x2="150.665" y2="1758.31" stroke-width="0.25" stroke="rgb(0,0,0)" />
	<line x1="150.665" y1="1757.16" x2="166.472" y2="1768.65" stroke-width="0.25" stroke="rgb(0,0,0)" />
	<line x1="168.052" y1="1768.65" x2="150.665" y2="1756.02" stroke-width="0.25" stroke="rgb(0,0,0)" />
	<line x1="150.665" y1="1754.87" x2="169.632" y2="1768.65" stroke-width="0.25" stroke="rgb(0,0,0)" />
	<line x1="171.213" y1="1768.65" x2="150.665" y2="1753.72" stroke-width="0.25" stroke="rgb(0,0,0)" />
	<line x1="150.665" y1="1752.57" x2="172.793" y2="1768.65" stroke-width="0.25" stroke="rgb(0,0,0)" />
	<line x1="174.373" y1="1768.65" x2="150.665" y2="1751.42" stroke-width="0.25" stroke="rgb(0,0,0)" />
	<line x1="150.665" y1="1750.27" x2="175.954" y2="1768.65" stroke-width="0.25" stroke="rgb(0,0,0)" />
	<line x1="177.534" y1="1768.65" x2="150.665" y2="1749.13" stroke-width="0.25" stroke="rgb(0,0,0)" />
	<line x1="150.665" y1="1747.98" x2="179.114" y2="1768.65" stroke-width="0.25" stroke="rgb(0,0,0)" />
	<line x1="180.695" y1="1768.65" x2="150.665" y2="1746.83" stroke-width="0.25" stroke="rgb(0,0,0)" />
	<line x1="150.665" y1="1745.68" x2="182.275" y2="1768.65" stroke-width="0.25" stroke="rgb(0,0,0)" />
	<line x1="183.855" y1="1768.65" x2="150.665" y2="1744.53" stroke-width="0.25" stroke="rgb(0,0,0)" />
	<line x1="150.665" y1="1743.39" x2="185.436" y2="1768.65" stroke-width="0.25" stroke="rgb(0,0,0)" />
	<line x1="187.016" y1="1768.65" x2="150.665" y2="1742.24" stroke-width="0.25" stroke="rgb(0,0,0)" />
	<line x1="150.665" y1="1741.09" x2="188.597" y2="1768.65" stroke-width="0.25" stroke="rgb(0,0,0)" />
	<line x1="190.177" y1="1768.65" x2="150.665" y2="1739.94" stroke-width="0.25" stroke="rgb(0,0,0)" />
	<line x1="150.665" y1="1738.79" x2="191.757" y2="1768.65" stroke-width="0.25" stroke="rgb(0,0,0)" />
	<line x1="193.338" y1="1768.65" x2="150.665" y2="1737.64" stroke-width="0.25" stroke="rgb(0,0,0)" />
	<line x1="150.665" y1="1736.5" x2="194.918" y2="1768.65" stroke-width="0.25" stroke="rgb(0,0,0)" />
	<line x1="196.498" y1="1768.65" x2="150.665" y2="1735.35" stroke-width="0.25" stroke="rgb(0,0,0)" />
	<line x1="150.665" y1="1734.2" x2="198.079" y2="1768.65" stroke-width="0.25" stroke="rgb(0,0,0)" />
	<line x1="199.659" y1="1768.65" x2="150.665" y2="1733.05" stroke-width="0.25" stroke="rgb(0,0,0)" />
	<line x1="150.665" y1="1731.9" x2="201.239" y2="1768.65" stroke-width="0.25" stroke="rgb(0,0,0)" />
	<line x1="202.82" y1="1768.65" x2="150.665" y2="1730.76" stroke-width="0.25" stroke="rgb(0,0,0)" />
	<line x1="150.665" y1="1729.61" x2="204.4" y2="1768.65" stroke-width="0.25" stroke="rgb(0,0,0)" />
	<line x1="205.98" y1="1768.65" x2="150.665" y2="1728.46" stroke-width="0.25" stroke="rgb(0,0,0)" />
	<line x1="150.665" y1="1727.31" x2="207.561" y2="1768.65" stroke-width="0.25" stroke="rgb(0,0,0)" />
	<line x1="209.141" y1="1768.65" x2="150.665" y2="1726.16" stroke-width="0.25" stroke="rgb(0,0,0)" />
	<line x1="150.665" y1="1725.01" x2="210.721" y2="1768.65" stroke-width="0.25" stroke="rgb(0,0,0)" />
	<line x1="212.302" y1="1768.65" x2="150.665" y2="1723.87" stroke-width="0.25" stroke="rgb(0,0,0)" />
	<line x1="150.665" y1="1722.72" x2="213.882" y2="1768.65" stroke-width="0.25" stroke="rgb(0,0,0)" />
	<line x1="215.463" y1="1768.65" x2="150.665" y2="1721.57" stroke-width="0.25" stroke="rgb(0,0,0)" />
	<line x1="150.665" y1="1720.42" x2="217.043" y2="1768.65" stroke-width="0.25" stroke="rgb(0,0,0)" />
	<line x1="218.623" y1="1768.65" x2="150.665" y2="1719.27" stroke-width="0.25" stroke="rgb(0,0,0)" />
	<line x1="150.665" y1="1718.13" x2="220.204" y2="1768.65" stroke-width="0.25" stroke="rgb(0,0,0)" />
	<line x1="221.784" y1="1768.65" x2="150.665" y2="1716.98" stroke-width="0.25" stroke="rgb(0,0,0)" />
	<line x1="150.665" y1="1715.83" x2="223.364" y2="1768.65" stroke-width="0.25" stroke="rgb(0,0,0)" />
	<line x1="224.945" y1="1768.65" x2="150.665" y2="1714.68" stroke-width="0.25" stroke="rgb(0,0,0)" />
	<line x1="150.665" y1="1713.53" x2="226.525" y2="1768.65" stroke-width="0.25" stroke="rgb(0,0,0)" />
	<line x1="228.105" y1="1768.65" x2="150.665" y2="1712.38" stroke-width="0.25" stroke="rgb(0,0,0)" />
	<line x1="150.665" y1="1711.24" x2="229.686" y2="1768.65" stroke-width="0.25" stroke="rgb(0,0,0)" />
	<line x1="231.266" y1="1768.65" x2="150.665" y2="1710.09" stroke-width="0.25" stroke="rgb(0,0,0)" />
	<line x1="150.665" y1="1708.94" x2="232.846" y2="1768.65" stroke-width="0.25" stroke="rgb(0,0,0)" />
	<line x1="234.427" y1="1768.65" x2="150.665" y2="1707.79" stroke-width="0.25" stroke="rgb(0,0,0)" />
	<line x1="150.665" y1="1706.64" x2="236.007" y2="1768.65" stroke-width="0.25" stroke="rgb(0,0,0)" />
	<line x1="237.587" y1="1768.65" x2="150.665" y2="1705.5" stroke-width="0.25" stroke="rgb(0,0,0)" />
	<line x1="150.665" y1="1704.35" x2="239.168" y2="1768.65" stroke-width="0.25" stroke="rgb(0,0,0)" />
	<line x1="240.748" y1="1768.65" x2="150.665" y2="1703.2" stroke-width="0.25" stroke="rgb(0,0,0)" />
	<line x1="150.665" y1="1702.05" x2="242.328" y2="1768.65" stroke-width="0.25" stroke="rgb(0,0,0)" />
	<line x1="243.909" y1="1768.65" x2="150.665" y2="1700.9" stroke-width="0.25" stroke="rgb(0,0,0)" />
	<line x1="150.665" y1="1699.75" x2="245.489" y2="1768.65" stroke-width="0.25" stroke="rgb(0,0,0)" />
	<line x1="247.07" y1="1768.65" x2="150.665" y2="1698.61" stroke-width="0.25" stroke="rgb(0,0,0)" />
	<line x1="150.665" y1="1697.46" x2="248.65" y2="1768.65" stroke-width="0.25" stroke="rgb(0,0,0)" />
	<line x1="250.23" y1="1768.65" x2="150.665" y2="1696.31" stroke-width="0.25" stroke="rgb(0,0,0)" />
	<line x1="150.665" y1="1695.16" x2="251.811" y2="1768.65" stroke-width="0.25" stroke="rgb(0,0,0)" />
	<line x1="253.391" y1="1768.65" x2="150.665" y2="1694.01" stroke-width="0.25" stroke="rgb(0,0,0)" />
	<line x1="150.665" y1="1692.87" x2="254.971" y2="1768.65" stroke-width="0.25" stroke="rgb(0,0,0)" />
	<line x1="256.552" y1="1768.65" x2="150.665" y2="1691.72" stroke-width="0.25" stroke="rgb(0,0,0)" />
	<line x1="150.665" y1="1690.57" x2="258.132" y2="1768.65" stroke-width="0.25" stroke="rgb(0,0,0)" />
	<line x1="259.712" y1="1768.65" x2="150.665" y2="1689.42" stroke-width="0.25" stroke="rgb(0,0,0)" />
	<line x1="150.665" y1="1688.27" x2="261.293" y2="1768.65" stroke-width="0.25" stroke="rgb(0,0,0)" />
	<line x1="262.873" y1="1768.65" x2="150.665" y2="1687.12" stroke-width="0.25" stroke="rgb(0,0,0)" />
	<line x1="150.665" y1="1685.98" x2="264.453" y2="1768.65" stroke-width="0.25" stroke="rgb(0,0,0)" />
	<line x1="266.034" y1="1768.65" x2="150.665" y2="1684.83" stroke-width="0.25" stroke="rgb(0,0,0)" />
	<line x1="150.665" y1="1683.68" x2="267.614" y2="1768.65" stroke-width="0.25" stroke="rgb(0,0,0)" />
	<line x1="269.194" y1="1768.65" x2="150.665" y2="1682.53" stroke-width="0.25" stroke="rgb(0,0,0)" />
	<line x1="150.665" y1="1681.38" x2="270.775" y2="1768.65" stroke-width="0.25" stroke="rgb(0,0,0)" />
	<line x1="272.355" y1="1768.65" x2="150.665" y2="1680.24" stroke-width="0.25" stroke="rgb(0,0,0)" />
	<line x1="150.665" y1="1679.09" x2="273.935" y2="1768.65" stroke-width="0.25" stroke="rgb(0,0,0)" />
	<line x1="275.516" y1="1768.65" x2="150.665" y2="1677.94" stroke-width="0.25" stroke="rgb(0,0,0)" />
	<line x1="150.665" y1="1676.79" x2="277.096" y2="1768.65" stroke-width="0.25" stroke="rgb(0,0,0)" />
	<line x1="278.677" y1="1768.65" x2="150.665" y2="1675.64" stroke-width="0.25" stroke="rgb(0,0,0)" />
	<line x1="150.665" y1="1674.49" x2="280.257" y2="1768.65" stroke-width="0.25" stroke="rgb(0,0,0)" />
	<line x1="281.837" y1="1768.65" x2="150.665" y2="1673.35" stroke-width="0.25" stroke="rgb(0,0,0)" />
	<line x1="150.665" y1="1672.2" x2="283.418" y2="1768.65" stroke-width="0.25" stroke="rgb(0,0,0)" />
	<line x1="284.998" y1="1768.65" x2="150.665" y2="1671.05" stroke-width="0.25" stroke="rgb(0,0,0)" />
	<line x1="150.665" y1="1669.9" x2="286.578" y2="1768.65" stroke-width="0.25" stroke="rgb(0,0,0)" />
	<line x1="288.159" y1="1768.65" x2="150.665" y2="1668.75" stroke-width="0.25" stroke="rgb(0,0,0)" />
	<line x1="150.665" y1="1667.6" x2="289.739" y2="1768.65" stroke-width="0.25" stroke="rgb(0,0,0)" />
	<line x1="291.319" y1="1768.65" x2="150.665" y2="1666.46" stroke-width="0.25" stroke="rgb(0,0,0)" />
	<line x1="150.665" y1="1665.31" x2="292.9" y2="1768.65" stroke-width="0.25" stroke="rgb(0,0,0)" />
	<line x1="294.48" y1="1768.65" x2="150.665" y2="1664.16" stroke-width="0.25" stroke="rgb(0,0,0)" />
	<line x1="150.665" y1="1663.01" x2="296.06" y2="1768.65" stroke-width="0.25" stroke="rgb(0,0,0)" />
	<line x1="297.641" y1="1768.65" x2="150.665" y2="1661.86" stroke-width="0.25" stroke="rgb(0,0,0)" />
	<line x1="150.665" y1="1660.72" x2="299.221" y2="1768.65" stroke-width="0.25" stroke="rgb(0,0,0)" />
	<line x1="300.801" y1="1768.65" x2="150.665" y2="1659.57" stroke-width="0.25" stroke="rgb(0,0,0)" />
	<line x1="150.665" y1="1658.42" x2="302.382" y2="1768.65" stroke-width="0.25" stroke="rgb(0,0,0)" />
	<line x1="303.962" y1="1768.65" x2="150.665" y2="1657.27" stroke-width="0.25" stroke="rgb(0,0,0)" />
	<line x1="150.665" y1="1656.12" x2="305.543" y2="1768.65" stroke-width="0.25" stroke="rgb(0,0,0)" />
	<line x1="307.123" y1="1768.65" x2="150.665" y2="1654.97" stroke-width="0.25" stroke="rgb(0,0,0)" />
	<line x1="150.665" y1="1653.83" x2="308.703" y2="1768.65" stroke-width="0.25" stroke="rgb(0,0,0)" />
	<line x1="310.284" y1="1768.65" x2="150.665" y2="1652.68" stroke-width="0.25" stroke="rgb(0,0,0)" />
	<line x1="150.665" y1="1651.53" x2="311.864" y2="1768.65" stroke-width="0.25" stroke="rgb(0,0,0)" />
	<line x1="313.444" y1="1768.65" x2="150.665" y2="1650.38" stroke-width="0.25" stroke="rgb(0,0,0)" />
	<line x1="150.665" y1="1649.23" x2="315.025" y2="1768.65" stroke-width="0.25" stroke="rgb(0,0,0)" />
	<line x1="316.605" y1="1768.65" x2="150.665" y2="1648.09" stroke-width="0.25" stroke="rgb(0,0,0)" />
	<line x1="150.665" y1="1646.94" x2="318.185" y2="1768.65" stroke-width="0.25" stroke="rgb(0,0,0)" />
	<line x1="319.766" y1="1768.65" x2="150.665" y2="1645.79" stroke-width="0.25" stroke="rgb(0,0,0)" />
	<line x1="150.665" y1="1644.64" x2="321.346" y2="1768.65" stroke-width="0.25" stroke="rgb(0,0,0)" />
	<line x1="322.926" y1="1768.65" x2="150.665" y2="1643.49" stroke-width="0.25" stroke="rgb(0,0,0)" />
	<line x1="150.665" y1="1642.34" x2="324.507" y2="1768.65" stroke-width="0.25" stroke="rgb(0,0,0)" />
	<line x1="326.087" y1="1768.65" x2="150.665" y2="1641.2" stroke-width="0.25" stroke="rgb(0,0,0)" />
	<line x1="150.665" y1="1640.05" x2="327.667" y2="1768.65" stroke-width="0.25" stroke="rgb(0,0,0)" />
	<line x1="329.248" y1="1768.65" x2="150.665" y2="1638.9" stroke-width="0.25" stroke="rgb(0,0,0)" />
	<line x1="150.665" y1="1637.75" x2="330.828" y2="1768.65" stroke-width="0.25" stroke="rgb(0,0,0)" />
	<line x1="332.408" y1="1768.65" x2="150.665" y2="1636.6" stroke-width="0.25" stroke="rgb(0,0,0)" />
	<line x1="150.665" y1="1635.46" x2="333.989" y2="1768.65" stroke-width="0.25" stroke="rgb(0,0,0)" />
	<line x1="335.569" y1="1768.65" x2="150.665" y2="1634.31" stroke-width="0.25" stroke="rgb(0,0,0)" />
	<line x1="150.665" y1="1633.16" x2="337.15" y2="1768.65" stroke-width="0.25" stroke="rgb(0,0,0)" />
	<line x1="338.73" y1="1768.65" x2="150.665" y2="1632.01" stroke-width="0.25" stroke="rgb(0,0,0)" />
	<line x1="150.665" y1="1630.86" x2="340.31" y2="1768.65" stroke-width="0.25" stroke="rgb(0,0,0)" />
	<line x1="341.891" y1="1768.65" x2="150.665" y2="1629.71" stroke-width="0.25" stroke="rgb(0,0,0)" />
	<line x1="150.665" y1="1628.57" x2="343.471" y2="1768.65" stroke-width="0.25" stroke="rgb(0,0,0)" />
	<line x1="345.051" y1="1768.65" x2="150.665" y2="1627.42" stroke-width="0.25" stroke="rgb(0,0,0)" />
	<line x1="150.665" y1="1626.27" x2="346.632" y2="1768.65" stroke-width="0.25" stroke="rgb(0,0,0)" />
	<line x1="348.212" y1="1768.65" x2="150.665" y2="1625.12" stroke-width="0.25" stroke="rgb(0,0,0)" />
	<line x1="150.665" y1="1623.97" x2="348.389" y2="1767.63" stroke-width="0.25" stroke="rgb(0,0,0)" />
	<line x1="348.389" y1="1766.48" x2="150.665" y2="1622.83" stroke-width="0.25" stroke="rgb(0,0,0)" />
	<line x1="150.665" y1="1621.68" x2="348.389" y2="1765.33" stroke-width="0.25" stroke="rgb(0,0,0)" />
	<line x1="348.389" y1="1764.18" x2="150.665" y2="1620.53" stroke-width="0.25" stroke="rgb(0,0,0)" />
	<line x1="150.665" y1="1619.38" x2="348.389" y2="1763.04" stroke-width="0.25" stroke="rgb(0,0,0)" />
	<line x1="348.389" y1="1761.89" x2="150.665" y2="1618.23" stroke-width="0.25" stroke="rgb(0,0,0)" />
	<line x1="150.665" y1="1617.08" x2="348.389" y2="1760.74" stroke-width="0.25" stroke="rgb(0,0,0)" />
	<line x1="348.389" y1="1759.59" x2="150.665" y2="1615.94" stroke-width="0.25" stroke="rgb(0,0,0)" />
	<line x1="150.665" y1="1614.79" x2="348.389" y2="1758.44" stroke-width="0.25" stroke="rgb(0,0,0)" />
	<line x1="348.389" y1="1757.3" x2="150.665" y2="1613.64" stroke-width="0.25" stroke="rgb(0,0,0)" />
	<line x1="150.665" y1="1612.49" x2="348.389" y2="1756.15" stroke-width="0.25" stroke="rgb(0,0,0)" />
	<line x1="348.389" y1="1755" x2="150.665" y2="1611.34" stroke-width="0.25" stroke="rgb(0,0,0)" />
	<line x1="150.665" y1="1610.2" x2="348.389" y2="1753.85" stroke-width="0.25" stroke="rgb(0,0,0)" />
	<line x1="348.389" y1="1752.7" x2="150.665" y2="1609.05" stroke-width="0.25" stroke="rgb(0,0,0)" />
	<line x1="150.665" y1="1607.9" x2="348.389" y2="1751.55" stroke-width="0.25" stroke="rgb(0,0,0)" />
	<line x1="348.389" y1="1750.41" x2="150.665" y2="1606.75" stroke-width="0.25" stroke="rgb(0,0,0)" />
	<line x1="150.665" y1="1605.6" x2="348.389" y2="1749.26" stroke-width="0.25" stroke="rgb(0,0,0)" />
	<line x1="348.389" y1="1748.11" x2="150.665" y2="1604.45" stroke-width="0.25" stroke="rgb(0,0,0)" />
	<line x1="150.665" y1="1603.31" x2="348.389" y2="1746.96" stroke-width="0.25" stroke="rgb(0,0,0)" />
	<line x1="348.389" y1="1745.81" x2="150.665" y2="1602.16" stroke-width="0.25" stroke="rgb(0,0,0)" />
	<line x1="150.665" y1="1601.01" x2="348.389" y2="1744.67" stroke-width="0.25" stroke="rgb(0,0,0)" />
	<line x1="348.389" y1="1743.52" x2="150.665" y2="1599.86" stroke-width="0.25" stroke="rgb(0,0,0)" />
	<line x1="150.665" y1="1598.71" x2="348.389" y2="1742.37" stroke-width="0.25" stroke="rgb(0,0,0)" />
	<line x1="348.389" y1="1741.22" x2="150.665" y2="1597.57" stroke-width="0.25" stroke="rgb(0,0,0)" />
	<line x1="150.665" y1="1596.42" x2="348.389" y2="1740.07" stroke-width="0.25" stroke="rgb(0,0,0)" />
	<line x1="348.389" y1="1738.92" x2="150.665" y2="1595.27" stroke-width="0.25" stroke="rgb(0,0,0)" />
	<line x1="150.665" y1="1594.12" x2="348.389" y2="1737.78" stroke-width="0.25" stroke="rgb(0,0,0)" />
	<line x1="348.389" y1="1736.63" x2="150.665" y2="1592.97" stroke-width="0.25" stroke="rgb(0,0,0)" />
	<line x1="150.665" y1="1591.82" x2="348.389" y2="1735.48" stroke-width="0.25" stroke="rgb(0,0,0)" />
	<line x1="348.389" y1="1734.33" x2="150.665" y2="1590.68" stroke-width="0.25" stroke="rgb(0,0,0)" />
	<line x1="150.665" y1="1589.53" x2="348.389" y2="1733.18" stroke-width="0.25" stroke="rgb(0,0,0)" />
	<line x1="348.389" y1="1732.03" x2="150.665" y2="1588.38" stroke-width="0.25" stroke="rgb(0,0,0)" />
	<line x1="150.665" y1="1587.23" x2="348.389" y2="1730.89" stroke-width="0.25" stroke="rgb(0,0,0)" />
	<line x1="348.389" y1="1729.74" x2="150.665" y2="1586.08" stroke-width="0.25" stroke="rgb(0,0,0)" />
	<line x1="150.665" y1="1584.94" x2="348.389" y2="1728.59" stroke-width="0.25" stroke="rgb(0,0,0)" />
	<line x1="348.389" y1="1727.44" x2="150.665" y2="1583.79" stroke-width="0.25" stroke="rgb(0,0,0)" />
	<line x1="150.665" y1="1582.64" x2="348.389" y2="1726.29" stroke-width="0.25" stroke="rgb(0,0,0)" />
	<line x1="348.389" y1="1725.15" x2="150.665" y2="1581.49" stroke-width="0.25" stroke="rgb(0,0,0)" />
	<line x1="150.665" y1="1580.34" x2="348.389" y2="1724" stroke-width="0.25" stroke="rgb(0,0,0)" />
	<line x1="348.389" y1="1722.85" x2="150.665" y2="1579.19" stroke-width="0.25" stroke="rgb(0,0,0)" />
	<line x1="150.665" y1="1578.05" x2="348.389" y2="1721.7" stroke-width="0.25" stroke="rgb(0,0,0)" />
	<line x1="348.389" y1="1720.55" x2="150.665" y2="1576.9" stroke-width="0.25" stroke="rgb(0,0,0)" />
	<line x1="150.665" y1="1575.75" x2="348.389" y2="1719.4" stroke-width="0.25" stroke="rgb(0,0,0)" />
	<line x1="348.389" y1="1718.26" x2="150.665" y2="1574.6" stroke-width="0.25" stroke="rgb(0,0,0)" />
	<line x1="150.665" y1="1573.45" x2="348.389" y2="1717.11" stroke-width="0.25" stroke="rgb(0,0,0)" />
	<line x1="348.389" y1="1715.96" x2="150.665" y2="1572.31" stroke-width="0.25" stroke="rgb(0,0,0)" />
	<line x1="150.665" y1="1571.16" x2="348.389" y2="1714.81" stroke-width="0.25" stroke="rgb(0,0,0)" />
	<line x1="348.389" y1="1713.66" x2="151.924" y2="1570.92" stroke-width="0.25" stroke="rgb(0,0,0)" />
	<line x1="153.505" y1="1570.92" x2="348.389" y2="1712.52" stroke-width="0.25" stroke="rgb(0,0,0)" />
	<line x1="348.389" y1="1711.37" x2="155.085" y2="1570.92" stroke-width="0.25" stroke="rgb(0,0,0)" />
	<line x1="156.665" y1="1570.92" x2="348.389" y2="1710.22" stroke-width="0.25" stroke="rgb(0,0,0)" />
	<line x1="348.389" y1="1709.07" x2="158.246" y2="1570.92" stroke-width="0.25" stroke="rgb(0,0,0)" />
	<line x1="159.826" y1="1570.92" x2="348.389" y2="1707.92" stroke-width="0.25" stroke="rgb(0,0,0)" />
	<line x1="348.389" y1="1706.77" x2="161.407" y2="1570.92" stroke-width="0.25" stroke="rgb(0,0,0)" />
	<line x1="162.987" y1="1570.92" x2="348.389" y2="1705.63" stroke-width="0.25" stroke="rgb(0,0,0)" />
	<line x1="348.389" y1="1704.48" x2="164.567" y2="1570.92" stroke-width="0.25" stroke="rgb(0,0,0)" />
	<line x1="166.148" y1="1570.92" x2="348.389" y2="1703.33" stroke-width="0.25" stroke="rgb(0,0,0)" />
	<line x1="348.389" y1="1702.18" x2="167.728" y2="1570.92" stroke-width="0.25" stroke="rgb(0,0,0)" />
	<line x1="169.308" y1="1570.92" x2="348.389" y2="1701.03" stroke-width="0.25" stroke="rgb(0,0,0)" />
	<line x1="348.389" y1="1699.89" x2="170.889" y2="1570.92" stroke-width="0.25" stroke="rgb(0,0,0)" />
	<line x1="172.469" y1="1570.92" x2="348.389" y2="1698.74" stroke-width="0.25" stroke="rgb(0,0,0)" />
	<line x1="348.389" y1="1697.59" x2="174.049" y2="1570.92" stroke-width="0.25" stroke="rgb(0,0,0)" />
	<line x1="175.63" y1="1570.92" x2="348.389" y2="1696.44" stroke-width="0.25" stroke="rgb(0,0,0)" />
	<line x1="348.389" y1="1695.29" x2="177.21" y2="1570.92" stroke-width="0.25" stroke="rgb(0,0,0)" />
	<line x1="178.79" y1="1570.92" x2="348.389" y2="1694.14" stroke-width="0.25" stroke="rgb(0,0,0)" />
	<line x1="348.389" y1="1693" x2="180.371" y2="1570.92" stroke-width="0.25" stroke="rgb(0,0,0)" />
	<line x1="181.951" y1="1570.92" x2="348.389" y2="1691.85" stroke-width="0.25" stroke="rgb(0,0,0)" />
	<line x1="348.389" y1="1690.7" x2="183.531" y2="1570.92" stroke-width="0.25" stroke="rgb(0,0,0)" />
	<line x1="185.112" y1="1570.92" x2="348.389" y2="1689.55" stroke-width="0.25" stroke="rgb(0,0,0)" />
	<line x1="348.389" y1="1688.4" x2="186.692" y2="1570.92" stroke-width="0.25" stroke="rgb(0,0,0)" />
	<line x1="188.272" y1="1570.92" x2="348.389" y2="1687.26" stroke-width="0.25" stroke="rgb(0,0,0)" />
	<line x1="348.389" y1="1686.11" x2="189.853" y2="1570.92" stroke-width="0.25" stroke="rgb(0,0,0)" />
	<line x1="191.433" y1="1570.92" x2="348.389" y2="1684.96" stroke-width="0.25" stroke="rgb(0,0,0)" />
	<line x1="348.389" y1="1683.81" x2="193.014" y2="1570.92" stroke-width="0.25" stroke="rgb(0,0,0)" />
	<line x1="194.594" y1="1570.92" x2="348.389" y2="1682.66" stroke-width="0.25" stroke="rgb(0,0,0)" />
	<line x1="348.389" y1="1681.51" x2="196.174" y2="1570.92" stroke-width="0.25" stroke="rgb(0,0,0)" />
	<line x1="197.755" y1="1570.92" x2="348.389" y2="1680.37" stroke-width="0.25" stroke="rgb(0,0,0)" />
	<line x1="348.389" y1="1679.22" x2="199.335" y2="1570.92" stroke-width="0.25" stroke="rgb(0,0,0)" />
	<line x1="200.915" y1="1570.92" x2="348.389" y2="1678.07" stroke-width="0.25" stroke="rgb(0,0,0)" />
	<line x1="348.389" y1="1676.92" x2="202.496" y2="1570.92" stroke-width="0.25" stroke="rgb(0,0,0)" />
	<line x1="204.076" y1="1570.92" x2="348.389" y2="1675.77" stroke-width="0.25" stroke="rgb(0,0,0)" />
	<line x1="348.389" y1="1674.63" x2="205.656" y2="1570.92" stroke-width="0.25" stroke="rgb(0,0,0)" />
	<line x1="207.237" y1="1570.92" x2="348.389" y2="1673.48" stroke-width="0.25" stroke="rgb(0,0,0)" />
	<line x1="348.389" y1="1672.33" x2="208.817" y2="1570.92" stroke-width="0.25" stroke="rgb(0,0,0)" />
	<line x1="210.397" y1="1570.92" x2="348.389" y2="1671.18" stroke-width="0.25" stroke="rgb(0,0,0)" />
	<line x1="348.389" y1="1670.03" x2="211.978" y2="1570.92" stroke-width="0.25" stroke="rgb(0,0,0)" />
	<line x1="213.558" y1="1570.92" x2="348.389" y2="1668.88" stroke-width="0.25" stroke="rgb(0,0,0)" />
	<line x1="348.389" y1="1667.74" x2="215.138" y2="1570.92" stroke-width="0.25" stroke="rgb(0,0,0)" />
	<line x1="216.719" y1="1570.92" x2="348.389" y2="1666.59" stroke-width="0.25" stroke="rgb(0,0,0)" />
	<line x1="348.389" y1="1665.44" x2="218.299" y2="1570.92" stroke-width="0.25" stroke="rgb(0,0,0)" />
	<line x1="219.88" y1="1570.92" x2="348.389" y2="1664.29" stroke-width="0.25" stroke="rgb(0,0,0)" />
	<line x1="348.389" y1="1663.14" x2="221.46" y2="1570.92" stroke-width="0.25" stroke="rgb(0,0,0)" />
	<line x1="223.04" y1="1570.92" x2="348.389" y2="1662" stroke-width="0.25" stroke="rgb(0,0,0)" />
	<line x1="348.389" y1="1660.85" x2="224.621" y2="1570.92" stroke-width="0.25" stroke="rgb(0,0,0)" />
	<line x1="226.201" y1="1570.92" x2="348.389" y2="1659.7" stroke-width="0.25" stroke="rgb(0,0,0)" />
	<line x1="348.389" y1="1658.55" x2="227.781" y2="1570.92" stroke-width="0.25" stroke="rgb(0,0,0)" />
	<line x1="229.362" y1="1570.92" x2="348.389" y2="1657.4" stroke-width="0.25" stroke="rgb(0,0,0)" />
	<line x1="348.389" y1="1656.25" x2="230.942" y2="1570.92" stroke-width="0.25" stroke="rgb(0,0,0)" />
	<line x1="232.522" y1="1570.92" x2="348.389" y2="1655.11" stroke-width="0.25" stroke="rgb(0,0,0)" />
	<line x1="348.389" y1="1653.96" x2="234.103" y2="1570.92" stroke-width="0.25" stroke="rgb(0,0,0)" />
	<line x1="235.683" y1="1570.92" x2="348.389" y2="1652.81" stroke-width="0.25" stroke="rgb(0,0,0)" />
	<line x1="348.389" y1="1651.66" x2="237.263" y2="1570.92" stroke-width="0.25" stroke="rgb(0,0,0)" />
	<line x1="238.844" y1="1570.92" x2="348.389" y2="1650.51" stroke-width="0.25" stroke="rgb(0,0,0)" />
	<line x1="348.389" y1="1649.37" x2="240.424" y2="1570.92" stroke-width="0.25" stroke="rgb(0,0,0)" />
	<line x1="242.004" y1="1570.92" x2="348.389" y2="1648.22" stroke-width="0.25" stroke="rgb(0,0,0)" />
	<line x1="348.389" y1="1647.07" x2="243.585" y2="1570.92" stroke-width="0.25" stroke="rgb(0,0,0)" />
	<line x1="245.165" y1="1570.92" x2="348.389" y2="1645.92" stroke-width="0.25" stroke="rgb(0,0,0)" />
	<line x1="348.389" y1="1644.77" x2="246.745" y2="1570.92" stroke-width="0.25" stroke="rgb(0,0,0)" />
	<line x1="248.326" y1="1570.92" x2="348.389" y2="1643.62" stroke-width="0.25" stroke="rgb(0,0,0)" />
	<line x1="348.389" y1="1642.48" x2="249.906" y2="1570.92" stroke-width="0.25" stroke="rgb(0,0,0)" />
	<line x1="251.487" y1="1570.92" x2="348.389" y2="1641.33" stroke-width="0.25" stroke="rgb(0,0,0)" />
	<line x1="348.389" y1="1640.18" x2="253.067" y2="1570.92" stroke-width="0.25" stroke="rgb(0,0,0)" />
	<line x1="254.647" y1="1570.92" x2="348.389" y2="1639.03" stroke-width="0.25" stroke="rgb(0,0,0)" />
	<line x1="348.389" y1="1637.88" x2="256.228" y2="1570.92" stroke-width="0.25" stroke="rgb(0,0,0)" />
	<line x1="257.808" y1="1570.92" x2="348.389" y2="1636.73" stroke-width="0.25" stroke="rgb(0,0,0)" />
	<line x1="348.389" y1="1635.59" x2="259.388" y2="1570.92" stroke-width="0.25" stroke="rgb(0,0,0)" />
	<line x1="260.969" y1="1570.92" x2="348.389" y2="1634.44" stroke-width="0.25" stroke="rgb(0,0,0)" />
	<line x1="348.389" y1="1633.29" x2="262.549" y2="1570.92" stroke-width="0.25" stroke="rgb(0,0,0)" />
	<line x1="264.129" y1="1570.92" x2="348.389" y2="1632.14" stroke-width="0.25" stroke="rgb(0,0,0)" />
	<line x1="348.389" y1="1630.99" x2="265.71" y2="1570.92" stroke-width="0.25" stroke="rgb(0,0,0)" />
	<line x1="267.29" y1="1570.92" x2="346.301" y2="1628.33" stroke-width="0.25" stroke="rgb(0,0,0)" />
	<line x1="342.102" y1="1624.13" x2="268.87" y2="1570.92" stroke-width="0.25" stroke="rgb(0,0,0)" />
	<line x1="270.451" y1="1570.92" x2="337.904" y2="1619.93" stroke-width="0.25" stroke="rgb(0,0,0)" />
	<line x1="333.705" y1="1615.73" x2="272.031" y2="1570.92" stroke-width="0.25" stroke="rgb(0,0,0)" />
	<line x1="273.611" y1="1570.92" x2="329.506" y2="1611.53" stroke-width="0.25" stroke="rgb(0,0,0)" />
	<line x1="325.307" y1="1607.33" x2="275.192" y2="1570.92" stroke-width="0.25" stroke="rgb(0,0,0)" />
	<line x1="276.772" y1="1570.92" x2="321.108" y2="1603.14" stroke-width="0.25" stroke="rgb(0,0,0)" />
	<line x1="316.91" y1="1598.94" x2="278.352" y2="1570.92" stroke-width="0.25" stroke="rgb(0,0,0)" />
	<line x1="279.933" y1="1570.92" x2="312.711" y2="1594.74" stroke-width="0.25" stroke="rgb(0,0,0)" />
	<line x1="308.512" y1="1590.54" x2="281.513" y2="1570.92" stroke-width="0.25" stroke="rgb(0,0,0)" />
	<line x1="283.094" y1="1570.92" x2="304.313" y2="1586.34" stroke-width="0.25" stroke="rgb(0,0,0)" />
	<line x1="300.114" y1="1582.14" x2="284.674" y2="1570.92" stroke-width="0.25" stroke="rgb(0,0,0)" />
	<line x1="286.254" y1="1570.92" x2="295.916" y2="1577.94" stroke-width="0.25" stroke="rgb(0,0,0)" />
	<line x1="291.717" y1="1573.74" x2="287.835" y2="1570.92" stroke-width="0.25" stroke="rgb(0,0,0)" />
	<line x1="152.522" y1="969.542" x2="153.958" y2="970.585" stroke-width="0.25" stroke="rgb(0,0,0)" />
	<line x1="155.99" y1="970.585" x2="152.522" y2="968.065" stroke-width="0.25" stroke="rgb(0,0,0)" />
	<line x1="152.522" y1="966.589" x2="158.022" y2="970.585" stroke-width="0.25" stroke="rgb(0,0,0)" />
	<line x1="160.054" y1="970.585" x2="152.522" y2="965.113" stroke-width="0.25" stroke="rgb(0,0,0)" />
	<line x1="152.522" y1="963.637" x2="162.085" y2="970.585" stroke-width="0.25" stroke="rgb(0,0,0)" />
	<line x1="164.117" y1="970.585" x2="152.522" y2="962.16" stroke-width="0.25" stroke="rgb(0,0,0)" />
	<line x1="152.522" y1="960.684" x2="166.149" y2="970.585" stroke-width="0.25" stroke="rgb(0,0,0)" />
	<line x1="168.181" y1="970.585" x2="152.522" y2="959.208" stroke-width="0.25" stroke="rgb(0,0,0)" />
	<line x1="152.522" y1="957.732" x2="170.213" y2="970.585" stroke-width="0.25" stroke="rgb(0,0,0)" />
	<line x1="172.245" y1="970.585" x2="152.522" y2="956.255" stroke-width="0.25" stroke="rgb(0,0,0)" />
	<line x1="152.522" y1="954.779" x2="174.277" y2="970.585" stroke-width="0.25" stroke="rgb(0,0,0)" />
	<line x1="176.309" y1="970.585" x2="152.522" y2="953.303" stroke-width="0.25" stroke="rgb(0,0,0)" />
	<line x1="152.522" y1="951.827" x2="178.34" y2="970.585" stroke-width="0.25" stroke="rgb(0,0,0)" />
	<line x1="180.372" y1="970.585" x2="152.522" y2="950.35" stroke-width="0.25" stroke="rgb(0,0,0)" />
	<line x1="152.522" y1="948.874" x2="182.404" y2="970.585" stroke-width="0.25" stroke="rgb(0,0,0)" />
	<line x1="184.436" y1="970.585" x2="152.522" y2="947.398" stroke-width="0.25" stroke="rgb(0,0,0)" />
	<line x1="152.522" y1="945.922" x2="186.468" y2="970.585" stroke-width="0.25" stroke="rgb(0,0,0)" />
	<line x1="188.5" y1="970.585" x2="152.522" y2="944.445" stroke-width="0.25" stroke="rgb(0,0,0)" />
	<line x1="152.522" y1="942.969" x2="190.532" y2="970.585" stroke-width="0.25" stroke="rgb(0,0,0)" />
	<line x1="192.564" y1="970.585" x2="152.522" y2="941.493" stroke-width="0.25" stroke="rgb(0,0,0)" />
	<line x1="152.522" y1="940.017" x2="194.596" y2="970.585" stroke-width="0.25" stroke="rgb(0,0,0)" />
	<line x1="196.627" y1="970.585" x2="152.522" y2="938.54" stroke-width="0.25" stroke="rgb(0,0,0)" />
	<line x1="152.522" y1="937.064" x2="198.659" y2="970.585" stroke-width="0.25" stroke="rgb(0,0,0)" />
	<line x1="200.691" y1="970.585" x2="152.522" y2="935.588" stroke-width="0.25" stroke="rgb(0,0,0)" />
	<line x1="152.522" y1="934.112" x2="202.723" y2="970.585" stroke-width="0.25" stroke="rgb(0,0,0)" />
	<line x1="204.755" y1="970.585" x2="152.522" y2="932.635" stroke-width="0.25" stroke="rgb(0,0,0)" />
	<line x1="152.522" y1="931.159" x2="206.787" y2="970.585" stroke-width="0.25" stroke="rgb(0,0,0)" />
	<line x1="208.819" y1="970.585" x2="152.522" y2="929.683" stroke-width="0.25" stroke="rgb(0,0,0)" />
	<line x1="152.522" y1="928.207" x2="210.851" y2="970.585" stroke-width="0.25" stroke="rgb(0,0,0)" />
	<line x1="212.882" y1="970.585" x2="152.522" y2="926.73" stroke-width="0.25" stroke="rgb(0,0,0)" />
	<line x1="152.522" y1="925.254" x2="214.914" y2="970.585" stroke-width="0.25" stroke="rgb(0,0,0)" />
	<line x1="216.946" y1="970.585" x2="152.522" y2="923.778" stroke-width="0.25" stroke="rgb(0,0,0)" />
	<line x1="152.522" y1="922.302" x2="218.978" y2="970.585" stroke-width="0.25" stroke="rgb(0,0,0)" />
	<line x1="221.01" y1="970.585" x2="152.522" y2="920.826" stroke-width="0.25" stroke="rgb(0,0,0)" />
	<line x1="152.522" y1="919.349" x2="223.042" y2="970.585" stroke-width="0.25" stroke="rgb(0,0,0)" />
	<line x1="225.074" y1="970.585" x2="152.522" y2="917.873" stroke-width="0.25" stroke="rgb(0,0,0)" />
	<line x1="152.522" y1="916.397" x2="227.106" y2="970.585" stroke-width="0.25" stroke="rgb(0,0,0)" />
	<line x1="229.137" y1="970.585" x2="152.522" y2="914.921" stroke-width="0.25" stroke="rgb(0,0,0)" />
	<line x1="152.522" y1="913.444" x2="231.169" y2="970.585" stroke-width="0.25" stroke="rgb(0,0,0)" />
	<line x1="233.201" y1="970.585" x2="152.522" y2="911.968" stroke-width="0.25" stroke="rgb(0,0,0)" />
	<line x1="152.522" y1="910.492" x2="235.233" y2="970.585" stroke-width="0.25" stroke="rgb(0,0,0)" />
	<line x1="237.265" y1="970.585" x2="152.522" y2="909.016" stroke-width="0.25" stroke="rgb(0,0,0)" />
	<line x1="152.522" y1="907.539" x2="239.297" y2="970.585" stroke-width="0.25" stroke="rgb(0,0,0)" />
	<line x1="241.329" y1="970.585" x2="152.522" y2="906.063" stroke-width="0.25" stroke="rgb(0,0,0)" />
	<line x1="152.522" y1="904.587" x2="243.361" y2="970.585" stroke-width="0.25" stroke="rgb(0,0,0)" />
	<line x1="245.393" y1="970.585" x2="152.522" y2="903.111" stroke-width="0.25" stroke="rgb(0,0,0)" />
	<line x1="152.522" y1="901.634" x2="247.424" y2="970.585" stroke-width="0.25" stroke="rgb(0,0,0)" />
	<line x1="249.456" y1="970.585" x2="152.522" y2="900.158" stroke-width="0.25" stroke="rgb(0,0,0)" />
	<line x1="152.522" y1="898.682" x2="251.488" y2="970.585" stroke-width="0.25" stroke="rgb(0,0,0)" />
	<line x1="253.52" y1="970.585" x2="152.522" y2="897.206" stroke-width="0.25" stroke="rgb(0,0,0)" />
	<line x1="152.522" y1="895.729" x2="255.552" y2="970.585" stroke-width="0.25" stroke="rgb(0,0,0)" />
	<line x1="257.584" y1="970.585" x2="152.522" y2="894.253" stroke-width="0.25" stroke="rgb(0,0,0)" />
	<line x1="152.522" y1="892.777" x2="259.616" y2="970.585" stroke-width="0.25" stroke="rgb(0,0,0)" />
	<line x1="261.648" y1="970.585" x2="152.522" y2="891.301" stroke-width="0.25" stroke="rgb(0,0,0)" />
	<line x1="152.522" y1="889.824" x2="263.679" y2="970.585" stroke-width="0.25" stroke="rgb(0,0,0)" />
	<line x1="265.711" y1="970.585" x2="152.522" y2="888.348" stroke-width="0.25" stroke="rgb(0,0,0)" />
	<line x1="152.522" y1="886.872" x2="267.743" y2="970.585" stroke-width="0.25" stroke="rgb(0,0,0)" />
	<line x1="269.775" y1="970.585" x2="152.522" y2="885.396" stroke-width="0.25" stroke="rgb(0,0,0)" />
	<line x1="152.522" y1="883.919" x2="271.807" y2="970.585" stroke-width="0.25" stroke="rgb(0,0,0)" />
	<line x1="273.839" y1="970.585" x2="152.522" y2="882.443" stroke-width="0.25" stroke="rgb(0,0,0)" />
	<line x1="152.522" y1="880.967" x2="275.871" y2="970.585" stroke-width="0.25" stroke="rgb(0,0,0)" />
	<line x1="277.903" y1="970.585" x2="152.522" y2="879.491" stroke-width="0.25" stroke="rgb(0,0,0)" />
	<line x1="152.522" y1="878.014" x2="279.934" y2="970.585" stroke-width="0.25" stroke="rgb(0,0,0)" />
	<line x1="281.966" y1="970.585" x2="152.522" y2="876.538" stroke-width="0.25" stroke="rgb(0,0,0)" />
	<line x1="152.522" y1="875.062" x2="283.998" y2="970.585" stroke-width="0.25" stroke="rgb(0,0,0)" />
	<line x1="286.03" y1="970.585" x2="152.522" y2="873.586" stroke-width="0.25" stroke="rgb(0,0,0)" />
	<line x1="152.522" y1="872.109" x2="288.062" y2="970.585" stroke-width="0.25" stroke="rgb(0,0,0)" />
	<line x1="290.094" y1="970.585" x2="152.522" y2="870.633" stroke-width="0.25" stroke="rgb(0,0,0)" />
	<line x1="152.522" y1="869.157" x2="292.126" y2="970.585" stroke-width="0.25" stroke="rgb(0,0,0)" />
	<line x1="294.158" y1="970.585" x2="152.522" y2="867.681" stroke-width="0.25" stroke="rgb(0,0,0)" />
	<line x1="152.522" y1="866.204" x2="296.189" y2="970.585" stroke-width="0.25" stroke="rgb(0,0,0)" />
	<line x1="298.221" y1="970.585" x2="152.522" y2="864.728" stroke-width="0.25" stroke="rgb(0,0,0)" />
	<line x1="152.522" y1="863.252" x2="300.253" y2="970.585" stroke-width="0.25" stroke="rgb(0,0,0)" />
	<line x1="302.285" y1="970.585" x2="152.522" y2="861.776" stroke-width="0.25" stroke="rgb(0,0,0)" />
	<line x1="152.522" y1="860.299" x2="304.317" y2="970.585" stroke-width="0.25" stroke="rgb(0,0,0)" />
	<line x1="306.349" y1="970.585" x2="152.522" y2="858.823" stroke-width="0.25" stroke="rgb(0,0,0)" />
	<line x1="152.522" y1="857.347" x2="308.381" y2="970.585" stroke-width="0.25" stroke="rgb(0,0,0)" />
	<line x1="310.413" y1="970.585" x2="152.522" y2="855.871" stroke-width="0.25" stroke="rgb(0,0,0)" />
	<line x1="152.522" y1="854.394" x2="312.445" y2="970.585" stroke-width="0.25" stroke="rgb(0,0,0)" />
	<line x1="313.632" y1="969.972" x2="152.522" y2="852.918" stroke-width="0.25" stroke="rgb(0,0,0)" />
	<line x1="152.522" y1="851.442" x2="313.632" y2="968.495" stroke-width="0.25" stroke="rgb(0,0,0)" />
	<line x1="313.632" y1="967.019" x2="152.522" y2="849.966" stroke-width="0.25" stroke="rgb(0,0,0)" />
	<line x1="152.522" y1="848.489" x2="313.632" y2="965.543" stroke-width="0.25" stroke="rgb(0,0,0)" />
	<line x1="313.632" y1="964.067" x2="152.522" y2="847.013" stroke-width="0.25" stroke="rgb(0,0,0)" />
	<line x1="152.522" y1="845.537" x2="313.632" y2="962.59" stroke-width="0.25" stroke="rgb(0,0,0)" />
	<line x1="313.632" y1="961.114" x2="152.522" y2="844.061" stroke-width="0.25" stroke="rgb(0,0,0)" />
	<line x1="152.522" y1="842.584" x2="313.632" y2="959.638" stroke-width="0.25" stroke="rgb(0,0,0)" />
	<line x1="313.632" y1="958.162" x2="152.522" y2="841.108" stroke-width="0.25" stroke="rgb(0,0,0)" />
	<line x1="152.522" y1="839.632" x2="313.632" y2="956.685" stroke-width="0.25" stroke="rgb(0,0,0)" />
	<line x1="313.632" y1="955.209" x2="152.522" y2="838.156" stroke-width="0.25" stroke="rgb(0,0,0)" />
	<line x1="152.522" y1="836.679" x2="313.632" y2="953.733" stroke-width="0.25" stroke="rgb(0,0,0)" />
	<line x1="313.632" y1="952.257" x2="152.522" y2="835.203" stroke-width="0.25" stroke="rgb(0,0,0)" />
	<line x1="152.522" y1="833.727" x2="313.632" y2="950.78" stroke-width="0.25" stroke="rgb(0,0,0)" />
	<line x1="313.632" y1="949.304" x2="152.522" y2="832.251" stroke-width="0.25" stroke="rgb(0,0,0)" />
	<line x1="152.522" y1="830.774" x2="313.632" y2="947.828" stroke-width="0.25" stroke="rgb(0,0,0)" />
	<line x1="313.632" y1="946.352" x2="152.522" y2="829.298" stroke-width="0.25" stroke="rgb(0,0,0)" />
	<line x1="152.522" y1="827.822" x2="313.632" y2="944.875" stroke-width="0.25" stroke="rgb(0,0,0)" />
	<line x1="313.632" y1="943.399" x2="152.522" y2="826.346" stroke-width="0.25" stroke="rgb(0,0,0)" />
	<line x1="152.522" y1="824.869" x2="313.632" y2="941.923" stroke-width="0.25" stroke="rgb(0,0,0)" />
	<line x1="313.632" y1="940.447" x2="152.522" y2="823.393" stroke-width="0.25" stroke="rgb(0,0,0)" />
	<line x1="152.522" y1="821.917" x2="313.632" y2="938.97" stroke-width="0.25" stroke="rgb(0,0,0)" />
	<line x1="313.632" y1="937.494" x2="152.522" y2="820.441" stroke-width="0.25" stroke="rgb(0,0,0)" />
	<line x1="152.522" y1="818.964" x2="313.632" y2="936.018" stroke-width="0.25" stroke="rgb(0,0,0)" />
	<line x1="313.632" y1="934.542" x2="152.522" y2="817.488" stroke-width="0.25" stroke="rgb(0,0,0)" />
	<line x1="152.522" y1="816.012" x2="313.632" y2="933.065" stroke-width="0.25" stroke="rgb(0,0,0)" />
	<line x1="313.632" y1="931.589" x2="152.522" y2="814.536" stroke-width="0.25" stroke="rgb(0,0,0)" />
	<line x1="152.522" y1="813.059" x2="313.632" y2="930.113" stroke-width="0.25" stroke="rgb(0,0,0)" />
	<line x1="313.632" y1="928.637" x2="152.522" y2="811.583" stroke-width="0.25" stroke="rgb(0,0,0)" />
	<line x1="152.522" y1="810.107" x2="313.632" y2="927.16" stroke-width="0.25" stroke="rgb(0,0,0)" />
	<line x1="313.632" y1="925.684" x2="153.684" y2="809.475" stroke-width="0.25" stroke="rgb(0,0,0)" />
	<line x1="155.716" y1="809.475" x2="313.632" y2="924.208" stroke-width="0.25" stroke="rgb(0,0,0)" />
	<line x1="313.632" y1="922.732" x2="157.747" y2="809.475" stroke-width="0.25" stroke="rgb(0,0,0)" />
	<line x1="159.779" y1="809.475" x2="313.632" y2="921.255" stroke-width="0.25" stroke="rgb(0,0,0)" />
	<line x1="313.632" y1="919.779" x2="161.811" y2="809.475" stroke-width="0.25" stroke="rgb(0,0,0)" />
	<line x1="163.843" y1="809.475" x2="313.632" y2="918.303" stroke-width="0.25" stroke="rgb(0,0,0)" />
	<line x1="313.632" y1="916.827" x2="165.875" y2="809.475" stroke-width="0.25" stroke="rgb(0,0,0)" />
	<line x1="167.907" y1="809.475" x2="313.632" y2="915.35" stroke-width="0.25" stroke="rgb(0,0,0)" />
	<line x1="313.632" y1="913.874" x2="169.939" y2="809.475" stroke-width="0.25" stroke="rgb(0,0,0)" />
	<line x1="171.971" y1="809.475" x2="313.632" y2="912.398" stroke-width="0.25" stroke="rgb(0,0,0)" />
	<line x1="313.632" y1="910.922" x2="174.002" y2="809.475" stroke-width="0.25" stroke="rgb(0,0,0)" />
	<line x1="176.034" y1="809.475" x2="313.632" y2="909.445" stroke-width="0.25" stroke="rgb(0,0,0)" />
	<line x1="313.632" y1="907.969" x2="178.066" y2="809.475" stroke-width="0.25" stroke="rgb(0,0,0)" />
	<line x1="180.098" y1="809.475" x2="313.632" y2="906.493" stroke-width="0.25" stroke="rgb(0,0,0)" />
	<line x1="313.632" y1="905.017" x2="182.13" y2="809.475" stroke-width="0.25" stroke="rgb(0,0,0)" />
	<line x1="184.162" y1="809.475" x2="313.632" y2="903.54" stroke-width="0.25" stroke="rgb(0,0,0)" />
	<line x1="313.632" y1="902.064" x2="186.194" y2="809.475" stroke-width="0.25" stroke="rgb(0,0,0)" />
	<line x1="188.226" y1="809.475" x2="313.632" y2="900.588" stroke-width="0.25" stroke="rgb(0,0,0)" />
	<line x1="313.632" y1="899.112" x2="190.258" y2="809.475" stroke-width="0.25" stroke="rgb(0,0,0)" />
	<line x1="192.289" y1="809.475" x2="313.632" y2="897.635" stroke-width="0.25" stroke="rgb(0,0,0)" />
	<line x1="313.632" y1="896.159" x2="194.321" y2="809.475" stroke-width="0.25" stroke="rgb(0,0,0)" />
	<line x1="196.353" y1="809.475" x2="313.632" y2="894.683" stroke-width="0.25" stroke="rgb(0,0,0)" />
	<line x1="313.632" y1="893.207" x2="198.385" y2="809.475" stroke-width="0.25" stroke="rgb(0,0,0)" />
	<line x1="200.417" y1="809.475" x2="313.632" y2="891.73" stroke-width="0.25" stroke="rgb(0,0,0)" />
	<line x1="313.632" y1="890.254" x2="202.449" y2="809.475" stroke-width="0.25" stroke="rgb(0,0,0)" />
	<line x1="204.481" y1="809.475" x2="313.632" y2="888.778" stroke-width="0.25" stroke="rgb(0,0,0)" />
	<line x1="313.632" y1="887.302" x2="206.513" y2="809.475" stroke-width="0.25" stroke="rgb(0,0,0)" />
	<line x1="208.544" y1="809.475" x2="313.632" y2="885.825" stroke-width="0.25" stroke="rgb(0,0,0)" />
	<line x1="313.632" y1="884.349" x2="210.576" y2="809.475" stroke-width="0.25" stroke="rgb(0,0,0)" />
	<line x1="212.608" y1="809.475" x2="313.632" y2="882.873" stroke-width="0.25" stroke="rgb(0,0,0)" />
	<line x1="313.632" y1="881.397" x2="214.64" y2="809.475" stroke-width="0.25" stroke="rgb(0,0,0)" />
	<line x1="216.672" y1="809.475" x2="313.632" y2="879.92" stroke-width="0.25" stroke="rgb(0,0,0)" />
	<line x1="313.632" y1="878.444" x2="218.704" y2="809.475" stroke-width="0.25" stroke="rgb(0,0,0)" />
	<line x1="220.736" y1="809.475" x2="313.632" y2="876.968" stroke-width="0.25" stroke="rgb(0,0,0)" />
	<line x1="313.632" y1="875.492" x2="222.768" y2="809.475" stroke-width="0.25" stroke="rgb(0,0,0)" />
	<line x1="224.799" y1="809.475" x2="313.632" y2="874.015" stroke-width="0.25" stroke="rgb(0,0,0)" />
	<line x1="313.632" y1="872.539" x2="226.831" y2="809.475" stroke-width="0.25" stroke="rgb(0,0,0)" />
	<line x1="228.863" y1="809.475" x2="313.632" y2="871.063" stroke-width="0.25" stroke="rgb(0,0,0)" />
	<line x1="313.632" y1="869.587" x2="230.895" y2="809.475" stroke-width="0.25" stroke="rgb(0,0,0)" />
	<line x1="232.927" y1="809.475" x2="313.632" y2="868.11" stroke-width="0.25" stroke="rgb(0,0,0)" />
	<line x1="313.632" y1="866.634" x2="234.959" y2="809.475" stroke-width="0.25" stroke="rgb(0,0,0)" />
	<line x1="236.991" y1="809.475" x2="313.632" y2="865.158" stroke-width="0.25" stroke="rgb(0,0,0)" />
	<line x1="313.632" y1="863.682" x2="239.023" y2="809.475" stroke-width="0.25" stroke="rgb(0,0,0)" />
	<line x1="241.055" y1="809.475" x2="313.632" y2="862.205" stroke-width="0.25" stroke="rgb(0,0,0)" />
	<line x1="313.632" y1="860.729" x2="243.086" y2="809.475" stroke-width="0.25" stroke="rgb(0,0,0)" />
	<line x1="245.118" y1="809.475" x2="313.632" y2="859.253" stroke-width="0.25" stroke="rgb(0,0,0)" />
	<line x1="313.632" y1="857.777" x2="247.15" y2="809.475" stroke-width="0.25" stroke="rgb(0,0,0)" />
	<line x1="249.182" y1="809.475" x2="313.632" y2="856.3" stroke-width="0.25" stroke="rgb(0,0,0)" />
	<line x1="313.632" y1="854.824" x2="251.214" y2="809.475" stroke-width="0.25" stroke="rgb(0,0,0)" />
	<line x1="253.246" y1="809.475" x2="313.632" y2="853.348" stroke-width="0.25" stroke="rgb(0,0,0)" />
	<line x1="313.632" y1="851.872" x2="255.278" y2="809.475" stroke-width="0.25" stroke="rgb(0,0,0)" />
	<line x1="257.31" y1="809.475" x2="313.632" y2="850.396" stroke-width="0.25" stroke="rgb(0,0,0)" />
	<line x1="313.632" y1="848.919" x2="259.341" y2="809.475" stroke-width="0.25" stroke="rgb(0,0,0)" />
	<line x1="261.373" y1="809.475" x2="313.632" y2="847.443" stroke-width="0.25" stroke="rgb(0,0,0)" />
	<line x1="313.632" y1="845.967" x2="263.405" y2="809.475" stroke-width="0.25" stroke="rgb(0,0,0)" />
	<line x1="265.437" y1="809.475" x2="313.632" y2="844.491" stroke-width="0.25" stroke="rgb(0,0,0)" />
	<line x1="313.632" y1="843.014" x2="267.469" y2="809.475" stroke-width="0.25" stroke="rgb(0,0,0)" />
	<line x1="269.501" y1="809.475" x2="313.632" y2="841.538" stroke-width="0.25" stroke="rgb(0,0,0)" />
	<line x1="313.632" y1="840.062" x2="271.533" y2="809.475" stroke-width="0.25" stroke="rgb(0,0,0)" />
	<line x1="273.565" y1="809.475" x2="313.632" y2="838.586" stroke-width="0.25" stroke="rgb(0,0,0)" />
	<line x1="313.632" y1="837.109" x2="275.596" y2="809.475" stroke-width="0.25" stroke="rgb(0,0,0)" />
	<line x1="277.628" y1="809.475" x2="313.632" y2="835.633" stroke-width="0.25" stroke="rgb(0,0,0)" />
	<line x1="313.632" y1="834.157" x2="279.66" y2="809.475" stroke-width="0.25" stroke="rgb(0,0,0)" />
	<line x1="281.692" y1="809.475" x2="313.632" y2="832.681" stroke-width="0.25" stroke="rgb(0,0,0)" />
	<line x1="313.632" y1="831.204" x2="283.724" y2="809.475" stroke-width="0.25" stroke="rgb(0,0,0)" />
	<line x1="285.756" y1="809.475" x2="313.632" y2="829.728" stroke-width="0.25" stroke="rgb(0,0,0)" />
	<line x1="313.632" y1="828.252" x2="287.788" y2="809.475" stroke-width="0.25" stroke="rgb(0,0,0)" />
	<line x1="289.82" y1="809.475" x2="313.632" y2="826.776" stroke-width="0.25" stroke="rgb(0,0,0)" />
	<line x1="313.632" y1="825.299" x2="291.852" y2="809.475" stroke-width="0.25" stroke="rgb(0,0,0)" />
	<line x1="293.883" y1="809.475" x2="313.632" y2="823.823" stroke-width="0.25" stroke="rgb(0,0,0)" />
	<line x1="313.632" y1="822.347" x2="295.915" y2="809.475" stroke-width="0.25" stroke="rgb(0,0,0)" />
	<line x1="297.947" y1="809.475" x2="313.632" y2="820.871" stroke-width="0.25" stroke="rgb(0,0,0)" />
	<line x1="313.632" y1="819.394" x2="299.979" y2="809.475" stroke-width="0.25" stroke="rgb(0,0,0)" />
	<line x1="302.011" y1="809.475" x2="313.632" y2="817.918" stroke-width="0.25" stroke="rgb(0,0,0)" />
	<line x1="313.632" y1="816.442" x2="304.043" y2="809.475" stroke-width="0.25" stroke="rgb(0,0,0)" />
	<line x1="306.075" y1="809.475" x2="313.632" y2="814.966" stroke-width="0.25" stroke="rgb(0,0,0)" />
	<line x1="313.632" y1="813.489" x2="308.107" y2="809.475" stroke-width="0.25" stroke="rgb(0,0,0)" />
	<line x1="310.138" y1="809.475" x2="313.632" y2="812.013" stroke-width="0.25" stroke="rgb(0,0,0)" />
	<line x1="313.632" y1="810.537" x2="312.17" y2="809.475" stroke-width="0.25" stroke="rgb(0,0,0)" />
</svg>
