<?xml version="1.0" standalone="no" ?>
<!DOCTYPE svg PUBLIC "-//W3C//DTD SVG 1.1//EN" "http://www.w3.org/Graphics/SVG/1.1/DTD/svg11.dtd">
<svg width="2000px" height="2000px" xmlns="http://www.w3.org/2000/svg" version="1.1" >
	<line x1="348.389" y1="1570.92" x2="150.665" y2="1570.92" stroke-width="0.25" stroke="rgb(0,0,0)" />
	<line x1="150.665" y1="1570.92" x2="150.665" y2="1768.65" stroke-width="0.25" stroke="rgb(0,0,0)" />
	<line x1="150.665" y1="1768.65" x2="348.389" y2="1768.65" stroke-width="0.25" stroke="rgb(0,0,0)" />
	<line x1="348.389" y1="1768.65" x2="348.389" y2="1570.92" stroke-width="0.25" stroke="rgb(0,0,0)" />
	<line x1="215.765" y1="907.342" x2="150.864" y2="907.342" stroke-width="0.25" stroke="rgb(0,0,0)" />
	<line x1="150.864" y1="907.342" x2="150.864" y2="972.243" stroke-width="0.25" stroke="rgb(0,0,0)" />
	<line x1="150.864" y1="972.243" x2="215.765" y2="972.243" stroke-width="0.25" stroke="rgb(0,0,0)" />
	<line x1="215.765" y1="972.243" x2="215.765" y2="907.342" stroke-width="0.25" stroke="rgb(0,0,0)" />
	<line x1="214.903" y1="908.204" x2="151.726" y2="908.204" stroke-width="0.25" stroke="rgb(0,0,0)" />
	<line x1="151.726" y1="908.204" x2="151.726" y2="971.381" stroke-width="0.25" stroke="rgb(0,0,0)" />
	<line x1="151.726" y1="971.381" x2="214.903" y2="971.381" stroke-width="0.25" stroke="rgb(0,0,0)" />
	<line x1="214.903" y1="971.381" x2="214.903" y2="908.204" stroke-width="0.25" stroke="rgb(0,0,0)" />
	<line x1="150.665" y1="1768.65" x2="150.668" y2="1768.65" stroke-width="0.25" stroke="rgb(0,0,0)" />
	<line x1="152.248" y1="1768.65" x2="150.665" y2="1767.5" stroke-width="0.25" stroke="rgb(0,0,0)" />
	<line x1="150.665" y1="1766.35" x2="153.829" y2="1768.65" stroke-width="0.25" stroke="rgb(0,0,0)" />
	<line x1="155.409" y1="1768.65" x2="150.665" y2="1765.2" stroke-width="0.25" stroke="rgb(0,0,0)" />
	<line x1="150.665" y1="1764.05" x2="156.99" y2="1768.65" stroke-width="0.25" stroke="rgb(0,0,0)" />
	<line x1="158.57" y1="1768.65" x2="150.665" y2="1762.9" stroke-width="0.25" stroke="rgb(0,0,0)" />
	<line x1="150.665" y1="1761.76" x2="160.15" y2="1768.65" stroke-width="0.25" stroke="rgb(0,0,0)" />
	<line x1="161.731" y1="1768.65" x2="150.665" y2="1760.61" stroke-width="0.25" stroke="rgb(0,0,0)" />
	<line x1="150.665" y1="1759.46" x2="163.311" y2="1768.65" stroke-width="0.25" stroke="rgb(0,0,0)" />
	<line x1="164.891" y1="1768.65" x2="150.665" y2="1758.31" stroke-width="0.25" stroke="rgb(0,0,0)" />
	<line x1="150.665" y1="1757.16" x2="166.472" y2="1768.65" stroke-width="0.25" stroke="rgb(0,0,0)" />
	<line x1="168.052" y1="1768.65" x2="150.665" y2="1756.02" stroke-width="0.25" stroke="rgb(0,0,0)" />
	<line x1="150.665" y1="1754.87" x2="169.632" y2="1768.65" stroke-width="0.25" stroke="rgb(0,0,0)" />
	<line x1="171.213" y1="1768.65" x2="150.665" y2="1753.72" stroke-width="0.25" stroke="rgb(0,0,0)" />
	<line x1="150.665" y1="1752.57" x2="172.793" y2="1768.65" stroke-width="0.25" stroke="rgb(0,0,0)" />
	<line x1="174.373" y1="1768.65" x2="150.665" y2="1751.42" stroke-width="0.25" stroke="rgb(0,0,0)" />
	<line x1="150.665" y1="1750.27" x2="175.954" y2="1768.65" stroke-width="0.25" stroke="rgb(0,0,0)" />
	<line x1="177.534" y1="1768.65" x2="150.665" y2="1749.13" stroke-width="0.25" stroke="rgb(0,0,0)" />
	<line x1="150.665" y1="1747.98" x2="179.114" y2="1768.65" stroke-width="0.25" stroke="rgb(0,0,0)" />
	<line x1="180.695" y1="1768.65" x2="150.665" y2="1746.83" stroke-width="0.25" stroke="rgb(0,0,0)" />
	<line x1="150.665" y1="1745.68" x2="182.275" y2="1768.65" stroke-width="0.25" stroke="rgb(0,0,0)" />
	<line x1="183.855" y1="1768.65" x2="150.665" y2="1744.53" stroke-width="0.25" stroke="rgb(0,0,0)" />
	<line x1="150.665" y1="1743.39" x2="185.436" y2="1768.65" stroke-width="0.25" stroke="rgb(0,0,0)" />
	<line x1="187.016" y1="1768.65" x2="150.665" y2="1742.24" stroke-width="0.25" stroke="rgb(0,0,0)" />
	<line x1="150.665" y1="1741.09" x2="188.597" y2="1768.65" stroke-width="0.25" stroke="rgb(0,0,0)" />
	<line x1="190.177" y1="1768.65" x2="150.665" y2="1739.94" stroke-width="0.25" stroke="rgb(0,0,0)" />
	<line x1="150.665" y1="1738.79" x2="191.757" y2="1768.65" stroke-width="0.25" stroke="rgb(0,0,0)" />
	<line x1="193.338" y1="1768.65" x2="150.665" y2="1737.64" stroke-width="0.25" stroke="rgb(0,0,0)" />
	<line x1="150.665" y1="1736.5" x2="194.918" y2="1768.65" stroke-width="0.25" stroke="rgb(0,0,0)" />
	<line x1="196.498" y1="1768.65" x2="150.665" y2="1735.35" stroke-width="0.25" stroke="rgb(0,0,0)" />
	<line x1="150.665" y1="1734.2" x2="198.079" y2="1768.65" stroke-width="0.25" stroke="rgb(0,0,0)" />
	<line x1="199.659" y1="1768.65" x2="150.665" y2="1733.05" stroke-width="0.25" stroke="rgb(0,0,0)" />
	<line x1="150.665" y1="1731.9" x2="201.239" y2="1768.65" stroke-width="0.25" stroke="rgb(0,0,0)" />
	<line x1="202.82" y1="1768.65" x2="150.665" y2="1730.76" stroke-width="0.25" stroke="rgb(0,0,0)" />
	<line x1="150.665" y1="1729.61" x2="204.4" y2="1768.65" stroke-width="0.25" stroke="rgb(0,0,0)" />
	<line x1="205.98" y1="1768.65" x2="150.665" y2="1728.46" stroke-width="0.25" stroke="rgb(0,0,0)" />
	<line x1="150.665" y1="1727.31" x2="207.561" y2="1768.65" stroke-width="0.25" stroke="rgb(0,0,0)" />
	<line x1="209.141" y1="1768.65" x2="150.665" y2="1726.16" stroke-width="0.25" stroke="rgb(0,0,0)" />
	<line x1="150.665" y1="1725.01" x2="210.721" y2="1768.65" stroke-width="0.25" stroke="rgb(0,0,0)" />
	<line x1="212.302" y1="1768.65" x2="150.665" y2="1723.87" stroke-width="0.25" stroke="rgb(0,0,0)" />
	<line x1="150.665" y1="1722.72" x2="213.882" y2="1768.65" stroke-width="0.25" stroke="rgb(0,0,0)" />
	<line x1="215.463" y1="1768.65" x2="150.665" y2="1721.57" stroke-width="0.25" stroke="rgb(0,0,0)" />
	<line x1="150.665" y1="1720.42" x2="217.043" y2="1768.65" stroke-width="0.25" stroke="rgb(0,0,0)" />
	<line x1="218.623" y1="1768.65" x2="150.665" y2="1719.27" stroke-width="0.25" stroke="rgb(0,0,0)" />
	<line x1="150.665" y1="1718.13" x2="220.204" y2="1768.65" stroke-width="0.25" stroke="rgb(0,0,0)" />
	<line x1="221.784" y1="1768.65" x2="150.665" y2="1716.98" stroke-width="0.25" stroke="rgb(0,0,0)" />
	<line x1="150.665" y1="1715.83" x2="223.364" y2="1768.65" stroke-width="0.25" stroke="rgb(0,0,0)" />
	<line x1="224.945" y1="1768.65" x2="150.665" y2="1714.68" stroke-width="0.25" stroke="rgb(0,0,0)" />
	<line x1="150.665" y1="1713.53" x2="226.525" y2="1768.65" stroke-width="0.25" stroke="rgb(0,0,0)" />
	<line x1="228.105" y1="1768.65" x2="150.665" y2="1712.38" stroke-width="0.25" stroke="rgb(0,0,0)" />
	<line x1="150.665" y1="1711.24" x2="229.686" y2="1768.65" stroke-width="0.25" stroke="rgb(0,0,0)" />
	<line x1="231.266" y1="1768.65" x2="150.665" y2="1710.09" stroke-width="0.25" stroke="rgb(0,0,0)" />
	<line x1="150.665" y1="1708.94" x2="232.846" y2="1768.65" stroke-width="0.25" stroke="rgb(0,0,0)" />
	<line x1="234.427" y1="1768.65" x2="150.665" y2="1707.79" stroke-width="0.25" stroke="rgb(0,0,0)" />
	<line x1="150.665" y1="1706.64" x2="236.007" y2="1768.65" stroke-width="0.25" stroke="rgb(0,0,0)" />
	<line x1="237.587" y1="1768.65" x2="150.665" y2="1705.5" stroke-width="0.25" stroke="rgb(0,0,0)" />
	<line x1="150.665" y1="1704.35" x2="239.168" y2="1768.65" stroke-width="0.25" stroke="rgb(0,0,0)" />
	<line x1="240.748" y1="1768.65" x2="150.665" y2="1703.2" stroke-width="0.25" stroke="rgb(0,0,0)" />
	<line x1="150.665" y1="1702.05" x2="242.328" y2="1768.65" stroke-width="0.25" stroke="rgb(0,0,0)" />
	<line x1="243.909" y1="1768.65" x2="150.665" y2="1700.9" stroke-width="0.25" stroke="rgb(0,0,0)" />
	<line x1="150.665" y1="1699.75" x2="245.489" y2="1768.65" stroke-width="0.25" stroke="rgb(0,0,0)" />
	<line x1="247.07" y1="1768.65" x2="150.665" y2="1698.61" stroke-width="0.25" stroke="rgb(0,0,0)" />
	<line x1="150.665" y1="1697.46" x2="248.65" y2="1768.65" stroke-width="0.25" stroke="rgb(0,0,0)" />
	<line x1="250.23" y1="1768.65" x2="150.665" y2="1696.31" stroke-width="0.25" stroke="rgb(0,0,0)" />
	<line x1="150.665" y1="1695.16" x2="251.811" y2="1768.65" stroke-width="0.25" stroke="rgb(0,0,0)" />
	<line x1="253.391" y1="1768.65" x2="150.665" y2="1694.01" stroke-width="0.25" stroke="rgb(0,0,0)" />
	<line x1="150.665" y1="1692.87" x2="254.971" y2="1768.65" stroke-width="0.25" stroke="rgb(0,0,0)" />
	<line x1="256.552" y1="1768.65" x2="150.665" y2="1691.72" stroke-width="0.25" stroke="rgb(0,0,0)" />
	<line x1="150.665" y1="1690.57" x2="258.132" y2="1768.65" stroke-width="0.25" stroke="rgb(0,0,0)" />
	<line x1="259.712" y1="1768.65" x2="150.665" y2="1689.42" stroke-width="0.25" stroke="rgb(0,0,0)" />
	<line x1="150.665" y1="1688.27" x2="261.293" y2="1768.65" stroke-width="0.25" stroke="rgb(0,0,0)" />
	<line x1="262.873" y1="1768.65" x2="150.665" y2="1687.12" stroke-width="0.25" stroke="rgb(0,0,0)" />
	<line x1="150.665" y1="1685.98" x2="264.453" y2="1768.65" stroke-width="0.25" stroke="rgb(0,0,0)" />
	<line x1="266.034" y1="1768.65" x2="150.665" y2="1684.83" stroke-width="0.25" stroke="rgb(0,0,0)" />
	<line x1="150.665" y1="1683.68" x2="267.614" y2="1768.65" stroke-width="0.25" stroke="rgb(0,0,0)" />
	<line x1="269.194" y1="1768.65" x2="150.665" y2="1682.53" stroke-width="0.25" stroke="rgb(0,0,0)" />
	<line x1="150.665" y1="1681.38" x2="270.775" y2="1768.65" stroke-width="0.25" stroke="rgb(0,0,0)" />
	<line x1="272.355" y1="1768.65" x2="150.665" y2="1680.24" stroke-width="0.25" stroke="rgb(0,0,0)" />
	<line x1="150.665" y1="1679.09" x2="273.935" y2="1768.65" stroke-width="0.25" stroke="rgb(0,0,0)" />
	<line x1="275.516" y1="1768.65" x2="150.665" y2="1677.94" stroke-width="0.25" stroke="rgb(0,0,0)" />
	<line x1="150.665" y1="1676.79" x2="277.096" y2="1768.65" stroke-width="0.25" stroke="rgb(0,0,0)" />
	<line x1="278.677" y1="1768.65" x2="150.665" y2="1675.64" stroke-width="0.25" stroke="rgb(0,0,0)" />
	<line x1="150.665" y1="1674.49" x2="280.257" y2="1768.65" stroke-width="0.25" stroke="rgb(0,0,0)" />
	<line x1="281.837" y1="1768.65" x2="150.665" y2="1673.35" stroke-width="0.25" stroke="rgb(0,0,0)" />
	<line x1="150.665" y1="1672.2" x2="283.418" y2="1768.65" stroke-width="0.25" stroke="rgb(0,0,0)" />
	<line x1="284.998" y1="1768.65" x2="150.665" y2="1671.05" stroke-width="0.25" stroke="rgb(0,0,0)" />
	<line x1="150.665" y1="1669.9" x2="286.578" y2="1768.65" stroke-width="0.25" stroke="rgb(0,0,0)" />
	<line x1="288.159" y1="1768.65" x2="150.665" y2="1668.75" stroke-width="0.25" stroke="rgb(0,0,0)" />
	<line x1="150.665" y1="1667.6" x2="289.739" y2="1768.65" stroke-width="0.25" stroke="rgb(0,0,0)" />
	<line x1="291.319" y1="1768.65" x2="150.665" y2="1666.46" stroke-width="0.25" stroke="rgb(0,0,0)" />
	<line x1="150.665" y1="1665.31" x2="292.9" y2="1768.65" stroke-width="0.25" stroke="rgb(0,0,0)" />
	<line x1="294.48" y1="1768.65" x2="150.665" y2="1664.16" stroke-width="0.25" stroke="rgb(0,0,0)" />
	<line x1="150.665" y1="1663.01" x2="296.06" y2="1768.65" stroke-width="0.25" stroke="rgb(0,0,0)" />
	<line x1="297.641" y1="1768.65" x2="150.665" y2="1661.86" stroke-width="0.25" stroke="rgb(0,0,0)" />
	<line x1="150.665" y1="1660.72" x2="299.221" y2="1768.65" stroke-width="0.25" stroke="rgb(0,0,0)" />
	<line x1="300.801" y1="1768.65" x2="150.665" y2="1659.57" stroke-width="0.25" stroke="rgb(0,0,0)" />
	<line x1="150.665" y1="1658.42" x2="302.382" y2="1768.65" stroke-width="0.25" stroke="rgb(0,0,0)" />
	<line x1="303.962" y1="1768.65" x2="150.665" y2="1657.27" stroke-width="0.25" stroke="rgb(0,0,0)" />
	<line x1="150.665" y1="1656.12" x2="305.543" y2="1768.65" stroke-width="0.25" stroke="rgb(0,0,0)" />
	<line x1="307.123" y1="1768.65" x2="150.665" y2="1654.97" stroke-width="0.25" stroke="rgb(0,0,0)" />
	<line x1="150.665" y1="1653.83" x2="308.703" y2="1768.65" stroke-width="0.25" stroke="rgb(0,0,0)" />
	<line x1="310.284" y1="1768.65" x2="150.665" y2="1652.68" stroke-width="0.25" stroke="rgb(0,0,0)" />
	<line x1="150.665" y1="1651.53" x2="311.864" y2="1768.65" stroke-width="0.25" stroke="rgb(0,0,0)" />
	<line x1="313.444" y1="1768.65" x2="150.665" y2="1650.38" stroke-width="0.25" stroke="rgb(0,0,0)" />
	<line x1="150.665" y1="1649.23" x2="315.025" y2="1768.65" stroke-width="0.25" stroke="rgb(0,0,0)" />
	<line x1="316.605" y1="1768.65" x2="150.665" y2="1648.09" stroke-width="0.25" stroke="rgb(0,0,0)" />
	<line x1="150.665" y1="1646.94" x2="318.185" y2="1768.65" stroke-width="0.25" stroke="rgb(0,0,0)" />
	<line x1="319.766" y1="1768.65" x2="150.665" y2="1645.79" stroke-width="0.25" stroke="rgb(0,0,0)" />
	<line x1="150.665" y1="1644.64" x2="321.346" y2="1768.65" stroke-width="0.25" stroke="rgb(0,0,0)" />
	<line x1="322.926" y1="1768.65" x2="150.665" y2="1643.49" stroke-width="0.25" stroke="rgb(0,0,0)" />
	<line x1="150.665" y1="1642.34" x2="324.507" y2="1768.65" stroke-width="0.25" stroke="rgb(0,0,0)" />
	<line x1="326.087" y1="1768.65" x2="150.665" y2="1641.2" stroke-width="0.25" stroke="rgb(0,0,0)" />
	<line x1="150.665" y1="1640.05" x2="327.667" y2="1768.65" stroke-width="0.25" stroke="rgb(0,0,0)" />
	<line x1="329.248" y1="1768.65" x2="150.665" y2="1638.9" stroke-width="0.25" stroke="rgb(0,0,0)" />
	<line x1="150.665" y1="1637.75" x2="330.828" y2="1768.65" stroke-width="0.25" stroke="rgb(0,0,0)" />
	<line x1="332.408" y1="1768.65" x2="150.665" y2="1636.6" stroke-width="0.25" stroke="rgb(0,0,0)" />
	<line x1="150.665" y1="1635.46" x2="333.989" y2="1768.65" stroke-width="0.25" stroke="rgb(0,0,0)" />
	<line x1="335.569" y1="1768.65" x2="150.665" y2="1634.31" stroke-width="0.25" stroke="rgb(0,0,0)" />
	<line x1="150.665" y1="1633.16" x2="337.15" y2="1768.65" stroke-width="0.25" stroke="rgb(0,0,0)" />
	<line x1="338.73" y1="1768.65" x2="150.665" y2="1632.01" stroke-width="0.25" stroke="rgb(0,0,0)" />
	<line x1="150.665" y1="1630.86" x2="340.31" y2="1768.65" stroke-width="0.25" stroke="rgb(0,0,0)" />
	<line x1="341.891" y1="1768.65" x2="150.665" y2="1629.71" stroke-width="0.25" stroke="rgb(0,0,0)" />
	<line x1="150.665" y1="1628.57" x2="343.471" y2="1768.65" stroke-width="0.25" stroke="rgb(0,0,0)" />
	<line x1="345.051" y1="1768.65" x2="150.665" y2="1627.42" stroke-width="0.25" stroke="rgb(0,0,0)" />
	<line x1="150.665" y1="1626.27" x2="346.632" y2="1768.65" stroke-width="0.25" stroke="rgb(0,0,0)" />
	<line x1="348.212" y1="1768.65" x2="150.665" y2="1625.12" stroke-width="0.25" stroke="rgb(0,0,0)" />
	<line x1="150.665" y1="1623.97" x2="348.389" y2="1767.63" stroke-width="0.25" stroke="rgb(0,0,0)" />
	<line x1="348.389" y1="1766.48" x2="150.665" y2="1622.83" stroke-width="0.25" stroke="rgb(0,0,0)" />
	<line x1="150.665" y1="1621.68" x2="348.389" y2="1765.33" stroke-width="0.25" stroke="rgb(0,0,0)" />
	<line x1="348.389" y1="1764.18" x2="150.665" y2="1620.53" stroke-width="0.25" stroke="rgb(0,0,0)" />
	<line x1="150.665" y1="1619.38" x2="348.389" y2="1763.04" stroke-width="0.25" stroke="rgb(0,0,0)" />
	<line x1="348.389" y1="1761.89" x2="150.665" y2="1618.23" stroke-width="0.25" stroke="rgb(0,0,0)" />
	<line x1="150.665" y1="1617.08" x2="348.389" y2="1760.74" stroke-width="0.25" stroke="rgb(0,0,0)" />
	<line x1="348.389" y1="1759.59" x2="150.665" y2="1615.94" stroke-width="0.25" stroke="rgb(0,0,0)" />
	<line x1="150.665" y1="1614.79" x2="348.389" y2="1758.44" stroke-width="0.25" stroke="rgb(0,0,0)" />
	<line x1="348.389" y1="1757.3" x2="150.665" y2="1613.64" stroke-width="0.25" stroke="rgb(0,0,0)" />
	<line x1="150.665" y1="1612.49" x2="348.389" y2="1756.15" stroke-width="0.25" stroke="rgb(0,0,0)" />
	<line x1="348.389" y1="1755" x2="150.665" y2="1611.34" stroke-width="0.25" stroke="rgb(0,0,0)" />
	<line x1="150.665" y1="1610.2" x2="348.389" y2="1753.85" stroke-width="0.25" stroke="rgb(0,0,0)" />
	<line x1="348.389" y1="1752.7" x2="150.665" y2="1609.05" stroke-width="0.25" stroke="rgb(0,0,0)" />
	<line x1="150.665" y1="1607.9" x2="348.389" y2="1751.55" stroke-width="0.25" stroke="rgb(0,0,0)" />
	<line x1="348.389" y1="1750.41" x2="150.665" y2="1606.75" stroke-width="0.25" stroke="rgb(0,0,0)" />
	<line x1="150.665" y1="1605.6" x2="348.389" y2="1749.26" stroke-width="0.25" stroke="rgb(0,0,0)" />
	<line x1="348.389" y1="1748.11" x2="150.665" y2="1604.45" stroke-width="0.25" stroke="rgb(0,0,0)" />
	<line x1="150.665" y1="1603.31" x2="348.389" y2="1746.96" stroke-width="0.25" stroke="rgb(0,0,0)" />
	<line x1="348.389" y1="1745.81" x2="150.665" y2="1602.16" stroke-width="0.25" stroke="rgb(0,0,0)" />
	<line x1="150.665" y1="1601.01" x2="348.389" y2="1744.67" stroke-width="0.25" stroke="rgb(0,0,0)" />
	<line x1="348.389" y1="1743.52" x2="150.665" y2="1599.86" stroke-width="0.25" stroke="rgb(0,0,0)" />
	<line x1="150.665" y1="1598.71" x2="348.389" y2="1742.37" stroke-width="0.25" stroke="rgb(0,0,0)" />
	<line x1="348.389" y1="1741.22" x2="150.665" y2="1597.57" stroke-width="0.25" stroke="rgb(0,0,0)" />
	<line x1="150.665" y1="1596.42" x2="348.389" y2="1740.07" stroke-width="0.25" stroke="rgb(0,0,0)" />
	<line x1="348.389" y1="1738.92" x2="150.665" y2="1595.27" stroke-width="0.25" stroke="rgb(0,0,0)" />
	<line x1="150.665" y1="1594.12" x2="348.389" y2="1737.78" stroke-width="0.25" stroke="rgb(0,0,0)" />
	<line x1="348.389" y1="1736.63" x2="150.665" y2="1592.97" stroke-width="0.25" stroke="rgb(0,0,0)" />
	<line x1="150.665" y1="1591.82" x2="348.389" y2="1735.48" stroke-width="0.25" stroke="rgb(0,0,0)" />
	<line x1="348.389" y1="1734.33" x2="150.665" y2="1590.68" stroke-width="0.25" stroke="rgb(0,0,0)" />
	<line x1="150.665" y1="1589.53" x2="348.389" y2="1733.18" stroke-width="0.25" stroke="rgb(0,0,0)" />
	<line x1="348.389" y1="1732.03" x2="150.665" y2="1588.38" stroke-width="0.25" stroke="rgb(0,0,0)" />
	<line x1="150.665" y1="1587.23" x2="348.389" y2="1730.89" stroke-width="0.25" stroke="rgb(0,0,0)" />
	<line x1="348.389" y1="1729.74" x2="150.665" y2="1586.08" stroke-width="0.25" stroke="rgb(0,0,0)" />
	<line x1="150.665" y1="1584.94" x2="348.389" y2="1728.59" stroke-width="0.25" stroke="rgb(0,0,0)" />
	<line x1="348.389" y1="1727.44" x2="150.665" y2="1583.79" stroke-width="0.25" stroke="rgb(0,0,0)" />
	<line x1="150.665" y1="1582.64" x2="348.389" y2="1726.29" stroke-width="0.25" stroke="rgb(0,0,0)" />
	<line x1="348.389" y1="1725.15" x2="150.665" y2="1581.49" stroke-width="0.25" stroke="rgb(0,0,0)" />
	<line x1="150.665" y1="1580.34" x2="348.389" y2="1724" stroke-width="0.25" stroke="rgb(0,0,0)" />
	<line x1="348.389" y1="1722.85" x2="150.665" y2="1579.19" stroke-width="0.25" stroke="rgb(0,0,0)" />
	<line x1="150.665" y1="1578.05" x2="348.389" y2="1721.7" stroke-width="0.25" stroke="rgb(0,0,0)" />
	<line x1="348.389" y1="1720.55" x2="150.665" y2="1576.9" stroke-width="0.25" stroke="rgb(0,0,0)" />
	<line x1="150.665" y1="1575.75" x2="348.389" y2="1719.4" stroke-width="0.25" stroke="rgb(0,0,0)" />
	<line x1="348.389" y1="1718.26" x2="150.665" y2="1574.6" stroke-width="0.25" stroke="rgb(0,0,0)" />
	<line x1="150.665" y1="1573.45" x2="348.389" y2="1717.11" stroke-width="0.25" stroke="rgb(0,0,0)" />
	<line x1="348.389" y1="1715.96" x2="150.665" y2="1572.31" stroke-width="0.25" stroke="rgb(0,0,0)" />
	<line x1="150.665" y1="1571.16" x2="348.389" y2="1714.81" stroke-width="0.25" stroke="rgb(0,0,0)" />
	<line x1="348.389" y1="1713.66" x2="151.924" y2="1570.92" stroke-width="0.25" stroke="rgb(0,0,0)" />
	<line x1="153.505" y1="1570.92" x2="348.389" y2="1712.52" stroke-width="0.25" stroke="rgb(0,0,0)" />
	<line x1="348.389" y1="1711.37" x2="155.085" y2="1570.92" stroke-width="0.25" stroke="rgb(0,0,0)" />
	<line x1="156.665" y1="1570.92" x2="348.389" y2="1710.22" stroke-width="0.25" stroke="rgb(0,0,0)" />
	<line x1="348.389" y1="1709.07" x2="158.246" y2="1570.92" stroke-width="0.25" stroke="rgb(0,0,0)" />
	<line x1="159.826" y1="1570.92" x2="348.389" y2="1707.92" stroke-width="0.25" stroke="rgb(0,0,0)" />
	<line x1="348.389" y1="1706.77" x2="161.407" y2="1570.92" stroke-width="0.25" stroke="rgb(0,0,0)" />
	<line x1="162.987" y1="1570.92" x2="348.389" y2="1705.63" stroke-width="0.25" stroke="rgb(0,0,0)" />
	<line x1="348.389" y1="1704.48" x2="164.567" y2="1570.92" stroke-width="0.25" stroke="rgb(0,0,0)" />
	<line x1="166.148" y1="1570.92" x2="348.389" y2="1703.33" stroke-width="0.25" stroke="rgb(0,0,0)" />
	<line x1="348.389" y1="1702.18" x2="167.728" y2="1570.92" stroke-width="0.25" stroke="rgb(0,0,0)" />
	<line x1="169.308" y1="1570.92" x2="348.389" y2="1701.03" stroke-width="0.25" stroke="rgb(0,0,0)" />
	<line x1="348.389" y1="1699.89" x2="170.889" y2="1570.92" stroke-width="0.25" stroke="rgb(0,0,0)" />
	<line x1="172.469" y1="1570.92" x2="348.389" y2="1698.74" stroke-width="0.25" stroke="rgb(0,0,0)" />
	<line x1="348.389" y1="1697.59" x2="174.049" y2="1570.92" stroke-width="0.25" stroke="rgb(0,0,0)" />
	<line x1="175.63" y1="1570.92" x2="348.389" y2="1696.44" stroke-width="0.25" stroke="rgb(0,0,0)" />
	<line x1="348.389" y1="1695.29" x2="177.21" y2="1570.92" stroke-width="0.25" stroke="rgb(0,0,0)" />
	<line x1="178.79" y1="1570.92" x2="348.389" y2="1694.14" stroke-width="0.25" stroke="rgb(0,0,0)" />
	<line x1="348.389" y1="1693" x2="180.371" y2="1570.92" stroke-width="0.25" stroke="rgb(0,0,0)" />
	<line x1="181.951" y1="1570.92" x2="348.389" y2="1691.85" stroke-width="0.25" stroke="rgb(0,0,0)" />
	<line x1="348.389" y1="1690.7" x2="183.531" y2="1570.92" stroke-width="0.25" stroke="rgb(0,0,0)" />
	<line x1="185.112" y1="1570.92" x2="348.389" y2="1689.55" stroke-width="0.25" stroke="rgb(0,0,0)" />
	<line x1="348.389" y1="1688.4" x2="186.692" y2="1570.92" stroke-width="0.25" stroke="rgb(0,0,0)" />
	<line x1="188.272" y1="1570.92" x2="348.389" y2="1687.26" stroke-width="0.25" stroke="rgb(0,0,0)" />
	<line x1="348.389" y1="1686.11" x2="189.853" y2="1570.92" stroke-width="0.25" stroke="rgb(0,0,0)" />
	<line x1="191.433" y1="1570.92" x2="348.389" y2="1684.96" stroke-width="0.25" stroke="rgb(0,0,0)" />
	<line x1="348.389" y1="1683.81" x2="193.014" y2="1570.92" stroke-width="0.25" stroke="rgb(0,0,0)" />
	<line x1="194.594" y1="1570.92" x2="348.389" y2="1682.66" stroke-width="0.25" stroke="rgb(0,0,0)" />
	<line x1="348.389" y1="1681.51" x2="196.174" y2="1570.92" stroke-width="0.25" stroke="rgb(0,0,0)" />
	<line x1="197.755" y1="1570.92" x2="348.389" y2="1680.37" stroke-width="0.25" stroke="rgb(0,0,0)" />
	<line x1="348.389" y1="1679.22" x2="199.335" y2="1570.92" stroke-width="0.25" stroke="rgb(0,0,0)" />
	<line x1="200.915" y1="1570.92" x2="348.389" y2="1678.07" stroke-width="0.25" stroke="rgb(0,0,0)" />
	<line x1="348.389" y1="1676.92" x2="202.496" y2="1570.92" stroke-width="0.25" stroke="rgb(0,0,0)" />
	<line x1="204.076" y1="1570.92" x2="348.389" y2="1675.77" stroke-width="0.25" stroke="rgb(0,0,0)" />
	<line x1="348.389" y1="1674.63" x2="205.656" y2="1570.92" stroke-width="0.25" stroke="rgb(0,0,0)" />
	<line x1="207.237" y1="1570.92" x2="348.389" y2="1673.48" stroke-width="0.25" stroke="rgb(0,0,0)" />
	<line x1="348.389" y1="1672.33" x2="208.817" y2="1570.92" stroke-width="0.25" stroke="rgb(0,0,0)" />
	<line x1="210.397" y1="1570.92" x2="348.389" y2="1671.18" stroke-width="0.25" stroke="rgb(0,0,0)" />
	<line x1="348.389" y1="1670.03" x2="211.978" y2="1570.92" stroke-width="0.25" stroke="rgb(0,0,0)" />
	<line x1="213.558" y1="1570.92" x2="348.389" y2="1668.88" stroke-width="0.25" stroke="rgb(0,0,0)" />
	<line x1="348.389" y1="1667.74" x2="215.138" y2="1570.92" stroke-width="0.25" stroke="rgb(0,0,0)" />
	<line x1="216.719" y1="1570.92" x2="348.389" y2="1666.59" stroke-width="0.25" stroke="rgb(0,0,0)" />
	<line x1="348.389" y1="1665.44" x2="218.299" y2="1570.92" stroke-width="0.25" stroke="rgb(0,0,0)" />
	<line x1="219.88" y1="1570.92" x2="348.389" y2="1664.29" stroke-width="0.25" stroke="rgb(0,0,0)" />
	<line x1="348.389" y1="1663.14" x2="221.46" y2="1570.92" stroke-width="0.25" stroke="rgb(0,0,0)" />
	<line x1="223.04" y1="1570.92" x2="348.389" y2="1662" stroke-width="0.25" stroke="rgb(0,0,0)" />
	<line x1="348.389" y1="1660.85" x2="224.621" y2="1570.92" stroke-width="0.25" stroke="rgb(0,0,0)" />
	<line x1="226.201" y1="1570.92" x2="348.389" y2="1659.7" stroke-width="0.25" stroke="rgb(0,0,0)" />
	<line x1="348.389" y1="1658.55" x2="227.781" y2="1570.92" stroke-width="0.25" stroke="rgb(0,0,0)" />
	<line x1="229.362" y1="1570.92" x2="348.389" y2="1657.4" stroke-width="0.25" stroke="rgb(0,0,0)" />
	<line x1="348.389" y1="1656.25" x2="230.942" y2="1570.92" stroke-width="0.25" stroke="rgb(0,0,0)" />
	<line x1="232.522" y1="1570.92" x2="348.389" y2="1655.11" stroke-width="0.25" stroke="rgb(0,0,0)" />
	<line x1="348.389" y1="1653.96" x2="234.103" y2="1570.92" stroke-width="0.25" stroke="rgb(0,0,0)" />
	<line x1="235.683" y1="1570.92" x2="348.389" y2="1652.81" stroke-width="0.25" stroke="rgb(0,0,0)" />
	<line x1="348.389" y1="1651.66" x2="237.263" y2="1570.92" stroke-width="0.25" stroke="rgb(0,0,0)" />
	<line x1="238.844" y1="1570.92" x2="348.389" y2="1650.51" stroke-width="0.25" stroke="rgb(0,0,0)" />
	<line x1="348.389" y1="1649.37" x2="240.424" y2="1570.92" stroke-width="0.25" stroke="rgb(0,0,0)" />
	<line x1="242.004" y1="1570.92" x2="348.389" y2="1648.22" stroke-width="0.25" stroke="rgb(0,0,0)" />
	<line x1="348.389" y1="1647.07" x2="243.585" y2="1570.92" stroke-width="0.25" stroke="rgb(0,0,0)" />
	<line x1="245.165" y1="1570.92" x2="348.389" y2="1645.92" stroke-width="0.25" stroke="rgb(0,0,0)" />
	<line x1="348.389" y1="1644.77" x2="246.745" y2="1570.92" stroke-width="0.25" stroke="rgb(0,0,0)" />
	<line x1="248.326" y1="1570.92" x2="348.389" y2="1643.62" stroke-width="0.25" stroke="rgb(0,0,0)" />
	<line x1="348.389" y1="1642.48" x2="249.906" y2="1570.92" stroke-width="0.25" stroke="rgb(0,0,0)" />
	<line x1="251.487" y1="1570.92" x2="348.389" y2="1641.33" stroke-width="0.25" stroke="rgb(0,0,0)" />
	<line x1="348.389" y1="1640.18" x2="253.067" y2="1570.92" stroke-width="0.25" stroke="rgb(0,0,0)" />
	<line x1="254.647" y1="1570.92" x2="348.389" y2="1639.03" stroke-width="0.25" stroke="rgb(0,0,0)" />
	<line x1="348.389" y1="1637.88" x2="256.228" y2="1570.92" stroke-width="0.25" stroke="rgb(0,0,0)" />
	<line x1="257.808" y1="1570.92" x2="348.389" y2="1636.73" stroke-width="0.25" stroke="rgb(0,0,0)" />
	<line x1="348.389" y1="1635.59" x2="259.388" y2="1570.92" stroke-width="0.25" stroke="rgb(0,0,0)" />
	<line x1="260.969" y1="1570.92" x2="348.389" y2="1634.44" stroke-width="0.25" stroke="rgb(0,0,0)" />
	<line x1="348.389" y1="1633.29" x2="262.549" y2="1570.92" stroke-width="0.25" stroke="rgb(0,0,0)" />
	<line x1="264.129" y1="1570.92" x2="348.389" y2="1632.14" stroke-width="0.25" stroke="rgb(0,0,0)" />
	<line x1="348.389" y1="1630.99" x2="265.71" y2="1570.92" stroke-width="0.25" stroke="rgb(0,0,0)" />
	<line x1="267.29" y1="1570.92" x2="348.389" y2="1629.85" stroke-width="0.25" stroke="rgb(0,0,0)" />
	<line x1="348.389" y1="1628.7" x2="268.87" y2="1570.92" stroke-width="0.25" stroke="rgb(0,0,0)" />
	<line x1="270.451" y1="1570.92" x2="348.389" y2="1627.55" stroke-width="0.25" stroke="rgb(0,0,0)" />
	<line x1="348.389" y1="1626.4" x2="272.031" y2="1570.92" stroke-width="0.25" stroke="rgb(0,0,0)" />
	<line x1="273.611" y1="1570.92" x2="348.389" y2="1625.25" stroke-width="0.25" stroke="rgb(0,0,0)" />
	<line x1="348.389" y1="1624.1" x2="275.192" y2="1570.92" stroke-width="0.25" stroke="rgb(0,0,0)" />
	<line x1="276.772" y1="1570.92" x2="348.389" y2="1622.96" stroke-width="0.25" stroke="rgb(0,0,0)" />
	<line x1="348.389" y1="1621.81" x2="278.352" y2="1570.92" stroke-width="0.25" stroke="rgb(0,0,0)" />
	<line x1="279.933" y1="1570.92" x2="348.389" y2="1620.66" stroke-width="0.25" stroke="rgb(0,0,0)" />
	<line x1="348.389" y1="1619.51" x2="281.513" y2="1570.92" stroke-width="0.25" stroke="rgb(0,0,0)" />
	<line x1="283.094" y1="1570.92" x2="348.389" y2="1618.36" stroke-width="0.25" stroke="rgb(0,0,0)" />
	<line x1="348.389" y1="1617.22" x2="284.674" y2="1570.92" stroke-width="0.25" stroke="rgb(0,0,0)" />
	<line x1="286.254" y1="1570.92" x2="348.389" y2="1616.07" stroke-width="0.25" stroke="rgb(0,0,0)" />
	<line x1="348.389" y1="1614.92" x2="287.835" y2="1570.92" stroke-width="0.25" stroke="rgb(0,0,0)" />
	<line x1="289.415" y1="1570.92" x2="348.389" y2="1613.77" stroke-width="0.25" stroke="rgb(0,0,0)" />
	<line x1="348.389" y1="1612.62" x2="290.995" y2="1570.92" stroke-width="0.25" stroke="rgb(0,0,0)" />
	<line x1="292.576" y1="1570.92" x2="348.389" y2="1611.47" stroke-width="0.25" stroke="rgb(0,0,0)" />
	<line x1="348.389" y1="1610.33" x2="294.156" y2="1570.92" stroke-width="0.25" stroke="rgb(0,0,0)" />
	<line x1="295.736" y1="1570.92" x2="348.389" y2="1609.18" stroke-width="0.25" stroke="rgb(0,0,0)" />
	<line x1="348.389" y1="1608.03" x2="297.317" y2="1570.92" stroke-width="0.25" stroke="rgb(0,0,0)" />
	<line x1="298.897" y1="1570.92" x2="348.389" y2="1606.88" stroke-width="0.25" stroke="rgb(0,0,0)" />
	<line x1="348.389" y1="1605.73" x2="300.477" y2="1570.92" stroke-width="0.25" stroke="rgb(0,0,0)" />
	<line x1="302.058" y1="1570.92" x2="348.389" y2="1604.59" stroke-width="0.25" stroke="rgb(0,0,0)" />
	<line x1="348.389" y1="1603.44" x2="303.638" y2="1570.92" stroke-width="0.25" stroke="rgb(0,0,0)" />
	<line x1="305.218" y1="1570.92" x2="348.389" y2="1602.29" stroke-width="0.25" stroke="rgb(0,0,0)" />
	<line x1="348.389" y1="1601.14" x2="306.799" y2="1570.92" stroke-width="0.25" stroke="rgb(0,0,0)" />
	<line x1="308.379" y1="1570.92" x2="348.389" y2="1599.99" stroke-width="0.25" stroke="rgb(0,0,0)" />
	<line x1="348.389" y1="1598.84" x2="309.96" y2="1570.92" stroke-width="0.25" stroke="rgb(0,0,0)" />
	<line x1="311.54" y1="1570.92" x2="348.389" y2="1597.7" stroke-width="0.25" stroke="rgb(0,0,0)" />
	<line x1="348.389" y1="1596.55" x2="313.12" y2="1570.92" stroke-width="0.25" stroke="rgb(0,0,0)" />
	<line x1="314.701" y1="1570.92" x2="348.389" y2="1595.4" stroke-width="0.25" stroke="rgb(0,0,0)" />
	<line x1="348.389" y1="1594.25" x2="316.281" y2="1570.92" stroke-width="0.25" stroke="rgb(0,0,0)" />
	<line x1="317.861" y1="1570.92" x2="348.389" y2="1593.1" stroke-width="0.25" stroke="rgb(0,0,0)" />
	<line x1="348.389" y1="1591.96" x2="319.442" y2="1570.92" stroke-width="0.25" stroke="rgb(0,0,0)" />
	<line x1="321.022" y1="1570.92" x2="348.389" y2="1590.81" stroke-width="0.25" stroke="rgb(0,0,0)" />
	<line x1="348.389" y1="1589.66" x2="322.602" y2="1570.92" stroke-width="0.25" stroke="rgb(0,0,0)" />
	<line x1="324.183" y1="1570.92" x2="348.389" y2="1588.51" stroke-width="0.25" stroke="rgb(0,0,0)" />
	<line x1="348.389" y1="1587.36" x2="325.763" y2="1570.92" stroke-width="0.25" stroke="rgb(0,0,0)" />
	<line x1="327.343" y1="1570.92" x2="348.389" y2="1586.21" stroke-width="0.25" stroke="rgb(0,0,0)" />
	<line x1="348.389" y1="1585.07" x2="328.924" y2="1570.92" stroke-width="0.25" stroke="rgb(0,0,0)" />
	<line x1="330.504" y1="1570.92" x2="348.389" y2="1583.92" stroke-width="0.25" stroke="rgb(0,0,0)" />
	<line x1="348.389" y1="1582.77" x2="332.084" y2="1570.92" stroke-width="0.25" stroke="rgb(0,0,0)" />
	<line x1="333.665" y1="1570.92" x2="348.389" y2="1581.62" stroke-width="0.25" stroke="rgb(0,0,0)" />
	<line x1="348.389" y1="1580.47" x2="335.245" y2="1570.92" stroke-width="0.25" stroke="rgb(0,0,0)" />
	<line x1="336.825" y1="1570.92" x2="348.389" y2="1579.33" stroke-width="0.25" stroke="rgb(0,0,0)" />
	<line x1="348.389" y1="1578.18" x2="338.406" y2="1570.92" stroke-width="0.25" stroke="rgb(0,0,0)" />
	<line x1="339.986" y1="1570.92" x2="348.389" y2="1577.03" stroke-width="0.25" stroke="rgb(0,0,0)" />
	<line x1="348.389" y1="1575.88" x2="341.567" y2="1570.92" stroke-width="0.25" stroke="rgb(0,0,0)" />
	<line x1="343.147" y1="1570.92" x2="348.389" y2="1574.73" stroke-width="0.25" stroke="rgb(0,0,0)" />
	<line x1="348.389" y1="1573.58" x2="344.727" y2="1570.92" stroke-width="0.25" stroke="rgb(0,0,0)" />
	<line x1="346.308" y1="1570.92" x2="348.389" y2="1572.44" stroke-width="0.25" stroke="rgb(0,0,0)" />
	<line x1="348.389" y1="1571.29" x2="347.888" y2="1570.92" stroke-width="0.25" stroke="rgb(0,0,0)" />
	<line x1="152.522" y1="969.542" x2="153.958" y2="970.585" stroke-width="0.25" stroke="rgb(0,0,0)" />
	<line x1="155.99" y1="970.585" x2="152.522" y2="968.065" stroke-width="0.25" stroke="rgb(0,0,0)" />
	<line x1="152.522" y1="966.589" x2="158.022" y2="970.585" stroke-width="0.25" stroke="rgb(0,0,0)" />
	<line x1="160.054" y1="970.585" x2="152.522" y2="965.113" stroke-width="0.25" stroke="rgb(0,0,0)" />
	<line x1="152.522" y1="963.637" x2="162.085" y2="970.585" stroke-width="0.25" stroke="rgb(0,0,0)" />
	<line x1="164.117" y1="970.585" x2="152.522" y2="962.16" stroke-width="0.25" stroke="rgb(0,0,0)" />
	<line x1="152.522" y1="960.684" x2="166.149" y2="970.585" stroke-width="0.25" stroke="rgb(0,0,0)" />
	<line x1="168.181" y1="970.585" x2="152.522" y2="959.208" stroke-width="0.25" stroke="rgb(0,0,0)" />
	<line x1="152.522" y1="957.732" x2="170.213" y2="970.585" stroke-width="0.25" stroke="rgb(0,0,0)" />
	<line x1="172.245" y1="970.585" x2="152.522" y2="956.255" stroke-width="0.25" stroke="rgb(0,0,0)" />
	<line x1="152.522" y1="954.779" x2="174.277" y2="970.585" stroke-width="0.25" stroke="rgb(0,0,0)" />
	<line x1="176.309" y1="970.585" x2="152.522" y2="953.303" stroke-width="0.25" stroke="rgb(0,0,0)" />
	<line x1="152.522" y1="951.827" x2="178.34" y2="970.585" stroke-width="0.25" stroke="rgb(0,0,0)" />
	<line x1="180.372" y1="970.585" x2="152.522" y2="950.35" stroke-width="0.25" stroke="rgb(0,0,0)" />
	<line x1="152.522" y1="948.874" x2="182.404" y2="970.585" stroke-width="0.25" stroke="rgb(0,0,0)" />
	<line x1="184.436" y1="970.585" x2="152.522" y2="947.398" stroke-width="0.25" stroke="rgb(0,0,0)" />
	<line x1="152.522" y1="945.922" x2="186.468" y2="970.585" stroke-width="0.25" stroke="rgb(0,0,0)" />
	<line x1="188.5" y1="970.585" x2="152.522" y2="944.445" stroke-width="0.25" stroke="rgb(0,0,0)" />
	<line x1="152.522" y1="942.969" x2="190.532" y2="970.585" stroke-width="0.25" stroke="rgb(0,0,0)" />
	<line x1="192.564" y1="970.585" x2="152.522" y2="941.493" stroke-width="0.25" stroke="rgb(0,0,0)" />
	<line x1="152.522" y1="940.017" x2="194.596" y2="970.585" stroke-width="0.25" stroke="rgb(0,0,0)" />
	<line x1="196.627" y1="970.585" x2="152.522" y2="938.54" stroke-width="0.25" stroke="rgb(0,0,0)" />
	<line x1="152.522" y1="937.064" x2="198.659" y2="970.585" stroke-width="0.25" stroke="rgb(0,0,0)" />
	<line x1="200.691" y1="970.585" x2="152.522" y2="935.588" stroke-width="0.25" stroke="rgb(0,0,0)" />
	<line x1="152.522" y1="934.112" x2="202.723" y2="970.585" stroke-width="0.25" stroke="rgb(0,0,0)" />
	<line x1="204.755" y1="970.585" x2="152.522" y2="932.635" stroke-width="0.25" stroke="rgb(0,0,0)" />
	<line x1="152.522" y1="931.159" x2="206.787" y2="970.585" stroke-width="0.25" stroke="rgb(0,0,0)" />
	<line x1="208.819" y1="970.585" x2="152.522" y2="929.683" stroke-width="0.25" stroke="rgb(0,0,0)" />
	<line x1="152.522" y1="928.207" x2="210.851" y2="970.585" stroke-width="0.25" stroke="rgb(0,0,0)" />
	<line x1="212.882" y1="970.585" x2="152.522" y2="926.73" stroke-width="0.25" stroke="rgb(0,0,0)" />
	<line x1="152.522" y1="925.254" x2="214.107" y2="969.998" stroke-width="0.25" stroke="rgb(0,0,0)" />
	<line x1="214.107" y1="968.522" x2="152.522" y2="923.778" stroke-width="0.25" stroke="rgb(0,0,0)" />
	<line x1="152.522" y1="922.302" x2="214.107" y2="967.045" stroke-width="0.25" stroke="rgb(0,0,0)" />
	<line x1="214.107" y1="965.569" x2="152.522" y2="920.826" stroke-width="0.25" stroke="rgb(0,0,0)" />
	<line x1="152.522" y1="919.349" x2="214.107" y2="964.093" stroke-width="0.25" stroke="rgb(0,0,0)" />
	<line x1="214.107" y1="962.617" x2="152.522" y2="917.873" stroke-width="0.25" stroke="rgb(0,0,0)" />
	<line x1="152.522" y1="916.397" x2="214.107" y2="961.14" stroke-width="0.25" stroke="rgb(0,0,0)" />
	<line x1="214.107" y1="959.664" x2="152.522" y2="914.921" stroke-width="0.25" stroke="rgb(0,0,0)" />
	<line x1="152.522" y1="913.444" x2="214.107" y2="958.188" stroke-width="0.25" stroke="rgb(0,0,0)" />
	<line x1="214.107" y1="956.712" x2="152.522" y2="911.968" stroke-width="0.25" stroke="rgb(0,0,0)" />
	<line x1="152.522" y1="910.492" x2="214.107" y2="955.235" stroke-width="0.25" stroke="rgb(0,0,0)" />
	<line x1="214.107" y1="953.759" x2="152.522" y2="909.016" stroke-width="0.25" stroke="rgb(0,0,0)" />
	<line x1="154.533" y1="909" x2="214.107" y2="952.283" stroke-width="0.25" stroke="rgb(0,0,0)" />
	<line x1="214.107" y1="950.807" x2="156.565" y2="909" stroke-width="0.25" stroke="rgb(0,0,0)" />
	<line x1="158.597" y1="909" x2="214.107" y2="949.33" stroke-width="0.25" stroke="rgb(0,0,0)" />
	<line x1="214.107" y1="947.854" x2="160.629" y2="909" stroke-width="0.25" stroke="rgb(0,0,0)" />
	<line x1="162.661" y1="909" x2="214.107" y2="946.378" stroke-width="0.25" stroke="rgb(0,0,0)" />
	<line x1="214.107" y1="944.902" x2="164.693" y2="909" stroke-width="0.25" stroke="rgb(0,0,0)" />
	<line x1="166.724" y1="909" x2="214.107" y2="943.425" stroke-width="0.25" stroke="rgb(0,0,0)" />
	<line x1="214.107" y1="941.949" x2="168.756" y2="909" stroke-width="0.25" stroke="rgb(0,0,0)" />
	<line x1="170.788" y1="909" x2="214.107" y2="940.473" stroke-width="0.25" stroke="rgb(0,0,0)" />
	<line x1="214.107" y1="938.997" x2="172.82" y2="909" stroke-width="0.25" stroke="rgb(0,0,0)" />
	<line x1="174.852" y1="909" x2="214.107" y2="937.521" stroke-width="0.25" stroke="rgb(0,0,0)" />
	<line x1="214.107" y1="936.044" x2="176.884" y2="909" stroke-width="0.25" stroke="rgb(0,0,0)" />
	<line x1="178.916" y1="909" x2="214.107" y2="934.568" stroke-width="0.25" stroke="rgb(0,0,0)" />
	<line x1="214.107" y1="933.092" x2="180.948" y2="909" stroke-width="0.25" stroke="rgb(0,0,0)" />
	<line x1="182.98" y1="909" x2="214.107" y2="931.616" stroke-width="0.25" stroke="rgb(0,0,0)" />
	<line x1="214.107" y1="930.139" x2="185.011" y2="909" stroke-width="0.25" stroke="rgb(0,0,0)" />
	<line x1="187.043" y1="909" x2="214.107" y2="928.663" stroke-width="0.25" stroke="rgb(0,0,0)" />
	<line x1="214.107" y1="927.187" x2="189.075" y2="909" stroke-width="0.25" stroke="rgb(0,0,0)" />
	<line x1="191.107" y1="909" x2="214.107" y2="925.711" stroke-width="0.25" stroke="rgb(0,0,0)" />
	<line x1="214.107" y1="924.234" x2="193.139" y2="909" stroke-width="0.25" stroke="rgb(0,0,0)" />
	<line x1="195.171" y1="909" x2="214.107" y2="922.758" stroke-width="0.25" stroke="rgb(0,0,0)" />
	<line x1="214.107" y1="921.282" x2="197.203" y2="909" stroke-width="0.25" stroke="rgb(0,0,0)" />
	<line x1="199.235" y1="909" x2="214.107" y2="919.806" stroke-width="0.25" stroke="rgb(0,0,0)" />
	<line x1="214.107" y1="918.329" x2="201.266" y2="909" stroke-width="0.25" stroke="rgb(0,0,0)" />
	<line x1="203.298" y1="909" x2="214.107" y2="916.853" stroke-width="0.25" stroke="rgb(0,0,0)" />
	<line x1="214.107" y1="915.377" x2="205.33" y2="909" stroke-width="0.25" stroke="rgb(0,0,0)" />
	<line x1="207.362" y1="909" x2="214.107" y2="913.901" stroke-width="0.25" stroke="rgb(0,0,0)" />
	<line x1="214.107" y1="912.424" x2="209.394" y2="909" stroke-width="0.25" stroke="rgb(0,0,0)" />
	<line x1="211.426" y1="909" x2="214.107" y2="910.948" stroke-width="0.25" stroke="rgb(0,0,0)" />
	<line x1="214.107" y1="909.472" x2="213.458" y2="909" stroke-width="0.25" stroke="rgb(0,0,0)" />
</svg>
