<?xml version="1.0" standalone="no" ?>
<!DOCTYPE svg PUBLIC "-//W3C//DTD SVG 1.1//EN" "http://www.w3.org/Graphics/SVG/1.1/DTD/svg11.dtd">
<svg width="2000px" height="2000px" xmlns="http://www.w3.org/2000/svg" version="1.1" >
	<line x1="348.389" y1="1666.91" x2="252.403" y2="1570.92" stroke-width="0.25" stroke="rgb(0,0,0)" />
	<line x1="252.403" y1="1570.92" x2="150.665" y2="1570.92" stroke-width="0.25" stroke="rgb(0,0,0)" />
	<line x1="150.665" y1="1570.92" x2="150.665" y2="1768.65" stroke-width="0.25" stroke="rgb(0,0,0)" />
	<line x1="150.665" y1="1768.65" x2="348.389" y2="1768.65" stroke-width="0.25" stroke="rgb(0,0,0)" />
	<line x1="348.389" y1="1768.65" x2="348.389" y2="1666.91" stroke-width="0.25" stroke="rgb(0,0,0)" />
	<line x1="376.112" y1="746.995" x2="150.864" y2="746.995" stroke-width="0.25" stroke="rgb(0,0,0)" />
	<line x1="150.864" y1="746.995" x2="150.864" y2="972.243" stroke-width="0.25" stroke="rgb(0,0,0)" />
	<line x1="150.864" y1="972.243" x2="376.112" y2="972.243" stroke-width="0.25" stroke="rgb(0,0,0)" />
	<line x1="376.112" y1="972.243" x2="376.112" y2="746.995" stroke-width="0.25" stroke="rgb(0,0,0)" />
	<line x1="375.25" y1="747.857" x2="151.726" y2="747.857" stroke-width="0.25" stroke="rgb(0,0,0)" />
	<line x1="151.726" y1="747.857" x2="151.726" y2="971.381" stroke-width="0.25" stroke="rgb(0,0,0)" />
	<line x1="151.726" y1="971.381" x2="375.25" y2="971.381" stroke-width="0.25" stroke="rgb(0,0,0)" />
	<line x1="375.25" y1="971.381" x2="375.25" y2="747.857" stroke-width="0.25" stroke="rgb(0,0,0)" />
	<line x1="348.188" y1="1768.65" x2="348.389" y2="1766.74" stroke-width="0.25" stroke="rgb(0,0,0)" />
	<line x1="348.389" y1="1757.85" x2="347.254" y2="1768.65" stroke-width="0.25" stroke="rgb(0,0,0)" />
	<line x1="346.32" y1="1768.65" x2="348.389" y2="1748.96" stroke-width="0.25" stroke="rgb(0,0,0)" />
	<line x1="348.389" y1="1740.08" x2="345.386" y2="1768.65" stroke-width="0.25" stroke="rgb(0,0,0)" />
	<line x1="344.452" y1="1768.65" x2="348.389" y2="1731.19" stroke-width="0.25" stroke="rgb(0,0,0)" />
	<line x1="348.389" y1="1722.3" x2="343.518" y2="1768.65" stroke-width="0.25" stroke="rgb(0,0,0)" />
	<line x1="342.584" y1="1768.65" x2="348.389" y2="1713.42" stroke-width="0.25" stroke="rgb(0,0,0)" />
	<line x1="348.389" y1="1704.53" x2="341.65" y2="1768.65" stroke-width="0.25" stroke="rgb(0,0,0)" />
	<line x1="340.716" y1="1768.65" x2="348.389" y2="1695.65" stroke-width="0.25" stroke="rgb(0,0,0)" />
	<line x1="348.389" y1="1686.76" x2="339.782" y2="1768.65" stroke-width="0.25" stroke="rgb(0,0,0)" />
	<line x1="338.848" y1="1768.65" x2="348.389" y2="1677.87" stroke-width="0.25" stroke="rgb(0,0,0)" />
	<line x1="348.389" y1="1668.99" x2="337.914" y2="1768.65" stroke-width="0.25" stroke="rgb(0,0,0)" />
	<line x1="336.98" y1="1768.65" x2="347.741" y2="1666.26" stroke-width="0.25" stroke="rgb(0,0,0)" />
	<line x1="346.896" y1="1665.42" x2="336.046" y2="1768.65" stroke-width="0.25" stroke="rgb(0,0,0)" />
	<line x1="335.112" y1="1768.65" x2="346.051" y2="1664.57" stroke-width="0.25" stroke="rgb(0,0,0)" />
	<line x1="345.206" y1="1663.73" x2="334.178" y2="1768.65" stroke-width="0.25" stroke="rgb(0,0,0)" />
	<line x1="333.244" y1="1768.65" x2="344.36" y2="1662.88" stroke-width="0.25" stroke="rgb(0,0,0)" />
	<line x1="343.515" y1="1662.04" x2="332.31" y2="1768.65" stroke-width="0.25" stroke="rgb(0,0,0)" />
	<line x1="331.376" y1="1768.65" x2="342.67" y2="1661.19" stroke-width="0.25" stroke="rgb(0,0,0)" />
	<line x1="341.825" y1="1660.35" x2="330.442" y2="1768.65" stroke-width="0.25" stroke="rgb(0,0,0)" />
	<line x1="329.508" y1="1768.65" x2="340.98" y2="1659.5" stroke-width="0.25" stroke="rgb(0,0,0)" />
	<line x1="340.134" y1="1658.66" x2="328.574" y2="1768.65" stroke-width="0.25" stroke="rgb(0,0,0)" />
	<line x1="327.64" y1="1768.65" x2="339.289" y2="1657.81" stroke-width="0.25" stroke="rgb(0,0,0)" />
	<line x1="338.444" y1="1656.96" x2="326.706" y2="1768.65" stroke-width="0.25" stroke="rgb(0,0,0)" />
	<line x1="325.772" y1="1768.65" x2="337.599" y2="1656.12" stroke-width="0.25" stroke="rgb(0,0,0)" />
	<line x1="336.754" y1="1655.27" x2="324.838" y2="1768.65" stroke-width="0.25" stroke="rgb(0,0,0)" />
	<line x1="323.904" y1="1768.65" x2="335.909" y2="1654.43" stroke-width="0.25" stroke="rgb(0,0,0)" />
	<line x1="335.063" y1="1653.58" x2="322.97" y2="1768.65" stroke-width="0.25" stroke="rgb(0,0,0)" />
	<line x1="322.036" y1="1768.65" x2="334.218" y2="1652.74" stroke-width="0.25" stroke="rgb(0,0,0)" />
	<line x1="333.373" y1="1651.89" x2="321.102" y2="1768.65" stroke-width="0.25" stroke="rgb(0,0,0)" />
	<line x1="320.168" y1="1768.65" x2="332.528" y2="1651.05" stroke-width="0.25" stroke="rgb(0,0,0)" />
	<line x1="331.683" y1="1650.2" x2="319.233" y2="1768.65" stroke-width="0.25" stroke="rgb(0,0,0)" />
	<line x1="318.299" y1="1768.65" x2="330.837" y2="1649.36" stroke-width="0.25" stroke="rgb(0,0,0)" />
	<line x1="329.992" y1="1648.51" x2="317.365" y2="1768.65" stroke-width="0.25" stroke="rgb(0,0,0)" />
	<line x1="316.431" y1="1768.65" x2="329.147" y2="1647.67" stroke-width="0.25" stroke="rgb(0,0,0)" />
	<line x1="328.302" y1="1646.82" x2="315.497" y2="1768.65" stroke-width="0.25" stroke="rgb(0,0,0)" />
	<line x1="314.563" y1="1768.65" x2="327.457" y2="1645.98" stroke-width="0.25" stroke="rgb(0,0,0)" />
	<line x1="326.611" y1="1645.13" x2="313.629" y2="1768.65" stroke-width="0.25" stroke="rgb(0,0,0)" />
	<line x1="312.695" y1="1768.65" x2="325.766" y2="1644.29" stroke-width="0.25" stroke="rgb(0,0,0)" />
	<line x1="324.921" y1="1643.44" x2="311.761" y2="1768.65" stroke-width="0.25" stroke="rgb(0,0,0)" />
	<line x1="310.827" y1="1768.65" x2="324.076" y2="1642.6" stroke-width="0.25" stroke="rgb(0,0,0)" />
	<line x1="323.231" y1="1641.75" x2="309.893" y2="1768.65" stroke-width="0.25" stroke="rgb(0,0,0)" />
	<line x1="308.959" y1="1768.65" x2="322.385" y2="1640.91" stroke-width="0.25" stroke="rgb(0,0,0)" />
	<line x1="321.54" y1="1640.06" x2="308.025" y2="1768.65" stroke-width="0.25" stroke="rgb(0,0,0)" />
	<line x1="307.091" y1="1768.65" x2="320.695" y2="1639.22" stroke-width="0.25" stroke="rgb(0,0,0)" />
	<line x1="319.85" y1="1638.37" x2="306.157" y2="1768.65" stroke-width="0.25" stroke="rgb(0,0,0)" />
	<line x1="305.223" y1="1768.65" x2="319.005" y2="1637.53" stroke-width="0.25" stroke="rgb(0,0,0)" />
	<line x1="318.16" y1="1636.68" x2="304.289" y2="1768.65" stroke-width="0.25" stroke="rgb(0,0,0)" />
	<line x1="303.355" y1="1768.65" x2="317.314" y2="1635.83" stroke-width="0.25" stroke="rgb(0,0,0)" />
	<line x1="316.469" y1="1634.99" x2="302.421" y2="1768.65" stroke-width="0.25" stroke="rgb(0,0,0)" />
	<line x1="301.487" y1="1768.65" x2="315.624" y2="1634.14" stroke-width="0.25" stroke="rgb(0,0,0)" />
	<line x1="314.779" y1="1633.3" x2="300.553" y2="1768.65" stroke-width="0.25" stroke="rgb(0,0,0)" />
	<line x1="299.619" y1="1768.65" x2="313.934" y2="1632.45" stroke-width="0.25" stroke="rgb(0,0,0)" />
	<line x1="313.088" y1="1631.61" x2="298.685" y2="1768.65" stroke-width="0.25" stroke="rgb(0,0,0)" />
	<line x1="297.751" y1="1768.65" x2="312.243" y2="1630.76" stroke-width="0.25" stroke="rgb(0,0,0)" />
	<line x1="311.398" y1="1629.92" x2="296.817" y2="1768.65" stroke-width="0.25" stroke="rgb(0,0,0)" />
	<line x1="295.883" y1="1768.65" x2="310.553" y2="1629.07" stroke-width="0.25" stroke="rgb(0,0,0)" />
	<line x1="309.708" y1="1628.23" x2="294.949" y2="1768.65" stroke-width="0.25" stroke="rgb(0,0,0)" />
	<line x1="294.015" y1="1768.65" x2="308.862" y2="1627.38" stroke-width="0.25" stroke="rgb(0,0,0)" />
	<line x1="308.017" y1="1626.54" x2="293.081" y2="1768.65" stroke-width="0.25" stroke="rgb(0,0,0)" />
	<line x1="292.147" y1="1768.65" x2="307.172" y2="1625.69" stroke-width="0.25" stroke="rgb(0,0,0)" />
	<line x1="306.327" y1="1624.85" x2="291.213" y2="1768.65" stroke-width="0.25" stroke="rgb(0,0,0)" />
	<line x1="290.279" y1="1768.65" x2="305.482" y2="1624" stroke-width="0.25" stroke="rgb(0,0,0)" />
	<line x1="304.636" y1="1623.16" x2="289.345" y2="1768.65" stroke-width="0.25" stroke="rgb(0,0,0)" />
	<line x1="288.411" y1="1768.65" x2="303.791" y2="1622.31" stroke-width="0.25" stroke="rgb(0,0,0)" />
	<line x1="302.946" y1="1621.47" x2="287.477" y2="1768.65" stroke-width="0.25" stroke="rgb(0,0,0)" />
	<line x1="286.543" y1="1768.65" x2="302.101" y2="1620.62" stroke-width="0.25" stroke="rgb(0,0,0)" />
	<line x1="301.256" y1="1619.78" x2="285.609" y2="1768.65" stroke-width="0.25" stroke="rgb(0,0,0)" />
	<line x1="284.675" y1="1768.65" x2="300.411" y2="1618.93" stroke-width="0.25" stroke="rgb(0,0,0)" />
	<line x1="299.565" y1="1618.09" x2="283.741" y2="1768.65" stroke-width="0.25" stroke="rgb(0,0,0)" />
	<line x1="282.807" y1="1768.65" x2="298.72" y2="1617.24" stroke-width="0.25" stroke="rgb(0,0,0)" />
	<line x1="297.875" y1="1616.4" x2="281.873" y2="1768.65" stroke-width="0.25" stroke="rgb(0,0,0)" />
	<line x1="280.939" y1="1768.65" x2="297.03" y2="1615.55" stroke-width="0.25" stroke="rgb(0,0,0)" />
	<line x1="296.185" y1="1614.71" x2="280.004" y2="1768.65" stroke-width="0.25" stroke="rgb(0,0,0)" />
	<line x1="279.07" y1="1768.65" x2="295.339" y2="1613.86" stroke-width="0.25" stroke="rgb(0,0,0)" />
	<line x1="294.494" y1="1613.01" x2="278.136" y2="1768.65" stroke-width="0.25" stroke="rgb(0,0,0)" />
	<line x1="277.202" y1="1768.65" x2="293.649" y2="1612.17" stroke-width="0.25" stroke="rgb(0,0,0)" />
	<line x1="292.804" y1="1611.32" x2="276.268" y2="1768.65" stroke-width="0.25" stroke="rgb(0,0,0)" />
	<line x1="275.334" y1="1768.65" x2="291.959" y2="1610.48" stroke-width="0.25" stroke="rgb(0,0,0)" />
	<line x1="291.113" y1="1609.63" x2="274.4" y2="1768.65" stroke-width="0.25" stroke="rgb(0,0,0)" />
	<line x1="273.466" y1="1768.65" x2="290.268" y2="1608.79" stroke-width="0.25" stroke="rgb(0,0,0)" />
	<line x1="289.423" y1="1607.94" x2="272.532" y2="1768.65" stroke-width="0.25" stroke="rgb(0,0,0)" />
	<line x1="271.598" y1="1768.65" x2="288.578" y2="1607.1" stroke-width="0.25" stroke="rgb(0,0,0)" />
	<line x1="287.733" y1="1606.25" x2="270.664" y2="1768.65" stroke-width="0.25" stroke="rgb(0,0,0)" />
	<line x1="269.73" y1="1768.65" x2="286.887" y2="1605.41" stroke-width="0.25" stroke="rgb(0,0,0)" />
	<line x1="286.042" y1="1604.56" x2="268.796" y2="1768.65" stroke-width="0.25" stroke="rgb(0,0,0)" />
	<line x1="267.862" y1="1768.65" x2="285.197" y2="1603.72" stroke-width="0.25" stroke="rgb(0,0,0)" />
	<line x1="284.352" y1="1602.87" x2="266.928" y2="1768.65" stroke-width="0.25" stroke="rgb(0,0,0)" />
	<line x1="265.994" y1="1768.65" x2="283.507" y2="1602.03" stroke-width="0.25" stroke="rgb(0,0,0)" />
	<line x1="282.662" y1="1601.18" x2="265.06" y2="1768.65" stroke-width="0.25" stroke="rgb(0,0,0)" />
	<line x1="264.126" y1="1768.65" x2="281.816" y2="1600.34" stroke-width="0.25" stroke="rgb(0,0,0)" />
	<line x1="280.971" y1="1599.49" x2="263.192" y2="1768.65" stroke-width="0.25" stroke="rgb(0,0,0)" />
	<line x1="262.258" y1="1768.65" x2="280.126" y2="1598.65" stroke-width="0.25" stroke="rgb(0,0,0)" />
	<line x1="279.281" y1="1597.8" x2="261.324" y2="1768.65" stroke-width="0.25" stroke="rgb(0,0,0)" />
	<line x1="260.39" y1="1768.65" x2="278.436" y2="1596.96" stroke-width="0.25" stroke="rgb(0,0,0)" />
	<line x1="277.59" y1="1596.11" x2="259.456" y2="1768.65" stroke-width="0.25" stroke="rgb(0,0,0)" />
	<line x1="258.522" y1="1768.65" x2="276.745" y2="1595.27" stroke-width="0.25" stroke="rgb(0,0,0)" />
	<line x1="275.9" y1="1594.42" x2="257.588" y2="1768.65" stroke-width="0.25" stroke="rgb(0,0,0)" />
	<line x1="256.654" y1="1768.65" x2="275.055" y2="1593.58" stroke-width="0.25" stroke="rgb(0,0,0)" />
	<line x1="274.21" y1="1592.73" x2="255.72" y2="1768.65" stroke-width="0.25" stroke="rgb(0,0,0)" />
	<line x1="254.786" y1="1768.65" x2="273.364" y2="1591.89" stroke-width="0.25" stroke="rgb(0,0,0)" />
	<line x1="272.519" y1="1591.04" x2="253.852" y2="1768.65" stroke-width="0.25" stroke="rgb(0,0,0)" />
	<line x1="252.918" y1="1768.65" x2="271.674" y2="1590.19" stroke-width="0.25" stroke="rgb(0,0,0)" />
	<line x1="270.829" y1="1589.35" x2="251.984" y2="1768.65" stroke-width="0.25" stroke="rgb(0,0,0)" />
	<line x1="251.05" y1="1768.65" x2="269.984" y2="1588.5" stroke-width="0.25" stroke="rgb(0,0,0)" />
	<line x1="269.138" y1="1587.66" x2="250.116" y2="1768.65" stroke-width="0.25" stroke="rgb(0,0,0)" />
	<line x1="249.182" y1="1768.65" x2="268.293" y2="1586.81" stroke-width="0.25" stroke="rgb(0,0,0)" />
	<line x1="267.448" y1="1585.97" x2="248.248" y2="1768.65" stroke-width="0.25" stroke="rgb(0,0,0)" />
	<line x1="247.314" y1="1768.65" x2="266.603" y2="1585.12" stroke-width="0.25" stroke="rgb(0,0,0)" />
	<line x1="265.758" y1="1584.28" x2="246.38" y2="1768.65" stroke-width="0.25" stroke="rgb(0,0,0)" />
	<line x1="245.446" y1="1768.65" x2="264.913" y2="1583.43" stroke-width="0.25" stroke="rgb(0,0,0)" />
	<line x1="264.067" y1="1582.59" x2="244.512" y2="1768.65" stroke-width="0.25" stroke="rgb(0,0,0)" />
	<line x1="243.578" y1="1768.65" x2="263.222" y2="1581.74" stroke-width="0.25" stroke="rgb(0,0,0)" />
	<line x1="262.377" y1="1580.9" x2="242.644" y2="1768.65" stroke-width="0.25" stroke="rgb(0,0,0)" />
	<line x1="241.71" y1="1768.65" x2="261.532" y2="1580.05" stroke-width="0.25" stroke="rgb(0,0,0)" />
	<line x1="260.687" y1="1579.21" x2="240.775" y2="1768.65" stroke-width="0.25" stroke="rgb(0,0,0)" />
	<line x1="239.841" y1="1768.65" x2="259.841" y2="1578.36" stroke-width="0.25" stroke="rgb(0,0,0)" />
	<line x1="258.996" y1="1577.52" x2="238.907" y2="1768.65" stroke-width="0.25" stroke="rgb(0,0,0)" />
	<line x1="237.973" y1="1768.65" x2="258.151" y2="1576.67" stroke-width="0.25" stroke="rgb(0,0,0)" />
	<line x1="257.306" y1="1575.83" x2="237.039" y2="1768.65" stroke-width="0.25" stroke="rgb(0,0,0)" />
	<line x1="236.105" y1="1768.65" x2="256.461" y2="1574.98" stroke-width="0.25" stroke="rgb(0,0,0)" />
	<line x1="255.615" y1="1574.14" x2="235.171" y2="1768.65" stroke-width="0.25" stroke="rgb(0,0,0)" />
	<line x1="234.237" y1="1768.65" x2="254.77" y2="1573.29" stroke-width="0.25" stroke="rgb(0,0,0)" />
	<line x1="253.925" y1="1572.45" x2="233.303" y2="1768.65" stroke-width="0.25" stroke="rgb(0,0,0)" />
	<line x1="232.369" y1="1768.65" x2="253.08" y2="1571.6" stroke-width="0.25" stroke="rgb(0,0,0)" />
	<line x1="252.217" y1="1570.92" x2="231.435" y2="1768.65" stroke-width="0.25" stroke="rgb(0,0,0)" />
	<line x1="230.501" y1="1768.65" x2="251.283" y2="1570.92" stroke-width="0.25" stroke="rgb(0,0,0)" />
	<line x1="250.349" y1="1570.92" x2="229.567" y2="1768.65" stroke-width="0.25" stroke="rgb(0,0,0)" />
	<line x1="228.633" y1="1768.65" x2="249.415" y2="1570.92" stroke-width="0.25" stroke="rgb(0,0,0)" />
	<line x1="248.481" y1="1570.92" x2="227.699" y2="1768.65" stroke-width="0.25" stroke="rgb(0,0,0)" />
	<line x1="226.765" y1="1768.65" x2="247.547" y2="1570.92" stroke-width="0.25" stroke="rgb(0,0,0)" />
	<line x1="246.613" y1="1570.92" x2="225.831" y2="1768.65" stroke-width="0.25" stroke="rgb(0,0,0)" />
	<line x1="224.897" y1="1768.65" x2="245.679" y2="1570.92" stroke-width="0.25" stroke="rgb(0,0,0)" />
	<line x1="244.745" y1="1570.92" x2="223.963" y2="1768.65" stroke-width="0.25" stroke="rgb(0,0,0)" />
	<line x1="223.029" y1="1768.65" x2="243.811" y2="1570.92" stroke-width="0.25" stroke="rgb(0,0,0)" />
	<line x1="242.877" y1="1570.92" x2="222.095" y2="1768.65" stroke-width="0.25" stroke="rgb(0,0,0)" />
	<line x1="221.161" y1="1768.65" x2="241.943" y2="1570.92" stroke-width="0.25" stroke="rgb(0,0,0)" />
	<line x1="241.009" y1="1570.92" x2="220.227" y2="1768.65" stroke-width="0.25" stroke="rgb(0,0,0)" />
	<line x1="219.293" y1="1768.65" x2="240.075" y2="1570.92" stroke-width="0.25" stroke="rgb(0,0,0)" />
	<line x1="239.141" y1="1570.92" x2="218.359" y2="1768.65" stroke-width="0.25" stroke="rgb(0,0,0)" />
	<line x1="217.425" y1="1768.65" x2="238.207" y2="1570.92" stroke-width="0.25" stroke="rgb(0,0,0)" />
	<line x1="237.273" y1="1570.92" x2="216.491" y2="1768.65" stroke-width="0.25" stroke="rgb(0,0,0)" />
	<line x1="215.557" y1="1768.65" x2="236.339" y2="1570.92" stroke-width="0.25" stroke="rgb(0,0,0)" />
	<line x1="235.405" y1="1570.92" x2="214.623" y2="1768.65" stroke-width="0.25" stroke="rgb(0,0,0)" />
	<line x1="213.689" y1="1768.65" x2="234.47" y2="1570.92" stroke-width="0.25" stroke="rgb(0,0,0)" />
	<line x1="233.536" y1="1570.92" x2="212.755" y2="1768.65" stroke-width="0.25" stroke="rgb(0,0,0)" />
	<line x1="211.821" y1="1768.65" x2="232.602" y2="1570.92" stroke-width="0.25" stroke="rgb(0,0,0)" />
	<line x1="231.668" y1="1570.92" x2="210.887" y2="1768.65" stroke-width="0.25" stroke="rgb(0,0,0)" />
	<line x1="209.953" y1="1768.65" x2="230.734" y2="1570.92" stroke-width="0.25" stroke="rgb(0,0,0)" />
	<line x1="229.8" y1="1570.92" x2="209.019" y2="1768.65" stroke-width="0.25" stroke="rgb(0,0,0)" />
	<line x1="208.085" y1="1768.65" x2="228.866" y2="1570.92" stroke-width="0.25" stroke="rgb(0,0,0)" />
	<line x1="227.932" y1="1570.92" x2="207.151" y2="1768.65" stroke-width="0.25" stroke="rgb(0,0,0)" />
	<line x1="206.217" y1="1768.65" x2="226.998" y2="1570.92" stroke-width="0.25" stroke="rgb(0,0,0)" />
	<line x1="226.064" y1="1570.92" x2="205.283" y2="1768.65" stroke-width="0.25" stroke="rgb(0,0,0)" />
	<line x1="204.349" y1="1768.65" x2="225.13" y2="1570.92" stroke-width="0.25" stroke="rgb(0,0,0)" />
	<line x1="224.196" y1="1570.92" x2="203.415" y2="1768.65" stroke-width="0.25" stroke="rgb(0,0,0)" />
	<line x1="202.481" y1="1768.65" x2="223.262" y2="1570.92" stroke-width="0.25" stroke="rgb(0,0,0)" />
	<line x1="222.328" y1="1570.92" x2="201.546" y2="1768.65" stroke-width="0.25" stroke="rgb(0,0,0)" />
	<line x1="200.612" y1="1768.65" x2="221.394" y2="1570.92" stroke-width="0.25" stroke="rgb(0,0,0)" />
	<line x1="220.46" y1="1570.92" x2="199.678" y2="1768.65" stroke-width="0.25" stroke="rgb(0,0,0)" />
	<line x1="198.744" y1="1768.65" x2="219.526" y2="1570.92" stroke-width="0.25" stroke="rgb(0,0,0)" />
	<line x1="218.592" y1="1570.92" x2="197.81" y2="1768.65" stroke-width="0.25" stroke="rgb(0,0,0)" />
	<line x1="196.876" y1="1768.65" x2="217.658" y2="1570.92" stroke-width="0.25" stroke="rgb(0,0,0)" />
	<line x1="216.724" y1="1570.92" x2="195.942" y2="1768.65" stroke-width="0.25" stroke="rgb(0,0,0)" />
	<line x1="195.008" y1="1768.65" x2="215.79" y2="1570.92" stroke-width="0.25" stroke="rgb(0,0,0)" />
	<line x1="214.856" y1="1570.92" x2="194.074" y2="1768.65" stroke-width="0.25" stroke="rgb(0,0,0)" />
	<line x1="193.14" y1="1768.65" x2="213.922" y2="1570.92" stroke-width="0.25" stroke="rgb(0,0,0)" />
	<line x1="212.988" y1="1570.92" x2="192.206" y2="1768.65" stroke-width="0.25" stroke="rgb(0,0,0)" />
	<line x1="191.272" y1="1768.65" x2="212.054" y2="1570.92" stroke-width="0.25" stroke="rgb(0,0,0)" />
	<line x1="211.12" y1="1570.92" x2="190.338" y2="1768.65" stroke-width="0.25" stroke="rgb(0,0,0)" />
	<line x1="189.404" y1="1768.65" x2="210.186" y2="1570.92" stroke-width="0.25" stroke="rgb(0,0,0)" />
	<line x1="209.252" y1="1570.92" x2="188.47" y2="1768.65" stroke-width="0.25" stroke="rgb(0,0,0)" />
	<line x1="187.536" y1="1768.65" x2="208.318" y2="1570.92" stroke-width="0.25" stroke="rgb(0,0,0)" />
	<line x1="207.384" y1="1570.92" x2="186.602" y2="1768.65" stroke-width="0.25" stroke="rgb(0,0,0)" />
	<line x1="185.668" y1="1768.65" x2="206.45" y2="1570.92" stroke-width="0.25" stroke="rgb(0,0,0)" />
	<line x1="205.516" y1="1570.92" x2="184.734" y2="1768.65" stroke-width="0.25" stroke="rgb(0,0,0)" />
	<line x1="183.8" y1="1768.65" x2="204.582" y2="1570.92" stroke-width="0.25" stroke="rgb(0,0,0)" />
	<line x1="203.648" y1="1570.92" x2="182.866" y2="1768.65" stroke-width="0.25" stroke="rgb(0,0,0)" />
	<line x1="181.932" y1="1768.65" x2="202.714" y2="1570.92" stroke-width="0.25" stroke="rgb(0,0,0)" />
	<line x1="201.78" y1="1570.92" x2="180.998" y2="1768.65" stroke-width="0.25" stroke="rgb(0,0,0)" />
	<line x1="180.064" y1="1768.65" x2="200.846" y2="1570.92" stroke-width="0.25" stroke="rgb(0,0,0)" />
	<line x1="199.912" y1="1570.92" x2="179.13" y2="1768.65" stroke-width="0.25" stroke="rgb(0,0,0)" />
	<line x1="178.196" y1="1768.65" x2="198.978" y2="1570.92" stroke-width="0.25" stroke="rgb(0,0,0)" />
	<line x1="198.044" y1="1570.92" x2="177.262" y2="1768.65" stroke-width="0.25" stroke="rgb(0,0,0)" />
	<line x1="176.328" y1="1768.65" x2="197.11" y2="1570.92" stroke-width="0.25" stroke="rgb(0,0,0)" />
	<line x1="196.176" y1="1570.92" x2="175.394" y2="1768.65" stroke-width="0.25" stroke="rgb(0,0,0)" />
	<line x1="174.46" y1="1768.65" x2="195.241" y2="1570.92" stroke-width="0.25" stroke="rgb(0,0,0)" />
	<line x1="194.307" y1="1570.92" x2="173.526" y2="1768.65" stroke-width="0.25" stroke="rgb(0,0,0)" />
	<line x1="172.592" y1="1768.65" x2="193.373" y2="1570.92" stroke-width="0.25" stroke="rgb(0,0,0)" />
	<line x1="192.439" y1="1570.92" x2="171.658" y2="1768.65" stroke-width="0.25" stroke="rgb(0,0,0)" />
	<line x1="170.724" y1="1768.65" x2="191.505" y2="1570.92" stroke-width="0.25" stroke="rgb(0,0,0)" />
	<line x1="190.571" y1="1570.92" x2="169.79" y2="1768.65" stroke-width="0.25" stroke="rgb(0,0,0)" />
	<line x1="168.856" y1="1768.65" x2="189.637" y2="1570.92" stroke-width="0.25" stroke="rgb(0,0,0)" />
	<line x1="188.703" y1="1570.92" x2="167.922" y2="1768.65" stroke-width="0.25" stroke="rgb(0,0,0)" />
	<line x1="166.988" y1="1768.65" x2="187.769" y2="1570.92" stroke-width="0.25" stroke="rgb(0,0,0)" />
	<line x1="186.835" y1="1570.92" x2="166.054" y2="1768.65" stroke-width="0.25" stroke="rgb(0,0,0)" />
	<line x1="165.12" y1="1768.65" x2="185.901" y2="1570.92" stroke-width="0.25" stroke="rgb(0,0,0)" />
	<line x1="184.967" y1="1570.92" x2="164.186" y2="1768.65" stroke-width="0.25" stroke="rgb(0,0,0)" />
	<line x1="163.252" y1="1768.65" x2="184.033" y2="1570.92" stroke-width="0.25" stroke="rgb(0,0,0)" />
	<line x1="183.099" y1="1570.92" x2="162.318" y2="1768.65" stroke-width="0.25" stroke="rgb(0,0,0)" />
	<line x1="161.383" y1="1768.65" x2="182.165" y2="1570.92" stroke-width="0.25" stroke="rgb(0,0,0)" />
	<line x1="181.231" y1="1570.92" x2="160.449" y2="1768.65" stroke-width="0.25" stroke="rgb(0,0,0)" />
	<line x1="159.515" y1="1768.65" x2="180.297" y2="1570.92" stroke-width="0.25" stroke="rgb(0,0,0)" />
	<line x1="179.363" y1="1570.92" x2="158.581" y2="1768.65" stroke-width="0.25" stroke="rgb(0,0,0)" />
	<line x1="157.647" y1="1768.65" x2="178.429" y2="1570.92" stroke-width="0.25" stroke="rgb(0,0,0)" />
	<line x1="177.495" y1="1570.92" x2="156.713" y2="1768.65" stroke-width="0.25" stroke="rgb(0,0,0)" />
	<line x1="155.779" y1="1768.65" x2="176.561" y2="1570.92" stroke-width="0.25" stroke="rgb(0,0,0)" />
	<line x1="175.627" y1="1570.92" x2="154.845" y2="1768.65" stroke-width="0.25" stroke="rgb(0,0,0)" />
	<line x1="153.911" y1="1768.65" x2="174.693" y2="1570.92" stroke-width="0.25" stroke="rgb(0,0,0)" />
	<line x1="173.759" y1="1570.92" x2="152.977" y2="1768.65" stroke-width="0.25" stroke="rgb(0,0,0)" />
	<line x1="152.043" y1="1768.65" x2="172.825" y2="1570.92" stroke-width="0.25" stroke="rgb(0,0,0)" />
	<line x1="171.891" y1="1570.92" x2="151.109" y2="1768.65" stroke-width="0.25" stroke="rgb(0,0,0)" />
	<line x1="150.665" y1="1763.99" x2="170.957" y2="1570.92" stroke-width="0.25" stroke="rgb(0,0,0)" />
	<line x1="170.023" y1="1570.92" x2="150.665" y2="1755.11" stroke-width="0.25" stroke="rgb(0,0,0)" />
	<line x1="150.665" y1="1746.22" x2="169.089" y2="1570.92" stroke-width="0.25" stroke="rgb(0,0,0)" />
	<line x1="168.155" y1="1570.92" x2="150.665" y2="1737.33" stroke-width="0.25" stroke="rgb(0,0,0)" />
	<line x1="150.665" y1="1728.45" x2="167.221" y2="1570.92" stroke-width="0.25" stroke="rgb(0,0,0)" />
	<line x1="166.287" y1="1570.92" x2="150.665" y2="1719.56" stroke-width="0.25" stroke="rgb(0,0,0)" />
	<line x1="150.665" y1="1710.67" x2="165.353" y2="1570.92" stroke-width="0.25" stroke="rgb(0,0,0)" />
	<line x1="164.419" y1="1570.92" x2="150.665" y2="1701.79" stroke-width="0.25" stroke="rgb(0,0,0)" />
	<line x1="150.665" y1="1692.9" x2="163.485" y2="1570.92" stroke-width="0.25" stroke="rgb(0,0,0)" />
	<line x1="162.551" y1="1570.92" x2="150.665" y2="1684.01" stroke-width="0.25" stroke="rgb(0,0,0)" />
	<line x1="150.665" y1="1675.13" x2="161.617" y2="1570.92" stroke-width="0.25" stroke="rgb(0,0,0)" />
	<line x1="160.683" y1="1570.92" x2="150.665" y2="1666.24" stroke-width="0.25" stroke="rgb(0,0,0)" />
	<line x1="150.665" y1="1657.35" x2="159.749" y2="1570.92" stroke-width="0.25" stroke="rgb(0,0,0)" />
	<line x1="158.815" y1="1570.92" x2="150.665" y2="1648.47" stroke-width="0.25" stroke="rgb(0,0,0)" />
	<line x1="150.665" y1="1639.58" x2="157.881" y2="1570.92" stroke-width="0.25" stroke="rgb(0,0,0)" />
	<line x1="156.947" y1="1570.92" x2="150.665" y2="1630.69" stroke-width="0.25" stroke="rgb(0,0,0)" />
	<line x1="150.665" y1="1621.81" x2="156.012" y2="1570.92" stroke-width="0.25" stroke="rgb(0,0,0)" />
	<line x1="155.078" y1="1570.92" x2="150.665" y2="1612.92" stroke-width="0.25" stroke="rgb(0,0,0)" />
	<line x1="150.665" y1="1604.03" x2="154.144" y2="1570.92" stroke-width="0.25" stroke="rgb(0,0,0)" />
	<line x1="153.21" y1="1570.92" x2="150.665" y2="1595.15" stroke-width="0.25" stroke="rgb(0,0,0)" />
	<line x1="150.665" y1="1586.26" x2="152.276" y2="1570.92" stroke-width="0.25" stroke="rgb(0,0,0)" />
	<line x1="151.342" y1="1570.92" x2="150.665" y2="1577.37" stroke-width="0.25" stroke="rgb(0,0,0)" />
	<line x1="374.159" y1="970.585" x2="374.454" y2="967.778" stroke-width="0.25" stroke="rgb(0,0,0)" />
	<line x1="374.454" y1="956.353" x2="372.958" y2="970.585" stroke-width="0.25" stroke="rgb(0,0,0)" />
	<line x1="371.757" y1="970.585" x2="374.454" y2="944.927" stroke-width="0.25" stroke="rgb(0,0,0)" />
	<line x1="374.454" y1="933.501" x2="370.556" y2="970.585" stroke-width="0.25" stroke="rgb(0,0,0)" />
	<line x1="369.355" y1="970.585" x2="374.454" y2="922.076" stroke-width="0.25" stroke="rgb(0,0,0)" />
	<line x1="374.454" y1="910.65" x2="368.154" y2="970.585" stroke-width="0.25" stroke="rgb(0,0,0)" />
	<line x1="366.953" y1="970.585" x2="374.454" y2="899.224" stroke-width="0.25" stroke="rgb(0,0,0)" />
	<line x1="374.454" y1="887.799" x2="365.752" y2="970.585" stroke-width="0.25" stroke="rgb(0,0,0)" />
	<line x1="364.552" y1="970.585" x2="374.454" y2="876.373" stroke-width="0.25" stroke="rgb(0,0,0)" />
	<line x1="374.454" y1="864.947" x2="363.351" y2="970.585" stroke-width="0.25" stroke="rgb(0,0,0)" />
	<line x1="362.15" y1="970.585" x2="374.454" y2="853.521" stroke-width="0.25" stroke="rgb(0,0,0)" />
	<line x1="374.454" y1="842.096" x2="360.949" y2="970.585" stroke-width="0.25" stroke="rgb(0,0,0)" />
	<line x1="359.748" y1="970.585" x2="374.454" y2="830.67" stroke-width="0.25" stroke="rgb(0,0,0)" />
	<line x1="374.454" y1="819.244" x2="358.547" y2="970.585" stroke-width="0.25" stroke="rgb(0,0,0)" />
	<line x1="357.346" y1="970.585" x2="374.454" y2="807.819" stroke-width="0.25" stroke="rgb(0,0,0)" />
	<line x1="374.454" y1="796.393" x2="356.145" y2="970.585" stroke-width="0.25" stroke="rgb(0,0,0)" />
	<line x1="354.944" y1="970.585" x2="374.454" y2="784.967" stroke-width="0.25" stroke="rgb(0,0,0)" />
	<line x1="374.454" y1="773.542" x2="353.744" y2="970.585" stroke-width="0.25" stroke="rgb(0,0,0)" />
	<line x1="352.543" y1="970.585" x2="374.454" y2="762.116" stroke-width="0.25" stroke="rgb(0,0,0)" />
	<line x1="374.454" y1="750.69" x2="351.342" y2="970.585" stroke-width="0.25" stroke="rgb(0,0,0)" />
	<line x1="350.141" y1="970.585" x2="373.467" y2="748.653" stroke-width="0.25" stroke="rgb(0,0,0)" />
	<line x1="372.266" y1="748.653" x2="348.94" y2="970.585" stroke-width="0.25" stroke="rgb(0,0,0)" />
	<line x1="347.739" y1="970.585" x2="371.065" y2="748.653" stroke-width="0.25" stroke="rgb(0,0,0)" />
	<line x1="369.864" y1="748.653" x2="346.538" y2="970.585" stroke-width="0.25" stroke="rgb(0,0,0)" />
	<line x1="345.337" y1="970.585" x2="368.663" y2="748.653" stroke-width="0.25" stroke="rgb(0,0,0)" />
	<line x1="367.462" y1="748.653" x2="344.136" y2="970.585" stroke-width="0.25" stroke="rgb(0,0,0)" />
	<line x1="342.936" y1="970.585" x2="366.261" y2="748.653" stroke-width="0.25" stroke="rgb(0,0,0)" />
	<line x1="365.061" y1="748.653" x2="341.735" y2="970.585" stroke-width="0.25" stroke="rgb(0,0,0)" />
	<line x1="340.534" y1="970.585" x2="363.86" y2="748.653" stroke-width="0.25" stroke="rgb(0,0,0)" />
	<line x1="362.659" y1="748.653" x2="339.333" y2="970.585" stroke-width="0.25" stroke="rgb(0,0,0)" />
	<line x1="338.132" y1="970.585" x2="361.458" y2="748.653" stroke-width="0.25" stroke="rgb(0,0,0)" />
	<line x1="360.257" y1="748.653" x2="336.931" y2="970.585" stroke-width="0.25" stroke="rgb(0,0,0)" />
	<line x1="335.73" y1="970.585" x2="359.056" y2="748.653" stroke-width="0.25" stroke="rgb(0,0,0)" />
	<line x1="357.855" y1="748.653" x2="334.529" y2="970.585" stroke-width="0.25" stroke="rgb(0,0,0)" />
	<line x1="333.328" y1="970.585" x2="356.654" y2="748.653" stroke-width="0.25" stroke="rgb(0,0,0)" />
	<line x1="355.453" y1="748.653" x2="332.128" y2="970.585" stroke-width="0.25" stroke="rgb(0,0,0)" />
	<line x1="330.927" y1="970.585" x2="354.253" y2="748.653" stroke-width="0.25" stroke="rgb(0,0,0)" />
	<line x1="353.052" y1="748.653" x2="329.726" y2="970.585" stroke-width="0.25" stroke="rgb(0,0,0)" />
	<line x1="328.525" y1="970.585" x2="351.851" y2="748.653" stroke-width="0.25" stroke="rgb(0,0,0)" />
	<line x1="350.65" y1="748.653" x2="327.324" y2="970.585" stroke-width="0.25" stroke="rgb(0,0,0)" />
	<line x1="326.123" y1="970.585" x2="349.449" y2="748.653" stroke-width="0.25" stroke="rgb(0,0,0)" />
	<line x1="348.248" y1="748.653" x2="324.922" y2="970.585" stroke-width="0.25" stroke="rgb(0,0,0)" />
	<line x1="323.721" y1="970.585" x2="347.047" y2="748.653" stroke-width="0.25" stroke="rgb(0,0,0)" />
	<line x1="345.846" y1="748.653" x2="322.52" y2="970.585" stroke-width="0.25" stroke="rgb(0,0,0)" />
	<line x1="321.32" y1="970.585" x2="344.645" y2="748.653" stroke-width="0.25" stroke="rgb(0,0,0)" />
	<line x1="343.445" y1="748.653" x2="320.119" y2="970.585" stroke-width="0.25" stroke="rgb(0,0,0)" />
	<line x1="318.918" y1="970.585" x2="342.244" y2="748.653" stroke-width="0.25" stroke="rgb(0,0,0)" />
	<line x1="341.043" y1="748.653" x2="317.717" y2="970.585" stroke-width="0.25" stroke="rgb(0,0,0)" />
	<line x1="316.516" y1="970.585" x2="339.842" y2="748.653" stroke-width="0.25" stroke="rgb(0,0,0)" />
	<line x1="338.641" y1="748.653" x2="315.315" y2="970.585" stroke-width="0.25" stroke="rgb(0,0,0)" />
	<line x1="314.114" y1="970.585" x2="337.44" y2="748.653" stroke-width="0.25" stroke="rgb(0,0,0)" />
	<line x1="336.239" y1="748.653" x2="312.913" y2="970.585" stroke-width="0.25" stroke="rgb(0,0,0)" />
	<line x1="311.712" y1="970.585" x2="335.038" y2="748.653" stroke-width="0.25" stroke="rgb(0,0,0)" />
	<line x1="333.838" y1="748.653" x2="310.512" y2="970.585" stroke-width="0.25" stroke="rgb(0,0,0)" />
	<line x1="309.311" y1="970.585" x2="332.637" y2="748.653" stroke-width="0.25" stroke="rgb(0,0,0)" />
	<line x1="331.436" y1="748.653" x2="308.11" y2="970.585" stroke-width="0.25" stroke="rgb(0,0,0)" />
	<line x1="306.909" y1="970.585" x2="330.235" y2="748.653" stroke-width="0.25" stroke="rgb(0,0,0)" />
	<line x1="329.034" y1="748.653" x2="305.708" y2="970.585" stroke-width="0.25" stroke="rgb(0,0,0)" />
	<line x1="304.507" y1="970.585" x2="327.833" y2="748.653" stroke-width="0.25" stroke="rgb(0,0,0)" />
	<line x1="326.632" y1="748.653" x2="303.306" y2="970.585" stroke-width="0.25" stroke="rgb(0,0,0)" />
	<line x1="302.105" y1="970.585" x2="325.431" y2="748.653" stroke-width="0.25" stroke="rgb(0,0,0)" />
	<line x1="324.23" y1="748.653" x2="300.904" y2="970.585" stroke-width="0.25" stroke="rgb(0,0,0)" />
	<line x1="299.704" y1="970.585" x2="323.03" y2="748.653" stroke-width="0.25" stroke="rgb(0,0,0)" />
	<line x1="321.829" y1="748.653" x2="298.503" y2="970.585" stroke-width="0.25" stroke="rgb(0,0,0)" />
	<line x1="297.302" y1="970.585" x2="320.628" y2="748.653" stroke-width="0.25" stroke="rgb(0,0,0)" />
	<line x1="319.427" y1="748.653" x2="296.101" y2="970.585" stroke-width="0.25" stroke="rgb(0,0,0)" />
	<line x1="294.9" y1="970.585" x2="318.226" y2="748.653" stroke-width="0.25" stroke="rgb(0,0,0)" />
	<line x1="317.025" y1="748.653" x2="293.699" y2="970.585" stroke-width="0.25" stroke="rgb(0,0,0)" />
	<line x1="292.498" y1="970.585" x2="315.824" y2="748.653" stroke-width="0.25" stroke="rgb(0,0,0)" />
	<line x1="314.623" y1="748.653" x2="291.297" y2="970.585" stroke-width="0.25" stroke="rgb(0,0,0)" />
	<line x1="290.097" y1="970.585" x2="313.422" y2="748.653" stroke-width="0.25" stroke="rgb(0,0,0)" />
	<line x1="312.222" y1="748.653" x2="288.896" y2="970.585" stroke-width="0.25" stroke="rgb(0,0,0)" />
	<line x1="287.695" y1="970.585" x2="311.021" y2="748.653" stroke-width="0.25" stroke="rgb(0,0,0)" />
	<line x1="309.82" y1="748.653" x2="286.494" y2="970.585" stroke-width="0.25" stroke="rgb(0,0,0)" />
	<line x1="285.293" y1="970.585" x2="308.619" y2="748.653" stroke-width="0.25" stroke="rgb(0,0,0)" />
	<line x1="307.418" y1="748.653" x2="284.092" y2="970.585" stroke-width="0.25" stroke="rgb(0,0,0)" />
	<line x1="282.891" y1="970.585" x2="306.217" y2="748.653" stroke-width="0.25" stroke="rgb(0,0,0)" />
	<line x1="305.016" y1="748.653" x2="281.69" y2="970.585" stroke-width="0.25" stroke="rgb(0,0,0)" />
	<line x1="280.489" y1="970.585" x2="303.815" y2="748.653" stroke-width="0.25" stroke="rgb(0,0,0)" />
	<line x1="302.614" y1="748.653" x2="279.289" y2="970.585" stroke-width="0.25" stroke="rgb(0,0,0)" />
	<line x1="278.088" y1="970.585" x2="301.414" y2="748.653" stroke-width="0.25" stroke="rgb(0,0,0)" />
	<line x1="300.213" y1="748.653" x2="276.887" y2="970.585" stroke-width="0.25" stroke="rgb(0,0,0)" />
	<line x1="275.686" y1="970.585" x2="299.012" y2="748.653" stroke-width="0.25" stroke="rgb(0,0,0)" />
	<line x1="297.811" y1="748.653" x2="274.485" y2="970.585" stroke-width="0.25" stroke="rgb(0,0,0)" />
	<line x1="273.284" y1="970.585" x2="296.61" y2="748.653" stroke-width="0.25" stroke="rgb(0,0,0)" />
	<line x1="295.409" y1="748.653" x2="272.083" y2="970.585" stroke-width="0.25" stroke="rgb(0,0,0)" />
	<line x1="270.882" y1="970.585" x2="294.208" y2="748.653" stroke-width="0.25" stroke="rgb(0,0,0)" />
	<line x1="293.007" y1="748.653" x2="269.681" y2="970.585" stroke-width="0.25" stroke="rgb(0,0,0)" />
	<line x1="268.481" y1="970.585" x2="291.806" y2="748.653" stroke-width="0.25" stroke="rgb(0,0,0)" />
	<line x1="290.606" y1="748.653" x2="267.28" y2="970.585" stroke-width="0.25" stroke="rgb(0,0,0)" />
	<line x1="266.079" y1="970.585" x2="289.405" y2="748.653" stroke-width="0.25" stroke="rgb(0,0,0)" />
	<line x1="288.204" y1="748.653" x2="264.878" y2="970.585" stroke-width="0.25" stroke="rgb(0,0,0)" />
	<line x1="263.677" y1="970.585" x2="287.003" y2="748.653" stroke-width="0.25" stroke="rgb(0,0,0)" />
	<line x1="285.802" y1="748.653" x2="262.476" y2="970.585" stroke-width="0.25" stroke="rgb(0,0,0)" />
	<line x1="261.275" y1="970.585" x2="284.601" y2="748.653" stroke-width="0.25" stroke="rgb(0,0,0)" />
	<line x1="283.4" y1="748.653" x2="260.074" y2="970.585" stroke-width="0.25" stroke="rgb(0,0,0)" />
	<line x1="258.873" y1="970.585" x2="282.199" y2="748.653" stroke-width="0.25" stroke="rgb(0,0,0)" />
	<line x1="280.998" y1="748.653" x2="257.673" y2="970.585" stroke-width="0.25" stroke="rgb(0,0,0)" />
	<line x1="256.472" y1="970.585" x2="279.798" y2="748.653" stroke-width="0.25" stroke="rgb(0,0,0)" />
	<line x1="278.597" y1="748.653" x2="255.271" y2="970.585" stroke-width="0.25" stroke="rgb(0,0,0)" />
	<line x1="254.07" y1="970.585" x2="277.396" y2="748.653" stroke-width="0.25" stroke="rgb(0,0,0)" />
	<line x1="276.195" y1="748.653" x2="252.869" y2="970.585" stroke-width="0.25" stroke="rgb(0,0,0)" />
	<line x1="251.668" y1="970.585" x2="274.994" y2="748.653" stroke-width="0.25" stroke="rgb(0,0,0)" />
	<line x1="273.793" y1="748.653" x2="250.467" y2="970.585" stroke-width="0.25" stroke="rgb(0,0,0)" />
	<line x1="249.266" y1="970.585" x2="272.592" y2="748.653" stroke-width="0.25" stroke="rgb(0,0,0)" />
	<line x1="271.391" y1="748.653" x2="248.065" y2="970.585" stroke-width="0.25" stroke="rgb(0,0,0)" />
	<line x1="246.865" y1="970.585" x2="270.19" y2="748.653" stroke-width="0.25" stroke="rgb(0,0,0)" />
	<line x1="268.99" y1="748.653" x2="245.664" y2="970.585" stroke-width="0.25" stroke="rgb(0,0,0)" />
	<line x1="244.463" y1="970.585" x2="267.789" y2="748.653" stroke-width="0.25" stroke="rgb(0,0,0)" />
	<line x1="266.588" y1="748.653" x2="243.262" y2="970.585" stroke-width="0.25" stroke="rgb(0,0,0)" />
	<line x1="242.061" y1="970.585" x2="265.387" y2="748.653" stroke-width="0.25" stroke="rgb(0,0,0)" />
	<line x1="264.186" y1="748.653" x2="240.86" y2="970.585" stroke-width="0.25" stroke="rgb(0,0,0)" />
	<line x1="239.659" y1="970.585" x2="262.985" y2="748.653" stroke-width="0.25" stroke="rgb(0,0,0)" />
	<line x1="261.784" y1="748.653" x2="238.458" y2="970.585" stroke-width="0.25" stroke="rgb(0,0,0)" />
	<line x1="237.257" y1="970.585" x2="260.583" y2="748.653" stroke-width="0.25" stroke="rgb(0,0,0)" />
	<line x1="259.382" y1="748.653" x2="236.057" y2="970.585" stroke-width="0.25" stroke="rgb(0,0,0)" />
	<line x1="234.856" y1="970.585" x2="258.182" y2="748.653" stroke-width="0.25" stroke="rgb(0,0,0)" />
	<line x1="256.981" y1="748.653" x2="233.655" y2="970.585" stroke-width="0.25" stroke="rgb(0,0,0)" />
	<line x1="232.454" y1="970.585" x2="255.78" y2="748.653" stroke-width="0.25" stroke="rgb(0,0,0)" />
	<line x1="254.579" y1="748.653" x2="231.253" y2="970.585" stroke-width="0.25" stroke="rgb(0,0,0)" />
	<line x1="230.052" y1="970.585" x2="253.378" y2="748.653" stroke-width="0.25" stroke="rgb(0,0,0)" />
	<line x1="252.177" y1="748.653" x2="228.851" y2="970.585" stroke-width="0.25" stroke="rgb(0,0,0)" />
	<line x1="227.65" y1="970.585" x2="250.976" y2="748.653" stroke-width="0.25" stroke="rgb(0,0,0)" />
	<line x1="249.775" y1="748.653" x2="226.449" y2="970.585" stroke-width="0.25" stroke="rgb(0,0,0)" />
	<line x1="225.249" y1="970.585" x2="248.574" y2="748.653" stroke-width="0.25" stroke="rgb(0,0,0)" />
	<line x1="247.374" y1="748.653" x2="224.048" y2="970.585" stroke-width="0.25" stroke="rgb(0,0,0)" />
	<line x1="222.847" y1="970.585" x2="246.173" y2="748.653" stroke-width="0.25" stroke="rgb(0,0,0)" />
	<line x1="244.972" y1="748.653" x2="221.646" y2="970.585" stroke-width="0.25" stroke="rgb(0,0,0)" />
	<line x1="220.445" y1="970.585" x2="243.771" y2="748.653" stroke-width="0.25" stroke="rgb(0,0,0)" />
	<line x1="242.57" y1="748.653" x2="219.244" y2="970.585" stroke-width="0.25" stroke="rgb(0,0,0)" />
	<line x1="218.043" y1="970.585" x2="241.369" y2="748.653" stroke-width="0.25" stroke="rgb(0,0,0)" />
	<line x1="240.168" y1="748.653" x2="216.842" y2="970.585" stroke-width="0.25" stroke="rgb(0,0,0)" />
	<line x1="215.641" y1="970.585" x2="238.967" y2="748.653" stroke-width="0.25" stroke="rgb(0,0,0)" />
	<line x1="237.767" y1="748.653" x2="214.441" y2="970.585" stroke-width="0.25" stroke="rgb(0,0,0)" />
	<line x1="213.24" y1="970.585" x2="236.566" y2="748.653" stroke-width="0.25" stroke="rgb(0,0,0)" />
	<line x1="235.365" y1="748.653" x2="212.039" y2="970.585" stroke-width="0.25" stroke="rgb(0,0,0)" />
	<line x1="210.838" y1="970.585" x2="234.164" y2="748.653" stroke-width="0.25" stroke="rgb(0,0,0)" />
	<line x1="232.963" y1="748.653" x2="209.637" y2="970.585" stroke-width="0.25" stroke="rgb(0,0,0)" />
	<line x1="208.436" y1="970.585" x2="231.762" y2="748.653" stroke-width="0.25" stroke="rgb(0,0,0)" />
	<line x1="230.561" y1="748.653" x2="207.235" y2="970.585" stroke-width="0.25" stroke="rgb(0,0,0)" />
	<line x1="206.034" y1="970.585" x2="229.36" y2="748.653" stroke-width="0.25" stroke="rgb(0,0,0)" />
	<line x1="228.159" y1="748.653" x2="204.833" y2="970.585" stroke-width="0.25" stroke="rgb(0,0,0)" />
	<line x1="203.633" y1="970.585" x2="226.959" y2="748.653" stroke-width="0.25" stroke="rgb(0,0,0)" />
	<line x1="225.758" y1="748.653" x2="202.432" y2="970.585" stroke-width="0.25" stroke="rgb(0,0,0)" />
	<line x1="201.231" y1="970.585" x2="224.557" y2="748.653" stroke-width="0.25" stroke="rgb(0,0,0)" />
	<line x1="223.356" y1="748.653" x2="200.03" y2="970.585" stroke-width="0.25" stroke="rgb(0,0,0)" />
	<line x1="198.829" y1="970.585" x2="222.155" y2="748.653" stroke-width="0.25" stroke="rgb(0,0,0)" />
	<line x1="220.954" y1="748.653" x2="197.628" y2="970.585" stroke-width="0.25" stroke="rgb(0,0,0)" />
	<line x1="196.427" y1="970.585" x2="219.753" y2="748.653" stroke-width="0.25" stroke="rgb(0,0,0)" />
	<line x1="218.552" y1="748.653" x2="195.226" y2="970.585" stroke-width="0.25" stroke="rgb(0,0,0)" />
	<line x1="194.025" y1="970.585" x2="217.351" y2="748.653" stroke-width="0.25" stroke="rgb(0,0,0)" />
	<line x1="216.151" y1="748.653" x2="192.825" y2="970.585" stroke-width="0.25" stroke="rgb(0,0,0)" />
	<line x1="191.624" y1="970.585" x2="214.95" y2="748.653" stroke-width="0.25" stroke="rgb(0,0,0)" />
	<line x1="213.749" y1="748.653" x2="190.423" y2="970.585" stroke-width="0.25" stroke="rgb(0,0,0)" />
	<line x1="189.222" y1="970.585" x2="212.548" y2="748.653" stroke-width="0.25" stroke="rgb(0,0,0)" />
	<line x1="211.347" y1="748.653" x2="188.021" y2="970.585" stroke-width="0.25" stroke="rgb(0,0,0)" />
	<line x1="186.82" y1="970.585" x2="210.146" y2="748.653" stroke-width="0.25" stroke="rgb(0,0,0)" />
	<line x1="208.945" y1="748.653" x2="185.619" y2="970.585" stroke-width="0.25" stroke="rgb(0,0,0)" />
	<line x1="184.418" y1="970.585" x2="207.744" y2="748.653" stroke-width="0.25" stroke="rgb(0,0,0)" />
	<line x1="206.543" y1="748.653" x2="183.218" y2="970.585" stroke-width="0.25" stroke="rgb(0,0,0)" />
	<line x1="182.017" y1="970.585" x2="205.343" y2="748.653" stroke-width="0.25" stroke="rgb(0,0,0)" />
	<line x1="204.142" y1="748.653" x2="180.816" y2="970.585" stroke-width="0.25" stroke="rgb(0,0,0)" />
	<line x1="179.615" y1="970.585" x2="202.941" y2="748.653" stroke-width="0.25" stroke="rgb(0,0,0)" />
	<line x1="201.74" y1="748.653" x2="178.414" y2="970.585" stroke-width="0.25" stroke="rgb(0,0,0)" />
	<line x1="177.213" y1="970.585" x2="200.539" y2="748.653" stroke-width="0.25" stroke="rgb(0,0,0)" />
	<line x1="199.338" y1="748.653" x2="176.012" y2="970.585" stroke-width="0.25" stroke="rgb(0,0,0)" />
	<line x1="174.811" y1="970.585" x2="198.137" y2="748.653" stroke-width="0.25" stroke="rgb(0,0,0)" />
	<line x1="196.936" y1="748.653" x2="173.61" y2="970.585" stroke-width="0.25" stroke="rgb(0,0,0)" />
	<line x1="172.41" y1="970.585" x2="195.735" y2="748.653" stroke-width="0.25" stroke="rgb(0,0,0)" />
	<line x1="194.535" y1="748.653" x2="171.209" y2="970.585" stroke-width="0.25" stroke="rgb(0,0,0)" />
	<line x1="170.008" y1="970.585" x2="193.334" y2="748.653" stroke-width="0.25" stroke="rgb(0,0,0)" />
	<line x1="192.133" y1="748.653" x2="168.807" y2="970.585" stroke-width="0.25" stroke="rgb(0,0,0)" />
	<line x1="167.606" y1="970.585" x2="190.932" y2="748.653" stroke-width="0.25" stroke="rgb(0,0,0)" />
	<line x1="189.731" y1="748.653" x2="166.405" y2="970.585" stroke-width="0.25" stroke="rgb(0,0,0)" />
	<line x1="165.204" y1="970.585" x2="188.53" y2="748.653" stroke-width="0.25" stroke="rgb(0,0,0)" />
	<line x1="187.329" y1="748.653" x2="164.003" y2="970.585" stroke-width="0.25" stroke="rgb(0,0,0)" />
	<line x1="162.802" y1="970.585" x2="186.128" y2="748.653" stroke-width="0.25" stroke="rgb(0,0,0)" />
	<line x1="184.927" y1="748.653" x2="161.602" y2="970.585" stroke-width="0.25" stroke="rgb(0,0,0)" />
	<line x1="160.401" y1="970.585" x2="183.727" y2="748.653" stroke-width="0.25" stroke="rgb(0,0,0)" />
	<line x1="182.526" y1="748.653" x2="159.2" y2="970.585" stroke-width="0.25" stroke="rgb(0,0,0)" />
	<line x1="157.999" y1="970.585" x2="181.325" y2="748.653" stroke-width="0.25" stroke="rgb(0,0,0)" />
	<line x1="180.124" y1="748.653" x2="156.798" y2="970.585" stroke-width="0.25" stroke="rgb(0,0,0)" />
	<line x1="155.597" y1="970.585" x2="178.923" y2="748.653" stroke-width="0.25" stroke="rgb(0,0,0)" />
	<line x1="177.722" y1="748.653" x2="154.396" y2="970.585" stroke-width="0.25" stroke="rgb(0,0,0)" />
	<line x1="153.195" y1="970.585" x2="176.521" y2="748.653" stroke-width="0.25" stroke="rgb(0,0,0)" />
	<line x1="175.32" y1="748.653" x2="152.522" y2="965.562" stroke-width="0.25" stroke="rgb(0,0,0)" />
	<line x1="152.522" y1="954.136" x2="174.119" y2="748.653" stroke-width="0.25" stroke="rgb(0,0,0)" />
	<line x1="172.919" y1="748.653" x2="152.522" y2="942.711" stroke-width="0.25" stroke="rgb(0,0,0)" />
	<line x1="152.522" y1="931.285" x2="171.718" y2="748.653" stroke-width="0.25" stroke="rgb(0,0,0)" />
	<line x1="170.517" y1="748.653" x2="152.522" y2="919.859" stroke-width="0.25" stroke="rgb(0,0,0)" />
	<line x1="152.522" y1="908.434" x2="169.316" y2="748.653" stroke-width="0.25" stroke="rgb(0,0,0)" />
	<line x1="168.115" y1="748.653" x2="152.522" y2="897.008" stroke-width="0.25" stroke="rgb(0,0,0)" />
	<line x1="152.522" y1="885.582" x2="166.914" y2="748.653" stroke-width="0.25" stroke="rgb(0,0,0)" />
	<line x1="165.713" y1="748.653" x2="152.522" y2="874.157" stroke-width="0.25" stroke="rgb(0,0,0)" />
	<line x1="152.522" y1="862.731" x2="164.512" y2="748.653" stroke-width="0.25" stroke="rgb(0,0,0)" />
	<line x1="163.311" y1="748.653" x2="152.522" y2="851.305" stroke-width="0.25" stroke="rgb(0,0,0)" />
	<line x1="152.522" y1="839.88" x2="162.111" y2="748.653" stroke-width="0.25" stroke="rgb(0,0,0)" />
	<line x1="160.91" y1="748.653" x2="152.522" y2="828.454" stroke-width="0.25" stroke="rgb(0,0,0)" />
	<line x1="152.522" y1="817.028" x2="159.709" y2="748.653" stroke-width="0.25" stroke="rgb(0,0,0)" />
	<line x1="158.508" y1="748.653" x2="152.522" y2="805.603" stroke-width="0.25" stroke="rgb(0,0,0)" />
	<line x1="152.522" y1="794.177" x2="157.307" y2="748.653" stroke-width="0.25" stroke="rgb(0,0,0)" />
	<line x1="156.106" y1="748.653" x2="152.522" y2="782.751" stroke-width="0.25" stroke="rgb(0,0,0)" />
	<line x1="152.522" y1="771.326" x2="154.905" y2="748.653" stroke-width="0.25" stroke="rgb(0,0,0)" />
	<line x1="153.704" y1="748.653" x2="152.522" y2="759.9" stroke-width="0.25" stroke="rgb(0,0,0)" />
</svg>
