<?xml version="1.0" standalone="no" ?>
<!DOCTYPE svg PUBLIC "-//W3C//DTD SVG 1.1//EN" "http://www.w3.org/Graphics/SVG/1.1/DTD/svg11.dtd">
<svg width="2000px" height="2000px" xmlns="http://www.w3.org/2000/svg" version="1.1" >
	<line x1="348.389" y1="1647" x2="272.309" y2="1570.92" stroke-width="0.25" stroke="rgb(0,0,0)" />
	<line x1="272.309" y1="1570.92" x2="150.665" y2="1570.92" stroke-width="0.25" stroke="rgb(0,0,0)" />
	<line x1="150.665" y1="1570.92" x2="150.665" y2="1768.65" stroke-width="0.25" stroke="rgb(0,0,0)" />
	<line x1="150.665" y1="1768.65" x2="348.389" y2="1768.65" stroke-width="0.25" stroke="rgb(0,0,0)" />
	<line x1="348.389" y1="1768.65" x2="348.389" y2="1647" stroke-width="0.25" stroke="rgb(0,0,0)" />
	<line x1="342.937" y1="780.17" x2="150.864" y2="780.17" stroke-width="0.25" stroke="rgb(0,0,0)" />
	<line x1="150.864" y1="780.17" x2="150.864" y2="972.243" stroke-width="0.25" stroke="rgb(0,0,0)" />
	<line x1="150.864" y1="972.243" x2="342.937" y2="972.243" stroke-width="0.25" stroke="rgb(0,0,0)" />
	<line x1="342.937" y1="972.243" x2="342.937" y2="780.17" stroke-width="0.25" stroke="rgb(0,0,0)" />
	<line x1="342.075" y1="781.032" x2="151.726" y2="781.032" stroke-width="0.25" stroke="rgb(0,0,0)" />
	<line x1="151.726" y1="781.032" x2="151.726" y2="971.381" stroke-width="0.25" stroke="rgb(0,0,0)" />
	<line x1="151.726" y1="971.381" x2="342.075" y2="971.381" stroke-width="0.25" stroke="rgb(0,0,0)" />
	<line x1="342.075" y1="971.381" x2="342.075" y2="781.032" stroke-width="0.25" stroke="rgb(0,0,0)" />
	<line x1="348.188" y1="1768.65" x2="348.389" y2="1766.74" stroke-width="0.25" stroke="rgb(0,0,0)" />
	<line x1="348.389" y1="1757.85" x2="347.254" y2="1768.65" stroke-width="0.25" stroke="rgb(0,0,0)" />
	<line x1="346.32" y1="1768.65" x2="348.389" y2="1748.96" stroke-width="0.25" stroke="rgb(0,0,0)" />
	<line x1="348.389" y1="1740.08" x2="345.386" y2="1768.65" stroke-width="0.25" stroke="rgb(0,0,0)" />
	<line x1="344.452" y1="1768.65" x2="348.389" y2="1731.19" stroke-width="0.25" stroke="rgb(0,0,0)" />
	<line x1="348.389" y1="1722.3" x2="343.518" y2="1768.65" stroke-width="0.25" stroke="rgb(0,0,0)" />
	<line x1="342.584" y1="1768.65" x2="348.389" y2="1713.42" stroke-width="0.25" stroke="rgb(0,0,0)" />
	<line x1="348.389" y1="1704.53" x2="341.65" y2="1768.65" stroke-width="0.25" stroke="rgb(0,0,0)" />
	<line x1="340.716" y1="1768.65" x2="348.389" y2="1695.65" stroke-width="0.25" stroke="rgb(0,0,0)" />
	<line x1="348.389" y1="1686.76" x2="339.782" y2="1768.65" stroke-width="0.25" stroke="rgb(0,0,0)" />
	<line x1="338.848" y1="1768.65" x2="348.389" y2="1677.87" stroke-width="0.25" stroke="rgb(0,0,0)" />
	<line x1="348.389" y1="1668.99" x2="337.914" y2="1768.65" stroke-width="0.25" stroke="rgb(0,0,0)" />
	<line x1="336.98" y1="1768.65" x2="348.389" y2="1660.1" stroke-width="0.25" stroke="rgb(0,0,0)" />
	<line x1="348.389" y1="1651.21" x2="336.046" y2="1768.65" stroke-width="0.25" stroke="rgb(0,0,0)" />
	<line x1="335.112" y1="1768.65" x2="347.944" y2="1646.56" stroke-width="0.25" stroke="rgb(0,0,0)" />
	<line x1="347.099" y1="1645.71" x2="334.178" y2="1768.65" stroke-width="0.25" stroke="rgb(0,0,0)" />
	<line x1="333.244" y1="1768.65" x2="346.254" y2="1644.87" stroke-width="0.25" stroke="rgb(0,0,0)" />
	<line x1="345.408" y1="1644.02" x2="332.31" y2="1768.65" stroke-width="0.25" stroke="rgb(0,0,0)" />
	<line x1="331.376" y1="1768.65" x2="344.563" y2="1643.18" stroke-width="0.25" stroke="rgb(0,0,0)" />
	<line x1="343.718" y1="1642.33" x2="330.442" y2="1768.65" stroke-width="0.25" stroke="rgb(0,0,0)" />
	<line x1="329.508" y1="1768.65" x2="342.873" y2="1641.49" stroke-width="0.25" stroke="rgb(0,0,0)" />
	<line x1="342.028" y1="1640.64" x2="328.574" y2="1768.65" stroke-width="0.25" stroke="rgb(0,0,0)" />
	<line x1="327.64" y1="1768.65" x2="341.182" y2="1639.8" stroke-width="0.25" stroke="rgb(0,0,0)" />
	<line x1="340.337" y1="1638.95" x2="326.706" y2="1768.65" stroke-width="0.25" stroke="rgb(0,0,0)" />
	<line x1="325.772" y1="1768.65" x2="339.492" y2="1638.11" stroke-width="0.25" stroke="rgb(0,0,0)" />
	<line x1="338.647" y1="1637.26" x2="324.838" y2="1768.65" stroke-width="0.25" stroke="rgb(0,0,0)" />
	<line x1="323.904" y1="1768.65" x2="337.802" y2="1636.42" stroke-width="0.25" stroke="rgb(0,0,0)" />
	<line x1="336.956" y1="1635.57" x2="322.97" y2="1768.65" stroke-width="0.25" stroke="rgb(0,0,0)" />
	<line x1="322.036" y1="1768.65" x2="336.111" y2="1634.73" stroke-width="0.25" stroke="rgb(0,0,0)" />
	<line x1="335.266" y1="1633.88" x2="321.102" y2="1768.65" stroke-width="0.25" stroke="rgb(0,0,0)" />
	<line x1="320.168" y1="1768.65" x2="334.421" y2="1633.04" stroke-width="0.25" stroke="rgb(0,0,0)" />
	<line x1="333.576" y1="1632.19" x2="319.233" y2="1768.65" stroke-width="0.25" stroke="rgb(0,0,0)" />
	<line x1="318.299" y1="1768.65" x2="332.731" y2="1631.35" stroke-width="0.25" stroke="rgb(0,0,0)" />
	<line x1="331.885" y1="1630.5" x2="317.365" y2="1768.65" stroke-width="0.25" stroke="rgb(0,0,0)" />
	<line x1="316.431" y1="1768.65" x2="331.04" y2="1629.66" stroke-width="0.25" stroke="rgb(0,0,0)" />
	<line x1="330.195" y1="1628.81" x2="315.497" y2="1768.65" stroke-width="0.25" stroke="rgb(0,0,0)" />
	<line x1="314.563" y1="1768.65" x2="329.35" y2="1627.97" stroke-width="0.25" stroke="rgb(0,0,0)" />
	<line x1="328.505" y1="1627.12" x2="313.629" y2="1768.65" stroke-width="0.25" stroke="rgb(0,0,0)" />
	<line x1="312.695" y1="1768.65" x2="327.659" y2="1626.27" stroke-width="0.25" stroke="rgb(0,0,0)" />
	<line x1="326.814" y1="1625.43" x2="311.761" y2="1768.65" stroke-width="0.25" stroke="rgb(0,0,0)" />
	<line x1="310.827" y1="1768.65" x2="325.969" y2="1624.58" stroke-width="0.25" stroke="rgb(0,0,0)" />
	<line x1="325.124" y1="1623.74" x2="309.893" y2="1768.65" stroke-width="0.25" stroke="rgb(0,0,0)" />
	<line x1="308.959" y1="1768.65" x2="324.279" y2="1622.89" stroke-width="0.25" stroke="rgb(0,0,0)" />
	<line x1="323.433" y1="1622.05" x2="308.025" y2="1768.65" stroke-width="0.25" stroke="rgb(0,0,0)" />
	<line x1="307.091" y1="1768.65" x2="322.588" y2="1621.2" stroke-width="0.25" stroke="rgb(0,0,0)" />
	<line x1="321.743" y1="1620.36" x2="306.157" y2="1768.65" stroke-width="0.25" stroke="rgb(0,0,0)" />
	<line x1="305.223" y1="1768.65" x2="320.898" y2="1619.51" stroke-width="0.25" stroke="rgb(0,0,0)" />
	<line x1="320.053" y1="1618.67" x2="304.289" y2="1768.65" stroke-width="0.25" stroke="rgb(0,0,0)" />
	<line x1="303.355" y1="1768.65" x2="319.207" y2="1617.82" stroke-width="0.25" stroke="rgb(0,0,0)" />
	<line x1="318.362" y1="1616.98" x2="302.421" y2="1768.65" stroke-width="0.25" stroke="rgb(0,0,0)" />
	<line x1="301.487" y1="1768.65" x2="317.517" y2="1616.13" stroke-width="0.25" stroke="rgb(0,0,0)" />
	<line x1="316.672" y1="1615.29" x2="300.553" y2="1768.65" stroke-width="0.25" stroke="rgb(0,0,0)" />
	<line x1="299.619" y1="1768.65" x2="315.827" y2="1614.44" stroke-width="0.25" stroke="rgb(0,0,0)" />
	<line x1="314.982" y1="1613.6" x2="298.685" y2="1768.65" stroke-width="0.25" stroke="rgb(0,0,0)" />
	<line x1="297.751" y1="1768.65" x2="314.136" y2="1612.75" stroke-width="0.25" stroke="rgb(0,0,0)" />
	<line x1="313.291" y1="1611.91" x2="296.817" y2="1768.65" stroke-width="0.25" stroke="rgb(0,0,0)" />
	<line x1="295.883" y1="1768.65" x2="312.446" y2="1611.06" stroke-width="0.25" stroke="rgb(0,0,0)" />
	<line x1="311.601" y1="1610.22" x2="294.949" y2="1768.65" stroke-width="0.25" stroke="rgb(0,0,0)" />
	<line x1="294.015" y1="1768.65" x2="310.756" y2="1609.37" stroke-width="0.25" stroke="rgb(0,0,0)" />
	<line x1="309.91" y1="1608.53" x2="293.081" y2="1768.65" stroke-width="0.25" stroke="rgb(0,0,0)" />
	<line x1="292.147" y1="1768.65" x2="309.065" y2="1607.68" stroke-width="0.25" stroke="rgb(0,0,0)" />
	<line x1="308.22" y1="1606.84" x2="291.213" y2="1768.65" stroke-width="0.25" stroke="rgb(0,0,0)" />
	<line x1="290.279" y1="1768.65" x2="307.375" y2="1605.99" stroke-width="0.25" stroke="rgb(0,0,0)" />
	<line x1="306.53" y1="1605.15" x2="289.345" y2="1768.65" stroke-width="0.25" stroke="rgb(0,0,0)" />
	<line x1="288.411" y1="1768.65" x2="305.684" y2="1604.3" stroke-width="0.25" stroke="rgb(0,0,0)" />
	<line x1="304.839" y1="1603.45" x2="287.477" y2="1768.65" stroke-width="0.25" stroke="rgb(0,0,0)" />
	<line x1="286.543" y1="1768.65" x2="303.994" y2="1602.61" stroke-width="0.25" stroke="rgb(0,0,0)" />
	<line x1="303.149" y1="1601.76" x2="285.609" y2="1768.65" stroke-width="0.25" stroke="rgb(0,0,0)" />
	<line x1="284.675" y1="1768.65" x2="302.304" y2="1600.92" stroke-width="0.25" stroke="rgb(0,0,0)" />
	<line x1="301.458" y1="1600.07" x2="283.741" y2="1768.65" stroke-width="0.25" stroke="rgb(0,0,0)" />
	<line x1="282.807" y1="1768.65" x2="300.613" y2="1599.23" stroke-width="0.25" stroke="rgb(0,0,0)" />
	<line x1="299.768" y1="1598.38" x2="281.873" y2="1768.65" stroke-width="0.25" stroke="rgb(0,0,0)" />
	<line x1="280.939" y1="1768.65" x2="298.923" y2="1597.54" stroke-width="0.25" stroke="rgb(0,0,0)" />
	<line x1="298.078" y1="1596.69" x2="280.004" y2="1768.65" stroke-width="0.25" stroke="rgb(0,0,0)" />
	<line x1="279.07" y1="1768.65" x2="297.233" y2="1595.85" stroke-width="0.25" stroke="rgb(0,0,0)" />
	<line x1="296.387" y1="1595" x2="278.136" y2="1768.65" stroke-width="0.25" stroke="rgb(0,0,0)" />
	<line x1="277.202" y1="1768.65" x2="295.542" y2="1594.16" stroke-width="0.25" stroke="rgb(0,0,0)" />
	<line x1="294.697" y1="1593.31" x2="276.268" y2="1768.65" stroke-width="0.25" stroke="rgb(0,0,0)" />
	<line x1="275.334" y1="1768.65" x2="293.852" y2="1592.47" stroke-width="0.25" stroke="rgb(0,0,0)" />
	<line x1="293.007" y1="1591.62" x2="274.4" y2="1768.65" stroke-width="0.25" stroke="rgb(0,0,0)" />
	<line x1="273.466" y1="1768.65" x2="292.161" y2="1590.78" stroke-width="0.25" stroke="rgb(0,0,0)" />
	<line x1="291.316" y1="1589.93" x2="272.532" y2="1768.65" stroke-width="0.25" stroke="rgb(0,0,0)" />
	<line x1="271.598" y1="1768.65" x2="290.471" y2="1589.09" stroke-width="0.25" stroke="rgb(0,0,0)" />
	<line x1="289.626" y1="1588.24" x2="270.664" y2="1768.65" stroke-width="0.25" stroke="rgb(0,0,0)" />
	<line x1="269.73" y1="1768.65" x2="288.781" y2="1587.4" stroke-width="0.25" stroke="rgb(0,0,0)" />
	<line x1="287.935" y1="1586.55" x2="268.796" y2="1768.65" stroke-width="0.25" stroke="rgb(0,0,0)" />
	<line x1="267.862" y1="1768.65" x2="287.09" y2="1585.71" stroke-width="0.25" stroke="rgb(0,0,0)" />
	<line x1="286.245" y1="1584.86" x2="266.928" y2="1768.65" stroke-width="0.25" stroke="rgb(0,0,0)" />
	<line x1="265.994" y1="1768.65" x2="285.4" y2="1584.02" stroke-width="0.25" stroke="rgb(0,0,0)" />
	<line x1="284.555" y1="1583.17" x2="265.06" y2="1768.65" stroke-width="0.25" stroke="rgb(0,0,0)" />
	<line x1="264.126" y1="1768.65" x2="283.709" y2="1582.32" stroke-width="0.25" stroke="rgb(0,0,0)" />
	<line x1="282.864" y1="1581.48" x2="263.192" y2="1768.65" stroke-width="0.25" stroke="rgb(0,0,0)" />
	<line x1="262.258" y1="1768.65" x2="282.019" y2="1580.63" stroke-width="0.25" stroke="rgb(0,0,0)" />
	<line x1="281.174" y1="1579.79" x2="261.324" y2="1768.65" stroke-width="0.25" stroke="rgb(0,0,0)" />
	<line x1="260.39" y1="1768.65" x2="280.329" y2="1578.94" stroke-width="0.25" stroke="rgb(0,0,0)" />
	<line x1="279.484" y1="1578.1" x2="259.456" y2="1768.65" stroke-width="0.25" stroke="rgb(0,0,0)" />
	<line x1="258.522" y1="1768.65" x2="278.638" y2="1577.25" stroke-width="0.25" stroke="rgb(0,0,0)" />
	<line x1="277.793" y1="1576.41" x2="257.588" y2="1768.65" stroke-width="0.25" stroke="rgb(0,0,0)" />
	<line x1="256.654" y1="1768.65" x2="276.948" y2="1575.56" stroke-width="0.25" stroke="rgb(0,0,0)" />
	<line x1="276.103" y1="1574.72" x2="255.72" y2="1768.65" stroke-width="0.25" stroke="rgb(0,0,0)" />
	<line x1="254.786" y1="1768.65" x2="275.258" y2="1573.87" stroke-width="0.25" stroke="rgb(0,0,0)" />
	<line x1="274.412" y1="1573.03" x2="253.852" y2="1768.65" stroke-width="0.25" stroke="rgb(0,0,0)" />
	<line x1="252.918" y1="1768.65" x2="273.567" y2="1572.18" stroke-width="0.25" stroke="rgb(0,0,0)" />
	<line x1="272.722" y1="1571.34" x2="251.984" y2="1768.65" stroke-width="0.25" stroke="rgb(0,0,0)" />
	<line x1="251.05" y1="1768.65" x2="271.831" y2="1570.92" stroke-width="0.25" stroke="rgb(0,0,0)" />
	<line x1="270.897" y1="1570.92" x2="250.116" y2="1768.65" stroke-width="0.25" stroke="rgb(0,0,0)" />
	<line x1="249.182" y1="1768.65" x2="269.963" y2="1570.92" stroke-width="0.25" stroke="rgb(0,0,0)" />
	<line x1="269.029" y1="1570.92" x2="248.248" y2="1768.65" stroke-width="0.25" stroke="rgb(0,0,0)" />
	<line x1="247.314" y1="1768.65" x2="268.095" y2="1570.92" stroke-width="0.25" stroke="rgb(0,0,0)" />
	<line x1="267.161" y1="1570.92" x2="246.38" y2="1768.65" stroke-width="0.25" stroke="rgb(0,0,0)" />
	<line x1="245.446" y1="1768.65" x2="266.227" y2="1570.92" stroke-width="0.25" stroke="rgb(0,0,0)" />
	<line x1="265.293" y1="1570.92" x2="244.512" y2="1768.65" stroke-width="0.25" stroke="rgb(0,0,0)" />
	<line x1="243.578" y1="1768.65" x2="264.359" y2="1570.92" stroke-width="0.25" stroke="rgb(0,0,0)" />
	<line x1="263.425" y1="1570.92" x2="242.644" y2="1768.65" stroke-width="0.25" stroke="rgb(0,0,0)" />
	<line x1="241.71" y1="1768.65" x2="262.491" y2="1570.92" stroke-width="0.25" stroke="rgb(0,0,0)" />
	<line x1="261.557" y1="1570.92" x2="240.775" y2="1768.65" stroke-width="0.25" stroke="rgb(0,0,0)" />
	<line x1="239.841" y1="1768.65" x2="260.623" y2="1570.92" stroke-width="0.25" stroke="rgb(0,0,0)" />
	<line x1="259.689" y1="1570.92" x2="238.907" y2="1768.65" stroke-width="0.25" stroke="rgb(0,0,0)" />
	<line x1="237.973" y1="1768.65" x2="258.755" y2="1570.92" stroke-width="0.25" stroke="rgb(0,0,0)" />
	<line x1="257.821" y1="1570.92" x2="237.039" y2="1768.65" stroke-width="0.25" stroke="rgb(0,0,0)" />
	<line x1="236.105" y1="1768.65" x2="256.887" y2="1570.92" stroke-width="0.25" stroke="rgb(0,0,0)" />
	<line x1="255.953" y1="1570.92" x2="235.171" y2="1768.65" stroke-width="0.25" stroke="rgb(0,0,0)" />
	<line x1="234.237" y1="1768.65" x2="255.019" y2="1570.92" stroke-width="0.25" stroke="rgb(0,0,0)" />
	<line x1="254.085" y1="1570.92" x2="233.303" y2="1768.65" stroke-width="0.25" stroke="rgb(0,0,0)" />
	<line x1="232.369" y1="1768.65" x2="253.151" y2="1570.92" stroke-width="0.25" stroke="rgb(0,0,0)" />
	<line x1="252.217" y1="1570.92" x2="231.435" y2="1768.65" stroke-width="0.25" stroke="rgb(0,0,0)" />
	<line x1="230.501" y1="1768.65" x2="251.283" y2="1570.92" stroke-width="0.25" stroke="rgb(0,0,0)" />
	<line x1="250.349" y1="1570.92" x2="229.567" y2="1768.65" stroke-width="0.25" stroke="rgb(0,0,0)" />
	<line x1="228.633" y1="1768.65" x2="249.415" y2="1570.92" stroke-width="0.25" stroke="rgb(0,0,0)" />
	<line x1="248.481" y1="1570.92" x2="227.699" y2="1768.65" stroke-width="0.25" stroke="rgb(0,0,0)" />
	<line x1="226.765" y1="1768.65" x2="247.547" y2="1570.92" stroke-width="0.25" stroke="rgb(0,0,0)" />
	<line x1="246.613" y1="1570.92" x2="225.831" y2="1768.65" stroke-width="0.25" stroke="rgb(0,0,0)" />
	<line x1="224.897" y1="1768.65" x2="245.679" y2="1570.92" stroke-width="0.25" stroke="rgb(0,0,0)" />
	<line x1="244.745" y1="1570.92" x2="223.963" y2="1768.65" stroke-width="0.25" stroke="rgb(0,0,0)" />
	<line x1="223.029" y1="1768.65" x2="243.811" y2="1570.92" stroke-width="0.25" stroke="rgb(0,0,0)" />
	<line x1="242.877" y1="1570.92" x2="222.095" y2="1768.65" stroke-width="0.25" stroke="rgb(0,0,0)" />
	<line x1="221.161" y1="1768.65" x2="241.943" y2="1570.92" stroke-width="0.25" stroke="rgb(0,0,0)" />
	<line x1="241.009" y1="1570.92" x2="220.227" y2="1768.65" stroke-width="0.25" stroke="rgb(0,0,0)" />
	<line x1="219.293" y1="1768.65" x2="240.075" y2="1570.92" stroke-width="0.25" stroke="rgb(0,0,0)" />
	<line x1="239.141" y1="1570.92" x2="218.359" y2="1768.65" stroke-width="0.25" stroke="rgb(0,0,0)" />
	<line x1="217.425" y1="1768.65" x2="238.207" y2="1570.92" stroke-width="0.25" stroke="rgb(0,0,0)" />
	<line x1="237.273" y1="1570.92" x2="216.491" y2="1768.65" stroke-width="0.25" stroke="rgb(0,0,0)" />
	<line x1="215.557" y1="1768.65" x2="236.339" y2="1570.92" stroke-width="0.25" stroke="rgb(0,0,0)" />
	<line x1="235.405" y1="1570.92" x2="214.623" y2="1768.65" stroke-width="0.25" stroke="rgb(0,0,0)" />
	<line x1="213.689" y1="1768.65" x2="234.47" y2="1570.92" stroke-width="0.25" stroke="rgb(0,0,0)" />
	<line x1="233.536" y1="1570.92" x2="212.755" y2="1768.65" stroke-width="0.25" stroke="rgb(0,0,0)" />
	<line x1="211.821" y1="1768.65" x2="232.602" y2="1570.92" stroke-width="0.25" stroke="rgb(0,0,0)" />
	<line x1="231.668" y1="1570.92" x2="210.887" y2="1768.65" stroke-width="0.25" stroke="rgb(0,0,0)" />
	<line x1="209.953" y1="1768.65" x2="230.734" y2="1570.92" stroke-width="0.25" stroke="rgb(0,0,0)" />
	<line x1="229.8" y1="1570.92" x2="209.019" y2="1768.65" stroke-width="0.25" stroke="rgb(0,0,0)" />
	<line x1="208.085" y1="1768.65" x2="228.866" y2="1570.92" stroke-width="0.25" stroke="rgb(0,0,0)" />
	<line x1="227.932" y1="1570.92" x2="207.151" y2="1768.65" stroke-width="0.25" stroke="rgb(0,0,0)" />
	<line x1="206.217" y1="1768.65" x2="226.998" y2="1570.92" stroke-width="0.25" stroke="rgb(0,0,0)" />
	<line x1="226.064" y1="1570.92" x2="205.283" y2="1768.65" stroke-width="0.25" stroke="rgb(0,0,0)" />
	<line x1="204.349" y1="1768.65" x2="225.13" y2="1570.92" stroke-width="0.25" stroke="rgb(0,0,0)" />
	<line x1="224.196" y1="1570.92" x2="203.415" y2="1768.65" stroke-width="0.25" stroke="rgb(0,0,0)" />
	<line x1="202.481" y1="1768.65" x2="223.262" y2="1570.92" stroke-width="0.25" stroke="rgb(0,0,0)" />
	<line x1="222.328" y1="1570.92" x2="201.546" y2="1768.65" stroke-width="0.25" stroke="rgb(0,0,0)" />
	<line x1="200.612" y1="1768.65" x2="221.394" y2="1570.92" stroke-width="0.25" stroke="rgb(0,0,0)" />
	<line x1="220.46" y1="1570.92" x2="199.678" y2="1768.65" stroke-width="0.25" stroke="rgb(0,0,0)" />
	<line x1="198.744" y1="1768.65" x2="219.526" y2="1570.92" stroke-width="0.25" stroke="rgb(0,0,0)" />
	<line x1="218.592" y1="1570.92" x2="197.81" y2="1768.65" stroke-width="0.25" stroke="rgb(0,0,0)" />
	<line x1="196.876" y1="1768.65" x2="217.658" y2="1570.92" stroke-width="0.25" stroke="rgb(0,0,0)" />
	<line x1="216.724" y1="1570.92" x2="195.942" y2="1768.65" stroke-width="0.25" stroke="rgb(0,0,0)" />
	<line x1="195.008" y1="1768.65" x2="215.79" y2="1570.92" stroke-width="0.25" stroke="rgb(0,0,0)" />
	<line x1="214.856" y1="1570.92" x2="194.074" y2="1768.65" stroke-width="0.25" stroke="rgb(0,0,0)" />
	<line x1="193.14" y1="1768.65" x2="213.922" y2="1570.92" stroke-width="0.25" stroke="rgb(0,0,0)" />
	<line x1="212.988" y1="1570.92" x2="192.206" y2="1768.65" stroke-width="0.25" stroke="rgb(0,0,0)" />
	<line x1="191.272" y1="1768.65" x2="212.054" y2="1570.92" stroke-width="0.25" stroke="rgb(0,0,0)" />
	<line x1="211.12" y1="1570.92" x2="190.338" y2="1768.65" stroke-width="0.25" stroke="rgb(0,0,0)" />
	<line x1="189.404" y1="1768.65" x2="210.186" y2="1570.92" stroke-width="0.25" stroke="rgb(0,0,0)" />
	<line x1="209.252" y1="1570.92" x2="188.47" y2="1768.65" stroke-width="0.25" stroke="rgb(0,0,0)" />
	<line x1="187.536" y1="1768.65" x2="208.318" y2="1570.92" stroke-width="0.25" stroke="rgb(0,0,0)" />
	<line x1="207.384" y1="1570.92" x2="186.602" y2="1768.65" stroke-width="0.25" stroke="rgb(0,0,0)" />
	<line x1="185.668" y1="1768.65" x2="206.45" y2="1570.92" stroke-width="0.25" stroke="rgb(0,0,0)" />
	<line x1="205.516" y1="1570.92" x2="184.734" y2="1768.65" stroke-width="0.25" stroke="rgb(0,0,0)" />
	<line x1="183.8" y1="1768.65" x2="204.582" y2="1570.92" stroke-width="0.25" stroke="rgb(0,0,0)" />
	<line x1="203.648" y1="1570.92" x2="182.866" y2="1768.65" stroke-width="0.25" stroke="rgb(0,0,0)" />
	<line x1="181.932" y1="1768.65" x2="202.714" y2="1570.92" stroke-width="0.25" stroke="rgb(0,0,0)" />
	<line x1="201.78" y1="1570.92" x2="180.998" y2="1768.65" stroke-width="0.25" stroke="rgb(0,0,0)" />
	<line x1="180.064" y1="1768.65" x2="200.846" y2="1570.92" stroke-width="0.25" stroke="rgb(0,0,0)" />
	<line x1="199.912" y1="1570.92" x2="179.13" y2="1768.65" stroke-width="0.25" stroke="rgb(0,0,0)" />
	<line x1="178.196" y1="1768.65" x2="198.978" y2="1570.92" stroke-width="0.25" stroke="rgb(0,0,0)" />
	<line x1="198.044" y1="1570.92" x2="177.262" y2="1768.65" stroke-width="0.25" stroke="rgb(0,0,0)" />
	<line x1="176.328" y1="1768.65" x2="197.11" y2="1570.92" stroke-width="0.25" stroke="rgb(0,0,0)" />
	<line x1="196.176" y1="1570.92" x2="175.394" y2="1768.65" stroke-width="0.25" stroke="rgb(0,0,0)" />
	<line x1="174.46" y1="1768.65" x2="195.241" y2="1570.92" stroke-width="0.25" stroke="rgb(0,0,0)" />
	<line x1="194.307" y1="1570.92" x2="173.526" y2="1768.65" stroke-width="0.25" stroke="rgb(0,0,0)" />
	<line x1="172.592" y1="1768.65" x2="193.373" y2="1570.92" stroke-width="0.25" stroke="rgb(0,0,0)" />
	<line x1="192.439" y1="1570.92" x2="171.658" y2="1768.65" stroke-width="0.25" stroke="rgb(0,0,0)" />
	<line x1="170.724" y1="1768.65" x2="191.505" y2="1570.92" stroke-width="0.25" stroke="rgb(0,0,0)" />
	<line x1="190.571" y1="1570.92" x2="169.79" y2="1768.65" stroke-width="0.25" stroke="rgb(0,0,0)" />
	<line x1="168.856" y1="1768.65" x2="189.637" y2="1570.92" stroke-width="0.25" stroke="rgb(0,0,0)" />
	<line x1="188.703" y1="1570.92" x2="167.922" y2="1768.65" stroke-width="0.25" stroke="rgb(0,0,0)" />
	<line x1="166.988" y1="1768.65" x2="187.769" y2="1570.92" stroke-width="0.25" stroke="rgb(0,0,0)" />
	<line x1="186.835" y1="1570.92" x2="166.054" y2="1768.65" stroke-width="0.25" stroke="rgb(0,0,0)" />
	<line x1="165.12" y1="1768.65" x2="185.901" y2="1570.92" stroke-width="0.25" stroke="rgb(0,0,0)" />
	<line x1="184.967" y1="1570.92" x2="164.186" y2="1768.65" stroke-width="0.25" stroke="rgb(0,0,0)" />
	<line x1="163.252" y1="1768.65" x2="184.033" y2="1570.92" stroke-width="0.25" stroke="rgb(0,0,0)" />
	<line x1="183.099" y1="1570.92" x2="162.318" y2="1768.65" stroke-width="0.25" stroke="rgb(0,0,0)" />
	<line x1="161.383" y1="1768.65" x2="182.165" y2="1570.92" stroke-width="0.25" stroke="rgb(0,0,0)" />
	<line x1="181.231" y1="1570.92" x2="160.449" y2="1768.65" stroke-width="0.25" stroke="rgb(0,0,0)" />
	<line x1="159.515" y1="1768.65" x2="180.297" y2="1570.92" stroke-width="0.25" stroke="rgb(0,0,0)" />
	<line x1="179.363" y1="1570.92" x2="158.581" y2="1768.65" stroke-width="0.25" stroke="rgb(0,0,0)" />
	<line x1="157.647" y1="1768.65" x2="178.429" y2="1570.92" stroke-width="0.25" stroke="rgb(0,0,0)" />
	<line x1="177.495" y1="1570.92" x2="156.713" y2="1768.65" stroke-width="0.25" stroke="rgb(0,0,0)" />
	<line x1="155.779" y1="1768.65" x2="176.561" y2="1570.92" stroke-width="0.25" stroke="rgb(0,0,0)" />
	<line x1="175.627" y1="1570.92" x2="154.845" y2="1768.65" stroke-width="0.25" stroke="rgb(0,0,0)" />
	<line x1="153.911" y1="1768.65" x2="174.693" y2="1570.92" stroke-width="0.25" stroke="rgb(0,0,0)" />
	<line x1="173.759" y1="1570.92" x2="152.977" y2="1768.65" stroke-width="0.25" stroke="rgb(0,0,0)" />
	<line x1="152.043" y1="1768.65" x2="172.825" y2="1570.92" stroke-width="0.25" stroke="rgb(0,0,0)" />
	<line x1="171.891" y1="1570.92" x2="151.109" y2="1768.65" stroke-width="0.25" stroke="rgb(0,0,0)" />
	<line x1="150.665" y1="1763.99" x2="170.957" y2="1570.92" stroke-width="0.25" stroke="rgb(0,0,0)" />
	<line x1="170.023" y1="1570.92" x2="150.665" y2="1755.11" stroke-width="0.25" stroke="rgb(0,0,0)" />
	<line x1="150.665" y1="1746.22" x2="169.089" y2="1570.92" stroke-width="0.25" stroke="rgb(0,0,0)" />
	<line x1="168.155" y1="1570.92" x2="150.665" y2="1737.33" stroke-width="0.25" stroke="rgb(0,0,0)" />
	<line x1="150.665" y1="1728.45" x2="167.221" y2="1570.92" stroke-width="0.25" stroke="rgb(0,0,0)" />
	<line x1="166.287" y1="1570.92" x2="150.665" y2="1719.56" stroke-width="0.25" stroke="rgb(0,0,0)" />
	<line x1="150.665" y1="1710.67" x2="165.353" y2="1570.92" stroke-width="0.25" stroke="rgb(0,0,0)" />
	<line x1="164.419" y1="1570.92" x2="150.665" y2="1701.79" stroke-width="0.25" stroke="rgb(0,0,0)" />
	<line x1="150.665" y1="1692.9" x2="163.485" y2="1570.92" stroke-width="0.25" stroke="rgb(0,0,0)" />
	<line x1="162.551" y1="1570.92" x2="150.665" y2="1684.01" stroke-width="0.25" stroke="rgb(0,0,0)" />
	<line x1="150.665" y1="1675.13" x2="161.617" y2="1570.92" stroke-width="0.25" stroke="rgb(0,0,0)" />
	<line x1="160.683" y1="1570.92" x2="150.665" y2="1666.24" stroke-width="0.25" stroke="rgb(0,0,0)" />
	<line x1="150.665" y1="1657.35" x2="159.749" y2="1570.92" stroke-width="0.25" stroke="rgb(0,0,0)" />
	<line x1="158.815" y1="1570.92" x2="150.665" y2="1648.47" stroke-width="0.25" stroke="rgb(0,0,0)" />
	<line x1="150.665" y1="1639.58" x2="157.881" y2="1570.92" stroke-width="0.25" stroke="rgb(0,0,0)" />
	<line x1="156.947" y1="1570.92" x2="150.665" y2="1630.69" stroke-width="0.25" stroke="rgb(0,0,0)" />
	<line x1="150.665" y1="1621.81" x2="156.012" y2="1570.92" stroke-width="0.25" stroke="rgb(0,0,0)" />
	<line x1="155.078" y1="1570.92" x2="150.665" y2="1612.92" stroke-width="0.25" stroke="rgb(0,0,0)" />
	<line x1="150.665" y1="1604.03" x2="154.144" y2="1570.92" stroke-width="0.25" stroke="rgb(0,0,0)" />
	<line x1="153.21" y1="1570.92" x2="150.665" y2="1595.15" stroke-width="0.25" stroke="rgb(0,0,0)" />
	<line x1="150.665" y1="1586.26" x2="152.276" y2="1570.92" stroke-width="0.25" stroke="rgb(0,0,0)" />
	<line x1="151.342" y1="1570.92" x2="150.665" y2="1577.37" stroke-width="0.25" stroke="rgb(0,0,0)" />
	<line x1="340.534" y1="970.585" x2="341.278" y2="963.501" stroke-width="0.25" stroke="rgb(0,0,0)" />
	<line x1="341.278" y1="952.075" x2="339.333" y2="970.585" stroke-width="0.25" stroke="rgb(0,0,0)" />
	<line x1="338.132" y1="970.585" x2="341.278" y2="940.649" stroke-width="0.25" stroke="rgb(0,0,0)" />
	<line x1="341.278" y1="929.224" x2="336.931" y2="970.585" stroke-width="0.25" stroke="rgb(0,0,0)" />
	<line x1="335.73" y1="970.585" x2="341.278" y2="917.798" stroke-width="0.25" stroke="rgb(0,0,0)" />
	<line x1="341.278" y1="906.372" x2="334.529" y2="970.585" stroke-width="0.25" stroke="rgb(0,0,0)" />
	<line x1="333.328" y1="970.585" x2="341.278" y2="894.947" stroke-width="0.25" stroke="rgb(0,0,0)" />
	<line x1="341.278" y1="883.521" x2="332.128" y2="970.585" stroke-width="0.25" stroke="rgb(0,0,0)" />
	<line x1="330.927" y1="970.585" x2="341.278" y2="872.095" stroke-width="0.25" stroke="rgb(0,0,0)" />
	<line x1="341.278" y1="860.669" x2="329.726" y2="970.585" stroke-width="0.25" stroke="rgb(0,0,0)" />
	<line x1="328.525" y1="970.585" x2="341.278" y2="849.244" stroke-width="0.25" stroke="rgb(0,0,0)" />
	<line x1="341.278" y1="837.818" x2="327.324" y2="970.585" stroke-width="0.25" stroke="rgb(0,0,0)" />
	<line x1="326.123" y1="970.585" x2="341.278" y2="826.392" stroke-width="0.25" stroke="rgb(0,0,0)" />
	<line x1="341.278" y1="814.967" x2="324.922" y2="970.585" stroke-width="0.25" stroke="rgb(0,0,0)" />
	<line x1="323.721" y1="970.585" x2="341.278" y2="803.541" stroke-width="0.25" stroke="rgb(0,0,0)" />
	<line x1="341.278" y1="792.115" x2="322.52" y2="970.585" stroke-width="0.25" stroke="rgb(0,0,0)" />
	<line x1="321.32" y1="970.585" x2="341.159" y2="781.829" stroke-width="0.25" stroke="rgb(0,0,0)" />
	<line x1="339.958" y1="781.829" x2="320.119" y2="970.585" stroke-width="0.25" stroke="rgb(0,0,0)" />
	<line x1="318.918" y1="970.585" x2="338.757" y2="781.829" stroke-width="0.25" stroke="rgb(0,0,0)" />
	<line x1="337.556" y1="781.829" x2="317.717" y2="970.585" stroke-width="0.25" stroke="rgb(0,0,0)" />
	<line x1="316.516" y1="970.585" x2="336.355" y2="781.829" stroke-width="0.25" stroke="rgb(0,0,0)" />
	<line x1="335.154" y1="781.829" x2="315.315" y2="970.585" stroke-width="0.25" stroke="rgb(0,0,0)" />
	<line x1="314.114" y1="970.585" x2="333.953" y2="781.829" stroke-width="0.25" stroke="rgb(0,0,0)" />
	<line x1="332.752" y1="781.829" x2="312.913" y2="970.585" stroke-width="0.25" stroke="rgb(0,0,0)" />
	<line x1="311.712" y1="970.585" x2="331.552" y2="781.829" stroke-width="0.25" stroke="rgb(0,0,0)" />
	<line x1="330.351" y1="781.829" x2="310.512" y2="970.585" stroke-width="0.25" stroke="rgb(0,0,0)" />
	<line x1="309.311" y1="970.585" x2="329.15" y2="781.829" stroke-width="0.25" stroke="rgb(0,0,0)" />
	<line x1="327.949" y1="781.829" x2="308.11" y2="970.585" stroke-width="0.25" stroke="rgb(0,0,0)" />
	<line x1="306.909" y1="970.585" x2="326.748" y2="781.829" stroke-width="0.25" stroke="rgb(0,0,0)" />
	<line x1="325.547" y1="781.829" x2="305.708" y2="970.585" stroke-width="0.25" stroke="rgb(0,0,0)" />
	<line x1="304.507" y1="970.585" x2="324.346" y2="781.829" stroke-width="0.25" stroke="rgb(0,0,0)" />
	<line x1="323.145" y1="781.829" x2="303.306" y2="970.585" stroke-width="0.25" stroke="rgb(0,0,0)" />
	<line x1="302.105" y1="970.585" x2="321.944" y2="781.829" stroke-width="0.25" stroke="rgb(0,0,0)" />
	<line x1="320.744" y1="781.829" x2="300.904" y2="970.585" stroke-width="0.25" stroke="rgb(0,0,0)" />
	<line x1="299.704" y1="970.585" x2="319.543" y2="781.829" stroke-width="0.25" stroke="rgb(0,0,0)" />
	<line x1="318.342" y1="781.829" x2="298.503" y2="970.585" stroke-width="0.25" stroke="rgb(0,0,0)" />
	<line x1="297.302" y1="970.585" x2="317.141" y2="781.829" stroke-width="0.25" stroke="rgb(0,0,0)" />
	<line x1="315.94" y1="781.829" x2="296.101" y2="970.585" stroke-width="0.25" stroke="rgb(0,0,0)" />
	<line x1="294.9" y1="970.585" x2="314.739" y2="781.829" stroke-width="0.25" stroke="rgb(0,0,0)" />
	<line x1="313.538" y1="781.829" x2="293.699" y2="970.585" stroke-width="0.25" stroke="rgb(0,0,0)" />
	<line x1="292.498" y1="970.585" x2="312.337" y2="781.829" stroke-width="0.25" stroke="rgb(0,0,0)" />
	<line x1="311.136" y1="781.829" x2="291.297" y2="970.585" stroke-width="0.25" stroke="rgb(0,0,0)" />
	<line x1="290.097" y1="970.585" x2="309.936" y2="781.829" stroke-width="0.25" stroke="rgb(0,0,0)" />
	<line x1="308.735" y1="781.829" x2="288.896" y2="970.585" stroke-width="0.25" stroke="rgb(0,0,0)" />
	<line x1="287.695" y1="970.585" x2="307.534" y2="781.829" stroke-width="0.25" stroke="rgb(0,0,0)" />
	<line x1="306.333" y1="781.829" x2="286.494" y2="970.585" stroke-width="0.25" stroke="rgb(0,0,0)" />
	<line x1="285.293" y1="970.585" x2="305.132" y2="781.829" stroke-width="0.25" stroke="rgb(0,0,0)" />
	<line x1="303.931" y1="781.829" x2="284.092" y2="970.585" stroke-width="0.25" stroke="rgb(0,0,0)" />
	<line x1="282.891" y1="970.585" x2="302.73" y2="781.829" stroke-width="0.25" stroke="rgb(0,0,0)" />
	<line x1="301.529" y1="781.829" x2="281.69" y2="970.585" stroke-width="0.25" stroke="rgb(0,0,0)" />
	<line x1="280.489" y1="970.585" x2="300.328" y2="781.829" stroke-width="0.25" stroke="rgb(0,0,0)" />
	<line x1="299.128" y1="781.829" x2="279.289" y2="970.585" stroke-width="0.25" stroke="rgb(0,0,0)" />
	<line x1="278.088" y1="970.585" x2="297.927" y2="781.829" stroke-width="0.25" stroke="rgb(0,0,0)" />
	<line x1="296.726" y1="781.829" x2="276.887" y2="970.585" stroke-width="0.25" stroke="rgb(0,0,0)" />
	<line x1="275.686" y1="970.585" x2="295.525" y2="781.829" stroke-width="0.25" stroke="rgb(0,0,0)" />
	<line x1="294.324" y1="781.829" x2="274.485" y2="970.585" stroke-width="0.25" stroke="rgb(0,0,0)" />
	<line x1="273.284" y1="970.585" x2="293.123" y2="781.829" stroke-width="0.25" stroke="rgb(0,0,0)" />
	<line x1="291.922" y1="781.829" x2="272.083" y2="970.585" stroke-width="0.25" stroke="rgb(0,0,0)" />
	<line x1="270.882" y1="970.585" x2="290.721" y2="781.829" stroke-width="0.25" stroke="rgb(0,0,0)" />
	<line x1="289.52" y1="781.829" x2="269.681" y2="970.585" stroke-width="0.25" stroke="rgb(0,0,0)" />
	<line x1="268.481" y1="970.585" x2="288.32" y2="781.829" stroke-width="0.25" stroke="rgb(0,0,0)" />
	<line x1="287.119" y1="781.829" x2="267.28" y2="970.585" stroke-width="0.25" stroke="rgb(0,0,0)" />
	<line x1="266.079" y1="970.585" x2="285.918" y2="781.829" stroke-width="0.25" stroke="rgb(0,0,0)" />
	<line x1="284.717" y1="781.829" x2="264.878" y2="970.585" stroke-width="0.25" stroke="rgb(0,0,0)" />
	<line x1="263.677" y1="970.585" x2="283.516" y2="781.829" stroke-width="0.25" stroke="rgb(0,0,0)" />
	<line x1="282.315" y1="781.829" x2="262.476" y2="970.585" stroke-width="0.25" stroke="rgb(0,0,0)" />
	<line x1="261.275" y1="970.585" x2="281.114" y2="781.829" stroke-width="0.25" stroke="rgb(0,0,0)" />
	<line x1="279.913" y1="781.829" x2="260.074" y2="970.585" stroke-width="0.25" stroke="rgb(0,0,0)" />
	<line x1="258.873" y1="970.585" x2="278.712" y2="781.829" stroke-width="0.25" stroke="rgb(0,0,0)" />
	<line x1="277.512" y1="781.829" x2="257.673" y2="970.585" stroke-width="0.25" stroke="rgb(0,0,0)" />
	<line x1="256.472" y1="970.585" x2="276.311" y2="781.829" stroke-width="0.25" stroke="rgb(0,0,0)" />
	<line x1="275.11" y1="781.829" x2="255.271" y2="970.585" stroke-width="0.25" stroke="rgb(0,0,0)" />
	<line x1="254.07" y1="970.585" x2="273.909" y2="781.829" stroke-width="0.25" stroke="rgb(0,0,0)" />
	<line x1="272.708" y1="781.829" x2="252.869" y2="970.585" stroke-width="0.25" stroke="rgb(0,0,0)" />
	<line x1="251.668" y1="970.585" x2="271.507" y2="781.829" stroke-width="0.25" stroke="rgb(0,0,0)" />
	<line x1="270.306" y1="781.829" x2="250.467" y2="970.585" stroke-width="0.25" stroke="rgb(0,0,0)" />
	<line x1="249.266" y1="970.585" x2="269.105" y2="781.829" stroke-width="0.25" stroke="rgb(0,0,0)" />
	<line x1="267.904" y1="781.829" x2="248.065" y2="970.585" stroke-width="0.25" stroke="rgb(0,0,0)" />
	<line x1="246.865" y1="970.585" x2="266.704" y2="781.829" stroke-width="0.25" stroke="rgb(0,0,0)" />
	<line x1="265.503" y1="781.829" x2="245.664" y2="970.585" stroke-width="0.25" stroke="rgb(0,0,0)" />
	<line x1="244.463" y1="970.585" x2="264.302" y2="781.829" stroke-width="0.25" stroke="rgb(0,0,0)" />
	<line x1="263.101" y1="781.829" x2="243.262" y2="970.585" stroke-width="0.25" stroke="rgb(0,0,0)" />
	<line x1="242.061" y1="970.585" x2="261.9" y2="781.829" stroke-width="0.25" stroke="rgb(0,0,0)" />
	<line x1="260.699" y1="781.829" x2="240.86" y2="970.585" stroke-width="0.25" stroke="rgb(0,0,0)" />
	<line x1="239.659" y1="970.585" x2="259.498" y2="781.829" stroke-width="0.25" stroke="rgb(0,0,0)" />
	<line x1="258.297" y1="781.829" x2="238.458" y2="970.585" stroke-width="0.25" stroke="rgb(0,0,0)" />
	<line x1="237.257" y1="970.585" x2="257.097" y2="781.829" stroke-width="0.25" stroke="rgb(0,0,0)" />
	<line x1="255.896" y1="781.829" x2="236.057" y2="970.585" stroke-width="0.25" stroke="rgb(0,0,0)" />
	<line x1="234.856" y1="970.585" x2="254.695" y2="781.829" stroke-width="0.25" stroke="rgb(0,0,0)" />
	<line x1="253.494" y1="781.829" x2="233.655" y2="970.585" stroke-width="0.25" stroke="rgb(0,0,0)" />
	<line x1="232.454" y1="970.585" x2="252.293" y2="781.829" stroke-width="0.25" stroke="rgb(0,0,0)" />
	<line x1="251.092" y1="781.829" x2="231.253" y2="970.585" stroke-width="0.25" stroke="rgb(0,0,0)" />
	<line x1="230.052" y1="970.585" x2="249.891" y2="781.829" stroke-width="0.25" stroke="rgb(0,0,0)" />
	<line x1="248.69" y1="781.829" x2="228.851" y2="970.585" stroke-width="0.25" stroke="rgb(0,0,0)" />
	<line x1="227.65" y1="970.585" x2="247.489" y2="781.829" stroke-width="0.25" stroke="rgb(0,0,0)" />
	<line x1="246.289" y1="781.829" x2="226.449" y2="970.585" stroke-width="0.25" stroke="rgb(0,0,0)" />
	<line x1="225.249" y1="970.585" x2="245.088" y2="781.829" stroke-width="0.25" stroke="rgb(0,0,0)" />
	<line x1="243.887" y1="781.829" x2="224.048" y2="970.585" stroke-width="0.25" stroke="rgb(0,0,0)" />
	<line x1="222.847" y1="970.585" x2="242.686" y2="781.829" stroke-width="0.25" stroke="rgb(0,0,0)" />
	<line x1="241.485" y1="781.829" x2="221.646" y2="970.585" stroke-width="0.25" stroke="rgb(0,0,0)" />
	<line x1="220.445" y1="970.585" x2="240.284" y2="781.829" stroke-width="0.25" stroke="rgb(0,0,0)" />
	<line x1="239.083" y1="781.829" x2="219.244" y2="970.585" stroke-width="0.25" stroke="rgb(0,0,0)" />
	<line x1="218.043" y1="970.585" x2="237.882" y2="781.829" stroke-width="0.25" stroke="rgb(0,0,0)" />
	<line x1="236.681" y1="781.829" x2="216.842" y2="970.585" stroke-width="0.25" stroke="rgb(0,0,0)" />
	<line x1="215.641" y1="970.585" x2="235.481" y2="781.829" stroke-width="0.25" stroke="rgb(0,0,0)" />
	<line x1="234.28" y1="781.829" x2="214.441" y2="970.585" stroke-width="0.25" stroke="rgb(0,0,0)" />
	<line x1="213.24" y1="970.585" x2="233.079" y2="781.829" stroke-width="0.25" stroke="rgb(0,0,0)" />
	<line x1="231.878" y1="781.829" x2="212.039" y2="970.585" stroke-width="0.25" stroke="rgb(0,0,0)" />
	<line x1="210.838" y1="970.585" x2="230.677" y2="781.829" stroke-width="0.25" stroke="rgb(0,0,0)" />
	<line x1="229.476" y1="781.829" x2="209.637" y2="970.585" stroke-width="0.25" stroke="rgb(0,0,0)" />
	<line x1="208.436" y1="970.585" x2="228.275" y2="781.829" stroke-width="0.25" stroke="rgb(0,0,0)" />
	<line x1="227.074" y1="781.829" x2="207.235" y2="970.585" stroke-width="0.25" stroke="rgb(0,0,0)" />
	<line x1="206.034" y1="970.585" x2="225.873" y2="781.829" stroke-width="0.25" stroke="rgb(0,0,0)" />
	<line x1="224.673" y1="781.829" x2="204.833" y2="970.585" stroke-width="0.25" stroke="rgb(0,0,0)" />
	<line x1="203.633" y1="970.585" x2="223.472" y2="781.829" stroke-width="0.25" stroke="rgb(0,0,0)" />
	<line x1="222.271" y1="781.829" x2="202.432" y2="970.585" stroke-width="0.25" stroke="rgb(0,0,0)" />
	<line x1="201.231" y1="970.585" x2="221.07" y2="781.829" stroke-width="0.25" stroke="rgb(0,0,0)" />
	<line x1="219.869" y1="781.829" x2="200.03" y2="970.585" stroke-width="0.25" stroke="rgb(0,0,0)" />
	<line x1="198.829" y1="970.585" x2="218.668" y2="781.829" stroke-width="0.25" stroke="rgb(0,0,0)" />
	<line x1="217.467" y1="781.829" x2="197.628" y2="970.585" stroke-width="0.25" stroke="rgb(0,0,0)" />
	<line x1="196.427" y1="970.585" x2="216.266" y2="781.829" stroke-width="0.25" stroke="rgb(0,0,0)" />
	<line x1="215.065" y1="781.829" x2="195.226" y2="970.585" stroke-width="0.25" stroke="rgb(0,0,0)" />
	<line x1="194.025" y1="970.585" x2="213.865" y2="781.829" stroke-width="0.25" stroke="rgb(0,0,0)" />
	<line x1="212.664" y1="781.829" x2="192.825" y2="970.585" stroke-width="0.25" stroke="rgb(0,0,0)" />
	<line x1="191.624" y1="970.585" x2="211.463" y2="781.829" stroke-width="0.25" stroke="rgb(0,0,0)" />
	<line x1="210.262" y1="781.829" x2="190.423" y2="970.585" stroke-width="0.25" stroke="rgb(0,0,0)" />
	<line x1="189.222" y1="970.585" x2="209.061" y2="781.829" stroke-width="0.25" stroke="rgb(0,0,0)" />
	<line x1="207.86" y1="781.829" x2="188.021" y2="970.585" stroke-width="0.25" stroke="rgb(0,0,0)" />
	<line x1="186.82" y1="970.585" x2="206.659" y2="781.829" stroke-width="0.25" stroke="rgb(0,0,0)" />
	<line x1="205.458" y1="781.829" x2="185.619" y2="970.585" stroke-width="0.25" stroke="rgb(0,0,0)" />
	<line x1="184.418" y1="970.585" x2="204.257" y2="781.829" stroke-width="0.25" stroke="rgb(0,0,0)" />
	<line x1="203.057" y1="781.829" x2="183.218" y2="970.585" stroke-width="0.25" stroke="rgb(0,0,0)" />
	<line x1="182.017" y1="970.585" x2="201.856" y2="781.829" stroke-width="0.25" stroke="rgb(0,0,0)" />
	<line x1="200.655" y1="781.829" x2="180.816" y2="970.585" stroke-width="0.25" stroke="rgb(0,0,0)" />
	<line x1="179.615" y1="970.585" x2="199.454" y2="781.829" stroke-width="0.25" stroke="rgb(0,0,0)" />
	<line x1="198.253" y1="781.829" x2="178.414" y2="970.585" stroke-width="0.25" stroke="rgb(0,0,0)" />
	<line x1="177.213" y1="970.585" x2="197.052" y2="781.829" stroke-width="0.25" stroke="rgb(0,0,0)" />
	<line x1="195.851" y1="781.829" x2="176.012" y2="970.585" stroke-width="0.25" stroke="rgb(0,0,0)" />
	<line x1="174.811" y1="970.585" x2="194.65" y2="781.829" stroke-width="0.25" stroke="rgb(0,0,0)" />
	<line x1="193.449" y1="781.829" x2="173.61" y2="970.585" stroke-width="0.25" stroke="rgb(0,0,0)" />
	<line x1="172.41" y1="970.585" x2="192.249" y2="781.829" stroke-width="0.25" stroke="rgb(0,0,0)" />
	<line x1="191.048" y1="781.829" x2="171.209" y2="970.585" stroke-width="0.25" stroke="rgb(0,0,0)" />
	<line x1="170.008" y1="970.585" x2="189.847" y2="781.829" stroke-width="0.25" stroke="rgb(0,0,0)" />
	<line x1="188.646" y1="781.829" x2="168.807" y2="970.585" stroke-width="0.25" stroke="rgb(0,0,0)" />
	<line x1="167.606" y1="970.585" x2="187.445" y2="781.829" stroke-width="0.25" stroke="rgb(0,0,0)" />
	<line x1="186.244" y1="781.829" x2="166.405" y2="970.585" stroke-width="0.25" stroke="rgb(0,0,0)" />
	<line x1="165.204" y1="970.585" x2="185.043" y2="781.829" stroke-width="0.25" stroke="rgb(0,0,0)" />
	<line x1="183.842" y1="781.829" x2="164.003" y2="970.585" stroke-width="0.25" stroke="rgb(0,0,0)" />
	<line x1="162.802" y1="970.585" x2="182.641" y2="781.829" stroke-width="0.25" stroke="rgb(0,0,0)" />
	<line x1="181.441" y1="781.829" x2="161.602" y2="970.585" stroke-width="0.25" stroke="rgb(0,0,0)" />
	<line x1="160.401" y1="970.585" x2="180.24" y2="781.829" stroke-width="0.25" stroke="rgb(0,0,0)" />
	<line x1="179.039" y1="781.829" x2="159.2" y2="970.585" stroke-width="0.25" stroke="rgb(0,0,0)" />
	<line x1="157.999" y1="970.585" x2="177.838" y2="781.829" stroke-width="0.25" stroke="rgb(0,0,0)" />
	<line x1="176.637" y1="781.829" x2="156.798" y2="970.585" stroke-width="0.25" stroke="rgb(0,0,0)" />
	<line x1="155.597" y1="970.585" x2="175.436" y2="781.829" stroke-width="0.25" stroke="rgb(0,0,0)" />
	<line x1="174.235" y1="781.829" x2="154.396" y2="970.585" stroke-width="0.25" stroke="rgb(0,0,0)" />
	<line x1="153.195" y1="970.585" x2="173.034" y2="781.829" stroke-width="0.25" stroke="rgb(0,0,0)" />
	<line x1="171.833" y1="781.829" x2="152.522" y2="965.562" stroke-width="0.25" stroke="rgb(0,0,0)" />
	<line x1="152.522" y1="954.136" x2="170.633" y2="781.829" stroke-width="0.25" stroke="rgb(0,0,0)" />
	<line x1="169.432" y1="781.829" x2="152.522" y2="942.711" stroke-width="0.25" stroke="rgb(0,0,0)" />
	<line x1="152.522" y1="931.285" x2="168.231" y2="781.829" stroke-width="0.25" stroke="rgb(0,0,0)" />
	<line x1="167.03" y1="781.829" x2="152.522" y2="919.859" stroke-width="0.25" stroke="rgb(0,0,0)" />
	<line x1="152.522" y1="908.434" x2="165.829" y2="781.829" stroke-width="0.25" stroke="rgb(0,0,0)" />
	<line x1="164.628" y1="781.829" x2="152.522" y2="897.008" stroke-width="0.25" stroke="rgb(0,0,0)" />
	<line x1="152.522" y1="885.582" x2="163.427" y2="781.829" stroke-width="0.25" stroke="rgb(0,0,0)" />
	<line x1="162.226" y1="781.829" x2="152.522" y2="874.157" stroke-width="0.25" stroke="rgb(0,0,0)" />
	<line x1="152.522" y1="862.731" x2="161.025" y2="781.829" stroke-width="0.25" stroke="rgb(0,0,0)" />
	<line x1="159.825" y1="781.829" x2="152.522" y2="851.305" stroke-width="0.25" stroke="rgb(0,0,0)" />
	<line x1="152.522" y1="839.88" x2="158.624" y2="781.829" stroke-width="0.25" stroke="rgb(0,0,0)" />
	<line x1="157.423" y1="781.829" x2="152.522" y2="828.454" stroke-width="0.25" stroke="rgb(0,0,0)" />
	<line x1="152.522" y1="817.028" x2="156.222" y2="781.829" stroke-width="0.25" stroke="rgb(0,0,0)" />
	<line x1="155.021" y1="781.829" x2="152.522" y2="805.603" stroke-width="0.25" stroke="rgb(0,0,0)" />
	<line x1="152.522" y1="794.177" x2="153.82" y2="781.829" stroke-width="0.25" stroke="rgb(0,0,0)" />
	<line x1="152.619" y1="781.829" x2="152.522" y2="782.751" stroke-width="0.25" stroke="rgb(0,0,0)" />
</svg>
