<?xml version="1.0" standalone="no" ?>
<!DOCTYPE svg PUBLIC "-//W3C//DTD SVG 1.1//EN" "http://www.w3.org/Graphics/SVG/1.1/DTD/svg11.dtd">
<svg width="2000px" height="2000px" xmlns="http://www.w3.org/2000/svg" version="1.1" >
	<line x1="352.898" y1="1366.3" x2="149.999" y2="1366.3" stroke-width="0.25" stroke="rgb(0,0,0)" />
	<line x1="149.999" y1="1366.3" x2="149.999" y2="1569.2" stroke-width="0.25" stroke="rgb(0,0,0)" />
	<line x1="149.999" y1="1569.2" x2="352.898" y2="1569.2" stroke-width="0.25" stroke="rgb(0,0,0)" />
	<line x1="352.898" y1="1569.2" x2="352.898" y2="1366.3" stroke-width="0.25" stroke="rgb(0,0,0)" />
	<line x1="237.018" y1="1515.78" x2="229.28" y2="1514.01" stroke-width="0.25" stroke="rgb(0,0,0)" />
	<line x1="229.28" y1="1514.01" x2="216.185" y2="1506.45" stroke-width="0.25" stroke="rgb(0,0,0)" />
	<line x1="216.185" y1="1506.45" x2="205.902" y2="1495.37" stroke-width="0.25" stroke="rgb(0,0,0)" />
	<line x1="205.902" y1="1495.37" x2="199.34" y2="1481.75" stroke-width="0.25" stroke="rgb(0,0,0)" />
	<line x1="199.34" y1="1481.75" x2="197.088" y2="1466.79" stroke-width="0.25" stroke="rgb(0,0,0)" />
	<line x1="197.088" y1="1466.79" x2="199.34" y2="1451.85" stroke-width="0.25" stroke="rgb(0,0,0)" />
	<line x1="199.34" y1="1451.85" x2="205.902" y2="1438.22" stroke-width="0.25" stroke="rgb(0,0,0)" />
	<line x1="205.902" y1="1438.22" x2="216.185" y2="1427.14" stroke-width="0.25" stroke="rgb(0,0,0)" />
	<line x1="216.185" y1="1427.14" x2="222.405" y2="1423.55" stroke-width="0.25" stroke="rgb(0,0,0)" />
	<line x1="222.405" y1="1423.55" x2="229.28" y2="1419.58" stroke-width="0.25" stroke="rgb(0,0,0)" />
	<line x1="229.28" y1="1419.58" x2="244.018" y2="1416.21" stroke-width="0.25" stroke="rgb(0,0,0)" />
	<line x1="244.018" y1="1416.21" x2="259.098" y2="1417.34" stroke-width="0.25" stroke="rgb(0,0,0)" />
	<line x1="259.098" y1="1417.34" x2="273.175" y2="1422.87" stroke-width="0.25" stroke="rgb(0,0,0)" />
	<line x1="273.175" y1="1422.87" x2="287.646" y2="1434.41" stroke-width="0.25" stroke="rgb(0,0,0)" />
	<line x1="287.646" y1="1434.41" x2="293.513" y2="1444.79" stroke-width="0.25" stroke="rgb(0,0,0)" />
	<line x1="293.513" y1="1444.79" x2="297.969" y2="1459.23" stroke-width="0.25" stroke="rgb(0,0,0)" />
	<line x1="297.969" y1="1459.23" x2="297.969" y2="1474.35" stroke-width="0.25" stroke="rgb(0,0,0)" />
	<line x1="297.969" y1="1474.35" x2="293.513" y2="1488.81" stroke-width="0.25" stroke="rgb(0,0,0)" />
	<line x1="293.513" y1="1488.81" x2="284.996" y2="1501.3" stroke-width="0.25" stroke="rgb(0,0,0)" />
	<line x1="284.996" y1="1501.3" x2="273.175" y2="1510.73" stroke-width="0.25" stroke="rgb(0,0,0)" />
	<line x1="273.175" y1="1510.73" x2="259.098" y2="1516.25" stroke-width="0.25" stroke="rgb(0,0,0)" />
	<line x1="259.098" y1="1516.25" x2="244.022" y2="1517.38" stroke-width="0.25" stroke="rgb(0,0,0)" />
	<line x1="244.022" y1="1517.38" x2="237.018" y2="1515.78" stroke-width="0.25" stroke="rgb(0,0,0)" />
	<line x1="352.898" y1="960.505" x2="149.999" y2="960.505" stroke-width="0.25" stroke="rgb(0,0,0)" />
	<line x1="149.999" y1="960.505" x2="149.999" y2="1163.4" stroke-width="0.25" stroke="rgb(0,0,0)" />
	<line x1="149.999" y1="1163.4" x2="352.898" y2="1163.4" stroke-width="0.25" stroke="rgb(0,0,0)" />
	<line x1="352.898" y1="1163.4" x2="352.898" y2="960.505" stroke-width="0.25" stroke="rgb(0,0,0)" />
	<line x1="237.018" y1="1109.98" x2="229.28" y2="1108.22" stroke-width="0.25" stroke="rgb(0,0,0)" />
	<line x1="229.28" y1="1108.22" x2="216.185" y2="1100.66" stroke-width="0.25" stroke="rgb(0,0,0)" />
	<line x1="216.185" y1="1100.66" x2="205.902" y2="1089.57" stroke-width="0.25" stroke="rgb(0,0,0)" />
	<line x1="205.902" y1="1089.57" x2="199.34" y2="1075.95" stroke-width="0.25" stroke="rgb(0,0,0)" />
	<line x1="199.34" y1="1075.95" x2="197.088" y2="1061" stroke-width="0.25" stroke="rgb(0,0,0)" />
	<line x1="197.088" y1="1061" x2="199.34" y2="1046.05" stroke-width="0.25" stroke="rgb(0,0,0)" />
	<line x1="199.34" y1="1046.05" x2="205.902" y2="1032.42" stroke-width="0.25" stroke="rgb(0,0,0)" />
	<line x1="205.902" y1="1032.42" x2="216.185" y2="1021.34" stroke-width="0.25" stroke="rgb(0,0,0)" />
	<line x1="216.185" y1="1021.34" x2="222.405" y2="1017.75" stroke-width="0.25" stroke="rgb(0,0,0)" />
	<line x1="222.405" y1="1017.75" x2="229.28" y2="1013.78" stroke-width="0.25" stroke="rgb(0,0,0)" />
	<line x1="229.28" y1="1013.78" x2="244.018" y2="1010.41" stroke-width="0.25" stroke="rgb(0,0,0)" />
	<line x1="244.018" y1="1010.41" x2="259.098" y2="1011.55" stroke-width="0.25" stroke="rgb(0,0,0)" />
	<line x1="259.098" y1="1011.55" x2="273.175" y2="1017.07" stroke-width="0.25" stroke="rgb(0,0,0)" />
	<line x1="273.175" y1="1017.07" x2="287.646" y2="1028.61" stroke-width="0.25" stroke="rgb(0,0,0)" />
	<line x1="287.646" y1="1028.61" x2="293.513" y2="1038.99" stroke-width="0.25" stroke="rgb(0,0,0)" />
	<line x1="293.513" y1="1038.99" x2="297.969" y2="1053.44" stroke-width="0.25" stroke="rgb(0,0,0)" />
	<line x1="297.969" y1="1053.44" x2="297.969" y2="1068.56" stroke-width="0.25" stroke="rgb(0,0,0)" />
	<line x1="297.969" y1="1068.56" x2="293.513" y2="1083.01" stroke-width="0.25" stroke="rgb(0,0,0)" />
	<line x1="293.513" y1="1083.01" x2="284.996" y2="1095.5" stroke-width="0.25" stroke="rgb(0,0,0)" />
	<line x1="284.996" y1="1095.5" x2="273.175" y2="1104.93" stroke-width="0.25" stroke="rgb(0,0,0)" />
	<line x1="273.175" y1="1104.93" x2="259.098" y2="1110.45" stroke-width="0.25" stroke="rgb(0,0,0)" />
	<line x1="259.098" y1="1110.45" x2="244.022" y2="1111.58" stroke-width="0.25" stroke="rgb(0,0,0)" />
	<line x1="244.022" y1="1111.58" x2="237.018" y2="1109.98" stroke-width="0.25" stroke="rgb(0,0,0)" />
	<line x1="1550" y1="1699.06" x2="1347.1" y2="1699.06" stroke-width="0.25" stroke="rgb(0,0,0)" />
	<line x1="1347.1" y1="1699.06" x2="1347.1" y2="1901.96" stroke-width="0.25" stroke="rgb(0,0,0)" />
	<line x1="1347.1" y1="1901.96" x2="1550" y2="1901.96" stroke-width="0.25" stroke="rgb(0,0,0)" />
	<line x1="1550" y1="1901.96" x2="1550" y2="1699.06" stroke-width="0.25" stroke="rgb(0,0,0)" />
	<line x1="1550" y1="887.461" x2="1347.1" y2="887.461" stroke-width="0.25" stroke="rgb(0,0,0)" />
	<line x1="1347.1" y1="887.461" x2="1347.1" y2="1090.36" stroke-width="0.25" stroke="rgb(0,0,0)" />
	<line x1="1347.1" y1="1090.36" x2="1550" y2="1090.36" stroke-width="0.25" stroke="rgb(0,0,0)" />
	<line x1="1550" y1="1090.36" x2="1550" y2="887.461" stroke-width="0.25" stroke="rgb(0,0,0)" />
	<line x1="1550" y1="1293.26" x2="1347.1" y2="1293.26" stroke-width="0.25" stroke="rgb(0,0,0)" />
	<line x1="1347.1" y1="1293.26" x2="1347.1" y2="1496.16" stroke-width="0.25" stroke="rgb(0,0,0)" />
	<line x1="1347.1" y1="1496.16" x2="1550" y2="1496.16" stroke-width="0.25" stroke="rgb(0,0,0)" />
	<line x1="1550" y1="1496.16" x2="1550" y2="1293.26" stroke-width="0.25" stroke="rgb(0,0,0)" />
	<line x1="330.52" y1="1559.06" x2="342.753" y2="1550.17" stroke-width="0.25" stroke="rgb(0,0,0)" />
	<line x1="342.753" y1="1525.09" x2="296" y2="1559.06" stroke-width="0.25" stroke="rgb(0,0,0)" />
	<line x1="261.481" y1="1559.06" x2="342.753" y2="1500.01" stroke-width="0.25" stroke="rgb(0,0,0)" />
	<line x1="342.753" y1="1474.93" x2="226.962" y2="1559.06" stroke-width="0.25" stroke="rgb(0,0,0)" />
	<line x1="192.443" y1="1559.06" x2="237.529" y2="1526.3" stroke-width="0.25" stroke="rgb(0,0,0)" />
	<line x1="342.753" y1="1424.77" x2="306.156" y2="1451.36" stroke-width="0.25" stroke="rgb(0,0,0)" />
	<line x1="160.144" y1="1532.36" x2="199.713" y2="1503.62" stroke-width="0.25" stroke="rgb(0,0,0)" />
	<line x1="340.225" y1="1376.45" x2="283.196" y2="1417.88" stroke-width="0.25" stroke="rgb(0,0,0)" />
	<line x1="160.144" y1="1482.2" x2="187.502" y2="1462.33" stroke-width="0.25" stroke="rgb(0,0,0)" />
	<line x1="271.186" y1="1376.45" x2="222.794" y2="1411.61" stroke-width="0.25" stroke="rgb(0,0,0)" />
	<line x1="160.144" y1="1432.05" x2="236.667" y2="1376.45" stroke-width="0.25" stroke="rgb(0,0,0)" />
	<line x1="202.148" y1="1376.45" x2="160.144" y2="1406.97" stroke-width="0.25" stroke="rgb(0,0,0)" />
	<line x1="160.144" y1="1381.89" x2="167.629" y2="1376.45" stroke-width="0.25" stroke="rgb(0,0,0)" />
	<line x1="192.443" y1="1559.06" x2="237.529" y2="1526.3" stroke-width="0.25" stroke="rgb(0,0,0)" />
	<line x1="308.114" y1="1475.02" x2="342.753" y2="1449.85" stroke-width="0.25" stroke="rgb(0,0,0)" />
	<line x1="215.08" y1="1517.53" x2="160.144" y2="1557.44" stroke-width="0.25" stroke="rgb(0,0,0)" />
	<line x1="298.038" y1="1432.18" x2="342.753" y2="1399.69" stroke-width="0.25" stroke="rgb(0,0,0)" />
	<line x1="189.949" y1="1485.63" x2="160.144" y2="1507.28" stroke-width="0.25" stroke="rgb(0,0,0)" />
	<line x1="262.553" y1="1407.8" x2="305.706" y2="1376.45" stroke-width="0.25" stroke="rgb(0,0,0)" />
	<line x1="204.265" y1="1425.07" x2="160.144" y2="1457.13" stroke-width="0.25" stroke="rgb(0,0,0)" />
	<line x1="192.443" y1="1559.06" x2="237.529" y2="1526.3" stroke-width="0.25" stroke="rgb(0,0,0)" />
	<line x1="308.114" y1="1475.02" x2="342.753" y2="1449.85" stroke-width="0.25" stroke="rgb(0,0,0)" />
	<line x1="215.08" y1="1517.53" x2="160.144" y2="1557.44" stroke-width="0.25" stroke="rgb(0,0,0)" />
	<line x1="298.038" y1="1432.18" x2="342.753" y2="1399.69" stroke-width="0.25" stroke="rgb(0,0,0)" />
	<line x1="189.949" y1="1485.63" x2="160.144" y2="1507.28" stroke-width="0.25" stroke="rgb(0,0,0)" />
	<line x1="262.553" y1="1407.8" x2="305.706" y2="1376.45" stroke-width="0.25" stroke="rgb(0,0,0)" />
	<line x1="169.927" y1="1153.26" x2="160.144" y2="1097.78" stroke-width="0.25" stroke="rgb(0,0,0)" />
	<line x1="160.144" y1="980.931" x2="190.53" y2="1153.26" stroke-width="0.25" stroke="rgb(0,0,0)" />
	<line x1="211.133" y1="1153.26" x2="201.743" y2="1100.01" stroke-width="0.25" stroke="rgb(0,0,0)" />
	<line x1="199.537" y1="970.65" x2="207.496" y2="1015.79" stroke-width="0.25" stroke="rgb(0,0,0)" />
	<line x1="252.339" y1="1153.26" x2="246.747" y2="1121.55" stroke-width="0.25" stroke="rgb(0,0,0)" />
	<line x1="240.743" y1="970.65" x2="245.986" y2="1000.39" stroke-width="0.25" stroke="rgb(0,0,0)" />
	<line x1="293.544" y1="1153.26" x2="285.568" y2="1108.02" stroke-width="0.25" stroke="rgb(0,0,0)" />
	<line x1="281.948" y1="970.65" x2="290.246" y2="1017.71" stroke-width="0.25" stroke="rgb(0,0,0)" />
	<line x1="211.133" y1="1153.26" x2="201.743" y2="1100.01" stroke-width="0.25" stroke="rgb(0,0,0)" />
	<line x1="191.117" y1="1039.74" x2="178.934" y2="970.65" stroke-width="0.25" stroke="rgb(0,0,0)" />
	<line x1="225.471" y1="1117.73" x2="231.736" y2="1153.26" stroke-width="0.25" stroke="rgb(0,0,0)" />
	<line x1="226.04" y1="1004.11" x2="220.14" y2="970.65" stroke-width="0.25" stroke="rgb(0,0,0)" />
	<line x1="266.783" y1="1118.33" x2="272.942" y2="1153.26" stroke-width="0.25" stroke="rgb(0,0,0)" />
	<line x1="267.195" y1="1003.82" x2="261.346" y2="970.65" stroke-width="0.25" stroke="rgb(0,0,0)" />
	<line x1="302.589" y1="1087.71" x2="314.147" y2="1153.26" stroke-width="0.25" stroke="rgb(0,0,0)" />
	<line x1="334.75" y1="1153.26" x2="302.551" y2="970.65" stroke-width="0.25" stroke="rgb(0,0,0)" />
	<line x1="323.154" y1="970.65" x2="342.753" y2="1081.8" stroke-width="0.25" stroke="rgb(0,0,0)" />
	<line x1="334.75" y1="1153.26" x2="302.551" y2="970.65" stroke-width="0.25" stroke="rgb(0,0,0)" />
	<line x1="352.898" y1="1772.1" x2="149.999" y2="1772.1" stroke-width="0.25" stroke="rgb(0,0,0)" />
	<line x1="149.999" y1="1772.1" x2="149.999" y2="1975" stroke-width="0.25" stroke="rgb(0,0,0)" />
	<line x1="149.999" y1="1975" x2="352.898" y2="1975" stroke-width="0.25" stroke="rgb(0,0,0)" />
	<line x1="352.898" y1="1975" x2="352.898" y2="1772.1" stroke-width="0.25" stroke="rgb(0,0,0)" />
	<line x1="237.018" y1="1921.58" x2="229.28" y2="1919.81" stroke-width="0.25" stroke="rgb(0,0,0)" />
	<line x1="229.28" y1="1919.81" x2="216.185" y2="1912.25" stroke-width="0.25" stroke="rgb(0,0,0)" />
	<line x1="216.185" y1="1912.25" x2="205.902" y2="1901.17" stroke-width="0.25" stroke="rgb(0,0,0)" />
	<line x1="205.902" y1="1901.17" x2="199.34" y2="1887.55" stroke-width="0.25" stroke="rgb(0,0,0)" />
	<line x1="199.34" y1="1887.55" x2="197.088" y2="1872.59" stroke-width="0.25" stroke="rgb(0,0,0)" />
	<line x1="197.088" y1="1872.59" x2="199.34" y2="1857.64" stroke-width="0.25" stroke="rgb(0,0,0)" />
	<line x1="199.34" y1="1857.64" x2="205.902" y2="1844.02" stroke-width="0.25" stroke="rgb(0,0,0)" />
	<line x1="205.902" y1="1844.02" x2="216.185" y2="1832.93" stroke-width="0.25" stroke="rgb(0,0,0)" />
	<line x1="216.185" y1="1832.93" x2="222.405" y2="1829.34" stroke-width="0.25" stroke="rgb(0,0,0)" />
	<line x1="222.405" y1="1829.34" x2="229.28" y2="1825.37" stroke-width="0.25" stroke="rgb(0,0,0)" />
	<line x1="229.28" y1="1825.37" x2="244.018" y2="1822.01" stroke-width="0.25" stroke="rgb(0,0,0)" />
	<line x1="244.018" y1="1822.01" x2="259.098" y2="1823.14" stroke-width="0.25" stroke="rgb(0,0,0)" />
	<line x1="259.098" y1="1823.14" x2="273.175" y2="1828.67" stroke-width="0.25" stroke="rgb(0,0,0)" />
	<line x1="273.175" y1="1828.67" x2="287.646" y2="1840.21" stroke-width="0.25" stroke="rgb(0,0,0)" />
	<line x1="287.646" y1="1840.21" x2="293.513" y2="1850.59" stroke-width="0.25" stroke="rgb(0,0,0)" />
	<line x1="293.513" y1="1850.59" x2="297.969" y2="1865.03" stroke-width="0.25" stroke="rgb(0,0,0)" />
	<line x1="297.969" y1="1865.03" x2="297.969" y2="1880.15" stroke-width="0.25" stroke="rgb(0,0,0)" />
	<line x1="297.969" y1="1880.15" x2="293.513" y2="1894.6" stroke-width="0.25" stroke="rgb(0,0,0)" />
	<line x1="293.513" y1="1894.6" x2="284.996" y2="1907.09" stroke-width="0.25" stroke="rgb(0,0,0)" />
	<line x1="284.996" y1="1907.09" x2="273.175" y2="1916.52" stroke-width="0.25" stroke="rgb(0,0,0)" />
	<line x1="273.175" y1="1916.52" x2="259.098" y2="1922.05" stroke-width="0.25" stroke="rgb(0,0,0)" />
	<line x1="259.098" y1="1922.05" x2="244.022" y2="1923.18" stroke-width="0.25" stroke="rgb(0,0,0)" />
	<line x1="244.022" y1="1923.18" x2="237.018" y2="1921.58" stroke-width="0.25" stroke="rgb(0,0,0)" />
	<line x1="342.753" y1="1782.25" x2="160.144" y2="1782.25" stroke-width="0.25" stroke="rgb(0,0,0)" />
	<line x1="160.144" y1="1782.25" x2="160.144" y2="1964.86" stroke-width="0.25" stroke="rgb(0,0,0)" />
	<line x1="160.144" y1="1964.86" x2="342.753" y2="1964.86" stroke-width="0.25" stroke="rgb(0,0,0)" />
	<line x1="342.753" y1="1964.86" x2="342.753" y2="1782.25" stroke-width="0.25" stroke="rgb(0,0,0)" />
	<line x1="234.762" y1="1931.47" x2="225.53" y2="1929.36" stroke-width="0.25" stroke="rgb(0,0,0)" />
	<line x1="225.53" y1="1929.36" x2="209.789" y2="1920.27" stroke-width="0.25" stroke="rgb(0,0,0)" />
	<line x1="209.789" y1="1920.27" x2="197.425" y2="1906.95" stroke-width="0.25" stroke="rgb(0,0,0)" />
	<line x1="197.425" y1="1906.95" x2="189.536" y2="1890.57" stroke-width="0.25" stroke="rgb(0,0,0)" />
	<line x1="189.536" y1="1890.57" x2="186.829" y2="1872.59" stroke-width="0.25" stroke="rgb(0,0,0)" />
	<line x1="186.829" y1="1872.59" x2="189.536" y2="1854.62" stroke-width="0.25" stroke="rgb(0,0,0)" />
	<line x1="189.536" y1="1854.62" x2="197.425" y2="1838.24" stroke-width="0.25" stroke="rgb(0,0,0)" />
	<line x1="197.425" y1="1838.24" x2="209.789" y2="1824.91" stroke-width="0.25" stroke="rgb(0,0,0)" />
	<line x1="209.789" y1="1824.91" x2="217.333" y2="1820.56" stroke-width="0.25" stroke="rgb(0,0,0)" />
	<line x1="217.333" y1="1820.56" x2="225.53" y2="1815.83" stroke-width="0.25" stroke="rgb(0,0,0)" />
	<line x1="225.53" y1="1815.83" x2="243.251" y2="1811.78" stroke-width="0.25" stroke="rgb(0,0,0)" />
	<line x1="243.251" y1="1811.78" x2="261.382" y2="1813.14" stroke-width="0.25" stroke="rgb(0,0,0)" />
	<line x1="261.382" y1="1813.14" x2="278.304" y2="1819.78" stroke-width="0.25" stroke="rgb(0,0,0)" />
	<line x1="278.304" y1="1819.78" x2="295.51" y2="1833.5" stroke-width="0.25" stroke="rgb(0,0,0)" />
	<line x1="295.51" y1="1833.5" x2="302.883" y2="1846.55" stroke-width="0.25" stroke="rgb(0,0,0)" />
	<line x1="302.883" y1="1846.55" x2="308.114" y2="1863.5" stroke-width="0.25" stroke="rgb(0,0,0)" />
	<line x1="308.114" y1="1863.5" x2="308.114" y2="1881.68" stroke-width="0.25" stroke="rgb(0,0,0)" />
	<line x1="308.114" y1="1881.68" x2="302.757" y2="1899.06" stroke-width="0.25" stroke="rgb(0,0,0)" />
	<line x1="302.757" y1="1899.06" x2="292.515" y2="1914.07" stroke-width="0.25" stroke="rgb(0,0,0)" />
	<line x1="292.515" y1="1914.07" x2="278.304" y2="1925.41" stroke-width="0.25" stroke="rgb(0,0,0)" />
	<line x1="278.304" y1="1925.41" x2="261.378" y2="1932.05" stroke-width="0.25" stroke="rgb(0,0,0)" />
	<line x1="261.378" y1="1932.05" x2="243.255" y2="1933.41" stroke-width="0.25" stroke="rgb(0,0,0)" />
	<line x1="243.255" y1="1933.41" x2="234.762" y2="1931.47" stroke-width="0.25" stroke="rgb(0,0,0)" />
	<line x1="332.608" y1="1792.39" x2="170.289" y2="1792.39" stroke-width="0.25" stroke="rgb(0,0,0)" />
	<line x1="170.289" y1="1792.39" x2="170.289" y2="1954.71" stroke-width="0.25" stroke="rgb(0,0,0)" />
	<line x1="170.289" y1="1954.71" x2="332.608" y2="1954.71" stroke-width="0.25" stroke="rgb(0,0,0)" />
	<line x1="332.608" y1="1954.71" x2="332.608" y2="1792.39" stroke-width="0.25" stroke="rgb(0,0,0)" />
	<line x1="232.502" y1="1941.36" x2="221.785" y2="1938.91" stroke-width="0.25" stroke="rgb(0,0,0)" />
	<line x1="221.785" y1="1938.91" x2="203.39" y2="1928.29" stroke-width="0.25" stroke="rgb(0,0,0)" />
	<line x1="203.39" y1="1928.29" x2="188.947" y2="1912.73" stroke-width="0.25" stroke="rgb(0,0,0)" />
	<line x1="188.947" y1="1912.73" x2="179.732" y2="1893.59" stroke-width="0.25" stroke="rgb(0,0,0)" />
	<line x1="179.732" y1="1893.59" x2="176.571" y2="1872.59" stroke-width="0.25" stroke="rgb(0,0,0)" />
	<line x1="176.571" y1="1872.59" x2="179.732" y2="1851.6" stroke-width="0.25" stroke="rgb(0,0,0)" />
	<line x1="179.732" y1="1851.6" x2="188.947" y2="1832.46" stroke-width="0.25" stroke="rgb(0,0,0)" />
	<line x1="188.947" y1="1832.46" x2="203.39" y2="1816.89" stroke-width="0.25" stroke="rgb(0,0,0)" />
	<line x1="203.39" y1="1816.89" x2="212.26" y2="1811.77" stroke-width="0.25" stroke="rgb(0,0,0)" />
	<line x1="212.26" y1="1811.77" x2="221.785" y2="1806.27" stroke-width="0.25" stroke="rgb(0,0,0)" />
	<line x1="221.785" y1="1806.27" x2="242.484" y2="1801.55" stroke-width="0.25" stroke="rgb(0,0,0)" />
	<line x1="242.484" y1="1801.55" x2="263.663" y2="1803.14" stroke-width="0.25" stroke="rgb(0,0,0)" />
	<line x1="263.663" y1="1803.14" x2="283.433" y2="1810.9" stroke-width="0.25" stroke="rgb(0,0,0)" />
	<line x1="283.433" y1="1810.9" x2="303.374" y2="1826.79" stroke-width="0.25" stroke="rgb(0,0,0)" />
	<line x1="303.374" y1="1826.79" x2="312.257" y2="1842.51" stroke-width="0.25" stroke="rgb(0,0,0)" />
	<line x1="312.257" y1="1842.51" x2="318.259" y2="1861.97" stroke-width="0.25" stroke="rgb(0,0,0)" />
	<line x1="318.259" y1="1861.97" x2="318.259" y2="1883.21" stroke-width="0.25" stroke="rgb(0,0,0)" />
	<line x1="318.259" y1="1883.21" x2="312.002" y2="1903.51" stroke-width="0.25" stroke="rgb(0,0,0)" />
	<line x1="312.002" y1="1903.51" x2="300.039" y2="1921.05" stroke-width="0.25" stroke="rgb(0,0,0)" />
	<line x1="300.039" y1="1921.05" x2="283.433" y2="1934.29" stroke-width="0.25" stroke="rgb(0,0,0)" />
	<line x1="283.433" y1="1934.29" x2="263.663" y2="1942.05" stroke-width="0.25" stroke="rgb(0,0,0)" />
	<line x1="263.663" y1="1942.05" x2="242.488" y2="1943.64" stroke-width="0.25" stroke="rgb(0,0,0)" />
	<line x1="242.488" y1="1943.64" x2="232.502" y2="1941.36" stroke-width="0.25" stroke="rgb(0,0,0)" />
	<line x1="1357.25" y1="1731.08" x2="1391.59" y2="1709.2" stroke-width="0.25" stroke="rgb(0,0,0)" />
	<line x1="1429.36" y1="1709.2" x2="1357.25" y2="1755.14" stroke-width="0.25" stroke="rgb(0,0,0)" />
	<line x1="1357.25" y1="1779.2" x2="1467.12" y2="1709.2" stroke-width="0.25" stroke="rgb(0,0,0)" />
	<line x1="1504.88" y1="1709.2" x2="1357.25" y2="1803.26" stroke-width="0.25" stroke="rgb(0,0,0)" />
	<line x1="1357.25" y1="1827.31" x2="1539.86" y2="1710.98" stroke-width="0.25" stroke="rgb(0,0,0)" />
	<line x1="1539.86" y1="1735.04" x2="1357.25" y2="1851.37" stroke-width="0.25" stroke="rgb(0,0,0)" />
	<line x1="1357.25" y1="1875.43" x2="1539.86" y2="1759.09" stroke-width="0.25" stroke="rgb(0,0,0)" />
	<line x1="1539.86" y1="1783.15" x2="1369.29" y2="1891.81" stroke-width="0.25" stroke="rgb(0,0,0)" />
	<line x1="1407.06" y1="1891.81" x2="1539.86" y2="1807.21" stroke-width="0.25" stroke="rgb(0,0,0)" />
	<line x1="1539.86" y1="1831.27" x2="1444.82" y2="1891.81" stroke-width="0.25" stroke="rgb(0,0,0)" />
	<line x1="1482.58" y1="1891.81" x2="1539.86" y2="1855.32" stroke-width="0.25" stroke="rgb(0,0,0)" />
	<line x1="1539.86" y1="1879.38" x2="1520.35" y2="1891.81" stroke-width="0.25" stroke="rgb(0,0,0)" />
	<line x1="1357.25" y1="1731.08" x2="1391.59" y2="1709.2" stroke-width="0.25" stroke="rgb(0,0,0)" />
	<line x1="1429.36" y1="1709.2" x2="1357.25" y2="1755.14" stroke-width="0.25" stroke="rgb(0,0,0)" />
	<line x1="1357.25" y1="1779.2" x2="1467.12" y2="1709.2" stroke-width="0.25" stroke="rgb(0,0,0)" />
	<line x1="1504.88" y1="1709.2" x2="1357.25" y2="1803.26" stroke-width="0.25" stroke="rgb(0,0,0)" />
	<line x1="1357.25" y1="1827.31" x2="1539.86" y2="1710.98" stroke-width="0.25" stroke="rgb(0,0,0)" />
	<line x1="1539.86" y1="1735.04" x2="1357.25" y2="1851.37" stroke-width="0.25" stroke="rgb(0,0,0)" />
	<line x1="1357.25" y1="1875.43" x2="1539.86" y2="1759.09" stroke-width="0.25" stroke="rgb(0,0,0)" />
	<line x1="1539.86" y1="1783.15" x2="1369.29" y2="1891.81" stroke-width="0.25" stroke="rgb(0,0,0)" />
	<line x1="1407.06" y1="1891.81" x2="1539.86" y2="1807.21" stroke-width="0.25" stroke="rgb(0,0,0)" />
	<line x1="1539.86" y1="1831.27" x2="1444.82" y2="1891.81" stroke-width="0.25" stroke="rgb(0,0,0)" />
	<line x1="1482.58" y1="1891.81" x2="1539.86" y2="1855.32" stroke-width="0.25" stroke="rgb(0,0,0)" />
	<line x1="1357.25" y1="906.844" x2="1363.8" y2="897.606" stroke-width="0.25" stroke="rgb(0,0,0)" />
	<line x1="1388.68" y1="897.606" x2="1357.25" y2="941.913" stroke-width="0.25" stroke="rgb(0,0,0)" />
	<line x1="1357.25" y1="976.982" x2="1413.55" y2="897.606" stroke-width="0.25" stroke="rgb(0,0,0)" />
	<line x1="1438.43" y1="897.606" x2="1357.25" y2="1012.05" stroke-width="0.25" stroke="rgb(0,0,0)" />
	<line x1="1357.25" y1="1047.12" x2="1463.31" y2="897.606" stroke-width="0.25" stroke="rgb(0,0,0)" />
	<line x1="1488.18" y1="897.606" x2="1358.65" y2="1080.22" stroke-width="0.25" stroke="rgb(0,0,0)" />
	<line x1="1383.52" y1="1080.22" x2="1513.06" y2="897.606" stroke-width="0.25" stroke="rgb(0,0,0)" />
	<line x1="1537.93" y1="897.606" x2="1408.4" y2="1080.22" stroke-width="0.25" stroke="rgb(0,0,0)" />
	<line x1="1433.28" y1="1080.22" x2="1539.86" y2="929.965" stroke-width="0.25" stroke="rgb(0,0,0)" />
	<line x1="1539.86" y1="965.034" x2="1458.15" y2="1080.22" stroke-width="0.25" stroke="rgb(0,0,0)" />
	<line x1="1483.03" y1="1080.22" x2="1539.86" y2="1000.1" stroke-width="0.25" stroke="rgb(0,0,0)" />
	<line x1="1539.86" y1="1035.17" x2="1507.91" y2="1080.22" stroke-width="0.25" stroke="rgb(0,0,0)" />
	<line x1="1357.25" y1="1327.67" x2="1374.46" y2="1303.4" stroke-width="0.25" stroke="rgb(0,0,0)" />
	<line x1="1532.78" y1="1080.22" x2="1539.86" y2="1070.24" stroke-width="0.25" stroke="rgb(0,0,0)" />
	<line x1="1399.34" y1="1303.4" x2="1357.25" y2="1362.74" stroke-width="0.25" stroke="rgb(0,0,0)" />
	<line x1="1357.25" y1="1397.81" x2="1424.22" y2="1303.4" stroke-width="0.25" stroke="rgb(0,0,0)" />
	<line x1="1449.09" y1="1303.4" x2="1357.25" y2="1432.88" stroke-width="0.25" stroke="rgb(0,0,0)" />
	<line x1="1357.25" y1="1467.95" x2="1473.97" y2="1303.4" stroke-width="0.25" stroke="rgb(0,0,0)" />
	<line x1="1498.84" y1="1303.4" x2="1369.31" y2="1486.01" stroke-width="0.25" stroke="rgb(0,0,0)" />
	<line x1="1394.19" y1="1486.01" x2="1523.72" y2="1303.4" stroke-width="0.25" stroke="rgb(0,0,0)" />
	<line x1="1539.86" y1="1315.72" x2="1419.06" y2="1486.01" stroke-width="0.25" stroke="rgb(0,0,0)" />
	<line x1="1443.94" y1="1486.01" x2="1539.86" y2="1350.79" stroke-width="0.25" stroke="rgb(0,0,0)" />
	<line x1="1539.86" y1="1385.86" x2="1468.82" y2="1486.01" stroke-width="0.25" stroke="rgb(0,0,0)" />
	<line x1="1493.69" y1="1486.01" x2="1539.86" y2="1420.93" stroke-width="0.25" stroke="rgb(0,0,0)" />
	<line x1="1539.86" y1="1456" x2="1518.57" y2="1486.01" stroke-width="0.25" stroke="rgb(0,0,0)" />
	<line x1="1357.25" y1="1327.67" x2="1374.46" y2="1303.4" stroke-width="0.25" stroke="rgb(0,0,0)" />
</svg>
