<?xml version="1.0" standalone="no" ?>
<!DOCTYPE svg PUBLIC "-//W3C//DTD SVG 1.1//EN" "http://www.w3.org/Graphics/SVG/1.1/DTD/svg11.dtd">
<svg width="2000px" height="2000px" xmlns="http://www.w3.org/2000/svg" version="1.1" >
	<line x1="352.898" y1="1366.3" x2="149.999" y2="1366.3" stroke-width="0.25" stroke="rgb(0,0,0)" />
	<line x1="149.999" y1="1366.3" x2="149.999" y2="1569.2" stroke-width="0.25" stroke="rgb(0,0,0)" />
	<line x1="149.999" y1="1569.2" x2="352.898" y2="1569.2" stroke-width="0.25" stroke="rgb(0,0,0)" />
	<line x1="352.898" y1="1569.2" x2="352.898" y2="1366.3" stroke-width="0.25" stroke="rgb(0,0,0)" />
	<line x1="229.28" y1="1514.01" x2="216.185" y2="1506.45" stroke-width="0.25" stroke="rgb(0,0,0)" />
	<line x1="216.185" y1="1506.45" x2="205.902" y2="1495.37" stroke-width="0.25" stroke="rgb(0,0,0)" />
	<line x1="205.902" y1="1495.37" x2="199.34" y2="1481.75" stroke-width="0.25" stroke="rgb(0,0,0)" />
	<line x1="199.34" y1="1481.75" x2="197.088" y2="1466.79" stroke-width="0.25" stroke="rgb(0,0,0)" />
	<line x1="197.088" y1="1466.79" x2="199.34" y2="1451.85" stroke-width="0.25" stroke="rgb(0,0,0)" />
	<line x1="199.34" y1="1451.85" x2="205.902" y2="1438.22" stroke-width="0.25" stroke="rgb(0,0,0)" />
	<line x1="205.902" y1="1438.22" x2="216.185" y2="1427.14" stroke-width="0.25" stroke="rgb(0,0,0)" />
	<line x1="216.185" y1="1427.14" x2="229.28" y2="1419.58" stroke-width="0.25" stroke="rgb(0,0,0)" />
	<line x1="229.28" y1="1419.58" x2="244.018" y2="1416.21" stroke-width="0.25" stroke="rgb(0,0,0)" />
	<line x1="244.018" y1="1416.21" x2="259.098" y2="1417.34" stroke-width="0.25" stroke="rgb(0,0,0)" />
	<line x1="259.098" y1="1417.34" x2="273.175" y2="1422.87" stroke-width="0.25" stroke="rgb(0,0,0)" />
	<line x1="273.175" y1="1422.87" x2="284.996" y2="1432.29" stroke-width="0.25" stroke="rgb(0,0,0)" />
	<line x1="284.996" y1="1432.29" x2="293.513" y2="1444.79" stroke-width="0.25" stroke="rgb(0,0,0)" />
	<line x1="293.513" y1="1444.79" x2="297.969" y2="1459.23" stroke-width="0.25" stroke="rgb(0,0,0)" />
	<line x1="297.969" y1="1459.23" x2="297.969" y2="1474.35" stroke-width="0.25" stroke="rgb(0,0,0)" />
	<line x1="297.969" y1="1474.35" x2="293.513" y2="1488.81" stroke-width="0.25" stroke="rgb(0,0,0)" />
	<line x1="293.513" y1="1488.81" x2="284.996" y2="1501.3" stroke-width="0.25" stroke="rgb(0,0,0)" />
	<line x1="284.996" y1="1501.3" x2="273.175" y2="1510.73" stroke-width="0.25" stroke="rgb(0,0,0)" />
	<line x1="273.175" y1="1510.73" x2="259.098" y2="1516.25" stroke-width="0.25" stroke="rgb(0,0,0)" />
	<line x1="259.098" y1="1516.25" x2="244.018" y2="1517.38" stroke-width="0.25" stroke="rgb(0,0,0)" />
	<line x1="244.018" y1="1517.38" x2="229.28" y2="1514.01" stroke-width="0.25" stroke="rgb(0,0,0)" />
	<line x1="352.898" y1="960.505" x2="149.999" y2="960.505" stroke-width="0.25" stroke="rgb(0,0,0)" />
	<line x1="149.999" y1="960.505" x2="149.999" y2="1163.4" stroke-width="0.25" stroke="rgb(0,0,0)" />
	<line x1="149.999" y1="1163.4" x2="352.898" y2="1163.4" stroke-width="0.25" stroke="rgb(0,0,0)" />
	<line x1="352.898" y1="1163.4" x2="352.898" y2="960.505" stroke-width="0.25" stroke="rgb(0,0,0)" />
	<line x1="229.28" y1="1108.22" x2="216.185" y2="1100.66" stroke-width="0.25" stroke="rgb(0,0,0)" />
	<line x1="216.185" y1="1100.66" x2="205.902" y2="1089.57" stroke-width="0.25" stroke="rgb(0,0,0)" />
	<line x1="205.902" y1="1089.57" x2="199.34" y2="1075.95" stroke-width="0.25" stroke="rgb(0,0,0)" />
	<line x1="199.34" y1="1075.95" x2="197.088" y2="1061" stroke-width="0.25" stroke="rgb(0,0,0)" />
	<line x1="197.088" y1="1061" x2="199.34" y2="1046.05" stroke-width="0.25" stroke="rgb(0,0,0)" />
	<line x1="199.34" y1="1046.05" x2="205.902" y2="1032.42" stroke-width="0.25" stroke="rgb(0,0,0)" />
	<line x1="205.902" y1="1032.42" x2="216.185" y2="1021.34" stroke-width="0.25" stroke="rgb(0,0,0)" />
	<line x1="216.185" y1="1021.34" x2="229.28" y2="1013.78" stroke-width="0.25" stroke="rgb(0,0,0)" />
	<line x1="229.28" y1="1013.78" x2="244.018" y2="1010.41" stroke-width="0.25" stroke="rgb(0,0,0)" />
	<line x1="244.018" y1="1010.41" x2="259.098" y2="1011.55" stroke-width="0.25" stroke="rgb(0,0,0)" />
	<line x1="259.098" y1="1011.55" x2="273.175" y2="1017.07" stroke-width="0.25" stroke="rgb(0,0,0)" />
	<line x1="273.175" y1="1017.07" x2="284.996" y2="1026.5" stroke-width="0.25" stroke="rgb(0,0,0)" />
	<line x1="284.996" y1="1026.5" x2="293.513" y2="1038.99" stroke-width="0.25" stroke="rgb(0,0,0)" />
	<line x1="293.513" y1="1038.99" x2="297.969" y2="1053.44" stroke-width="0.25" stroke="rgb(0,0,0)" />
	<line x1="297.969" y1="1053.44" x2="297.969" y2="1068.56" stroke-width="0.25" stroke="rgb(0,0,0)" />
	<line x1="297.969" y1="1068.56" x2="293.513" y2="1083.01" stroke-width="0.25" stroke="rgb(0,0,0)" />
	<line x1="293.513" y1="1083.01" x2="284.996" y2="1095.5" stroke-width="0.25" stroke="rgb(0,0,0)" />
	<line x1="284.996" y1="1095.5" x2="273.175" y2="1104.93" stroke-width="0.25" stroke="rgb(0,0,0)" />
	<line x1="273.175" y1="1104.93" x2="259.098" y2="1110.45" stroke-width="0.25" stroke="rgb(0,0,0)" />
	<line x1="259.098" y1="1110.45" x2="244.018" y2="1111.58" stroke-width="0.25" stroke="rgb(0,0,0)" />
	<line x1="244.018" y1="1111.58" x2="229.28" y2="1108.22" stroke-width="0.25" stroke="rgb(0,0,0)" />
	<line x1="1550" y1="1699.06" x2="1347.1" y2="1699.06" stroke-width="0.25" stroke="rgb(0,0,0)" />
	<line x1="1347.1" y1="1699.06" x2="1347.1" y2="1901.96" stroke-width="0.25" stroke="rgb(0,0,0)" />
	<line x1="1347.1" y1="1901.96" x2="1550" y2="1901.96" stroke-width="0.25" stroke="rgb(0,0,0)" />
	<line x1="1550" y1="1901.96" x2="1550" y2="1699.06" stroke-width="0.25" stroke="rgb(0,0,0)" />
	<line x1="1550" y1="887.461" x2="1347.1" y2="887.461" stroke-width="0.25" stroke="rgb(0,0,0)" />
	<line x1="1347.1" y1="887.461" x2="1347.1" y2="1090.36" stroke-width="0.25" stroke="rgb(0,0,0)" />
	<line x1="1347.1" y1="1090.36" x2="1550" y2="1090.36" stroke-width="0.25" stroke="rgb(0,0,0)" />
	<line x1="1550" y1="1090.36" x2="1550" y2="887.461" stroke-width="0.25" stroke="rgb(0,0,0)" />
	<line x1="1550" y1="1293.26" x2="1347.1" y2="1293.26" stroke-width="0.25" stroke="rgb(0,0,0)" />
	<line x1="1347.1" y1="1293.26" x2="1347.1" y2="1496.16" stroke-width="0.25" stroke="rgb(0,0,0)" />
	<line x1="1347.1" y1="1496.16" x2="1550" y2="1496.16" stroke-width="0.25" stroke="rgb(0,0,0)" />
	<line x1="1550" y1="1496.16" x2="1550" y2="1293.26" stroke-width="0.25" stroke="rgb(0,0,0)" />
	<line x1="172.876" y1="1559.06" x2="160.144" y2="1532.95" stroke-width="0.25" stroke="rgb(0,0,0)" />
	<line x1="160.144" y1="1486.67" x2="195.45" y2="1559.06" stroke-width="0.25" stroke="rgb(0,0,0)" />
	<line x1="218.025" y1="1559.06" x2="160.144" y2="1440.38" stroke-width="0.25" stroke="rgb(0,0,0)" />
	<line x1="160.144" y1="1394.1" x2="188.898" y2="1453.05" stroke-width="0.25" stroke="rgb(0,0,0)" />
	<line x1="222.409" y1="1521.76" x2="240.6" y2="1559.06" stroke-width="0.25" stroke="rgb(0,0,0)" />
	<line x1="200.043" y1="1429.62" x2="174.11" y2="1376.45" stroke-width="0.25" stroke="rgb(0,0,0)" />
	<line x1="268.405" y1="1523.5" x2="285.749" y2="1559.06" stroke-width="0.25" stroke="rgb(0,0,0)" />
	<line x1="234.624" y1="1407.95" x2="219.259" y2="1376.45" stroke-width="0.25" stroke="rgb(0,0,0)" />
	<line x1="300.453" y1="1496.64" x2="330.898" y2="1559.06" stroke-width="0.25" stroke="rgb(0,0,0)" />
	<line x1="285.521" y1="1419.74" x2="264.408" y2="1376.45" stroke-width="0.25" stroke="rgb(0,0,0)" />
	<line x1="286.983" y1="1376.45" x2="342.753" y2="1490.79" stroke-width="0.25" stroke="rgb(0,0,0)" />
	<line x1="342.753" y1="1444.51" x2="309.557" y2="1376.45" stroke-width="0.25" stroke="rgb(0,0,0)" />
	<line x1="332.132" y1="1376.45" x2="342.753" y2="1398.22" stroke-width="0.25" stroke="rgb(0,0,0)" />
	<line x1="160.144" y1="1394.1" x2="188.898" y2="1453.05" stroke-width="0.25" stroke="rgb(0,0,0)" />
	<line x1="263.174" y1="1559.06" x2="247.674" y2="1527.28" stroke-width="0.25" stroke="rgb(0,0,0)" />
	<line x1="196.684" y1="1376.45" x2="215.801" y2="1415.64" stroke-width="0.25" stroke="rgb(0,0,0)" />
	<line x1="308.323" y1="1559.06" x2="286.065" y2="1513.42" stroke-width="0.25" stroke="rgb(0,0,0)" />
	<line x1="241.833" y1="1376.45" x2="256.731" y2="1406.99" stroke-width="0.25" stroke="rgb(0,0,0)" />
	<line x1="342.753" y1="1537.08" x2="308.114" y2="1466.06" stroke-width="0.25" stroke="rgb(0,0,0)" />
	<line x1="160.144" y1="1394.1" x2="188.898" y2="1453.05" stroke-width="0.25" stroke="rgb(0,0,0)" />
	<line x1="263.174" y1="1559.06" x2="247.674" y2="1527.28" stroke-width="0.25" stroke="rgb(0,0,0)" />
	<line x1="196.684" y1="1376.45" x2="215.801" y2="1415.64" stroke-width="0.25" stroke="rgb(0,0,0)" />
	<line x1="308.323" y1="1559.06" x2="286.065" y2="1513.42" stroke-width="0.25" stroke="rgb(0,0,0)" />
	<line x1="241.833" y1="1376.45" x2="256.731" y2="1406.99" stroke-width="0.25" stroke="rgb(0,0,0)" />
	<line x1="342.753" y1="1051.5" x2="328.496" y2="970.65" stroke-width="0.25" stroke="rgb(0,0,0)" />
	<line x1="307.893" y1="970.65" x2="340.092" y2="1153.26" stroke-width="0.25" stroke="rgb(0,0,0)" />
	<line x1="319.489" y1="1153.26" x2="306.021" y2="1076.88" stroke-width="0.25" stroke="rgb(0,0,0)" />
	<line x1="266.687" y1="970.65" x2="272.934" y2="1006.08" stroke-width="0.25" stroke="rgb(0,0,0)" />
	<line x1="278.283" y1="1153.26" x2="271.78" y2="1116.37" stroke-width="0.25" stroke="rgb(0,0,0)" />
	<line x1="225.482" y1="970.65" x2="231.175" y2="1002.94" stroke-width="0.25" stroke="rgb(0,0,0)" />
	<line x1="237.078" y1="1153.26" x2="231.041" y2="1119.02" stroke-width="0.25" stroke="rgb(0,0,0)" />
	<line x1="184.276" y1="970.65" x2="195.027" y2="1031.62" stroke-width="0.25" stroke="rgb(0,0,0)" />
	<line x1="319.489" y1="1153.26" x2="306.021" y2="1076.88" stroke-width="0.25" stroke="rgb(0,0,0)" />
	<line x1="297.09" y1="1026.23" x2="287.29" y2="970.65" stroke-width="0.25" stroke="rgb(0,0,0)" />
	<line x1="290.251" y1="1104.28" x2="298.886" y2="1153.26" stroke-width="0.25" stroke="rgb(0,0,0)" />
	<line x1="251.4" y1="1000.8" x2="246.085" y2="970.65" stroke-width="0.25" stroke="rgb(0,0,0)" />
	<line x1="252.02" y1="1121.15" x2="257.681" y2="1153.26" stroke-width="0.25" stroke="rgb(0,0,0)" />
	<line x1="212.16" y1="1011.95" x2="204.879" y2="970.65" stroke-width="0.25" stroke="rgb(0,0,0)" />
	<line x1="208.338" y1="1107.11" x2="216.475" y2="1153.26" stroke-width="0.25" stroke="rgb(0,0,0)" />
	<line x1="195.872" y1="1153.26" x2="163.673" y2="970.65" stroke-width="0.25" stroke="rgb(0,0,0)" />
	<line x1="160.144" y1="1067.48" x2="175.269" y2="1153.26" stroke-width="0.25" stroke="rgb(0,0,0)" />
	<line x1="195.872" y1="1153.26" x2="163.673" y2="970.65" stroke-width="0.25" stroke="rgb(0,0,0)" />
	<line x1="352.898" y1="1772.1" x2="149.999" y2="1772.1" stroke-width="0.25" stroke="rgb(0,0,0)" />
	<line x1="149.999" y1="1772.1" x2="149.999" y2="1975" stroke-width="0.25" stroke="rgb(0,0,0)" />
	<line x1="149.999" y1="1975" x2="352.898" y2="1975" stroke-width="0.25" stroke="rgb(0,0,0)" />
	<line x1="352.898" y1="1975" x2="352.898" y2="1772.1" stroke-width="0.25" stroke="rgb(0,0,0)" />
	<line x1="229.28" y1="1919.81" x2="216.185" y2="1912.25" stroke-width="0.25" stroke="rgb(0,0,0)" />
	<line x1="216.185" y1="1912.25" x2="205.902" y2="1901.17" stroke-width="0.25" stroke="rgb(0,0,0)" />
	<line x1="205.902" y1="1901.17" x2="199.34" y2="1887.55" stroke-width="0.25" stroke="rgb(0,0,0)" />
	<line x1="199.34" y1="1887.55" x2="197.088" y2="1872.59" stroke-width="0.25" stroke="rgb(0,0,0)" />
	<line x1="197.088" y1="1872.59" x2="199.34" y2="1857.64" stroke-width="0.25" stroke="rgb(0,0,0)" />
	<line x1="199.34" y1="1857.64" x2="205.902" y2="1844.02" stroke-width="0.25" stroke="rgb(0,0,0)" />
	<line x1="205.902" y1="1844.02" x2="216.185" y2="1832.93" stroke-width="0.25" stroke="rgb(0,0,0)" />
	<line x1="216.185" y1="1832.93" x2="229.28" y2="1825.37" stroke-width="0.25" stroke="rgb(0,0,0)" />
	<line x1="229.28" y1="1825.37" x2="244.018" y2="1822.01" stroke-width="0.25" stroke="rgb(0,0,0)" />
	<line x1="244.018" y1="1822.01" x2="259.098" y2="1823.14" stroke-width="0.25" stroke="rgb(0,0,0)" />
	<line x1="259.098" y1="1823.14" x2="273.175" y2="1828.67" stroke-width="0.25" stroke="rgb(0,0,0)" />
	<line x1="273.175" y1="1828.67" x2="284.996" y2="1838.09" stroke-width="0.25" stroke="rgb(0,0,0)" />
	<line x1="284.996" y1="1838.09" x2="293.513" y2="1850.59" stroke-width="0.25" stroke="rgb(0,0,0)" />
	<line x1="293.513" y1="1850.59" x2="297.969" y2="1865.03" stroke-width="0.25" stroke="rgb(0,0,0)" />
	<line x1="297.969" y1="1865.03" x2="297.969" y2="1880.15" stroke-width="0.25" stroke="rgb(0,0,0)" />
	<line x1="297.969" y1="1880.15" x2="293.513" y2="1894.6" stroke-width="0.25" stroke="rgb(0,0,0)" />
	<line x1="293.513" y1="1894.6" x2="284.996" y2="1907.09" stroke-width="0.25" stroke="rgb(0,0,0)" />
	<line x1="284.996" y1="1907.09" x2="273.175" y2="1916.52" stroke-width="0.25" stroke="rgb(0,0,0)" />
	<line x1="273.175" y1="1916.52" x2="259.098" y2="1922.05" stroke-width="0.25" stroke="rgb(0,0,0)" />
	<line x1="259.098" y1="1922.05" x2="244.018" y2="1923.18" stroke-width="0.25" stroke="rgb(0,0,0)" />
	<line x1="244.018" y1="1923.18" x2="229.28" y2="1919.81" stroke-width="0.25" stroke="rgb(0,0,0)" />
	<line x1="342.753" y1="1782.25" x2="160.144" y2="1782.25" stroke-width="0.25" stroke="rgb(0,0,0)" />
	<line x1="160.144" y1="1782.25" x2="160.144" y2="1964.86" stroke-width="0.25" stroke="rgb(0,0,0)" />
	<line x1="160.144" y1="1964.86" x2="342.753" y2="1964.86" stroke-width="0.25" stroke="rgb(0,0,0)" />
	<line x1="342.753" y1="1964.86" x2="342.753" y2="1782.25" stroke-width="0.25" stroke="rgb(0,0,0)" />
	<line x1="225.53" y1="1929.36" x2="209.789" y2="1920.27" stroke-width="0.25" stroke="rgb(0,0,0)" />
	<line x1="209.789" y1="1920.27" x2="197.425" y2="1906.95" stroke-width="0.25" stroke="rgb(0,0,0)" />
	<line x1="197.425" y1="1906.95" x2="189.536" y2="1890.57" stroke-width="0.25" stroke="rgb(0,0,0)" />
	<line x1="189.536" y1="1890.57" x2="186.829" y2="1872.59" stroke-width="0.25" stroke="rgb(0,0,0)" />
	<line x1="186.829" y1="1872.59" x2="189.536" y2="1854.62" stroke-width="0.25" stroke="rgb(0,0,0)" />
	<line x1="189.536" y1="1854.62" x2="197.425" y2="1838.24" stroke-width="0.25" stroke="rgb(0,0,0)" />
	<line x1="197.425" y1="1838.24" x2="209.785" y2="1824.91" stroke-width="0.25" stroke="rgb(0,0,0)" />
	<line x1="209.785" y1="1824.91" x2="225.53" y2="1815.83" stroke-width="0.25" stroke="rgb(0,0,0)" />
	<line x1="225.53" y1="1815.83" x2="243.251" y2="1811.78" stroke-width="0.25" stroke="rgb(0,0,0)" />
	<line x1="243.251" y1="1811.78" x2="261.382" y2="1813.14" stroke-width="0.25" stroke="rgb(0,0,0)" />
	<line x1="261.382" y1="1813.14" x2="278.304" y2="1819.78" stroke-width="0.25" stroke="rgb(0,0,0)" />
	<line x1="278.304" y1="1819.78" x2="292.515" y2="1831.11" stroke-width="0.25" stroke="rgb(0,0,0)" />
	<line x1="292.515" y1="1831.11" x2="302.757" y2="1846.13" stroke-width="0.25" stroke="rgb(0,0,0)" />
	<line x1="302.757" y1="1846.13" x2="308.114" y2="1863.5" stroke-width="0.25" stroke="rgb(0,0,0)" />
	<line x1="308.114" y1="1863.5" x2="308.114" y2="1881.68" stroke-width="0.25" stroke="rgb(0,0,0)" />
	<line x1="308.114" y1="1881.68" x2="302.757" y2="1899.06" stroke-width="0.25" stroke="rgb(0,0,0)" />
	<line x1="302.757" y1="1899.06" x2="292.515" y2="1914.07" stroke-width="0.25" stroke="rgb(0,0,0)" />
	<line x1="292.515" y1="1914.07" x2="278.304" y2="1925.41" stroke-width="0.25" stroke="rgb(0,0,0)" />
	<line x1="278.304" y1="1925.41" x2="261.378" y2="1932.05" stroke-width="0.25" stroke="rgb(0,0,0)" />
	<line x1="261.378" y1="1932.05" x2="243.251" y2="1933.41" stroke-width="0.25" stroke="rgb(0,0,0)" />
	<line x1="243.251" y1="1933.41" x2="225.53" y2="1929.36" stroke-width="0.25" stroke="rgb(0,0,0)" />
	<line x1="332.608" y1="1792.39" x2="170.289" y2="1792.39" stroke-width="0.25" stroke="rgb(0,0,0)" />
	<line x1="170.289" y1="1792.39" x2="170.289" y2="1954.71" stroke-width="0.25" stroke="rgb(0,0,0)" />
	<line x1="170.289" y1="1954.71" x2="332.608" y2="1954.71" stroke-width="0.25" stroke="rgb(0,0,0)" />
	<line x1="332.608" y1="1954.71" x2="332.608" y2="1792.39" stroke-width="0.25" stroke="rgb(0,0,0)" />
	<line x1="221.785" y1="1938.91" x2="203.39" y2="1928.29" stroke-width="0.25" stroke="rgb(0,0,0)" />
	<line x1="203.39" y1="1928.29" x2="188.947" y2="1912.73" stroke-width="0.25" stroke="rgb(0,0,0)" />
	<line x1="188.947" y1="1912.73" x2="179.732" y2="1893.59" stroke-width="0.25" stroke="rgb(0,0,0)" />
	<line x1="179.732" y1="1893.59" x2="176.571" y2="1872.59" stroke-width="0.25" stroke="rgb(0,0,0)" />
	<line x1="176.571" y1="1872.59" x2="179.732" y2="1851.6" stroke-width="0.25" stroke="rgb(0,0,0)" />
	<line x1="179.732" y1="1851.6" x2="188.947" y2="1832.46" stroke-width="0.25" stroke="rgb(0,0,0)" />
	<line x1="188.947" y1="1832.46" x2="203.39" y2="1816.89" stroke-width="0.25" stroke="rgb(0,0,0)" />
	<line x1="203.39" y1="1816.89" x2="221.785" y2="1806.27" stroke-width="0.25" stroke="rgb(0,0,0)" />
	<line x1="221.785" y1="1806.27" x2="242.484" y2="1801.55" stroke-width="0.25" stroke="rgb(0,0,0)" />
	<line x1="242.484" y1="1801.55" x2="263.663" y2="1803.14" stroke-width="0.25" stroke="rgb(0,0,0)" />
	<line x1="263.663" y1="1803.14" x2="283.433" y2="1810.9" stroke-width="0.25" stroke="rgb(0,0,0)" />
	<line x1="283.433" y1="1810.9" x2="300.039" y2="1824.14" stroke-width="0.25" stroke="rgb(0,0,0)" />
	<line x1="300.039" y1="1824.14" x2="312.002" y2="1841.68" stroke-width="0.25" stroke="rgb(0,0,0)" />
	<line x1="312.002" y1="1841.68" x2="318.259" y2="1861.97" stroke-width="0.25" stroke="rgb(0,0,0)" />
	<line x1="318.259" y1="1861.97" x2="318.259" y2="1883.21" stroke-width="0.25" stroke="rgb(0,0,0)" />
	<line x1="318.259" y1="1883.21" x2="312.002" y2="1903.51" stroke-width="0.25" stroke="rgb(0,0,0)" />
	<line x1="312.002" y1="1903.51" x2="300.039" y2="1921.05" stroke-width="0.25" stroke="rgb(0,0,0)" />
	<line x1="300.039" y1="1921.05" x2="283.433" y2="1934.29" stroke-width="0.25" stroke="rgb(0,0,0)" />
	<line x1="283.433" y1="1934.29" x2="263.663" y2="1942.05" stroke-width="0.25" stroke="rgb(0,0,0)" />
	<line x1="263.663" y1="1942.05" x2="242.484" y2="1943.64" stroke-width="0.25" stroke="rgb(0,0,0)" />
	<line x1="242.484" y1="1943.64" x2="221.785" y2="1938.91" stroke-width="0.25" stroke="rgb(0,0,0)" />
	<line x1="1521.03" y1="1709.2" x2="1539.86" y2="1723.65" stroke-width="0.25" stroke="rgb(0,0,0)" />
	<line x1="1539.86" y1="1749.22" x2="1487.7" y2="1709.2" stroke-width="0.25" stroke="rgb(0,0,0)" />
	<line x1="1454.37" y1="1709.2" x2="1539.86" y2="1774.8" stroke-width="0.25" stroke="rgb(0,0,0)" />
	<line x1="1539.86" y1="1800.37" x2="1421.04" y2="1709.2" stroke-width="0.25" stroke="rgb(0,0,0)" />
	<line x1="1387.71" y1="1709.2" x2="1539.86" y2="1825.95" stroke-width="0.25" stroke="rgb(0,0,0)" />
	<line x1="1539.86" y1="1851.52" x2="1357.25" y2="1711.4" stroke-width="0.25" stroke="rgb(0,0,0)" />
	<line x1="1357.25" y1="1736.98" x2="1539.86" y2="1877.1" stroke-width="0.25" stroke="rgb(0,0,0)" />
	<line x1="1525.7" y1="1891.81" x2="1357.25" y2="1762.55" stroke-width="0.25" stroke="rgb(0,0,0)" />
	<line x1="1357.25" y1="1788.13" x2="1492.37" y2="1891.81" stroke-width="0.25" stroke="rgb(0,0,0)" />
	<line x1="1459.04" y1="1891.81" x2="1357.25" y2="1813.7" stroke-width="0.25" stroke="rgb(0,0,0)" />
	<line x1="1357.25" y1="1839.28" x2="1425.71" y2="1891.81" stroke-width="0.25" stroke="rgb(0,0,0)" />
	<line x1="1392.39" y1="1891.81" x2="1357.25" y2="1864.85" stroke-width="0.25" stroke="rgb(0,0,0)" />
	<line x1="1357.25" y1="1890.42" x2="1359.06" y2="1891.81" stroke-width="0.25" stroke="rgb(0,0,0)" />
	<line x1="1521.03" y1="1709.2" x2="1539.86" y2="1723.65" stroke-width="0.25" stroke="rgb(0,0,0)" />
	<line x1="1539.86" y1="1749.22" x2="1487.7" y2="1709.2" stroke-width="0.25" stroke="rgb(0,0,0)" />
	<line x1="1454.37" y1="1709.2" x2="1539.86" y2="1774.8" stroke-width="0.25" stroke="rgb(0,0,0)" />
	<line x1="1539.86" y1="1800.37" x2="1421.04" y2="1709.2" stroke-width="0.25" stroke="rgb(0,0,0)" />
	<line x1="1387.71" y1="1709.2" x2="1539.86" y2="1825.95" stroke-width="0.25" stroke="rgb(0,0,0)" />
	<line x1="1539.86" y1="1851.52" x2="1357.25" y2="1711.4" stroke-width="0.25" stroke="rgb(0,0,0)" />
	<line x1="1357.25" y1="1736.98" x2="1539.86" y2="1877.1" stroke-width="0.25" stroke="rgb(0,0,0)" />
	<line x1="1525.7" y1="1891.81" x2="1357.25" y2="1762.55" stroke-width="0.25" stroke="rgb(0,0,0)" />
	<line x1="1357.25" y1="1788.13" x2="1492.37" y2="1891.81" stroke-width="0.25" stroke="rgb(0,0,0)" />
	<line x1="1459.04" y1="1891.81" x2="1357.25" y2="1813.7" stroke-width="0.25" stroke="rgb(0,0,0)" />
	<line x1="1357.25" y1="1839.28" x2="1425.71" y2="1891.81" stroke-width="0.25" stroke="rgb(0,0,0)" />
	<line x1="1392.39" y1="1891.81" x2="1357.25" y2="1864.85" stroke-width="0.25" stroke="rgb(0,0,0)" />
	<line x1="1364.16" y1="1080.22" x2="1370.06" y2="897.606" stroke-width="0.25" stroke="rgb(0,0,0)" />
	<line x1="1390.36" y1="897.606" x2="1384.46" y2="1080.22" stroke-width="0.25" stroke="rgb(0,0,0)" />
	<line x1="1391.65" y1="1486.01" x2="1397.55" y2="1303.4" stroke-width="0.25" stroke="rgb(0,0,0)" />
	<line x1="1430.96" y1="897.606" x2="1425.06" y2="1080.22" stroke-width="0.25" stroke="rgb(0,0,0)" />
	<line x1="1432.26" y1="1486.01" x2="1438.15" y2="1303.4" stroke-width="0.25" stroke="rgb(0,0,0)" />
	<line x1="1471.56" y1="897.606" x2="1465.66" y2="1080.22" stroke-width="0.25" stroke="rgb(0,0,0)" />
	<line x1="1472.86" y1="1486.01" x2="1478.76" y2="1303.4" stroke-width="0.25" stroke="rgb(0,0,0)" />
	<line x1="1512.16" y1="897.606" x2="1506.26" y2="1080.22" stroke-width="0.25" stroke="rgb(0,0,0)" />
	<line x1="1513.46" y1="1486.01" x2="1519.36" y2="1303.4" stroke-width="0.25" stroke="rgb(0,0,0)" />
	<line x1="1539.66" y1="1303.4" x2="1533.76" y2="1486.01" stroke-width="0.25" stroke="rgb(0,0,0)" />
	<line x1="1390.36" y1="897.606" x2="1384.46" y2="1080.22" stroke-width="0.25" stroke="rgb(0,0,0)" />
	<line x1="1377.25" y1="1303.4" x2="1371.35" y2="1486.01" stroke-width="0.25" stroke="rgb(0,0,0)" />
	<line x1="1404.76" y1="1080.22" x2="1410.66" y2="897.606" stroke-width="0.25" stroke="rgb(0,0,0)" />
	<line x1="1417.85" y1="1303.4" x2="1411.96" y2="1486.01" stroke-width="0.25" stroke="rgb(0,0,0)" />
	<line x1="1445.36" y1="1080.22" x2="1451.26" y2="897.606" stroke-width="0.25" stroke="rgb(0,0,0)" />
	<line x1="1458.45" y1="1303.4" x2="1452.56" y2="1486.01" stroke-width="0.25" stroke="rgb(0,0,0)" />
	<line x1="1485.96" y1="1080.22" x2="1491.86" y2="897.606" stroke-width="0.25" stroke="rgb(0,0,0)" />
	<line x1="1499.06" y1="1303.4" x2="1493.16" y2="1486.01" stroke-width="0.25" stroke="rgb(0,0,0)" />
	<line x1="1526.57" y1="1080.22" x2="1532.46" y2="897.606" stroke-width="0.25" stroke="rgb(0,0,0)" />
	<line x1="1390.36" y1="897.606" x2="1384.46" y2="1080.22" stroke-width="0.25" stroke="rgb(0,0,0)" />
	<line x1="1377.25" y1="1303.4" x2="1371.35" y2="1486.01" stroke-width="0.25" stroke="rgb(0,0,0)" />
	<line x1="1404.76" y1="1080.22" x2="1410.66" y2="897.606" stroke-width="0.25" stroke="rgb(0,0,0)" />
	<line x1="1417.85" y1="1303.4" x2="1411.96" y2="1486.01" stroke-width="0.25" stroke="rgb(0,0,0)" />
	<line x1="1445.36" y1="1080.22" x2="1451.26" y2="897.606" stroke-width="0.25" stroke="rgb(0,0,0)" />
	<line x1="1458.45" y1="1303.4" x2="1452.56" y2="1486.01" stroke-width="0.25" stroke="rgb(0,0,0)" />
	<line x1="1485.96" y1="1080.22" x2="1491.86" y2="897.606" stroke-width="0.25" stroke="rgb(0,0,0)" />
	<line x1="1499.06" y1="1303.4" x2="1493.16" y2="1486.01" stroke-width="0.25" stroke="rgb(0,0,0)" />
</svg>
