<?xml version="1.0" standalone="no" ?>
<!DOCTYPE svg PUBLIC "-//W3C//DTD SVG 1.1//EN" "http://www.w3.org/Graphics/SVG/1.1/DTD/svg11.dtd">
<svg width="2000px" height="2000px" xmlns="http://www.w3.org/2000/svg" version="1.1" >
	<line x1="322.368" y1="1969.93" x2="347.825" y2="1959.54" stroke-width="0.25" stroke="rgb(0,0,0)" />
	<line x1="347.825" y1="1942.01" x2="279.408" y2="1969.93" stroke-width="0.25" stroke="rgb(0,0,0)" />
	<line x1="236.448" y1="1969.93" x2="347.825" y2="1924.48" stroke-width="0.25" stroke="rgb(0,0,0)" />
	<line x1="347.825" y1="1906.94" x2="193.489" y2="1969.93" stroke-width="0.25" stroke="rgb(0,0,0)" />
	<line x1="155.071" y1="1968.07" x2="254.561" y2="1927.47" stroke-width="0.25" stroke="rgb(0,0,0)" />
	<line x1="281.227" y1="1916.59" x2="347.825" y2="1889.41" stroke-width="0.25" stroke="rgb(0,0,0)" />
	<line x1="347.825" y1="1871.88" x2="299.782" y2="1891.49" stroke-width="0.25" stroke="rgb(0,0,0)" />
	<line x1="223.789" y1="1922.5" x2="155.071" y2="1950.54" stroke-width="0.25" stroke="rgb(0,0,0)" />
	<line x1="155.071" y1="1933.01" x2="208.353" y2="1911.27" stroke-width="0.25" stroke="rgb(0,0,0)" />
	<line x1="303.042" y1="1872.63" x2="347.825" y2="1854.35" stroke-width="0.25" stroke="rgb(0,0,0)" />
	<line x1="347.825" y1="1836.82" x2="300.528" y2="1856.12" stroke-width="0.25" stroke="rgb(0,0,0)" />
	<line x1="198.607" y1="1897.71" x2="155.071" y2="1915.48" stroke-width="0.25" stroke="rgb(0,0,0)" />
	<line x1="155.071" y1="1897.95" x2="193.42" y2="1882.3" stroke-width="0.25" stroke="rgb(0,0,0)" />
	<line x1="293.444" y1="1841.48" x2="347.825" y2="1819.29" stroke-width="0.25" stroke="rgb(0,0,0)" />
	<line x1="347.825" y1="1801.75" x2="281.505" y2="1828.82" stroke-width="0.25" stroke="rgb(0,0,0)" />
	<line x1="193.119" y1="1864.89" x2="155.071" y2="1880.42" stroke-width="0.25" stroke="rgb(0,0,0)" />
	<line x1="155.071" y1="1862.88" x2="200.022" y2="1844.54" stroke-width="0.25" stroke="rgb(0,0,0)" />
	<line x1="262.517" y1="1819.04" x2="347.825" y2="1784.22" stroke-width="0.25" stroke="rgb(0,0,0)" />
	<line x1="322.141" y1="1777.17" x2="155.071" y2="1845.35" stroke-width="0.25" stroke="rgb(0,0,0)" />
	<line x1="155.071" y1="1827.82" x2="279.181" y2="1777.17" stroke-width="0.25" stroke="rgb(0,0,0)" />
	<line x1="236.221" y1="1777.17" x2="155.071" y2="1810.29" stroke-width="0.25" stroke="rgb(0,0,0)" />
	<line x1="155.071" y1="1792.76" x2="193.262" y2="1777.17" stroke-width="0.25" stroke="rgb(0,0,0)" />
</svg>
