<?xml version="1.0" standalone="no" ?>
<!DOCTYPE svg PUBLIC "-//W3C//DTD SVG 1.1//EN" "http://www.w3.org/Graphics/SVG/1.1/DTD/svg11.dtd">
<svg width="2000px" height="2000px" xmlns="http://www.w3.org/2000/svg" version="1.1" >
	<line x1="166.964" y1="1969.93" x2="155.071" y2="1955.85" stroke-width="0.25" stroke="rgb(0,0,0)" />
	<line x1="155.071" y1="1930.71" x2="188.216" y2="1969.93" stroke-width="0.25" stroke="rgb(0,0,0)" />
	<line x1="209.467" y1="1969.93" x2="155.071" y2="1905.56" stroke-width="0.25" stroke="rgb(0,0,0)" />
	<line x1="155.071" y1="1880.41" x2="230.719" y2="1969.93" stroke-width="0.25" stroke="rgb(0,0,0)" />
	<line x1="251.971" y1="1969.93" x2="155.071" y2="1855.26" stroke-width="0.25" stroke="rgb(0,0,0)" />
	<line x1="155.071" y1="1830.12" x2="192.173" y2="1874.02" stroke-width="0.25" stroke="rgb(0,0,0)" />
	<line x1="236.701" y1="1926.71" x2="273.222" y2="1969.93" stroke-width="0.25" stroke="rgb(0,0,0)" />
	<line x1="294.474" y1="1969.93" x2="258.312" y2="1927.14" stroke-width="0.25" stroke="rgb(0,0,0)" />
	<line x1="195.843" y1="1853.21" x2="155.071" y2="1804.97" stroke-width="0.25" stroke="rgb(0,0,0)" />
	<line x1="155.071" y1="1779.82" x2="204.396" y2="1838.19" stroke-width="0.25" stroke="rgb(0,0,0)" />
	<line x1="274.697" y1="1921.38" x2="315.725" y2="1969.93" stroke-width="0.25" stroke="rgb(0,0,0)" />
	<line x1="336.977" y1="1969.93" x2="287.605" y2="1911.5" stroke-width="0.25" stroke="rgb(0,0,0)" />
	<line x1="216.338" y1="1827.17" x2="174.087" y2="1777.17" stroke-width="0.25" stroke="rgb(0,0,0)" />
	<line x1="195.339" y1="1777.17" x2="231.29" y2="1819.72" stroke-width="0.25" stroke="rgb(0,0,0)" />
	<line x1="297.385" y1="1897.93" x2="347.825" y2="1957.62" stroke-width="0.25" stroke="rgb(0,0,0)" />
	<line x1="347.825" y1="1932.47" x2="303.042" y2="1879.47" stroke-width="0.25" stroke="rgb(0,0,0)" />
	<line x1="250.599" y1="1817.42" x2="216.591" y2="1777.17" stroke-width="0.25" stroke="rgb(0,0,0)" />
	<line x1="237.842" y1="1777.17" x2="281.447" y2="1828.77" stroke-width="0.25" stroke="rgb(0,0,0)" />
	<line x1="298.212" y1="1848.61" x2="347.825" y2="1907.32" stroke-width="0.25" stroke="rgb(0,0,0)" />
	<line x1="347.825" y1="1882.17" x2="259.094" y2="1777.17" stroke-width="0.25" stroke="rgb(0,0,0)" />
	<line x1="280.346" y1="1777.17" x2="347.825" y2="1857.03" stroke-width="0.25" stroke="rgb(0,0,0)" />
	<line x1="347.825" y1="1831.88" x2="301.597" y2="1777.17" stroke-width="0.25" stroke="rgb(0,0,0)" />
	<line x1="322.849" y1="1777.17" x2="347.825" y2="1806.73" stroke-width="0.25" stroke="rgb(0,0,0)" />
	<line x1="347.825" y1="1781.58" x2="344.1" y2="1777.17" stroke-width="0.25" stroke="rgb(0,0,0)" />
</svg>
