<?xml version="1.0" standalone="no" ?>
<!DOCTYPE svg PUBLIC "-//W3C//DTD SVG 1.1//EN" "http://www.w3.org/Graphics/SVG/1.1/DTD/svg11.dtd">
<svg width="2000px" height="2000px" xmlns="http://www.w3.org/2000/svg" version="1.1" >
	<line x1="352.898" y1="1366.3" x2="149.999" y2="1366.3" stroke-width="0.25" stroke="rgb(0,0,0)" />
	<line x1="149.999" y1="1366.3" x2="149.999" y2="1569.2" stroke-width="0.25" stroke="rgb(0,0,0)" />
	<line x1="149.999" y1="1569.2" x2="352.898" y2="1569.2" stroke-width="0.25" stroke="rgb(0,0,0)" />
	<line x1="352.898" y1="1569.2" x2="352.898" y2="1366.3" stroke-width="0.25" stroke="rgb(0,0,0)" />
	<line x1="233.334" y1="1514.94" x2="216.185" y2="1506.45" stroke-width="0.25" stroke="rgb(0,0,0)" />
	<line x1="216.185" y1="1506.45" x2="205.902" y2="1495.37" stroke-width="0.25" stroke="rgb(0,0,0)" />
	<line x1="205.902" y1="1495.37" x2="199.34" y2="1481.75" stroke-width="0.25" stroke="rgb(0,0,0)" />
	<line x1="199.34" y1="1481.75" x2="197.705" y2="1470.91" stroke-width="0.25" stroke="rgb(0,0,0)" />
	<line x1="197.705" y1="1470.91" x2="199.34" y2="1451.85" stroke-width="0.25" stroke="rgb(0,0,0)" />
	<line x1="199.34" y1="1451.85" x2="205.902" y2="1438.22" stroke-width="0.25" stroke="rgb(0,0,0)" />
	<line x1="205.902" y1="1438.22" x2="216.185" y2="1427.14" stroke-width="0.25" stroke="rgb(0,0,0)" />
	<line x1="216.185" y1="1427.14" x2="229.28" y2="1419.58" stroke-width="0.25" stroke="rgb(0,0,0)" />
	<line x1="229.28" y1="1419.58" x2="244.022" y2="1416.21" stroke-width="0.25" stroke="rgb(0,0,0)" />
	<line x1="244.022" y1="1416.21" x2="259.098" y2="1417.34" stroke-width="0.25" stroke="rgb(0,0,0)" />
	<line x1="259.098" y1="1417.34" x2="275.727" y2="1423.87" stroke-width="0.25" stroke="rgb(0,0,0)" />
	<line x1="275.727" y1="1423.87" x2="284.996" y2="1432.29" stroke-width="0.25" stroke="rgb(0,0,0)" />
	<line x1="284.996" y1="1432.29" x2="293.513" y2="1444.79" stroke-width="0.25" stroke="rgb(0,0,0)" />
	<line x1="293.513" y1="1444.79" x2="297.969" y2="1459.23" stroke-width="0.25" stroke="rgb(0,0,0)" />
	<line x1="297.969" y1="1459.23" x2="297.969" y2="1474.35" stroke-width="0.25" stroke="rgb(0,0,0)" />
	<line x1="297.969" y1="1474.35" x2="293.513" y2="1488.81" stroke-width="0.25" stroke="rgb(0,0,0)" />
	<line x1="293.513" y1="1488.81" x2="284.996" y2="1501.3" stroke-width="0.25" stroke="rgb(0,0,0)" />
	<line x1="284.996" y1="1501.3" x2="273.175" y2="1510.72" stroke-width="0.25" stroke="rgb(0,0,0)" />
	<line x1="273.175" y1="1510.72" x2="259.098" y2="1516.25" stroke-width="0.25" stroke="rgb(0,0,0)" />
	<line x1="259.098" y1="1516.25" x2="244.022" y2="1517.38" stroke-width="0.25" stroke="rgb(0,0,0)" />
	<line x1="244.022" y1="1517.38" x2="233.334" y2="1514.94" stroke-width="0.25" stroke="rgb(0,0,0)" />
	<line x1="352.898" y1="960.505" x2="149.999" y2="960.505" stroke-width="0.25" stroke="rgb(0,0,0)" />
	<line x1="149.999" y1="960.505" x2="149.999" y2="1163.4" stroke-width="0.25" stroke="rgb(0,0,0)" />
	<line x1="149.999" y1="1163.4" x2="352.898" y2="1163.4" stroke-width="0.25" stroke="rgb(0,0,0)" />
	<line x1="352.898" y1="1163.4" x2="352.898" y2="960.505" stroke-width="0.25" stroke="rgb(0,0,0)" />
	<line x1="233.334" y1="1109.14" x2="216.185" y2="1100.66" stroke-width="0.25" stroke="rgb(0,0,0)" />
	<line x1="216.185" y1="1100.66" x2="205.902" y2="1089.57" stroke-width="0.25" stroke="rgb(0,0,0)" />
	<line x1="205.902" y1="1089.57" x2="199.34" y2="1075.95" stroke-width="0.25" stroke="rgb(0,0,0)" />
	<line x1="199.34" y1="1075.95" x2="197.705" y2="1065.11" stroke-width="0.25" stroke="rgb(0,0,0)" />
	<line x1="197.705" y1="1065.11" x2="199.34" y2="1046.05" stroke-width="0.25" stroke="rgb(0,0,0)" />
	<line x1="199.34" y1="1046.05" x2="205.902" y2="1032.42" stroke-width="0.25" stroke="rgb(0,0,0)" />
	<line x1="205.902" y1="1032.42" x2="216.185" y2="1021.34" stroke-width="0.25" stroke="rgb(0,0,0)" />
	<line x1="216.185" y1="1021.34" x2="229.28" y2="1013.78" stroke-width="0.25" stroke="rgb(0,0,0)" />
	<line x1="229.28" y1="1013.78" x2="244.022" y2="1010.41" stroke-width="0.25" stroke="rgb(0,0,0)" />
	<line x1="244.022" y1="1010.41" x2="259.098" y2="1011.55" stroke-width="0.25" stroke="rgb(0,0,0)" />
	<line x1="259.098" y1="1011.55" x2="275.727" y2="1018.07" stroke-width="0.25" stroke="rgb(0,0,0)" />
	<line x1="275.727" y1="1018.07" x2="284.996" y2="1026.5" stroke-width="0.25" stroke="rgb(0,0,0)" />
	<line x1="284.996" y1="1026.5" x2="293.513" y2="1038.99" stroke-width="0.25" stroke="rgb(0,0,0)" />
	<line x1="293.513" y1="1038.99" x2="297.969" y2="1053.44" stroke-width="0.25" stroke="rgb(0,0,0)" />
	<line x1="297.969" y1="1053.44" x2="297.969" y2="1068.56" stroke-width="0.25" stroke="rgb(0,0,0)" />
	<line x1="297.969" y1="1068.56" x2="293.513" y2="1083.01" stroke-width="0.25" stroke="rgb(0,0,0)" />
	<line x1="293.513" y1="1083.01" x2="284.996" y2="1095.5" stroke-width="0.25" stroke="rgb(0,0,0)" />
	<line x1="284.996" y1="1095.5" x2="273.175" y2="1104.92" stroke-width="0.25" stroke="rgb(0,0,0)" />
	<line x1="273.175" y1="1104.92" x2="259.098" y2="1110.45" stroke-width="0.25" stroke="rgb(0,0,0)" />
	<line x1="259.098" y1="1110.45" x2="244.022" y2="1111.58" stroke-width="0.25" stroke="rgb(0,0,0)" />
	<line x1="244.022" y1="1111.58" x2="233.334" y2="1109.14" stroke-width="0.25" stroke="rgb(0,0,0)" />
	<line x1="1550" y1="1699.06" x2="1347.1" y2="1699.06" stroke-width="0.25" stroke="rgb(0,0,0)" />
	<line x1="1347.1" y1="1699.06" x2="1347.1" y2="1901.96" stroke-width="0.25" stroke="rgb(0,0,0)" />
	<line x1="1347.1" y1="1901.96" x2="1550" y2="1901.96" stroke-width="0.25" stroke="rgb(0,0,0)" />
	<line x1="1550" y1="1901.96" x2="1550" y2="1699.06" stroke-width="0.25" stroke="rgb(0,0,0)" />
	<line x1="1550" y1="887.461" x2="1347.1" y2="887.461" stroke-width="0.25" stroke="rgb(0,0,0)" />
	<line x1="1347.1" y1="887.461" x2="1347.1" y2="1090.36" stroke-width="0.25" stroke="rgb(0,0,0)" />
	<line x1="1347.1" y1="1090.36" x2="1550" y2="1090.36" stroke-width="0.25" stroke="rgb(0,0,0)" />
	<line x1="1550" y1="1090.36" x2="1550" y2="887.461" stroke-width="0.25" stroke="rgb(0,0,0)" />
	<line x1="1550" y1="1293.26" x2="1347.1" y2="1293.26" stroke-width="0.25" stroke="rgb(0,0,0)" />
	<line x1="1347.1" y1="1293.26" x2="1347.1" y2="1496.16" stroke-width="0.25" stroke="rgb(0,0,0)" />
	<line x1="1347.1" y1="1496.16" x2="1550" y2="1496.16" stroke-width="0.25" stroke="rgb(0,0,0)" />
	<line x1="1550" y1="1496.16" x2="1550" y2="1293.26" stroke-width="0.25" stroke="rgb(0,0,0)" />
	<line x1="339.011" y1="1559.06" x2="342.753" y2="1544.05" stroke-width="0.25" stroke="rgb(0,0,0)" />
	<line x1="342.753" y1="1460.18" x2="318.1" y2="1559.06" stroke-width="0.25" stroke="rgb(0,0,0)" />
	<line x1="297.189" y1="1559.06" x2="342.719" y2="1376.45" stroke-width="0.25" stroke="rgb(0,0,0)" />
	<line x1="321.808" y1="1376.45" x2="304.483" y2="1445.93" stroke-width="0.25" stroke="rgb(0,0,0)" />
	<line x1="288.052" y1="1511.83" x2="276.278" y2="1559.06" stroke-width="0.25" stroke="rgb(0,0,0)" />
	<line x1="289.394" y1="1422.58" x2="300.897" y2="1376.45" stroke-width="0.25" stroke="rgb(0,0,0)" />
	<line x1="242.349" y1="1527.4" x2="234.456" y2="1559.06" stroke-width="0.25" stroke="rgb(0,0,0)" />
	<line x1="251.556" y1="1406.6" x2="259.075" y2="1376.45" stroke-width="0.25" stroke="rgb(0,0,0)" />
	<line x1="205.029" y1="1509.34" x2="192.634" y2="1559.06" stroke-width="0.25" stroke="rgb(0,0,0)" />
	<line x1="205.449" y1="1423.79" x2="217.253" y2="1376.45" stroke-width="0.25" stroke="rgb(0,0,0)" />
	<line x1="196.342" y1="1376.45" x2="160.144" y2="1521.63" stroke-width="0.25" stroke="rgb(0,0,0)" />
	<line x1="160.144" y1="1437.76" x2="175.431" y2="1376.45" stroke-width="0.25" stroke="rgb(0,0,0)" />
	<line x1="321.808" y1="1376.45" x2="304.483" y2="1445.93" stroke-width="0.25" stroke="rgb(0,0,0)" />
	<line x1="255.367" y1="1559.06" x2="263.781" y2="1525.31" stroke-width="0.25" stroke="rgb(0,0,0)" />
	<line x1="279.986" y1="1376.45" x2="271.311" y2="1411.24" stroke-width="0.25" stroke="rgb(0,0,0)" />
	<line x1="213.545" y1="1559.06" x2="222.998" y2="1521.14" stroke-width="0.25" stroke="rgb(0,0,0)" />
	<line x1="238.164" y1="1376.45" x2="230.049" y2="1408.99" stroke-width="0.25" stroke="rgb(0,0,0)" />
	<line x1="171.723" y1="1559.06" x2="190.003" y2="1485.74" stroke-width="0.25" stroke="rgb(0,0,0)" />
	<line x1="321.808" y1="1376.45" x2="304.483" y2="1445.93" stroke-width="0.25" stroke="rgb(0,0,0)" />
	<line x1="255.367" y1="1559.06" x2="263.781" y2="1525.31" stroke-width="0.25" stroke="rgb(0,0,0)" />
	<line x1="279.986" y1="1376.45" x2="271.311" y2="1411.24" stroke-width="0.25" stroke="rgb(0,0,0)" />
	<line x1="213.545" y1="1559.06" x2="222.998" y2="1521.14" stroke-width="0.25" stroke="rgb(0,0,0)" />
	<line x1="238.164" y1="1376.45" x2="230.049" y2="1408.99" stroke-width="0.25" stroke="rgb(0,0,0)" />
	<line x1="160.144" y1="979.319" x2="209.309" y2="970.65" stroke-width="0.25" stroke="rgb(0,0,0)" />
	<line x1="326.154" y1="970.65" x2="160.144" y2="999.922" stroke-width="0.25" stroke="rgb(0,0,0)" />
	<line x1="160.144" y1="1020.53" x2="213.635" y2="1011.09" stroke-width="0.25" stroke="rgb(0,0,0)" />
	<line x1="342.753" y1="1008.93" x2="290.827" y2="1018.08" stroke-width="0.25" stroke="rgb(0,0,0)" />
	<line x1="160.144" y1="1061.73" x2="188.237" y2="1056.78" stroke-width="0.25" stroke="rgb(0,0,0)" />
	<line x1="342.753" y1="1050.13" x2="308.114" y2="1056.24" stroke-width="0.25" stroke="rgb(0,0,0)" />
	<line x1="160.144" y1="1102.94" x2="198.231" y2="1096.22" stroke-width="0.25" stroke="rgb(0,0,0)" />
	<line x1="342.753" y1="1091.34" x2="294.282" y2="1099.89" stroke-width="0.25" stroke="rgb(0,0,0)" />
	<line x1="160.144" y1="1020.53" x2="213.635" y2="1011.09" stroke-width="0.25" stroke="rgb(0,0,0)" />
	<line x1="263.37" y1="1002.32" x2="342.753" y2="988.326" stroke-width="0.25" stroke="rgb(0,0,0)" />
	<line x1="193.261" y1="1035.29" x2="160.144" y2="1041.13" stroke-width="0.25" stroke="rgb(0,0,0)" />
	<line x1="303.356" y1="1036.48" x2="342.753" y2="1029.53" stroke-width="0.25" stroke="rgb(0,0,0)" />
	<line x1="189.268" y1="1077.2" x2="160.144" y2="1082.33" stroke-width="0.25" stroke="rgb(0,0,0)" />
	<line x1="305.91" y1="1077.23" x2="342.753" y2="1070.74" stroke-width="0.25" stroke="rgb(0,0,0)" />
	<line x1="218.693" y1="1113.22" x2="160.144" y2="1123.54" stroke-width="0.25" stroke="rgb(0,0,0)" />
	<line x1="160.144" y1="1144.14" x2="342.753" y2="1111.94" stroke-width="0.25" stroke="rgb(0,0,0)" />
	<line x1="342.753" y1="1132.55" x2="225.285" y2="1153.26" stroke-width="0.25" stroke="rgb(0,0,0)" />
	<line x1="342.13" y1="1153.26" x2="342.753" y2="1153.15" stroke-width="0.25" stroke="rgb(0,0,0)" />
	<line x1="160.144" y1="1144.14" x2="342.753" y2="1111.94" stroke-width="0.25" stroke="rgb(0,0,0)" />
	<line x1="342.753" y1="1132.55" x2="225.285" y2="1153.26" stroke-width="0.25" stroke="rgb(0,0,0)" />
	<line x1="352.898" y1="1772.1" x2="149.999" y2="1772.1" stroke-width="0.25" stroke="rgb(0,0,0)" />
	<line x1="149.999" y1="1772.1" x2="149.999" y2="1975" stroke-width="0.25" stroke="rgb(0,0,0)" />
	<line x1="149.999" y1="1975" x2="352.898" y2="1975" stroke-width="0.25" stroke="rgb(0,0,0)" />
	<line x1="352.898" y1="1975" x2="352.898" y2="1772.1" stroke-width="0.25" stroke="rgb(0,0,0)" />
	<line x1="233.334" y1="1920.74" x2="216.185" y2="1912.25" stroke-width="0.25" stroke="rgb(0,0,0)" />
	<line x1="216.185" y1="1912.25" x2="205.902" y2="1901.17" stroke-width="0.25" stroke="rgb(0,0,0)" />
	<line x1="205.902" y1="1901.17" x2="199.34" y2="1887.55" stroke-width="0.25" stroke="rgb(0,0,0)" />
	<line x1="199.34" y1="1887.55" x2="197.705" y2="1876.7" stroke-width="0.25" stroke="rgb(0,0,0)" />
	<line x1="197.705" y1="1876.7" x2="199.34" y2="1857.64" stroke-width="0.25" stroke="rgb(0,0,0)" />
	<line x1="199.34" y1="1857.64" x2="205.902" y2="1844.02" stroke-width="0.25" stroke="rgb(0,0,0)" />
	<line x1="205.902" y1="1844.02" x2="216.185" y2="1832.93" stroke-width="0.25" stroke="rgb(0,0,0)" />
	<line x1="216.185" y1="1832.93" x2="229.28" y2="1825.37" stroke-width="0.25" stroke="rgb(0,0,0)" />
	<line x1="229.28" y1="1825.37" x2="244.022" y2="1822.01" stroke-width="0.25" stroke="rgb(0,0,0)" />
	<line x1="244.022" y1="1822.01" x2="259.098" y2="1823.14" stroke-width="0.25" stroke="rgb(0,0,0)" />
	<line x1="259.098" y1="1823.14" x2="275.727" y2="1829.67" stroke-width="0.25" stroke="rgb(0,0,0)" />
	<line x1="275.727" y1="1829.67" x2="284.996" y2="1838.09" stroke-width="0.25" stroke="rgb(0,0,0)" />
	<line x1="284.996" y1="1838.09" x2="293.513" y2="1850.59" stroke-width="0.25" stroke="rgb(0,0,0)" />
	<line x1="293.513" y1="1850.59" x2="297.969" y2="1865.03" stroke-width="0.25" stroke="rgb(0,0,0)" />
	<line x1="297.969" y1="1865.03" x2="297.969" y2="1880.15" stroke-width="0.25" stroke="rgb(0,0,0)" />
	<line x1="297.969" y1="1880.15" x2="293.513" y2="1894.6" stroke-width="0.25" stroke="rgb(0,0,0)" />
	<line x1="293.513" y1="1894.6" x2="284.996" y2="1907.09" stroke-width="0.25" stroke="rgb(0,0,0)" />
	<line x1="284.996" y1="1907.09" x2="273.175" y2="1916.52" stroke-width="0.25" stroke="rgb(0,0,0)" />
	<line x1="273.175" y1="1916.52" x2="259.098" y2="1922.05" stroke-width="0.25" stroke="rgb(0,0,0)" />
	<line x1="259.098" y1="1922.05" x2="244.022" y2="1923.18" stroke-width="0.25" stroke="rgb(0,0,0)" />
	<line x1="244.022" y1="1923.18" x2="233.334" y2="1920.74" stroke-width="0.25" stroke="rgb(0,0,0)" />
	<line x1="342.753" y1="1782.25" x2="160.144" y2="1782.25" stroke-width="0.25" stroke="rgb(0,0,0)" />
	<line x1="160.144" y1="1782.25" x2="160.144" y2="1964.86" stroke-width="0.25" stroke="rgb(0,0,0)" />
	<line x1="160.144" y1="1964.86" x2="342.753" y2="1964.86" stroke-width="0.25" stroke="rgb(0,0,0)" />
	<line x1="342.753" y1="1964.86" x2="342.753" y2="1782.25" stroke-width="0.25" stroke="rgb(0,0,0)" />
	<line x1="229.909" y1="1930.36" x2="210.016" y2="1920.52" stroke-width="0.25" stroke="rgb(0,0,0)" />
	<line x1="210.016" y1="1920.52" x2="197.425" y2="1906.95" stroke-width="0.25" stroke="rgb(0,0,0)" />
	<line x1="197.425" y1="1906.95" x2="189.536" y2="1890.57" stroke-width="0.25" stroke="rgb(0,0,0)" />
	<line x1="189.536" y1="1890.57" x2="187.495" y2="1877.03" stroke-width="0.25" stroke="rgb(0,0,0)" />
	<line x1="187.495" y1="1877.03" x2="189.39" y2="1854.92" stroke-width="0.25" stroke="rgb(0,0,0)" />
	<line x1="189.39" y1="1854.92" x2="197.425" y2="1838.24" stroke-width="0.25" stroke="rgb(0,0,0)" />
	<line x1="197.425" y1="1838.24" x2="209.785" y2="1824.91" stroke-width="0.25" stroke="rgb(0,0,0)" />
	<line x1="209.785" y1="1824.91" x2="225.53" y2="1815.82" stroke-width="0.25" stroke="rgb(0,0,0)" />
	<line x1="225.53" y1="1815.82" x2="243.255" y2="1811.78" stroke-width="0.25" stroke="rgb(0,0,0)" />
	<line x1="243.255" y1="1811.78" x2="261.382" y2="1813.14" stroke-width="0.25" stroke="rgb(0,0,0)" />
	<line x1="261.382" y1="1813.14" x2="281.169" y2="1820.91" stroke-width="0.25" stroke="rgb(0,0,0)" />
	<line x1="281.169" y1="1820.91" x2="292.706" y2="1831.39" stroke-width="0.25" stroke="rgb(0,0,0)" />
	<line x1="292.706" y1="1831.39" x2="302.757" y2="1846.13" stroke-width="0.25" stroke="rgb(0,0,0)" />
	<line x1="302.757" y1="1846.13" x2="308.114" y2="1863.5" stroke-width="0.25" stroke="rgb(0,0,0)" />
	<line x1="308.114" y1="1863.5" x2="308.114" y2="1881.68" stroke-width="0.25" stroke="rgb(0,0,0)" />
	<line x1="308.114" y1="1881.68" x2="302.757" y2="1899.06" stroke-width="0.25" stroke="rgb(0,0,0)" />
	<line x1="302.757" y1="1899.06" x2="292.515" y2="1914.07" stroke-width="0.25" stroke="rgb(0,0,0)" />
	<line x1="292.515" y1="1914.07" x2="278.304" y2="1925.4" stroke-width="0.25" stroke="rgb(0,0,0)" />
	<line x1="278.304" y1="1925.4" x2="261.382" y2="1932.05" stroke-width="0.25" stroke="rgb(0,0,0)" />
	<line x1="261.382" y1="1932.05" x2="243.255" y2="1933.41" stroke-width="0.25" stroke="rgb(0,0,0)" />
	<line x1="243.255" y1="1933.41" x2="229.909" y2="1930.36" stroke-width="0.25" stroke="rgb(0,0,0)" />
	<line x1="332.608" y1="1792.39" x2="170.289" y2="1792.39" stroke-width="0.25" stroke="rgb(0,0,0)" />
	<line x1="170.289" y1="1792.39" x2="170.289" y2="1954.71" stroke-width="0.25" stroke="rgb(0,0,0)" />
	<line x1="170.289" y1="1954.71" x2="332.608" y2="1954.71" stroke-width="0.25" stroke="rgb(0,0,0)" />
	<line x1="332.608" y1="1954.71" x2="332.608" y2="1792.39" stroke-width="0.25" stroke="rgb(0,0,0)" />
	<line x1="226.484" y1="1939.98" x2="203.844" y2="1928.78" stroke-width="0.25" stroke="rgb(0,0,0)" />
	<line x1="203.844" y1="1928.78" x2="188.947" y2="1912.73" stroke-width="0.25" stroke="rgb(0,0,0)" />
	<line x1="188.947" y1="1912.73" x2="179.732" y2="1893.6" stroke-width="0.25" stroke="rgb(0,0,0)" />
	<line x1="179.732" y1="1893.6" x2="177.285" y2="1877.36" stroke-width="0.25" stroke="rgb(0,0,0)" />
	<line x1="177.285" y1="1877.36" x2="179.444" y2="1852.2" stroke-width="0.25" stroke="rgb(0,0,0)" />
	<line x1="179.444" y1="1852.2" x2="188.947" y2="1832.46" stroke-width="0.25" stroke="rgb(0,0,0)" />
	<line x1="188.947" y1="1832.46" x2="203.39" y2="1816.89" stroke-width="0.25" stroke="rgb(0,0,0)" />
	<line x1="203.39" y1="1816.89" x2="221.785" y2="1806.27" stroke-width="0.25" stroke="rgb(0,0,0)" />
	<line x1="221.785" y1="1806.27" x2="242.492" y2="1801.55" stroke-width="0.25" stroke="rgb(0,0,0)" />
	<line x1="242.492" y1="1801.55" x2="263.663" y2="1803.14" stroke-width="0.25" stroke="rgb(0,0,0)" />
	<line x1="263.663" y1="1803.14" x2="286.611" y2="1812.14" stroke-width="0.25" stroke="rgb(0,0,0)" />
	<line x1="286.611" y1="1812.14" x2="300.412" y2="1824.69" stroke-width="0.25" stroke="rgb(0,0,0)" />
	<line x1="300.412" y1="1824.69" x2="312.002" y2="1841.68" stroke-width="0.25" stroke="rgb(0,0,0)" />
	<line x1="312.002" y1="1841.68" x2="318.259" y2="1861.97" stroke-width="0.25" stroke="rgb(0,0,0)" />
	<line x1="318.259" y1="1861.97" x2="318.259" y2="1883.21" stroke-width="0.25" stroke="rgb(0,0,0)" />
	<line x1="318.259" y1="1883.21" x2="312.002" y2="1903.51" stroke-width="0.25" stroke="rgb(0,0,0)" />
	<line x1="312.002" y1="1903.51" x2="300.035" y2="1921.05" stroke-width="0.25" stroke="rgb(0,0,0)" />
	<line x1="300.035" y1="1921.05" x2="283.433" y2="1934.29" stroke-width="0.25" stroke="rgb(0,0,0)" />
	<line x1="283.433" y1="1934.29" x2="263.663" y2="1942.05" stroke-width="0.25" stroke="rgb(0,0,0)" />
	<line x1="263.663" y1="1942.05" x2="242.488" y2="1943.64" stroke-width="0.25" stroke="rgb(0,0,0)" />
	<line x1="242.488" y1="1943.64" x2="226.484" y2="1939.98" stroke-width="0.25" stroke="rgb(0,0,0)" />
	<line x1="1357.25" y1="1711.72" x2="1539.86" y2="1719.7" stroke-width="0.25" stroke="rgb(0,0,0)" />
	<line x1="1539.86" y1="1740.01" x2="1357.25" y2="1732.03" stroke-width="0.25" stroke="rgb(0,0,0)" />
	<line x1="1357.25" y1="1752.34" x2="1539.86" y2="1760.32" stroke-width="0.25" stroke="rgb(0,0,0)" />
	<line x1="1539.86" y1="1780.62" x2="1357.25" y2="1772.65" stroke-width="0.25" stroke="rgb(0,0,0)" />
	<line x1="1357.25" y1="1792.96" x2="1539.86" y2="1800.93" stroke-width="0.25" stroke="rgb(0,0,0)" />
	<line x1="1539.86" y1="1821.24" x2="1357.25" y2="1813.27" stroke-width="0.25" stroke="rgb(0,0,0)" />
	<line x1="1357.25" y1="1833.58" x2="1539.86" y2="1841.55" stroke-width="0.25" stroke="rgb(0,0,0)" />
	<line x1="1539.86" y1="1861.86" x2="1357.25" y2="1853.89" stroke-width="0.25" stroke="rgb(0,0,0)" />
	<line x1="1357.25" y1="1874.2" x2="1539.86" y2="1882.17" stroke-width="0.25" stroke="rgb(0,0,0)" />
	<line x1="1357.25" y1="1711.72" x2="1539.86" y2="1719.7" stroke-width="0.25" stroke="rgb(0,0,0)" />
	<line x1="1539.86" y1="1740.01" x2="1357.25" y2="1732.03" stroke-width="0.25" stroke="rgb(0,0,0)" />
	<line x1="1357.25" y1="1752.34" x2="1539.86" y2="1760.32" stroke-width="0.25" stroke="rgb(0,0,0)" />
	<line x1="1539.86" y1="1780.62" x2="1357.25" y2="1772.65" stroke-width="0.25" stroke="rgb(0,0,0)" />
	<line x1="1357.25" y1="1792.96" x2="1539.86" y2="1800.93" stroke-width="0.25" stroke="rgb(0,0,0)" />
	<line x1="1539.86" y1="1821.24" x2="1357.25" y2="1813.27" stroke-width="0.25" stroke="rgb(0,0,0)" />
	<line x1="1357.25" y1="1833.58" x2="1539.86" y2="1841.55" stroke-width="0.25" stroke="rgb(0,0,0)" />
	<line x1="1539.86" y1="1861.86" x2="1357.25" y2="1853.89" stroke-width="0.25" stroke="rgb(0,0,0)" />
	<line x1="1518.72" y1="1486.01" x2="1539.86" y2="1423.2" stroke-width="0.25" stroke="rgb(0,0,0)" />
	<line x1="1539.86" y1="1359.59" x2="1497.31" y2="1486.01" stroke-width="0.25" stroke="rgb(0,0,0)" />
	<line x1="1475.9" y1="1486.01" x2="1537.36" y2="1303.4" stroke-width="0.25" stroke="rgb(0,0,0)" />
	<line x1="1515.95" y1="1303.4" x2="1454.49" y2="1486.01" stroke-width="0.25" stroke="rgb(0,0,0)" />
	<line x1="1433.09" y1="1486.01" x2="1494.54" y2="1303.4" stroke-width="0.25" stroke="rgb(0,0,0)" />
	<line x1="1473.13" y1="1303.4" x2="1411.68" y2="1486.01" stroke-width="0.25" stroke="rgb(0,0,0)" />
	<line x1="1390.27" y1="1486.01" x2="1451.72" y2="1303.4" stroke-width="0.25" stroke="rgb(0,0,0)" />
	<line x1="1539.86" y1="977.909" x2="1505.43" y2="1080.22" stroke-width="0.25" stroke="rgb(0,0,0)" />
	<line x1="1357.25" y1="1456.91" x2="1408.91" y2="1303.4" stroke-width="0.25" stroke="rgb(0,0,0)" />
	<line x1="1524.07" y1="897.606" x2="1462.61" y2="1080.22" stroke-width="0.25" stroke="rgb(0,0,0)" />
	<line x1="1357.25" y1="1329.68" x2="1366.09" y2="1303.4" stroke-width="0.25" stroke="rgb(0,0,0)" />
	<line x1="1390.27" y1="1486.01" x2="1451.72" y2="1303.4" stroke-width="0.25" stroke="rgb(0,0,0)" />
	<line x1="1526.84" y1="1080.22" x2="1539.86" y2="1041.52" stroke-width="0.25" stroke="rgb(0,0,0)" />
	<line x1="1430.32" y1="1303.4" x2="1368.86" y2="1486.01" stroke-width="0.25" stroke="rgb(0,0,0)" />
	<line x1="1484.02" y1="1080.22" x2="1539.86" y2="914.297" stroke-width="0.25" stroke="rgb(0,0,0)" />
	<line x1="1387.5" y1="1303.4" x2="1357.25" y2="1393.3" stroke-width="0.25" stroke="rgb(0,0,0)" />
	<line x1="1441.2" y1="1080.22" x2="1502.66" y2="897.606" stroke-width="0.25" stroke="rgb(0,0,0)" />
	<line x1="1481.25" y1="897.606" x2="1419.79" y2="1080.22" stroke-width="0.25" stroke="rgb(0,0,0)" />
	<line x1="1398.39" y1="1080.22" x2="1459.84" y2="897.606" stroke-width="0.25" stroke="rgb(0,0,0)" />
	<line x1="1438.43" y1="897.606" x2="1376.98" y2="1080.22" stroke-width="0.25" stroke="rgb(0,0,0)" />
	<line x1="1357.25" y1="1075.23" x2="1417.03" y2="897.606" stroke-width="0.25" stroke="rgb(0,0,0)" />
	<line x1="1395.62" y1="897.606" x2="1357.25" y2="1011.62" stroke-width="0.25" stroke="rgb(0,0,0)" />
	<line x1="1357.25" y1="948.006" x2="1374.21" y2="897.606" stroke-width="0.25" stroke="rgb(0,0,0)" />
	<line x1="1481.25" y1="897.606" x2="1419.79" y2="1080.22" stroke-width="0.25" stroke="rgb(0,0,0)" />
	<line x1="1398.39" y1="1080.22" x2="1459.84" y2="897.606" stroke-width="0.25" stroke="rgb(0,0,0)" />
	<line x1="1438.43" y1="897.606" x2="1376.98" y2="1080.22" stroke-width="0.25" stroke="rgb(0,0,0)" />
	<line x1="1357.25" y1="1075.23" x2="1417.03" y2="897.606" stroke-width="0.25" stroke="rgb(0,0,0)" />
	<line x1="1395.62" y1="897.606" x2="1357.25" y2="1011.62" stroke-width="0.25" stroke="rgb(0,0,0)" />
</svg>
