<?xml version="1.0" standalone="no" ?>
<!DOCTYPE svg PUBLIC "-//W3C//DTD SVG 1.1//EN" "http://www.w3.org/Graphics/SVG/1.1/DTD/svg11.dtd">
<svg width="2000px" height="2000px" xmlns="http://www.w3.org/2000/svg" version="1.1" >
	<line x1="347.825" y1="1796.99" x2="337.199" y2="1777.17" stroke-width="0.25" stroke="rgb(0,0,0)" />
	<line x1="318.781" y1="1777.17" x2="347.825" y2="1831.34" stroke-width="0.25" stroke="rgb(0,0,0)" />
	<line x1="347.825" y1="1865.69" x2="300.363" y2="1777.17" stroke-width="0.25" stroke="rgb(0,0,0)" />
	<line x1="281.945" y1="1777.17" x2="347.825" y2="1900.04" stroke-width="0.25" stroke="rgb(0,0,0)" />
	<line x1="347.825" y1="1934.39" x2="263.527" y2="1777.17" stroke-width="0.25" stroke="rgb(0,0,0)" />
	<line x1="245.109" y1="1777.17" x2="268.897" y2="1821.54" stroke-width="0.25" stroke="rgb(0,0,0)" />
	<line x1="302.199" y1="1883.65" x2="347.825" y2="1968.74" stroke-width="0.25" stroke="rgb(0,0,0)" />
	<line x1="330.045" y1="1969.93" x2="294.057" y2="1902.81" stroke-width="0.25" stroke="rgb(0,0,0)" />
	<line x1="248.171" y1="1817.23" x2="226.691" y2="1777.17" stroke-width="0.25" stroke="rgb(0,0,0)" />
	<line x1="208.273" y1="1777.17" x2="231.104" y2="1819.75" stroke-width="0.25" stroke="rgb(0,0,0)" />
	<line x1="282.488" y1="1915.58" x2="311.627" y2="1969.93" stroke-width="0.25" stroke="rgb(0,0,0)" />
	<line x1="293.209" y1="1969.93" x2="268.482" y2="1923.81" stroke-width="0.25" stroke="rgb(0,0,0)" />
	<line x1="216.512" y1="1826.89" x2="189.855" y2="1777.17" stroke-width="0.25" stroke="rgb(0,0,0)" />
	<line x1="171.437" y1="1777.17" x2="204.241" y2="1838.35" stroke-width="0.25" stroke="rgb(0,0,0)" />
	<line x1="252.125" y1="1927.66" x2="274.791" y2="1969.93" stroke-width="0.25" stroke="rgb(0,0,0)" />
	<line x1="256.372" y1="1969.93" x2="232.71" y2="1925.8" stroke-width="0.25" stroke="rgb(0,0,0)" />
	<line x1="194.871" y1="1855.23" x2="155.071" y2="1781" stroke-width="0.25" stroke="rgb(0,0,0)" />
	<line x1="155.071" y1="1815.35" x2="194.377" y2="1888.66" stroke-width="0.25" stroke="rgb(0,0,0)" />
	<line x1="203.965" y1="1906.54" x2="237.954" y2="1969.93" stroke-width="0.25" stroke="rgb(0,0,0)" />
	<line x1="219.536" y1="1969.93" x2="155.071" y2="1849.7" stroke-width="0.25" stroke="rgb(0,0,0)" />
	<line x1="155.071" y1="1884.05" x2="201.118" y2="1969.93" stroke-width="0.25" stroke="rgb(0,0,0)" />
	<line x1="182.7" y1="1969.93" x2="155.071" y2="1918.4" stroke-width="0.25" stroke="rgb(0,0,0)" />
	<line x1="155.071" y1="1952.75" x2="164.282" y2="1969.93" stroke-width="0.25" stroke="rgb(0,0,0)" />
</svg>
