<?xml version="1.0" standalone="no" ?>
<!DOCTYPE svg PUBLIC "-//W3C//DTD SVG 1.1//EN" "http://www.w3.org/Graphics/SVG/1.1/DTD/svg11.dtd">
<svg width="2000px" height="2000px" xmlns="http://www.w3.org/2000/svg" version="1.1" >
	<line x1="155.071" y1="1788.28" x2="171.413" y2="1777.17" stroke-width="0.25" stroke="rgb(0,0,0)" />
	<line x1="200.291" y1="1777.17" x2="155.071" y2="1807.91" stroke-width="0.25" stroke="rgb(0,0,0)" />
	<line x1="155.071" y1="1827.53" x2="229.169" y2="1777.17" stroke-width="0.25" stroke="rgb(0,0,0)" />
	<line x1="258.048" y1="1777.17" x2="155.071" y2="1847.16" stroke-width="0.25" stroke="rgb(0,0,0)" />
	<line x1="155.071" y1="1866.78" x2="286.926" y2="1777.17" stroke-width="0.25" stroke="rgb(0,0,0)" />
	<line x1="315.804" y1="1777.17" x2="255.99" y2="1817.82" stroke-width="0.25" stroke="rgb(0,0,0)" />
	<line x1="193.847" y1="1860.06" x2="155.071" y2="1886.41" stroke-width="0.25" stroke="rgb(0,0,0)" />
	<line x1="155.071" y1="1906.03" x2="193.102" y2="1880.19" stroke-width="0.25" stroke="rgb(0,0,0)" />
	<line x1="275.558" y1="1824.15" x2="344.682" y2="1777.17" stroke-width="0.25" stroke="rgb(0,0,0)" />
	<line x1="347.825" y1="1794.66" x2="288.893" y2="1834.71" stroke-width="0.25" stroke="rgb(0,0,0)" />
	<line x1="198.011" y1="1896.48" x2="155.071" y2="1925.66" stroke-width="0.25" stroke="rgb(0,0,0)" />
	<line x1="155.071" y1="1945.28" x2="207.105" y2="1909.92" stroke-width="0.25" stroke="rgb(0,0,0)" />
	<line x1="297.975" y1="1848.17" x2="347.825" y2="1814.29" stroke-width="0.25" stroke="rgb(0,0,0)" />
	<line x1="347.825" y1="1833.91" x2="303.042" y2="1864.35" stroke-width="0.25" stroke="rgb(0,0,0)" />
	<line x1="220.376" y1="1920.53" x2="155.071" y2="1964.91" stroke-width="0.25" stroke="rgb(0,0,0)" />
	<line x1="176.565" y1="1969.93" x2="239.29" y2="1927.3" stroke-width="0.25" stroke="rgb(0,0,0)" />
	<line x1="301.848" y1="1884.79" x2="347.825" y2="1853.54" stroke-width="0.25" stroke="rgb(0,0,0)" />
	<line x1="347.825" y1="1873.17" x2="205.444" y2="1969.93" stroke-width="0.25" stroke="rgb(0,0,0)" />
	<line x1="234.322" y1="1969.93" x2="347.825" y2="1892.79" stroke-width="0.25" stroke="rgb(0,0,0)" />
	<line x1="347.825" y1="1912.42" x2="263.2" y2="1969.93" stroke-width="0.25" stroke="rgb(0,0,0)" />
	<line x1="292.078" y1="1969.93" x2="347.825" y2="1932.04" stroke-width="0.25" stroke="rgb(0,0,0)" />
	<line x1="347.825" y1="1951.67" x2="320.956" y2="1969.93" stroke-width="0.25" stroke="rgb(0,0,0)" />
</svg>
