<?xml version="1.0" standalone="no" ?>
<!DOCTYPE svg PUBLIC "-//W3C//DTD SVG 1.1//EN" "http://www.w3.org/Graphics/SVG/1.1/DTD/svg11.dtd">
<svg width="2000px" height="2000px" xmlns="http://www.w3.org/2000/svg" version="1.1" >
	<line x1="352.898" y1="1366.3" x2="149.999" y2="1366.3" stroke-width="0.25" stroke="rgb(0,0,0)" />
	<line x1="149.999" y1="1366.3" x2="149.999" y2="1569.2" stroke-width="0.25" stroke="rgb(0,0,0)" />
	<line x1="149.999" y1="1569.2" x2="352.898" y2="1569.2" stroke-width="0.25" stroke="rgb(0,0,0)" />
	<line x1="352.898" y1="1569.2" x2="352.898" y2="1366.3" stroke-width="0.25" stroke="rgb(0,0,0)" />
	<line x1="229.28" y1="1514.01" x2="216.185" y2="1506.45" stroke-width="0.25" stroke="rgb(0,0,0)" />
	<line x1="216.185" y1="1506.45" x2="205.902" y2="1495.37" stroke-width="0.25" stroke="rgb(0,0,0)" />
	<line x1="205.902" y1="1495.37" x2="199.34" y2="1481.75" stroke-width="0.25" stroke="rgb(0,0,0)" />
	<line x1="199.34" y1="1481.75" x2="197.088" y2="1466.79" stroke-width="0.25" stroke="rgb(0,0,0)" />
	<line x1="197.088" y1="1466.79" x2="199.34" y2="1451.85" stroke-width="0.25" stroke="rgb(0,0,0)" />
	<line x1="199.34" y1="1451.85" x2="205.902" y2="1438.22" stroke-width="0.25" stroke="rgb(0,0,0)" />
	<line x1="205.902" y1="1438.22" x2="216.185" y2="1427.14" stroke-width="0.25" stroke="rgb(0,0,0)" />
	<line x1="216.185" y1="1427.14" x2="232.595" y2="1418.82" stroke-width="0.25" stroke="rgb(0,0,0)" />
	<line x1="232.595" y1="1418.82" x2="244.022" y2="1416.21" stroke-width="0.25" stroke="rgb(0,0,0)" />
	<line x1="244.022" y1="1416.21" x2="259.098" y2="1417.34" stroke-width="0.25" stroke="rgb(0,0,0)" />
	<line x1="259.098" y1="1417.34" x2="273.175" y2="1422.87" stroke-width="0.25" stroke="rgb(0,0,0)" />
	<line x1="273.175" y1="1422.87" x2="284.996" y2="1432.29" stroke-width="0.25" stroke="rgb(0,0,0)" />
	<line x1="284.996" y1="1432.29" x2="293.513" y2="1444.79" stroke-width="0.25" stroke="rgb(0,0,0)" />
	<line x1="293.513" y1="1444.79" x2="297.969" y2="1459.23" stroke-width="0.25" stroke="rgb(0,0,0)" />
	<line x1="297.969" y1="1459.23" x2="297.969" y2="1474.35" stroke-width="0.25" stroke="rgb(0,0,0)" />
	<line x1="297.969" y1="1474.35" x2="293.513" y2="1488.81" stroke-width="0.25" stroke="rgb(0,0,0)" />
	<line x1="293.513" y1="1488.81" x2="284.996" y2="1501.3" stroke-width="0.25" stroke="rgb(0,0,0)" />
	<line x1="284.996" y1="1501.3" x2="273.175" y2="1510.73" stroke-width="0.25" stroke="rgb(0,0,0)" />
	<line x1="273.175" y1="1510.73" x2="259.098" y2="1516.25" stroke-width="0.25" stroke="rgb(0,0,0)" />
	<line x1="259.098" y1="1516.25" x2="240.703" y2="1516.62" stroke-width="0.25" stroke="rgb(0,0,0)" />
	<line x1="240.703" y1="1516.62" x2="229.28" y2="1514.01" stroke-width="0.25" stroke="rgb(0,0,0)" />
	<line x1="352.898" y1="960.505" x2="149.999" y2="960.505" stroke-width="0.25" stroke="rgb(0,0,0)" />
	<line x1="149.999" y1="960.505" x2="149.999" y2="1163.4" stroke-width="0.25" stroke="rgb(0,0,0)" />
	<line x1="149.999" y1="1163.4" x2="352.898" y2="1163.4" stroke-width="0.25" stroke="rgb(0,0,0)" />
	<line x1="352.898" y1="1163.4" x2="352.898" y2="960.505" stroke-width="0.25" stroke="rgb(0,0,0)" />
	<line x1="229.28" y1="1108.22" x2="216.185" y2="1100.66" stroke-width="0.25" stroke="rgb(0,0,0)" />
	<line x1="216.185" y1="1100.66" x2="205.902" y2="1089.57" stroke-width="0.25" stroke="rgb(0,0,0)" />
	<line x1="205.902" y1="1089.57" x2="199.34" y2="1075.95" stroke-width="0.25" stroke="rgb(0,0,0)" />
	<line x1="199.34" y1="1075.95" x2="197.088" y2="1061" stroke-width="0.25" stroke="rgb(0,0,0)" />
	<line x1="197.088" y1="1061" x2="199.34" y2="1046.05" stroke-width="0.25" stroke="rgb(0,0,0)" />
	<line x1="199.34" y1="1046.05" x2="205.902" y2="1032.42" stroke-width="0.25" stroke="rgb(0,0,0)" />
	<line x1="205.902" y1="1032.42" x2="216.185" y2="1021.34" stroke-width="0.25" stroke="rgb(0,0,0)" />
	<line x1="216.185" y1="1021.34" x2="232.595" y2="1013.02" stroke-width="0.25" stroke="rgb(0,0,0)" />
	<line x1="232.595" y1="1013.02" x2="244.022" y2="1010.41" stroke-width="0.25" stroke="rgb(0,0,0)" />
	<line x1="244.022" y1="1010.41" x2="259.098" y2="1011.55" stroke-width="0.25" stroke="rgb(0,0,0)" />
	<line x1="259.098" y1="1011.55" x2="273.175" y2="1017.07" stroke-width="0.25" stroke="rgb(0,0,0)" />
	<line x1="273.175" y1="1017.07" x2="284.996" y2="1026.5" stroke-width="0.25" stroke="rgb(0,0,0)" />
	<line x1="284.996" y1="1026.5" x2="293.513" y2="1038.99" stroke-width="0.25" stroke="rgb(0,0,0)" />
	<line x1="293.513" y1="1038.99" x2="297.969" y2="1053.44" stroke-width="0.25" stroke="rgb(0,0,0)" />
	<line x1="297.969" y1="1053.44" x2="297.969" y2="1068.56" stroke-width="0.25" stroke="rgb(0,0,0)" />
	<line x1="297.969" y1="1068.56" x2="293.513" y2="1083.01" stroke-width="0.25" stroke="rgb(0,0,0)" />
	<line x1="293.513" y1="1083.01" x2="284.996" y2="1095.5" stroke-width="0.25" stroke="rgb(0,0,0)" />
	<line x1="284.996" y1="1095.5" x2="273.175" y2="1104.93" stroke-width="0.25" stroke="rgb(0,0,0)" />
	<line x1="273.175" y1="1104.93" x2="259.098" y2="1110.45" stroke-width="0.25" stroke="rgb(0,0,0)" />
	<line x1="259.098" y1="1110.45" x2="240.703" y2="1110.82" stroke-width="0.25" stroke="rgb(0,0,0)" />
	<line x1="240.703" y1="1110.82" x2="229.28" y2="1108.22" stroke-width="0.25" stroke="rgb(0,0,0)" />
	<line x1="1550" y1="1699.06" x2="1347.1" y2="1699.06" stroke-width="0.25" stroke="rgb(0,0,0)" />
	<line x1="1347.1" y1="1699.06" x2="1347.1" y2="1901.96" stroke-width="0.25" stroke="rgb(0,0,0)" />
	<line x1="1347.1" y1="1901.96" x2="1550" y2="1901.96" stroke-width="0.25" stroke="rgb(0,0,0)" />
	<line x1="1550" y1="1901.96" x2="1550" y2="1699.06" stroke-width="0.25" stroke="rgb(0,0,0)" />
	<line x1="1550" y1="887.461" x2="1347.1" y2="887.461" stroke-width="0.25" stroke="rgb(0,0,0)" />
	<line x1="1347.1" y1="887.461" x2="1347.1" y2="1090.36" stroke-width="0.25" stroke="rgb(0,0,0)" />
	<line x1="1347.1" y1="1090.36" x2="1550" y2="1090.36" stroke-width="0.25" stroke="rgb(0,0,0)" />
	<line x1="1550" y1="1090.36" x2="1550" y2="887.461" stroke-width="0.25" stroke="rgb(0,0,0)" />
	<line x1="1550" y1="1293.26" x2="1347.1" y2="1293.26" stroke-width="0.25" stroke="rgb(0,0,0)" />
	<line x1="1347.1" y1="1293.26" x2="1347.1" y2="1496.16" stroke-width="0.25" stroke="rgb(0,0,0)" />
	<line x1="1347.1" y1="1496.16" x2="1550" y2="1496.16" stroke-width="0.25" stroke="rgb(0,0,0)" />
	<line x1="1550" y1="1496.16" x2="1550" y2="1293.26" stroke-width="0.25" stroke="rgb(0,0,0)" />
	<line x1="160.144" y1="1380.12" x2="342.753" y2="1392.89" stroke-width="0.25" stroke="rgb(0,0,0)" />
	<line x1="342.753" y1="1413.23" x2="261.985" y2="1407.58" stroke-width="0.25" stroke="rgb(0,0,0)" />
	<line x1="160.144" y1="1420.8" x2="205.299" y2="1423.95" stroke-width="0.25" stroke="rgb(0,0,0)" />
	<line x1="342.753" y1="1453.9" x2="306.153" y2="1451.35" stroke-width="0.25" stroke="rgb(0,0,0)" />
	<line x1="160.144" y1="1461.47" x2="187.344" y2="1463.38" stroke-width="0.25" stroke="rgb(0,0,0)" />
	<line x1="342.753" y1="1494.58" x2="303.201" y2="1491.82" stroke-width="0.25" stroke="rgb(0,0,0)" />
	<line x1="160.144" y1="1502.15" x2="201.007" y2="1505.01" stroke-width="0.25" stroke="rgb(0,0,0)" />
	<line x1="342.753" y1="1413.23" x2="261.985" y2="1407.58" stroke-width="0.25" stroke="rgb(0,0,0)" />
	<line x1="242.296" y1="1406.2" x2="160.144" y2="1400.46" stroke-width="0.25" stroke="rgb(0,0,0)" />
	<line x1="295.907" y1="1430.29" x2="342.753" y2="1433.57" stroke-width="0.25" stroke="rgb(0,0,0)" />
	<line x1="192.16" y1="1443.37" x2="160.144" y2="1441.14" stroke-width="0.25" stroke="rgb(0,0,0)" />
	<line x1="308.114" y1="1471.82" x2="342.753" y2="1474.24" stroke-width="0.25" stroke="rgb(0,0,0)" />
	<line x1="189.399" y1="1483.86" x2="160.144" y2="1481.81" stroke-width="0.25" stroke="rgb(0,0,0)" />
	<line x1="288.903" y1="1511.16" x2="342.753" y2="1514.92" stroke-width="0.25" stroke="rgb(0,0,0)" />
	<line x1="342.753" y1="1535.26" x2="160.144" y2="1522.49" stroke-width="0.25" stroke="rgb(0,0,0)" />
	<line x1="160.144" y1="1542.83" x2="342.753" y2="1555.6" stroke-width="0.25" stroke="rgb(0,0,0)" />
	<line x1="342.753" y1="1535.26" x2="160.144" y2="1522.49" stroke-width="0.25" stroke="rgb(0,0,0)" />
	<line x1="304.366" y1="1153.26" x2="342.753" y2="1146.49" stroke-width="0.25" stroke="rgb(0,0,0)" />
	<line x1="342.753" y1="1125.89" x2="187.521" y2="1153.26" stroke-width="0.25" stroke="rgb(0,0,0)" />
	<line x1="160.144" y1="1137.48" x2="255.495" y2="1120.67" stroke-width="0.25" stroke="rgb(0,0,0)" />
	<line x1="342.753" y1="1084.68" x2="299.443" y2="1092.32" stroke-width="0.25" stroke="rgb(0,0,0)" />
	<line x1="160.144" y1="1096.28" x2="194.917" y2="1090.15" stroke-width="0.25" stroke="rgb(0,0,0)" />
	<line x1="342.753" y1="1043.48" x2="307.434" y2="1049.7" stroke-width="0.25" stroke="rgb(0,0,0)" />
	<line x1="160.144" y1="1055.07" x2="188.474" y2="1050.08" stroke-width="0.25" stroke="rgb(0,0,0)" />
	<line x1="342.753" y1="1002.27" x2="283.902" y2="1012.65" stroke-width="0.25" stroke="rgb(0,0,0)" />
	<line x1="160.144" y1="1137.48" x2="255.495" y2="1120.67" stroke-width="0.25" stroke="rgb(0,0,0)" />
	<line x1="265.175" y1="1118.96" x2="342.753" y2="1105.28" stroke-width="0.25" stroke="rgb(0,0,0)" />
	<line x1="209.35" y1="1108.2" x2="160.144" y2="1116.88" stroke-width="0.25" stroke="rgb(0,0,0)" />
	<line x1="308.081" y1="1070.19" x2="342.753" y2="1064.08" stroke-width="0.25" stroke="rgb(0,0,0)" />
	<line x1="188.292" y1="1070.71" x2="160.144" y2="1075.67" stroke-width="0.25" stroke="rgb(0,0,0)" />
	<line x1="299.95" y1="1030.42" x2="342.753" y2="1022.87" stroke-width="0.25" stroke="rgb(0,0,0)" />
	<line x1="196.767" y1="1028.01" x2="160.144" y2="1034.47" stroke-width="0.25" stroke="rgb(0,0,0)" />
	<line x1="160.144" y1="1013.87" x2="342.753" y2="981.667" stroke-width="0.25" stroke="rgb(0,0,0)" />
	<line x1="288.39" y1="970.65" x2="160.144" y2="993.263" stroke-width="0.25" stroke="rgb(0,0,0)" />
	<line x1="160.144" y1="972.66" x2="171.545" y2="970.65" stroke-width="0.25" stroke="rgb(0,0,0)" />
	<line x1="160.144" y1="1013.87" x2="342.753" y2="981.667" stroke-width="0.25" stroke="rgb(0,0,0)" />
	<line x1="288.39" y1="970.65" x2="160.144" y2="993.263" stroke-width="0.25" stroke="rgb(0,0,0)" />
	<line x1="352.898" y1="1772.1" x2="149.999" y2="1772.1" stroke-width="0.25" stroke="rgb(0,0,0)" />
	<line x1="149.999" y1="1772.1" x2="149.999" y2="1975" stroke-width="0.25" stroke="rgb(0,0,0)" />
	<line x1="149.999" y1="1975" x2="352.898" y2="1975" stroke-width="0.25" stroke="rgb(0,0,0)" />
	<line x1="352.898" y1="1975" x2="352.898" y2="1772.1" stroke-width="0.25" stroke="rgb(0,0,0)" />
	<line x1="229.28" y1="1919.81" x2="216.185" y2="1912.25" stroke-width="0.25" stroke="rgb(0,0,0)" />
	<line x1="216.185" y1="1912.25" x2="205.902" y2="1901.17" stroke-width="0.25" stroke="rgb(0,0,0)" />
	<line x1="205.902" y1="1901.17" x2="199.34" y2="1887.55" stroke-width="0.25" stroke="rgb(0,0,0)" />
	<line x1="199.34" y1="1887.55" x2="197.088" y2="1872.59" stroke-width="0.25" stroke="rgb(0,0,0)" />
	<line x1="197.088" y1="1872.59" x2="199.34" y2="1857.64" stroke-width="0.25" stroke="rgb(0,0,0)" />
	<line x1="199.34" y1="1857.64" x2="205.902" y2="1844.02" stroke-width="0.25" stroke="rgb(0,0,0)" />
	<line x1="205.902" y1="1844.02" x2="216.185" y2="1832.93" stroke-width="0.25" stroke="rgb(0,0,0)" />
	<line x1="216.185" y1="1832.93" x2="232.595" y2="1824.62" stroke-width="0.25" stroke="rgb(0,0,0)" />
	<line x1="232.595" y1="1824.62" x2="244.022" y2="1822.01" stroke-width="0.25" stroke="rgb(0,0,0)" />
	<line x1="244.022" y1="1822.01" x2="259.098" y2="1823.14" stroke-width="0.25" stroke="rgb(0,0,0)" />
	<line x1="259.098" y1="1823.14" x2="273.175" y2="1828.67" stroke-width="0.25" stroke="rgb(0,0,0)" />
	<line x1="273.175" y1="1828.67" x2="284.996" y2="1838.09" stroke-width="0.25" stroke="rgb(0,0,0)" />
	<line x1="284.996" y1="1838.09" x2="293.513" y2="1850.59" stroke-width="0.25" stroke="rgb(0,0,0)" />
	<line x1="293.513" y1="1850.59" x2="297.969" y2="1865.03" stroke-width="0.25" stroke="rgb(0,0,0)" />
	<line x1="297.969" y1="1865.03" x2="297.969" y2="1880.15" stroke-width="0.25" stroke="rgb(0,0,0)" />
	<line x1="297.969" y1="1880.15" x2="293.513" y2="1894.6" stroke-width="0.25" stroke="rgb(0,0,0)" />
	<line x1="293.513" y1="1894.6" x2="284.996" y2="1907.09" stroke-width="0.25" stroke="rgb(0,0,0)" />
	<line x1="284.996" y1="1907.09" x2="273.175" y2="1916.52" stroke-width="0.25" stroke="rgb(0,0,0)" />
	<line x1="273.175" y1="1916.52" x2="259.098" y2="1922.05" stroke-width="0.25" stroke="rgb(0,0,0)" />
	<line x1="259.098" y1="1922.05" x2="240.703" y2="1922.42" stroke-width="0.25" stroke="rgb(0,0,0)" />
	<line x1="240.703" y1="1922.42" x2="229.28" y2="1919.81" stroke-width="0.25" stroke="rgb(0,0,0)" />
	<line x1="342.753" y1="1782.25" x2="160.144" y2="1782.25" stroke-width="0.25" stroke="rgb(0,0,0)" />
	<line x1="160.144" y1="1782.25" x2="160.144" y2="1964.86" stroke-width="0.25" stroke="rgb(0,0,0)" />
	<line x1="160.144" y1="1964.86" x2="342.753" y2="1964.86" stroke-width="0.25" stroke="rgb(0,0,0)" />
	<line x1="342.753" y1="1964.86" x2="342.753" y2="1782.25" stroke-width="0.25" stroke="rgb(0,0,0)" />
	<line x1="225.53" y1="1929.36" x2="209.789" y2="1920.27" stroke-width="0.25" stroke="rgb(0,0,0)" />
	<line x1="209.789" y1="1920.27" x2="197.425" y2="1906.95" stroke-width="0.25" stroke="rgb(0,0,0)" />
	<line x1="197.425" y1="1906.95" x2="189.536" y2="1890.57" stroke-width="0.25" stroke="rgb(0,0,0)" />
	<line x1="189.536" y1="1890.57" x2="186.829" y2="1872.59" stroke-width="0.25" stroke="rgb(0,0,0)" />
	<line x1="186.829" y1="1872.59" x2="189.536" y2="1854.62" stroke-width="0.25" stroke="rgb(0,0,0)" />
	<line x1="189.536" y1="1854.62" x2="197.425" y2="1838.24" stroke-width="0.25" stroke="rgb(0,0,0)" />
	<line x1="197.425" y1="1838.24" x2="209.98" y2="1824.7" stroke-width="0.25" stroke="rgb(0,0,0)" />
	<line x1="209.98" y1="1824.7" x2="229.121" y2="1815.01" stroke-width="0.25" stroke="rgb(0,0,0)" />
	<line x1="229.121" y1="1815.01" x2="243.255" y2="1811.78" stroke-width="0.25" stroke="rgb(0,0,0)" />
	<line x1="243.255" y1="1811.78" x2="261.382" y2="1813.14" stroke-width="0.25" stroke="rgb(0,0,0)" />
	<line x1="261.382" y1="1813.14" x2="278.304" y2="1819.78" stroke-width="0.25" stroke="rgb(0,0,0)" />
	<line x1="278.304" y1="1819.78" x2="292.515" y2="1831.11" stroke-width="0.25" stroke="rgb(0,0,0)" />
	<line x1="292.515" y1="1831.11" x2="302.757" y2="1846.13" stroke-width="0.25" stroke="rgb(0,0,0)" />
	<line x1="302.757" y1="1846.13" x2="308.114" y2="1863.5" stroke-width="0.25" stroke="rgb(0,0,0)" />
	<line x1="308.114" y1="1863.5" x2="308.114" y2="1881.68" stroke-width="0.25" stroke="rgb(0,0,0)" />
	<line x1="308.114" y1="1881.68" x2="302.757" y2="1899.06" stroke-width="0.25" stroke="rgb(0,0,0)" />
	<line x1="302.757" y1="1899.06" x2="292.515" y2="1914.07" stroke-width="0.25" stroke="rgb(0,0,0)" />
	<line x1="292.515" y1="1914.07" x2="278.304" y2="1925.41" stroke-width="0.25" stroke="rgb(0,0,0)" />
	<line x1="278.304" y1="1925.41" x2="261.115" y2="1932.15" stroke-width="0.25" stroke="rgb(0,0,0)" />
	<line x1="261.115" y1="1932.15" x2="239.66" y2="1932.59" stroke-width="0.25" stroke="rgb(0,0,0)" />
	<line x1="239.66" y1="1932.59" x2="225.53" y2="1929.36" stroke-width="0.25" stroke="rgb(0,0,0)" />
	<line x1="332.608" y1="1792.39" x2="170.289" y2="1792.39" stroke-width="0.25" stroke="rgb(0,0,0)" />
	<line x1="170.289" y1="1792.39" x2="170.289" y2="1954.71" stroke-width="0.25" stroke="rgb(0,0,0)" />
	<line x1="170.289" y1="1954.71" x2="332.608" y2="1954.71" stroke-width="0.25" stroke="rgb(0,0,0)" />
	<line x1="332.608" y1="1954.71" x2="332.608" y2="1792.39" stroke-width="0.25" stroke="rgb(0,0,0)" />
	<line x1="221.781" y1="1938.91" x2="203.39" y2="1928.29" stroke-width="0.25" stroke="rgb(0,0,0)" />
	<line x1="203.39" y1="1928.29" x2="188.947" y2="1912.73" stroke-width="0.25" stroke="rgb(0,0,0)" />
	<line x1="188.947" y1="1912.73" x2="179.732" y2="1893.59" stroke-width="0.25" stroke="rgb(0,0,0)" />
	<line x1="179.732" y1="1893.59" x2="176.571" y2="1872.59" stroke-width="0.25" stroke="rgb(0,0,0)" />
	<line x1="176.571" y1="1872.59" x2="179.732" y2="1851.6" stroke-width="0.25" stroke="rgb(0,0,0)" />
	<line x1="179.732" y1="1851.6" x2="188.947" y2="1832.46" stroke-width="0.25" stroke="rgb(0,0,0)" />
	<line x1="188.947" y1="1832.46" x2="203.775" y2="1816.48" stroke-width="0.25" stroke="rgb(0,0,0)" />
	<line x1="203.775" y1="1816.48" x2="225.648" y2="1805.39" stroke-width="0.25" stroke="rgb(0,0,0)" />
	<line x1="225.648" y1="1805.39" x2="242.488" y2="1801.55" stroke-width="0.25" stroke="rgb(0,0,0)" />
	<line x1="242.488" y1="1801.55" x2="263.663" y2="1803.14" stroke-width="0.25" stroke="rgb(0,0,0)" />
	<line x1="263.663" y1="1803.14" x2="283.433" y2="1810.9" stroke-width="0.25" stroke="rgb(0,0,0)" />
	<line x1="283.433" y1="1810.9" x2="300.039" y2="1824.14" stroke-width="0.25" stroke="rgb(0,0,0)" />
	<line x1="300.039" y1="1824.14" x2="312.002" y2="1841.68" stroke-width="0.25" stroke="rgb(0,0,0)" />
	<line x1="312.002" y1="1841.68" x2="318.259" y2="1861.97" stroke-width="0.25" stroke="rgb(0,0,0)" />
	<line x1="318.259" y1="1861.97" x2="318.259" y2="1883.21" stroke-width="0.25" stroke="rgb(0,0,0)" />
	<line x1="318.259" y1="1883.21" x2="312.002" y2="1903.51" stroke-width="0.25" stroke="rgb(0,0,0)" />
	<line x1="312.002" y1="1903.51" x2="300.039" y2="1921.05" stroke-width="0.25" stroke="rgb(0,0,0)" />
	<line x1="300.039" y1="1921.05" x2="283.433" y2="1934.29" stroke-width="0.25" stroke="rgb(0,0,0)" />
	<line x1="283.433" y1="1934.29" x2="263.135" y2="1942.26" stroke-width="0.25" stroke="rgb(0,0,0)" />
	<line x1="263.135" y1="1942.26" x2="238.617" y2="1942.76" stroke-width="0.25" stroke="rgb(0,0,0)" />
	<line x1="238.617" y1="1942.76" x2="221.781" y2="1938.91" stroke-width="0.25" stroke="rgb(0,0,0)" />
	<line x1="1532.24" y1="1891.81" x2="1539.86" y2="1873.43" stroke-width="0.25" stroke="rgb(0,0,0)" />
	<line x1="1539.86" y1="1820.41" x2="1510.28" y2="1891.81" stroke-width="0.25" stroke="rgb(0,0,0)" />
	<line x1="1488.32" y1="1891.81" x2="1539.86" y2="1767.39" stroke-width="0.25" stroke="rgb(0,0,0)" />
	<line x1="1539.86" y1="1714.37" x2="1466.36" y2="1891.81" stroke-width="0.25" stroke="rgb(0,0,0)" />
	<line x1="1444.4" y1="1891.81" x2="1520.04" y2="1709.2" stroke-width="0.25" stroke="rgb(0,0,0)" />
	<line x1="1498.07" y1="1709.2" x2="1422.43" y2="1891.81" stroke-width="0.25" stroke="rgb(0,0,0)" />
	<line x1="1400.47" y1="1891.81" x2="1476.11" y2="1709.2" stroke-width="0.25" stroke="rgb(0,0,0)" />
	<line x1="1454.15" y1="1709.2" x2="1378.51" y2="1891.81" stroke-width="0.25" stroke="rgb(0,0,0)" />
	<line x1="1357.25" y1="1890.13" x2="1432.19" y2="1709.2" stroke-width="0.25" stroke="rgb(0,0,0)" />
	<line x1="1410.23" y1="1709.2" x2="1357.25" y2="1837.11" stroke-width="0.25" stroke="rgb(0,0,0)" />
	<line x1="1357.25" y1="1784.09" x2="1388.27" y2="1709.2" stroke-width="0.25" stroke="rgb(0,0,0)" />
	<line x1="1366.3" y1="1709.2" x2="1357.25" y2="1731.07" stroke-width="0.25" stroke="rgb(0,0,0)" />
	<line x1="1532.24" y1="1891.81" x2="1539.86" y2="1873.43" stroke-width="0.25" stroke="rgb(0,0,0)" />
	<line x1="1539.86" y1="1820.41" x2="1510.28" y2="1891.81" stroke-width="0.25" stroke="rgb(0,0,0)" />
	<line x1="1488.32" y1="1891.81" x2="1539.86" y2="1767.39" stroke-width="0.25" stroke="rgb(0,0,0)" />
	<line x1="1539.86" y1="1714.37" x2="1466.36" y2="1891.81" stroke-width="0.25" stroke="rgb(0,0,0)" />
	<line x1="1444.4" y1="1891.81" x2="1520.04" y2="1709.2" stroke-width="0.25" stroke="rgb(0,0,0)" />
	<line x1="1498.07" y1="1709.2" x2="1422.43" y2="1891.81" stroke-width="0.25" stroke="rgb(0,0,0)" />
	<line x1="1400.47" y1="1891.81" x2="1476.11" y2="1709.2" stroke-width="0.25" stroke="rgb(0,0,0)" />
	<line x1="1454.15" y1="1709.2" x2="1378.51" y2="1891.81" stroke-width="0.25" stroke="rgb(0,0,0)" />
	<line x1="1357.25" y1="1890.13" x2="1432.19" y2="1709.2" stroke-width="0.25" stroke="rgb(0,0,0)" />
	<line x1="1410.23" y1="1709.2" x2="1357.25" y2="1837.11" stroke-width="0.25" stroke="rgb(0,0,0)" />
	<line x1="1357.25" y1="1784.09" x2="1388.27" y2="1709.2" stroke-width="0.25" stroke="rgb(0,0,0)" />
	<line x1="1357.25" y1="920.65" x2="1386.85" y2="897.606" stroke-width="0.25" stroke="rgb(0,0,0)" />
	<line x1="1419.88" y1="897.606" x2="1357.25" y2="946.364" stroke-width="0.25" stroke="rgb(0,0,0)" />
	<line x1="1357.25" y1="972.077" x2="1452.91" y2="897.606" stroke-width="0.25" stroke="rgb(0,0,0)" />
	<line x1="1485.94" y1="897.606" x2="1357.25" y2="997.79" stroke-width="0.25" stroke="rgb(0,0,0)" />
	<line x1="1357.25" y1="1023.5" x2="1518.97" y2="897.606" stroke-width="0.25" stroke="rgb(0,0,0)" />
	<line x1="1539.86" y1="907.059" x2="1357.25" y2="1049.22" stroke-width="0.25" stroke="rgb(0,0,0)" />
	<line x1="1357.25" y1="1074.93" x2="1539.86" y2="932.772" stroke-width="0.25" stroke="rgb(0,0,0)" />
	<line x1="1539.86" y1="958.486" x2="1383.49" y2="1080.22" stroke-width="0.25" stroke="rgb(0,0,0)" />
	<line x1="1416.52" y1="1080.22" x2="1539.86" y2="984.199" stroke-width="0.25" stroke="rgb(0,0,0)" />
	<line x1="1539.86" y1="1009.91" x2="1449.55" y2="1080.22" stroke-width="0.25" stroke="rgb(0,0,0)" />
	<line x1="1482.58" y1="1080.22" x2="1539.86" y2="1035.63" stroke-width="0.25" stroke="rgb(0,0,0)" />
	<line x1="1539.86" y1="1061.34" x2="1515.61" y2="1080.22" stroke-width="0.25" stroke="rgb(0,0,0)" />
	<line x1="1357.25" y1="1306.35" x2="1361.03" y2="1303.4" stroke-width="0.25" stroke="rgb(0,0,0)" />
	<line x1="1394.06" y1="1303.4" x2="1357.25" y2="1332.06" stroke-width="0.25" stroke="rgb(0,0,0)" />
	<line x1="1357.25" y1="1357.78" x2="1427.09" y2="1303.4" stroke-width="0.25" stroke="rgb(0,0,0)" />
	<line x1="1460.12" y1="1303.4" x2="1357.25" y2="1383.49" stroke-width="0.25" stroke="rgb(0,0,0)" />
	<line x1="1357.25" y1="1409.2" x2="1493.15" y2="1303.4" stroke-width="0.25" stroke="rgb(0,0,0)" />
	<line x1="1526.18" y1="1303.4" x2="1357.25" y2="1434.92" stroke-width="0.25" stroke="rgb(0,0,0)" />
	<line x1="1357.25" y1="1460.63" x2="1539.86" y2="1318.47" stroke-width="0.25" stroke="rgb(0,0,0)" />
	<line x1="1539.86" y1="1344.18" x2="1357.67" y2="1486.01" stroke-width="0.25" stroke="rgb(0,0,0)" />
	<line x1="1390.7" y1="1486.01" x2="1539.86" y2="1369.9" stroke-width="0.25" stroke="rgb(0,0,0)" />
	<line x1="1539.86" y1="1395.61" x2="1423.73" y2="1486.01" stroke-width="0.25" stroke="rgb(0,0,0)" />
	<line x1="1456.76" y1="1486.01" x2="1539.86" y2="1421.32" stroke-width="0.25" stroke="rgb(0,0,0)" />
	<line x1="1539.86" y1="1447.04" x2="1489.79" y2="1486.01" stroke-width="0.25" stroke="rgb(0,0,0)" />
	<line x1="1522.82" y1="1486.01" x2="1539.86" y2="1472.75" stroke-width="0.25" stroke="rgb(0,0,0)" />
	<line x1="1357.25" y1="1306.35" x2="1361.03" y2="1303.4" stroke-width="0.25" stroke="rgb(0,0,0)" />
	<line x1="1394.06" y1="1303.4" x2="1357.25" y2="1332.06" stroke-width="0.25" stroke="rgb(0,0,0)" />
	<line x1="1357.25" y1="1357.78" x2="1427.09" y2="1303.4" stroke-width="0.25" stroke="rgb(0,0,0)" />
	<line x1="1460.12" y1="1303.4" x2="1357.25" y2="1383.49" stroke-width="0.25" stroke="rgb(0,0,0)" />
	<line x1="1357.25" y1="1409.2" x2="1493.15" y2="1303.4" stroke-width="0.25" stroke="rgb(0,0,0)" />
	<line x1="1526.18" y1="1303.4" x2="1357.25" y2="1434.92" stroke-width="0.25" stroke="rgb(0,0,0)" />
	<line x1="1357.25" y1="1460.63" x2="1539.86" y2="1318.47" stroke-width="0.25" stroke="rgb(0,0,0)" />
	<line x1="1539.86" y1="1344.18" x2="1357.67" y2="1486.01" stroke-width="0.25" stroke="rgb(0,0,0)" />
	<line x1="1390.7" y1="1486.01" x2="1539.86" y2="1369.9" stroke-width="0.25" stroke="rgb(0,0,0)" />
	<line x1="1539.86" y1="1395.61" x2="1423.73" y2="1486.01" stroke-width="0.25" stroke="rgb(0,0,0)" />
	<line x1="1456.76" y1="1486.01" x2="1539.86" y2="1421.32" stroke-width="0.25" stroke="rgb(0,0,0)" />
	<line x1="1539.86" y1="1447.04" x2="1489.79" y2="1486.01" stroke-width="0.25" stroke="rgb(0,0,0)" />
</svg>
