<?xml version="1.0" standalone="no" ?>
<!DOCTYPE svg PUBLIC "-//W3C//DTD SVG 1.1//EN" "http://www.w3.org/Graphics/SVG/1.1/DTD/svg11.dtd">
<svg width="2000px" height="2000px" xmlns="http://www.w3.org/2000/svg" version="1.1" >
	<line x1="192.377" y1="1654.69" x2="333.857" y2="1654.69" stroke-width="0.25" stroke="rgb(0,0,0)" />
	<line x1="192.377" y1="1329.29" x2="333.857" y2="1329.29" stroke-width="0.25" stroke="rgb(0,0,0)" />
	<line x1="192.377" y1="1449.55" x2="333.857" y2="1449.55" stroke-width="0.25" stroke="rgb(0,0,0)" />
	<line x1="192.377" y1="1760.8" x2="333.857" y2="1760.8" stroke-width="0.25" stroke="rgb(0,0,0)" />
	<line x1="192.377" y1="1060.48" x2="333.857" y2="1060.48" stroke-width="0.25" stroke="rgb(0,0,0)" />
	<line x1="192.377" y1="1697.14" x2="333.857" y2="1697.14" stroke-width="0.25" stroke="rgb(0,0,0)" />
	<line x1="192.377" y1="1718.36" x2="333.857" y2="1718.36" stroke-width="0.25" stroke="rgb(0,0,0)" />
	<line x1="192.377" y1="1633.47" x2="333.857" y2="1633.47" stroke-width="0.25" stroke="rgb(0,0,0)" />
	<line x1="192.377" y1="791.668" x2="333.857" y2="791.668" stroke-width="0.25" stroke="rgb(0,0,0)" />
	<line x1="192.377" y1="749.224" x2="333.857" y2="749.224" stroke-width="0.25" stroke="rgb(0,0,0)" />
	<line x1="192.377" y1="1265.62" x2="333.857" y2="1265.62" stroke-width="0.25" stroke="rgb(0,0,0)" />
	<line x1="192.377" y1="1782.02" x2="333.857" y2="1782.02" stroke-width="0.25" stroke="rgb(0,0,0)" />
	<line x1="192.377" y1="1675.91" x2="333.857" y2="1675.91" stroke-width="0.25" stroke="rgb(0,0,0)" />
	<line x1="192.377" y1="1018.03" x2="333.857" y2="1018.03" stroke-width="0.25" stroke="rgb(0,0,0)" />
	<line x1="192.377" y1="728.002" x2="333.857" y2="728.002" stroke-width="0.25" stroke="rgb(0,0,0)" />
	<line x1="192.377" y1="834.112" x2="333.857" y2="834.112" stroke-width="0.25" stroke="rgb(0,0,0)" />
	<line x1="192.377" y1="1244.4" x2="333.857" y2="1244.4" stroke-width="0.25" stroke="rgb(0,0,0)" />
	<line x1="192.377" y1="1308.07" x2="333.857" y2="1308.07" stroke-width="0.25" stroke="rgb(0,0,0)" />
	<line x1="192.377" y1="1817.39" x2="333.857" y2="1817.39" stroke-width="0.25" stroke="rgb(0,0,0)" />
	<line x1="192.377" y1="876.556" x2="333.857" y2="876.556" stroke-width="0.25" stroke="rgb(0,0,0)" />
	<line x1="192.377" y1="1201.96" x2="333.857" y2="1201.96" stroke-width="0.25" stroke="rgb(0,0,0)" />
	<line x1="192.377" y1="1102.92" x2="333.857" y2="1102.92" stroke-width="0.25" stroke="rgb(0,0,0)" />
	<line x1="192.377" y1="1364.66" x2="333.857" y2="1364.66" stroke-width="0.25" stroke="rgb(0,0,0)" />
	<line x1="479.863" y1="1018.03" x2="621.343" y2="1018.03" stroke-width="0.25" stroke="rgb(0,0,0)" />
	<line x1="479.863" y1="1697.14" x2="621.343" y2="1697.14" stroke-width="0.25" stroke="rgb(0,0,0)" />
	<line x1="479.863" y1="1286.85" x2="621.343" y2="1286.85" stroke-width="0.25" stroke="rgb(0,0,0)" />
	<line x1="479.863" y1="1180.74" x2="621.343" y2="1180.74" stroke-width="0.25" stroke="rgb(0,0,0)" />
	<line x1="479.863" y1="1329.29" x2="621.343" y2="1329.29" stroke-width="0.25" stroke="rgb(0,0,0)" />
	<line x1="479.863" y1="1675.91" x2="621.343" y2="1675.91" stroke-width="0.25" stroke="rgb(0,0,0)" />
	<line x1="479.863" y1="728.002" x2="621.343" y2="728.002" stroke-width="0.25" stroke="rgb(0,0,0)" />
	<line x1="479.863" y1="1428.33" x2="621.343" y2="1428.33" stroke-width="0.25" stroke="rgb(0,0,0)" />
	<line x1="479.863" y1="770.446" x2="621.343" y2="770.446" stroke-width="0.25" stroke="rgb(0,0,0)" />
	<line x1="479.863" y1="996.813" x2="621.343" y2="996.813" stroke-width="0.25" stroke="rgb(0,0,0)" />
	<line x1="479.863" y1="876.556" x2="621.343" y2="876.556" stroke-width="0.25" stroke="rgb(0,0,0)" />
	<line x1="479.863" y1="1555.66" x2="621.343" y2="1555.66" stroke-width="0.25" stroke="rgb(0,0,0)" />
	<line x1="479.863" y1="1308.07" x2="621.343" y2="1308.07" stroke-width="0.25" stroke="rgb(0,0,0)" />
	<line x1="479.863" y1="1201.96" x2="621.343" y2="1201.96" stroke-width="0.25" stroke="rgb(0,0,0)" />
	<line x1="479.863" y1="1138.29" x2="621.343" y2="1138.29" stroke-width="0.25" stroke="rgb(0,0,0)" />
	<line x1="479.863" y1="1654.69" x2="621.343" y2="1654.69" stroke-width="0.25" stroke="rgb(0,0,0)" />
	<line x1="479.863" y1="1513.21" x2="621.343" y2="1513.21" stroke-width="0.25" stroke="rgb(0,0,0)" />
</svg>
