<?xml version="1.0" encoding="UTF-8" standalone="yes"?>
<!DOCTYPE svg PUBLIC "-//W3C//DTD SVG 1.0//EN" "http://www.w3.org/TR/2001/REC-SVG-20010904/DTD/svg10.dtd">
<svg width="25" height="25" xmlns="http://www.w3.org/2000/svg" xmlns:svg="http://www.w3.org/2000/svg" xmlns:xlink="http://www.w3.org/1999/xlink" xmlns:slic3r="http://slic3r.org/namespaces/slic3r">
  <!-- 
  Generated using Slic3r 1.3.0
  http://slic3r.org/
   -->
  <g id="layer0" slic3r:z="5e-008">
    <polygon slic3r:type="contour" points="25,20 0,25 0,0 25,0" style="fill: white" />
  </g>
  <g id="layer1" slic3r:z="1.5e-007">
    <polygon slic3r:type="contour" points="25,20 0,25 0,0 25,0" style="fill: white" />
  </g>
  <g id="layer2" slic3r:z="2.5e-007">
    <polygon slic3r:type="contour" points="25,20 0,25 0,0 25,0" style="fill: white" />
  </g>
  <g id="layer3" slic3r:z="3.5e-007">
    <polygon slic3r:type="contour" points="25,20 0,25 0,0 25,0" style="fill: white" />
  </g>
  <g id="layer4" slic3r:z="4.5e-007">
    <polygon slic3r:type="contour" points="25,20 0,25 0,0 25,0" style="fill: white" />
  </g>
  <g id="layer5" slic3r:z="5.5e-007">
    <polygon slic3r:type="contour" points="25,20 0,25 0,0 25,0" style="fill: white" />
  </g>
  <g id="layer6" slic3r:z="6.5e-007">
    <polygon slic3r:type="contour" points="25,20 0,25 0,0 25,0" style="fill: white" />
  </g>
  <g id="layer7" slic3r:z="7.5e-007">
    <polygon slic3r:type="contour" points="25,20 0,25 0,0 25,0" style="fill: white" />
  </g>
  <g id="layer8" slic3r:z="8.5e-007">
    <polygon slic3r:type="contour" points="25,20 0,25 0,0 25,0" style="fill: white" />
  </g>
  <g id="layer9" slic3r:z="9.5e-007">
    <polygon slic3r:type="contour" points="25,20 0,25 0,0 25,0" style="fill: white" />
  </g>
</svg>
