<?xml version="1.0" encoding="UTF-8" standalone="yes"?>
<!DOCTYPE svg PUBLIC "-//W3C//DTD SVG 1.0//EN" "http://www.w3.org/TR/2001/REC-SVG-20010904/DTD/svg10.dtd">
<svg width="72.377536" height="197.908683" xmlns="http://www.w3.org/2000/svg" xmlns:svg="http://www.w3.org/2000/svg" xmlns:xlink="http://www.w3.org/1999/xlink" xmlns:slic3r="http://slic3r.org/namespaces/slic3r">
  <!-- 
  Generated using Slic3r 1.3.0
  http://slic3r.org/
   -->
  <g id="layer0" slic3r:z="2.5e-008">
    <polygon slic3r:type="contour" points="70.085816,23.849998 70.241351,23.859259 70.499424,23.914834 70.707576,24.00335 70.868895,24.120673 70.96976,24.236198 71.041792,24.368706 71.085024,24.517158 71.099424,24.680541 71.084248,24.844183 71.038712,24.993408 70.963839,25.128234 70.860664,25.248642 70.735872,25.346671 70.583816,25.422575 70.410655,25.471206 70.222576,25.487412 70.01828,25.470428 69.841783,25.419485 69.693583,25.333549 69.574192,25.211594 69.498808,25.09272 69.453783,24.979003 69.4314,24.858589 69.423936,24.71965 69.43552,24.57351 69.470248,24.439712 69.52608,24.313635 69.600944,24.190651 69.232512,24.267066 68.966976,24.422218 68.806424,24.647346 68.752912,24.933715 68.758319,25.029433 68.774528,25.118966 68.82084,25.267174 68.49356,25.267174 68.466808,25.137495 68.458576,24.979004 68.485592,24.709869 68.566632,24.474708 68.696056,24.276588 68.868176,24.118614 69.083024,23.995109 69.332336,23.90866 69.615103,23.85772 69.930288,23.840736" style="fill: white" />
    <polygon slic3r:type="hole" points="69.845904,24.190649 69.785952,24.300521 69.741951,24.411926 69.714936,24.52591 69.705936,24.643493 69.723423,24.816389 69.749919,24.896667 69.794432,24.968712 69.876512,25.046928 69.974551,25.100439 70.093152,25.131318 70.236984,25.14161 70.492735,25.109962 70.675416,25.015021 70.785016,24.868621 70.821552,24.682602 70.813584,24.596663 70.789648,24.515876 70.745648,24.439202 70.677471,24.365615 70.573776,24.29409 70.431504,24.23594 70.244448,24.197342 69.957568,24.18499" style="fill: black" />
    <polygon slic3r:type="contour" points="70.173168,22.980346 71.045912,22.980346 71.045912,23.307624 70.173168,23.307624 70.173168,23.610198 69.899416,23.610198 69.899416,23.307624 68.505912,23.307624 68.505912,22.994758 69.815016,21.858544 70.173168,21.858544" style="fill: white" />
    <polygon slic3r:type="hole" points="69.403351,22.55324 68.907288,22.980346 69.899416,22.980346 69.899416,22.126136" style="fill: black" />
    <polygon slic3r:type="contour" points="68.916904,18.659606 67.255664,19.244416 67.255576,19.314993 68.916904,19.904496 68.916904,20.321922 66.62966,19.4673 66.62966,19.121498 68.916904,18.259468" style="fill: white" />
    <polygon slic3r:type="contour" points="67.704824,9.565735 68.734824,11.265106 68.30504,11.265106 67.504759,9.923882 66.719292,11.265106 66.269744,11.265106 67.299744,9.523743 67.299744,8.217102 67.704824,8.217102" style="fill: white" />
    <polygon slic3r:type="contour" points="65.132615,7.437857 65.536468,8.290016 66.346632,6.585701 66.709724,6.585701 65.659964,8.784004 65.415436,8.784004 64.365676,6.585701 64.728768,6.585701" style="fill: white" />
    <polygon slic3r:type="contour" points="65.721716,4.441726 65.351212,4.441726 65.351212,3.288231 65.721716,3.288231" style="fill: white" />
    <polygon slic3r:type="contour" points="65.721716,5.963257 65.351212,5.963257 65.351212,4.809761 65.721716,4.809761" style="fill: white" />
    <polygon slic3r:type="contour" points="71.172168,5.396202 71.913176,4.180954 72.377536,4.180954 71.424112,5.72718 72.377536,7.22895 71.940344,7.22895 71.199344,6.035933 70.47316,7.22895 70.008792,7.22895 70.949864,5.70742 69.97916,4.180954 70.416344,4.180954" style="fill: white" />
    <polygon slic3r:type="contour" points="71.263783,1.275176 72.362944,1.800055 72.362944,2.044592 70.164624,3.094345 70.164624,2.731254 71.868944,1.923561 70.164624,1.113395 70.164624,0.750296" style="fill: white" />
    <polygon slic3r:type="contour" points="69.542184,2.10881 68.388688,2.10881 68.388688,1.738304 69.542184,1.738304" style="fill: white" />
    <polygon slic3r:type="contour" points="68.020656,2.10881 66.867156,2.10881 66.867156,1.738304 68.020656,1.738304" style="fill: white" />
    <polygon slic3r:type="contour" points="66.499124,2.10881 65.721716,2.10881 65.721716,2.920196 65.351212,2.920196 65.345628,1.738304 66.499124,1.738304" style="fill: white" />
    <polygon slic3r:type="contour" points="56.300603,0.880556 56.575427,1.661228 56.646004,1.661316 57.235504,0 57.65294,0 56.798312,2.287231 56.452512,2.287231 55.590476,0 55.990616,0" style="fill: white" />
    <polygon slic3r:type="contour" points="41.398292,10.979233 43.441,10.979233 43.441,10.425949 43.75222,10.425949 43.75222,11.912895 43.441,11.912895 43.441,11.371964 40.69434,11.371964 40.69434,11.055801 40.90182,11.003928 41.03026,10.88784 41.096952,10.698264 41.119183,10.425949 41.398292,10.425949" style="fill: white" />
    <polygon slic3r:type="contour" points="43.75222,8.519096 43.391596,8.519096 43.391596,7.017326 42.260332,7.017326 42.260332,8.417824 41.899708,8.417824 41.899708,7.017326 41.064844,7.017326 41.064844,8.519096 40.70422,8.519096 40.70422,6.612243 43.75222,6.612243" style="fill: white" />
    <polygon slic3r:type="contour" points="42.406211,3.484583 42.584207,3.496322 42.901299,3.566711 43.175163,3.680954 43.401476,3.835944 43.58148,4.03292 43.711464,4.263251 43.790195,4.525695 43.81644,4.819008 43.791124,5.105223 43.715168,5.366127 43.586108,5.599228 43.401476,5.802077 43.174544,5.958915 42.898827,6.073776 42.581123,6.144172 42.22822,6.16764 41.868832,6.143562 41.551431,6.071312 41.278496,5.955833 41.052492,5.802078 40.878972,5.610039 40.74868,5.379707 40.667168,5.114792 40.64,4.819007 40.66624,4.527244 40.744972,4.264496 40.874339,4.033851 41.052491,3.838417 41.28282,3.683104 41.553903,3.567955 41.868212,3.496627 42.228219,3.472847" style="fill: white" />
    <polygon slic3r:type="hole" points="42.087735,3.903255 41.947256,3.911285 41.697167,3.959442 41.482272,4.037864 41.306904,4.144691 41.165491,4.280548 41.067312,4.436156 41.009884,4.615242 40.99074,4.821479 41.0105,5.023398 41.069784,5.20433 41.168584,5.362411 41.306904,5.495796 41.480112,5.601082 41.693459,5.679802 41.943859,5.728904 42.22822,5.745262 42.758035,5.682594 43.147064,5.49456 43.38604,5.200935 43.4657,4.82148 43.38604,4.441719 43.147064,4.147162 42.758036,3.958213 42.228219,3.895225" style="fill: black" />
    <polygon slic3r:type="contour" points="43.75222,1.504249 43.739868,1.841712 43.702819,2.113113 43.629331,2.349922 43.507688,2.583641 43.282916,2.83898 42.984043,3.036895 42.627743,3.163795 42.230692,3.206092 41.816651,3.165641 41.463748,3.044304 41.173212,2.849479 40.94628,2.588585 40.845007,2.397772 40.76844,2.17115 40.720276,1.88031 40.70422,1.496833 40.70422,0.802764 43.75222,0.802764" style="fill: white" />
    <polygon slic3r:type="hole" points="41.054964,1.207847 41.054964,1.516592 41.065764,1.768234 41.098188,1.974792 41.154684,2.153555 41.237744,2.321823 41.405395,2.523132 41.626772,2.667625 41.900636,2.754692 42.225747,2.783714 42.551792,2.757164 42.818552,2.677505 43.032207,2.544746 43.198935,2.358871 43.296812,2.183806 43.358248,1.989607 43.390672,1.769462 43.401476,1.516593 43.401476,1.207847" style="fill: black" />
    <polygon slic3r:type="contour" points="48.770672,1.207847 47.634464,1.207847 47.634464,1.551177 47.614395,1.849128 47.554188,2.09088 47.45508,2.29064 47.318303,2.462616 47.181212,2.57469 47.016959,2.658989 46.83418,2.711784 46.641516,2.729377 46.405935,2.705299 46.208032,2.633049 46.044699,2.518196 45.912859,2.366278 45.825796,2.209442 45.767132,2.030357 45.733788,1.819785 45.722672,1.568465 45.722672,0.802764 48.770672,0.802764" style="fill: white" />
    <polygon slic3r:type="hole" points="46.073412,1.207847 46.079896,1.718521 46.099348,1.862403 46.134851,1.98281 46.189504,2.087173 46.2741,2.18412 46.379695,2.252662 46.506283,2.293419 46.653863,2.306999 46.790023,2.296821 46.907044,2.266249 47.010476,2.212837 47.10588,2.1341 47.193564,2.022026 47.249139,1.8834 47.27878,1.707709 47.28866,1.484488 47.28866,1.207847" style="fill: black" />
    <polygon slic3r:type="contour" points="48.770672,5.280906 47.918516,5.557548 47.918516,6.720924 48.770672,6.997566 48.770672,7.424873 45.722672,6.397346 45.722672,5.898407 48.493239,4.964406 48.479519,4.88076 48.410048,4.88076 48.410048,3.519783 45.722672,3.519783 45.722672,3.1147 48.770672,3.1147" style="fill: white" />
    <polygon slic3r:type="hole" points="46.855175,5.903347 46.247923,6.101933 46.247867,6.174238 47.572712,6.609771 47.572712,5.668693" style="fill: black" />
    <polygon slic3r:type="contour" points="46.083292,8.425232 48.770672,8.425232 48.770672,8.830315 46.083292,8.830315 46.083292,9.852905 45.722672,9.852905 45.722672,7.402649 46.083292,7.402649" style="fill: white" />
    <polygon slic3r:type="contour" points="48.770672,12.068504 48.410048,12.068504 48.410048,10.566734 47.27878,10.566734 47.27878,11.967239 46.91816,11.967239 46.91816,10.566734 46.083292,10.566734 46.083292,12.068504 45.722672,12.068504 45.722672,10.161659 48.770672,10.161659" style="fill: white" />
    <polygon slic3r:type="contour" points="48.770672,15.615456 48.417456,15.615456 48.417456,14.118626 48.061775,14.495293 47.840708,14.720382 47.627051,14.923851 47.370171,15.149849 47.238644,15.248961 47.105879,15.331398 46.97188,15.397468 46.826767,15.447487 46.668683,15.478981 46.495783,15.489479 46.150291,15.429275 45.884456,15.24865 45.714952,14.961205 45.658452,14.580512 45.673576,14.372107 45.718963,14.151962 45.779788,13.950965 45.841232,13.799988 46.275956,13.799988 46.275956,13.822219 46.146279,14.033714 46.069708,14.222358 46.038832,14.331046 46.018456,14.441573 46.01166,14.550872 46.01938,14.659554 46.042536,14.758353 46.081132,14.846657 46.135163,14.923851 46.20556,14.987449 46.293243,15.034995 46.397604,15.064636 46.518016,15.074516 46.758844,15.042717 46.992259,14.947304 47.260252,14.764838 47.604824,14.471831 47.79162,14.29708 48.338416,13.735771 48.770672,13.735771" style="fill: white" />
    <polygon slic3r:type="contour" points="45.48184,18.688344 46.625456,19.115654 46.625456,19.461456 44.338224,20.323494 44.338224,19.923348 45.999455,19.338539 45.999543,19.267962 44.338224,18.678459 44.338224,18.261032" style="fill: white" />
    <polygon slic3r:type="contour" points="43.963063,23.371435 44.118599,23.3807 44.376664,23.436272 44.584812,23.52478 44.746135,23.642111 44.846996,23.75763 44.919036,23.890144 44.962259,24.038597 44.976668,24.20198 44.961492,24.365616 44.915952,24.514845 44.841075,24.649674 44.737904,24.77008 44.613112,24.86811 44.461056,24.944016 44.287896,24.992637 44.099816,25.008849 43.895523,24.991868 43.71902,24.940926 43.57082,24.854988 43.451436,24.733032 43.376048,24.614166 43.331023,24.500441 43.30864,24.380028 43.301176,24.241087 43.312756,24.094948 43.347487,23.961152 43.403319,23.835084 43.478192,23.712098 43.109748,23.788505 42.844224,23.943655 42.683671,24.168792 42.630156,24.455153 42.63556,24.550871 42.651768,24.640404 42.69808,24.788604 42.370804,24.788604 42.344048,24.658927 42.335812,24.500442 42.362828,24.231316 42.443875,23.996148 42.573295,23.798028 42.745423,23.640052 42.960263,23.516548 43.20958,23.4301 43.492348,23.379157 43.807528,23.362174" style="fill: white" />
    <polygon slic3r:type="hole" points="43.723135,23.712098 43.663187,23.82196 43.619191,23.933364 43.592176,24.047339 43.583168,24.164923 43.587543,24.252409 43.600668,24.337829 43.627167,24.418106 43.671676,24.49015 43.753752,24.568368 43.851783,24.621879 43.970396,24.652756 44.114224,24.663048 44.369972,24.631402 44.552652,24.53646 44.66226,24.39006 44.698796,24.20404 44.69082,24.118103 44.666888,24.037316 44.622895,23.960639 44.554712,23.887046 44.45102,23.815528 44.30874,23.757378 44.121683,23.718787 43.859244,23.706175" style="fill: black" />
    <polygon slic3r:type="contour" points="44.050416,22.501786 44.923152,22.501786 44.923152,22.829064 44.050416,22.829064 44.050416,23.131638 43.776652,23.131638 43.776652,22.829064 42.383156,22.829064 42.383156,22.51619 43.69226,21.379982 44.050416,21.379982" style="fill: white" />
    <polygon slic3r:type="hole" points="43.280591,22.074676 42.784532,22.501786 43.776652,22.501786 43.776652,21.647568" style="fill: black" />
    <polygon slic3r:type="contour" points="28.4052,22.636604 30.107454,22.636604 30.107454,22.175538 30.366806,22.175538 30.366806,23.414658 30.107454,23.414658 30.107454,22.963882 27.818572,22.963882 27.818572,22.700416 27.991474,22.657188 28.098506,22.56044 28.154083,22.402466 28.172608,22.175538 28.4052,22.175538" style="fill: white" />
    <polygon slic3r:type="contour" points="28.276898,18.659606 26.615662,19.244415 26.615574,19.314992 28.276898,19.904496 28.276898,20.321922 25.989662,19.4673 25.989662,19.121498 28.276898,18.259468" style="fill: white" />
    <polygon slic3r:type="contour" points="27.064828,9.565734 28.094826,11.265106 27.665042,11.265106 26.864758,9.923881 26.079292,11.265106 25.62975,11.265106 26.659746,9.523743 26.659746,8.217102 27.064828,8.217102" style="fill: white" />
    <polygon slic3r:type="contour" points="24.492615,7.437857 24.896466,8.290016 25.70663,6.585701 26.069722,6.585701 25.019966,8.784004 24.775432,8.784004 23.725678,6.585701 24.088768,6.585701" style="fill: white" />
    <polygon slic3r:type="contour" points="25.081714,4.441726 24.711212,4.441726 24.711212,3.288231 25.081714,3.288231" style="fill: white" />
    <polygon slic3r:type="contour" points="25.081714,5.963257 24.711212,5.963257 24.711212,4.809761 25.081714,4.809761" style="fill: white" />
    <polygon slic3r:type="contour" points="30.154255,4.788577 30.53217,5.396202 31.273174,4.180954 31.737538,4.180954 30.784112,5.72718 31.737538,7.22895 31.300344,7.22895 30.55934,6.035934 29.833154,7.22895 29.368792,7.22895 30.309868,5.70742 29.339152,4.180954 29.776344,4.180954" style="fill: white" />
    <polygon slic3r:type="contour" points="30.623782,1.275177 31.72294,1.800056 31.72294,2.044592 29.524626,3.094345 29.524626,2.731254 31.228937,1.923561 29.524626,1.113395 29.524626,0.750297" style="fill: white" />
    <polygon slic3r:type="contour" points="28.902182,2.10881 27.748684,2.10881 27.748684,1.738304 28.902182,1.738304" style="fill: white" />
    <polygon slic3r:type="contour" points="27.380654,2.10881 26.227154,2.10881 26.227154,1.738304 27.380654,1.738304" style="fill: white" />
    <polygon slic3r:type="contour" points="25.859124,2.10881 25.081714,2.10881 25.081714,2.920196 24.711212,2.920196 24.705624,1.738304 25.859124,1.738304" style="fill: white" />
    <polygon slic3r:type="contour" points="15.660605,0.880556 15.935428,1.661227 16.006005,1.661315 16.595506,0 17.01294,0 16.158314,2.287231 15.812511,2.287231 14.950478,0 15.35062,0" style="fill: white" />
    <polygon slic3r:type="contour" points="0.758293,10.979233 2.800998,10.979233 2.800998,10.425949 3.11222,10.425949 3.11222,11.912895 2.800998,11.912895 2.800998,11.371964 0.05434,11.371964 0.05434,11.055801 0.261821,11.003929 0.390262,10.88784 0.456951,10.698265 0.479183,10.425949 0.758293,10.425949" style="fill: white" />
    <polygon slic3r:type="contour" points="3.11222,8.519096 2.751598,8.519096 2.751598,7.017326 1.62033,7.017326 1.62033,8.417824 1.259708,8.417824 1.259708,7.017326 0.424842,7.017326 0.424842,8.519096 0.06422,8.519096 0.06422,6.612243 3.11222,6.612243" style="fill: white" />
    <polygon slic3r:type="contour" points="1.766214,3.484584 1.944209,3.496322 2.261299,3.566711 2.535159,3.680954 2.761477,3.835944 2.941478,4.032919 3.071464,4.263252 3.150196,4.525696 3.176441,4.819007 3.151123,5.105224 3.075168,5.366127 2.946109,5.599228 2.761478,5.802077 2.534541,5.958915 2.258826,6.073776 1.94112,6.144171 1.588218,6.16764 1.228832,6.143562 0.911434,6.071311 0.638496,5.955833 0.41249,5.802077 0.238971,5.610039 0.108679,5.379706 0.027168,5.114792 0,4.819007 0.026241,4.527243 0.104972,4.264496 0.23434,4.033851 0.412489,3.838417 0.642821,3.683105 0.913906,3.567954 1.228213,3.496627 1.588217,3.472847" style="fill: white" />
    <polygon slic3r:type="hole" points="1.307254,3.911285 1.057167,3.959442 0.842272,4.037864 0.666903,4.144691 0.525492,4.280548 0.42731,4.436156 0.369883,4.615242 0.350742,4.821479 0.370502,5.023398 0.429782,5.20433 0.528583,5.362411 0.666904,5.495796 0.84011,5.601082 1.053458,5.679801 1.303855,5.728904 1.588218,5.745262 2.118038,5.682593 2.507064,5.49456 2.74604,5.200935 2.825698,4.82148 2.74604,4.441719 2.507063,4.147162 2.118038,3.958213 1.588217,3.895225" style="fill: black" />
    <polygon slic3r:type="contour" points="3.11222,1.504249 3.099868,1.841712 3.062819,2.113113 2.989334,2.349922 2.867686,2.583641 2.642917,2.83898 2.344043,3.036895 1.987743,3.163795 1.59069,3.206092 1.176651,3.165641 0.823749,3.044304 0.53321,2.849479 0.306281,2.588584 0.205008,2.397772 0.12844,2.171149 0.080272,1.88031 0.06422,1.496833 0.06422,0.802764 3.11222,0.802764" style="fill: white" />
    <polygon slic3r:type="hole" points="0.414962,1.207847 0.414962,1.516593 0.425765,1.768233 0.458187,1.974791 0.514686,2.153556 0.597744,2.321823 0.765392,2.523132 0.98677,2.667625 1.260631,2.754692 1.58575,2.783713 1.911792,2.757164 2.178553,2.677505 2.392208,2.544746 2.558937,2.35887 2.656807,2.183806 2.718249,1.989608 2.750671,1.769461 2.761478,1.516593 2.761478,1.207847" style="fill: black" />
    <polygon slic3r:type="contour" points="8.13067,1.207847 6.994463,1.207847 6.994463,1.551177 6.974396,1.849128 6.914188,2.09088 6.815077,2.290641 6.678301,2.462615 6.541213,2.574691 6.376959,2.658988 6.194177,2.711783 6.001515,2.729377 5.765938,2.705298 5.568027,2.633049 5.404698,2.518195 5.27286,2.366278 5.185793,2.209442 5.12713,2.030357 5.093784,1.819786 5.08267,1.568466 5.08267,0.802764 8.13067,0.802764" style="fill: white" />
    <polygon slic3r:type="hole" points="5.433412,1.207847 5.439897,1.718521 5.459346,1.862402 5.494856,1.98281 5.549502,2.087172 5.634102,2.18412 5.739694,2.252662 5.866283,2.293419 6.013866,2.306999 6.150027,2.296821 6.267044,2.26625 6.370476,2.212836 6.465879,2.1341 6.553565,2.022026 6.60914,1.8834 6.63878,1.707709 6.64866,1.484488 6.64866,1.207847" style="fill: black" />
    <polygon slic3r:type="contour" points="8.13067,5.280906 7.278515,5.557548 7.278515,6.720924 8.13067,6.997566 8.13067,7.424873 5.08267,6.397346 5.08267,5.898407 7.853237,4.964406 7.839517,4.88076 7.770048,4.88076 7.770048,3.519783 5.08267,3.519783 5.08267,3.1147 8.13067,3.1147" style="fill: white" />
    <polygon slic3r:type="hole" points="6.215172,5.903347 5.607921,6.101933 5.607865,6.174238 6.932712,6.609771 6.932712,5.668693" style="fill: black" />
    <polygon slic3r:type="contour" points="5.443292,8.425232 8.13067,8.425232 8.13067,8.830315 5.443292,8.830315 5.443292,9.852905 5.08267,9.852905 5.08267,7.402649 5.443292,7.402649" style="fill: white" />
    <polygon slic3r:type="contour" points="8.13067,12.068504 7.770048,12.068504 7.770048,10.566734 6.63878,10.566734 6.63878,11.967239 6.278158,11.967239 6.278158,10.566734 5.443292,10.566734 5.443292,12.068504 5.08267,12.068504 5.08267,10.161659 8.13067,10.161659" style="fill: white" />
    <polygon slic3r:type="contour" points="5.776745,14.528648 7.819448,14.528648 7.819448,13.975365 8.13067,13.975365 8.13067,15.462311 7.819448,15.462311 7.819448,14.921379 5.07279,14.921379 5.07279,14.605217 5.280271,14.553345 5.408712,14.437256 5.475402,14.247681 5.497633,13.975365 5.776745,13.975365" style="fill: white" />
    <polygon slic3r:type="contour" points="4.841837,18.688343 5.985456,19.115654 5.985456,19.461456 3.698219,20.323494 3.698219,19.923348 5.359454,19.338539 5.359542,19.267962 3.698219,18.67846 3.698219,18.261032" style="fill: white" />
    <polygon slic3r:type="contour" points="2.28244,22.158042 3.984691,22.158042 3.984691,21.696968 4.244045,21.696968 4.244045,22.936096 3.984691,22.936096 3.984691,22.485314 1.695812,22.485314 1.695812,22.221848 1.868712,22.178628 1.975746,22.081886 2.031322,21.923903 2.049846,21.696968 2.28244,21.696968" style="fill: white" />
    <polygon slic3r:type="contour" points="2.764159,54.446991 3.0558,54.471564 3.467727,54.618996 3.712413,54.8714 3.793974,55.235468 3.713958,55.595424 3.473903,55.847828 3.063007,55.996804 2.470458,56.04646 1.891033,55.99732 1.478336,55.849884 1.231334,55.597996 1.149002,55.235467 1.228503,54.873972 1.467018,54.621052 1.877399,54.472083 2.472519,54.422424" style="fill: white" />
    <polygon slic3r:type="hole" points="2.025855,54.786752 1.845236,54.813508 1.698581,54.856731 1.581507,54.919768 1.497889,55.001848 1.447719,55.106052 1.430992,55.235468 1.447719,55.364372 1.49789,55.467032 1.580481,55.547051 1.694461,55.608031 1.839835,55.651771 2.016593,55.680072 2.226287,55.695508 2.470458,55.700656 2.714889,55.695507 2.925354,55.680072 3.101855,55.652284 3.2444,55.610087 3.361464,55.548596 3.445087,55.467031 3.495262,55.363343 3.511982,55.235468 3.494232,55.10142 3.44097,54.995675 3.354778,54.914628 3.238223,54.854675 3.088478,54.81042 2.919177,54.784692 2.717974,54.772344 2.354418,54.77054" style="fill: black" />
    <polygon slic3r:type="contour" points="1.778854,53.220344 3.481109,53.220344 3.481109,52.759276 3.740459,52.759276 3.740459,53.9984 3.481109,53.9984 3.481109,53.547624 1.192226,53.547624 1.192226,53.284156 1.365127,53.240931 1.47216,53.144192 1.527735,52.986208 1.54626,52.759276 1.778854,52.759276" style="fill: white" />
    <polygon slic3r:type="contour" points="4.867594,50.546875 6.011213,50.974188 6.011213,51.319992 3.723976,52.182028 3.723976,51.781888 5.385211,51.197076 5.385299,51.126499 3.723976,50.537 3.723976,50.119564" style="fill: white" />
    <polygon slic3r:type="contour" points="28.269332,50.618103 26.608098,51.202911 26.60801,51.273488 28.269332,51.862992 28.269332,52.280427 25.982098,51.425796 25.982098,51.079996 28.269332,50.21796" style="fill: white" />
    <polygon slic3r:type="contour" points="28.88692,54.925552 29.178561,54.950128 29.590488,55.097552 29.835173,55.349963 29.916736,55.714035 29.836718,56.073984 29.596664,56.326384 29.185765,56.47536 28.59322,56.525016 28.013793,56.475875 27.601098,56.328444 27.354096,56.076556 27.27176,55.714035 27.351264,55.352531 27.589776,55.099612 28.000158,54.95064 28.595278,54.90098" style="fill: white" />
    <polygon slic3r:type="hole" points="28.148616,55.265311 27.967995,55.292068 27.821338,55.335296 27.704272,55.398336 27.620652,55.480408 27.570477,55.584612 27.553752,55.714036 27.570478,55.842936 27.620652,55.945596 27.703243,56.025611 27.817222,56.086588 27.962594,56.130332 28.139353,56.15864 28.349048,56.174072 28.593219,56.179216 28.837647,56.174072 29.048114,56.15864 29.224617,56.130844 29.367155,56.088648 29.484226,56.027155 29.567848,55.945596 29.61802,55.841907 29.634742,55.714036 29.61699,55.57998 29.56373,55.474232 29.477537,55.393187 29.360982,55.333236 29.211238,55.28898 29.041937,55.263255 28.840735,55.250903 28.477181,55.2491" style="fill: black" />
    <polygon slic3r:type="contour" points="27.901616,53.698908 29.603868,53.698908 29.603868,53.237844 29.86322,53.237844 29.86322,54.476968 29.603868,54.476968 29.603868,54.026188 27.314988,54.026188 27.314988,53.76272 27.487888,53.719492 27.594922,53.622747 27.650498,53.464776 27.669022,53.237844 27.901616,53.237844" style="fill: white" />
    <polygon slic3r:type="contour" points="44.267376,54.56316 44.296324,54.633916 44.34238,54.799104 44.372484,54.977148 44.38252,55.157252 44.365796,55.345332 44.315619,55.514376 44.236632,55.660775 44.133456,55.780931 44.0079,55.875867 43.861755,55.946628 43.698631,55.990628 43.522128,56.005292 43.313204,55.988311 43.147512,55.937364 43.015776,55.855032 42.90874,55.74388 42.829752,55.617548 42.782156,55.485555 42.758224,55.335555 42.751024,55.103217 42.764651,54.92466 42.08746,54.92466 42.08746,55.990884 41.789,55.990884 41.789,54.59738 43.098112,54.59738 43.057972,54.820711 43.041763,54.959912 43.036356,55.099615 43.043048,55.223631 43.063116,55.336332 43.099136,55.434615 43.153688,55.515408 43.21852,55.577156 43.297768,55.622436 43.396567,55.650227 43.520067,55.659488 43.647175,55.651256 43.756784,55.626556 43.851463,55.585904 43.9338,55.529812 44.003268,55.45314 44.051124,55.363088 44.078912,55.264799 44.088172,55.163428 44.083288,55.063859 44.068619,54.975091 44.014071,54.790867 43.944091,54.629287 43.878224,54.517104 43.878224,54.492404 44.238432,54.492404" style="fill: white" />
    <polygon slic3r:type="contour" points="44.267376,52.657132 44.296323,52.727891 44.34238,52.893072 44.372484,53.071112 44.38252,53.25122 44.365796,53.439304 44.31562,53.608343 44.236632,53.754744 44.133456,53.874899 44.0079,53.969843 43.861755,54.040596 43.698631,54.084596 43.522128,54.099264 43.313204,54.082283 43.147512,54.031336 43.015776,53.949 42.90874,53.837852 42.829751,53.711519 42.782156,53.579528 42.758224,53.429527 42.751024,53.197187 42.764652,53.018632 42.08746,53.018632 42.08746,54.084856 41.789,54.084856 41.789,52.691352 43.098112,52.691352 43.057971,52.914684 43.041764,53.05388 43.036356,53.193591 43.043048,53.317608 43.063115,53.430295 43.099136,53.528583 43.153688,53.609376 43.21852,53.671124 43.297767,53.716407 43.396567,53.744195 43.520067,53.75346 43.647175,53.745224 43.756784,53.720524 43.851463,53.679876 43.9338,53.623784 44.003268,53.547107 44.051124,53.457055 44.078912,53.358772 44.088172,53.257395 44.083288,53.15782 44.06862,53.06906 44.014071,52.884839 43.944091,52.723259 43.878224,52.611076 43.878224,52.586376 44.238432,52.586376" style="fill: white" />
    <polygon slic3r:type="contour" points="45.507591,50.546875 46.651212,50.974188 46.651212,51.319992 44.363976,52.182028 44.363976,51.781888 46.025211,51.197076 46.025299,51.126499 44.363976,50.536999 44.363976,50.119564" style="fill: white" />
    <polygon slic3r:type="contour" points="68.909336,50.618103 67.248096,51.202911 67.248008,51.273489 68.909336,51.862992 68.909336,52.280427 66.6221,51.425796 66.6221,51.079996 68.909336,50.21796" style="fill: white" />
    <polygon slic3r:type="contour" points="70.41908,53.206452 70.465135,53.371631 70.49524,53.54968 70.50528,53.729784 70.488552,53.917868 70.438384,54.086908 70.359392,54.233307 70.256215,54.353464 70.130664,54.448407 69.984512,54.519159 69.821391,54.563156 69.644888,54.577828 69.435967,54.56084 69.270272,54.5099 69.138536,54.427568 69.031503,54.316411 68.952512,54.190079 68.904911,54.058091 68.880984,53.908087 68.873776,53.675755 68.887416,53.497192 68.210224,53.497192 68.210224,54.563416 67.91176,54.563416 67.91176,53.169916 69.220872,53.169916 69.180736,53.393239 69.16452,53.532439 69.15912,53.672147 69.165808,53.796163 69.18588,53.90886 69.221896,54.007148 69.27644,54.087936 69.341287,54.149687 69.420535,54.194971 69.519335,54.22276 69.642831,54.232024 69.769936,54.223788 69.879536,54.199088 69.974223,54.15844 70.056559,54.102348 70.126024,54.025671 70.173888,53.935624 70.201672,53.837332 70.210936,53.735959 70.20604,53.636388 70.191376,53.54762 70.136831,53.363395 70.066848,53.201816 70.000984,53.08964 70.000984,53.06494 70.361192,53.06494" style="fill: white" />
    <polygon slic3r:type="contour" points="70.390135,55.041723 70.41908,55.11248 70.465135,55.277659 70.49524,55.455708 70.50528,55.635812 70.488552,55.8239 70.438384,55.992936 70.359392,56.13934 70.256215,56.259492 70.130664,56.354435 69.984512,56.425187 69.821391,56.469184 69.644887,56.483852 69.435967,56.466872 69.270271,56.415928 69.138536,56.333592 69.031504,56.222444 68.952511,56.096115 68.904912,55.964119 68.880984,55.814115 68.873776,55.581783 68.887416,55.40322 68.210224,55.40322 68.210224,56.469444 67.91176,56.469444 67.91176,55.075944 69.220872,55.075944 69.180735,55.299276 69.16452,55.438467 69.15912,55.578184 69.165808,55.7022 69.185879,55.814887 69.221896,55.913172 69.27644,55.993964 69.341287,56.055715 69.420536,56.100999 69.519336,56.128784 69.642831,56.138052 69.769936,56.129816 69.879536,56.105115 69.974223,56.064464 70.05656,56.008376 70.126024,55.931699 70.173887,55.841648 70.201672,55.743363 70.210936,55.641987 70.20604,55.542416 70.191376,55.453652 70.136832,55.269432 70.066847,55.107847 70.000984,54.995668 70.000984,54.970972 70.361192,54.970972" style="fill: white" />
    <polygon slic3r:type="contour" points="69.642608,88.47512 70.515352,88.47512 70.515352,88.8024 69.642608,88.8024 69.642608,89.104976 69.36884,89.104976 69.36884,88.8024 67.975344,88.8024 67.975344,88.489528 69.284456,87.35332 69.642608,87.35332" style="fill: white" />
    <polygon slic3r:type="hole" points="68.872784,88.048007 68.376728,88.47512 69.36884,88.47512 69.36884,87.620904" style="fill: black" />
    <polygon slic3r:type="contour" points="69.555248,85.532712 69.710784,85.541976 69.968856,85.597552 70.177,85.686056 70.338327,85.803383 70.439183,85.918903 70.511232,86.051416 70.554448,86.199871 70.568864,86.363247 70.55368,86.526896 70.508144,86.676127 70.433272,86.810943 70.330096,86.931359 70.205303,87.029392 70.053248,87.105287 69.880087,87.153912 69.692007,87.170128 69.48772,87.153144 69.311208,87.1022 69.163008,87.016264 69.043624,86.894312 68.968239,86.775439 68.923216,86.661712 68.900832,86.541304 68.893368,86.402359 68.904944,86.256216 68.93968,86.122431 68.995511,85.996352 69.070397,85.873366 68.701943,85.949784 68.436416,86.104935 68.275864,86.330064 68.222352,86.616431 68.227752,86.712144 68.243959,86.801679 68.290264,86.94988 67.962999,86.94988 67.936232,86.820207 67.928,86.661711 67.955016,86.392584 68.036064,86.157415 68.165479,85.959304 68.337616,85.80132 68.552456,85.677824 68.801775,85.591368 69.084536,85.540431 69.399719,85.523456" style="fill: white" />
    <polygon slic3r:type="hole" points="69.315327,85.873368 69.255376,85.983231 69.211384,86.094639 69.184367,86.208616 69.17536,86.326199 69.192856,86.499104 69.219359,86.579375 69.263872,86.651424 69.345944,86.729639 69.443976,86.78316 69.562592,86.814032 69.706416,86.824328 69.962168,86.79268 70.144848,86.697736 70.254447,86.551335 70.290984,86.365312 70.283008,86.279376 70.25908,86.198584 70.215087,86.121911 70.146896,86.048328 70.043215,85.976799 69.900928,85.918656 69.71388,85.880056 69.426992,85.867703" style="fill: black" />
    <polygon slic3r:type="contour" points="68.823488,82.674383 67.162251,83.259195 67.162164,83.329772 68.823488,83.919272 68.823488,84.336712 66.536256,83.48208 66.536256,83.13628 68.823488,82.274248" style="fill: white" />
    <polygon slic3r:type="contour" points="45.421747,82.603159 46.565368,83.030472 46.565368,83.37628 44.278132,84.238312 44.278132,83.838176 45.939364,83.253364 45.939452,83.182787 44.278132,82.593288 44.278132,82.175848" style="fill: white" />
    <polygon slic3r:type="contour" points="43.588028,85.063416 43.846092,85.118992 44.054243,85.207495 44.215567,85.324823 44.316423,85.440343 44.388468,85.572856 44.431696,85.721312 44.446104,85.884687 44.430924,86.048336 44.38538,86.19756 44.310508,86.332383 44.207332,86.4528 44.082547,86.550824 43.930484,86.626727 43.757327,86.675352 43.569243,86.691568 43.364956,86.674584 43.188452,86.62364 43.040252,86.537704 42.920868,86.415752 42.84548,86.296872 42.800452,86.183152 42.778068,86.062735 42.770608,85.9238 42.782184,85.777655 42.816919,85.643864 42.872752,85.517792 42.947629,85.394806 42.579179,85.471224 42.313656,85.626376 42.153104,85.851504 42.099588,86.137871 42.104988,86.233584 42.121199,86.323119 42.167512,86.47132 41.840232,86.47132 41.813475,86.341647 41.805244,86.183152 41.83226,85.914023 41.913308,85.678855 42.042723,85.480744 42.214856,85.322759 42.429695,85.199264 42.679012,85.112816 42.961776,85.061864 43.276963,85.044888" style="fill: white" />
    <polygon slic3r:type="hole" points="43.192568,85.394807 43.13262,85.504671 43.088624,85.616079 43.061607,85.730056 43.052599,85.847639 43.070099,86.020544 43.096599,86.100815 43.141108,86.172856 43.223187,86.251072 43.321216,86.304592 43.439828,86.335471 43.583656,86.345768 43.839404,86.31412 44.022084,86.219176 44.131692,86.072776 44.168224,85.886751 44.160248,85.800807 44.136324,85.720024 44.092324,85.643352 44.02414,85.56976 43.920451,85.498239 43.778168,85.440096 43.591116,85.401496 43.304232,85.389144" style="fill: black" />
    <polygon slic3r:type="contour" points="43.519844,87.99656 44.392584,87.99656 44.392584,88.32384 43.519844,88.32384 43.519844,88.626408 43.246088,88.626408 43.246088,88.32384 41.852584,88.32384 41.852584,88.01096 43.161692,86.874752 43.519844,86.874752" style="fill: white" />
    <polygon slic3r:type="hole" points="42.750027,87.569448 42.253963,87.99656 43.246088,87.99656 43.246088,87.142344" style="fill: black" />
    <polygon slic3r:type="contour" points="28.268933,87.409407 28.373008,87.41816 28.54874,87.47064 28.694626,87.557096 28.813238,87.676479 28.887338,87.793552 28.932621,87.910103 28.95578,88.032319 28.963498,88.166368 28.952948,88.306848 28.9213,88.436015 28.866498,88.562599 28.786476,88.69536 29.147206,88.627696 29.414276,88.4782 29.579458,88.252048 29.634518,87.954352 29.629116,87.86224 29.612905,87.771159 29.566594,87.620904 29.893872,87.620904 29.921658,87.763959 29.928862,87.909072 29.902876,88.185919 29.824916,88.415432 29.697556,88.606335 29.523368,88.767399 29.312387,88.888584 29.054065,88.976328 28.763838,89.029584 28.457144,89.047344 28.139644,89.029328 27.882866,88.975296 27.678057,88.888327 27.51648,88.77152 27.418452,88.657279 27.346666,88.52452 27.30267,88.374256 27.288002,88.207535 27.303698,88.051872 27.350781,87.897752 27.42617,87.756503 27.526772,87.639423 27.655417,87.540112 27.806706,87.464471 27.97755,87.416608 28.16486,87.400664" style="fill: white" />
    <polygon slic3r:type="hole" points="27.899848,87.777591 27.716138,87.870992 27.603445,88.01688 27.56588,88.205472 27.573598,88.292695 27.596756,88.373232 27.640496,88.449647 27.709963,88.524519 27.816998,88.599648 27.961082,88.656248 28.147362,88.69176 28.380986,88.7036 28.541536,88.697415 28.598914,88.595015 28.643424,88.477175 28.671984,88.355735 28.681504,88.24252 28.664009,88.066535 28.637506,87.989088 28.592994,87.919368 28.511432,87.841151 28.414948,87.787632 28.29685,87.756752 28.150451,87.746456" style="fill: black" />
    <polygon slic3r:type="contour" points="27.917858,86.225344 29.62011,86.225344 29.62011,85.764272 29.879462,85.764272 29.879462,87.0034 29.62011,87.0034 29.62011,86.552616 27.331228,86.552616 27.331228,86.289152 27.50413,86.245928 27.611164,86.149184 27.666737,85.991208 27.685264,85.764272 27.917858,85.764272" style="fill: white" />
    <polygon slic3r:type="contour" points="28.183488,82.674383 26.522255,83.259195 26.522167,83.329772 28.183488,83.919272 28.183488,84.336712 25.896254,83.48208 25.896254,83.13628 28.183488,82.274248" style="fill: white" />
    <polygon slic3r:type="contour" points="4.78175,82.603159 5.925369,83.030472 5.925369,83.37628 3.638134,84.238312 3.638134,83.838176 5.299369,83.253364 5.299457,83.182787 3.638134,82.593288 3.638134,82.175848" style="fill: white" />
    <polygon slic3r:type="contour" points="1.795097,85.746784 3.497352,85.746784 3.497352,85.285712 3.756702,85.285712 3.756702,86.52484 3.497352,86.52484 3.497352,86.074056 1.208469,86.074056 1.208469,85.810592 1.38137,85.767367 1.488403,85.670623 1.543978,85.512648 1.562503,85.285712 1.795097,85.285712" style="fill: white" />
    <polygon slic3r:type="contour" points="2.250251,86.9396 2.425978,86.992079 2.571865,87.078536 2.690479,87.197919 2.764578,87.314983 2.809859,87.431543 2.833019,87.553759 2.840735,87.687807 2.830188,87.828288 2.798542,87.957448 2.74374,88.084039 2.663712,88.216801 3.024443,88.149128 3.291515,87.999639 3.456699,87.77348 3.511756,87.475792 3.506355,87.38368 3.490145,87.292599 3.443832,87.142344 3.77111,87.142344 3.798896,87.285399 3.806102,87.430512 3.780117,87.70736 3.702155,87.936864 3.574798,88.127776 3.400608,88.288839 3.189628,88.410023 2.931305,88.497768 2.641078,88.551024 2.334384,88.568776 2.016882,88.550768 1.760105,88.496736 1.555301,88.409768 1.393718,88.29296 1.295691,88.178719 1.223907,88.04596 1.179908,87.895696 1.165245,87.728975 1.180937,87.573312 1.228022,87.419192 1.303409,87.277936 1.404009,87.160864 1.532656,87.061552 1.683943,86.985912 1.854789,86.938047 2.042098,86.922096" style="fill: white" />
    <polygon slic3r:type="hole" points="1.777087,87.299032 1.59338,87.392432 1.480686,87.538312 1.443119,87.726912 1.45084,87.814136 1.473995,87.894671 1.517733,87.971087 1.587204,88.04596 1.69424,88.121088 1.83832,88.177687 2.024604,88.213192 2.258223,88.22504 2.418777,88.218855 2.476149,88.116456 2.520664,87.998608 2.549224,87.877175 2.558746,87.763959 2.541248,87.587976 2.514747,87.510527 2.470234,87.4408 2.388672,87.362584 2.292186,87.309064 2.17409,87.278192 2.02769,87.267896" style="fill: black" />
    <polygon slic3r:type="contour" points="3.133691,119.005568 3.21062,119.012519 3.355219,119.054199 3.485927,119.12264 3.598106,119.216816 3.690989,119.337479 3.759685,119.481304 3.802139,119.6452 3.816291,119.82608 3.76123,120.150784 3.596045,120.416824 3.349559,120.59436 3.050585,120.653536 2.837547,120.624975 2.667731,120.539295 2.530853,120.39804 2.411859,120.194632 2.293628,120.368191 2.144912,120.489895 1.977157,120.564775 1.807346,120.589728 1.549022,120.537496 1.342159,120.380808 1.206305,120.137663 1.161022,119.82608 1.208881,119.521959 1.352446,119.276504 1.567546,119.114408 1.829985,119.060376 2.007518,119.083024 2.153147,119.150935 2.277674,119.265703 2.397248,119.436432 2.522621,119.243823 2.678024,119.108751 2.85916,119.026152 3.056761,118.998624" style="fill: white" />
    <polygon slic3r:type="hole" points="2.94921,119.35176 2.866363,119.361152 2.719192,119.417496 2.5926,119.508832 2.488655,119.6326 2.61293,119.937744 2.647152,120.00516 2.741317,120.151808 2.834456,120.241864 2.943038,120.288176 3.083519,120.303616 3.282404,120.271192 3.434467,120.173943 3.530951,120.02316 3.563113,119.8302 3.52555,119.638 3.412857,119.481304 3.242526,119.377104 3.032058,119.342368" style="fill: black" />
    <polygon slic3r:type="hole" points="1.712532,119.416855 1.634185,119.431656 1.514029,119.520416 1.437614,119.655496 1.412143,119.824023 1.440704,120.005416 1.526382,120.142039 1.654769,120.227712 1.811462,120.25628 1.957344,120.24316 2.08625,120.203792 2.204864,120.127375 2.319873,120.003096 2.240622,119.805495 2.16138,119.644943 2.08702,119.53868 2.003916,119.462783 1.906917,119.41724 1.790877,119.402064" style="fill: black" />
    <polygon slic3r:type="contour" points="3.758659,118.718688 3.464313,118.718688 3.464313,117.471321 3.167911,117.785231 2.805641,118.142351 2.591575,118.330687 2.481968,118.413288 2.37133,118.481975 2.259665,118.53704 2.138736,118.578719 2.007003,118.604968 1.862918,118.61372 1.575008,118.563544 1.353477,118.413024 1.212226,118.173488 1.165142,117.856248 1.177749,117.682567 1.215572,117.499111 1.266257,117.331616 1.317459,117.2058 1.679725,117.2058 1.679725,117.224336 1.571661,117.400576 1.507854,117.557783 1.465145,117.740464 1.459483,117.831543 1.465915,117.922112 1.485213,118.00444 1.517376,118.078032 1.562399,118.142351 1.621062,118.19536 1.694136,118.234976 1.781101,118.259679 1.881445,118.267912 2.082134,118.241408 2.276649,118.161911 2.499976,118.009848 2.787117,117.765679 2.942779,117.620048 3.398445,117.152288 3.758659,117.152288" style="fill: white" />
    <polygon slic3r:type="contour" points="4.835353,114.65944 5.978971,115.086759 5.978971,115.43256 3.691734,116.2946 3.691734,115.894456 5.35297,115.309644 5.353058,115.239067 3.691734,114.649568 3.691734,114.232128" style="fill: white" />
    <polygon slic3r:type="contour" points="28.237092,114.730663 26.57586,115.315483 26.575773,115.38606 28.237092,115.975552 28.237092,116.392992 25.949856,115.53836 25.949856,115.192568 28.237092,114.330528" style="fill: white" />
    <polygon slic3r:type="contour" points="29.881416,119.197248 29.587074,119.197248 29.587074,117.949882 29.290672,118.263791 28.928402,118.620912 28.714333,118.809248 28.604727,118.891848 28.494091,118.960544 28.382427,119.0156 28.261498,119.057279 28.129763,119.083528 27.98568,119.09228 27.697769,119.042096 27.476238,118.891584 27.334984,118.652048 27.2879,118.334808 27.300506,118.161135 27.338329,117.977688 27.389016,117.810183 27.440218,117.684368 27.802486,117.684368 27.802486,117.702896 27.694423,117.879136 27.630615,118.036344 27.587904,118.219023 27.582242,118.310103 27.588676,118.400672 27.607973,118.482999 27.640133,118.556591 27.685162,118.620912 27.743823,118.67392 27.816894,118.713536 27.90386,118.73824 28.004203,118.746472 28.204896,118.719968 28.399405,118.640472 28.622737,118.488408 28.909878,118.244239 29.065539,118.098608 29.521206,117.630848 29.881416,117.630848" style="fill: white" />
    <polygon slic3r:type="contour" points="29.333382,119.49108 29.477981,119.532759 29.608685,119.601199 29.720866,119.695376 29.813749,119.816039 29.882446,119.959872 29.9249,120.123767 29.93905,120.30464 29.883992,120.629352 29.718808,120.895383 29.472319,121.07292 29.173346,121.132096 28.960308,121.103535 28.790493,121.017863 28.653614,120.8766 28.534621,120.673191 28.41639,120.846751 28.267674,120.968464 28.099918,121.043335 27.930103,121.068288 27.671781,121.016055 27.464918,120.859368 27.329067,120.616223 27.283782,120.304639 27.33164,120.00052 27.475208,119.755064 27.690308,119.592968 27.952745,119.538944 28.13028,119.561584 28.275905,119.629503 28.400435,119.744263 28.52001,119.914992 28.64538,119.722392 28.800785,119.587312 28.98192,119.504712 29.179521,119.477192" style="fill: white" />
    <polygon slic3r:type="hole" points="29.071974,119.830319 28.989123,119.839712 28.841951,119.896056 28.715362,119.9874 28.611418,120.11116 28.735692,120.416304 28.769908,120.48372 28.864078,120.630376 28.95722,120.720432 29.065795,120.766736 29.20628,120.782184 29.405166,120.749752 29.557228,120.652504 29.653714,120.501728 29.685874,120.30876 29.64831,120.11656 29.535614,119.959872 29.365287,119.855663 29.154821,119.820928" style="fill: black" />
    <polygon slic3r:type="hole" points="27.756946,119.910208 27.636791,119.998976 27.560376,120.134056 27.5349,120.302584 27.563462,120.483976 27.64914,120.6206 27.777528,120.706272 27.934222,120.734832 28.080104,120.721711 28.209012,120.682351 28.327623,120.605936 28.442631,120.481656 28.408411,120.387999 28.31836,120.189376 28.284139,120.123503 28.209782,120.01724 28.126676,119.941344 28.029678,119.895808 27.913637,119.880624" style="fill: black" />
    <polygon slic3r:type="contour" points="44.321339,119.108999 44.35106,119.180272 44.401744,119.352664 44.436476,119.541 44.44806,119.731399 44.433136,119.920512 44.388368,120.088519 44.31478,120.234408 44.213404,120.357128 44.093764,120.452072 43.95714,120.522823 43.805596,120.566832 43.641183,120.581496 43.487324,120.569144 43.359191,120.532088 43.254732,120.475496 43.171884,120.40448 43.107043,120.322911 43.060728,120.234664 42.991096,120.040913 42.912016,120.242383 42.782856,120.394183 42.611495,120.497616 42.414407,120.532088 42.268008,120.517688 42.141675,120.474456 42.034387,120.403447 41.945108,120.30568 41.880784,120.194784 41.836012,120.072056 41.809772,119.932343 41.801024,119.770504 41.813116,119.594776 41.849396,119.409264 41.900595,119.23868 41.95746,119.10772 42.317668,119.10772 42.317668,119.128304 42.211152,119.302487 42.143735,119.468704 42.101028,119.651384 42.095368,119.743743 42.11286,119.910479 42.136791,119.985095 42.173584,120.052496 42.221699,120.106527 42.283708,120.14924 42.359608,120.177032 42.449399,120.186296 42.632596,120.150272 42.766388,120.042207 42.848204,119.877023 42.87548,119.669647 42.87548,119.556432 43.157476,119.556432 43.16236,119.811415 43.177028,119.91356 43.20456,120.004896 43.24804,120.083376 43.30902,120.147448 43.38904,120.19556 43.490667,120.225663 43.616484,120.235688 43.742559,120.226688 43.844964,120.199671 43.931927,120.155672 44.011688,120.095728 44.07704,120.016992 44.12078,119.92076 44.14548,119.815792 44.153712,119.710816 44.135703,119.531215 44.081672,119.3506 44.008087,119.187991 43.931412,119.062431 43.931412,119.037736 44.291624,119.037736" style="fill: white" />
    <polygon slic3r:type="contour" points="42.153,118.446991 44.39454,117.28608 44.39454,117.648344 42.235336,118.747504 41.85454,118.747504 41.85454,117.135816 42.153,117.135816" style="fill: white" />
    <polygon slic3r:type="contour" points="45.475351,114.659439 46.618972,115.08676 46.618972,115.43256 44.331736,116.294599 44.331736,115.894456 45.992968,115.309644 45.993056,115.239067 44.331736,114.649568 44.331736,114.232128" style="fill: white" />
    <polygon slic3r:type="contour" points="68.877088,114.730663 67.215856,115.315483 67.215769,115.38606 68.877088,115.975552 68.877088,116.392992 66.58986,115.538359 66.58986,115.192567 68.877088,114.330528" style="fill: white" />
    <polygon slic3r:type="contour" points="68.27576,118.925551 70.517304,117.764639 70.517304,118.126904 68.358096,119.226072 67.977304,119.226072 67.977304,117.614376 68.27576,117.614376" style="fill: white" />
    <polygon slic3r:type="contour" points="70.444096,119.587568 70.473815,119.658839 70.524504,119.831224 70.559232,120.01956 70.570816,120.209959 70.555896,120.399071 70.51112,120.56708 70.437536,120.712968 70.336168,120.835696 70.21652,120.930639 70.079904,121.001399 69.92836,121.045383 69.763943,121.060056 69.610088,121.047704 69.481951,121.010656 69.377488,120.954056 69.294647,120.883039 69.229808,120.801472 69.183488,120.713224 69.113854,120.519479 69.034775,120.720944 68.905608,120.872744 68.734255,120.976184 68.537168,121.010656 68.390768,120.996248 68.26444,120.953016 68.157151,120.881999 68.067872,120.78424 68.003544,120.673336 67.958768,120.550616 67.932528,120.410903 67.923784,120.249072 67.935871,120.073336 67.972152,119.887823 68.023351,119.71724 68.080216,119.58628 68.440432,119.58628 68.440432,119.606864 68.333912,119.781047 68.266495,119.947264 68.223784,120.129944 68.218128,120.222303 68.235624,120.38904 68.259551,120.463655 68.296344,120.531056 68.344456,120.585088 68.406464,120.627808 68.482368,120.655592 68.572159,120.664856 68.755352,120.628832 68.889144,120.520767 68.97096,120.355591 68.998248,120.148207 68.998248,120.035 69.280232,120.035 69.285128,120.289976 69.299792,120.392119 69.32732,120.483456 69.3708,120.561935 69.431776,120.626 69.511792,120.67412 69.613432,120.704224 69.739239,120.714256 69.865319,120.705248 69.96772,120.678232 70.054688,120.634239 70.134447,120.574288 70.1998,120.495551 70.243544,120.399328 70.268239,120.294352 70.276472,120.189376 70.258472,120.009784 70.204431,119.829159 70.130847,119.666559 70.054168,119.541 70.054168,119.516296 70.414384,119.516296" style="fill: white" />
    <polygon slic3r:type="contour" points="70.612048,152.843664 70.317704,152.843664 70.317704,151.596328 70.021304,151.910207 69.659024,152.267327 69.444959,152.455664 69.335359,152.538256 69.22472,152.606943 69.113055,152.662016 68.992127,152.703696 68.8604,152.729935 68.716311,152.738688 68.428399,152.688512 68.206864,152.538 68.065615,152.298463 68.018528,151.981216 68.031136,151.807535 68.068952,151.624079 68.119648,151.456591 68.170848,151.330784 68.533112,151.330784 68.533112,151.349312 68.425047,151.525536 68.361247,151.682752 68.318528,151.865439 68.312872,151.956511 68.319304,152.047087 68.338608,152.129408 68.37076,152.203008 68.415783,152.267327 68.474456,152.32032 68.547519,152.359952 68.634488,152.38464 68.734831,152.39288 68.93552,152.366384 69.130032,152.286879 69.35336,152.134832 69.640504,151.890656 69.796175,151.745024 70.251832,151.277248 70.612048,151.277248" style="fill: white" />
    <polygon slic3r:type="contour" points="69.98708,149.31848 70.064008,149.32544 70.208607,149.367103 70.33932,149.435552 70.451496,149.529728 70.544376,149.650384 70.613072,149.794224 70.655535,149.958112 70.66968,150.138992 70.614615,150.463696 70.449432,150.729743 70.202952,150.90728 69.903976,150.966464 69.690936,150.937904 69.521119,150.852208 69.384248,150.71096 69.26525,150.507531 69.147016,150.68112 68.998303,150.802816 68.830552,150.87768 68.660735,150.902656 68.402415,150.850416 68.195551,150.693727 68.059695,150.450575 68.014408,150.138991 68.062272,149.834864 68.20584,149.589423 68.420936,149.427327 68.683383,149.373296 68.860904,149.395935 69.006528,149.463856 69.131063,149.578607 69.25064,149.749348 69.376008,149.556736 69.531416,149.421664 69.712544,149.339072 69.910152,149.311536" style="fill: white" />
    <polygon slic3r:type="hole" points="69.802608,149.664671 69.719759,149.67408 69.572584,149.730399 69.445991,149.821744 69.342048,149.945504 69.46632,150.250672 69.500536,150.318064 69.594711,150.464719 69.687848,150.554784 69.796423,150.601087 69.936904,150.616528 70.135791,150.584112 70.287856,150.486848 70.384336,150.336096 70.416504,150.143119 70.378936,149.950912 70.26624,149.794223 70.09592,149.690016 69.885456,149.65528" style="fill: black" />
    <polygon slic3r:type="hole" points="68.487568,149.74456 68.367416,149.833328 68.291,149.968415 68.265536,150.136928 68.294088,150.318336 68.379768,150.45496 68.50816,150.54064 68.664847,150.569184 68.810736,150.556064 68.93964,150.516704 69.058247,150.440272 69.173264,150.316015 69.13904,150.222352 69.048991,150.023727 69.014767,149.957855 68.940416,149.8516 68.857304,149.775696 68.760303,149.73016 68.644272,149.71496" style="fill: black" />
    <polygon slic3r:type="contour" points="68.906264,146.761103 67.245027,147.345924 67.24494,147.4165 68.906264,148.006016 68.906264,148.423424 66.619032,147.568816 66.619032,147.223008 68.906264,146.360976" style="fill: white" />
    <polygon slic3r:type="contour" points="45.504527,146.689887 46.648148,147.1172 46.648148,147.463008 44.360912,148.325039 44.360912,147.924896 46.022145,147.340092 46.022232,147.269514 44.360912,146.680016 44.360912,146.262576" style="fill: white" />
    <polygon slic3r:type="contour" points="43.941248,148.846864 44.085848,148.888544 44.216556,148.957008 44.328735,149.051167 44.421616,149.171824 44.490316,149.315663 44.532768,149.479552 44.54692,149.660432 44.49186,149.985136 44.326676,150.251167 44.080187,150.428704 43.781216,150.487888 43.568175,150.459328 43.39836,150.373664 43.261483,150.232383 43.142489,150.028975 43.024256,150.202543 42.875539,150.324256 42.707788,150.399119 42.537971,150.42408 42.279652,150.371856 42.072788,150.215152 41.936936,149.972015 41.891652,149.660432 41.939508,149.356304 42.083076,149.110848 42.298175,148.948768 42.560616,148.894736 42.738148,148.917376 42.883772,148.985296 43.008304,149.100048 43.127877,149.2708 43.253251,149.078192 43.408652,148.943104 43.589792,148.860512 43.787391,148.832976" style="fill: white" />
    <polygon slic3r:type="hole" points="43.679839,149.186096 43.596991,149.195488 43.44982,149.251839 43.323232,149.3432 43.219284,149.466944 43.343559,149.772095 43.377776,149.839504 43.471947,149.986159 43.565088,150.076224 43.673667,150.122528 43.814147,150.137968 44.013036,150.105568 44.165096,150.008303 44.26158,149.85752 44.293744,149.664543 44.25618,149.472352 44.143487,149.315663 43.973156,149.211456 43.762688,149.17672" style="fill: black" />
    <polygon slic3r:type="hole" points="42.443164,149.251199 42.364816,149.266 42.24466,149.354767 42.168244,149.489856 42.142768,149.658368 42.171328,149.83976 42.257008,149.9764 42.3854,150.06208 42.542092,150.090624 42.687976,150.07752 42.81688,150.038143 42.935491,149.961728 43.050504,149.837456 42.971255,149.639839 42.892007,149.479295 42.817648,149.37304 42.734547,149.297135 42.637548,149.251584 42.521507,149.236416" style="fill: black" />
    <polygon slic3r:type="contour" points="44.489288,152.365104 44.194944,152.365104 44.194944,151.117727 43.89854,151.431647 43.536272,151.788751 43.322203,151.977104 43.212596,152.059695 43.10196,152.128384 42.990295,152.183456 42.869367,152.225136 42.737632,152.251376 42.593547,152.260128 42.305636,152.209968 42.084108,152.059456 41.942856,151.819888 41.895768,151.502656 41.90838,151.328976 41.946196,151.145535 41.996888,150.978031 42.048088,150.852224 42.410356,150.852224 42.410356,150.870736 42.302292,151.046992 42.238484,151.204191 42.195776,151.386863 42.190112,151.477951 42.196544,151.568512 42.215844,151.650848 42.248003,151.724447 42.293027,151.788751 42.351692,151.84176 42.424768,151.881376 42.511732,151.906096 42.612075,151.91432 42.812764,151.887824 43.00728,151.808319 43.230608,151.656256 43.517743,151.41208 43.673408,151.266447 44.129076,150.798704 44.489288,150.798704" style="fill: white" />
    <polygon slic3r:type="contour" points="27.72639,152.571968 29.96793,151.411055 29.96793,151.773312 27.808724,152.87248 27.427928,152.87248 27.427928,151.2608 27.72639,151.2608" style="fill: white" />
    <polygon slic3r:type="contour" points="29.924446,149.4932 29.975134,149.665568 30.009867,149.85392 30.021446,150.044303 30.006524,150.233423 29.961754,150.401423 29.888167,150.547312 29.786793,150.670048 29.667152,150.764992 29.53053,150.835759 29.378983,150.879744 29.214571,150.894416 29.060711,150.882048 28.93258,150.845008 28.82812,150.7884 28.74527,150.717392 28.680433,150.635839 28.63412,150.547584 28.564488,150.353809 28.485403,150.555296 28.356244,150.707088 28.184885,150.810528 27.987799,150.845008 27.8414,150.830592 27.715067,150.787391 27.607776,150.716368 27.518498,150.618592 27.454173,150.507695 27.409404,150.38496 27.38316,150.245247 27.374412,150.083423 27.386506,149.907679 27.422782,149.722175 27.473984,149.551583 27.530846,149.420624 27.891056,149.420624 27.891056,149.441216 27.784538,149.615407 27.717125,149.781616 27.674416,149.964287 27.668754,150.056655 27.686252,150.223392 27.71018,150.298 27.746974,150.365424 27.795086,150.41944 27.857094,150.46216 27.932994,150.489951 28.02279,150.4992 28.205983,150.463184 28.339775,150.35512 28.421596,150.189935 28.448868,149.982559 28.448868,149.86936 28.730862,149.86936 28.735752,150.124336 28.750416,150.226464 28.777946,150.317808 28.821429,150.396287 28.882408,150.460352 28.962428,150.508464 29.064055,150.538576 29.189871,150.548592 29.315947,150.5396 29.418349,150.512592 29.505316,150.468576 29.585076,150.408624 29.650427,150.329904 29.694168,150.233679 29.718868,150.128687 29.727102,150.023728 29.709092,149.844143 29.655059,149.663519 29.581474,149.500912 29.5048,149.375344 29.5048,149.35064 29.865014,149.35064" style="fill: white" />
    <polygon slic3r:type="contour" points="28.26627,146.761104 26.60503,147.345924 26.604942,147.4165 28.26627,148.006015 28.26627,148.423424 25.979034,147.568816 25.979034,147.223008 28.26627,146.360976" style="fill: white" />
    <polygon slic3r:type="contour" points="4.864529,146.689887 6.008148,147.1172 6.008148,147.463008 3.720913,148.32504 3.720913,147.924896 5.382145,147.340092 5.382232,147.269515 3.720913,146.680016 3.720913,146.262576" style="fill: white" />
    <polygon slic3r:type="contour" points="3.771969,148.943359 3.801689,149.01464 3.85237,149.187007 3.887107,149.375344 3.898685,149.565743 3.883762,149.754847 3.838993,149.92288 3.765407,150.068752 3.664034,150.191488 3.544395,150.286432 3.407768,150.357184 3.256225,150.401184 3.091812,150.41584 2.93795,150.403504 2.809821,150.366447 2.70536,150.30984 2.622511,150.238831 2.557673,150.157279 2.511359,150.069007 2.441722,149.875264 2.362643,150.076736 2.233486,150.228544 2.062125,150.331968 1.865038,150.366448 1.718639,150.352032 1.592307,150.3088 1.485014,150.237791 1.395736,150.140032 1.331412,150.029135 1.286644,149.9064 1.260398,149.766688 1.251651,149.604864 1.263744,149.429135 1.300022,149.243615 1.351223,149.073023 1.408088,148.94208 1.768295,148.94208 1.768295,148.96264 1.661777,149.136847 1.594368,149.303055 1.551654,149.485727 1.545993,149.578095 1.563491,149.744832 1.587421,149.819439 1.624214,149.886847 1.672325,149.94088 1.734333,149.9836 1.810236,150.011375 1.900032,150.02064 2.083224,149.984624 2.217018,149.87656 2.298835,149.711375 2.32611,149.504 2.32611,149.3908 2.608101,149.3908 2.612991,149.645759 2.627658,149.747904 2.655189,149.839248 2.698668,149.917728 2.759647,149.981792 2.839667,150.029904 2.941294,150.060016 3.067112,150.070032 3.193187,150.06104 3.295589,150.034032 3.382553,149.990015 3.462313,149.93008 3.527668,149.851344 3.571407,149.75512 3.596106,149.650144 3.604339,149.545167 3.58633,149.365567 3.532301,149.184943 3.458716,149.022335 3.382042,148.896784 3.382042,148.87208 3.742252,148.87208" style="fill: white" />
    <polygon slic3r:type="contour" points="1.60363,152.093392 3.845169,150.932496 3.845169,151.294752 1.685962,152.39392 1.305168,152.39392 1.305168,150.782224 1.60363,150.782224" style="fill: white" />
    <polygon slic3r:type="contour" points="4.782399,178.609024 5.926016,179.036351 5.926016,179.382144 3.638782,180.244192 3.638782,179.844048 5.300015,179.259229 5.300102,179.188652 3.638782,178.599152 3.638782,178.181712" style="fill: white" />
    <polygon slic3r:type="contour" points="17.009962,197.908688 16.609819,197.908688 16.025008,196.247441 15.954431,196.247353 15.364931,197.908688 14.947498,197.908688 15.802124,195.621456 16.147926,195.621456" style="fill: white" />
    <polygon slic3r:type="contour" points="28.184138,178.680272 26.522906,179.265059 26.522818,179.335636 28.184138,179.925135 28.184138,180.342576 25.896902,179.487952 25.896902,179.142144 28.184138,178.280128" style="fill: white" />
    <polygon slic3r:type="contour" points="45.422395,178.609023 46.566016,179.036352 46.566016,179.382144 44.27878,180.244191 44.27878,179.844048 45.940013,179.259229 45.9401,179.188652 44.27878,178.599152 44.27878,178.181712" style="fill: white" />
    <polygon slic3r:type="contour" points="68.824144,178.680272 67.162911,179.265059 67.162823,179.335636 68.824144,179.925136 68.824144,180.342576 66.536904,179.487952 66.536904,179.142144 68.824144,178.280128" style="fill: white" />
    <polygon slic3r:type="contour" points="57.649964,197.908688 57.249816,197.908688 56.665007,196.247441 56.59443,196.247353 56.004932,197.908688 55.5875,197.908688 56.442124,195.621456 56.787924,195.621456" style="fill: white" />
  </g>
</svg>
