solid
  facet normal +9.8883082E-01 +1.4904226E-01 -8.2735077E-18
    outer loop      
      vertex   -1.6568193E+00 +7.1028962E-02 +0.0000000E+00
      vertex   -1.6679260E+00 +1.4471775E-01 +0.0000000E+00
      vertex   -1.6679260E+00 +1.4471775E-01 +1.0000000E+00
    endloop
  endfacet
  facet normal +9.0096886E-01 +4.3388373E-01 +0.0000000E+00
    outer loop      
      vertex   -1.6244857E+00 +3.8877417E-03 +0.0000000E+00
      vertex   -1.6568193E+00 +7.1028962E-02 +0.0000000E+00
      vertex   -1.6568193E+00 +7.1028962E-02 +1.0000000E+00
    endloop
  endfacet
  facet normal +7.3305187E-01 +6.8017273E-01 +0.0000000E+00
    outer loop      
      vertex   -1.5737985E+00 -5.0740114E-02 +0.0000000E+00
      vertex   -1.6244857E+00 +3.8877417E-03 +0.0000000E+00
      vertex   -1.6244857E+00 +3.8877417E-03 +1.0000000E+00
    endloop
  endfacet
  facet normal +5.0000000E-01 +8.6602540E-01 +0.0000000E+00
    outer loop      
      vertex   -1.5092613E+00 -8.8000681E-02 +0.0000000E+00
      vertex   -1.5737985E+00 -5.0740114E-02 +0.0000000E+00
      vertex   -1.5737985E+00 -5.0740114E-02 +1.0000000E+00
    endloop
  endfacet
  facet normal +2.2252093E-01 +9.7492791E-01 +0.0000000E+00
    outer loop      
      vertex   -1.4366086E+00 -1.0458319E-01 +0.0000000E+00
      vertex   -1.5092613E+00 -8.8000681E-02 +0.0000000E+00
      vertex   -1.5092613E+00 -8.8000681E-02 +1.0000000E+00
    endloop
  endfacet
  facet normal -7.4730093E-02 +9.9720379E-01 +0.0000000E+00
    outer loop      
      vertex   -1.3622958E+00 -9.9014222E-02 +0.0000000E+00
      vertex   -1.4366086E+00 -1.0458319E-01 +0.0000000E+00
      vertex   -1.4366086E+00 -1.0458319E-01 +1.0000000E+00
    endloop
  endfacet
  facet normal -3.6534102E-01 +9.3087374E-01 +0.0000000E+00
    outer loop      
      vertex   -1.2929260E+00 -7.1788594E-02 +0.0000000E+00
      vertex   -1.3622958E+00 -9.9014222E-02 +0.0000000E+00
      vertex   -1.3622958E+00 -9.9014222E-02 +1.0000000E+00
    endloop
  endfacet
  facet normal -6.2348980E-01 +7.8183148E-01 +0.0000000E+00
    outer loop      
      vertex   -1.2346631E+00 -2.5325428E-02 +0.0000000E+00
      vertex   -1.2929260E+00 -7.1788594E-02 +0.0000000E+00
      vertex   -1.2929260E+00 -7.1788594E-02 +1.0000000E+00
    endloop
  endfacet
  facet normal -8.2623877E-01 +5.6332005E-01 +0.0000000E+00
    outer loop      
      vertex   -1.1926838E+00 +3.6246821E-02 +0.0000000E+00
      vertex   -1.2346631E+00 -2.5325428E-02 +0.0000000E+00
      vertex   -1.2346631E+00 -2.5325428E-02 +1.0000000E+00
    endloop
  endfacet
  facet normal -9.5557280E-01 +2.9475517E-01 +0.0000000E+00
    outer loop      
      vertex   -1.1707183E+00 +1.0745718E-01 +0.0000000E+00
      vertex   -1.1926838E+00 +3.6246821E-02 +0.0000000E+00
      vertex   -1.1926838E+00 +3.6246821E-02 +1.0000000E+00
    endloop
  endfacet
  facet normal -1.0000000E+00 +0.0000000E+00 +0.0000000E+00
    outer loop      
      vertex   -1.1707183E+00 +1.8197832E-01 +0.0000000E+00
      vertex   -1.1707183E+00 +1.0745718E-01 +0.0000000E+00
      vertex   -1.1707183E+00 +1.0745718E-01 +1.0000000E+00
    endloop
  endfacet
  facet normal -9.5557280E-01 -2.9475517E-01 +0.0000000E+00
    outer loop      
      vertex   -1.1926838E+00 +2.5318869E-01 +0.0000000E+00
      vertex   -1.1707183E+00 +1.8197832E-01 +0.0000000E+00
      vertex   -1.1707183E+00 +1.8197832E-01 +1.0000000E+00
    endloop
  endfacet
  facet normal -8.2623877E-01 -5.6332005E-01 +0.0000000E+00
    outer loop      
      vertex   -1.2346631E+00 +3.1476094E-01 +0.0000000E+00
      vertex   -1.1926838E+00 +2.5318869E-01 +0.0000000E+00
      vertex   -1.1926838E+00 +2.5318869E-01 +1.0000000E+00
    endloop
  endfacet
  facet normal -6.2348980E-01 -7.8183148E-01 +0.0000000E+00
    outer loop      
      vertex   -1.2929260E+00 +3.6122410E-01 +0.0000000E+00
      vertex   -1.2346631E+00 +3.1476094E-01 +0.0000000E+00
      vertex   -1.2346631E+00 +3.1476094E-01 +1.0000000E+00
    endloop
  endfacet
  facet normal -3.6534102E-01 -9.3087374E-01 +0.0000000E+00
    outer loop      
      vertex   -1.3622958E+00 +3.8844973E-01 +0.0000000E+00
      vertex   -1.2929260E+00 +3.6122410E-01 +0.0000000E+00
      vertex   -1.2929260E+00 +3.6122410E-01 +1.0000000E+00
    endloop
  endfacet
  facet normal -7.4730093E-02 -9.9720379E-01 +0.0000000E+00
    outer loop      
      vertex   -1.4366086E+00 +3.9401870E-01 +0.0000000E+00
      vertex   -1.3622958E+00 +3.8844973E-01 +0.0000000E+00
      vertex   -1.3622958E+00 +3.8844973E-01 +1.0000000E+00
    endloop
  endfacet
  facet normal +2.2252093E-01 -9.7492791E-01 +0.0000000E+00
    outer loop      
      vertex   -1.5092613E+00 +3.7743619E-01 +0.0000000E+00
      vertex   -1.4366086E+00 +3.9401870E-01 +0.0000000E+00
      vertex   -1.4366086E+00 +3.9401870E-01 +1.0000000E+00
    endloop
  endfacet
  facet normal +5.0000000E-01 -8.6602540E-01 +0.0000000E+00
    outer loop      
      vertex   -1.5737985E+00 +3.4017562E-01 +0.0000000E+00
      vertex   -1.5092613E+00 +3.7743619E-01 +0.0000000E+00
      vertex   -1.5092613E+00 +3.7743619E-01 +1.0000000E+00
    endloop
  endfacet
  facet normal +7.3305187E-01 -6.8017273E-01 +0.0000000E+00
    outer loop      
      vertex   -1.6244857E+00 +2.8554777E-01 +0.0000000E+00
      vertex   -1.5737985E+00 +3.4017562E-01 +0.0000000E+00
      vertex   -1.5737985E+00 +3.4017562E-01 +1.0000000E+00
    endloop
  endfacet
  facet normal +9.0096886E-01 -4.3388373E-01 +0.0000000E+00
    outer loop      
      vertex   -1.6568193E+00 +2.1840654E-01 +0.0000000E+00
      vertex   -1.6244857E+00 +2.8554777E-01 +0.0000000E+00
      vertex   -1.6244857E+00 +2.8554777E-01 +1.0000000E+00
    endloop
  endfacet
  facet normal +9.8883082E-01 -1.4904226E-01 +0.0000000E+00
    outer loop      
      vertex   -1.6679260E+00 +1.4471775E-01 +0.0000000E+00
      vertex   -1.6568193E+00 +2.1840654E-01 +0.0000000E+00
      vertex   -1.6568193E+00 +2.1840654E-01 +1.0000000E+00
    endloop
  endfacet
  facet normal +9.8883082E-01 -1.4904226E-01 +8.2735077E-18
    outer loop      
      vertex   -1.6568193E+00 +2.1840654E-01 +1.0000000E+00
      vertex   -1.6679260E+00 +1.4471775E-01 +1.0000000E+00
      vertex   -1.6679260E+00 +1.4471775E-01 +0.0000000E+00
    endloop
  endfacet
  facet normal +9.0096886E-01 -4.3388373E-01 +0.0000000E+00
    outer loop      
      vertex   -1.6244857E+00 +2.8554777E-01 +1.0000000E+00
      vertex   -1.6568193E+00 +2.1840654E-01 +1.0000000E+00
      vertex   -1.6568193E+00 +2.1840654E-01 +0.0000000E+00
    endloop
  endfacet
  facet normal +7.3305187E-01 -6.8017273E-01 +0.0000000E+00
    outer loop      
      vertex   -1.5737985E+00 +3.4017562E-01 +1.0000000E+00
      vertex   -1.6244857E+00 +2.8554777E-01 +1.0000000E+00
      vertex   -1.6244857E+00 +2.8554777E-01 +0.0000000E+00
    endloop
  endfacet
  facet normal +5.0000000E-01 -8.6602540E-01 +0.0000000E+00
    outer loop      
      vertex   -1.5092613E+00 +3.7743619E-01 +1.0000000E+00
      vertex   -1.5737985E+00 +3.4017562E-01 +1.0000000E+00
      vertex   -1.5737985E+00 +3.4017562E-01 +0.0000000E+00
    endloop
  endfacet
  facet normal +2.2252093E-01 -9.7492791E-01 +0.0000000E+00
    outer loop      
      vertex   -1.4366086E+00 +3.9401870E-01 +1.0000000E+00
      vertex   -1.5092613E+00 +3.7743619E-01 +1.0000000E+00
      vertex   -1.5092613E+00 +3.7743619E-01 +0.0000000E+00
    endloop
  endfacet
  facet normal -7.4730093E-02 -9.9720379E-01 +0.0000000E+00
    outer loop      
      vertex   -1.3622958E+00 +3.8844973E-01 +1.0000000E+00
      vertex   -1.4366086E+00 +3.9401870E-01 +1.0000000E+00
      vertex   -1.4366086E+00 +3.9401870E-01 +0.0000000E+00
    endloop
  endfacet
  facet normal -3.6534102E-01 -9.3087374E-01 +0.0000000E+00
    outer loop      
      vertex   -1.2929260E+00 +3.6122410E-01 +1.0000000E+00
      vertex   -1.3622958E+00 +3.8844973E-01 +1.0000000E+00
      vertex   -1.3622958E+00 +3.8844973E-01 +0.0000000E+00
    endloop
  endfacet
  facet normal -6.2348980E-01 -7.8183148E-01 +0.0000000E+00
    outer loop      
      vertex   -1.2346631E+00 +3.1476094E-01 +1.0000000E+00
      vertex   -1.2929260E+00 +3.6122410E-01 +1.0000000E+00
      vertex   -1.2929260E+00 +3.6122410E-01 +0.0000000E+00
    endloop
  endfacet
  facet normal -8.2623877E-01 -5.6332005E-01 +0.0000000E+00
    outer loop      
      vertex   -1.1926838E+00 +2.5318869E-01 +1.0000000E+00
      vertex   -1.2346631E+00 +3.1476094E-01 +1.0000000E+00
      vertex   -1.2346631E+00 +3.1476094E-01 +0.0000000E+00
    endloop
  endfacet
  facet normal -9.5557280E-01 -2.9475517E-01 +0.0000000E+00
    outer loop      
      vertex   -1.1707183E+00 +1.8197832E-01 +1.0000000E+00
      vertex   -1.1926838E+00 +2.5318869E-01 +1.0000000E+00
      vertex   -1.1926838E+00 +2.5318869E-01 +0.0000000E+00
    endloop
  endfacet
  facet normal -1.0000000E+00 +0.0000000E+00 +0.0000000E+00
    outer loop      
      vertex   -1.1707183E+00 +1.0745718E-01 +1.0000000E+00
      vertex   -1.1707183E+00 +1.8197832E-01 +1.0000000E+00
      vertex   -1.1707183E+00 +1.8197832E-01 +0.0000000E+00
    endloop
  endfacet
  facet normal -9.5557280E-01 +2.9475517E-01 +0.0000000E+00
    outer loop      
      vertex   -1.1926838E+00 +3.6246821E-02 +1.0000000E+00
      vertex   -1.1707183E+00 +1.0745718E-01 +1.0000000E+00
      vertex   -1.1707183E+00 +1.0745718E-01 +0.0000000E+00
    endloop
  endfacet
  facet normal -8.2623877E-01 +5.6332005E-01 +0.0000000E+00
    outer loop      
      vertex   -1.2346631E+00 -2.5325428E-02 +1.0000000E+00
      vertex   -1.1926838E+00 +3.6246821E-02 +1.0000000E+00
      vertex   -1.1926838E+00 +3.6246821E-02 +0.0000000E+00
    endloop
  endfacet
  facet normal -6.2348980E-01 +7.8183148E-01 +0.0000000E+00
    outer loop      
      vertex   -1.2929260E+00 -7.1788594E-02 +1.0000000E+00
      vertex   -1.2346631E+00 -2.5325428E-02 +1.0000000E+00
      vertex   -1.2346631E+00 -2.5325428E-02 +0.0000000E+00
    endloop
  endfacet
  facet normal -3.6534102E-01 +9.3087374E-01 +0.0000000E+00
    outer loop      
      vertex   -1.3622958E+00 -9.9014222E-02 +1.0000000E+00
      vertex   -1.2929260E+00 -7.1788594E-02 +1.0000000E+00
      vertex   -1.2929260E+00 -7.1788594E-02 +0.0000000E+00
    endloop
  endfacet
  facet normal -7.4730093E-02 +9.9720379E-01 +0.0000000E+00
    outer loop      
      vertex   -1.4366086E+00 -1.0458319E-01 +1.0000000E+00
      vertex   -1.3622958E+00 -9.9014222E-02 +1.0000000E+00
      vertex   -1.3622958E+00 -9.9014222E-02 +0.0000000E+00
    endloop
  endfacet
  facet normal +2.2252093E-01 +9.7492791E-01 +0.0000000E+00
    outer loop      
      vertex   -1.5092613E+00 -8.8000681E-02 +1.0000000E+00
      vertex   -1.4366086E+00 -1.0458319E-01 +1.0000000E+00
      vertex   -1.4366086E+00 -1.0458319E-01 +0.0000000E+00
    endloop
  endfacet
  facet normal +5.0000000E-01 +8.6602540E-01 +0.0000000E+00
    outer loop      
      vertex   -1.5737985E+00 -5.0740114E-02 +1.0000000E+00
      vertex   -1.5092613E+00 -8.8000681E-02 +1.0000000E+00
      vertex   -1.5092613E+00 -8.8000681E-02 +0.0000000E+00
    endloop
  endfacet
  facet normal +7.3305187E-01 +6.8017273E-01 +0.0000000E+00
    outer loop      
      vertex   -1.6244857E+00 +3.8877417E-03 +1.0000000E+00
      vertex   -1.5737985E+00 -5.0740114E-02 +1.0000000E+00
      vertex   -1.5737985E+00 -5.0740114E-02 +0.0000000E+00
    endloop
  endfacet
  facet normal +9.0096886E-01 +4.3388373E-01 +0.0000000E+00
    outer loop      
      vertex   -1.6568193E+00 +7.1028962E-02 +1.0000000E+00
      vertex   -1.6244857E+00 +3.8877417E-03 +1.0000000E+00
      vertex   -1.6244857E+00 +3.8877417E-03 +0.0000000E+00
    endloop
  endfacet
  facet normal +9.8883082E-01 +1.4904226E-01 +0.0000000E+00
    outer loop      
      vertex   -1.6679260E+00 +1.4471775E-01 +1.0000000E+00
      vertex   -1.6568193E+00 +7.1028962E-02 +1.0000000E+00
      vertex   -1.6568193E+00 +7.1028962E-02 +0.0000000E+00
    endloop
  endfacet
  facet normal +0.0000000E+00 +0.0000000E+00 +1.0000000E+00
    outer loop      
      vertex   -1.9000000E+00 +6.4000000E-01 +1.0000000E+00
      vertex   -1.6568193E+00 +2.1840654E-01 +1.0000000E+00
      vertex   -1.6244857E+00 +2.8554777E-01 +1.0000000E+00
    endloop
  endfacet
  facet normal +0.0000000E+00 +0.0000000E+00 +1.0000000E+00
    outer loop      
      vertex   -9.0000000E-01 +6.4000000E-01 +1.0000000E+00
      vertex   -1.9000000E+00 +6.4000000E-01 +1.0000000E+00
      vertex   -1.4366086E+00 +3.9401870E-01 +1.0000000E+00
    endloop
  endfacet
  facet normal +0.0000000E+00 +0.0000000E+00 +1.0000000E+00
    outer loop      
      vertex   -1.6244857E+00 +2.8554777E-01 +1.0000000E+00
      vertex   -1.5737985E+00 +3.4017562E-01 +1.0000000E+00
      vertex   -1.9000000E+00 +6.4000000E-01 +1.0000000E+00
    endloop
  endfacet
  facet normal +0.0000000E+00 +0.0000000E+00 +1.0000000E+00
    outer loop      
      vertex   -1.9000000E+00 -3.6000000E-01 +1.0000000E+00
      vertex   -1.6568193E+00 +7.1028962E-02 +1.0000000E+00
      vertex   -1.6679260E+00 +1.4471775E-01 +1.0000000E+00
    endloop
  endfacet
  facet normal +0.0000000E+00 +0.0000000E+00 +1.0000000E+00
    outer loop      
      vertex   -1.9000000E+00 -3.6000000E-01 +1.0000000E+00
      vertex   -1.5737985E+00 -5.0740114E-02 +1.0000000E+00
      vertex   -1.6244857E+00 +3.8877417E-03 +1.0000000E+00
    endloop
  endfacet
  facet normal +0.0000000E+00 +0.0000000E+00 +1.0000000E+00
    outer loop      
      vertex   -1.4366086E+00 +3.9401870E-01 +1.0000000E+00
      vertex   -1.3622958E+00 +3.8844973E-01 +1.0000000E+00
      vertex   -9.0000000E-01 +6.4000000E-01 +1.0000000E+00
    endloop
  endfacet
  facet normal +0.0000000E+00 +0.0000000E+00 +1.0000000E+00
    outer loop      
      vertex   -1.5737985E+00 +3.4017562E-01 +1.0000000E+00
      vertex   -1.5092613E+00 +3.7743619E-01 +1.0000000E+00
      vertex   -1.9000000E+00 +6.4000000E-01 +1.0000000E+00
    endloop
  endfacet
  facet normal +0.0000000E+00 +0.0000000E+00 +1.0000000E+00
    outer loop      
      vertex   -1.6679260E+00 +1.4471775E-01 +1.0000000E+00
      vertex   -1.9000000E+00 +6.4000000E-01 +1.0000000E+00
      vertex   -1.9000000E+00 -3.6000000E-01 +1.0000000E+00
    endloop
  endfacet
  facet normal +0.0000000E+00 +0.0000000E+00 +1.0000000E+00
    outer loop      
      vertex   -1.9000000E+00 -3.6000000E-01 +1.0000000E+00
      vertex   -1.5092613E+00 -8.8000681E-02 +1.0000000E+00
      vertex   -1.5737985E+00 -5.0740114E-02 +1.0000000E+00
    endloop
  endfacet
  facet normal +0.0000000E+00 +0.0000000E+00 +1.0000000E+00
    outer loop      
      vertex   -9.0000000E-01 -3.6000000E-01 +1.0000000E+00
      vertex   -1.3622958E+00 -9.9014222E-02 +1.0000000E+00
      vertex   -1.4366086E+00 -1.0458319E-01 +1.0000000E+00
    endloop
  endfacet
  facet normal +0.0000000E+00 +0.0000000E+00 +1.0000000E-00
    outer loop      
      vertex   -1.5092613E+00 +3.7743619E-01 +1.0000000E+00
      vertex   -1.4366086E+00 +3.9401870E-01 +1.0000000E+00
      vertex   -1.9000000E+00 +6.4000000E-01 +1.0000000E+00
    endloop
  endfacet
  facet normal +0.0000000E+00 +0.0000000E+00 +1.0000000E+00
    outer loop      
      vertex   -1.6244857E+00 +3.8877417E-03 +1.0000000E+00
      vertex   -1.6568193E+00 +7.1028962E-02 +1.0000000E+00
      vertex   -1.9000000E+00 -3.6000000E-01 +1.0000000E+00
    endloop
  endfacet
  facet normal +0.0000000E+00 +0.0000000E+00 +1.0000000E+00
    outer loop      
      vertex   -1.4366086E+00 -1.0458319E-01 +1.0000000E+00
      vertex   -1.9000000E+00 -3.6000000E-01 +1.0000000E+00
      vertex   -9.0000000E-01 -3.6000000E-01 +1.0000000E+00
    endloop
  endfacet
  facet normal +0.0000000E+00 +0.0000000E+00 +1.0000000E+00
    outer loop      
      vertex   -9.0000000E-01 -3.6000000E-01 +1.0000000E+00
      vertex   -1.2346631E+00 -2.5325428E-02 +1.0000000E+00
      vertex   -1.2929260E+00 -7.1788594E-02 +1.0000000E+00
    endloop
  endfacet
  facet normal +0.0000000E+00 +0.0000000E+00 +1.0000000E+00
    outer loop      
      vertex   -9.0000000E-01 +6.4000000E-01 +1.0000000E+00
      vertex   -1.2929260E+00 +3.6122410E-01 +1.0000000E+00
      vertex   -1.2346631E+00 +3.1476094E-01 +1.0000000E+00
    endloop
  endfacet
  facet normal +0.0000000E+00 +0.0000000E+00 +1.0000000E-00
    outer loop      
      vertex   -1.6679260E+00 +1.4471775E-01 +1.0000000E+00
      vertex   -1.6568193E+00 +2.1840654E-01 +1.0000000E+00
      vertex   -1.9000000E+00 +6.4000000E-01 +1.0000000E+00
    endloop
  endfacet
  facet normal +0.0000000E+00 +0.0000000E+00 +1.0000000E+00
    outer loop      
      vertex   -1.2929260E+00 -7.1788594E-02 +1.0000000E+00
      vertex   -1.3622958E+00 -9.9014222E-02 +1.0000000E+00
      vertex   -9.0000000E-01 -3.6000000E-01 +1.0000000E+00
    endloop
  endfacet
  facet normal +0.0000000E+00 +0.0000000E+00 +1.0000000E+00
    outer loop      
      vertex   -1.2346631E+00 +3.1476094E-01 +1.0000000E+00
      vertex   -1.1926838E+00 +2.5318869E-01 +1.0000000E+00
      vertex   -9.0000000E-01 +6.4000000E-01 +1.0000000E+00
    endloop
  endfacet
  facet normal +0.0000000E+00 +0.0000000E+00 +1.0000000E-00
    outer loop      
      vertex   -1.4366086E+00 -1.0458319E-01 +1.0000000E+00
      vertex   -1.5092613E+00 -8.8000681E-02 +1.0000000E+00
      vertex   -1.9000000E+00 -3.6000000E-01 +1.0000000E+00
    endloop
  endfacet
  facet normal +0.0000000E+00 +0.0000000E+00 +1.0000000E+00
    outer loop      
      vertex   -9.0000000E-01 -3.6000000E-01 +1.0000000E+00
      vertex   -1.1707183E+00 +1.0745718E-01 +1.0000000E+00
      vertex   -1.1926838E+00 +3.6246821E-02 +1.0000000E+00
    endloop
  endfacet
  facet normal +0.0000000E+00 +0.0000000E+00 +1.0000000E+00
    outer loop      
      vertex   -9.0000000E-01 +6.4000000E-01 +1.0000000E+00
      vertex   -1.1707183E+00 +1.8197832E-01 +1.0000000E+00
      vertex   -1.1707183E+00 +1.0745718E-01 +1.0000000E+00
    endloop
  endfacet
  facet normal +0.0000000E+00 +0.0000000E+00 +1.0000000E+00
    outer loop      
      vertex   -1.3622958E+00 +3.8844973E-01 +1.0000000E+00
      vertex   -1.2929260E+00 +3.6122410E-01 +1.0000000E+00
      vertex   -9.0000000E-01 +6.4000000E-01 +1.0000000E+00
    endloop
  endfacet
  facet normal +0.0000000E+00 +0.0000000E+00 +1.0000000E+00
    outer loop      
      vertex   -1.1707183E+00 +1.0745718E-01 +1.0000000E+00
      vertex   -9.0000000E-01 -3.6000000E-01 +1.0000000E+00
      vertex   -9.0000000E-01 +6.4000000E-01 +1.0000000E+00
    endloop
  endfacet
  facet normal +0.0000000E+00 +0.0000000E+00 +1.0000000E+00
    outer loop      
      vertex   -1.1926838E+00 +3.6246821E-02 +1.0000000E+00
      vertex   -1.2346631E+00 -2.5325428E-02 +1.0000000E+00
      vertex   -9.0000000E-01 -3.6000000E-01 +1.0000000E+00
    endloop
  endfacet
  facet normal +0.0000000E+00 +0.0000000E+00 +1.0000000E-00
    outer loop      
      vertex   -1.1926838E+00 +2.5318869E-01 +1.0000000E+00
      vertex   -1.1707183E+00 +1.8197832E-01 +1.0000000E+00
      vertex   -9.0000000E-01 +6.4000000E-01 +1.0000000E+00
    endloop
  endfacet
  facet normal +0.0000000E+00 +0.0000000E+00 -1.0000000E+00
    outer loop      
      vertex   -1.9000000E+00 +6.4000000E-01 +0.0000000E+00
      vertex   -1.5737985E+00 +3.4017562E-01 +0.0000000E+00
      vertex   -1.6244857E+00 +2.8554777E-01 +0.0000000E+00
    endloop
  endfacet
  facet normal +0.0000000E+00 +0.0000000E+00 -1.0000000E+00
    outer loop      
      vertex   -1.9000000E+00 +6.4000000E-01 +0.0000000E+00
      vertex   -1.5092613E+00 +3.7743619E-01 +0.0000000E+00
      vertex   -1.5737985E+00 +3.4017562E-01 +0.0000000E+00
    endloop
  endfacet
  facet normal +0.0000000E+00 +0.0000000E+00 -1.0000000E+00
    outer loop      
      vertex   -9.0000000E-01 +6.4000000E-01 +0.0000000E+00
      vertex   -1.3622958E+00 +3.8844973E-01 +0.0000000E+00
      vertex   -1.4366086E+00 +3.9401870E-01 +0.0000000E+00
    endloop
  endfacet
  facet normal +0.0000000E+00 +0.0000000E+00 -1.0000000E+00
    outer loop      
      vertex   -9.0000000E-01 +6.4000000E-01 +0.0000000E+00
      vertex   -1.1926838E+00 +2.5318869E-01 +0.0000000E+00
      vertex   -1.2346631E+00 +3.1476094E-01 +0.0000000E+00
    endloop
  endfacet
  facet normal +0.0000000E+00 +0.0000000E+00 -1.0000000E-00
    outer loop      
      vertex   -1.9000000E+00 +6.4000000E-01 +0.0000000E+00
      vertex   -1.4366086E+00 +3.9401870E-01 +0.0000000E+00
      vertex   -1.5092613E+00 +3.7743619E-01 +0.0000000E+00
    endloop
  endfacet
  facet normal +0.0000000E+00 +0.0000000E+00 -1.0000000E+00
    outer loop      
      vertex   -9.0000000E-01 +6.4000000E-01 +0.0000000E+00
      vertex   -1.2929260E+00 +3.6122410E-01 +0.0000000E+00
      vertex   -1.3622958E+00 +3.8844973E-01 +0.0000000E+00
    endloop
  endfacet
  facet normal +0.0000000E+00 +0.0000000E+00 -1.0000000E-00
    outer loop      
      vertex   -9.0000000E-01 +6.4000000E-01 +0.0000000E+00
      vertex   -1.1707183E+00 +1.8197832E-01 +0.0000000E+00
      vertex   -1.1926838E+00 +2.5318869E-01 +0.0000000E+00
    endloop
  endfacet
  facet normal +0.0000000E+00 +0.0000000E+00 -1.0000000E+00
    outer loop      
      vertex   -9.0000000E-01 +6.4000000E-01 +0.0000000E+00
      vertex   -9.0000000E-01 -3.6000000E-01 +0.0000000E+00
      vertex   -1.1707183E+00 +1.0745718E-01 +0.0000000E+00
    endloop
  endfacet
  facet normal +0.0000000E+00 +0.0000000E+00 -1.0000000E+00
    outer loop      
      vertex   -9.0000000E-01 -3.6000000E-01 +0.0000000E+00
      vertex   -1.9000000E+00 -3.6000000E-01 +0.0000000E+00
      vertex   -1.4366086E+00 -1.0458319E-01 +0.0000000E+00
    endloop
  endfacet
  facet normal +0.0000000E+00 +0.0000000E+00 -1.0000000E+00
    outer loop      
      vertex   -1.9000000E+00 -3.6000000E-01 +0.0000000E+00
      vertex   -1.6568193E+00 +7.1028962E-02 +0.0000000E+00
      vertex   -1.6244857E+00 +3.8877417E-03 +0.0000000E+00
    endloop
  endfacet
  facet normal +0.0000000E+00 +0.0000000E+00 -1.0000000E+00
    outer loop      
      vertex   -1.4366086E+00 +3.9401870E-01 +0.0000000E+00
      vertex   -1.9000000E+00 +6.4000000E-01 +0.0000000E+00
      vertex   -9.0000000E-01 +6.4000000E-01 +0.0000000E+00
    endloop
  endfacet
  facet normal +0.0000000E+00 +0.0000000E+00 -1.0000000E+00
    outer loop      
      vertex   -1.1707183E+00 +1.0745718E-01 +0.0000000E+00
      vertex   -1.1707183E+00 +1.8197832E-01 +0.0000000E+00
      vertex   -9.0000000E-01 +6.4000000E-01 +0.0000000E+00
    endloop
  endfacet
  facet normal +0.0000000E+00 +0.0000000E+00 -1.0000000E+00
    outer loop      
      vertex   -9.0000000E-01 -3.6000000E-01 +0.0000000E+00
      vertex   -1.2346631E+00 -2.5325428E-02 +0.0000000E+00
      vertex   -1.1926838E+00 +3.6246821E-02 +0.0000000E+00
    endloop
  endfacet
  facet normal +0.0000000E+00 +0.0000000E+00 -1.0000000E+00
    outer loop      
      vertex   -9.0000000E-01 -3.6000000E-01 +0.0000000E+00
      vertex   -1.3622958E+00 -9.9014222E-02 +0.0000000E+00
      vertex   -1.2929260E+00 -7.1788594E-02 +0.0000000E+00
    endloop
  endfacet
  facet normal +0.0000000E+00 +0.0000000E+00 -1.0000000E-00
    outer loop      
      vertex   -1.9000000E+00 -3.6000000E-01 +0.0000000E+00
      vertex   -1.5092613E+00 -8.8000681E-02 +0.0000000E+00
      vertex   -1.4366086E+00 -1.0458319E-01 +0.0000000E+00
    endloop
  endfacet
  facet normal +0.0000000E+00 +0.0000000E+00 -1.0000000E+00
    outer loop      
      vertex   -1.6244857E+00 +3.8877417E-03 +0.0000000E+00
      vertex   -1.5737985E+00 -5.0740114E-02 +0.0000000E+00
      vertex   -1.9000000E+00 -3.6000000E-01 +0.0000000E+00
    endloop
  endfacet
  facet normal +0.0000000E+00 +0.0000000E+00 -1.0000000E+00
    outer loop      
      vertex   -1.9000000E+00 -3.6000000E-01 +0.0000000E+00
      vertex   -1.9000000E+00 +6.4000000E-01 +0.0000000E+00
      vertex   -1.6679260E+00 +1.4471775E-01 +0.0000000E+00
    endloop
  endfacet
  facet normal +0.0000000E+00 +0.0000000E+00 -1.0000000E+00
    outer loop      
      vertex   -1.6244857E+00 +2.8554777E-01 +0.0000000E+00
      vertex   -1.6568193E+00 +2.1840654E-01 +0.0000000E+00
      vertex   -1.9000000E+00 +6.4000000E-01 +0.0000000E+00
    endloop
  endfacet
  facet normal +0.0000000E+00 +0.0000000E+00 -1.0000000E+00
    outer loop      
      vertex   -1.1926838E+00 +3.6246821E-02 +0.0000000E+00
      vertex   -1.1707183E+00 +1.0745718E-01 +0.0000000E+00
      vertex   -9.0000000E-01 -3.6000000E-01 +0.0000000E+00
    endloop
  endfacet
  facet normal +0.0000000E+00 +0.0000000E+00 -1.0000000E+00
    outer loop      
      vertex   -1.4366086E+00 -1.0458319E-01 +0.0000000E+00
      vertex   -1.3622958E+00 -9.9014222E-02 +0.0000000E+00
      vertex   -9.0000000E-01 -3.6000000E-01 +0.0000000E+00
    endloop
  endfacet
  facet normal +0.0000000E+00 +0.0000000E+00 -1.0000000E+00
    outer loop      
      vertex   -1.6679260E+00 +1.4471775E-01 +0.0000000E+00
      vertex   -1.6568193E+00 +7.1028962E-02 +0.0000000E+00
      vertex   -1.9000000E+00 -3.6000000E-01 +0.0000000E+00
    endloop
  endfacet
  facet normal +0.0000000E+00 +0.0000000E+00 -1.0000000E+00
    outer loop      
      vertex   -1.2346631E+00 +3.1476094E-01 +0.0000000E+00
      vertex   -1.2929260E+00 +3.6122410E-01 +0.0000000E+00
      vertex   -9.0000000E-01 +6.4000000E-01 +0.0000000E+00
    endloop
  endfacet
  facet normal +0.0000000E+00 +0.0000000E+00 -1.0000000E+00
    outer loop      
      vertex   -1.5737985E+00 -5.0740114E-02 +0.0000000E+00
      vertex   -1.5092613E+00 -8.8000681E-02 +0.0000000E+00
      vertex   -1.9000000E+00 -3.6000000E-01 +0.0000000E+00
    endloop
  endfacet
  facet normal +0.0000000E+00 +0.0000000E+00 -1.0000000E+00
    outer loop      
      vertex   -1.2929260E+00 -7.1788594E-02 +0.0000000E+00
      vertex   -1.2346631E+00 -2.5325428E-02 +0.0000000E+00
      vertex   -9.0000000E-01 -3.6000000E-01 +0.0000000E+00
    endloop
  endfacet
  facet normal +0.0000000E+00 +0.0000000E+00 -1.0000000E+00
    outer loop      
      vertex   -1.6568193E+00 +2.1840654E-01 +0.0000000E+00
      vertex   -1.6679260E+00 +1.4471775E-01 +0.0000000E+00
      vertex   -1.9000000E+00 +6.4000000E-01 +0.0000000E+00
    endloop
  endfacet
  facet normal +0.0000000E+00 +1.0000000E+00 +0.0000000E+00
    outer loop      
      vertex   -9.0000000E-01 +6.4000000E-01 +1.0000000E+00
      vertex   -9.0000000E-01 +6.4000000E-01 +0.0000000E+00
      vertex   -1.9000000E+00 +6.4000000E-01 +0.0000000E+00
    endloop
  endfacet
  facet normal +0.0000000E+00 +1.0000000E+00 +0.0000000E+00
    outer loop      
      vertex   -1.9000000E+00 +6.4000000E-01 +0.0000000E+00
      vertex   -1.9000000E+00 +6.4000000E-01 +1.0000000E+00
      vertex   -9.0000000E-01 +6.4000000E-01 +1.0000000E+00
    endloop
  endfacet
  facet normal +1.0000000E+00 +0.0000000E+00 +0.0000000E+00
    outer loop      
      vertex   -9.0000000E-01 -3.6000000E-01 +1.0000000E+00
      vertex   -9.0000000E-01 -3.6000000E-01 +0.0000000E+00
      vertex   -9.0000000E-01 +6.4000000E-01 +0.0000000E+00
    endloop
  endfacet
  facet normal +1.0000000E+00 +0.0000000E+00 +0.0000000E+00
    outer loop      
      vertex   -9.0000000E-01 +6.4000000E-01 +0.0000000E+00
      vertex   -9.0000000E-01 +6.4000000E-01 +1.0000000E+00
      vertex   -9.0000000E-01 -3.6000000E-01 +1.0000000E+00
    endloop
  endfacet
  facet normal +0.0000000E+00 -1.0000000E+00 +0.0000000E+00
    outer loop      
      vertex   -1.9000000E+00 -3.6000000E-01 +1.0000000E+00
      vertex   -1.9000000E+00 -3.6000000E-01 +0.0000000E+00
      vertex   -9.0000000E-01 -3.6000000E-01 +0.0000000E+00
    endloop
  endfacet
  facet normal +0.0000000E+00 -1.0000000E+00 +0.0000000E+00
    outer loop      
      vertex   -9.0000000E-01 -3.6000000E-01 +0.0000000E+00
      vertex   -9.0000000E-01 -3.6000000E-01 +1.0000000E+00
      vertex   -1.9000000E+00 -3.6000000E-01 +1.0000000E+00
    endloop
  endfacet
  facet normal -1.0000000E+00 +0.0000000E+00 +0.0000000E+00
    outer loop      
      vertex   -1.9000000E+00 +6.4000000E-01 +1.0000000E+00
      vertex   -1.9000000E+00 +6.4000000E-01 +0.0000000E+00
      vertex   -1.9000000E+00 -3.6000000E-01 +0.0000000E+00
    endloop
  endfacet
  facet normal -1.0000000E+00 +0.0000000E+00 +0.0000000E+00
    outer loop      
      vertex   -1.9000000E+00 -3.6000000E-01 +0.0000000E+00
      vertex   -1.9000000E+00 -3.6000000E-01 +1.0000000E+00
      vertex   -1.9000000E+00 +6.4000000E-01 +1.0000000E+00
    endloop
  endfacet
endsolid
