<?xml version="1.0" standalone="no" ?>
<!DOCTYPE svg PUBLIC "-//W3C//DTD SVG 1.1//EN" "http://www.w3.org/Graphics/SVG/1.1/DTD/svg11.dtd">
<svg width="2000px" height="2000px" xmlns="http://www.w3.org/2000/svg" version="1.1" >
	<line x1="901.939" y1="1972.37" x2="939.879" y2="1969.44" stroke-width="1" stroke="rgb(0,0,0)" />
	<line x1="939.879" y1="1969.44" x2="950.19" y2="1967.96" stroke-width="1" stroke="rgb(0,0,0)" />
	<line x1="950.19" y1="1967.96" x2="989.708" y2="1961.08" stroke-width="1" stroke="rgb(0,0,0)" />
	<line x1="989.708" y1="1961.08" x2="987.443" y2="1949.97" stroke-width="1" stroke="rgb(0,0,0)" />
	<line x1="987.443" y1="1949.97" x2="1000.1" y2="1947.36" stroke-width="1" stroke="rgb(0,0,0)" />
	<line x1="1000.1" y1="1947.36" x2="1027.39" y2="1940.58" stroke-width="1" stroke="rgb(0,0,0)" />
	<line x1="1027.39" y1="1940.58" x2="1030.28" y2="1951.4" stroke-width="1" stroke="rgb(0,0,0)" />
	<line x1="1030.28" y1="1951.4" x2="1038.36" y2="1949.4" stroke-width="1" stroke="rgb(0,0,0)" />
	<line x1="1038.36" y1="1949.4" x2="1040.98" y2="1948.57" stroke-width="1" stroke="rgb(0,0,0)" />
	<line x1="1040.98" y1="1948.57" x2="1037.91" y2="1937.77" stroke-width="1" stroke="rgb(0,0,0)" />
	<line x1="1037.91" y1="1937.77" x2="1050.36" y2="1934.12" stroke-width="1" stroke="rgb(0,0,0)" />
	<line x1="1050.36" y1="1934.12" x2="1076.03" y2="1925.89" stroke-width="1" stroke="rgb(0,0,0)" />
	<line x1="1076.03" y1="1925.89" x2="1102.73" y2="1915.88" stroke-width="1" stroke="rgb(0,0,0)" />
	<line x1="1102.73" y1="1915.88" x2="1111.88" y2="1912.19" stroke-width="1" stroke="rgb(0,0,0)" />
	<line x1="1111.88" y1="1912.19" x2="1116.06" y2="1922.56" stroke-width="1" stroke="rgb(0,0,0)" />
	<line x1="1116.06" y1="1922.56" x2="1126.78" y2="1917.98" stroke-width="1" stroke="rgb(0,0,0)" />
	<line x1="1126.78" y1="1917.98" x2="1122.36" y2="1907.69" stroke-width="1" stroke="rgb(0,0,0)" />
	<line x1="1122.36" y1="1907.69" x2="1141.94" y2="1898.89" stroke-width="1" stroke="rgb(0,0,0)" />
	<line x1="1141.94" y1="1898.89" x2="1146.68" y2="1909.03" stroke-width="1" stroke="rgb(0,0,0)" />
	<line x1="1146.68" y1="1909.03" x2="1153.05" y2="1906.22" stroke-width="1" stroke="rgb(0,0,0)" />
	<line x1="1153.05" y1="1906.22" x2="1155.44" y2="1904.96" stroke-width="1" stroke="rgb(0,0,0)" />
	<line x1="1155.44" y1="1904.96" x2="1150.54" y2="1894.86" stroke-width="1" stroke="rgb(0,0,0)" />
	<line x1="1150.54" y1="1894.86" x2="1161.73" y2="1889.33" stroke-width="1" stroke="rgb(0,0,0)" />
	<line x1="1161.73" y1="1889.33" x2="1183.74" y2="1877.78" stroke-width="1" stroke="rgb(0,0,0)" />
	<line x1="1183.74" y1="1877.78" x2="1206.46" y2="1864.52" stroke-width="1" stroke="rgb(0,0,0)" />
	<line x1="1206.46" y1="1864.52" x2="1214.54" y2="1859.54" stroke-width="1" stroke="rgb(0,0,0)" />
	<line x1="1214.54" y1="1859.54" x2="1220.39" y2="1869.06" stroke-width="1" stroke="rgb(0,0,0)" />
	<line x1="1220.39" y1="1869.06" x2="1230.31" y2="1862.71" stroke-width="1" stroke="rgb(0,0,0)" />
	<line x1="1230.31" y1="1862.71" x2="1224.21" y2="1853.29" stroke-width="1" stroke="rgb(0,0,0)" />
	<line x1="1224.21" y1="1853.29" x2="1233.85" y2="1847.06" stroke-width="1" stroke="rgb(0,0,0)" />
	<line x1="1233.85" y1="1847.06" x2="1241.61" y2="1841.62" stroke-width="1" stroke="rgb(0,0,0)" />
	<line x1="1241.61" y1="1841.62" x2="1247.98" y2="1850.84" stroke-width="1" stroke="rgb(0,0,0)" />
	<line x1="1247.98" y1="1850.84" x2="1254.18" y2="1846.74" stroke-width="1" stroke="rgb(0,0,0)" />
	<line x1="1254.18" y1="1846.74" x2="1256.32" y2="1845.11" stroke-width="1" stroke="rgb(0,0,0)" />
	<line x1="1256.32" y1="1845.11" x2="1249.8" y2="1835.96" stroke-width="1" stroke="rgb(0,0,0)" />
	<line x1="1249.8" y1="1835.96" x2="1260.33" y2="1828.32" stroke-width="1" stroke="rgb(0,0,0)" />
	<line x1="1260.33" y1="1828.32" x2="1281.86" y2="1811.84" stroke-width="1" stroke="rgb(0,0,0)" />
	<line x1="1281.86" y1="1811.84" x2="1303.77" y2="1793.31" stroke-width="1" stroke="rgb(0,0,0)" />
	<line x1="1303.77" y1="1793.31" x2="1311.16" y2="1786.73" stroke-width="1" stroke="rgb(0,0,0)" />
	<line x1="1311.16" y1="1786.73" x2="1318.59" y2="1795.08" stroke-width="1" stroke="rgb(0,0,0)" />
	<line x1="1318.59" y1="1795.08" x2="1325.47" y2="1788.93" stroke-width="1" stroke="rgb(0,0,0)" />
	<line x1="1325.47" y1="1788.93" x2="1375.79" y2="1737.34" stroke-width="1" stroke="rgb(0,0,0)" />
	<line x1="1375.79" y1="1737.34" x2="1386.56" y2="1724.54" stroke-width="1" stroke="rgb(0,0,0)" />
	<line x1="1386.56" y1="1724.54" x2="1409.15" y2="1696.17" stroke-width="1" stroke="rgb(0,0,0)" />
	<line x1="1409.15" y1="1696.17" x2="1400.21" y2="1689.44" stroke-width="1" stroke="rgb(0,0,0)" />
	<line x1="1400.21" y1="1689.44" x2="1409.7" y2="1676.7" stroke-width="1" stroke="rgb(0,0,0)" />
	<line x1="1409.7" y1="1676.7" x2="1418.87" y2="1683.14" stroke-width="1" stroke="rgb(0,0,0)" />
	<line x1="1418.87" y1="1683.14" x2="1409.77" y2="1676.61" stroke-width="1" stroke="rgb(0,0,0)" />
	<line x1="1409.77" y1="1676.61" x2="1418.66" y2="1663.73" stroke-width="1" stroke="rgb(0,0,0)" />
	<line x1="1418.66" y1="1663.73" x2="1427.9" y2="1670.05" stroke-width="1" stroke="rgb(0,0,0)" />
	<line x1="1427.9" y1="1670.05" x2="1444.23" y2="1645.12" stroke-width="1" stroke="rgb(0,0,0)" />
	<line x1="1444.23" y1="1645.12" x2="1455.37" y2="1626.69" stroke-width="1" stroke="rgb(0,0,0)" />
	<line x1="1455.37" y1="1626.69" x2="1461.13" y2="1616.58" stroke-width="1" stroke="rgb(0,0,0)" />
	<line x1="1461.13" y1="1616.58" x2="1475.49" y2="1589.4" stroke-width="1" stroke="rgb(0,0,0)" />
	<line x1="1475.49" y1="1589.4" x2="1480.96" y2="1578.29" stroke-width="1" stroke="rgb(0,0,0)" />
	<line x1="1480.96" y1="1578.29" x2="1491.42" y2="1555.55" stroke-width="1" stroke="rgb(0,0,0)" />
	<line x1="1491.42" y1="1555.55" x2="1501.82" y2="1530.31" stroke-width="1" stroke="rgb(0,0,0)" />
	<line x1="1501.82" y1="1530.31" x2="1511.99" y2="1502.72" stroke-width="1" stroke="rgb(0,0,0)" />
	<line x1="1511.99" y1="1502.72" x2="1517.9" y2="1484.78" stroke-width="1" stroke="rgb(0,0,0)" />
	<line x1="1517.9" y1="1484.78" x2="1523.64" y2="1465.51" stroke-width="1" stroke="rgb(0,0,0)" />
	<line x1="1523.64" y1="1465.51" x2="1527.58" y2="1450.96" stroke-width="1" stroke="rgb(0,0,0)" />
	<line x1="1527.58" y1="1450.96" x2="1532.55" y2="1430.5" stroke-width="1" stroke="rgb(0,0,0)" />
	<line x1="1532.55" y1="1430.5" x2="1536.06" y2="1414.23" stroke-width="1" stroke="rgb(0,0,0)" />
	<line x1="1536.06" y1="1414.23" x2="1538.52" y2="1401.37" stroke-width="1" stroke="rgb(0,0,0)" />
	<line x1="1538.52" y1="1401.37" x2="1543.92" y2="1367.14" stroke-width="1" stroke="rgb(0,0,0)" />
	<line x1="1543.92" y1="1367.14" x2="1546.29" y2="1347.21" stroke-width="1" stroke="rgb(0,0,0)" />
	<line x1="1546.29" y1="1347.21" x2="1548.81" y2="1315.97" stroke-width="1" stroke="rgb(0,0,0)" />
	<line x1="1548.81" y1="1315.97" x2="1537.63" y2="1315.32" stroke-width="1" stroke="rgb(0,0,0)" />
	<line x1="1537.63" y1="1315.32" x2="1538.34" y2="1300.32" stroke-width="1" stroke="rgb(0,0,0)" />
	<line x1="1538.34" y1="1300.32" x2="1538.52" y2="1290.11" stroke-width="1" stroke="rgb(0,0,0)" />
	<line x1="1538.52" y1="1290.11" x2="1549.72" y2="1290.35" stroke-width="1" stroke="rgb(0,0,0)" />
	<line x1="1549.72" y1="1290.35" x2="1550" y2="1275.23" stroke-width="1" stroke="rgb(0,0,0)" />
	<line x1="1550" y1="1275.23" x2="1549.81" y2="1263.25" stroke-width="1" stroke="rgb(0,0,0)" />
	<line x1="1549.81" y1="1263.25" x2="1538.62" y2="1263.45" stroke-width="1" stroke="rgb(0,0,0)" />
	<line x1="1538.62" y1="1263.45" x2="1537.88" y2="1239.61" stroke-width="1" stroke="rgb(0,0,0)" />
	<line x1="1537.88" y1="1239.61" x2="1549.06" y2="1239.03" stroke-width="1" stroke="rgb(0,0,0)" />
	<line x1="1549.06" y1="1239.03" x2="1548.3" y2="1227.19" stroke-width="1" stroke="rgb(0,0,0)" />
	<line x1="1548.3" y1="1227.19" x2="1545.77" y2="1198.38" stroke-width="1" stroke="rgb(0,0,0)" />
	<line x1="1545.77" y1="1198.38" x2="1542.15" y2="1170.69" stroke-width="1" stroke="rgb(0,0,0)" />
	<line x1="1542.15" y1="1170.69" x2="1531.08" y2="1172.36" stroke-width="1" stroke="rgb(0,0,0)" />
	<line x1="1531.08" y1="1172.36" x2="1528.99" y2="1159.42" stroke-width="1" stroke="rgb(0,0,0)" />
	<line x1="1528.99" y1="1159.42" x2="1540.04" y2="1157.54" stroke-width="1" stroke="rgb(0,0,0)" />
	<line x1="1540.04" y1="1157.54" x2="1535.79" y2="1134.91" stroke-width="1" stroke="rgb(0,0,0)" />
	<line x1="1535.79" y1="1134.91" x2="1532.71" y2="1120.67" stroke-width="1" stroke="rgb(0,0,0)" />
	<line x1="1532.71" y1="1120.67" x2="1526.5" y2="1095.63" stroke-width="1" stroke="rgb(0,0,0)" />
	<line x1="1526.5" y1="1095.63" x2="1520.62" y2="1074.6" stroke-width="1" stroke="rgb(0,0,0)" />
	<line x1="1520.62" y1="1074.6" x2="1515.37" y2="1057.79" stroke-width="1" stroke="rgb(0,0,0)" />
	<line x1="1515.37" y1="1057.79" x2="1509.5" y2="1040.62" stroke-width="1" stroke="rgb(0,0,0)" />
	<line x1="1509.5" y1="1040.62" x2="1502.11" y2="1020.99" stroke-width="1" stroke="rgb(0,0,0)" />
	<line x1="1502.11" y1="1020.99" x2="1491.42" y2="994.914" stroke-width="1" stroke="rgb(0,0,0)" />
	<line x1="1491.42" y1="994.914" x2="1459.2" y2="930.448" stroke-width="1" stroke="rgb(0,0,0)" />
	<line x1="1459.2" y1="930.448" x2="1420.52" y2="869.637" stroke-width="1" stroke="rgb(0,0,0)" />
	<line x1="1420.52" y1="869.637" x2="1406.15" y2="850.674" stroke-width="1" stroke="rgb(0,0,0)" />
	<line x1="1406.15" y1="850.674" x2="1374.11" y2="811.317" stroke-width="1" stroke="rgb(0,0,0)" />
	<line x1="1374.11" y1="811.317" x2="1365.62" y2="818.833" stroke-width="1" stroke="rgb(0,0,0)" />
	<line x1="1365.62" y1="818.833" x2="1357.03" y2="809.174" stroke-width="1" stroke="rgb(0,0,0)" />
	<line x1="1357.03" y1="809.174" x2="1337.51" y2="788.935" stroke-width="1" stroke="rgb(0,0,0)" />
	<line x1="1337.51" y1="788.935" x2="1345.44" y2="781.021" stroke-width="1" stroke="rgb(0,0,0)" />
	<line x1="1345.44" y1="781.021" x2="1339.67" y2="775.019" stroke-width="1" stroke="rgb(0,0,0)" />
	<line x1="1339.67" y1="775.019" x2="1337.64" y2="773.173" stroke-width="1" stroke="rgb(0,0,0)" />
	<line x1="1337.64" y1="773.173" x2="1329.81" y2="781.228" stroke-width="1" stroke="rgb(0,0,0)" />
	<line x1="1329.81" y1="781.228" x2="1320.43" y2="772.271" stroke-width="1" stroke="rgb(0,0,0)" />
	<line x1="1320.43" y1="772.271" x2="1300.47" y2="754.157" stroke-width="1" stroke="rgb(0,0,0)" />
	<line x1="1300.47" y1="754.157" x2="1278.45" y2="736.033" stroke-width="1" stroke="rgb(0,0,0)" />
	<line x1="1278.45" y1="736.033" x2="1270.68" y2="729.956" stroke-width="1" stroke="rgb(0,0,0)" />
	<line x1="1270.68" y1="729.956" x2="1277.57" y2="721.155" stroke-width="1" stroke="rgb(0,0,0)" />
	<line x1="1277.57" y1="721.155" x2="1268.24" y2="714.156" stroke-width="1" stroke="rgb(0,0,0)" />
	<line x1="1268.24" y1="714.156" x2="1261.55" y2="723.134" stroke-width="1" stroke="rgb(0,0,0)" />
	<line x1="1261.55" y1="723.134" x2="1244.14" y2="710.58" stroke-width="1" stroke="rgb(0,0,0)" />
	<line x1="1244.14" y1="710.58" x2="1250.55" y2="701.394" stroke-width="1" stroke="rgb(0,0,0)" />
	<line x1="1250.55" y1="701.394" x2="1244.93" y2="697.286" stroke-width="1" stroke="rgb(0,0,0)" />
	<line x1="1244.93" y1="697.286" x2="1242.64" y2="695.846" stroke-width="1" stroke="rgb(0,0,0)" />
	<line x1="1242.64" y1="695.846" x2="1236.34" y2="705.142" stroke-width="1" stroke="rgb(0,0,0)" />
	<line x1="1236.34" y1="705.142" x2="1225.96" y2="698.213" stroke-width="1" stroke="rgb(0,0,0)" />
	<line x1="1225.96" y1="698.213" x2="1204.95" y2="684.931" stroke-width="1" stroke="rgb(0,0,0)" />
	<line x1="1204.95" y1="684.931" x2="1182.11" y2="671.882" stroke-width="1" stroke="rgb(0,0,0)" />
	<line x1="1182.11" y1="671.882" x2="1173.75" y2="667.381" stroke-width="1" stroke="rgb(0,0,0)" />
	<line x1="1173.75" y1="667.381" x2="1179.08" y2="657.554" stroke-width="1" stroke="rgb(0,0,0)" />
	<line x1="1179.08" y1="657.554" x2="1174.81" y2="655.155" stroke-width="1" stroke="rgb(0,0,0)" />
	<line x1="1174.81" y1="655.155" x2="1168.62" y2="652.134" stroke-width="1" stroke="rgb(0,0,0)" />
	<line x1="1168.62" y1="652.134" x2="1163.51" y2="662.125" stroke-width="1" stroke="rgb(0,0,0)" />
	<line x1="1163.51" y1="662.125" x2="1153.29" y2="656.893" stroke-width="1" stroke="rgb(0,0,0)" />
	<line x1="1153.29" y1="656.893" x2="1144.7" y2="652.895" stroke-width="1" stroke="rgb(0,0,0)" />
	<line x1="1144.7" y1="652.895" x2="1149.5" y2="642.764" stroke-width="1" stroke="rgb(0,0,0)" />
	<line x1="1149.5" y1="642.764" x2="1140.37" y2="638.41" stroke-width="1" stroke="rgb(0,0,0)" />
	<line x1="1140.37" y1="638.41" x2="1135.71" y2="648.628" stroke-width="1" stroke="rgb(0,0,0)" />
	<line x1="1135.71" y1="648.628" x2="1123.82" y2="643.335" stroke-width="1" stroke="rgb(0,0,0)" />
	<line x1="1123.82" y1="643.335" x2="1098.78" y2="632.929" stroke-width="1" stroke="rgb(0,0,0)" />
	<line x1="1098.78" y1="632.929" x2="1071.78" y2="623.221" stroke-width="1" stroke="rgb(0,0,0)" />
	<line x1="1071.78" y1="623.221" x2="1062.39" y2="620.106" stroke-width="1" stroke="rgb(0,0,0)" />
	<line x1="1062.39" y1="620.106" x2="1065.91" y2="609.499" stroke-width="1" stroke="rgb(0,0,0)" />
	<line x1="1065.91" y1="609.499" x2="1052.69" y2="605.458" stroke-width="1" stroke="rgb(0,0,0)" />
	<line x1="1052.69" y1="605.458" x2="1010.78" y2="593.947" stroke-width="1" stroke="rgb(0,0,0)" />
	<line x1="1010.78" y1="593.947" x2="981.241" y2="588.17" stroke-width="1" stroke="rgb(0,0,0)" />
	<line x1="981.241" y1="588.17" x2="939.862" y2="581.154" stroke-width="1" stroke="rgb(0,0,0)" />
	<line x1="939.862" y1="581.154" x2="934.97" y2="580.52" stroke-width="1" stroke="rgb(0,0,0)" />
	<line x1="934.97" y1="580.52" x2="933.61" y2="591.636" stroke-width="1" stroke="rgb(0,0,0)" />
	<line x1="933.61" y1="591.636" x2="917.835" y2="589.781" stroke-width="1" stroke="rgb(0,0,0)" />
	<line x1="917.835" y1="589.781" x2="918.938" y2="578.635" stroke-width="1" stroke="rgb(0,0,0)" />
	<line x1="918.938" y1="578.635" x2="917.721" y2="589.771" stroke-width="1" stroke="rgb(0,0,0)" />
	<line x1="917.721" y1="589.771" x2="902.123" y2="588.509" stroke-width="1" stroke="rgb(0,0,0)" />
	<line x1="902.123" y1="588.509" x2="902.97" y2="577.343" stroke-width="1" stroke="rgb(0,0,0)" />
	<line x1="902.97" y1="577.343" x2="868.024" y2="575.464" stroke-width="1" stroke="rgb(0,0,0)" />
	<line x1="868.024" y1="575.464" x2="862.389" y2="575.609" stroke-width="1" stroke="rgb(0,0,0)" />
	<line x1="862.389" y1="575.609" x2="846.813" y2="575.326" stroke-width="1" stroke="rgb(0,0,0)" />
	<line x1="846.813" y1="575.326" x2="819.52" y2="575.928" stroke-width="1" stroke="rgb(0,0,0)" />
	<line x1="819.52" y1="575.928" x2="797.28" y2="577.22" stroke-width="1" stroke="rgb(0,0,0)" />
	<line x1="797.28" y1="577.22" x2="765.166" y2="580.474" stroke-width="1" stroke="rgb(0,0,0)" />
	<line x1="765.166" y1="580.474" x2="746.095" y2="583.013" stroke-width="1" stroke="rgb(0,0,0)" />
	<line x1="746.095" y1="583.013" x2="729.654" y2="585.658" stroke-width="1" stroke="rgb(0,0,0)" />
	<line x1="729.654" y1="585.658" x2="708.025" y2="589.799" stroke-width="1" stroke="rgb(0,0,0)" />
	<line x1="708.025" y1="589.799" x2="690.85" y2="593.597" stroke-width="1" stroke="rgb(0,0,0)" />
	<line x1="690.85" y1="593.597" x2="663.392" y2="600.564" stroke-width="1" stroke="rgb(0,0,0)" />
	<line x1="663.392" y1="600.564" x2="646.129" y2="605.585" stroke-width="1" stroke="rgb(0,0,0)" />
	<line x1="646.129" y1="605.585" x2="628.37" y2="611.27" stroke-width="1" stroke="rgb(0,0,0)" />
	<line x1="628.37" y1="611.27" x2="589.742" y2="625.416" stroke-width="1" stroke="rgb(0,0,0)" />
	<line x1="589.742" y1="625.416" x2="572.936" y2="632.413" stroke-width="1" stroke="rgb(0,0,0)" />
	<line x1="572.936" y1="632.413" x2="535.877" y2="649.671" stroke-width="1" stroke="rgb(0,0,0)" />
	<line x1="535.877" y1="649.671" x2="540.903" y2="659.68" stroke-width="1" stroke="rgb(0,0,0)" />
	<line x1="540.903" y1="659.68" x2="527.552" y2="666.568" stroke-width="1" stroke="rgb(0,0,0)" />
	<line x1="527.552" y1="666.568" x2="518.621" y2="671.514" stroke-width="1" stroke="rgb(0,0,0)" />
	<line x1="518.621" y1="671.514" x2="513.233" y2="661.698" stroke-width="1" stroke="rgb(0,0,0)" />
	<line x1="513.233" y1="661.698" x2="489.723" y2="675.169" stroke-width="1" stroke="rgb(0,0,0)" />
	<line x1="489.723" y1="675.169" x2="495.487" y2="684.77" stroke-width="1" stroke="rgb(0,0,0)" />
	<line x1="495.487" y1="684.77" x2="475.212" y2="697.323" stroke-width="1" stroke="rgb(0,0,0)" />
	<line x1="475.212" y1="697.323" x2="469.117" y2="687.926" stroke-width="1" stroke="rgb(0,0,0)" />
	<line x1="469.117" y1="687.926" x2="457.418" y2="695.682" stroke-width="1" stroke="rgb(0,0,0)" />
	<line x1="457.418" y1="695.682" x2="443.39" y2="705.454" stroke-width="1" stroke="rgb(0,0,0)" />
	<line x1="443.39" y1="705.454" x2="413.389" y2="728.084" stroke-width="1" stroke="rgb(0,0,0)" />
	<line x1="413.389" y1="728.084" x2="420.375" y2="736.839" stroke-width="1" stroke="rgb(0,0,0)" />
	<line x1="420.375" y1="736.839" x2="410.208" y2="745.111" stroke-width="1" stroke="rgb(0,0,0)" />
	<line x1="410.208" y1="745.111" x2="403.057" y2="736.491" stroke-width="1" stroke="rgb(0,0,0)" />
	<line x1="403.057" y1="736.491" x2="387.433" y2="749.882" stroke-width="1" stroke="rgb(0,0,0)" />
	<line x1="387.433" y1="749.882" x2="376.635" y2="759.673" stroke-width="1" stroke="rgb(0,0,0)" />
	<line x1="376.635" y1="759.673" x2="354.154" y2="781.134" stroke-width="1" stroke="rgb(0,0,0)" />
	<line x1="354.154" y1="781.134" x2="347.953" y2="787.432" stroke-width="1" stroke="rgb(0,0,0)" />
	<line x1="347.953" y1="787.432" x2="331.045" y2="805.562" stroke-width="1" stroke="rgb(0,0,0)" />
	<line x1="331.045" y1="805.562" x2="315.75" y2="822.956" stroke-width="1" stroke="rgb(0,0,0)" />
	<line x1="315.75" y1="822.956" x2="301.116" y2="840.805" stroke-width="1" stroke="rgb(0,0,0)" />
	<line x1="301.116" y1="840.805" x2="259.357" y2="899.545" stroke-width="1" stroke="rgb(0,0,0)" />
	<line x1="259.357" y1="899.545" x2="223.859" y2="962.266" stroke-width="1" stroke="rgb(0,0,0)" />
	<line x1="223.859" y1="962.266" x2="195.062" y2="1028.33" stroke-width="1" stroke="rgb(0,0,0)" />
	<line x1="195.062" y1="1028.33" x2="186.183" y2="1053.3" stroke-width="1" stroke="rgb(0,0,0)" />
	<line x1="186.183" y1="1053.3" x2="196.937" y2="1056.89" stroke-width="1" stroke="rgb(0,0,0)" />
	<line x1="196.937" y1="1056.89" x2="192.865" y2="1069.16" stroke-width="1" stroke="rgb(0,0,0)" />
	<line x1="192.865" y1="1069.16" x2="185.1" y2="1096.19" stroke-width="1" stroke="rgb(0,0,0)" />
	<line x1="185.1" y1="1096.19" x2="174.28" y2="1093.27" stroke-width="1" stroke="rgb(0,0,0)" />
	<line x1="174.28" y1="1093.27" x2="171.384" y2="1103.95" stroke-width="1" stroke="rgb(0,0,0)" />
	<line x1="171.384" y1="1103.95" x2="182.273" y2="1106.7" stroke-width="1" stroke="rgb(0,0,0)" />
	<line x1="182.273" y1="1106.7" x2="179.208" y2="1119.31" stroke-width="1" stroke="rgb(0,0,0)" />
	<line x1="179.208" y1="1119.31" x2="173.499" y2="1145.65" stroke-width="1" stroke="rgb(0,0,0)" />
	<line x1="173.499" y1="1145.65" x2="168.813" y2="1173.78" stroke-width="1" stroke="rgb(0,0,0)" />
	<line x1="168.813" y1="1173.78" x2="167.436" y2="1183.55" stroke-width="1" stroke="rgb(0,0,0)" />
	<line x1="167.436" y1="1183.55" x2="156.37" y2="1181.98" stroke-width="1" stroke="rgb(0,0,0)" />
	<line x1="156.37" y1="1181.98" x2="155.708" y2="1186.08" stroke-width="1" stroke="rgb(0,0,0)" />
	<line x1="155.708" y1="1186.08" x2="154.973" y2="1193.56" stroke-width="1" stroke="rgb(0,0,0)" />
	<line x1="154.973" y1="1193.56" x2="166.093" y2="1194.87" stroke-width="1" stroke="rgb(0,0,0)" />
	<line x1="166.093" y1="1194.87" x2="163.929" y2="1216.23" stroke-width="1" stroke="rgb(0,0,0)" />
	<line x1="163.929" y1="1216.23" x2="152.768" y2="1215.27" stroke-width="1" stroke="rgb(0,0,0)" />
	<line x1="152.768" y1="1215.27" x2="151.915" y2="1224.89" stroke-width="1" stroke="rgb(0,0,0)" />
	<line x1="151.915" y1="1224.89" x2="163.117" y2="1225.7" stroke-width="1" stroke="rgb(0,0,0)" />
	<line x1="163.117" y1="1225.7" x2="162.305" y2="1238.15" stroke-width="1" stroke="rgb(0,0,0)" />
	<line x1="162.305" y1="1238.15" x2="161.309" y2="1262.99" stroke-width="1" stroke="rgb(0,0,0)" />
	<line x1="161.309" y1="1262.99" x2="161.428" y2="1289.29" stroke-width="1" stroke="rgb(0,0,0)" />
	<line x1="161.428" y1="1289.29" x2="161.706" y2="1298.7" stroke-width="1" stroke="rgb(0,0,0)" />
	<line x1="161.706" y1="1298.7" x2="150.592" y2="1299.08" stroke-width="1" stroke="rgb(0,0,0)" />
	<line x1="150.592" y1="1299.08" x2="150.667" y2="1305.52" stroke-width="1" stroke="rgb(0,0,0)" />
	<line x1="150.667" y1="1305.52" x2="151.073" y2="1310.85" stroke-width="1" stroke="rgb(0,0,0)" />
	<line x1="151.073" y1="1310.85" x2="162.28" y2="1310.28" stroke-width="1" stroke="rgb(0,0,0)" />
	<line x1="162.28" y1="1310.28" x2="162.858" y2="1321.75" stroke-width="1" stroke="rgb(0,0,0)" />
	<line x1="162.858" y1="1321.75" x2="163.689" y2="1331.18" stroke-width="1" stroke="rgb(0,0,0)" />
	<line x1="163.689" y1="1331.18" x2="152.517" y2="1332.09" stroke-width="1" stroke="rgb(0,0,0)" />
	<line x1="152.517" y1="1332.09" x2="152.966" y2="1339.51" stroke-width="1" stroke="rgb(0,0,0)" />
	<line x1="152.966" y1="1339.51" x2="153.311" y2="1342.18" stroke-width="1" stroke="rgb(0,0,0)" />
	<line x1="153.311" y1="1342.18" x2="164.491" y2="1341.1" stroke-width="1" stroke="rgb(0,0,0)" />
	<line x1="164.491" y1="1341.1" x2="165.851" y2="1354.05" stroke-width="1" stroke="rgb(0,0,0)" />
	<line x1="165.851" y1="1354.05" x2="169.358" y2="1380.93" stroke-width="1" stroke="rgb(0,0,0)" />
	<line x1="169.358" y1="1380.93" x2="174.45" y2="1409.17" stroke-width="1" stroke="rgb(0,0,0)" />
	<line x1="174.45" y1="1409.17" x2="176.449" y2="1418.86" stroke-width="1" stroke="rgb(0,0,0)" />
	<line x1="176.449" y1="1418.86" x2="165.502" y2="1421.11" stroke-width="1" stroke="rgb(0,0,0)" />
	<line x1="165.502" y1="1421.11" x2="167.666" y2="1431.22" stroke-width="1" stroke="rgb(0,0,0)" />
	<line x1="167.666" y1="1431.22" x2="173.081" y2="1453.5" stroke-width="1" stroke="rgb(0,0,0)" />
	<line x1="173.081" y1="1453.5" x2="194.998" y2="1522.16" stroke-width="1" stroke="rgb(0,0,0)" />
	<line x1="194.998" y1="1522.16" x2="205.877" y2="1549" stroke-width="1" stroke="rgb(0,0,0)" />
	<line x1="205.877" y1="1549" x2="216.183" y2="1544.62" stroke-width="1" stroke="rgb(0,0,0)" />
	<line x1="216.183" y1="1544.62" x2="222.464" y2="1559.21" stroke-width="1" stroke="rgb(0,0,0)" />
	<line x1="222.464" y1="1559.21" x2="212.309" y2="1563.93" stroke-width="1" stroke="rgb(0,0,0)" />
	<line x1="212.309" y1="1563.93" x2="222.513" y2="1559.31" stroke-width="1" stroke="rgb(0,0,0)" />
	<line x1="222.513" y1="1559.31" x2="229.219" y2="1573.45" stroke-width="1" stroke="rgb(0,0,0)" />
	<line x1="229.219" y1="1573.45" x2="219.125" y2="1578.3" stroke-width="1" stroke="rgb(0,0,0)" />
	<line x1="219.125" y1="1578.3" x2="230.759" y2="1601.61" stroke-width="1" stroke="rgb(0,0,0)" />
	<line x1="230.759" y1="1601.61" x2="246.773" y2="1630.32" stroke-width="1" stroke="rgb(0,0,0)" />
	<line x1="246.773" y1="1630.32" x2="257.616" y2="1648.17" stroke-width="1" stroke="rgb(0,0,0)" />
	<line x1="257.616" y1="1648.17" x2="264.886" y2="1659.47" stroke-width="1" stroke="rgb(0,0,0)" />
	<line x1="264.886" y1="1659.47" x2="270.273" y2="1667.52" stroke-width="1" stroke="rgb(0,0,0)" />
	<line x1="270.273" y1="1667.52" x2="283.693" y2="1686.26" stroke-width="1" stroke="rgb(0,0,0)" />
	<line x1="283.693" y1="1686.26" x2="297.308" y2="1704.8" stroke-width="1" stroke="rgb(0,0,0)" />
	<line x1="297.308" y1="1704.8" x2="304.289" y2="1713.64" stroke-width="1" stroke="rgb(0,0,0)" />
	<line x1="304.289" y1="1713.64" x2="319.561" y2="1731.92" stroke-width="1" stroke="rgb(0,0,0)" />
	<line x1="319.561" y1="1731.92" x2="329.914" y2="1743.68" stroke-width="1" stroke="rgb(0,0,0)" />
	<line x1="329.914" y1="1743.68" x2="348.694" y2="1763.79" stroke-width="1" stroke="rgb(0,0,0)" />
	<line x1="348.694" y1="1763.79" x2="359.024" y2="1774.17" stroke-width="1" stroke="rgb(0,0,0)" />
	<line x1="359.024" y1="1774.17" x2="370.339" y2="1784.96" stroke-width="1" stroke="rgb(0,0,0)" />
	<line x1="370.339" y1="1784.96" x2="383.904" y2="1797.46" stroke-width="1" stroke="rgb(0,0,0)" />
	<line x1="383.904" y1="1797.46" x2="398.014" y2="1809.75" stroke-width="1" stroke="rgb(0,0,0)" />
	<line x1="398.014" y1="1809.75" x2="410.465" y2="1819.5" stroke-width="1" stroke="rgb(0,0,0)" />
	<line x1="410.465" y1="1819.5" x2="420.985" y2="1828.22" stroke-width="1" stroke="rgb(0,0,0)" />
	<line x1="420.985" y1="1828.22" x2="431.58" y2="1836.34" stroke-width="1" stroke="rgb(0,0,0)" />
	<line x1="431.58" y1="1836.34" x2="445.679" y2="1846.59" stroke-width="1" stroke="rgb(0,0,0)" />
	<line x1="445.679" y1="1846.59" x2="465.309" y2="1860.05" stroke-width="1" stroke="rgb(0,0,0)" />
	<line x1="465.309" y1="1860.05" x2="471.464" y2="1850.69" stroke-width="1" stroke="rgb(0,0,0)" />
	<line x1="471.464" y1="1850.69" x2="484.105" y2="1858.81" stroke-width="1" stroke="rgb(0,0,0)" />
	<line x1="484.105" y1="1858.81" x2="492.854" y2="1864.07" stroke-width="1" stroke="rgb(0,0,0)" />
	<line x1="492.854" y1="1864.07" x2="487.047" y2="1873.65" stroke-width="1" stroke="rgb(0,0,0)" />
	<line x1="487.047" y1="1873.65" x2="510.469" y2="1887.27" stroke-width="1" stroke="rgb(0,0,0)" />
	<line x1="510.469" y1="1887.27" x2="515.901" y2="1877.48" stroke-width="1" stroke="rgb(0,0,0)" />
	<line x1="515.901" y1="1877.48" x2="536.91" y2="1888.76" stroke-width="1" stroke="rgb(0,0,0)" />
	<line x1="536.91" y1="1888.76" x2="531.819" y2="1898.74" stroke-width="1" stroke="rgb(0,0,0)" />
	<line x1="531.819" y1="1898.74" x2="562.245" y2="1913.32" stroke-width="1" stroke="rgb(0,0,0)" />
	<line x1="562.245" y1="1913.32" x2="578.269" y2="1920.33" stroke-width="1" stroke="rgb(0,0,0)" />
	<line x1="578.269" y1="1920.33" x2="594.462" y2="1926.92" stroke-width="1" stroke="rgb(0,0,0)" />
	<line x1="594.462" y1="1926.92" x2="598.55" y2="1916.5" stroke-width="1" stroke="rgb(0,0,0)" />
	<line x1="598.55" y1="1916.5" x2="610.798" y2="1921.16" stroke-width="1" stroke="rgb(0,0,0)" />
	<line x1="610.798" y1="1921.16" x2="606.908" y2="1931.67" stroke-width="1" stroke="rgb(0,0,0)" />
	<line x1="606.908" y1="1931.67" x2="630.958" y2="1940.03" stroke-width="1" stroke="rgb(0,0,0)" />
	<line x1="630.958" y1="1940.03" x2="654.361" y2="1947.34" stroke-width="1" stroke="rgb(0,0,0)" />
	<line x1="654.361" y1="1947.34" x2="677.141" y2="1953.53" stroke-width="1" stroke="rgb(0,0,0)" />
	<line x1="677.141" y1="1953.53" x2="716.365" y2="1962.35" stroke-width="1" stroke="rgb(0,0,0)" />
	<line x1="716.365" y1="1962.35" x2="729.912" y2="1964.85" stroke-width="1" stroke="rgb(0,0,0)" />
	<line x1="729.912" y1="1964.85" x2="747.103" y2="1967.38" stroke-width="1" stroke="rgb(0,0,0)" />
	<line x1="747.103" y1="1967.38" x2="795.977" y2="1973.14" stroke-width="1" stroke="rgb(0,0,0)" />
	<line x1="795.977" y1="1973.14" x2="868.024" y2="1975" stroke-width="1" stroke="rgb(0,0,0)" />
	<line x1="868.024" y1="1975" x2="901.939" y2="1972.37" stroke-width="1" stroke="rgb(0,0,0)" />
</svg>
