<?xml version="1.0" standalone="no" ?>
<!DOCTYPE svg PUBLIC "-//W3C//DTD SVG 1.1//EN" "http://www.w3.org/Graphics/SVG/1.1/DTD/svg11.dtd">
<svg width="2000px" height="2000px" xmlns="http://www.w3.org/2000/svg" version="1.1" >
	<line x1="909.306" y1="1971.8" x2="939.879" y2="1969.44" stroke-width="1" stroke="rgb(0,0,0)" />
	<line x1="939.879" y1="1969.44" x2="952.429" y2="1967.64" stroke-width="1" stroke="rgb(0,0,0)" />
	<line x1="952.429" y1="1967.64" x2="981.164" y2="1962.64" stroke-width="1" stroke="rgb(0,0,0)" />
	<line x1="981.164" y1="1962.64" x2="979.079" y2="1951.72" stroke-width="1" stroke="rgb(0,0,0)" />
	<line x1="979.079" y1="1951.72" x2="1000.11" y2="1947.39" stroke-width="1" stroke="rgb(0,0,0)" />
	<line x1="1000.11" y1="1947.39" x2="1035.17" y2="1938.52" stroke-width="1" stroke="rgb(0,0,0)" />
	<line x1="1035.17" y1="1938.52" x2="1038.19" y2="1949.33" stroke-width="1" stroke="rgb(0,0,0)" />
	<line x1="1038.19" y1="1949.33" x2="1041.72" y2="1948.46" stroke-width="1" stroke="rgb(0,0,0)" />
	<line x1="1041.72" y1="1948.46" x2="1048.8" y2="1946.2" stroke-width="1" stroke="rgb(0,0,0)" />
	<line x1="1048.8" y1="1946.2" x2="1045.67" y2="1935.62" stroke-width="1" stroke="rgb(0,0,0)" />
	<line x1="1045.67" y1="1935.62" x2="1076.03" y2="1925.89" stroke-width="1" stroke="rgb(0,0,0)" />
	<line x1="1076.03" y1="1925.89" x2="1095.45" y2="1918.61" stroke-width="1" stroke="rgb(0,0,0)" />
	<line x1="1095.45" y1="1918.61" x2="1119.19" y2="1909.03" stroke-width="1" stroke="rgb(0,0,0)" />
	<line x1="1119.19" y1="1909.03" x2="1123.64" y2="1919.5" stroke-width="1" stroke="rgb(0,0,0)" />
	<line x1="1123.64" y1="1919.5" x2="1133.95" y2="1914.83" stroke-width="1" stroke="rgb(0,0,0)" />
	<line x1="1133.95" y1="1914.83" x2="1129.41" y2="1904.59" stroke-width="1" stroke="rgb(0,0,0)" />
	<line x1="1129.41" y1="1904.59" x2="1149.25" y2="1895.53" stroke-width="1" stroke="rgb(0,0,0)" />
	<line x1="1149.25" y1="1895.53" x2="1154.12" y2="1905.63" stroke-width="1" stroke="rgb(0,0,0)" />
	<line x1="1154.12" y1="1905.63" x2="1156.25" y2="1904.68" stroke-width="1" stroke="rgb(0,0,0)" />
	<line x1="1156.25" y1="1904.68" x2="1162.73" y2="1901.26" stroke-width="1" stroke="rgb(0,0,0)" />
	<line x1="1162.73" y1="1901.26" x2="1157.81" y2="1891.4" stroke-width="1" stroke="rgb(0,0,0)" />
	<line x1="1157.81" y1="1891.4" x2="1183.74" y2="1877.78" stroke-width="1" stroke="rgb(0,0,0)" />
	<line x1="1183.74" y1="1877.78" x2="1200.26" y2="1868.14" stroke-width="1" stroke="rgb(0,0,0)" />
	<line x1="1200.26" y1="1868.14" x2="1221.22" y2="1855.2" stroke-width="1" stroke="rgb(0,0,0)" />
	<line x1="1221.22" y1="1855.2" x2="1227.35" y2="1864.78" stroke-width="1" stroke="rgb(0,0,0)" />
	<line x1="1227.35" y1="1864.78" x2="1237.12" y2="1858.19" stroke-width="1" stroke="rgb(0,0,0)" />
	<line x1="1237.12" y1="1858.19" x2="1230.93" y2="1848.86" stroke-width="1" stroke="rgb(0,0,0)" />
	<line x1="1230.93" y1="1848.86" x2="1237.26" y2="1844.76" stroke-width="1" stroke="rgb(0,0,0)" />
	<line x1="1237.26" y1="1844.76" x2="1248.24" y2="1837.06" stroke-width="1" stroke="rgb(0,0,0)" />
	<line x1="1248.24" y1="1837.06" x2="1254.74" y2="1846.23" stroke-width="1" stroke="rgb(0,0,0)" />
	<line x1="1254.74" y1="1846.23" x2="1262.89" y2="1840.24" stroke-width="1" stroke="rgb(0,0,0)" />
	<line x1="1262.89" y1="1840.24" x2="1256.4" y2="1831.32" stroke-width="1" stroke="rgb(0,0,0)" />
	<line x1="1256.4" y1="1831.32" x2="1281.86" y2="1811.84" stroke-width="1" stroke="rgb(0,0,0)" />
	<line x1="1281.86" y1="1811.84" x2="1297.79" y2="1798.36" stroke-width="1" stroke="rgb(0,0,0)" />
	<line x1="1297.79" y1="1798.36" x2="1316.98" y2="1781.29" stroke-width="1" stroke="rgb(0,0,0)" />
	<line x1="1316.98" y1="1781.29" x2="1324.69" y2="1789.65" stroke-width="1" stroke="rgb(0,0,0)" />
	<line x1="1324.69" y1="1789.65" x2="1375.79" y2="1737.34" stroke-width="1" stroke="rgb(0,0,0)" />
	<line x1="1375.79" y1="1737.34" x2="1388.9" y2="1721.76" stroke-width="1" stroke="rgb(0,0,0)" />
	<line x1="1388.9" y1="1721.76" x2="1405.33" y2="1701.14" stroke-width="1" stroke="rgb(0,0,0)" />
	<line x1="1405.33" y1="1701.14" x2="1396.44" y2="1694.32" stroke-width="1" stroke="rgb(0,0,0)" />
	<line x1="1396.44" y1="1694.32" x2="1406.07" y2="1681.69" stroke-width="1" stroke="rgb(0,0,0)" />
	<line x1="1406.07" y1="1681.69" x2="1415.11" y2="1688.3" stroke-width="1" stroke="rgb(0,0,0)" />
	<line x1="1415.11" y1="1688.3" x2="1422.48" y2="1678.02" stroke-width="1" stroke="rgb(0,0,0)" />
	<line x1="1422.48" y1="1678.02" x2="1413.32" y2="1671.57" stroke-width="1" stroke="rgb(0,0,0)" />
	<line x1="1413.32" y1="1671.57" x2="1421.96" y2="1658.78" stroke-width="1" stroke="rgb(0,0,0)" />
	<line x1="1421.96" y1="1658.78" x2="1431.26" y2="1665.02" stroke-width="1" stroke="rgb(0,0,0)" />
	<line x1="1431.26" y1="1665.02" x2="1442.96" y2="1647.25" stroke-width="1" stroke="rgb(0,0,0)" />
	<line x1="1442.96" y1="1647.25" x2="1433.48" y2="1641.29" stroke-width="1" stroke="rgb(0,0,0)" />
	<line x1="1433.48" y1="1641.29" x2="1444.41" y2="1623.26" stroke-width="1" stroke="rgb(0,0,0)" />
	<line x1="1444.41" y1="1623.26" x2="1454.91" y2="1604.67" stroke-width="1" stroke="rgb(0,0,0)" />
	<line x1="1454.91" y1="1604.67" x2="1464.71" y2="1586" stroke-width="1" stroke="rgb(0,0,0)" />
	<line x1="1464.71" y1="1586" x2="1474" y2="1566.9" stroke-width="1" stroke="rgb(0,0,0)" />
	<line x1="1474" y1="1566.9" x2="1484.14" y2="1571.65" stroke-width="1" stroke="rgb(0,0,0)" />
	<line x1="1484.14" y1="1571.65" x2="1492.01" y2="1554.19" stroke-width="1" stroke="rgb(0,0,0)" />
	<line x1="1492.01" y1="1554.19" x2="1481.74" y2="1549.73" stroke-width="1" stroke="rgb(0,0,0)" />
	<line x1="1481.74" y1="1549.73" x2="1488.09" y2="1534.62" stroke-width="1" stroke="rgb(0,0,0)" />
	<line x1="1488.09" y1="1534.62" x2="1498.46" y2="1538.85" stroke-width="1" stroke="rgb(0,0,0)" />
	<line x1="1498.46" y1="1538.85" x2="1502.28" y2="1529.25" stroke-width="1" stroke="rgb(0,0,0)" />
	<line x1="1502.28" y1="1529.25" x2="1491.85" y2="1525.17" stroke-width="1" stroke="rgb(0,0,0)" />
	<line x1="1491.85" y1="1525.17" x2="1497.75" y2="1509.47" stroke-width="1" stroke="rgb(0,0,0)" />
	<line x1="1497.75" y1="1509.47" x2="1508.25" y2="1513.36" stroke-width="1" stroke="rgb(0,0,0)" />
	<line x1="1508.25" y1="1513.36" x2="1511.58" y2="1503.96" stroke-width="1" stroke="rgb(0,0,0)" />
	<line x1="1511.58" y1="1503.96" x2="1500.99" y2="1500.3" stroke-width="1" stroke="rgb(0,0,0)" />
	<line x1="1500.99" y1="1500.3" x2="1506.9" y2="1482.42" stroke-width="1" stroke="rgb(0,0,0)" />
	<line x1="1506.9" y1="1482.42" x2="1517.57" y2="1485.83" stroke-width="1" stroke="rgb(0,0,0)" />
	<line x1="1517.57" y1="1485.83" x2="1518.79" y2="1481.91" stroke-width="1" stroke="rgb(0,0,0)" />
	<line x1="1518.79" y1="1481.91" x2="1523.64" y2="1465.51" stroke-width="1" stroke="rgb(0,0,0)" />
	<line x1="1523.64" y1="1465.51" x2="1512.87" y2="1462.46" stroke-width="1" stroke="rgb(0,0,0)" />
	<line x1="1512.87" y1="1462.46" x2="1516.74" y2="1448.15" stroke-width="1" stroke="rgb(0,0,0)" />
	<line x1="1516.74" y1="1448.15" x2="1527.58" y2="1450.96" stroke-width="1" stroke="rgb(0,0,0)" />
	<line x1="1527.58" y1="1450.96" x2="1530.87" y2="1437.76" stroke-width="1" stroke="rgb(0,0,0)" />
	<line x1="1530.87" y1="1437.76" x2="1519.97" y2="1435.18" stroke-width="1" stroke="rgb(0,0,0)" />
	<line x1="1519.97" y1="1435.18" x2="1523.47" y2="1419.73" stroke-width="1" stroke="rgb(0,0,0)" />
	<line x1="1523.47" y1="1419.73" x2="1534.44" y2="1421.98" stroke-width="1" stroke="rgb(0,0,0)" />
	<line x1="1534.44" y1="1421.98" x2="1538.06" y2="1403.98" stroke-width="1" stroke="rgb(0,0,0)" />
	<line x1="1538.06" y1="1403.98" x2="1527.06" y2="1401.88" stroke-width="1" stroke="rgb(0,0,0)" />
	<line x1="1527.06" y1="1401.88" x2="1528.15" y2="1395.82" stroke-width="1" stroke="rgb(0,0,0)" />
	<line x1="1528.15" y1="1395.82" x2="1539.18" y2="1397.78" stroke-width="1" stroke="rgb(0,0,0)" />
	<line x1="1539.18" y1="1397.78" x2="1541.56" y2="1383.6" stroke-width="1" stroke="rgb(0,0,0)" />
	<line x1="1541.56" y1="1383.6" x2="1530.5" y2="1381.87" stroke-width="1" stroke="rgb(0,0,0)" />
	<line x1="1530.5" y1="1381.87" x2="1531.47" y2="1375.47" stroke-width="1" stroke="rgb(0,0,0)" />
	<line x1="1531.47" y1="1375.47" x2="1542.59" y2="1376.78" stroke-width="1" stroke="rgb(0,0,0)" />
	<line x1="1542.59" y1="1376.78" x2="1544.97" y2="1359.01" stroke-width="1" stroke="rgb(0,0,0)" />
	<line x1="1544.97" y1="1359.01" x2="1533.85" y2="1357.68" stroke-width="1" stroke="rgb(0,0,0)" />
	<line x1="1533.85" y1="1357.68" x2="1535.3" y2="1344.58" stroke-width="1" stroke="rgb(0,0,0)" />
	<line x1="1535.3" y1="1344.58" x2="1546.44" y2="1345.71" stroke-width="1" stroke="rgb(0,0,0)" />
	<line x1="1546.44" y1="1345.71" x2="1548.81" y2="1315.97" stroke-width="1" stroke="rgb(0,0,0)" />
	<line x1="1548.81" y1="1315.97" x2="1537.63" y2="1315.32" stroke-width="1" stroke="rgb(0,0,0)" />
	<line x1="1537.63" y1="1315.32" x2="1538.36" y2="1299.86" stroke-width="1" stroke="rgb(0,0,0)" />
	<line x1="1538.36" y1="1299.86" x2="1549.55" y2="1300.26" stroke-width="1" stroke="rgb(0,0,0)" />
	<line x1="1549.55" y1="1300.26" x2="1549.68" y2="1294.79" stroke-width="1" stroke="rgb(0,0,0)" />
	<line x1="1549.68" y1="1294.79" x2="1538.47" y2="1294.48" stroke-width="1" stroke="rgb(0,0,0)" />
	<line x1="1538.47" y1="1294.48" x2="1538.74" y2="1279.07" stroke-width="1" stroke="rgb(0,0,0)" />
	<line x1="1538.74" y1="1279.07" x2="1549.94" y2="1279.13" stroke-width="1" stroke="rgb(0,0,0)" />
	<line x1="1549.94" y1="1279.13" x2="1549.97" y2="1273.08" stroke-width="1" stroke="rgb(0,0,0)" />
	<line x1="1549.97" y1="1273.08" x2="1538.77" y2="1273.08" stroke-width="1" stroke="rgb(0,0,0)" />
	<line x1="1538.77" y1="1273.08" x2="1538.58" y2="1258.92" stroke-width="1" stroke="rgb(0,0,0)" />
	<line x1="1538.58" y1="1258.92" x2="1549.77" y2="1258.65" stroke-width="1" stroke="rgb(0,0,0)" />
	<line x1="1549.77" y1="1258.65" x2="1549.7" y2="1254.75" stroke-width="1" stroke="rgb(0,0,0)" />
	<line x1="1549.7" y1="1254.75" x2="1538.51" y2="1255.08" stroke-width="1" stroke="rgb(0,0,0)" />
	<line x1="1538.51" y1="1255.08" x2="1537.88" y2="1239.61" stroke-width="1" stroke="rgb(0,0,0)" />
	<line x1="1537.88" y1="1239.61" x2="1549.06" y2="1239.03" stroke-width="1" stroke="rgb(0,0,0)" />
	<line x1="1549.06" y1="1239.03" x2="1547.99" y2="1222.31" stroke-width="1" stroke="rgb(0,0,0)" />
	<line x1="1547.99" y1="1222.31" x2="1536.83" y2="1223.16" stroke-width="1" stroke="rgb(0,0,0)" />
	<line x1="1536.83" y1="1223.16" x2="1536.31" y2="1216.7" stroke-width="1" stroke="rgb(0,0,0)" />
	<line x1="1536.31" y1="1216.7" x2="1547.43" y2="1215.43" stroke-width="1" stroke="rgb(0,0,0)" />
	<line x1="1547.43" y1="1215.43" x2="1547.19" y2="1212.54" stroke-width="1" stroke="rgb(0,0,0)" />
	<line x1="1547.19" y1="1212.54" x2="1545.68" y2="1197.59" stroke-width="1" stroke="rgb(0,0,0)" />
	<line x1="1545.68" y1="1197.59" x2="1534.55" y2="1198.85" stroke-width="1" stroke="rgb(0,0,0)" />
	<line x1="1534.55" y1="1198.85" x2="1532.96" y2="1185.76" stroke-width="1" stroke="rgb(0,0,0)" />
	<line x1="1532.96" y1="1185.76" x2="1544.07" y2="1184.3" stroke-width="1" stroke="rgb(0,0,0)" />
	<line x1="1544.07" y1="1184.3" x2="1542.15" y2="1170.69" stroke-width="1" stroke="rgb(0,0,0)" />
	<line x1="1542.15" y1="1170.69" x2="1531.08" y2="1172.36" stroke-width="1" stroke="rgb(0,0,0)" />
	<line x1="1531.08" y1="1172.36" x2="1528.99" y2="1159.42" stroke-width="1" stroke="rgb(0,0,0)" />
	<line x1="1528.99" y1="1159.42" x2="1540.04" y2="1157.54" stroke-width="1" stroke="rgb(0,0,0)" />
	<line x1="1540.04" y1="1157.54" x2="1537.38" y2="1143.35" stroke-width="1" stroke="rgb(0,0,0)" />
	<line x1="1537.38" y1="1143.35" x2="1526.38" y2="1145.46" stroke-width="1" stroke="rgb(0,0,0)" />
	<line x1="1526.38" y1="1145.46" x2="1523.19" y2="1129.82" stroke-width="1" stroke="rgb(0,0,0)" />
	<line x1="1523.19" y1="1129.82" x2="1534.14" y2="1127.45" stroke-width="1" stroke="rgb(0,0,0)" />
	<line x1="1534.14" y1="1127.45" x2="1530.8" y2="1112.43" stroke-width="1" stroke="rgb(0,0,0)" />
	<line x1="1530.8" y1="1112.43" x2="1519.9" y2="1114.99" stroke-width="1" stroke="rgb(0,0,0)" />
	<line x1="1519.9" y1="1114.99" x2="1516.45" y2="1101.19" stroke-width="1" stroke="rgb(0,0,0)" />
	<line x1="1516.45" y1="1101.19" x2="1527.28" y2="1098.34" stroke-width="1" stroke="rgb(0,0,0)" />
	<line x1="1527.28" y1="1098.34" x2="1524.15" y2="1086.78" stroke-width="1" stroke="rgb(0,0,0)" />
	<line x1="1524.15" y1="1086.78" x2="1522.83" y2="1082.09" stroke-width="1" stroke="rgb(0,0,0)" />
	<line x1="1522.83" y1="1082.09" x2="1512.06" y2="1085.18" stroke-width="1" stroke="rgb(0,0,0)" />
	<line x1="1512.06" y1="1085.18" x2="1508" y2="1071.58" stroke-width="1" stroke="rgb(0,0,0)" />
	<line x1="1508" y1="1071.58" x2="1518.7" y2="1068.25" stroke-width="1" stroke="rgb(0,0,0)" />
	<line x1="1518.7" y1="1068.25" x2="1518.45" y2="1067.46" stroke-width="1" stroke="rgb(0,0,0)" />
	<line x1="1518.45" y1="1067.46" x2="1516.1" y2="1060.03" stroke-width="1" stroke="rgb(0,0,0)" />
	<line x1="1516.1" y1="1060.03" x2="1505.43" y2="1063.45" stroke-width="1" stroke="rgb(0,0,0)" />
	<line x1="1505.43" y1="1063.45" x2="1502.42" y2="1054.34" stroke-width="1" stroke="rgb(0,0,0)" />
	<line x1="1502.42" y1="1054.34" x2="1513.03" y2="1050.75" stroke-width="1" stroke="rgb(0,0,0)" />
	<line x1="1513.03" y1="1050.75" x2="1510.8" y2="1044.26" stroke-width="1" stroke="rgb(0,0,0)" />
	<line x1="1510.8" y1="1044.26" x2="1503.41" y2="1024.13" stroke-width="1" stroke="rgb(0,0,0)" />
	<line x1="1503.41" y1="1024.13" x2="1491.42" y2="994.914" stroke-width="1" stroke="rgb(0,0,0)" />
	<line x1="1491.42" y1="994.914" x2="1459.2" y2="930.448" stroke-width="1" stroke="rgb(0,0,0)" />
	<line x1="1459.2" y1="930.448" x2="1420.52" y2="869.637" stroke-width="1" stroke="rgb(0,0,0)" />
	<line x1="1420.52" y1="869.637" x2="1403.03" y2="846.555" stroke-width="1" stroke="rgb(0,0,0)" />
	<line x1="1403.03" y1="846.555" x2="1379.73" y2="817.938" stroke-width="1" stroke="rgb(0,0,0)" />
	<line x1="1379.73" y1="817.938" x2="1371.32" y2="825.2" stroke-width="1" stroke="rgb(0,0,0)" />
	<line x1="1371.32" y1="825.2" x2="1357.06" y2="809.153" stroke-width="1" stroke="rgb(0,0,0)" />
	<line x1="1357.06" y1="809.153" x2="1331.84" y2="783.229" stroke-width="1" stroke="rgb(0,0,0)" />
	<line x1="1331.84" y1="783.229" x2="1339.69" y2="775.209" stroke-width="1" stroke="rgb(0,0,0)" />
	<line x1="1339.69" y1="775.209" x2="1337.17" y2="772.589" stroke-width="1" stroke="rgb(0,0,0)" />
	<line x1="1337.17" y1="772.589" x2="1331.67" y2="767.583" stroke-width="1" stroke="rgb(0,0,0)" />
	<line x1="1331.67" y1="767.583" x2="1324.06" y2="775.569" stroke-width="1" stroke="rgb(0,0,0)" />
	<line x1="1324.06" y1="775.569" x2="1300.47" y2="754.157" stroke-width="1" stroke="rgb(0,0,0)" />
	<line x1="1300.47" y1="754.157" x2="1284.46" y2="740.979" stroke-width="1" stroke="rgb(0,0,0)" />
	<line x1="1284.46" y1="740.979" x2="1264.29" y2="725.204" stroke-width="1" stroke="rgb(0,0,0)" />
	<line x1="1264.29" y1="725.204" x2="1271.13" y2="716.117" stroke-width="1" stroke="rgb(0,0,0)" />
	<line x1="1271.13" y1="716.117" x2="1261.93" y2="709.523" stroke-width="1" stroke="rgb(0,0,0)" />
	<line x1="1261.93" y1="709.523" x2="1255.34" y2="718.575" stroke-width="1" stroke="rgb(0,0,0)" />
	<line x1="1255.34" y1="718.575" x2="1237.57" y2="705.926" stroke-width="1" stroke="rgb(0,0,0)" />
	<line x1="1237.57" y1="705.926" x2="1243.88" y2="696.662" stroke-width="1" stroke="rgb(0,0,0)" />
	<line x1="1243.88" y1="696.662" x2="1235.79" y2="691.381" stroke-width="1" stroke="rgb(0,0,0)" />
	<line x1="1235.79" y1="691.381" x2="1229.71" y2="700.583" stroke-width="1" stroke="rgb(0,0,0)" />
	<line x1="1229.71" y1="700.583" x2="1204.95" y2="684.931" stroke-width="1" stroke="rgb(0,0,0)" />
	<line x1="1204.95" y1="684.931" x2="1188.34" y2="675.443" stroke-width="1" stroke="rgb(0,0,0)" />
	<line x1="1188.34" y1="675.443" x2="1166.66" y2="663.763" stroke-width="1" stroke="rgb(0,0,0)" />
	<line x1="1166.66" y1="663.763" x2="1171.89" y2="653.661" stroke-width="1" stroke="rgb(0,0,0)" />
	<line x1="1171.89" y1="653.661" x2="1161.29" y2="648.498" stroke-width="1" stroke="rgb(0,0,0)" />
	<line x1="1161.29" y1="648.498" x2="1156.31" y2="658.527" stroke-width="1" stroke="rgb(0,0,0)" />
	<line x1="1156.31" y1="658.527" x2="1149.6" y2="655.091" stroke-width="1" stroke="rgb(0,0,0)" />
	<line x1="1149.6" y1="655.091" x2="1137.44" y2="649.429" stroke-width="1" stroke="rgb(0,0,0)" />
	<line x1="1137.44" y1="649.429" x2="1142.13" y2="639.221" stroke-width="1" stroke="rgb(0,0,0)" />
	<line x1="1142.13" y1="639.221" x2="1139.6" y2="637.956" stroke-width="1" stroke="rgb(0,0,0)" />
	<line x1="1139.6" y1="637.956" x2="1132.87" y2="635.152" stroke-width="1" stroke="rgb(0,0,0)" />
	<line x1="1132.87" y1="635.152" x2="1128.41" y2="645.242" stroke-width="1" stroke="rgb(0,0,0)" />
	<line x1="1128.41" y1="645.242" x2="1098.78" y2="632.929" stroke-width="1" stroke="rgb(0,0,0)" />
	<line x1="1098.78" y1="632.929" x2="1079.15" y2="625.87" stroke-width="1" stroke="rgb(0,0,0)" />
	<line x1="1079.15" y1="625.87" x2="1054.77" y2="617.786" stroke-width="1" stroke="rgb(0,0,0)" />
	<line x1="1054.77" y1="617.786" x2="1058.15" y2="606.925" stroke-width="1" stroke="rgb(0,0,0)" />
	<line x1="1058.15" y1="606.925" x2="1010.78" y2="593.947" stroke-width="1" stroke="rgb(0,0,0)" />
	<line x1="1010.78" y1="593.947" x2="974.824" y2="586.915" stroke-width="1" stroke="rgb(0,0,0)" />
	<line x1="974.824" y1="586.915" x2="941.18" y2="581.353" stroke-width="1" stroke="rgb(0,0,0)" />
	<line x1="941.18" y1="581.353" x2="939.721" y2="592.455" stroke-width="1" stroke="rgb(0,0,0)" />
	<line x1="939.721" y1="592.455" x2="923.966" y2="590.435" stroke-width="1" stroke="rgb(0,0,0)" />
	<line x1="923.966" y1="590.435" x2="925.169" y2="579.3" stroke-width="1" stroke="rgb(0,0,0)" />
	<line x1="925.169" y1="579.3" x2="912.582" y2="578.056" stroke-width="1" stroke="rgb(0,0,0)" />
	<line x1="912.582" y1="578.056" x2="911.581" y2="589.21" stroke-width="1" stroke="rgb(0,0,0)" />
	<line x1="911.581" y1="589.21" x2="896.187" y2="588.125" stroke-width="1" stroke="rgb(0,0,0)" />
	<line x1="896.187" y1="588.125" x2="896.938" y2="576.953" stroke-width="1" stroke="rgb(0,0,0)" />
	<line x1="896.938" y1="576.953" x2="875.692" y2="575.704" stroke-width="1" stroke="rgb(0,0,0)" />
	<line x1="875.692" y1="575.704" x2="875.281" y2="586.896" stroke-width="1" stroke="rgb(0,0,0)" />
	<line x1="875.281" y1="586.896" x2="853.215" y2="586.44" stroke-width="1" stroke="rgb(0,0,0)" />
	<line x1="853.215" y1="586.44" x2="832.85" y2="586.646" stroke-width="1" stroke="rgb(0,0,0)" />
	<line x1="832.85" y1="586.646" x2="811.78" y2="587.494" stroke-width="1" stroke="rgb(0,0,0)" />
	<line x1="811.78" y1="587.494" x2="790.593" y2="588.999" stroke-width="1" stroke="rgb(0,0,0)" />
	<line x1="790.593" y1="588.999" x2="789.64" y2="577.839" stroke-width="1" stroke="rgb(0,0,0)" />
	<line x1="789.64" y1="577.839" x2="770.583" y2="579.753" stroke-width="1" stroke="rgb(0,0,0)" />
	<line x1="770.583" y1="579.753" x2="771.853" y2="590.881" stroke-width="1" stroke="rgb(0,0,0)" />
	<line x1="771.853" y1="590.881" x2="755.593" y2="592.93" stroke-width="1" stroke="rgb(0,0,0)" />
	<line x1="755.593" y1="592.93" x2="754.072" y2="581.837" stroke-width="1" stroke="rgb(0,0,0)" />
	<line x1="754.072" y1="581.837" x2="743.845" y2="583.33" stroke-width="1" stroke="rgb(0,0,0)" />
	<line x1="743.845" y1="583.33" x2="745.523" y2="594.403" stroke-width="1" stroke="rgb(0,0,0)" />
	<line x1="745.523" y1="594.403" x2="728.984" y2="597.146" stroke-width="1" stroke="rgb(0,0,0)" />
	<line x1="728.984" y1="597.146" x2="727.099" y2="586.106" stroke-width="1" stroke="rgb(0,0,0)" />
	<line x1="727.099" y1="586.106" x2="717.298" y2="587.926" stroke-width="1" stroke="rgb(0,0,0)" />
	<line x1="717.298" y1="587.926" x2="719.421" y2="598.923" stroke-width="1" stroke="rgb(0,0,0)" />
	<line x1="719.421" y1="598.923" x2="700.98" y2="602.747" stroke-width="1" stroke="rgb(0,0,0)" />
	<line x1="700.98" y1="602.747" x2="698.594" y2="591.803" stroke-width="1" stroke="rgb(0,0,0)" />
	<line x1="698.594" y1="591.803" x2="677.961" y2="596.703" stroke-width="1" stroke="rgb(0,0,0)" />
	<line x1="677.961" y1="596.703" x2="680.713" y2="607.559" stroke-width="1" stroke="rgb(0,0,0)" />
	<line x1="680.713" y1="607.559" x2="666.378" y2="611.358" stroke-width="1" stroke="rgb(0,0,0)" />
	<line x1="666.378" y1="611.358" x2="663.392" y2="600.564" stroke-width="1" stroke="rgb(0,0,0)" />
	<line x1="663.392" y1="600.564" x2="651.318" y2="604.02" stroke-width="1" stroke="rgb(0,0,0)" />
	<line x1="651.318" y1="604.02" x2="650.32" y2="604.318" stroke-width="1" stroke="rgb(0,0,0)" />
	<line x1="650.32" y1="604.318" x2="653.53" y2="615.047" stroke-width="1" stroke="rgb(0,0,0)" />
	<line x1="653.53" y1="615.047" x2="638.401" y2="619.738" stroke-width="1" stroke="rgb(0,0,0)" />
	<line x1="638.401" y1="619.738" x2="634.868" y2="609.111" stroke-width="1" stroke="rgb(0,0,0)" />
	<line x1="634.868" y1="609.111" x2="617.466" y2="614.984" stroke-width="1" stroke="rgb(0,0,0)" />
	<line x1="617.466" y1="614.984" x2="621.153" y2="625.559" stroke-width="1" stroke="rgb(0,0,0)" />
	<line x1="621.153" y1="625.559" x2="615.356" y2="627.647" stroke-width="1" stroke="rgb(0,0,0)" />
	<line x1="615.356" y1="627.647" x2="611.539" y2="617.111" stroke-width="1" stroke="rgb(0,0,0)" />
	<line x1="611.539" y1="617.111" x2="598.072" y2="622.14" stroke-width="1" stroke="rgb(0,0,0)" />
	<line x1="598.072" y1="622.14" x2="602.102" y2="632.586" stroke-width="1" stroke="rgb(0,0,0)" />
	<line x1="602.102" y1="632.586" x2="596.074" y2="634.947" stroke-width="1" stroke="rgb(0,0,0)" />
	<line x1="596.074" y1="634.947" x2="591.645" y2="624.661" stroke-width="1" stroke="rgb(0,0,0)" />
	<line x1="591.645" y1="624.661" x2="575.068" y2="631.484" stroke-width="1" stroke="rgb(0,0,0)" />
	<line x1="575.068" y1="631.484" x2="579.482" y2="641.775" stroke-width="1" stroke="rgb(0,0,0)" />
	<line x1="579.482" y1="641.775" x2="567.405" y2="647.072" stroke-width="1" stroke="rgb(0,0,0)" />
	<line x1="567.405" y1="647.072" x2="562.812" y2="636.857" stroke-width="1" stroke="rgb(0,0,0)" />
	<line x1="562.812" y1="636.857" x2="535.877" y2="649.671" stroke-width="1" stroke="rgb(0,0,0)" />
	<line x1="535.877" y1="649.671" x2="540.903" y2="659.68" stroke-width="1" stroke="rgb(0,0,0)" />
	<line x1="540.903" y1="659.68" x2="527.146" y2="666.783" stroke-width="1" stroke="rgb(0,0,0)" />
	<line x1="527.146" y1="666.783" x2="521.897" y2="656.889" stroke-width="1" stroke="rgb(0,0,0)" />
	<line x1="521.897" y1="656.889" x2="517.099" y2="659.517" stroke-width="1" stroke="rgb(0,0,0)" />
	<line x1="517.099" y1="659.517" x2="522.432" y2="669.38" stroke-width="1" stroke="rgb(0,0,0)" />
	<line x1="522.432" y1="669.38" x2="508.954" y2="676.849" stroke-width="1" stroke="rgb(0,0,0)" />
	<line x1="508.954" y1="676.849" x2="503.408" y2="667.119" stroke-width="1" stroke="rgb(0,0,0)" />
	<line x1="503.408" y1="667.119" x2="498.155" y2="670.129" stroke-width="1" stroke="rgb(0,0,0)" />
	<line x1="498.155" y1="670.129" x2="503.745" y2="679.834" stroke-width="1" stroke="rgb(0,0,0)" />
	<line x1="503.745" y1="679.834" x2="491.583" y2="687.066" stroke-width="1" stroke="rgb(0,0,0)" />
	<line x1="491.583" y1="687.066" x2="485.755" y2="677.502" stroke-width="1" stroke="rgb(0,0,0)" />
	<line x1="485.755" y1="677.502" x2="482.414" y2="679.513" stroke-width="1" stroke="rgb(0,0,0)" />
	<line x1="482.414" y1="679.513" x2="488.295" y2="689.045" stroke-width="1" stroke="rgb(0,0,0)" />
	<line x1="488.295" y1="689.045" x2="475.212" y2="697.323" stroke-width="1" stroke="rgb(0,0,0)" />
	<line x1="475.212" y1="697.323" x2="469.117" y2="687.926" stroke-width="1" stroke="rgb(0,0,0)" />
	<line x1="469.117" y1="687.926" x2="455.171" y2="697.213" stroke-width="1" stroke="rgb(0,0,0)" />
	<line x1="455.171" y1="697.213" x2="461.485" y2="706.457" stroke-width="1" stroke="rgb(0,0,0)" />
	<line x1="461.485" y1="706.457" x2="456.159" y2="710.137" stroke-width="1" stroke="rgb(0,0,0)" />
	<line x1="456.159" y1="710.137" x2="449.491" y2="701.14" stroke-width="1" stroke="rgb(0,0,0)" />
	<line x1="449.491" y1="701.14" x2="434.919" y2="711.577" stroke-width="1" stroke="rgb(0,0,0)" />
	<line x1="434.919" y1="711.577" x2="441.572" y2="720.584" stroke-width="1" stroke="rgb(0,0,0)" />
	<line x1="441.572" y1="720.584" x2="431.03" y2="728.506" stroke-width="1" stroke="rgb(0,0,0)" />
	<line x1="431.03" y1="728.506" x2="424.219" y2="719.615" stroke-width="1" stroke="rgb(0,0,0)" />
	<line x1="424.219" y1="719.615" x2="413.389" y2="728.084" stroke-width="1" stroke="rgb(0,0,0)" />
	<line x1="413.389" y1="728.084" x2="420.375" y2="736.839" stroke-width="1" stroke="rgb(0,0,0)" />
	<line x1="420.375" y1="736.839" x2="410.208" y2="745.111" stroke-width="1" stroke="rgb(0,0,0)" />
	<line x1="410.208" y1="745.111" x2="403.057" y2="736.491" stroke-width="1" stroke="rgb(0,0,0)" />
	<line x1="403.057" y1="736.491" x2="392.097" y2="745.888" stroke-width="1" stroke="rgb(0,0,0)" />
	<line x1="392.097" y1="745.888" x2="399.423" y2="754.357" stroke-width="1" stroke="rgb(0,0,0)" />
	<line x1="399.423" y1="754.357" x2="387.47" y2="764.938" stroke-width="1" stroke="rgb(0,0,0)" />
	<line x1="387.47" y1="764.938" x2="379.949" y2="756.64" stroke-width="1" stroke="rgb(0,0,0)" />
	<line x1="379.949" y1="756.64" x2="368.604" y2="767.042" stroke-width="1" stroke="rgb(0,0,0)" />
	<line x1="368.604" y1="767.042" x2="376.275" y2="775.204" stroke-width="1" stroke="rgb(0,0,0)" />
	<line x1="376.275" y1="775.204" x2="366.053" y2="785.087" stroke-width="1" stroke="rgb(0,0,0)" />
	<line x1="366.053" y1="785.087" x2="358.169" y2="777.134" stroke-width="1" stroke="rgb(0,0,0)" />
	<line x1="358.169" y1="777.134" x2="346.319" y2="789.121" stroke-width="1" stroke="rgb(0,0,0)" />
	<line x1="346.319" y1="789.121" x2="354.374" y2="796.896" stroke-width="1" stroke="rgb(0,0,0)" />
	<line x1="354.374" y1="796.896" x2="344.627" y2="807.212" stroke-width="1" stroke="rgb(0,0,0)" />
	<line x1="344.627" y1="807.212" x2="336.397" y2="799.616" stroke-width="1" stroke="rgb(0,0,0)" />
	<line x1="336.397" y1="799.616" x2="330.579" y2="805.976" stroke-width="1" stroke="rgb(0,0,0)" />
	<line x1="330.579" y1="805.976" x2="338.874" y2="813.501" stroke-width="1" stroke="rgb(0,0,0)" />
	<line x1="338.874" y1="813.501" x2="332.493" y2="820.664" stroke-width="1" stroke="rgb(0,0,0)" />
	<line x1="332.493" y1="820.664" x2="324.08" y2="813.271" stroke-width="1" stroke="rgb(0,0,0)" />
	<line x1="324.08" y1="813.271" x2="310.908" y2="828.713" stroke-width="1" stroke="rgb(0,0,0)" />
	<line x1="310.908" y1="828.713" x2="301.116" y2="840.805" stroke-width="1" stroke="rgb(0,0,0)" />
	<line x1="301.116" y1="840.805" x2="259.357" y2="899.545" stroke-width="1" stroke="rgb(0,0,0)" />
	<line x1="259.357" y1="899.545" x2="223.859" y2="962.266" stroke-width="1" stroke="rgb(0,0,0)" />
	<line x1="223.859" y1="962.266" x2="195.075" y2="1028.33" stroke-width="1" stroke="rgb(0,0,0)" />
	<line x1="195.075" y1="1028.33" x2="189.107" y2="1045.12" stroke-width="1" stroke="rgb(0,0,0)" />
	<line x1="189.107" y1="1045.12" x2="199.601" y2="1048.77" stroke-width="1" stroke="rgb(0,0,0)" />
	<line x1="199.601" y1="1048.77" x2="192.836" y2="1069.15" stroke-width="1" stroke="rgb(0,0,0)" />
	<line x1="192.836" y1="1069.15" x2="182.995" y2="1103.95" stroke-width="1" stroke="rgb(0,0,0)" />
	<line x1="182.995" y1="1103.95" x2="172.122" y2="1101.16" stroke-width="1" stroke="rgb(0,0,0)" />
	<line x1="172.122" y1="1101.16" x2="171.113" y2="1104.65" stroke-width="1" stroke="rgb(0,0,0)" />
	<line x1="171.113" y1="1104.65" x2="169.526" y2="1111.91" stroke-width="1" stroke="rgb(0,0,0)" />
	<line x1="169.526" y1="1111.91" x2="180.253" y2="1114.49" stroke-width="1" stroke="rgb(0,0,0)" />
	<line x1="180.253" y1="1114.49" x2="173.499" y2="1145.65" stroke-width="1" stroke="rgb(0,0,0)" />
	<line x1="173.499" y1="1145.65" x2="170.092" y2="1166.1" stroke-width="1" stroke="rgb(0,0,0)" />
	<line x1="170.092" y1="1166.1" x2="166.517" y2="1191.46" stroke-width="1" stroke="rgb(0,0,0)" />
	<line x1="166.517" y1="1191.46" x2="155.226" y2="1190.08" stroke-width="1" stroke="rgb(0,0,0)" />
	<line x1="155.226" y1="1190.08" x2="154.117" y2="1201.34" stroke-width="1" stroke="rgb(0,0,0)" />
	<line x1="154.117" y1="1201.34" x2="165.251" y2="1202.53" stroke-width="1" stroke="rgb(0,0,0)" />
	<line x1="165.251" y1="1202.53" x2="163.18" y2="1224.24" stroke-width="1" stroke="rgb(0,0,0)" />
	<line x1="163.18" y1="1224.24" x2="152.005" y2="1223.41" stroke-width="1" stroke="rgb(0,0,0)" />
	<line x1="152.005" y1="1223.41" x2="151.474" y2="1233.05" stroke-width="1" stroke="rgb(0,0,0)" />
	<line x1="151.474" y1="1233.05" x2="162.483" y2="1233.72" stroke-width="1" stroke="rgb(0,0,0)" />
	<line x1="162.483" y1="1233.72" x2="161.309" y2="1262.99" stroke-width="1" stroke="rgb(0,0,0)" />
	<line x1="161.309" y1="1262.99" x2="161.396" y2="1282.11" stroke-width="1" stroke="rgb(0,0,0)" />
	<line x1="161.396" y1="1282.11" x2="162.124" y2="1306.73" stroke-width="1" stroke="rgb(0,0,0)" />
	<line x1="162.124" y1="1306.73" x2="150.795" y2="1307.25" stroke-width="1" stroke="rgb(0,0,0)" />
	<line x1="150.795" y1="1307.25" x2="150.814" y2="1308.86" stroke-width="1" stroke="rgb(0,0,0)" />
	<line x1="150.814" y1="1308.86" x2="151.586" y2="1319.01" stroke-width="1" stroke="rgb(0,0,0)" />
	<line x1="151.586" y1="1319.01" x2="162.762" y2="1318.31" stroke-width="1" stroke="rgb(0,0,0)" />
	<line x1="162.762" y1="1318.31" x2="163.142" y2="1325.84" stroke-width="1" stroke="rgb(0,0,0)" />
	<line x1="163.142" y1="1325.84" x2="164.318" y2="1339.2" stroke-width="1" stroke="rgb(0,0,0)" />
	<line x1="164.318" y1="1339.2" x2="153.133" y2="1340.25" stroke-width="1" stroke="rgb(0,0,0)" />
	<line x1="153.133" y1="1340.25" x2="153.304" y2="1343.07" stroke-width="1" stroke="rgb(0,0,0)" />
	<line x1="153.304" y1="1343.07" x2="154.24" y2="1350.3" stroke-width="1" stroke="rgb(0,0,0)" />
	<line x1="154.24" y1="1350.3" x2="165.208" y2="1349.12" stroke-width="1" stroke="rgb(0,0,0)" />
	<line x1="165.208" y1="1349.12" x2="169.358" y2="1380.93" stroke-width="1" stroke="rgb(0,0,0)" />
	<line x1="169.358" y1="1380.93" x2="173.061" y2="1401.46" stroke-width="1" stroke="rgb(0,0,0)" />
	<line x1="173.061" y1="1401.46" x2="178.25" y2="1426.62" stroke-width="1" stroke="rgb(0,0,0)" />
	<line x1="178.25" y1="1426.62" x2="167.153" y2="1429.12" stroke-width="1" stroke="rgb(0,0,0)" />
	<line x1="167.153" y1="1429.12" x2="173.081" y2="1453.5" stroke-width="1" stroke="rgb(0,0,0)" />
	<line x1="173.081" y1="1453.5" x2="194.998" y2="1522.16" stroke-width="1" stroke="rgb(0,0,0)" />
	<line x1="194.998" y1="1522.16" x2="203.493" y2="1543.21" stroke-width="1" stroke="rgb(0,0,0)" />
	<line x1="203.493" y1="1543.21" x2="213.837" y2="1538.92" stroke-width="1" stroke="rgb(0,0,0)" />
	<line x1="213.837" y1="1538.92" x2="219.965" y2="1553.57" stroke-width="1" stroke="rgb(0,0,0)" />
	<line x1="219.965" y1="1553.57" x2="209.721" y2="1558.1" stroke-width="1" stroke="rgb(0,0,0)" />
	<line x1="209.721" y1="1558.1" x2="214.936" y2="1569.62" stroke-width="1" stroke="rgb(0,0,0)" />
	<line x1="214.936" y1="1569.62" x2="225.097" y2="1564.91" stroke-width="1" stroke="rgb(0,0,0)" />
	<line x1="225.097" y1="1564.91" x2="231.854" y2="1578.79" stroke-width="1" stroke="rgb(0,0,0)" />
	<line x1="231.854" y1="1578.79" x2="221.803" y2="1583.72" stroke-width="1" stroke="rgb(0,0,0)" />
	<line x1="221.803" y1="1583.72" x2="231.345" y2="1602.75" stroke-width="1" stroke="rgb(0,0,0)" />
	<line x1="231.345" y1="1602.75" x2="241.243" y2="1597.51" stroke-width="1" stroke="rgb(0,0,0)" />
	<line x1="241.243" y1="1597.51" x2="251.397" y2="1615.99" stroke-width="1" stroke="rgb(0,0,0)" />
	<line x1="251.397" y1="1615.99" x2="262.242" y2="1634.38" stroke-width="1" stroke="rgb(0,0,0)" />
	<line x1="262.242" y1="1634.38" x2="273.511" y2="1652.2" stroke-width="1" stroke="rgb(0,0,0)" />
	<line x1="273.511" y1="1652.2" x2="285.408" y2="1669.8" stroke-width="1" stroke="rgb(0,0,0)" />
	<line x1="285.408" y1="1669.8" x2="276.22" y2="1676.2" stroke-width="1" stroke="rgb(0,0,0)" />
	<line x1="276.22" y1="1676.2" x2="287.406" y2="1691.75" stroke-width="1" stroke="rgb(0,0,0)" />
	<line x1="287.406" y1="1691.75" x2="296.408" y2="1685.08" stroke-width="1" stroke="rgb(0,0,0)" />
	<line x1="296.408" y1="1685.08" x2="306.312" y2="1698.14" stroke-width="1" stroke="rgb(0,0,0)" />
	<line x1="306.312" y1="1698.14" x2="297.466" y2="1705.01" stroke-width="1" stroke="rgb(0,0,0)" />
	<line x1="297.466" y1="1705.01" x2="303.873" y2="1713.12" stroke-width="1" stroke="rgb(0,0,0)" />
	<line x1="303.873" y1="1713.12" x2="312.623" y2="1706.13" stroke-width="1" stroke="rgb(0,0,0)" />
	<line x1="312.623" y1="1706.13" x2="323.268" y2="1719.08" stroke-width="1" stroke="rgb(0,0,0)" />
	<line x1="323.268" y1="1719.08" x2="314.65" y2="1726.23" stroke-width="1" stroke="rgb(0,0,0)" />
	<line x1="314.65" y1="1726.23" x2="321.126" y2="1733.81" stroke-width="1" stroke="rgb(0,0,0)" />
	<line x1="321.126" y1="1733.81" x2="329.588" y2="1726.47" stroke-width="1" stroke="rgb(0,0,0)" />
	<line x1="329.588" y1="1726.47" x2="342.121" y2="1740.53" stroke-width="1" stroke="rgb(0,0,0)" />
	<line x1="342.121" y1="1740.53" x2="333.836" y2="1748.07" stroke-width="1" stroke="rgb(0,0,0)" />
	<line x1="333.836" y1="1748.07" x2="348.396" y2="1763.49" stroke-width="1" stroke="rgb(0,0,0)" />
	<line x1="348.396" y1="1763.49" x2="356.421" y2="1755.68" stroke-width="1" stroke="rgb(0,0,0)" />
	<line x1="356.421" y1="1755.68" x2="366.879" y2="1766.19" stroke-width="1" stroke="rgb(0,0,0)" />
	<line x1="366.879" y1="1766.19" x2="359.024" y2="1774.17" stroke-width="1" stroke="rgb(0,0,0)" />
	<line x1="359.024" y1="1774.17" x2="368.811" y2="1783.62" stroke-width="1" stroke="rgb(0,0,0)" />
	<line x1="368.811" y1="1783.62" x2="376.499" y2="1775.47" stroke-width="1" stroke="rgb(0,0,0)" />
	<line x1="376.499" y1="1775.47" x2="388.125" y2="1786.23" stroke-width="1" stroke="rgb(0,0,0)" />
	<line x1="388.125" y1="1786.23" x2="380.688" y2="1794.6" stroke-width="1" stroke="rgb(0,0,0)" />
	<line x1="380.688" y1="1794.6" x2="394.476" y2="1806.74" stroke-width="1" stroke="rgb(0,0,0)" />
	<line x1="394.476" y1="1806.74" x2="401.79" y2="1798.26" stroke-width="1" stroke="rgb(0,0,0)" />
	<line x1="401.79" y1="1798.26" x2="406.497" y2="1802.23" stroke-width="1" stroke="rgb(0,0,0)" />
	<line x1="406.497" y1="1802.23" x2="399.281" y2="1810.81" stroke-width="1" stroke="rgb(0,0,0)" />
	<line x1="399.281" y1="1810.81" x2="401.589" y2="1812.74" stroke-width="1" stroke="rgb(0,0,0)" />
	<line x1="401.589" y1="1812.74" x2="410.37" y2="1819.95" stroke-width="1" stroke="rgb(0,0,0)" />
	<line x1="410.37" y1="1819.95" x2="417.401" y2="1811.24" stroke-width="1" stroke="rgb(0,0,0)" />
	<line x1="417.401" y1="1811.24" x2="422.46" y2="1815.28" stroke-width="1" stroke="rgb(0,0,0)" />
	<line x1="422.46" y1="1815.28" x2="415.767" y2="1824.26" stroke-width="1" stroke="rgb(0,0,0)" />
	<line x1="415.767" y1="1824.26" x2="429.963" y2="1835.2" stroke-width="1" stroke="rgb(0,0,0)" />
	<line x1="429.963" y1="1835.2" x2="436.669" y2="1826.24" stroke-width="1" stroke="rgb(0,0,0)" />
	<line x1="436.669" y1="1826.24" x2="447.295" y2="1834.05" stroke-width="1" stroke="rgb(0,0,0)" />
	<line x1="447.295" y1="1834.05" x2="440.745" y2="1843.13" stroke-width="1" stroke="rgb(0,0,0)" />
	<line x1="440.745" y1="1843.13" x2="465.309" y2="1860.05" stroke-width="1" stroke="rgb(0,0,0)" />
	<line x1="465.309" y1="1860.05" x2="471.464" y2="1850.69" stroke-width="1" stroke="rgb(0,0,0)" />
	<line x1="471.464" y1="1850.69" x2="484.494" y2="1859.06" stroke-width="1" stroke="rgb(0,0,0)" />
	<line x1="484.494" y1="1859.06" x2="478.551" y2="1868.55" stroke-width="1" stroke="rgb(0,0,0)" />
	<line x1="478.551" y1="1868.55" x2="483.225" y2="1871.39" stroke-width="1" stroke="rgb(0,0,0)" />
	<line x1="483.225" y1="1871.39" x2="489.101" y2="1861.84" stroke-width="1" stroke="rgb(0,0,0)" />
	<line x1="489.101" y1="1861.84" x2="502.308" y2="1869.78" stroke-width="1" stroke="rgb(0,0,0)" />
	<line x1="502.308" y1="1869.78" x2="496.655" y2="1879.45" stroke-width="1" stroke="rgb(0,0,0)" />
	<line x1="496.655" y1="1879.45" x2="501.889" y2="1882.49" stroke-width="1" stroke="rgb(0,0,0)" />
	<line x1="501.889" y1="1882.49" x2="507.498" y2="1872.8" stroke-width="1" stroke="rgb(0,0,0)" />
	<line x1="507.498" y1="1872.8" x2="519.842" y2="1879.71" stroke-width="1" stroke="rgb(0,0,0)" />
	<line x1="519.842" y1="1879.71" x2="514.473" y2="1889.54" stroke-width="1" stroke="rgb(0,0,0)" />
	<line x1="514.473" y1="1889.54" x2="517.886" y2="1891.43" stroke-width="1" stroke="rgb(0,0,0)" />
	<line x1="517.886" y1="1891.43" x2="523.199" y2="1881.57" stroke-width="1" stroke="rgb(0,0,0)" />
	<line x1="523.199" y1="1881.57" x2="536.91" y2="1888.76" stroke-width="1" stroke="rgb(0,0,0)" />
	<line x1="536.91" y1="1888.76" x2="531.819" y2="1898.74" stroke-width="1" stroke="rgb(0,0,0)" />
	<line x1="531.819" y1="1898.74" x2="546.835" y2="1906.17" stroke-width="1" stroke="rgb(0,0,0)" />
	<line x1="546.835" y1="1906.17" x2="551.684" y2="1896.08" stroke-width="1" stroke="rgb(0,0,0)" />
	<line x1="551.684" y1="1896.08" x2="557.534" y2="1898.86" stroke-width="1" stroke="rgb(0,0,0)" />
	<line x1="557.534" y1="1898.86" x2="553.075" y2="1909.13" stroke-width="1" stroke="rgb(0,0,0)" />
	<line x1="553.075" y1="1909.13" x2="569.401" y2="1916.53" stroke-width="1" stroke="rgb(0,0,0)" />
	<line x1="569.401" y1="1916.53" x2="573.875" y2="1906.26" stroke-width="1" stroke="rgb(0,0,0)" />
	<line x1="573.875" y1="1906.26" x2="586.007" y2="1911.43" stroke-width="1" stroke="rgb(0,0,0)" />
	<line x1="586.007" y1="1911.43" x2="581.712" y2="1921.78" stroke-width="1" stroke="rgb(0,0,0)" />
	<line x1="581.712" y1="1921.78" x2="594.462" y2="1926.92" stroke-width="1" stroke="rgb(0,0,0)" />
	<line x1="594.462" y1="1926.92" x2="598.55" y2="1916.5" stroke-width="1" stroke="rgb(0,0,0)" />
	<line x1="598.55" y1="1916.5" x2="610.798" y2="1921.16" stroke-width="1" stroke="rgb(0,0,0)" />
	<line x1="610.798" y1="1921.16" x2="606.908" y2="1931.67" stroke-width="1" stroke="rgb(0,0,0)" />
	<line x1="606.908" y1="1931.67" x2="620.526" y2="1936.46" stroke-width="1" stroke="rgb(0,0,0)" />
	<line x1="620.526" y1="1936.46" x2="624.197" y2="1925.88" stroke-width="1" stroke="rgb(0,0,0)" />
	<line x1="624.197" y1="1925.88" x2="639.337" y2="1930.94" stroke-width="1" stroke="rgb(0,0,0)" />
	<line x1="639.337" y1="1930.94" x2="635.912" y2="1941.6" stroke-width="1" stroke="rgb(0,0,0)" />
	<line x1="635.912" y1="1941.6" x2="646.159" y2="1944.89" stroke-width="1" stroke="rgb(0,0,0)" />
	<line x1="646.159" y1="1944.89" x2="650.592" y2="1946.23" stroke-width="1" stroke="rgb(0,0,0)" />
	<line x1="650.592" y1="1946.23" x2="653.825" y2="1935.5" stroke-width="1" stroke="rgb(0,0,0)" />
	<line x1="653.825" y1="1935.5" x2="667.495" y2="1939.41" stroke-width="1" stroke="rgb(0,0,0)" />
	<line x1="667.495" y1="1939.41" x2="664.55" y2="1950.22" stroke-width="1" stroke="rgb(0,0,0)" />
	<line x1="664.55" y1="1950.22" x2="671.383" y2="1952.06" stroke-width="1" stroke="rgb(0,0,0)" />
	<line x1="671.383" y1="1952.06" x2="680.855" y2="1954.49" stroke-width="1" stroke="rgb(0,0,0)" />
	<line x1="680.855" y1="1954.49" x2="683.562" y2="1943.62" stroke-width="1" stroke="rgb(0,0,0)" />
	<line x1="683.562" y1="1943.62" x2="697.369" y2="1946.91" stroke-width="1" stroke="rgb(0,0,0)" />
	<line x1="697.369" y1="1946.91" x2="694.906" y2="1957.83" stroke-width="1" stroke="rgb(0,0,0)" />
	<line x1="694.906" y1="1957.83" x2="703.323" y2="1959.69" stroke-width="1" stroke="rgb(0,0,0)" />
	<line x1="703.323" y1="1959.69" x2="705.692" y2="1948.75" stroke-width="1" stroke="rgb(0,0,0)" />
	<line x1="705.692" y1="1948.75" x2="715.086" y2="1950.69" stroke-width="1" stroke="rgb(0,0,0)" />
	<line x1="715.086" y1="1950.69" x2="712.89" y2="1961.67" stroke-width="1" stroke="rgb(0,0,0)" />
	<line x1="712.89" y1="1961.67" x2="740.661" y2="1966.64" stroke-width="1" stroke="rgb(0,0,0)" />
	<line x1="740.661" y1="1966.64" x2="795.977" y2="1973.14" stroke-width="1" stroke="rgb(0,0,0)" />
	<line x1="795.977" y1="1973.14" x2="868.024" y2="1975" stroke-width="1" stroke="rgb(0,0,0)" />
	<line x1="868.024" y1="1975" x2="909.306" y2="1971.8" stroke-width="1" stroke="rgb(0,0,0)" />
</svg>
