<?xml version="1.0" standalone="no" ?>
<!DOCTYPE svg PUBLIC "-//W3C//DTD SVG 1.1//EN" "http://www.w3.org/Graphics/SVG/1.1/DTD/svg11.dtd">
<svg width="2000px" height="2000px" xmlns="http://www.w3.org/2000/svg" version="1.1" >
	<line x1="924.04" y1="1970.66" x2="939.879" y2="1969.44" stroke-width="1" stroke="rgb(0,0,0)" />
	<line x1="939.879" y1="1969.44" x2="964.075" y2="1965.75" stroke-width="1" stroke="rgb(0,0,0)" />
	<line x1="964.075" y1="1965.75" x2="962.262" y2="1954.77" stroke-width="1" stroke="rgb(0,0,0)" />
	<line x1="962.262" y1="1954.77" x2="1000.12" y2="1947.45" stroke-width="1" stroke="rgb(0,0,0)" />
	<line x1="1000.12" y1="1947.45" x2="1034.76" y2="1938.75" stroke-width="1" stroke="rgb(0,0,0)" />
	<line x1="1034.76" y1="1938.75" x2="1037.77" y2="1949.54" stroke-width="1" stroke="rgb(0,0,0)" />
	<line x1="1037.77" y1="1949.54" x2="1060.23" y2="1942.81" stroke-width="1" stroke="rgb(0,0,0)" />
	<line x1="1060.23" y1="1942.81" x2="1064.45" y2="1941.45" stroke-width="1" stroke="rgb(0,0,0)" />
	<line x1="1064.45" y1="1941.45" x2="1061.03" y2="1930.84" stroke-width="1" stroke="rgb(0,0,0)" />
	<line x1="1061.03" y1="1930.84" x2="1080.87" y2="1924.08" stroke-width="1" stroke="rgb(0,0,0)" />
	<line x1="1080.87" y1="1924.08" x2="1133.97" y2="1902.65" stroke-width="1" stroke="rgb(0,0,0)" />
	<line x1="1133.97" y1="1902.65" x2="1138.6" y2="1912.89" stroke-width="1" stroke="rgb(0,0,0)" />
	<line x1="1138.6" y1="1912.89" x2="1153.31" y2="1906.08" stroke-width="1" stroke="rgb(0,0,0)" />
	<line x1="1153.31" y1="1906.08" x2="1177.32" y2="1893.86" stroke-width="1" stroke="rgb(0,0,0)" />
	<line x1="1177.32" y1="1893.86" x2="1172.1" y2="1884" stroke-width="1" stroke="rgb(0,0,0)" />
	<line x1="1172.1" y1="1884" x2="1187.86" y2="1875.37" stroke-width="1" stroke="rgb(0,0,0)" />
	<line x1="1187.86" y1="1875.37" x2="1234.72" y2="1846.44" stroke-width="1" stroke="rgb(0,0,0)" />
	<line x1="1234.72" y1="1846.44" x2="1241" y2="1855.77" stroke-width="1" stroke="rgb(0,0,0)" />
	<line x1="1241" y1="1855.77" x2="1252.09" y2="1848.23" stroke-width="1" stroke="rgb(0,0,0)" />
	<line x1="1252.09" y1="1848.23" x2="1263.9" y2="1839.73" stroke-width="1" stroke="rgb(0,0,0)" />
	<line x1="1263.9" y1="1839.73" x2="1276.03" y2="1830.51" stroke-width="1" stroke="rgb(0,0,0)" />
	<line x1="1276.03" y1="1830.51" x2="1269.24" y2="1821.66" stroke-width="1" stroke="rgb(0,0,0)" />
	<line x1="1269.24" y1="1821.66" x2="1285.83" y2="1808.48" stroke-width="1" stroke="rgb(0,0,0)" />
	<line x1="1285.83" y1="1808.48" x2="1328.74" y2="1770.31" stroke-width="1" stroke="rgb(0,0,0)" />
	<line x1="1328.74" y1="1770.31" x2="1336.55" y2="1778.39" stroke-width="1" stroke="rgb(0,0,0)" />
	<line x1="1336.55" y1="1778.39" x2="1348.88" y2="1764.92" stroke-width="1" stroke="rgb(0,0,0)" />
	<line x1="1348.88" y1="1764.92" x2="1375.79" y2="1737.34" stroke-width="1" stroke="rgb(0,0,0)" />
	<line x1="1375.79" y1="1737.34" x2="1393.58" y2="1716.2" stroke-width="1" stroke="rgb(0,0,0)" />
	<line x1="1393.58" y1="1716.2" x2="1397.68" y2="1711.06" stroke-width="1" stroke="rgb(0,0,0)" />
	<line x1="1397.68" y1="1711.06" x2="1388.95" y2="1704.03" stroke-width="1" stroke="rgb(0,0,0)" />
	<line x1="1388.95" y1="1704.03" x2="1398.71" y2="1691.58" stroke-width="1" stroke="rgb(0,0,0)" />
	<line x1="1398.71" y1="1691.58" x2="1407.63" y2="1698.35" stroke-width="1" stroke="rgb(0,0,0)" />
	<line x1="1407.63" y1="1698.35" x2="1420.52" y2="1680.83" stroke-width="1" stroke="rgb(0,0,0)" />
	<line x1="1420.52" y1="1680.83" x2="1429.54" y2="1667.81" stroke-width="1" stroke="rgb(0,0,0)" />
	<line x1="1429.54" y1="1667.81" x2="1420.27" y2="1661.53" stroke-width="1" stroke="rgb(0,0,0)" />
	<line x1="1420.27" y1="1661.53" x2="1428.56" y2="1648.89" stroke-width="1" stroke="rgb(0,0,0)" />
	<line x1="1428.56" y1="1648.89" x2="1437.97" y2="1654.96" stroke-width="1" stroke="rgb(0,0,0)" />
	<line x1="1437.97" y1="1654.96" x2="1442.96" y2="1647.25" stroke-width="1" stroke="rgb(0,0,0)" />
	<line x1="1442.96" y1="1647.25" x2="1433.48" y2="1641.29" stroke-width="1" stroke="rgb(0,0,0)" />
	<line x1="1433.48" y1="1641.29" x2="1439.56" y2="1631.41" stroke-width="1" stroke="rgb(0,0,0)" />
	<line x1="1439.56" y1="1631.41" x2="1449.15" y2="1637.2" stroke-width="1" stroke="rgb(0,0,0)" />
	<line x1="1449.15" y1="1637.2" x2="1461.47" y2="1615.97" stroke-width="1" stroke="rgb(0,0,0)" />
	<line x1="1461.47" y1="1615.97" x2="1451.69" y2="1610.51" stroke-width="1" stroke="rgb(0,0,0)" />
	<line x1="1451.69" y1="1610.51" x2="1459.12" y2="1596.83" stroke-width="1" stroke="rgb(0,0,0)" />
	<line x1="1459.12" y1="1596.83" x2="1469.02" y2="1602.06" stroke-width="1" stroke="rgb(0,0,0)" />
	<line x1="1469.02" y1="1602.06" x2="1478.87" y2="1582.69" stroke-width="1" stroke="rgb(0,0,0)" />
	<line x1="1478.87" y1="1582.69" x2="1468.8" y2="1577.77" stroke-width="1" stroke="rgb(0,0,0)" />
	<line x1="1468.8" y1="1577.77" x2="1474.05" y2="1566.8" stroke-width="1" stroke="rgb(0,0,0)" />
	<line x1="1474.05" y1="1566.8" x2="1484.19" y2="1571.54" stroke-width="1" stroke="rgb(0,0,0)" />
	<line x1="1484.19" y1="1571.54" x2="1491.38" y2="1555.66" stroke-width="1" stroke="rgb(0,0,0)" />
	<line x1="1491.38" y1="1555.66" x2="1481.15" y2="1551.11" stroke-width="1" stroke="rgb(0,0,0)" />
	<line x1="1481.15" y1="1551.11" x2="1487.24" y2="1536.7" stroke-width="1" stroke="rgb(0,0,0)" />
	<line x1="1487.24" y1="1536.7" x2="1497.59" y2="1540.99" stroke-width="1" stroke="rgb(0,0,0)" />
	<line x1="1497.59" y1="1540.99" x2="1505.24" y2="1521.53" stroke-width="1" stroke="rgb(0,0,0)" />
	<line x1="1505.24" y1="1521.53" x2="1494.75" y2="1517.64" stroke-width="1" stroke="rgb(0,0,0)" />
	<line x1="1494.75" y1="1517.64" x2="1497.22" y2="1510.89" stroke-width="1" stroke="rgb(0,0,0)" />
	<line x1="1497.22" y1="1510.89" x2="1507.75" y2="1514.72" stroke-width="1" stroke="rgb(0,0,0)" />
	<line x1="1507.75" y1="1514.72" x2="1511.58" y2="1503.96" stroke-width="1" stroke="rgb(0,0,0)" />
	<line x1="1511.58" y1="1503.96" x2="1500.99" y2="1500.3" stroke-width="1" stroke="rgb(0,0,0)" />
	<line x1="1500.99" y1="1500.3" x2="1504.41" y2="1490.15" stroke-width="1" stroke="rgb(0,0,0)" />
	<line x1="1504.41" y1="1490.15" x2="1515.05" y2="1493.65" stroke-width="1" stroke="rgb(0,0,0)" />
	<line x1="1515.05" y1="1493.65" x2="1523.64" y2="1465.51" stroke-width="1" stroke="rgb(0,0,0)" />
	<line x1="1523.64" y1="1465.51" x2="1512.87" y2="1462.46" stroke-width="1" stroke="rgb(0,0,0)" />
	<line x1="1512.87" y1="1462.46" x2="1516.74" y2="1448.15" stroke-width="1" stroke="rgb(0,0,0)" />
	<line x1="1516.74" y1="1448.15" x2="1527.58" y2="1450.96" stroke-width="1" stroke="rgb(0,0,0)" />
	<line x1="1527.58" y1="1450.96" x2="1531.05" y2="1436.99" stroke-width="1" stroke="rgb(0,0,0)" />
	<line x1="1531.05" y1="1436.99" x2="1520.17" y2="1434.36" stroke-width="1" stroke="rgb(0,0,0)" />
	<line x1="1520.17" y1="1434.36" x2="1524.76" y2="1413.65" stroke-width="1" stroke="rgb(0,0,0)" />
	<line x1="1524.76" y1="1413.65" x2="1535.73" y2="1415.87" stroke-width="1" stroke="rgb(0,0,0)" />
	<line x1="1535.73" y1="1415.87" x2="1537.32" y2="1407.84" stroke-width="1" stroke="rgb(0,0,0)" />
	<line x1="1537.32" y1="1407.84" x2="1526.34" y2="1405.69" stroke-width="1" stroke="rgb(0,0,0)" />
	<line x1="1526.34" y1="1405.69" x2="1528.49" y2="1393.87" stroke-width="1" stroke="rgb(0,0,0)" />
	<line x1="1528.49" y1="1393.87" x2="1539.53" y2="1395.8" stroke-width="1" stroke="rgb(0,0,0)" />
	<line x1="1539.53" y1="1395.8" x2="1540.44" y2="1390.52" stroke-width="1" stroke="rgb(0,0,0)" />
	<line x1="1540.44" y1="1390.52" x2="1540.74" y2="1388.73" stroke-width="1" stroke="rgb(0,0,0)" />
	<line x1="1540.74" y1="1388.73" x2="1529.69" y2="1386.89" stroke-width="1" stroke="rgb(0,0,0)" />
	<line x1="1529.69" y1="1386.89" x2="1531.17" y2="1377.5" stroke-width="1" stroke="rgb(0,0,0)" />
	<line x1="1531.17" y1="1377.5" x2="1542.24" y2="1379.17" stroke-width="1" stroke="rgb(0,0,0)" />
	<line x1="1542.24" y1="1379.17" x2="1544.9" y2="1359.54" stroke-width="1" stroke="rgb(0,0,0)" />
	<line x1="1544.9" y1="1359.54" x2="1533.79" y2="1358.18" stroke-width="1" stroke="rgb(0,0,0)" />
	<line x1="1533.79" y1="1358.18" x2="1535.42" y2="1343.4" stroke-width="1" stroke="rgb(0,0,0)" />
	<line x1="1535.42" y1="1343.4" x2="1546.56" y2="1344.51" stroke-width="1" stroke="rgb(0,0,0)" />
	<line x1="1546.56" y1="1344.51" x2="1548.81" y2="1315.97" stroke-width="1" stroke="rgb(0,0,0)" />
	<line x1="1548.81" y1="1315.97" x2="1537.63" y2="1315.32" stroke-width="1" stroke="rgb(0,0,0)" />
	<line x1="1537.63" y1="1315.32" x2="1538.36" y2="1299.86" stroke-width="1" stroke="rgb(0,0,0)" />
	<line x1="1538.36" y1="1299.86" x2="1549.55" y2="1300.26" stroke-width="1" stroke="rgb(0,0,0)" />
	<line x1="1549.55" y1="1300.26" x2="1550" y2="1275.23" stroke-width="1" stroke="rgb(0,0,0)" />
	<line x1="1550" y1="1275.23" x2="1549.7" y2="1254.75" stroke-width="1" stroke="rgb(0,0,0)" />
	<line x1="1549.7" y1="1254.75" x2="1538.51" y2="1255.08" stroke-width="1" stroke="rgb(0,0,0)" />
	<line x1="1538.51" y1="1255.08" x2="1537.88" y2="1239.61" stroke-width="1" stroke="rgb(0,0,0)" />
	<line x1="1537.88" y1="1239.61" x2="1549.06" y2="1239.03" stroke-width="1" stroke="rgb(0,0,0)" />
	<line x1="1549.06" y1="1239.03" x2="1548.37" y2="1227.48" stroke-width="1" stroke="rgb(0,0,0)" />
	<line x1="1548.37" y1="1227.48" x2="1537.19" y2="1228.23" stroke-width="1" stroke="rgb(0,0,0)" />
	<line x1="1537.19" y1="1228.23" x2="1536.48" y2="1218.75" stroke-width="1" stroke="rgb(0,0,0)" />
	<line x1="1536.48" y1="1218.75" x2="1547.64" y2="1217.84" stroke-width="1" stroke="rgb(0,0,0)" />
	<line x1="1547.64" y1="1217.84" x2="1545.74" y2="1198.12" stroke-width="1" stroke="rgb(0,0,0)" />
	<line x1="1545.74" y1="1198.12" x2="1534.61" y2="1199.35" stroke-width="1" stroke="rgb(0,0,0)" />
	<line x1="1534.61" y1="1199.35" x2="1532.81" y2="1184.58" stroke-width="1" stroke="rgb(0,0,0)" />
	<line x1="1532.81" y1="1184.58" x2="1543.91" y2="1183.11" stroke-width="1" stroke="rgb(0,0,0)" />
	<line x1="1543.91" y1="1183.11" x2="1542.15" y2="1170.69" stroke-width="1" stroke="rgb(0,0,0)" />
	<line x1="1542.15" y1="1170.69" x2="1531.08" y2="1172.36" stroke-width="1" stroke="rgb(0,0,0)" />
	<line x1="1531.08" y1="1172.36" x2="1529.05" y2="1159.73" stroke-width="1" stroke="rgb(0,0,0)" />
	<line x1="1529.05" y1="1159.73" x2="1540.09" y2="1157.85" stroke-width="1" stroke="rgb(0,0,0)" />
	<line x1="1540.09" y1="1157.85" x2="1537.16" y2="1142" stroke-width="1" stroke="rgb(0,0,0)" />
	<line x1="1537.16" y1="1142" x2="1526.16" y2="1144.13" stroke-width="1" stroke="rgb(0,0,0)" />
	<line x1="1526.16" y1="1144.13" x2="1523.42" y2="1130.82" stroke-width="1" stroke="rgb(0,0,0)" />
	<line x1="1523.42" y1="1130.82" x2="1534.37" y2="1128.47" stroke-width="1" stroke="rgb(0,0,0)" />
	<line x1="1534.37" y1="1128.47" x2="1530.71" y2="1112.02" stroke-width="1" stroke="rgb(0,0,0)" />
	<line x1="1530.71" y1="1112.02" x2="1519.83" y2="1114.69" stroke-width="1" stroke="rgb(0,0,0)" />
	<line x1="1519.83" y1="1114.69" x2="1515.43" y2="1097.31" stroke-width="1" stroke="rgb(0,0,0)" />
	<line x1="1515.43" y1="1097.31" x2="1526.29" y2="1094.59" stroke-width="1" stroke="rgb(0,0,0)" />
	<line x1="1526.29" y1="1094.59" x2="1522.28" y2="1080.18" stroke-width="1" stroke="rgb(0,0,0)" />
	<line x1="1522.28" y1="1080.18" x2="1511.56" y2="1083.44" stroke-width="1" stroke="rgb(0,0,0)" />
	<line x1="1511.56" y1="1083.44" x2="1508.07" y2="1071.8" stroke-width="1" stroke="rgb(0,0,0)" />
	<line x1="1508.07" y1="1071.8" x2="1518.77" y2="1068.5" stroke-width="1" stroke="rgb(0,0,0)" />
	<line x1="1518.77" y1="1068.5" x2="1516.04" y2="1059.88" stroke-width="1" stroke="rgb(0,0,0)" />
	<line x1="1516.04" y1="1059.88" x2="1505.39" y2="1063.32" stroke-width="1" stroke="rgb(0,0,0)" />
	<line x1="1505.39" y1="1063.32" x2="1502.01" y2="1053.14" stroke-width="1" stroke="rgb(0,0,0)" />
	<line x1="1502.01" y1="1053.14" x2="1512.66" y2="1049.66" stroke-width="1" stroke="rgb(0,0,0)" />
	<line x1="1512.66" y1="1049.66" x2="1510.67" y2="1043.9" stroke-width="1" stroke="rgb(0,0,0)" />
	<line x1="1510.67" y1="1043.9" x2="1507.57" y2="1035.24" stroke-width="1" stroke="rgb(0,0,0)" />
	<line x1="1507.57" y1="1035.24" x2="1497.06" y2="1039.09" stroke-width="1" stroke="rgb(0,0,0)" />
	<line x1="1497.06" y1="1039.09" x2="1491.96" y2="1025.56" stroke-width="1" stroke="rgb(0,0,0)" />
	<line x1="1491.96" y1="1025.56" x2="1502.39" y2="1021.5" stroke-width="1" stroke="rgb(0,0,0)" />
	<line x1="1502.39" y1="1021.5" x2="1491.42" y2="994.914" stroke-width="1" stroke="rgb(0,0,0)" />
	<line x1="1491.42" y1="994.914" x2="1459.2" y2="930.448" stroke-width="1" stroke="rgb(0,0,0)" />
	<line x1="1459.2" y1="930.448" x2="1420.52" y2="869.637" stroke-width="1" stroke="rgb(0,0,0)" />
	<line x1="1420.52" y1="869.637" x2="1396.78" y2="838.316" stroke-width="1" stroke="rgb(0,0,0)" />
	<line x1="1396.78" y1="838.316" x2="1390.97" y2="831.179" stroke-width="1" stroke="rgb(0,0,0)" />
	<line x1="1390.97" y1="831.179" x2="1382.37" y2="838.241" stroke-width="1" stroke="rgb(0,0,0)" />
	<line x1="1382.37" y1="838.241" x2="1357.1" y2="809.113" stroke-width="1" stroke="rgb(0,0,0)" />
	<line x1="1357.1" y1="809.113" x2="1332.24" y2="783.463" stroke-width="1" stroke="rgb(0,0,0)" />
	<line x1="1332.24" y1="783.463" x2="1340.09" y2="775.467" stroke-width="1" stroke="rgb(0,0,0)" />
	<line x1="1340.09" y1="775.467" x2="1331.23" y2="766.911" stroke-width="1" stroke="rgb(0,0,0)" />
	<line x1="1331.23" y1="766.911" x2="1319.74" y2="756.402" stroke-width="1" stroke="rgb(0,0,0)" />
	<line x1="1319.74" y1="756.402" x2="1312.25" y2="764.671" stroke-width="1" stroke="rgb(0,0,0)" />
	<line x1="1312.25" y1="764.671" x2="1296.48" y2="750.87" stroke-width="1" stroke="rgb(0,0,0)" />
	<line x1="1296.48" y1="750.87" x2="1251.38" y2="715.601" stroke-width="1" stroke="rgb(0,0,0)" />
	<line x1="1251.38" y1="715.601" x2="1257.93" y2="706.466" stroke-width="1" stroke="rgb(0,0,0)" />
	<line x1="1257.93" y1="706.466" x2="1250.78" y2="701.324" stroke-width="1" stroke="rgb(0,0,0)" />
	<line x1="1250.78" y1="701.324" x2="1222.09" y2="682.452" stroke-width="1" stroke="rgb(0,0,0)" />
	<line x1="1222.09" y1="682.452" x2="1216.16" y2="691.9" stroke-width="1" stroke="rgb(0,0,0)" />
	<line x1="1216.16" y1="691.9" x2="1200.81" y2="682.564" stroke-width="1" stroke="rgb(0,0,0)" />
	<line x1="1200.81" y1="682.564" x2="1152.32" y2="656.45" stroke-width="1" stroke="rgb(0,0,0)" />
	<line x1="1152.32" y1="656.45" x2="1157.26" y2="646.349" stroke-width="1" stroke="rgb(0,0,0)" />
	<line x1="1157.26" y1="646.349" x2="1139.43" y2="637.896" stroke-width="1" stroke="rgb(0,0,0)" />
	<line x1="1139.43" y1="637.896" x2="1117.87" y2="628.636" stroke-width="1" stroke="rgb(0,0,0)" />
	<line x1="1117.87" y1="628.636" x2="1113.6" y2="638.942" stroke-width="1" stroke="rgb(0,0,0)" />
	<line x1="1113.6" y1="638.942" x2="1093.89" y2="631.169" stroke-width="1" stroke="rgb(0,0,0)" />
	<line x1="1093.89" y1="631.169" x2="1039.38" y2="613.095" stroke-width="1" stroke="rgb(0,0,0)" />
	<line x1="1039.38" y1="613.095" x2="1042.47" y2="602.286" stroke-width="1" stroke="rgb(0,0,0)" />
	<line x1="1042.47" y1="602.286" x2="1034.95" y2="600.585" stroke-width="1" stroke="rgb(0,0,0)" />
	<line x1="1034.95" y1="600.585" x2="1010.78" y2="593.947" stroke-width="1" stroke="rgb(0,0,0)" />
	<line x1="1010.78" y1="593.947" x2="961.991" y2="584.405" stroke-width="1" stroke="rgb(0,0,0)" />
	<line x1="961.991" y1="584.405" x2="953.6" y2="583.018" stroke-width="1" stroke="rgb(0,0,0)" />
	<line x1="953.6" y1="583.018" x2="951.942" y2="594.093" stroke-width="1" stroke="rgb(0,0,0)" />
	<line x1="951.942" y1="594.093" x2="936.215" y2="591.859" stroke-width="1" stroke="rgb(0,0,0)" />
	<line x1="936.215" y1="591.859" x2="937.617" y2="580.747" stroke-width="1" stroke="rgb(0,0,0)" />
	<line x1="937.617" y1="580.747" x2="900.211" y2="577.045" stroke-width="1" stroke="rgb(0,0,0)" />
	<line x1="900.211" y1="577.045" x2="899.408" y2="588.216" stroke-width="1" stroke="rgb(0,0,0)" />
	<line x1="899.408" y1="588.216" x2="884.316" y2="587.357" stroke-width="1" stroke="rgb(0,0,0)" />
	<line x1="884.316" y1="587.357" x2="884.874" y2="576.172" stroke-width="1" stroke="rgb(0,0,0)" />
	<line x1="884.874" y1="576.172" x2="875.692" y2="575.704" stroke-width="1" stroke="rgb(0,0,0)" />
	<line x1="875.692" y1="575.704" x2="875.281" y2="586.896" stroke-width="1" stroke="rgb(0,0,0)" />
	<line x1="875.281" y1="586.896" x2="863.676" y2="586.568" stroke-width="1" stroke="rgb(0,0,0)" />
	<line x1="863.676" y1="586.568" x2="863.899" y2="575.37" stroke-width="1" stroke="rgb(0,0,0)" />
	<line x1="863.899" y1="575.37" x2="839.346" y2="575.313" stroke-width="1" stroke="rgb(0,0,0)" />
	<line x1="839.346" y1="575.313" x2="839.517" y2="586.512" stroke-width="1" stroke="rgb(0,0,0)" />
	<line x1="839.517" y1="586.512" x2="823.956" y2="586.922" stroke-width="1" stroke="rgb(0,0,0)" />
	<line x1="823.956" y1="586.922" x2="823.532" y2="575.733" stroke-width="1" stroke="rgb(0,0,0)" />
	<line x1="823.532" y1="575.733" x2="801.829" y2="576.891" stroke-width="1" stroke="rgb(0,0,0)" />
	<line x1="801.829" y1="576.891" x2="802.6" y2="588.065" stroke-width="1" stroke="rgb(0,0,0)" />
	<line x1="802.6" y1="588.065" x2="790.484" y2="589.008" stroke-width="1" stroke="rgb(0,0,0)" />
	<line x1="790.484" y1="589.008" x2="789.517" y2="577.85" stroke-width="1" stroke="rgb(0,0,0)" />
	<line x1="789.517" y1="577.85" x2="772.166" y2="579.573" stroke-width="1" stroke="rgb(0,0,0)" />
	<line x1="772.166" y1="579.573" x2="773.346" y2="590.711" stroke-width="1" stroke="rgb(0,0,0)" />
	<line x1="773.346" y1="590.711" x2="757.817" y2="592.627" stroke-width="1" stroke="rgb(0,0,0)" />
	<line x1="757.817" y1="592.627" x2="756.355" y2="581.525" stroke-width="1" stroke="rgb(0,0,0)" />
	<line x1="756.355" y1="581.525" x2="753.037" y2="581.981" stroke-width="1" stroke="rgb(0,0,0)" />
	<line x1="753.037" y1="581.981" x2="735.683" y2="584.63" stroke-width="1" stroke="rgb(0,0,0)" />
	<line x1="735.683" y1="584.63" x2="737.554" y2="595.662" stroke-width="1" stroke="rgb(0,0,0)" />
	<line x1="737.554" y1="595.662" x2="730.477" y2="596.892" stroke-width="1" stroke="rgb(0,0,0)" />
	<line x1="730.477" y1="596.892" x2="728.534" y2="585.862" stroke-width="1" stroke="rgb(0,0,0)" />
	<line x1="728.534" y1="585.862" x2="717.298" y2="587.926" stroke-width="1" stroke="rgb(0,0,0)" />
	<line x1="717.298" y1="587.926" x2="719.421" y2="598.923" stroke-width="1" stroke="rgb(0,0,0)" />
	<line x1="719.421" y1="598.923" x2="708.921" y2="601.035" stroke-width="1" stroke="rgb(0,0,0)" />
	<line x1="708.921" y1="601.035" x2="706.627" y2="590.072" stroke-width="1" stroke="rgb(0,0,0)" />
	<line x1="706.627" y1="590.072" x2="677.961" y2="596.703" stroke-width="1" stroke="rgb(0,0,0)" />
	<line x1="677.961" y1="596.703" x2="680.713" y2="607.559" stroke-width="1" stroke="rgb(0,0,0)" />
	<line x1="680.713" y1="607.559" x2="666.378" y2="611.358" stroke-width="1" stroke="rgb(0,0,0)" />
	<line x1="666.378" y1="611.358" x2="663.392" y2="600.564" stroke-width="1" stroke="rgb(0,0,0)" />
	<line x1="663.392" y1="600.564" x2="649.563" y2="604.543" stroke-width="1" stroke="rgb(0,0,0)" />
	<line x1="649.563" y1="604.543" x2="652.725" y2="615.288" stroke-width="1" stroke="rgb(0,0,0)" />
	<line x1="652.725" y1="615.288" x2="632.491" y2="621.667" stroke-width="1" stroke="rgb(0,0,0)" />
	<line x1="632.491" y1="621.667" x2="628.929" y2="611.059" stroke-width="1" stroke="rgb(0,0,0)" />
	<line x1="628.929" y1="611.059" x2="621.185" y2="613.687" stroke-width="1" stroke="rgb(0,0,0)" />
	<line x1="621.185" y1="613.687" x2="624.816" y2="624.278" stroke-width="1" stroke="rgb(0,0,0)" />
	<line x1="624.816" y1="624.278" x2="613.497" y2="628.319" stroke-width="1" stroke="rgb(0,0,0)" />
	<line x1="613.497" y1="628.319" x2="609.65" y2="617.796" stroke-width="1" stroke="rgb(0,0,0)" />
	<line x1="609.65" y1="617.796" x2="602.92" y2="620.288" stroke-width="1" stroke="rgb(0,0,0)" />
	<line x1="602.92" y1="620.288" x2="606.851" y2="630.776" stroke-width="1" stroke="rgb(0,0,0)" />
	<line x1="606.851" y1="630.776" x2="597.983" y2="634.191" stroke-width="1" stroke="rgb(0,0,0)" />
	<line x1="597.983" y1="634.191" x2="593.896" y2="623.764" stroke-width="1" stroke="rgb(0,0,0)" />
	<line x1="593.896" y1="623.764" x2="575.56" y2="631.274" stroke-width="1" stroke="rgb(0,0,0)" />
	<line x1="575.56" y1="631.274" x2="579.945" y2="641.578" stroke-width="1" stroke="rgb(0,0,0)" />
	<line x1="579.945" y1="641.578" x2="566.323" y2="647.56" stroke-width="1" stroke="rgb(0,0,0)" />
	<line x1="566.323" y1="647.56" x2="561.71" y2="637.353" stroke-width="1" stroke="rgb(0,0,0)" />
	<line x1="561.71" y1="637.353" x2="535.877" y2="649.671" stroke-width="1" stroke="rgb(0,0,0)" />
	<line x1="535.877" y1="649.671" x2="540.903" y2="659.68" stroke-width="1" stroke="rgb(0,0,0)" />
	<line x1="540.903" y1="659.68" x2="527.146" y2="666.783" stroke-width="1" stroke="rgb(0,0,0)" />
	<line x1="527.146" y1="666.783" x2="521.896" y2="656.889" stroke-width="1" stroke="rgb(0,0,0)" />
	<line x1="521.896" y1="656.889" x2="509.875" y2="663.47" stroke-width="1" stroke="rgb(0,0,0)" />
	<line x1="509.875" y1="663.47" x2="482.414" y2="679.513" stroke-width="1" stroke="rgb(0,0,0)" />
	<line x1="482.414" y1="679.513" x2="488.295" y2="689.045" stroke-width="1" stroke="rgb(0,0,0)" />
	<line x1="488.295" y1="689.045" x2="475.211" y2="697.323" stroke-width="1" stroke="rgb(0,0,0)" />
	<line x1="475.211" y1="697.323" x2="469.117" y2="687.926" stroke-width="1" stroke="rgb(0,0,0)" />
	<line x1="469.117" y1="687.926" x2="459.465" y2="694.3" stroke-width="1" stroke="rgb(0,0,0)" />
	<line x1="459.465" y1="694.3" x2="465.694" y2="703.608" stroke-width="1" stroke="rgb(0,0,0)" />
	<line x1="465.694" y1="703.608" x2="457.844" y2="708.964" stroke-width="1" stroke="rgb(0,0,0)" />
	<line x1="457.844" y1="708.964" x2="451.477" y2="699.75" stroke-width="1" stroke="rgb(0,0,0)" />
	<line x1="451.477" y1="699.75" x2="435.349" y2="711.261" stroke-width="1" stroke="rgb(0,0,0)" />
	<line x1="435.349" y1="711.261" x2="441.977" y2="720.286" stroke-width="1" stroke="rgb(0,0,0)" />
	<line x1="441.977" y1="720.286" x2="430.088" y2="729.229" stroke-width="1" stroke="rgb(0,0,0)" />
	<line x1="430.088" y1="729.229" x2="423.26" y2="720.351" stroke-width="1" stroke="rgb(0,0,0)" />
	<line x1="423.26" y1="720.351" x2="413.389" y2="728.084" stroke-width="1" stroke="rgb(0,0,0)" />
	<line x1="413.389" y1="728.084" x2="420.375" y2="736.839" stroke-width="1" stroke="rgb(0,0,0)" />
	<line x1="420.375" y1="736.839" x2="410.45" y2="744.91" stroke-width="1" stroke="rgb(0,0,0)" />
	<line x1="410.45" y1="744.91" x2="403.303" y2="736.287" stroke-width="1" stroke="rgb(0,0,0)" />
	<line x1="403.303" y1="736.287" x2="401.589" y2="737.721" stroke-width="1" stroke="rgb(0,0,0)" />
	<line x1="401.589" y1="737.721" x2="391.036" y2="746.755" stroke-width="1" stroke="rgb(0,0,0)" />
	<line x1="391.036" y1="746.755" x2="398.379" y2="755.211" stroke-width="1" stroke="rgb(0,0,0)" />
	<line x1="398.379" y1="755.211" x2="388.219" y2="764.238" stroke-width="1" stroke="rgb(0,0,0)" />
	<line x1="388.219" y1="764.238" x2="380.711" y2="755.929" stroke-width="1" stroke="rgb(0,0,0)" />
	<line x1="380.711" y1="755.929" x2="368.302" y2="767.33" stroke-width="1" stroke="rgb(0,0,0)" />
	<line x1="368.302" y1="767.33" x2="376.053" y2="775.413" stroke-width="1" stroke="rgb(0,0,0)" />
	<line x1="376.053" y1="775.413" x2="363.2" y2="787.918" stroke-width="1" stroke="rgb(0,0,0)" />
	<line x1="363.2" y1="787.918" x2="355.412" y2="779.871" stroke-width="1" stroke="rgb(0,0,0)" />
	<line x1="355.412" y1="779.871" x2="344.942" y2="790.551" stroke-width="1" stroke="rgb(0,0,0)" />
	<line x1="344.942" y1="790.551" x2="353.128" y2="798.199" stroke-width="1" stroke="rgb(0,0,0)" />
	<line x1="353.128" y1="798.199" x2="344.793" y2="807.043" stroke-width="1" stroke="rgb(0,0,0)" />
	<line x1="344.793" y1="807.043" x2="336.579" y2="799.43" stroke-width="1" stroke="rgb(0,0,0)" />
	<line x1="336.579" y1="799.43" x2="330.475" y2="806.1" stroke-width="1" stroke="rgb(0,0,0)" />
	<line x1="330.475" y1="806.1" x2="338.788" y2="813.607" stroke-width="1" stroke="rgb(0,0,0)" />
	<line x1="338.788" y1="813.607" x2="331.653" y2="821.619" stroke-width="1" stroke="rgb(0,0,0)" />
	<line x1="331.653" y1="821.619" x2="323.318" y2="814.141" stroke-width="1" stroke="rgb(0,0,0)" />
	<line x1="323.318" y1="814.141" x2="313.374" y2="825.752" stroke-width="1" stroke="rgb(0,0,0)" />
	<line x1="313.374" y1="825.752" x2="321.967" y2="832.935" stroke-width="1" stroke="rgb(0,0,0)" />
	<line x1="321.967" y1="832.935" x2="312.797" y2="844.119" stroke-width="1" stroke="rgb(0,0,0)" />
	<line x1="312.797" y1="844.119" x2="304.061" y2="837.11" stroke-width="1" stroke="rgb(0,0,0)" />
	<line x1="304.061" y1="837.11" x2="301.116" y2="840.805" stroke-width="1" stroke="rgb(0,0,0)" />
	<line x1="301.116" y1="840.805" x2="259.357" y2="899.545" stroke-width="1" stroke="rgb(0,0,0)" />
	<line x1="259.357" y1="899.545" x2="223.859" y2="962.267" stroke-width="1" stroke="rgb(0,0,0)" />
	<line x1="223.859" y1="962.267" x2="194.953" y2="1028.76" stroke-width="1" stroke="rgb(0,0,0)" />
	<line x1="194.953" y1="1028.76" x2="205.371" y2="1032.68" stroke-width="1" stroke="rgb(0,0,0)" />
	<line x1="205.371" y1="1032.68" x2="192.779" y2="1069.13" stroke-width="1" stroke="rgb(0,0,0)" />
	<line x1="192.779" y1="1069.13" x2="182.993" y2="1103.48" stroke-width="1" stroke="rgb(0,0,0)" />
	<line x1="182.993" y1="1103.48" x2="172.147" y2="1100.69" stroke-width="1" stroke="rgb(0,0,0)" />
	<line x1="172.147" y1="1100.69" x2="165.81" y2="1127.84" stroke-width="1" stroke="rgb(0,0,0)" />
	<line x1="165.81" y1="1127.84" x2="176.714" y2="1130.19" stroke-width="1" stroke="rgb(0,0,0)" />
	<line x1="176.714" y1="1130.19" x2="172.649" y2="1150.75" stroke-width="1" stroke="rgb(0,0,0)" />
	<line x1="172.649" y1="1150.75" x2="164.657" y2="1207.45" stroke-width="1" stroke="rgb(0,0,0)" />
	<line x1="164.657" y1="1207.45" x2="153.469" y2="1206.34" stroke-width="1" stroke="rgb(0,0,0)" />
	<line x1="153.469" y1="1206.34" x2="152.589" y2="1215.1" stroke-width="1" stroke="rgb(0,0,0)" />
	<line x1="152.589" y1="1215.1" x2="151.341" y2="1232.31" stroke-width="1" stroke="rgb(0,0,0)" />
	<line x1="151.341" y1="1232.31" x2="150.591" y2="1249.38" stroke-width="1" stroke="rgb(0,0,0)" />
	<line x1="150.591" y1="1249.38" x2="161.738" y2="1249.79" stroke-width="1" stroke="rgb(0,0,0)" />
	<line x1="161.738" y1="1249.79" x2="161.331" y2="1267.76" stroke-width="1" stroke="rgb(0,0,0)" />
	<line x1="161.331" y1="1267.76" x2="162.958" y2="1322.8" stroke-width="1" stroke="rgb(0,0,0)" />
	<line x1="162.958" y1="1322.8" x2="151.725" y2="1323.58" stroke-width="1" stroke="rgb(0,0,0)" />
	<line x1="151.725" y1="1323.58" x2="152.776" y2="1337.48" stroke-width="1" stroke="rgb(0,0,0)" />
	<line x1="152.776" y1="1337.48" x2="156.096" y2="1366.55" stroke-width="1" stroke="rgb(0,0,0)" />
	<line x1="156.096" y1="1366.55" x2="167.155" y2="1365.09" stroke-width="1" stroke="rgb(0,0,0)" />
	<line x1="167.155" y1="1365.09" x2="170.282" y2="1386.05" stroke-width="1" stroke="rgb(0,0,0)" />
	<line x1="170.282" y1="1386.05" x2="181.883" y2="1442.29" stroke-width="1" stroke="rgb(0,0,0)" />
	<line x1="181.883" y1="1442.29" x2="170.976" y2="1445.02" stroke-width="1" stroke="rgb(0,0,0)" />
	<line x1="170.976" y1="1445.02" x2="173.081" y2="1453.5" stroke-width="1" stroke="rgb(0,0,0)" />
	<line x1="173.081" y1="1453.5" x2="194.998" y2="1522.16" stroke-width="1" stroke="rgb(0,0,0)" />
	<line x1="194.998" y1="1522.16" x2="198.725" y2="1531.62" stroke-width="1" stroke="rgb(0,0,0)" />
	<line x1="198.725" y1="1531.62" x2="209.171" y2="1527.58" stroke-width="1" stroke="rgb(0,0,0)" />
	<line x1="209.171" y1="1527.58" x2="215.074" y2="1542.25" stroke-width="1" stroke="rgb(0,0,0)" />
	<line x1="215.074" y1="1542.25" x2="204.75" y2="1546.6" stroke-width="1" stroke="rgb(0,0,0)" />
	<line x1="204.75" y1="1546.6" x2="220.246" y2="1580.84" stroke-width="1" stroke="rgb(0,0,0)" />
	<line x1="220.246" y1="1580.84" x2="230.322" y2="1575.95" stroke-width="1" stroke="rgb(0,0,0)" />
	<line x1="230.322" y1="1575.95" x2="237.125" y2="1589.45" stroke-width="1" stroke="rgb(0,0,0)" />
	<line x1="237.125" y1="1589.45" x2="227.16" y2="1594.56" stroke-width="1" stroke="rgb(0,0,0)" />
	<line x1="227.16" y1="1594.56" x2="231.345" y2="1602.75" stroke-width="1" stroke="rgb(0,0,0)" />
	<line x1="231.345" y1="1602.75" x2="241.243" y2="1597.51" stroke-width="1" stroke="rgb(0,0,0)" />
	<line x1="241.243" y1="1597.51" x2="246.761" y2="1607.72" stroke-width="1" stroke="rgb(0,0,0)" />
	<line x1="246.761" y1="1607.72" x2="236.952" y2="1613.13" stroke-width="1" stroke="rgb(0,0,0)" />
	<line x1="236.952" y1="1613.13" x2="249.179" y2="1634.42" stroke-width="1" stroke="rgb(0,0,0)" />
	<line x1="249.179" y1="1634.42" x2="258.792" y2="1628.67" stroke-width="1" stroke="rgb(0,0,0)" />
	<line x1="258.792" y1="1628.67" x2="266.928" y2="1641.94" stroke-width="1" stroke="rgb(0,0,0)" />
	<line x1="266.928" y1="1641.94" x2="257.45" y2="1647.9" stroke-width="1" stroke="rgb(0,0,0)" />
	<line x1="257.45" y1="1647.9" x2="269.305" y2="1666.12" stroke-width="1" stroke="rgb(0,0,0)" />
	<line x1="269.305" y1="1666.12" x2="278.596" y2="1659.87" stroke-width="1" stroke="rgb(0,0,0)" />
	<line x1="278.596" y1="1659.87" x2="285.471" y2="1669.89" stroke-width="1" stroke="rgb(0,0,0)" />
	<line x1="285.471" y1="1669.89" x2="276.291" y2="1676.3" stroke-width="1" stroke="rgb(0,0,0)" />
	<line x1="276.291" y1="1676.3" x2="286.459" y2="1690.47" stroke-width="1" stroke="rgb(0,0,0)" />
	<line x1="286.459" y1="1690.47" x2="295.515" y2="1683.88" stroke-width="1" stroke="rgb(0,0,0)" />
	<line x1="295.515" y1="1683.88" x2="304.938" y2="1696.37" stroke-width="1" stroke="rgb(0,0,0)" />
	<line x1="304.938" y1="1696.37" x2="296.055" y2="1703.18" stroke-width="1" stroke="rgb(0,0,0)" />
	<line x1="296.055" y1="1703.18" x2="309.08" y2="1719.53" stroke-width="1" stroke="rgb(0,0,0)" />
	<line x1="309.08" y1="1719.53" x2="317.698" y2="1712.4" stroke-width="1" stroke="rgb(0,0,0)" />
	<line x1="317.698" y1="1712.4" x2="322.302" y2="1717.91" stroke-width="1" stroke="rgb(0,0,0)" />
	<line x1="322.302" y1="1717.91" x2="313.721" y2="1725.11" stroke-width="1" stroke="rgb(0,0,0)" />
	<line x1="313.721" y1="1725.11" x2="316.421" y2="1728.32" stroke-width="1" stroke="rgb(0,0,0)" />
	<line x1="316.421" y1="1728.32" x2="321.126" y2="1733.81" stroke-width="1" stroke="rgb(0,0,0)" />
	<line x1="321.126" y1="1733.81" x2="329.588" y2="1726.47" stroke-width="1" stroke="rgb(0,0,0)" />
	<line x1="329.588" y1="1726.47" x2="336.668" y2="1734.51" stroke-width="1" stroke="rgb(0,0,0)" />
	<line x1="336.668" y1="1734.51" x2="328.321" y2="1741.98" stroke-width="1" stroke="rgb(0,0,0)" />
	<line x1="328.321" y1="1741.98" x2="348.396" y2="1763.49" stroke-width="1" stroke="rgb(0,0,0)" />
	<line x1="348.396" y1="1763.49" x2="356.421" y2="1755.68" stroke-width="1" stroke="rgb(0,0,0)" />
	<line x1="356.421" y1="1755.68" x2="366.879" y2="1766.19" stroke-width="1" stroke="rgb(0,0,0)" />
	<line x1="366.879" y1="1766.19" x2="359.024" y2="1774.17" stroke-width="1" stroke="rgb(0,0,0)" />
	<line x1="359.024" y1="1774.17" x2="369.385" y2="1784.16" stroke-width="1" stroke="rgb(0,0,0)" />
	<line x1="369.385" y1="1784.16" x2="377.11" y2="1776.05" stroke-width="1" stroke="rgb(0,0,0)" />
	<line x1="377.11" y1="1776.05" x2="392.751" y2="1790.38" stroke-width="1" stroke="rgb(0,0,0)" />
	<line x1="392.751" y1="1790.38" x2="385.345" y2="1798.77" stroke-width="1" stroke="rgb(0,0,0)" />
	<line x1="385.345" y1="1798.77" x2="391.493" y2="1804.16" stroke-width="1" stroke="rgb(0,0,0)" />
	<line x1="391.493" y1="1804.16" x2="398.849" y2="1795.72" stroke-width="1" stroke="rgb(0,0,0)" />
	<line x1="398.849" y1="1795.72" x2="408.008" y2="1803.51" stroke-width="1" stroke="rgb(0,0,0)" />
	<line x1="408.008" y1="1803.51" x2="400.819" y2="1812.1" stroke-width="1" stroke="rgb(0,0,0)" />
	<line x1="400.819" y1="1812.1" x2="406.342" y2="1816.68" stroke-width="1" stroke="rgb(0,0,0)" />
	<line x1="406.342" y1="1816.68" x2="413.459" y2="1808.03" stroke-width="1" stroke="rgb(0,0,0)" />
	<line x1="413.459" y1="1808.03" x2="420.851" y2="1814.01" stroke-width="1" stroke="rgb(0,0,0)" />
	<line x1="420.851" y1="1814.01" x2="413.864" y2="1822.76" stroke-width="1" stroke="rgb(0,0,0)" />
	<line x1="413.864" y1="1822.76" x2="429.536" y2="1834.88" stroke-width="1" stroke="rgb(0,0,0)" />
	<line x1="429.536" y1="1834.88" x2="436.267" y2="1825.93" stroke-width="1" stroke="rgb(0,0,0)" />
	<line x1="436.267" y1="1825.93" x2="448.258" y2="1834.74" stroke-width="1" stroke="rgb(0,0,0)" />
	<line x1="448.258" y1="1834.74" x2="441.726" y2="1843.84" stroke-width="1" stroke="rgb(0,0,0)" />
	<line x1="441.726" y1="1843.84" x2="465.309" y2="1860.05" stroke-width="1" stroke="rgb(0,0,0)" />
	<line x1="465.309" y1="1860.05" x2="471.464" y2="1850.69" stroke-width="1" stroke="rgb(0,0,0)" />
	<line x1="471.464" y1="1850.69" x2="484.494" y2="1859.06" stroke-width="1" stroke="rgb(0,0,0)" />
	<line x1="484.494" y1="1859.06" x2="478.551" y2="1868.55" stroke-width="1" stroke="rgb(0,0,0)" />
	<line x1="478.551" y1="1868.55" x2="517.886" y2="1891.43" stroke-width="1" stroke="rgb(0,0,0)" />
	<line x1="517.886" y1="1891.43" x2="523.199" y2="1881.57" stroke-width="1" stroke="rgb(0,0,0)" />
	<line x1="523.199" y1="1881.57" x2="536.91" y2="1888.76" stroke-width="1" stroke="rgb(0,0,0)" />
	<line x1="536.91" y1="1888.76" x2="531.819" y2="1898.74" stroke-width="1" stroke="rgb(0,0,0)" />
	<line x1="531.819" y1="1898.74" x2="542.166" y2="1903.91" stroke-width="1" stroke="rgb(0,0,0)" />
	<line x1="542.166" y1="1903.91" x2="547.112" y2="1893.86" stroke-width="1" stroke="rgb(0,0,0)" />
	<line x1="547.112" y1="1893.86" x2="555.675" y2="1897.98" stroke-width="1" stroke="rgb(0,0,0)" />
	<line x1="555.675" y1="1897.98" x2="550.879" y2="1908.1" stroke-width="1" stroke="rgb(0,0,0)" />
	<line x1="550.879" y1="1908.1" x2="568.912" y2="1916.32" stroke-width="1" stroke="rgb(0,0,0)" />
	<line x1="568.912" y1="1916.32" x2="573.414" y2="1906.06" stroke-width="1" stroke="rgb(0,0,0)" />
	<line x1="573.414" y1="1906.06" x2="587.103" y2="1911.89" stroke-width="1" stroke="rgb(0,0,0)" />
	<line x1="587.103" y1="1911.89" x2="582.829" y2="1922.24" stroke-width="1" stroke="rgb(0,0,0)" />
	<line x1="582.829" y1="1922.24" x2="594.462" y2="1926.92" stroke-width="1" stroke="rgb(0,0,0)" />
	<line x1="594.462" y1="1926.92" x2="598.55" y2="1916.5" stroke-width="1" stroke="rgb(0,0,0)" />
	<line x1="598.55" y1="1916.5" x2="610.503" y2="1921.05" stroke-width="1" stroke="rgb(0,0,0)" />
	<line x1="610.503" y1="1921.05" x2="606.609" y2="1931.56" stroke-width="1" stroke="rgb(0,0,0)" />
	<line x1="606.609" y1="1931.56" x2="621.808" y2="1936.95" stroke-width="1" stroke="rgb(0,0,0)" />
	<line x1="621.808" y1="1936.95" x2="625.459" y2="1926.36" stroke-width="1" stroke="rgb(0,0,0)" />
	<line x1="625.459" y1="1926.36" x2="638.357" y2="1930.64" stroke-width="1" stroke="rgb(0,0,0)" />
	<line x1="638.357" y1="1930.64" x2="634.915" y2="1941.3" stroke-width="1" stroke="rgb(0,0,0)" />
	<line x1="634.915" y1="1941.3" x2="650.993" y2="1946.35" stroke-width="1" stroke="rgb(0,0,0)" />
	<line x1="650.993" y1="1946.35" x2="654.117" y2="1935.59" stroke-width="1" stroke="rgb(0,0,0)" />
	<line x1="654.117" y1="1935.59" x2="671.373" y2="1940.47" stroke-width="1" stroke="rgb(0,0,0)" />
	<line x1="671.373" y1="1940.47" x2="668.299" y2="1951.24" stroke-width="1" stroke="rgb(0,0,0)" />
	<line x1="668.299" y1="1951.24" x2="670.508" y2="1951.83" stroke-width="1" stroke="rgb(0,0,0)" />
	<line x1="670.508" y1="1951.83" x2="682.783" y2="1954.97" stroke-width="1" stroke="rgb(0,0,0)" />
	<line x1="682.783" y1="1954.97" x2="685.313" y2="1944.05" stroke-width="1" stroke="rgb(0,0,0)" />
	<line x1="685.313" y1="1944.05" x2="697.14" y2="1946.85" stroke-width="1" stroke="rgb(0,0,0)" />
	<line x1="697.14" y1="1946.85" x2="694.654" y2="1957.77" stroke-width="1" stroke="rgb(0,0,0)" />
	<line x1="694.654" y1="1957.77" x2="703.483" y2="1959.72" stroke-width="1" stroke="rgb(0,0,0)" />
	<line x1="703.483" y1="1959.72" x2="705.827" y2="1948.77" stroke-width="1" stroke="rgb(0,0,0)" />
	<line x1="705.827" y1="1948.77" x2="716.333" y2="1950.94" stroke-width="1" stroke="rgb(0,0,0)" />
	<line x1="716.333" y1="1950.94" x2="714.025" y2="1961.9" stroke-width="1" stroke="rgb(0,0,0)" />
	<line x1="714.025" y1="1961.9" x2="729.052" y2="1964.7" stroke-width="1" stroke="rgb(0,0,0)" />
	<line x1="729.052" y1="1964.7" x2="730.976" y2="1953.67" stroke-width="1" stroke="rgb(0,0,0)" />
	<line x1="730.976" y1="1953.67" x2="745.247" y2="1956.02" stroke-width="1" stroke="rgb(0,0,0)" />
	<line x1="745.247" y1="1956.02" x2="743.544" y2="1967.09" stroke-width="1" stroke="rgb(0,0,0)" />
	<line x1="743.544" y1="1967.09" x2="795.977" y2="1973.14" stroke-width="1" stroke="rgb(0,0,0)" />
	<line x1="795.977" y1="1973.14" x2="868.024" y2="1975" stroke-width="1" stroke="rgb(0,0,0)" />
	<line x1="868.024" y1="1975" x2="924.04" y2="1970.66" stroke-width="1" stroke="rgb(0,0,0)" />
</svg>
