<?xml version="1.0" standalone="no" ?>
<!DOCTYPE svg PUBLIC "-//W3C//DTD SVG 1.1//EN" "http://www.w3.org/Graphics/SVG/1.1/DTD/svg11.dtd">
<svg width="2000px" height="2000px" xmlns="http://www.w3.org/2000/svg" version="1.1" >
	<line x1="894.571" y1="1972.95" x2="939.879" y2="1969.44" stroke-width="1" stroke="rgb(0,0,0)" />
	<line x1="939.879" y1="1969.44" x2="947.95" y2="1968.28" stroke-width="1" stroke="rgb(0,0,0)" />
	<line x1="947.95" y1="1968.28" x2="998.209" y2="1959.31" stroke-width="1" stroke="rgb(0,0,0)" />
	<line x1="998.209" y1="1959.31" x2="995.807" y2="1948.22" stroke-width="1" stroke="rgb(0,0,0)" />
	<line x1="995.807" y1="1948.22" x2="1019.61" y2="1942.64" stroke-width="1" stroke="rgb(0,0,0)" />
	<line x1="1019.61" y1="1942.64" x2="1022.37" y2="1953.48" stroke-width="1" stroke="rgb(0,0,0)" />
	<line x1="1022.37" y1="1953.48" x2="1033.11" y2="1950.81" stroke-width="1" stroke="rgb(0,0,0)" />
	<line x1="1033.11" y1="1950.81" x2="1030.14" y2="1939.84" stroke-width="1" stroke="rgb(0,0,0)" />
	<line x1="1030.14" y1="1939.84" x2="1057.77" y2="1931.74" stroke-width="1" stroke="rgb(0,0,0)" />
	<line x1="1057.77" y1="1931.74" x2="1076.03" y2="1925.89" stroke-width="1" stroke="rgb(0,0,0)" />
	<line x1="1076.03" y1="1925.89" x2="1104.36" y2="1915.27" stroke-width="1" stroke="rgb(0,0,0)" />
	<line x1="1104.36" y1="1915.27" x2="1108.45" y2="1925.55" stroke-width="1" stroke="rgb(0,0,0)" />
	<line x1="1108.45" y1="1925.55" x2="1119.62" y2="1921.13" stroke-width="1" stroke="rgb(0,0,0)" />
	<line x1="1119.62" y1="1921.13" x2="1115.36" y2="1910.77" stroke-width="1" stroke="rgb(0,0,0)" />
	<line x1="1115.36" y1="1910.77" x2="1134.62" y2="1902.25" stroke-width="1" stroke="rgb(0,0,0)" />
	<line x1="1134.62" y1="1902.25" x2="1139.25" y2="1912.44" stroke-width="1" stroke="rgb(0,0,0)" />
	<line x1="1139.25" y1="1912.44" x2="1148.09" y2="1908.54" stroke-width="1" stroke="rgb(0,0,0)" />
	<line x1="1148.09" y1="1908.54" x2="1143.25" y2="1898.26" stroke-width="1" stroke="rgb(0,0,0)" />
	<line x1="1143.25" y1="1898.26" x2="1168.09" y2="1886" stroke-width="1" stroke="rgb(0,0,0)" />
	<line x1="1168.09" y1="1886" x2="1183.74" y2="1877.78" stroke-width="1" stroke="rgb(0,0,0)" />
	<line x1="1183.74" y1="1877.78" x2="1207.64" y2="1863.83" stroke-width="1" stroke="rgb(0,0,0)" />
	<line x1="1207.64" y1="1863.83" x2="1213.38" y2="1873.28" stroke-width="1" stroke="rgb(0,0,0)" />
	<line x1="1213.38" y1="1873.28" x2="1223.5" y2="1867.24" stroke-width="1" stroke="rgb(0,0,0)" />
	<line x1="1223.5" y1="1867.24" x2="1217.5" y2="1857.72" stroke-width="1" stroke="rgb(0,0,0)" />
	<line x1="1217.5" y1="1857.72" x2="1234.98" y2="1846.18" stroke-width="1" stroke="rgb(0,0,0)" />
	<line x1="1234.98" y1="1846.18" x2="1241.23" y2="1855.45" stroke-width="1" stroke="rgb(0,0,0)" />
	<line x1="1241.23" y1="1855.45" x2="1249.67" y2="1849.86" stroke-width="1" stroke="rgb(0,0,0)" />
	<line x1="1249.67" y1="1849.86" x2="1243.18" y2="1840.53" stroke-width="1" stroke="rgb(0,0,0)" />
	<line x1="1243.18" y1="1840.53" x2="1266.55" y2="1823.56" stroke-width="1" stroke="rgb(0,0,0)" />
	<line x1="1266.55" y1="1823.56" x2="1281.86" y2="1811.84" stroke-width="1" stroke="rgb(0,0,0)" />
	<line x1="1281.86" y1="1811.84" x2="1305.12" y2="1792.16" stroke-width="1" stroke="rgb(0,0,0)" />
	<line x1="1305.12" y1="1792.16" x2="1312.43" y2="1800.46" stroke-width="1" stroke="rgb(0,0,0)" />
	<line x1="1312.43" y1="1800.46" x2="1325.47" y2="1788.93" stroke-width="1" stroke="rgb(0,0,0)" />
	<line x1="1325.47" y1="1788.93" x2="1375.79" y2="1737.34" stroke-width="1" stroke="rgb(0,0,0)" />
	<line x1="1375.79" y1="1737.34" x2="1384.22" y2="1727.32" stroke-width="1" stroke="rgb(0,0,0)" />
	<line x1="1384.22" y1="1727.32" x2="1412.98" y2="1691.21" stroke-width="1" stroke="rgb(0,0,0)" />
	<line x1="1412.98" y1="1691.21" x2="1403.98" y2="1684.56" stroke-width="1" stroke="rgb(0,0,0)" />
	<line x1="1403.98" y1="1684.56" x2="1415.37" y2="1668.68" stroke-width="1" stroke="rgb(0,0,0)" />
	<line x1="1415.37" y1="1668.68" x2="1424.55" y2="1675.08" stroke-width="1" stroke="rgb(0,0,0)" />
	<line x1="1424.55" y1="1675.08" x2="1447.48" y2="1639.66" stroke-width="1" stroke="rgb(0,0,0)" />
	<line x1="1447.48" y1="1639.66" x2="1457.27" y2="1623.4" stroke-width="1" stroke="rgb(0,0,0)" />
	<line x1="1457.27" y1="1623.4" x2="1460.71" y2="1617.33" stroke-width="1" stroke="rgb(0,0,0)" />
	<line x1="1460.71" y1="1617.33" x2="1469.2" y2="1600.34" stroke-width="1" stroke="rgb(0,0,0)" />
	<line x1="1469.2" y1="1600.34" x2="1479.47" y2="1581.02" stroke-width="1" stroke="rgb(0,0,0)" />
	<line x1="1479.47" y1="1581.02" x2="1491.42" y2="1555.55" stroke-width="1" stroke="rgb(0,0,0)" />
	<line x1="1491.42" y1="1555.55" x2="1499.56" y2="1535.8" stroke-width="1" stroke="rgb(0,0,0)" />
	<line x1="1499.56" y1="1535.8" x2="1513.04" y2="1499.55" stroke-width="1" stroke="rgb(0,0,0)" />
	<line x1="1513.04" y1="1499.55" x2="1517.67" y2="1485.5" stroke-width="1" stroke="rgb(0,0,0)" />
	<line x1="1517.67" y1="1485.5" x2="1523.64" y2="1465.51" stroke-width="1" stroke="rgb(0,0,0)" />
	<line x1="1523.64" y1="1465.51" x2="1512.87" y2="1462.46" stroke-width="1" stroke="rgb(0,0,0)" />
	<line x1="1512.87" y1="1462.46" x2="1516.74" y2="1448.15" stroke-width="1" stroke="rgb(0,0,0)" />
	<line x1="1516.74" y1="1448.15" x2="1527.58" y2="1450.96" stroke-width="1" stroke="rgb(0,0,0)" />
	<line x1="1527.58" y1="1450.96" x2="1533.56" y2="1425.99" stroke-width="1" stroke="rgb(0,0,0)" />
	<line x1="1533.56" y1="1425.99" x2="1537.13" y2="1408.73" stroke-width="1" stroke="rgb(0,0,0)" />
	<line x1="1537.13" y1="1408.73" x2="1539.81" y2="1393.06" stroke-width="1" stroke="rgb(0,0,0)" />
	<line x1="1539.81" y1="1393.06" x2="1544.36" y2="1363.37" stroke-width="1" stroke="rgb(0,0,0)" />
	<line x1="1544.36" y1="1363.37" x2="1546.29" y2="1347.21" stroke-width="1" stroke="rgb(0,0,0)" />
	<line x1="1546.29" y1="1347.21" x2="1548.81" y2="1315.97" stroke-width="1" stroke="rgb(0,0,0)" />
	<line x1="1548.81" y1="1315.97" x2="1537.63" y2="1315.32" stroke-width="1" stroke="rgb(0,0,0)" />
	<line x1="1537.63" y1="1315.32" x2="1538.31" y2="1301.15" stroke-width="1" stroke="rgb(0,0,0)" />
	<line x1="1538.31" y1="1301.15" x2="1549.5" y2="1301.57" stroke-width="1" stroke="rgb(0,0,0)" />
	<line x1="1549.5" y1="1301.57" x2="1550" y2="1275.23" stroke-width="1" stroke="rgb(0,0,0)" />
	<line x1="1550" y1="1275.23" x2="1549.66" y2="1253.43" stroke-width="1" stroke="rgb(0,0,0)" />
	<line x1="1549.66" y1="1253.43" x2="1538.47" y2="1253.78" stroke-width="1" stroke="rgb(0,0,0)" />
	<line x1="1538.47" y1="1253.78" x2="1537.88" y2="1239.61" stroke-width="1" stroke="rgb(0,0,0)" />
	<line x1="1537.88" y1="1239.61" x2="1549.06" y2="1238.98" stroke-width="1" stroke="rgb(0,0,0)" />
	<line x1="1549.06" y1="1238.98" x2="1546.56" y2="1205.97" stroke-width="1" stroke="rgb(0,0,0)" />
	<line x1="1546.56" y1="1205.97" x2="1542.26" y2="1171.55" stroke-width="1" stroke="rgb(0,0,0)" />
	<line x1="1542.26" y1="1171.55" x2="1539.91" y2="1156.86" stroke-width="1" stroke="rgb(0,0,0)" />
	<line x1="1539.91" y1="1156.86" x2="1535.66" y2="1134.29" stroke-width="1" stroke="rgb(0,0,0)" />
	<line x1="1535.66" y1="1134.29" x2="1533.25" y2="1123.14" stroke-width="1" stroke="rgb(0,0,0)" />
	<line x1="1533.25" y1="1123.14" x2="1522.72" y2="1082.12" stroke-width="1" stroke="rgb(0,0,0)" />
	<line x1="1522.72" y1="1082.12" x2="1515.92" y2="1059.48" stroke-width="1" stroke="rgb(0,0,0)" />
	<line x1="1515.92" y1="1059.48" x2="1511.09" y2="1045.34" stroke-width="1" stroke="rgb(0,0,0)" />
	<line x1="1511.09" y1="1045.34" x2="1501.46" y2="1019.66" stroke-width="1" stroke="rgb(0,0,0)" />
	<line x1="1501.46" y1="1019.66" x2="1491.42" y2="994.914" stroke-width="1" stroke="rgb(0,0,0)" />
	<line x1="1491.42" y1="994.914" x2="1459.2" y2="930.448" stroke-width="1" stroke="rgb(0,0,0)" />
	<line x1="1459.2" y1="930.448" x2="1420.52" y2="869.637" stroke-width="1" stroke="rgb(0,0,0)" />
	<line x1="1420.52" y1="869.637" x2="1409.27" y2="854.793" stroke-width="1" stroke="rgb(0,0,0)" />
	<line x1="1409.27" y1="854.793" x2="1375.73" y2="813.18" stroke-width="1" stroke="rgb(0,0,0)" />
	<line x1="1375.73" y1="813.18" x2="1368.32" y2="804.841" stroke-width="1" stroke="rgb(0,0,0)" />
	<line x1="1368.32" y1="804.841" x2="1359.92" y2="812.466" stroke-width="1" stroke="rgb(0,0,0)" />
	<line x1="1359.92" y1="812.466" x2="1343.18" y2="794.64" stroke-width="1" stroke="rgb(0,0,0)" />
	<line x1="1343.18" y1="794.64" x2="1351.19" y2="786.834" stroke-width="1" stroke="rgb(0,0,0)" />
	<line x1="1351.19" y1="786.834" x2="1343.51" y2="778.865" stroke-width="1" stroke="rgb(0,0,0)" />
	<line x1="1343.51" y1="778.865" x2="1335.5" y2="786.922" stroke-width="1" stroke="rgb(0,0,0)" />
	<line x1="1335.5" y1="786.922" x2="1314.67" y2="767.04" stroke-width="1" stroke="rgb(0,0,0)" />
	<line x1="1314.67" y1="767.04" x2="1300.47" y2="754.157" stroke-width="1" stroke="rgb(0,0,0)" />
	<line x1="1300.47" y1="754.157" x2="1277.11" y2="734.926" stroke-width="1" stroke="rgb(0,0,0)" />
	<line x1="1277.11" y1="734.926" x2="1283.97" y2="726.251" stroke-width="1" stroke="rgb(0,0,0)" />
	<line x1="1283.97" y1="726.251" x2="1274.56" y2="718.789" stroke-width="1" stroke="rgb(0,0,0)" />
	<line x1="1274.56" y1="718.789" x2="1267.76" y2="727.692" stroke-width="1" stroke="rgb(0,0,0)" />
	<line x1="1267.76" y1="727.692" x2="1250.7" y2="715.234" stroke-width="1" stroke="rgb(0,0,0)" />
	<line x1="1250.7" y1="715.234" x2="1257.22" y2="706.126" stroke-width="1" stroke="rgb(0,0,0)" />
	<line x1="1257.22" y1="706.126" x2="1249.41" y2="700.427" stroke-width="1" stroke="rgb(0,0,0)" />
	<line x1="1249.41" y1="700.427" x2="1242.93" y2="709.758" stroke-width="1" stroke="rgb(0,0,0)" />
	<line x1="1242.93" y1="709.758" x2="1219.9" y2="694.377" stroke-width="1" stroke="rgb(0,0,0)" />
	<line x1="1219.9" y1="694.377" x2="1204.95" y2="684.931" stroke-width="1" stroke="rgb(0,0,0)" />
	<line x1="1204.95" y1="684.931" x2="1180.92" y2="671.203" stroke-width="1" stroke="rgb(0,0,0)" />
	<line x1="1180.92" y1="671.203" x2="1186.23" y2="661.511" stroke-width="1" stroke="rgb(0,0,0)" />
	<line x1="1186.23" y1="661.511" x2="1175.94" y2="655.77" stroke-width="1" stroke="rgb(0,0,0)" />
	<line x1="1175.94" y1="655.77" x2="1170.7" y2="665.724" stroke-width="1" stroke="rgb(0,0,0)" />
	<line x1="1170.7" y1="665.724" x2="1151.96" y2="656.361" stroke-width="1" stroke="rgb(0,0,0)" />
	<line x1="1151.96" y1="656.361" x2="1156.87" y2="646.307" stroke-width="1" stroke="rgb(0,0,0)" />
	<line x1="1156.87" y1="646.307" x2="1147.81" y2="641.796" stroke-width="1" stroke="rgb(0,0,0)" />
	<line x1="1147.81" y1="641.796" x2="1142.98" y2="652.078" stroke-width="1" stroke="rgb(0,0,0)" />
	<line x1="1142.98" y1="652.078" x2="1116.59" y2="640.33" stroke-width="1" stroke="rgb(0,0,0)" />
	<line x1="1116.59" y1="640.33" x2="1098.78" y2="632.929" stroke-width="1" stroke="rgb(0,0,0)" />
	<line x1="1098.78" y1="632.929" x2="1070.12" y2="622.621" stroke-width="1" stroke="rgb(0,0,0)" />
	<line x1="1070.12" y1="622.621" x2="1073.65" y2="612.143" stroke-width="1" stroke="rgb(0,0,0)" />
	<line x1="1073.65" y1="612.143" x2="1043.58" y2="602.958" stroke-width="1" stroke="rgb(0,0,0)" />
	<line x1="1043.58" y1="602.958" x2="1010.78" y2="593.947" stroke-width="1" stroke="rgb(0,0,0)" />
	<line x1="1010.78" y1="593.947" x2="987.658" y2="589.425" stroke-width="1" stroke="rgb(0,0,0)" />
	<line x1="987.658" y1="589.425" x2="963.373" y2="585.41" stroke-width="1" stroke="rgb(0,0,0)" />
	<line x1="963.373" y1="585.41" x2="939.866" y2="581.126" stroke-width="1" stroke="rgb(0,0,0)" />
	<line x1="939.866" y1="581.126" x2="928.76" y2="579.688" stroke-width="1" stroke="rgb(0,0,0)" />
	<line x1="928.76" y1="579.688" x2="927.509" y2="590.804" stroke-width="1" stroke="rgb(0,0,0)" />
	<line x1="927.509" y1="590.804" x2="908.052" y2="588.879" stroke-width="1" stroke="rgb(0,0,0)" />
	<line x1="908.052" y1="588.879" x2="909.003" y2="577.733" stroke-width="1" stroke="rgb(0,0,0)" />
	<line x1="909.003" y1="577.733" x2="868.024" y2="575.464" stroke-width="1" stroke="rgb(0,0,0)" />
	<line x1="868.024" y1="575.464" x2="847.963" y2="575.981" stroke-width="1" stroke="rgb(0,0,0)" />
	<line x1="847.963" y1="575.981" x2="827.266" y2="575.857" stroke-width="1" stroke="rgb(0,0,0)" />
	<line x1="827.266" y1="575.857" x2="801.317" y2="576.934" stroke-width="1" stroke="rgb(0,0,0)" />
	<line x1="801.317" y1="576.934" x2="775.144" y2="579.394" stroke-width="1" stroke="rgb(0,0,0)" />
	<line x1="775.144" y1="579.394" x2="734.872" y2="584.796" stroke-width="1" stroke="rgb(0,0,0)" />
	<line x1="734.872" y1="584.796" x2="711.604" y2="589.098" stroke-width="1" stroke="rgb(0,0,0)" />
	<line x1="711.604" y1="589.098" x2="677.961" y2="596.703" stroke-width="1" stroke="rgb(0,0,0)" />
	<line x1="677.961" y1="596.703" x2="680.713" y2="607.559" stroke-width="1" stroke="rgb(0,0,0)" />
	<line x1="680.713" y1="607.559" x2="666.378" y2="611.358" stroke-width="1" stroke="rgb(0,0,0)" />
	<line x1="666.378" y1="611.358" x2="663.392" y2="600.564" stroke-width="1" stroke="rgb(0,0,0)" />
	<line x1="663.392" y1="600.564" x2="647.917" y2="605.051" stroke-width="1" stroke="rgb(0,0,0)" />
	<line x1="647.917" y1="605.051" x2="634.016" y2="609.501" stroke-width="1" stroke="rgb(0,0,0)" />
	<line x1="634.016" y1="609.501" x2="607.372" y2="619.325" stroke-width="1" stroke="rgb(0,0,0)" />
	<line x1="607.372" y1="619.325" x2="588.992" y2="625.718" stroke-width="1" stroke="rgb(0,0,0)" />
	<line x1="588.992" y1="625.718" x2="575.837" y2="631.195" stroke-width="1" stroke="rgb(0,0,0)" />
	<line x1="575.837" y1="631.195" x2="535.877" y2="649.671" stroke-width="1" stroke="rgb(0,0,0)" />
	<line x1="535.877" y1="649.671" x2="540.903" y2="659.68" stroke-width="1" stroke="rgb(0,0,0)" />
	<line x1="540.903" y1="659.68" x2="528.286" y2="666.178" stroke-width="1" stroke="rgb(0,0,0)" />
	<line x1="528.286" y1="666.178" x2="523.057" y2="656.276" stroke-width="1" stroke="rgb(0,0,0)" />
	<line x1="523.057" y1="656.276" x2="508.517" y2="664.282" stroke-width="1" stroke="rgb(0,0,0)" />
	<line x1="508.517" y1="664.282" x2="481.291" y2="680.209" stroke-width="1" stroke="rgb(0,0,0)" />
	<line x1="481.291" y1="680.209" x2="487.19" y2="689.728" stroke-width="1" stroke="rgb(0,0,0)" />
	<line x1="487.19" y1="689.728" x2="475.212" y2="697.323" stroke-width="1" stroke="rgb(0,0,0)" />
	<line x1="475.212" y1="697.323" x2="469.117" y2="687.926" stroke-width="1" stroke="rgb(0,0,0)" />
	<line x1="469.117" y1="687.926" x2="446.831" y2="703.065" stroke-width="1" stroke="rgb(0,0,0)" />
	<line x1="446.831" y1="703.065" x2="413.075" y2="728.34" stroke-width="1" stroke="rgb(0,0,0)" />
	<line x1="413.075" y1="728.34" x2="403.018" y2="736.524" stroke-width="1" stroke="rgb(0,0,0)" />
	<line x1="403.018" y1="736.524" x2="390.507" y2="747.239" stroke-width="1" stroke="rgb(0,0,0)" />
	<line x1="390.507" y1="747.239" x2="366.357" y2="769.433" stroke-width="1" stroke="rgb(0,0,0)" />
	<line x1="366.357" y1="769.433" x2="352.968" y2="782.337" stroke-width="1" stroke="rgb(0,0,0)" />
	<line x1="352.968" y1="782.337" x2="334.878" y2="801.459" stroke-width="1" stroke="rgb(0,0,0)" />
	<line x1="334.878" y1="801.459" x2="314.222" y2="824.899" stroke-width="1" stroke="rgb(0,0,0)" />
	<line x1="314.222" y1="824.899" x2="301.116" y2="840.805" stroke-width="1" stroke="rgb(0,0,0)" />
	<line x1="301.116" y1="840.805" x2="259.357" y2="899.545" stroke-width="1" stroke="rgb(0,0,0)" />
	<line x1="259.357" y1="899.545" x2="223.859" y2="962.267" stroke-width="1" stroke="rgb(0,0,0)" />
	<line x1="223.859" y1="962.267" x2="195.048" y2="1028.32" stroke-width="1" stroke="rgb(0,0,0)" />
	<line x1="195.048" y1="1028.32" x2="183.468" y2="1061.55" stroke-width="1" stroke="rgb(0,0,0)" />
	<line x1="183.468" y1="1061.55" x2="194.273" y2="1065.01" stroke-width="1" stroke="rgb(0,0,0)" />
	<line x1="194.273" y1="1065.01" x2="187.205" y2="1088.42" stroke-width="1" stroke="rgb(0,0,0)" />
	<line x1="187.205" y1="1088.42" x2="176.439" y2="1085.39" stroke-width="1" stroke="rgb(0,0,0)" />
	<line x1="176.439" y1="1085.39" x2="173.379" y2="1096.02" stroke-width="1" stroke="rgb(0,0,0)" />
	<line x1="173.379" y1="1096.02" x2="184.362" y2="1098.93" stroke-width="1" stroke="rgb(0,0,0)" />
	<line x1="184.362" y1="1098.93" x2="177.56" y2="1126.91" stroke-width="1" stroke="rgb(0,0,0)" />
	<line x1="177.56" y1="1126.91" x2="173.499" y2="1145.65" stroke-width="1" stroke="rgb(0,0,0)" />
	<line x1="173.499" y1="1145.65" x2="168.527" y2="1175.5" stroke-width="1" stroke="rgb(0,0,0)" />
	<line x1="168.527" y1="1175.5" x2="157.586" y2="1173.9" stroke-width="1" stroke="rgb(0,0,0)" />
	<line x1="157.586" y1="1173.9" x2="156.081" y2="1183.21" stroke-width="1" stroke="rgb(0,0,0)" />
	<line x1="156.081" y1="1183.21" x2="155.829" y2="1185.78" stroke-width="1" stroke="rgb(0,0,0)" />
	<line x1="155.829" y1="1185.78" x2="166.935" y2="1187.21" stroke-width="1" stroke="rgb(0,0,0)" />
	<line x1="166.935" y1="1187.21" x2="164.678" y2="1208.22" stroke-width="1" stroke="rgb(0,0,0)" />
	<line x1="164.678" y1="1208.22" x2="153.532" y2="1207.13" stroke-width="1" stroke="rgb(0,0,0)" />
	<line x1="153.532" y1="1207.13" x2="152.498" y2="1216.73" stroke-width="1" stroke="rgb(0,0,0)" />
	<line x1="152.498" y1="1216.73" x2="163.82" y2="1217.68" stroke-width="1" stroke="rgb(0,0,0)" />
	<line x1="163.82" y1="1217.68" x2="162.018" y2="1245.32" stroke-width="1" stroke="rgb(0,0,0)" />
	<line x1="162.018" y1="1245.32" x2="161.309" y2="1262.99" stroke-width="1" stroke="rgb(0,0,0)" />
	<line x1="161.309" y1="1262.99" x2="161.434" y2="1290.66" stroke-width="1" stroke="rgb(0,0,0)" />
	<line x1="161.434" y1="1290.66" x2="150.389" y2="1290.91" stroke-width="1" stroke="rgb(0,0,0)" />
	<line x1="150.389" y1="1290.91" x2="150.56" y2="1302.69" stroke-width="1" stroke="rgb(0,0,0)" />
	<line x1="150.56" y1="1302.69" x2="161.798" y2="1302.25" stroke-width="1" stroke="rgb(0,0,0)" />
	<line x1="161.798" y1="1302.25" x2="163.06" y2="1323.16" stroke-width="1" stroke="rgb(0,0,0)" />
	<line x1="163.06" y1="1323.16" x2="151.901" y2="1323.94" stroke-width="1" stroke="rgb(0,0,0)" />
	<line x1="151.901" y1="1323.94" x2="152.524" y2="1334.04" stroke-width="1" stroke="rgb(0,0,0)" />
	<line x1="152.524" y1="1334.04" x2="163.845" y2="1333.08" stroke-width="1" stroke="rgb(0,0,0)" />
	<line x1="163.845" y1="1333.08" x2="166.864" y2="1361.81" stroke-width="1" stroke="rgb(0,0,0)" />
	<line x1="166.864" y1="1361.81" x2="169.358" y2="1380.93" stroke-width="1" stroke="rgb(0,0,0)" />
	<line x1="169.358" y1="1380.93" x2="174.764" y2="1410.91" stroke-width="1" stroke="rgb(0,0,0)" />
	<line x1="174.764" y1="1410.91" x2="163.923" y2="1413.09" stroke-width="1" stroke="rgb(0,0,0)" />
	<line x1="163.923" y1="1413.09" x2="168.843" y2="1436.06" stroke-width="1" stroke="rgb(0,0,0)" />
	<line x1="168.843" y1="1436.06" x2="173.081" y2="1453.5" stroke-width="1" stroke="rgb(0,0,0)" />
	<line x1="173.081" y1="1453.5" x2="194.998" y2="1522.16" stroke-width="1" stroke="rgb(0,0,0)" />
	<line x1="194.998" y1="1522.16" x2="208.261" y2="1554.8" stroke-width="1" stroke="rgb(0,0,0)" />
	<line x1="208.261" y1="1554.8" x2="218.516" y2="1550.33" stroke-width="1" stroke="rgb(0,0,0)" />
	<line x1="218.516" y1="1550.33" x2="226.575" y2="1568.13" stroke-width="1" stroke="rgb(0,0,0)" />
	<line x1="226.575" y1="1568.13" x2="216.447" y2="1572.88" stroke-width="1" stroke="rgb(0,0,0)" />
	<line x1="216.447" y1="1572.88" x2="229.26" y2="1598.7" stroke-width="1" stroke="rgb(0,0,0)" />
	<line x1="229.26" y1="1598.7" x2="248.359" y2="1632.83" stroke-width="1" stroke="rgb(0,0,0)" />
	<line x1="248.359" y1="1632.83" x2="262.388" y2="1655.63" stroke-width="1" stroke="rgb(0,0,0)" />
	<line x1="262.388" y1="1655.63" x2="267.901" y2="1663.91" stroke-width="1" stroke="rgb(0,0,0)" />
	<line x1="267.901" y1="1663.91" x2="277.599" y2="1677.46" stroke-width="1" stroke="rgb(0,0,0)" />
	<line x1="277.599" y1="1677.46" x2="298.136" y2="1705.85" stroke-width="1" stroke="rgb(0,0,0)" />
	<line x1="298.136" y1="1705.85" x2="301.736" y2="1710.44" stroke-width="1" stroke="rgb(0,0,0)" />
	<line x1="301.736" y1="1710.44" x2="315.555" y2="1727.08" stroke-width="1" stroke="rgb(0,0,0)" />
	<line x1="315.555" y1="1727.08" x2="333.993" y2="1748.05" stroke-width="1" stroke="rgb(0,0,0)" />
	<line x1="333.993" y1="1748.05" x2="348.396" y2="1763.49" stroke-width="1" stroke="rgb(0,0,0)" />
	<line x1="348.396" y1="1763.49" x2="356.421" y2="1755.68" stroke-width="1" stroke="rgb(0,0,0)" />
	<line x1="356.421" y1="1755.68" x2="366.879" y2="1766.19" stroke-width="1" stroke="rgb(0,0,0)" />
	<line x1="366.879" y1="1766.19" x2="359.024" y2="1774.17" stroke-width="1" stroke="rgb(0,0,0)" />
	<line x1="359.024" y1="1774.17" x2="385.315" y2="1798.59" stroke-width="1" stroke="rgb(0,0,0)" />
	<line x1="385.315" y1="1798.59" x2="395.605" y2="1807.68" stroke-width="1" stroke="rgb(0,0,0)" />
	<line x1="395.605" y1="1807.68" x2="401.585" y2="1812.75" stroke-width="1" stroke="rgb(0,0,0)" />
	<line x1="401.585" y1="1812.75" x2="419.54" y2="1826.22" stroke-width="1" stroke="rgb(0,0,0)" />
	<line x1="419.54" y1="1826.22" x2="429.293" y2="1834.26" stroke-width="1" stroke="rgb(0,0,0)" />
	<line x1="429.293" y1="1834.26" x2="437.586" y2="1840.61" stroke-width="1" stroke="rgb(0,0,0)" />
	<line x1="437.586" y1="1840.61" x2="448.622" y2="1848.63" stroke-width="1" stroke="rgb(0,0,0)" />
	<line x1="448.622" y1="1848.63" x2="465.309" y2="1860.05" stroke-width="1" stroke="rgb(0,0,0)" />
	<line x1="465.309" y1="1860.05" x2="471.464" y2="1850.69" stroke-width="1" stroke="rgb(0,0,0)" />
	<line x1="471.464" y1="1850.69" x2="483.401" y2="1858.37" stroke-width="1" stroke="rgb(0,0,0)" />
	<line x1="483.401" y1="1858.37" x2="477.44" y2="1867.85" stroke-width="1" stroke="rgb(0,0,0)" />
	<line x1="477.44" y1="1867.85" x2="519.049" y2="1892.05" stroke-width="1" stroke="rgb(0,0,0)" />
	<line x1="519.049" y1="1892.05" x2="524.344" y2="1882.19" stroke-width="1" stroke="rgb(0,0,0)" />
	<line x1="524.344" y1="1882.19" x2="536.91" y2="1888.76" stroke-width="1" stroke="rgb(0,0,0)" />
	<line x1="536.91" y1="1888.76" x2="531.819" y2="1898.74" stroke-width="1" stroke="rgb(0,0,0)" />
	<line x1="531.819" y1="1898.74" x2="566.956" y2="1915.33" stroke-width="1" stroke="rgb(0,0,0)" />
	<line x1="566.956" y1="1915.33" x2="584.179" y2="1922.79" stroke-width="1" stroke="rgb(0,0,0)" />
	<line x1="584.179" y1="1922.79" x2="608.168" y2="1932.08" stroke-width="1" stroke="rgb(0,0,0)" />
	<line x1="608.168" y1="1932.08" x2="636.041" y2="1941.61" stroke-width="1" stroke="rgb(0,0,0)" />
	<line x1="636.041" y1="1941.61" x2="654.36" y2="1947.34" stroke-width="1" stroke="rgb(0,0,0)" />
	<line x1="654.36" y1="1947.34" x2="669.34" y2="1951.45" stroke-width="1" stroke="rgb(0,0,0)" />
	<line x1="669.34" y1="1951.45" x2="718.133" y2="1962.69" stroke-width="1" stroke="rgb(0,0,0)" />
	<line x1="718.133" y1="1962.69" x2="728.737" y2="1964.64" stroke-width="1" stroke="rgb(0,0,0)" />
	<line x1="728.737" y1="1964.64" x2="757.719" y2="1968.63" stroke-width="1" stroke="rgb(0,0,0)" />
	<line x1="757.719" y1="1968.63" x2="795.977" y2="1973.14" stroke-width="1" stroke="rgb(0,0,0)" />
	<line x1="795.977" y1="1973.14" x2="868.024" y2="1975" stroke-width="1" stroke="rgb(0,0,0)" />
	<line x1="868.024" y1="1975" x2="894.571" y2="1972.95" stroke-width="1" stroke="rgb(0,0,0)" />
</svg>
