<?xml version="1.0" standalone="no" ?>
<!DOCTYPE svg PUBLIC "-//W3C//DTD SVG 1.1//EN" "http://www.w3.org/Graphics/SVG/1.1/DTD/svg11.dtd">
<svg width="2000px" height="2000px" xmlns="http://www.w3.org/2000/svg" version="1.1" >
	<line x1="887.204" y1="1973.52" x2="939.879" y2="1969.44" stroke-width="1" stroke="rgb(0,0,0)" />
	<line x1="939.879" y1="1969.44" x2="972.022" y2="1964.02" stroke-width="1" stroke="rgb(0,0,0)" />
	<line x1="972.022" y1="1964.02" x2="999.675" y2="1958.98" stroke-width="1" stroke="rgb(0,0,0)" />
	<line x1="999.675" y1="1958.98" x2="1006.69" y2="1957.43" stroke-width="1" stroke="rgb(0,0,0)" />
	<line x1="1006.69" y1="1957.43" x2="1004.17" y2="1946.46" stroke-width="1" stroke="rgb(0,0,0)" />
	<line x1="1004.17" y1="1946.46" x2="1011.87" y2="1944.69" stroke-width="1" stroke="rgb(0,0,0)" />
	<line x1="1011.87" y1="1944.69" x2="1014.46" y2="1955.55" stroke-width="1" stroke="rgb(0,0,0)" />
	<line x1="1014.46" y1="1955.55" x2="1025.19" y2="1952.85" stroke-width="1" stroke="rgb(0,0,0)" />
	<line x1="1025.19" y1="1952.85" x2="1022.37" y2="1941.92" stroke-width="1" stroke="rgb(0,0,0)" />
	<line x1="1022.37" y1="1941.92" x2="1065.18" y2="1929.37" stroke-width="1" stroke="rgb(0,0,0)" />
	<line x1="1065.18" y1="1929.37" x2="1076.03" y2="1925.89" stroke-width="1" stroke="rgb(0,0,0)" />
	<line x1="1076.03" y1="1925.89" x2="1096.86" y2="1918.17" stroke-width="1" stroke="rgb(0,0,0)" />
	<line x1="1096.86" y1="1918.17" x2="1100.84" y2="1928.54" stroke-width="1" stroke="rgb(0,0,0)" />
	<line x1="1100.84" y1="1928.54" x2="1119.68" y2="1921.18" stroke-width="1" stroke="rgb(0,0,0)" />
	<line x1="1119.68" y1="1921.18" x2="1115.36" y2="1910.84" stroke-width="1" stroke="rgb(0,0,0)" />
	<line x1="1115.36" y1="1910.84" x2="1127.31" y2="1905.6" stroke-width="1" stroke="rgb(0,0,0)" />
	<line x1="1127.31" y1="1905.6" x2="1131.82" y2="1915.85" stroke-width="1" stroke="rgb(0,0,0)" />
	<line x1="1131.82" y1="1915.85" x2="1140.65" y2="1911.93" stroke-width="1" stroke="rgb(0,0,0)" />
	<line x1="1140.65" y1="1911.93" x2="1135.96" y2="1901.66" stroke-width="1" stroke="rgb(0,0,0)" />
	<line x1="1135.96" y1="1901.66" x2="1174.44" y2="1882.66" stroke-width="1" stroke="rgb(0,0,0)" />
	<line x1="1174.44" y1="1882.66" x2="1183.74" y2="1877.78" stroke-width="1" stroke="rgb(0,0,0)" />
	<line x1="1183.74" y1="1877.78" x2="1200.73" y2="1867.94" stroke-width="1" stroke="rgb(0,0,0)" />
	<line x1="1200.73" y1="1867.94" x2="1206.38" y2="1877.5" stroke-width="1" stroke="rgb(0,0,0)" />
	<line x1="1206.38" y1="1877.5" x2="1225.56" y2="1865.93" stroke-width="1" stroke="rgb(0,0,0)" />
	<line x1="1225.56" y1="1865.93" x2="1219.55" y2="1856.48" stroke-width="1" stroke="rgb(0,0,0)" />
	<line x1="1219.55" y1="1856.48" x2="1228.42" y2="1850.75" stroke-width="1" stroke="rgb(0,0,0)" />
	<line x1="1228.42" y1="1850.75" x2="1234.48" y2="1860.06" stroke-width="1" stroke="rgb(0,0,0)" />
	<line x1="1234.48" y1="1860.06" x2="1242.9" y2="1854.45" stroke-width="1" stroke="rgb(0,0,0)" />
	<line x1="1242.9" y1="1854.45" x2="1236.56" y2="1845.1" stroke-width="1" stroke="rgb(0,0,0)" />
	<line x1="1236.56" y1="1845.1" x2="1272.76" y2="1818.8" stroke-width="1" stroke="rgb(0,0,0)" />
	<line x1="1272.76" y1="1818.8" x2="1281.86" y2="1811.84" stroke-width="1" stroke="rgb(0,0,0)" />
	<line x1="1281.86" y1="1811.84" x2="1299.03" y2="1797.42" stroke-width="1" stroke="rgb(0,0,0)" />
	<line x1="1299.03" y1="1797.42" x2="1306.27" y2="1805.84" stroke-width="1" stroke="rgb(0,0,0)" />
	<line x1="1306.27" y1="1805.84" x2="1325.48" y2="1788.94" stroke-width="1" stroke="rgb(0,0,0)" />
	<line x1="1325.48" y1="1788.94" x2="1375.79" y2="1737.34" stroke-width="1" stroke="rgb(0,0,0)" />
	<line x1="1375.79" y1="1737.34" x2="1381.88" y2="1730.1" stroke-width="1" stroke="rgb(0,0,0)" />
	<line x1="1381.88" y1="1730.1" x2="1415.18" y2="1688.21" stroke-width="1" stroke="rgb(0,0,0)" />
	<line x1="1415.18" y1="1688.21" x2="1420.52" y2="1680.83" stroke-width="1" stroke="rgb(0,0,0)" />
	<line x1="1420.52" y1="1680.83" x2="1423.3" y2="1676.88" stroke-width="1" stroke="rgb(0,0,0)" />
	<line x1="1423.3" y1="1676.88" x2="1450.74" y2="1634.21" stroke-width="1" stroke="rgb(0,0,0)" />
	<line x1="1450.74" y1="1634.21" x2="1458.06" y2="1622.01" stroke-width="1" stroke="rgb(0,0,0)" />
	<line x1="1458.06" y1="1622.01" x2="1460.29" y2="1618.07" stroke-width="1" stroke="rgb(0,0,0)" />
	<line x1="1460.29" y1="1618.07" x2="1475.37" y2="1587.91" stroke-width="1" stroke="rgb(0,0,0)" />
	<line x1="1475.37" y1="1587.91" x2="1482.79" y2="1573.95" stroke-width="1" stroke="rgb(0,0,0)" />
	<line x1="1482.79" y1="1573.95" x2="1491.42" y2="1555.55" stroke-width="1" stroke="rgb(0,0,0)" />
	<line x1="1491.42" y1="1555.55" x2="1497.3" y2="1541.28" stroke-width="1" stroke="rgb(0,0,0)" />
	<line x1="1497.3" y1="1541.28" x2="1514.1" y2="1496.38" stroke-width="1" stroke="rgb(0,0,0)" />
	<line x1="1514.1" y1="1496.38" x2="1517.44" y2="1486.23" stroke-width="1" stroke="rgb(0,0,0)" />
	<line x1="1517.44" y1="1486.23" x2="1521.83" y2="1471.55" stroke-width="1" stroke="rgb(0,0,0)" />
	<line x1="1521.83" y1="1471.55" x2="1529.62" y2="1442.27" stroke-width="1" stroke="rgb(0,0,0)" />
	<line x1="1529.62" y1="1442.27" x2="1534.17" y2="1423.2" stroke-width="1" stroke="rgb(0,0,0)" />
	<line x1="1534.17" y1="1423.2" x2="1536.59" y2="1411.42" stroke-width="1" stroke="rgb(0,0,0)" />
	<line x1="1536.59" y1="1411.42" x2="1538.33" y2="1401.33" stroke-width="1" stroke="rgb(0,0,0)" />
	<line x1="1538.33" y1="1401.33" x2="1545.27" y2="1356.07" stroke-width="1" stroke="rgb(0,0,0)" />
	<line x1="1545.27" y1="1356.07" x2="1546.29" y2="1347.21" stroke-width="1" stroke="rgb(0,0,0)" />
	<line x1="1546.29" y1="1347.21" x2="1548.12" y2="1324.6" stroke-width="1" stroke="rgb(0,0,0)" />
	<line x1="1548.12" y1="1324.6" x2="1549.64" y2="1294.34" stroke-width="1" stroke="rgb(0,0,0)" />
	<line x1="1549.64" y1="1294.34" x2="1550" y2="1275.23" stroke-width="1" stroke="rgb(0,0,0)" />
	<line x1="1550" y1="1275.23" x2="1549.75" y2="1259.41" stroke-width="1" stroke="rgb(0,0,0)" />
	<line x1="1549.75" y1="1259.41" x2="1548.3" y2="1229.15" stroke-width="1" stroke="rgb(0,0,0)" />
	<line x1="1548.3" y1="1229.15" x2="1545.92" y2="1199.82" stroke-width="1" stroke="rgb(0,0,0)" />
	<line x1="1545.92" y1="1199.82" x2="1543.38" y2="1180.35" stroke-width="1" stroke="rgb(0,0,0)" />
	<line x1="1543.38" y1="1180.35" x2="1538.6" y2="1149.98" stroke-width="1" stroke="rgb(0,0,0)" />
	<line x1="1538.6" y1="1149.98" x2="1533.79" y2="1125.61" stroke-width="1" stroke="rgb(0,0,0)" />
	<line x1="1533.79" y1="1125.61" x2="1530.28" y2="1111.45" stroke-width="1" stroke="rgb(0,0,0)" />
	<line x1="1530.28" y1="1111.45" x2="1518.98" y2="1069.28" stroke-width="1" stroke="rgb(0,0,0)" />
	<line x1="1518.98" y1="1069.28" x2="1512.69" y2="1050.06" stroke-width="1" stroke="rgb(0,0,0)" />
	<line x1="1512.69" y1="1050.06" x2="1498.09" y2="1011.25" stroke-width="1" stroke="rgb(0,0,0)" />
	<line x1="1498.09" y1="1011.25" x2="1491.42" y2="994.914" stroke-width="1" stroke="rgb(0,0,0)" />
	<line x1="1491.42" y1="994.914" x2="1459.2" y2="930.448" stroke-width="1" stroke="rgb(0,0,0)" />
	<line x1="1459.2" y1="930.448" x2="1420.52" y2="869.637" stroke-width="1" stroke="rgb(0,0,0)" />
	<line x1="1420.52" y1="869.637" x2="1412.39" y2="858.912" stroke-width="1" stroke="rgb(0,0,0)" />
	<line x1="1412.39" y1="858.912" x2="1396.65" y2="839.574" stroke-width="1" stroke="rgb(0,0,0)" />
	<line x1="1396.65" y1="839.574" x2="1375.75" y2="813.165" stroke-width="1" stroke="rgb(0,0,0)" />
	<line x1="1375.75" y1="813.165" x2="1362.45" y2="798.439" stroke-width="1" stroke="rgb(0,0,0)" />
	<line x1="1362.45" y1="798.439" x2="1354.22" y2="806.099" stroke-width="1" stroke="rgb(0,0,0)" />
	<line x1="1354.22" y1="806.099" x2="1348.83" y2="800.319" stroke-width="1" stroke="rgb(0,0,0)" />
	<line x1="1348.83" y1="800.319" x2="1356.94" y2="792.646" stroke-width="1" stroke="rgb(0,0,0)" />
	<line x1="1356.94" y1="792.646" x2="1349.24" y2="784.699" stroke-width="1" stroke="rgb(0,0,0)" />
	<line x1="1349.24" y1="784.699" x2="1341.18" y2="792.616" stroke-width="1" stroke="rgb(0,0,0)" />
	<line x1="1341.18" y1="792.616" x2="1308.9" y2="761.81" stroke-width="1" stroke="rgb(0,0,0)" />
	<line x1="1308.9" y1="761.81" x2="1300.47" y2="754.157" stroke-width="1" stroke="rgb(0,0,0)" />
	<line x1="1300.47" y1="754.157" x2="1283.37" y2="739.974" stroke-width="1" stroke="rgb(0,0,0)" />
	<line x1="1283.37" y1="739.974" x2="1290.36" y2="731.347" stroke-width="1" stroke="rgb(0,0,0)" />
	<line x1="1290.36" y1="731.347" x2="1274.57" y2="718.713" stroke-width="1" stroke="rgb(0,0,0)" />
	<line x1="1274.57" y1="718.713" x2="1267.78" y2="727.617" stroke-width="1" stroke="rgb(0,0,0)" />
	<line x1="1267.78" y1="727.617" x2="1257.26" y2="719.888" stroke-width="1" stroke="rgb(0,0,0)" />
	<line x1="1257.26" y1="719.888" x2="1263.88" y2="710.858" stroke-width="1" stroke="rgb(0,0,0)" />
	<line x1="1263.88" y1="710.858" x2="1256.07" y2="705.174" stroke-width="1" stroke="rgb(0,0,0)" />
	<line x1="1256.07" y1="705.174" x2="1249.52" y2="714.374" stroke-width="1" stroke="rgb(0,0,0)" />
	<line x1="1249.52" y1="714.374" x2="1213.83" y2="690.542" stroke-width="1" stroke="rgb(0,0,0)" />
	<line x1="1213.83" y1="690.542" x2="1204.95" y2="684.931" stroke-width="1" stroke="rgb(0,0,0)" />
	<line x1="1204.95" y1="684.931" x2="1187.94" y2="675.139" stroke-width="1" stroke="rgb(0,0,0)" />
	<line x1="1187.94" y1="675.139" x2="1193.39" y2="665.468" stroke-width="1" stroke="rgb(0,0,0)" />
	<line x1="1193.39" y1="665.468" x2="1186.22" y2="661.406" stroke-width="1" stroke="rgb(0,0,0)" />
	<line x1="1186.22" y1="661.406" x2="1173.78" y2="654.638" stroke-width="1" stroke="rgb(0,0,0)" />
	<line x1="1173.78" y1="654.638" x2="1168.6" y2="664.568" stroke-width="1" stroke="rgb(0,0,0)" />
	<line x1="1168.6" y1="664.568" x2="1159.2" y2="659.749" stroke-width="1" stroke="rgb(0,0,0)" />
	<line x1="1159.2" y1="659.749" x2="1164.24" y2="649.851" stroke-width="1" stroke="rgb(0,0,0)" />
	<line x1="1164.24" y1="649.851" x2="1155.17" y2="645.364" stroke-width="1" stroke="rgb(0,0,0)" />
	<line x1="1155.17" y1="645.364" x2="1150.24" y2="655.529" stroke-width="1" stroke="rgb(0,0,0)" />
	<line x1="1150.24" y1="655.529" x2="1109.36" y2="637.326" stroke-width="1" stroke="rgb(0,0,0)" />
	<line x1="1109.36" y1="637.326" x2="1098.78" y2="632.929" stroke-width="1" stroke="rgb(0,0,0)" />
	<line x1="1098.78" y1="632.929" x2="1077.72" y2="625.263" stroke-width="1" stroke="rgb(0,0,0)" />
	<line x1="1077.72" y1="625.263" x2="1081.39" y2="614.787" stroke-width="1" stroke="rgb(0,0,0)" />
	<line x1="1081.39" y1="614.787" x2="1079.92" y2="614.27" stroke-width="1" stroke="rgb(0,0,0)" />
	<line x1="1079.92" y1="614.27" x2="1034.48" y2="600.457" stroke-width="1" stroke="rgb(0,0,0)" />
	<line x1="1034.48" y1="600.457" x2="1010.78" y2="593.947" stroke-width="1" stroke="rgb(0,0,0)" />
	<line x1="1010.78" y1="593.947" x2="994.075" y2="590.68" stroke-width="1" stroke="rgb(0,0,0)" />
	<line x1="994.075" y1="590.68" x2="976.529" y2="587.779" stroke-width="1" stroke="rgb(0,0,0)" />
	<line x1="976.529" y1="587.779" x2="939.869" y2="581.098" stroke-width="1" stroke="rgb(0,0,0)" />
	<line x1="939.869" y1="581.098" x2="931.285" y2="579.987" stroke-width="1" stroke="rgb(0,0,0)" />
	<line x1="931.285" y1="579.987" x2="898.68" y2="577.165" stroke-width="1" stroke="rgb(0,0,0)" />
	<line x1="898.68" y1="577.165" x2="868.024" y2="575.464" stroke-width="1" stroke="rgb(0,0,0)" />
	<line x1="868.024" y1="575.464" x2="833.537" y2="576.352" stroke-width="1" stroke="rgb(0,0,0)" />
	<line x1="833.537" y1="576.352" x2="818.583" y2="576.263" stroke-width="1" stroke="rgb(0,0,0)" />
	<line x1="818.583" y1="576.263" x2="802.393" y2="576.878" stroke-width="1" stroke="rgb(0,0,0)" />
	<line x1="802.393" y1="576.878" x2="778.552" y2="579.103" stroke-width="1" stroke="rgb(0,0,0)" />
	<line x1="778.552" y1="579.103" x2="738.95" y2="584.238" stroke-width="1" stroke="rgb(0,0,0)" />
	<line x1="738.95" y1="584.238" x2="727.701" y2="586.006" stroke-width="1" stroke="rgb(0,0,0)" />
	<line x1="727.701" y1="586.006" x2="715.184" y2="588.397" stroke-width="1" stroke="rgb(0,0,0)" />
	<line x1="715.184" y1="588.397" x2="690.395" y2="593.996" stroke-width="1" stroke="rgb(0,0,0)" />
	<line x1="690.395" y1="593.996" x2="671.655" y2="598.419" stroke-width="1" stroke="rgb(0,0,0)" />
	<line x1="671.655" y1="598.419" x2="660.979" y2="601.249" stroke-width="1" stroke="rgb(0,0,0)" />
	<line x1="660.979" y1="601.249" x2="649.705" y2="604.517" stroke-width="1" stroke="rgb(0,0,0)" />
	<line x1="649.705" y1="604.517" x2="637.58" y2="608.44" stroke-width="1" stroke="rgb(0,0,0)" />
	<line x1="637.58" y1="608.44" x2="620.411" y2="614.83" stroke-width="1" stroke="rgb(0,0,0)" />
	<line x1="620.411" y1="614.83" x2="588.242" y2="626.02" stroke-width="1" stroke="rgb(0,0,0)" />
	<line x1="588.242" y1="626.02" x2="578.738" y2="629.977" stroke-width="1" stroke="rgb(0,0,0)" />
	<line x1="578.738" y1="629.977" x2="531.772" y2="651.794" stroke-width="1" stroke="rgb(0,0,0)" />
	<line x1="531.772" y1="651.794" x2="511.985" y2="662.361" stroke-width="1" stroke="rgb(0,0,0)" />
	<line x1="511.985" y1="662.361" x2="492.227" y2="673.919" stroke-width="1" stroke="rgb(0,0,0)" />
	<line x1="492.227" y1="673.919" x2="466.386" y2="689.73" stroke-width="1" stroke="rgb(0,0,0)" />
	<line x1="466.386" y1="689.73" x2="448.348" y2="702.064" stroke-width="1" stroke="rgb(0,0,0)" />
	<line x1="448.348" y1="702.064" x2="409.887" y2="730.942" stroke-width="1" stroke="rgb(0,0,0)" />
	<line x1="409.887" y1="730.942" x2="393.581" y2="744.597" stroke-width="1" stroke="rgb(0,0,0)" />
	<line x1="393.581" y1="744.597" x2="361.456" y2="774.217" stroke-width="1" stroke="rgb(0,0,0)" />
	<line x1="361.456" y1="774.217" x2="351.782" y2="783.54" stroke-width="1" stroke="rgb(0,0,0)" />
	<line x1="351.782" y1="783.54" x2="337.372" y2="798.84" stroke-width="1" stroke="rgb(0,0,0)" />
	<line x1="337.372" y1="798.84" x2="311.465" y2="828.295" stroke-width="1" stroke="rgb(0,0,0)" />
	<line x1="311.465" y1="828.295" x2="301.116" y2="840.805" stroke-width="1" stroke="rgb(0,0,0)" />
	<line x1="301.116" y1="840.805" x2="259.357" y2="899.545" stroke-width="1" stroke="rgb(0,0,0)" />
	<line x1="259.357" y1="899.545" x2="223.859" y2="962.267" stroke-width="1" stroke="rgb(0,0,0)" />
	<line x1="223.859" y1="962.267" x2="195.034" y2="1028.32" stroke-width="1" stroke="rgb(0,0,0)" />
	<line x1="195.034" y1="1028.32" x2="189.023" y2="1045.22" stroke-width="1" stroke="rgb(0,0,0)" />
	<line x1="189.023" y1="1045.22" x2="180.858" y2="1069.83" stroke-width="1" stroke="rgb(0,0,0)" />
	<line x1="180.858" y1="1069.83" x2="191.61" y2="1073.13" stroke-width="1" stroke="rgb(0,0,0)" />
	<line x1="191.61" y1="1073.13" x2="189.299" y2="1080.69" stroke-width="1" stroke="rgb(0,0,0)" />
	<line x1="189.299" y1="1080.69" x2="178.597" y2="1077.5" stroke-width="1" stroke="rgb(0,0,0)" />
	<line x1="178.597" y1="1077.5" x2="175.567" y2="1088.15" stroke-width="1" stroke="rgb(0,0,0)" />
	<line x1="175.567" y1="1088.15" x2="186.451" y2="1091.16" stroke-width="1" stroke="rgb(0,0,0)" />
	<line x1="186.451" y1="1091.16" x2="175.911" y2="1134.52" stroke-width="1" stroke="rgb(0,0,0)" />
	<line x1="175.911" y1="1134.52" x2="173.499" y2="1145.65" stroke-width="1" stroke="rgb(0,0,0)" />
	<line x1="173.499" y1="1145.65" x2="169.766" y2="1167.55" stroke-width="1" stroke="rgb(0,0,0)" />
	<line x1="169.766" y1="1167.55" x2="158.802" y2="1165.81" stroke-width="1" stroke="rgb(0,0,0)" />
	<line x1="158.802" y1="1165.81" x2="155.756" y2="1185.8" stroke-width="1" stroke="rgb(0,0,0)" />
	<line x1="155.756" y1="1185.8" x2="166.863" y2="1187.24" stroke-width="1" stroke="rgb(0,0,0)" />
	<line x1="166.863" y1="1187.24" x2="165.427" y2="1200.21" stroke-width="1" stroke="rgb(0,0,0)" />
	<line x1="165.427" y1="1200.21" x2="154.296" y2="1198.99" stroke-width="1" stroke="rgb(0,0,0)" />
	<line x1="154.296" y1="1198.99" x2="153.279" y2="1208.59" stroke-width="1" stroke="rgb(0,0,0)" />
	<line x1="153.279" y1="1208.59" x2="164.522" y2="1209.67" stroke-width="1" stroke="rgb(0,0,0)" />
	<line x1="164.522" y1="1209.67" x2="161.73" y2="1252.49" stroke-width="1" stroke="rgb(0,0,0)" />
	<line x1="161.73" y1="1252.49" x2="161.309" y2="1262.99" stroke-width="1" stroke="rgb(0,0,0)" />
	<line x1="161.309" y1="1262.99" x2="161.335" y2="1282.61" stroke-width="1" stroke="rgb(0,0,0)" />
	<line x1="161.335" y1="1282.61" x2="150.186" y2="1282.73" stroke-width="1" stroke="rgb(0,0,0)" />
	<line x1="150.186" y1="1282.73" x2="150.66" y2="1305.13" stroke-width="1" stroke="rgb(0,0,0)" />
	<line x1="150.66" y1="1305.13" x2="161.85" y2="1304.65" stroke-width="1" stroke="rgb(0,0,0)" />
	<line x1="161.85" y1="1304.65" x2="162.374" y2="1315.19" stroke-width="1" stroke="rgb(0,0,0)" />
	<line x1="162.374" y1="1315.19" x2="151.285" y2="1315.79" stroke-width="1" stroke="rgb(0,0,0)" />
	<line x1="151.285" y1="1315.79" x2="151.457" y2="1318.63" stroke-width="1" stroke="rgb(0,0,0)" />
	<line x1="151.457" y1="1318.63" x2="151.934" y2="1325.88" stroke-width="1" stroke="rgb(0,0,0)" />
	<line x1="151.934" y1="1325.88" x2="163.199" y2="1325.06" stroke-width="1" stroke="rgb(0,0,0)" />
	<line x1="163.199" y1="1325.06" x2="167.877" y2="1369.57" stroke-width="1" stroke="rgb(0,0,0)" />
	<line x1="167.877" y1="1369.57" x2="169.358" y2="1380.93" stroke-width="1" stroke="rgb(0,0,0)" />
	<line x1="169.358" y1="1380.93" x2="173.252" y2="1403.01" stroke-width="1" stroke="rgb(0,0,0)" />
	<line x1="173.252" y1="1403.01" x2="162.344" y2="1405.07" stroke-width="1" stroke="rgb(0,0,0)" />
	<line x1="162.344" y1="1405.07" x2="170.019" y2="1440.9" stroke-width="1" stroke="rgb(0,0,0)" />
	<line x1="170.019" y1="1440.9" x2="173.081" y2="1453.5" stroke-width="1" stroke="rgb(0,0,0)" />
	<line x1="173.081" y1="1453.5" x2="194.998" y2="1522.16" stroke-width="1" stroke="rgb(0,0,0)" />
	<line x1="194.998" y1="1522.16" x2="204.946" y2="1546.63" stroke-width="1" stroke="rgb(0,0,0)" />
	<line x1="204.946" y1="1546.63" x2="212.472" y2="1563.86" stroke-width="1" stroke="rgb(0,0,0)" />
	<line x1="212.472" y1="1563.86" x2="218.218" y2="1576.55" stroke-width="1" stroke="rgb(0,0,0)" />
	<line x1="218.218" y1="1576.55" x2="223.91" y2="1588.17" stroke-width="1" stroke="rgb(0,0,0)" />
	<line x1="223.91" y1="1588.17" x2="227.761" y2="1595.78" stroke-width="1" stroke="rgb(0,0,0)" />
	<line x1="227.761" y1="1595.78" x2="249.793" y2="1635.02" stroke-width="1" stroke="rgb(0,0,0)" />
	<line x1="249.793" y1="1635.02" x2="258.946" y2="1650.27" stroke-width="1" stroke="rgb(0,0,0)" />
	<line x1="258.946" y1="1650.27" x2="265.53" y2="1660.31" stroke-width="1" stroke="rgb(0,0,0)" />
	<line x1="265.53" y1="1660.31" x2="298.963" y2="1706.91" stroke-width="1" stroke="rgb(0,0,0)" />
	<line x1="298.963" y1="1706.91" x2="311.548" y2="1722.25" stroke-width="1" stroke="rgb(0,0,0)" />
	<line x1="311.548" y1="1722.25" x2="338.073" y2="1752.42" stroke-width="1" stroke="rgb(0,0,0)" />
	<line x1="338.073" y1="1752.42" x2="348.475" y2="1763.57" stroke-width="1" stroke="rgb(0,0,0)" />
	<line x1="348.475" y1="1763.57" x2="362.824" y2="1776.87" stroke-width="1" stroke="rgb(0,0,0)" />
	<line x1="362.824" y1="1776.87" x2="370.394" y2="1784.48" stroke-width="1" stroke="rgb(0,0,0)" />
	<line x1="370.394" y1="1784.48" x2="391.585" y2="1804.1" stroke-width="1" stroke="rgb(0,0,0)" />
	<line x1="391.585" y1="1804.1" x2="401.585" y2="1812.75" stroke-width="1" stroke="rgb(0,0,0)" />
	<line x1="401.585" y1="1812.75" x2="430.554" y2="1834.49" stroke-width="1" stroke="rgb(0,0,0)" />
	<line x1="430.554" y1="1834.49" x2="443.592" y2="1844.88" stroke-width="1" stroke="rgb(0,0,0)" />
	<line x1="443.592" y1="1844.88" x2="459.229" y2="1856.01" stroke-width="1" stroke="rgb(0,0,0)" />
	<line x1="459.229" y1="1856.01" x2="472.366" y2="1864.55" stroke-width="1" stroke="rgb(0,0,0)" />
	<line x1="472.366" y1="1864.55" x2="502.563" y2="1882.12" stroke-width="1" stroke="rgb(0,0,0)" />
	<line x1="502.563" y1="1882.12" x2="519.632" y2="1892.37" stroke-width="1" stroke="rgb(0,0,0)" />
	<line x1="519.632" y1="1892.37" x2="569.621" y2="1916.39" stroke-width="1" stroke="rgb(0,0,0)" />
	<line x1="569.621" y1="1916.39" x2="582.701" y2="1922.18" stroke-width="1" stroke="rgb(0,0,0)" />
	<line x1="582.701" y1="1922.18" x2="592.038" y2="1925.95" stroke-width="1" stroke="rgb(0,0,0)" />
	<line x1="592.038" y1="1925.95" x2="612.232" y2="1932.98" stroke-width="1" stroke="rgb(0,0,0)" />
	<line x1="612.232" y1="1932.98" x2="620.986" y2="1936.32" stroke-width="1" stroke="rgb(0,0,0)" />
	<line x1="620.986" y1="1936.32" x2="641.125" y2="1943.2" stroke-width="1" stroke="rgb(0,0,0)" />
	<line x1="641.125" y1="1943.2" x2="654.36" y2="1947.34" stroke-width="1" stroke="rgb(0,0,0)" />
	<line x1="654.36" y1="1947.34" x2="667.244" y2="1950.84" stroke-width="1" stroke="rgb(0,0,0)" />
	<line x1="667.244" y1="1950.84" x2="719.901" y2="1963.02" stroke-width="1" stroke="rgb(0,0,0)" />
	<line x1="719.901" y1="1963.02" x2="727.562" y2="1964.43" stroke-width="1" stroke="rgb(0,0,0)" />
	<line x1="727.562" y1="1964.43" x2="768.336" y2="1969.88" stroke-width="1" stroke="rgb(0,0,0)" />
	<line x1="768.336" y1="1969.88" x2="795.977" y2="1973.14" stroke-width="1" stroke="rgb(0,0,0)" />
	<line x1="795.977" y1="1973.14" x2="868.024" y2="1975" stroke-width="1" stroke="rgb(0,0,0)" />
	<line x1="868.024" y1="1975" x2="887.204" y2="1973.52" stroke-width="1" stroke="rgb(0,0,0)" />
</svg>
