<?xml version="1.0" standalone="no" ?>
<!DOCTYPE svg PUBLIC "-//W3C//DTD SVG 1.1//EN" "http://www.w3.org/Graphics/SVG/1.1/DTD/svg11.dtd">
<svg width="2000px" height="2000px" xmlns="http://www.w3.org/2000/svg" version="1.1" >
	<line x1="916.673" y1="1971.23" x2="939.879" y2="1969.44" stroke-width="1" stroke="rgb(0,0,0)" />
	<line x1="939.879" y1="1969.44" x2="954.669" y2="1967.32" stroke-width="1" stroke="rgb(0,0,0)" />
	<line x1="954.669" y1="1967.32" x2="972.619" y2="1964.2" stroke-width="1" stroke="rgb(0,0,0)" />
	<line x1="972.619" y1="1964.2" x2="970.688" y2="1953.34" stroke-width="1" stroke="rgb(0,0,0)" />
	<line x1="970.688" y1="1953.34" x2="1000.11" y2="1947.42" stroke-width="1" stroke="rgb(0,0,0)" />
	<line x1="1000.11" y1="1947.42" x2="1019.9" y2="1942.55" stroke-width="1" stroke="rgb(0,0,0)" />
	<line x1="1019.9" y1="1942.55" x2="1042.95" y2="1936.46" stroke-width="1" stroke="rgb(0,0,0)" />
	<line x1="1042.95" y1="1936.46" x2="1046.08" y2="1947.21" stroke-width="1" stroke="rgb(0,0,0)" />
	<line x1="1046.08" y1="1947.21" x2="1056.63" y2="1943.83" stroke-width="1" stroke="rgb(0,0,0)" />
	<line x1="1056.63" y1="1943.83" x2="1053.35" y2="1933.23" stroke-width="1" stroke="rgb(0,0,0)" />
	<line x1="1053.35" y1="1933.23" x2="1076.03" y2="1925.89" stroke-width="1" stroke="rgb(0,0,0)" />
	<line x1="1076.03" y1="1925.89" x2="1088.16" y2="1921.35" stroke-width="1" stroke="rgb(0,0,0)" />
	<line x1="1088.16" y1="1921.35" x2="1126.58" y2="1905.84" stroke-width="1" stroke="rgb(0,0,0)" />
	<line x1="1126.58" y1="1905.84" x2="1131.12" y2="1916.2" stroke-width="1" stroke="rgb(0,0,0)" />
	<line x1="1131.12" y1="1916.2" x2="1141.12" y2="1911.68" stroke-width="1" stroke="rgb(0,0,0)" />
	<line x1="1141.12" y1="1911.68" x2="1136.46" y2="1901.49" stroke-width="1" stroke="rgb(0,0,0)" />
	<line x1="1136.46" y1="1901.49" x2="1149.14" y2="1895.66" stroke-width="1" stroke="rgb(0,0,0)" />
	<line x1="1149.14" y1="1895.66" x2="1154" y2="1905.75" stroke-width="1" stroke="rgb(0,0,0)" />
	<line x1="1154" y1="1905.75" x2="1163.43" y2="1901.03" stroke-width="1" stroke="rgb(0,0,0)" />
	<line x1="1163.43" y1="1901.03" x2="1170.02" y2="1897.56" stroke-width="1" stroke="rgb(0,0,0)" />
	<line x1="1170.02" y1="1897.56" x2="1164.95" y2="1887.7" stroke-width="1" stroke="rgb(0,0,0)" />
	<line x1="1164.95" y1="1887.7" x2="1183.74" y2="1877.78" stroke-width="1" stroke="rgb(0,0,0)" />
	<line x1="1183.74" y1="1877.78" x2="1194.06" y2="1871.76" stroke-width="1" stroke="rgb(0,0,0)" />
	<line x1="1194.06" y1="1871.76" x2="1227.97" y2="1850.82" stroke-width="1" stroke="rgb(0,0,0)" />
	<line x1="1227.97" y1="1850.82" x2="1234.18" y2="1860.27" stroke-width="1" stroke="rgb(0,0,0)" />
	<line x1="1234.18" y1="1860.27" x2="1243.93" y2="1853.66" stroke-width="1" stroke="rgb(0,0,0)" />
	<line x1="1243.93" y1="1853.66" x2="1237.64" y2="1844.43" stroke-width="1" stroke="rgb(0,0,0)" />
	<line x1="1237.64" y1="1844.43" x2="1253.23" y2="1833.66" stroke-width="1" stroke="rgb(0,0,0)" />
	<line x1="1253.23" y1="1833.66" x2="1259.8" y2="1842.73" stroke-width="1" stroke="rgb(0,0,0)" />
	<line x1="1259.8" y1="1842.73" x2="1269.46" y2="1835.38" stroke-width="1" stroke="rgb(0,0,0)" />
	<line x1="1269.46" y1="1835.38" x2="1262.82" y2="1826.5" stroke-width="1" stroke="rgb(0,0,0)" />
	<line x1="1262.82" y1="1826.5" x2="1281.86" y2="1811.84" stroke-width="1" stroke="rgb(0,0,0)" />
	<line x1="1281.86" y1="1811.84" x2="1291.81" y2="1803.42" stroke-width="1" stroke="rgb(0,0,0)" />
	<line x1="1291.81" y1="1803.42" x2="1322.86" y2="1775.8" stroke-width="1" stroke="rgb(0,0,0)" />
	<line x1="1322.86" y1="1775.8" x2="1330.62" y2="1784.02" stroke-width="1" stroke="rgb(0,0,0)" />
	<line x1="1330.62" y1="1784.02" x2="1336.36" y2="1777.75" stroke-width="1" stroke="rgb(0,0,0)" />
	<line x1="1336.36" y1="1777.75" x2="1375.79" y2="1737.34" stroke-width="1" stroke="rgb(0,0,0)" />
	<line x1="1375.79" y1="1737.34" x2="1391.24" y2="1718.98" stroke-width="1" stroke="rgb(0,0,0)" />
	<line x1="1391.24" y1="1718.98" x2="1401.5" y2="1706.1" stroke-width="1" stroke="rgb(0,0,0)" />
	<line x1="1401.5" y1="1706.1" x2="1392.68" y2="1699.2" stroke-width="1" stroke="rgb(0,0,0)" />
	<line x1="1392.68" y1="1699.2" x2="1402.42" y2="1686.66" stroke-width="1" stroke="rgb(0,0,0)" />
	<line x1="1402.42" y1="1686.66" x2="1409.43" y2="1677.08" stroke-width="1" stroke="rgb(0,0,0)" />
	<line x1="1409.43" y1="1677.08" x2="1416.86" y2="1666.52" stroke-width="1" stroke="rgb(0,0,0)" />
	<line x1="1416.86" y1="1666.52" x2="1425.26" y2="1653.84" stroke-width="1" stroke="rgb(0,0,0)" />
	<line x1="1425.26" y1="1653.84" x2="1434.61" y2="1659.99" stroke-width="1" stroke="rgb(0,0,0)" />
	<line x1="1434.61" y1="1659.99" x2="1442.96" y2="1647.25" stroke-width="1" stroke="rgb(0,0,0)" />
	<line x1="1442.96" y1="1647.25" x2="1433.48" y2="1641.29" stroke-width="1" stroke="rgb(0,0,0)" />
	<line x1="1433.48" y1="1641.29" x2="1439.57" y2="1631.41" stroke-width="1" stroke="rgb(0,0,0)" />
	<line x1="1439.57" y1="1631.41" x2="1449.15" y2="1637.2" stroke-width="1" stroke="rgb(0,0,0)" />
	<line x1="1449.15" y1="1637.2" x2="1458.36" y2="1621.49" stroke-width="1" stroke="rgb(0,0,0)" />
	<line x1="1458.36" y1="1621.49" x2="1461.47" y2="1615.97" stroke-width="1" stroke="rgb(0,0,0)" />
	<line x1="1461.47" y1="1615.97" x2="1451.69" y2="1610.51" stroke-width="1" stroke="rgb(0,0,0)" />
	<line x1="1451.69" y1="1610.51" x2="1459.11" y2="1596.83" stroke-width="1" stroke="rgb(0,0,0)" />
	<line x1="1459.11" y1="1596.83" x2="1469.02" y2="1602.06" stroke-width="1" stroke="rgb(0,0,0)" />
	<line x1="1469.02" y1="1602.06" x2="1478.87" y2="1582.69" stroke-width="1" stroke="rgb(0,0,0)" />
	<line x1="1478.87" y1="1582.69" x2="1468.8" y2="1577.77" stroke-width="1" stroke="rgb(0,0,0)" />
	<line x1="1468.8" y1="1577.77" x2="1474.05" y2="1566.8" stroke-width="1" stroke="rgb(0,0,0)" />
	<line x1="1474.05" y1="1566.8" x2="1484.19" y2="1571.54" stroke-width="1" stroke="rgb(0,0,0)" />
	<line x1="1484.19" y1="1571.54" x2="1489.47" y2="1559.99" stroke-width="1" stroke="rgb(0,0,0)" />
	<line x1="1489.47" y1="1559.99" x2="1479.23" y2="1555.44" stroke-width="1" stroke="rgb(0,0,0)" />
	<line x1="1479.23" y1="1555.44" x2="1485.91" y2="1539.82" stroke-width="1" stroke="rgb(0,0,0)" />
	<line x1="1485.91" y1="1539.82" x2="1499.22" y2="1505.36" stroke-width="1" stroke="rgb(0,0,0)" />
	<line x1="1499.22" y1="1505.36" x2="1509.76" y2="1509.14" stroke-width="1" stroke="rgb(0,0,0)" />
	<line x1="1509.76" y1="1509.14" x2="1509.96" y2="1508.57" stroke-width="1" stroke="rgb(0,0,0)" />
	<line x1="1509.96" y1="1508.57" x2="1511.58" y2="1503.96" stroke-width="1" stroke="rgb(0,0,0)" />
	<line x1="1511.58" y1="1503.96" x2="1500.99" y2="1500.3" stroke-width="1" stroke="rgb(0,0,0)" />
	<line x1="1500.99" y1="1500.3" x2="1504.41" y2="1490.15" stroke-width="1" stroke="rgb(0,0,0)" />
	<line x1="1504.41" y1="1490.15" x2="1515.05" y2="1493.65" stroke-width="1" stroke="rgb(0,0,0)" />
	<line x1="1515.05" y1="1493.65" x2="1523.64" y2="1465.51" stroke-width="1" stroke="rgb(0,0,0)" />
	<line x1="1523.64" y1="1465.51" x2="1512.87" y2="1462.46" stroke-width="1" stroke="rgb(0,0,0)" />
	<line x1="1512.87" y1="1462.46" x2="1516.74" y2="1448.15" stroke-width="1" stroke="rgb(0,0,0)" />
	<line x1="1516.74" y1="1448.15" x2="1527.58" y2="1450.96" stroke-width="1" stroke="rgb(0,0,0)" />
	<line x1="1527.58" y1="1450.96" x2="1529.75" y2="1442.39" stroke-width="1" stroke="rgb(0,0,0)" />
	<line x1="1529.75" y1="1442.39" x2="1518.87" y2="1439.74" stroke-width="1" stroke="rgb(0,0,0)" />
	<line x1="1518.87" y1="1439.74" x2="1521.73" y2="1427.65" stroke-width="1" stroke="rgb(0,0,0)" />
	<line x1="1521.73" y1="1427.65" x2="1532.65" y2="1430.11" stroke-width="1" stroke="rgb(0,0,0)" />
	<line x1="1532.65" y1="1430.11" x2="1537.01" y2="1409.47" stroke-width="1" stroke="rgb(0,0,0)" />
	<line x1="1537.01" y1="1409.47" x2="1541.36" y2="1384.89" stroke-width="1" stroke="rgb(0,0,0)" />
	<line x1="1541.36" y1="1384.89" x2="1530.29" y2="1383.15" stroke-width="1" stroke="rgb(0,0,0)" />
	<line x1="1530.29" y1="1383.15" x2="1532.97" y2="1364.69" stroke-width="1" stroke="rgb(0,0,0)" />
	<line x1="1532.97" y1="1364.69" x2="1535.42" y2="1343.4" stroke-width="1" stroke="rgb(0,0,0)" />
	<line x1="1535.42" y1="1343.4" x2="1546.56" y2="1344.51" stroke-width="1" stroke="rgb(0,0,0)" />
	<line x1="1546.56" y1="1344.51" x2="1548.81" y2="1315.97" stroke-width="1" stroke="rgb(0,0,0)" />
	<line x1="1548.81" y1="1315.97" x2="1537.63" y2="1315.32" stroke-width="1" stroke="rgb(0,0,0)" />
	<line x1="1537.63" y1="1315.32" x2="1538.36" y2="1299.86" stroke-width="1" stroke="rgb(0,0,0)" />
	<line x1="1538.36" y1="1299.86" x2="1549.55" y2="1300.26" stroke-width="1" stroke="rgb(0,0,0)" />
	<line x1="1549.55" y1="1300.26" x2="1549.93" y2="1283.57" stroke-width="1" stroke="rgb(0,0,0)" />
	<line x1="1549.93" y1="1283.57" x2="1538.73" y2="1283.47" stroke-width="1" stroke="rgb(0,0,0)" />
	<line x1="1538.73" y1="1283.47" x2="1538.76" y2="1268.58" stroke-width="1" stroke="rgb(0,0,0)" />
	<line x1="1538.76" y1="1268.58" x2="1549.95" y2="1268.47" stroke-width="1" stroke="rgb(0,0,0)" />
	<line x1="1549.95" y1="1268.47" x2="1549.7" y2="1254.75" stroke-width="1" stroke="rgb(0,0,0)" />
	<line x1="1549.7" y1="1254.75" x2="1538.51" y2="1255.08" stroke-width="1" stroke="rgb(0,0,0)" />
	<line x1="1538.51" y1="1255.08" x2="1537.88" y2="1239.61" stroke-width="1" stroke="rgb(0,0,0)" />
	<line x1="1537.88" y1="1239.61" x2="1549.06" y2="1239.03" stroke-width="1" stroke="rgb(0,0,0)" />
	<line x1="1549.06" y1="1239.03" x2="1548.09" y2="1223.61" stroke-width="1" stroke="rgb(0,0,0)" />
	<line x1="1548.09" y1="1223.61" x2="1536.93" y2="1224.45" stroke-width="1" stroke="rgb(0,0,0)" />
	<line x1="1536.93" y1="1224.45" x2="1535.3" y2="1205.86" stroke-width="1" stroke="rgb(0,0,0)" />
	<line x1="1535.3" y1="1205.86" x2="1532.81" y2="1184.58" stroke-width="1" stroke="rgb(0,0,0)" />
	<line x1="1532.81" y1="1184.58" x2="1543.91" y2="1183.11" stroke-width="1" stroke="rgb(0,0,0)" />
	<line x1="1543.91" y1="1183.11" x2="1542.15" y2="1170.69" stroke-width="1" stroke="rgb(0,0,0)" />
	<line x1="1542.15" y1="1170.69" x2="1531.08" y2="1172.36" stroke-width="1" stroke="rgb(0,0,0)" />
	<line x1="1531.08" y1="1172.36" x2="1529.01" y2="1159.49" stroke-width="1" stroke="rgb(0,0,0)" />
	<line x1="1529.01" y1="1159.49" x2="1525.6" y2="1141.17" stroke-width="1" stroke="rgb(0,0,0)" />
	<line x1="1525.6" y1="1141.17" x2="1536.59" y2="1139.02" stroke-width="1" stroke="rgb(0,0,0)" />
	<line x1="1536.59" y1="1139.02" x2="1532.01" y2="1117.57" stroke-width="1" stroke="rgb(0,0,0)" />
	<line x1="1532.01" y1="1117.57" x2="1521.1" y2="1120.09" stroke-width="1" stroke="rgb(0,0,0)" />
	<line x1="1521.1" y1="1120.09" x2="1517.71" y2="1106.19" stroke-width="1" stroke="rgb(0,0,0)" />
	<line x1="1517.71" y1="1106.19" x2="1506.93" y2="1068.03" stroke-width="1" stroke="rgb(0,0,0)" />
	<line x1="1506.93" y1="1068.03" x2="1517.59" y2="1064.69" stroke-width="1" stroke="rgb(0,0,0)" />
	<line x1="1517.59" y1="1064.69" x2="1513.72" y2="1052.8" stroke-width="1" stroke="rgb(0,0,0)" />
	<line x1="1513.72" y1="1052.8" x2="1503.13" y2="1056.46" stroke-width="1" stroke="rgb(0,0,0)" />
	<line x1="1503.13" y1="1056.46" x2="1493.77" y2="1030.27" stroke-width="1" stroke="rgb(0,0,0)" />
	<line x1="1493.77" y1="1030.27" x2="1504.23" y2="1026.28" stroke-width="1" stroke="rgb(0,0,0)" />
	<line x1="1504.23" y1="1026.28" x2="1491.42" y2="994.914" stroke-width="1" stroke="rgb(0,0,0)" />
	<line x1="1491.42" y1="994.914" x2="1459.2" y2="930.448" stroke-width="1" stroke="rgb(0,0,0)" />
	<line x1="1459.2" y1="930.448" x2="1420.52" y2="869.637" stroke-width="1" stroke="rgb(0,0,0)" />
	<line x1="1420.52" y1="869.637" x2="1399.9" y2="842.436" stroke-width="1" stroke="rgb(0,0,0)" />
	<line x1="1399.9" y1="842.436" x2="1385.35" y2="824.558" stroke-width="1" stroke="rgb(0,0,0)" />
	<line x1="1385.35" y1="824.558" x2="1376.91" y2="831.661" stroke-width="1" stroke="rgb(0,0,0)" />
	<line x1="1376.91" y1="831.661" x2="1357.08" y2="809.133" stroke-width="1" stroke="rgb(0,0,0)" />
	<line x1="1357.08" y1="809.133" x2="1342.96" y2="794.432" stroke-width="1" stroke="rgb(0,0,0)" />
	<line x1="1342.96" y1="794.432" x2="1326.16" y2="777.524" stroke-width="1" stroke="rgb(0,0,0)" />
	<line x1="1326.16" y1="777.524" x2="1333.91" y2="769.431" stroke-width="1" stroke="rgb(0,0,0)" />
	<line x1="1333.91" y1="769.431" x2="1325.71" y2="761.992" stroke-width="1" stroke="rgb(0,0,0)" />
	<line x1="1325.71" y1="761.992" x2="1318.17" y2="770.124" stroke-width="1" stroke="rgb(0,0,0)" />
	<line x1="1318.17" y1="770.124" x2="1300.47" y2="754.157" stroke-width="1" stroke="rgb(0,0,0)" />
	<line x1="1300.47" y1="754.157" x2="1290.47" y2="745.924" stroke-width="1" stroke="rgb(0,0,0)" />
	<line x1="1290.47" y1="745.924" x2="1257.83" y2="720.403" stroke-width="1" stroke="rgb(0,0,0)" />
	<line x1="1257.83" y1="720.403" x2="1264.53" y2="711.292" stroke-width="1" stroke="rgb(0,0,0)" />
	<line x1="1264.53" y1="711.292" x2="1255.62" y2="704.891" stroke-width="1" stroke="rgb(0,0,0)" />
	<line x1="1255.62" y1="704.891" x2="1249.13" y2="714.016" stroke-width="1" stroke="rgb(0,0,0)" />
	<line x1="1249.13" y1="714.016" x2="1237.74" y2="705.956" stroke-width="1" stroke="rgb(0,0,0)" />
	<line x1="1237.74" y1="705.956" x2="1244.04" y2="696.699" stroke-width="1" stroke="rgb(0,0,0)" />
	<line x1="1244.04" y1="696.699" x2="1228.94" y2="686.917" stroke-width="1" stroke="rgb(0,0,0)" />
	<line x1="1228.94" y1="686.917" x2="1222.94" y2="696.238" stroke-width="1" stroke="rgb(0,0,0)" />
	<line x1="1222.94" y1="696.238" x2="1204.95" y2="684.931" stroke-width="1" stroke="rgb(0,0,0)" />
	<line x1="1204.95" y1="684.931" x2="1194.58" y2="679.004" stroke-width="1" stroke="rgb(0,0,0)" />
	<line x1="1194.58" y1="679.004" x2="1159.49" y2="660.107" stroke-width="1" stroke="rgb(0,0,0)" />
	<line x1="1159.49" y1="660.107" x2="1164.57" y2="650.005" stroke-width="1" stroke="rgb(0,0,0)" />
	<line x1="1164.57" y1="650.005" x2="1153.97" y2="644.863" stroke-width="1" stroke="rgb(0,0,0)" />
	<line x1="1153.97" y1="644.863" x2="1149.12" y2="654.929" stroke-width="1" stroke="rgb(0,0,0)" />
	<line x1="1149.12" y1="654.929" x2="1132" y2="646.811" stroke-width="1" stroke="rgb(0,0,0)" />
	<line x1="1132" y1="646.811" x2="1136.57" y2="636.587" stroke-width="1" stroke="rgb(0,0,0)" />
	<line x1="1136.57" y1="636.587" x2="1125.37" y2="631.894" stroke-width="1" stroke="rgb(0,0,0)" />
	<line x1="1125.37" y1="631.894" x2="1121.01" y2="642.087" stroke-width="1" stroke="rgb(0,0,0)" />
	<line x1="1121.01" y1="642.087" x2="1098.78" y2="632.929" stroke-width="1" stroke="rgb(0,0,0)" />
	<line x1="1098.78" y1="632.929" x2="1086.52" y2="628.519" stroke-width="1" stroke="rgb(0,0,0)" />
	<line x1="1086.52" y1="628.519" x2="1047.07" y2="615.44" stroke-width="1" stroke="rgb(0,0,0)" />
	<line x1="1047.07" y1="615.44" x2="1050.31" y2="604.605" stroke-width="1" stroke="rgb(0,0,0)" />
	<line x1="1050.31" y1="604.605" x2="1046.18" y2="603.673" stroke-width="1" stroke="rgb(0,0,0)" />
	<line x1="1046.18" y1="603.673" x2="1010.78" y2="593.947" stroke-width="1" stroke="rgb(0,0,0)" />
	<line x1="1010.78" y1="593.947" x2="968.408" y2="585.66" stroke-width="1" stroke="rgb(0,0,0)" />
	<line x1="968.408" y1="585.66" x2="947.39" y2="582.185" stroke-width="1" stroke="rgb(0,0,0)" />
	<line x1="947.39" y1="582.185" x2="945.832" y2="593.274" stroke-width="1" stroke="rgb(0,0,0)" />
	<line x1="945.832" y1="593.274" x2="930.095" y2="591.108" stroke-width="1" stroke="rgb(0,0,0)" />
	<line x1="930.095" y1="591.108" x2="918.291" y2="589.826" stroke-width="1" stroke="rgb(0,0,0)" />
	<line x1="918.291" y1="589.826" x2="905.439" y2="588.67" stroke-width="1" stroke="rgb(0,0,0)" />
	<line x1="905.439" y1="588.67" x2="890.252" y2="587.741" stroke-width="1" stroke="rgb(0,0,0)" />
	<line x1="890.252" y1="587.741" x2="890.906" y2="576.562" stroke-width="1" stroke="rgb(0,0,0)" />
	<line x1="890.906" y1="576.562" x2="875.692" y2="575.704" stroke-width="1" stroke="rgb(0,0,0)" />
	<line x1="875.692" y1="575.704" x2="875.281" y2="586.896" stroke-width="1" stroke="rgb(0,0,0)" />
	<line x1="875.281" y1="586.896" x2="863.677" y2="586.561" stroke-width="1" stroke="rgb(0,0,0)" />
	<line x1="863.677" y1="586.561" x2="863.899" y2="575.37" stroke-width="1" stroke="rgb(0,0,0)" />
	<line x1="863.899" y1="575.37" x2="839.346" y2="575.313" stroke-width="1" stroke="rgb(0,0,0)" />
	<line x1="839.346" y1="575.313" x2="839.517" y2="586.512" stroke-width="1" stroke="rgb(0,0,0)" />
	<line x1="839.517" y1="586.512" x2="823.956" y2="586.925" stroke-width="1" stroke="rgb(0,0,0)" />
	<line x1="823.956" y1="586.925" x2="823.532" y2="575.733" stroke-width="1" stroke="rgb(0,0,0)" />
	<line x1="823.532" y1="575.733" x2="801.829" y2="576.891" stroke-width="1" stroke="rgb(0,0,0)" />
	<line x1="801.829" y1="576.891" x2="802.6" y2="588.065" stroke-width="1" stroke="rgb(0,0,0)" />
	<line x1="802.6" y1="588.065" x2="790.484" y2="589.008" stroke-width="1" stroke="rgb(0,0,0)" />
	<line x1="790.484" y1="589.008" x2="789.517" y2="577.85" stroke-width="1" stroke="rgb(0,0,0)" />
	<line x1="789.517" y1="577.85" x2="776.871" y2="579.063" stroke-width="1" stroke="rgb(0,0,0)" />
	<line x1="776.871" y1="579.063" x2="778.052" y2="590.2" stroke-width="1" stroke="rgb(0,0,0)" />
	<line x1="778.052" y1="590.2" x2="761.187" y2="592.227" stroke-width="1" stroke="rgb(0,0,0)" />
	<line x1="761.187" y1="592.227" x2="724.69" y2="597.926" stroke-width="1" stroke="rgb(0,0,0)" />
	<line x1="724.69" y1="597.926" x2="722.69" y2="586.907" stroke-width="1" stroke="rgb(0,0,0)" />
	<line x1="722.69" y1="586.907" x2="717.298" y2="587.926" stroke-width="1" stroke="rgb(0,0,0)" />
	<line x1="717.298" y1="587.926" x2="719.421" y2="598.923" stroke-width="1" stroke="rgb(0,0,0)" />
	<line x1="719.421" y1="598.923" x2="708.921" y2="601.035" stroke-width="1" stroke="rgb(0,0,0)" />
	<line x1="708.921" y1="601.035" x2="706.627" y2="590.072" stroke-width="1" stroke="rgb(0,0,0)" />
	<line x1="706.627" y1="590.072" x2="677.961" y2="596.703" stroke-width="1" stroke="rgb(0,0,0)" />
	<line x1="677.961" y1="596.703" x2="680.713" y2="607.559" stroke-width="1" stroke="rgb(0,0,0)" />
	<line x1="680.713" y1="607.559" x2="666.378" y2="611.358" stroke-width="1" stroke="rgb(0,0,0)" />
	<line x1="666.378" y1="611.358" x2="663.392" y2="600.564" stroke-width="1" stroke="rgb(0,0,0)" />
	<line x1="663.392" y1="600.564" x2="654.891" y2="602.973" stroke-width="1" stroke="rgb(0,0,0)" />
	<line x1="654.891" y1="602.973" x2="658.035" y2="613.722" stroke-width="1" stroke="rgb(0,0,0)" />
	<line x1="658.035" y1="613.722" x2="646.134" y2="617.293" stroke-width="1" stroke="rgb(0,0,0)" />
	<line x1="646.134" y1="617.293" x2="642.803" y2="606.6" stroke-width="1" stroke="rgb(0,0,0)" />
	<line x1="642.803" y1="606.6" x2="622.945" y2="613.088" stroke-width="1" stroke="rgb(0,0,0)" />
	<line x1="622.945" y1="613.088" x2="599.288" y2="621.67" stroke-width="1" stroke="rgb(0,0,0)" />
	<line x1="599.288" y1="621.67" x2="603.311" y2="632.123" stroke-width="1" stroke="rgb(0,0,0)" />
	<line x1="603.311" y1="632.123" x2="585.986" y2="639.039" stroke-width="1" stroke="rgb(0,0,0)" />
	<line x1="585.986" y1="639.039" x2="566.323" y2="647.56" stroke-width="1" stroke="rgb(0,0,0)" />
	<line x1="566.323" y1="647.56" x2="561.71" y2="637.353" stroke-width="1" stroke="rgb(0,0,0)" />
	<line x1="561.71" y1="637.353" x2="535.877" y2="649.671" stroke-width="1" stroke="rgb(0,0,0)" />
	<line x1="535.877" y1="649.671" x2="540.903" y2="659.68" stroke-width="1" stroke="rgb(0,0,0)" />
	<line x1="540.903" y1="659.68" x2="527.146" y2="666.783" stroke-width="1" stroke="rgb(0,0,0)" />
	<line x1="527.146" y1="666.783" x2="521.897" y2="656.889" stroke-width="1" stroke="rgb(0,0,0)" />
	<line x1="521.897" y1="656.889" x2="507.258" y2="664.908" stroke-width="1" stroke="rgb(0,0,0)" />
	<line x1="507.258" y1="664.908" x2="512.768" y2="674.658" stroke-width="1" stroke="rgb(0,0,0)" />
	<line x1="512.768" y1="674.658" x2="499.865" y2="682.081" stroke-width="1" stroke="rgb(0,0,0)" />
	<line x1="499.865" y1="682.081" x2="494.171" y2="672.436" stroke-width="1" stroke="rgb(0,0,0)" />
	<line x1="494.171" y1="672.436" x2="482.414" y2="679.513" stroke-width="1" stroke="rgb(0,0,0)" />
	<line x1="482.414" y1="679.513" x2="488.295" y2="689.045" stroke-width="1" stroke="rgb(0,0,0)" />
	<line x1="488.295" y1="689.045" x2="475.212" y2="697.323" stroke-width="1" stroke="rgb(0,0,0)" />
	<line x1="475.212" y1="697.323" x2="469.117" y2="687.926" stroke-width="1" stroke="rgb(0,0,0)" />
	<line x1="469.117" y1="687.926" x2="456.246" y2="696.477" stroke-width="1" stroke="rgb(0,0,0)" />
	<line x1="456.246" y1="696.477" x2="462.557" y2="705.73" stroke-width="1" stroke="rgb(0,0,0)" />
	<line x1="462.557" y1="705.73" x2="447.277" y2="716.43" stroke-width="1" stroke="rgb(0,0,0)" />
	<line x1="447.277" y1="716.43" x2="430.088" y2="729.229" stroke-width="1" stroke="rgb(0,0,0)" />
	<line x1="430.088" y1="729.229" x2="423.26" y2="720.351" stroke-width="1" stroke="rgb(0,0,0)" />
	<line x1="423.26" y1="720.351" x2="413.389" y2="728.084" stroke-width="1" stroke="rgb(0,0,0)" />
	<line x1="413.389" y1="728.084" x2="420.375" y2="736.839" stroke-width="1" stroke="rgb(0,0,0)" />
	<line x1="420.375" y1="736.839" x2="410.26" y2="745.068" stroke-width="1" stroke="rgb(0,0,0)" />
	<line x1="410.26" y1="745.068" x2="396.095" y2="757.178" stroke-width="1" stroke="rgb(0,0,0)" />
	<line x1="396.095" y1="757.178" x2="388.74" y2="748.732" stroke-width="1" stroke="rgb(0,0,0)" />
	<line x1="388.74" y1="748.732" x2="372.453" y2="763.423" stroke-width="1" stroke="rgb(0,0,0)" />
	<line x1="372.453" y1="763.423" x2="380.091" y2="771.615" stroke-width="1" stroke="rgb(0,0,0)" />
	<line x1="380.091" y1="771.615" x2="369.754" y2="781.5" stroke-width="1" stroke="rgb(0,0,0)" />
	<line x1="369.754" y1="781.5" x2="342.093" y2="809.909" stroke-width="1" stroke="rgb(0,0,0)" />
	<line x1="342.093" y1="809.909" x2="333.874" y2="802.353" stroke-width="1" stroke="rgb(0,0,0)" />
	<line x1="333.874" y1="802.353" x2="325.51" y2="811.65" stroke-width="1" stroke="rgb(0,0,0)" />
	<line x1="325.51" y1="811.65" x2="333.968" y2="818.991" stroke-width="1" stroke="rgb(0,0,0)" />
	<line x1="333.968" y1="818.991" x2="315.974" y2="840.19" stroke-width="1" stroke="rgb(0,0,0)" />
	<line x1="315.974" y1="840.19" x2="307.281" y2="833.128" stroke-width="1" stroke="rgb(0,0,0)" />
	<line x1="307.281" y1="833.128" x2="301.116" y2="840.805" stroke-width="1" stroke="rgb(0,0,0)" />
	<line x1="301.116" y1="840.805" x2="259.357" y2="899.545" stroke-width="1" stroke="rgb(0,0,0)" />
	<line x1="259.357" y1="899.545" x2="223.859" y2="962.267" stroke-width="1" stroke="rgb(0,0,0)" />
	<line x1="223.859" y1="962.267" x2="195.089" y2="1028.34" stroke-width="1" stroke="rgb(0,0,0)" />
	<line x1="195.089" y1="1028.34" x2="192.03" y2="1036.94" stroke-width="1" stroke="rgb(0,0,0)" />
	<line x1="192.03" y1="1036.94" x2="202.4" y2="1040.7" stroke-width="1" stroke="rgb(0,0,0)" />
	<line x1="202.4" y1="1040.7" x2="192.808" y2="1069.14" stroke-width="1" stroke="rgb(0,0,0)" />
	<line x1="192.808" y1="1069.14" x2="187.134" y2="1088.72" stroke-width="1" stroke="rgb(0,0,0)" />
	<line x1="187.134" y1="1088.72" x2="180.891" y2="1111.72" stroke-width="1" stroke="rgb(0,0,0)" />
	<line x1="180.891" y1="1111.72" x2="170.01" y2="1109.06" stroke-width="1" stroke="rgb(0,0,0)" />
	<line x1="170.01" y1="1109.06" x2="167.668" y2="1119.88" stroke-width="1" stroke="rgb(0,0,0)" />
	<line x1="167.668" y1="1119.88" x2="178.478" y2="1122.34" stroke-width="1" stroke="rgb(0,0,0)" />
	<line x1="178.478" y1="1122.34" x2="173.499" y2="1145.65" stroke-width="1" stroke="rgb(0,0,0)" />
	<line x1="173.499" y1="1145.65" x2="171.371" y2="1158.43" stroke-width="1" stroke="rgb(0,0,0)" />
	<line x1="171.371" y1="1158.43" x2="165.587" y2="1199.45" stroke-width="1" stroke="rgb(0,0,0)" />
	<line x1="165.587" y1="1199.45" x2="154.348" y2="1198.21" stroke-width="1" stroke="rgb(0,0,0)" />
	<line x1="154.348" y1="1198.21" x2="153.261" y2="1209.13" stroke-width="1" stroke="rgb(0,0,0)" />
	<line x1="153.261" y1="1209.13" x2="164.409" y2="1210.19" stroke-width="1" stroke="rgb(0,0,0)" />
	<line x1="164.409" y1="1210.19" x2="163.124" y2="1224.08" stroke-width="1" stroke="rgb(0,0,0)" />
	<line x1="163.124" y1="1224.08" x2="151.956" y2="1223.25" stroke-width="1" stroke="rgb(0,0,0)" />
	<line x1="151.956" y1="1223.25" x2="151.033" y2="1241.22" stroke-width="1" stroke="rgb(0,0,0)" />
	<line x1="151.033" y1="1241.22" x2="162.106" y2="1241.75" stroke-width="1" stroke="rgb(0,0,0)" />
	<line x1="162.106" y1="1241.75" x2="161.309" y2="1262.99" stroke-width="1" stroke="rgb(0,0,0)" />
	<line x1="161.309" y1="1262.99" x2="161.363" y2="1274.93" stroke-width="1" stroke="rgb(0,0,0)" />
	<line x1="161.363" y1="1274.93" x2="162.541" y2="1314.77" stroke-width="1" stroke="rgb(0,0,0)" />
	<line x1="162.541" y1="1314.77" x2="151.208" y2="1315.42" stroke-width="1" stroke="rgb(0,0,0)" />
	<line x1="151.208" y1="1315.42" x2="152.1" y2="1327.17" stroke-width="1" stroke="rgb(0,0,0)" />
	<line x1="152.1" y1="1327.17" x2="163.244" y2="1326.34" stroke-width="1" stroke="rgb(0,0,0)" />
	<line x1="163.244" y1="1326.34" x2="164.771" y2="1345.22" stroke-width="1" stroke="rgb(0,0,0)" />
	<line x1="164.771" y1="1345.22" x2="153.632" y2="1346.38" stroke-width="1" stroke="rgb(0,0,0)" />
	<line x1="153.632" y1="1346.38" x2="155.168" y2="1358.42" stroke-width="1" stroke="rgb(0,0,0)" />
	<line x1="155.168" y1="1358.42" x2="166.176" y2="1357.1" stroke-width="1" stroke="rgb(0,0,0)" />
	<line x1="166.176" y1="1357.1" x2="169.358" y2="1380.93" stroke-width="1" stroke="rgb(0,0,0)" />
	<line x1="169.358" y1="1380.93" x2="171.671" y2="1393.76" stroke-width="1" stroke="rgb(0,0,0)" />
	<line x1="171.671" y1="1393.76" x2="180.067" y2="1434.46" stroke-width="1" stroke="rgb(0,0,0)" />
	<line x1="180.067" y1="1434.46" x2="169.065" y2="1437.07" stroke-width="1" stroke="rgb(0,0,0)" />
	<line x1="169.065" y1="1437.07" x2="173.081" y2="1453.5" stroke-width="1" stroke="rgb(0,0,0)" />
	<line x1="173.081" y1="1453.5" x2="194.998" y2="1522.16" stroke-width="1" stroke="rgb(0,0,0)" />
	<line x1="194.998" y1="1522.16" x2="201.109" y2="1537.41" stroke-width="1" stroke="rgb(0,0,0)" />
	<line x1="201.109" y1="1537.41" x2="211.491" y2="1533.22" stroke-width="1" stroke="rgb(0,0,0)" />
	<line x1="211.491" y1="1533.22" x2="217.484" y2="1547.93" stroke-width="1" stroke="rgb(0,0,0)" />
	<line x1="217.484" y1="1547.93" x2="222.275" y2="1558.79" stroke-width="1" stroke="rgb(0,0,0)" />
	<line x1="222.275" y1="1558.79" x2="227.701" y2="1570.5" stroke-width="1" stroke="rgb(0,0,0)" />
	<line x1="227.701" y1="1570.5" x2="234.49" y2="1584.12" stroke-width="1" stroke="rgb(0,0,0)" />
	<line x1="234.49" y1="1584.12" x2="224.481" y2="1589.14" stroke-width="1" stroke="rgb(0,0,0)" />
	<line x1="224.481" y1="1589.14" x2="231.345" y2="1602.75" stroke-width="1" stroke="rgb(0,0,0)" />
	<line x1="231.345" y1="1602.75" x2="241.243" y2="1597.51" stroke-width="1" stroke="rgb(0,0,0)" />
	<line x1="241.243" y1="1597.51" x2="246.755" y2="1607.72" stroke-width="1" stroke="rgb(0,0,0)" />
	<line x1="246.755" y1="1607.72" x2="236.952" y2="1613.13" stroke-width="1" stroke="rgb(0,0,0)" />
	<line x1="236.952" y1="1613.13" x2="249.179" y2="1634.42" stroke-width="1" stroke="rgb(0,0,0)" />
	<line x1="249.179" y1="1634.42" x2="258.792" y2="1628.67" stroke-width="1" stroke="rgb(0,0,0)" />
	<line x1="258.792" y1="1628.67" x2="266.93" y2="1641.94" stroke-width="1" stroke="rgb(0,0,0)" />
	<line x1="266.93" y1="1641.94" x2="257.45" y2="1647.9" stroke-width="1" stroke="rgb(0,0,0)" />
	<line x1="257.45" y1="1647.9" x2="269.305" y2="1666.12" stroke-width="1" stroke="rgb(0,0,0)" />
	<line x1="269.305" y1="1666.12" x2="278.596" y2="1659.87" stroke-width="1" stroke="rgb(0,0,0)" />
	<line x1="278.596" y1="1659.87" x2="285.471" y2="1669.89" stroke-width="1" stroke="rgb(0,0,0)" />
	<line x1="285.471" y1="1669.89" x2="276.291" y2="1676.3" stroke-width="1" stroke="rgb(0,0,0)" />
	<line x1="276.291" y1="1676.3" x2="283.664" y2="1686.65" stroke-width="1" stroke="rgb(0,0,0)" />
	<line x1="283.664" y1="1686.65" x2="292.719" y2="1680.06" stroke-width="1" stroke="rgb(0,0,0)" />
	<line x1="292.719" y1="1680.06" x2="302.906" y2="1693.65" stroke-width="1" stroke="rgb(0,0,0)" />
	<line x1="302.906" y1="1693.65" x2="326.091" y2="1722.41" stroke-width="1" stroke="rgb(0,0,0)" />
	<line x1="326.091" y1="1722.41" x2="317.548" y2="1729.65" stroke-width="1" stroke="rgb(0,0,0)" />
	<line x1="317.548" y1="1729.65" x2="321.126" y2="1733.81" stroke-width="1" stroke="rgb(0,0,0)" />
	<line x1="321.126" y1="1733.81" x2="329.588" y2="1726.47" stroke-width="1" stroke="rgb(0,0,0)" />
	<line x1="329.588" y1="1726.47" x2="336.668" y2="1734.51" stroke-width="1" stroke="rgb(0,0,0)" />
	<line x1="336.668" y1="1734.51" x2="328.321" y2="1741.98" stroke-width="1" stroke="rgb(0,0,0)" />
	<line x1="328.321" y1="1741.98" x2="348.396" y2="1763.49" stroke-width="1" stroke="rgb(0,0,0)" />
	<line x1="348.396" y1="1763.49" x2="356.421" y2="1755.68" stroke-width="1" stroke="rgb(0,0,0)" />
	<line x1="356.421" y1="1755.68" x2="366.879" y2="1766.19" stroke-width="1" stroke="rgb(0,0,0)" />
	<line x1="366.879" y1="1766.19" x2="359.024" y2="1774.17" stroke-width="1" stroke="rgb(0,0,0)" />
	<line x1="359.024" y1="1774.17" x2="365.361" y2="1780.33" stroke-width="1" stroke="rgb(0,0,0)" />
	<line x1="365.361" y1="1780.33" x2="373.099" y2="1772.23" stroke-width="1" stroke="rgb(0,0,0)" />
	<line x1="373.099" y1="1772.23" x2="382.141" y2="1780.76" stroke-width="1" stroke="rgb(0,0,0)" />
	<line x1="382.141" y1="1780.76" x2="374.546" y2="1788.99" stroke-width="1" stroke="rgb(0,0,0)" />
	<line x1="374.546" y1="1788.99" x2="390.094" y2="1802.94" stroke-width="1" stroke="rgb(0,0,0)" />
	<line x1="390.094" y1="1802.94" x2="408.424" y2="1818.38" stroke-width="1" stroke="rgb(0,0,0)" />
	<line x1="408.424" y1="1818.38" x2="409.355" y2="1819.14" stroke-width="1" stroke="rgb(0,0,0)" />
	<line x1="409.355" y1="1819.14" x2="416.395" y2="1810.43" stroke-width="1" stroke="rgb(0,0,0)" />
	<line x1="416.395" y1="1810.43" x2="431.047" y2="1821.97" stroke-width="1" stroke="rgb(0,0,0)" />
	<line x1="431.047" y1="1821.97" x2="448.258" y2="1834.74" stroke-width="1" stroke="rgb(0,0,0)" />
	<line x1="448.258" y1="1834.74" x2="441.726" y2="1843.84" stroke-width="1" stroke="rgb(0,0,0)" />
	<line x1="441.726" y1="1843.84" x2="465.309" y2="1860.05" stroke-width="1" stroke="rgb(0,0,0)" />
	<line x1="465.309" y1="1860.05" x2="471.464" y2="1850.69" stroke-width="1" stroke="rgb(0,0,0)" />
	<line x1="471.464" y1="1850.69" x2="484.494" y2="1859.06" stroke-width="1" stroke="rgb(0,0,0)" />
	<line x1="484.494" y1="1859.06" x2="478.551" y2="1868.55" stroke-width="1" stroke="rgb(0,0,0)" />
	<line x1="478.551" y1="1868.55" x2="492.815" y2="1877.22" stroke-width="1" stroke="rgb(0,0,0)" />
	<line x1="492.815" y1="1877.22" x2="498.503" y2="1867.57" stroke-width="1" stroke="rgb(0,0,0)" />
	<line x1="498.503" y1="1867.57" x2="511.384" y2="1875.03" stroke-width="1" stroke="rgb(0,0,0)" />
	<line x1="511.384" y1="1875.03" x2="505.878" y2="1884.79" stroke-width="1" stroke="rgb(0,0,0)" />
	<line x1="505.878" y1="1884.79" x2="517.886" y2="1891.43" stroke-width="1" stroke="rgb(0,0,0)" />
	<line x1="517.886" y1="1891.43" x2="523.199" y2="1881.57" stroke-width="1" stroke="rgb(0,0,0)" />
	<line x1="523.199" y1="1881.57" x2="536.91" y2="1888.76" stroke-width="1" stroke="rgb(0,0,0)" />
	<line x1="536.91" y1="1888.76" x2="531.819" y2="1898.74" stroke-width="1" stroke="rgb(0,0,0)" />
	<line x1="531.819" y1="1898.74" x2="545.66" y2="1905.61" stroke-width="1" stroke="rgb(0,0,0)" />
	<line x1="545.66" y1="1905.61" x2="550.518" y2="1895.52" stroke-width="1" stroke="rgb(0,0,0)" />
	<line x1="550.518" y1="1895.52" x2="567.425" y2="1903.4" stroke-width="1" stroke="rgb(0,0,0)" />
	<line x1="567.425" y1="1903.4" x2="587.103" y2="1911.89" stroke-width="1" stroke="rgb(0,0,0)" />
	<line x1="587.103" y1="1911.89" x2="582.829" y2="1922.24" stroke-width="1" stroke="rgb(0,0,0)" />
	<line x1="582.829" y1="1922.24" x2="594.462" y2="1926.92" stroke-width="1" stroke="rgb(0,0,0)" />
	<line x1="594.462" y1="1926.92" x2="598.55" y2="1916.5" stroke-width="1" stroke="rgb(0,0,0)" />
	<line x1="598.55" y1="1916.5" x2="610.734" y2="1921.14" stroke-width="1" stroke="rgb(0,0,0)" />
	<line x1="610.734" y1="1921.14" x2="628.304" y2="1927.35" stroke-width="1" stroke="rgb(0,0,0)" />
	<line x1="628.304" y1="1927.35" x2="624.668" y2="1937.94" stroke-width="1" stroke="rgb(0,0,0)" />
	<line x1="624.668" y1="1937.94" x2="645.534" y2="1944.7" stroke-width="1" stroke="rgb(0,0,0)" />
	<line x1="645.534" y1="1944.7" x2="648.809" y2="1933.99" stroke-width="1" stroke="rgb(0,0,0)" />
	<line x1="648.809" y1="1933.99" x2="662.538" y2="1938" stroke-width="1" stroke="rgb(0,0,0)" />
	<line x1="662.538" y1="1938" x2="700.972" y2="1947.75" stroke-width="1" stroke="rgb(0,0,0)" />
	<line x1="700.972" y1="1947.75" x2="698.538" y2="1958.65" stroke-width="1" stroke="rgb(0,0,0)" />
	<line x1="698.538" y1="1958.65" x2="710.772" y2="1961.24" stroke-width="1" stroke="rgb(0,0,0)" />
	<line x1="710.772" y1="1961.24" x2="712.9" y2="1950.25" stroke-width="1" stroke="rgb(0,0,0)" />
	<line x1="712.9" y1="1950.25" x2="740.255" y2="1955.23" stroke-width="1" stroke="rgb(0,0,0)" />
	<line x1="740.255" y1="1955.23" x2="738.486" y2="1966.29" stroke-width="1" stroke="rgb(0,0,0)" />
	<line x1="738.486" y1="1966.29" x2="795.977" y2="1973.14" stroke-width="1" stroke="rgb(0,0,0)" />
	<line x1="795.977" y1="1973.14" x2="868.024" y2="1975" stroke-width="1" stroke="rgb(0,0,0)" />
	<line x1="868.024" y1="1975" x2="916.673" y2="1971.23" stroke-width="1" stroke="rgb(0,0,0)" />
</svg>
