<?xml version="1.0" encoding="UTF-8" standalone="yes"?>
<!DOCTYPE svg PUBLIC "-//W3C//DTD SVG 1.0//EN" "http://www.w3.org/TR/2001/REC-SVG-20010904/DTD/svg10.dtd">
<svg width="1" height="1" xmlns="http://www.w3.org/2000/svg" xmlns:svg="http://www.w3.org/2000/svg" xmlns:xlink="http://www.w3.org/1999/xlink" xmlns:slic3r="http://slic3r.org/namespaces/slic3r">
  <!-- 
  Generated using Slic3r 1.3.0
  http://slic3r.org/
   -->
  <g id="layer0" slic3r:z="2.5e-008">
    <polygon slic3r:type="contour" points="0.999999,1 0,1 0,0 0.999999,0" style="fill: white" />
    <polygon slic3r:type="hole" points="0.390736,0.271999 0.326201,0.309258 0.275512,0.363887 0.24318,0.431025 0.232072,0.504719 0.243178,0.578404 0.275513,0.645548 0.326201,0.700176 0.390734,0.737434 0.46339,0.754018 0.537704,0.748448 0.60707,0.721224 0.665336,0.674758 0.707314,0.613188 0.72928,0.541977 0.72928,0.467455 0.707315,0.396247 0.665335,0.334674 0.607072,0.28821 0.537703,0.260985 0.463391,0.255416" style="fill: black" />
  </g>
  <g id="layer1" slic3r:z="7.5e-008">
    <polygon slic3r:type="contour" points="0.999999,1 0,1 0,0 0.999999,0" style="fill: white" />
    <polygon slic3r:type="hole" points="0.390735,0.271999 0.3262,0.309258 0.275513,0.363886 0.243178,0.431028 0.232073,0.504716 0.243179,0.578406 0.275513,0.645548 0.326201,0.700176 0.390734,0.737434 0.463392,0.754018 0.537702,0.748449 0.607071,0.721224 0.665337,0.674757 0.707314,0.613188 0.72928,0.541978 0.72928,0.467455 0.707315,0.396247 0.665333,0.334672 0.607073,0.288211 0.537705,0.260985 0.46339,0.255416" style="fill: black" />
  </g>
  <g id="layer2" slic3r:z="1.25e-007">
    <polygon slic3r:type="contour" points="0.999999,1 0,1 0,0 0.999999,0" style="fill: white" />
    <polygon slic3r:type="hole" points="0.390737,0.271998 0.326199,0.309259 0.275512,0.363887 0.243179,0.431027 0.232072,0.504717 0.243179,0.578406 0.275513,0.645547 0.3262,0.700175 0.399819,0.739509 0.46339,0.754018 0.537702,0.748449 0.607073,0.721224 0.670583,0.667063 0.707314,0.613188 0.72928,0.541977 0.72928,0.467456 0.707314,0.396245 0.665335,0.334673 0.607072,0.28821 0.537702,0.260984 0.454307,0.257489" style="fill: black" />
  </g>
  <g id="layer3" slic3r:z="1.75e-007">
    <polygon slic3r:type="contour" points="0.999999,1 0,1 0,0 0.999999,0" style="fill: white" />
    <polygon slic3r:type="hole" points="0.390736,0.271999 0.3262,0.309258 0.275512,0.363887 0.243179,0.431028 0.232072,0.504717 0.243179,0.578406 0.275513,0.645546 0.3262,0.700175 0.390736,0.737435 0.463389,0.754018 0.537703,0.748449 0.607072,0.721224 0.665334,0.67476 0.707315,0.613187 0.731087,0.536117 0.72928,0.467456 0.707315,0.396246 0.665334,0.334673 0.607073,0.28821 0.537703,0.260985 0.450675,0.258318" style="fill: black" />
  </g>
  <g id="layer4" slic3r:z="2.25e-007">
    <polygon slic3r:type="contour" points="0.999999,1 0,1 0,0 0.999999,0" style="fill: white" />
    <polygon slic3r:type="hole" points="0.390736,0.271999 0.3262,0.309258 0.275512,0.363887 0.243178,0.431027 0.232073,0.504717 0.243179,0.578406 0.275512,0.645546 0.3262,0.700175 0.407084,0.741167 0.46339,0.754018 0.537702,0.748449 0.607073,0.721224 0.665335,0.674759 0.707315,0.613187 0.72928,0.541977 0.72928,0.467457 0.707314,0.396245 0.665335,0.334674 0.607072,0.28821 0.537702,0.260985 0.447042,0.259147" style="fill: black" />
  </g>
  <g id="layer5" slic3r:z="2.75e-007">
    <polygon slic3r:type="contour" points="0.999999,1 0,1 0,0 0.999999,0" style="fill: white" />
    <polygon slic3r:type="hole" points="0.390737,0.271999 0.326199,0.309259 0.275513,0.363886 0.243179,0.431028 0.232072,0.504717 0.243178,0.578405 0.289451,0.660569 0.326199,0.700174 0.390737,0.737436 0.46339,0.754018 0.537703,0.748449 0.607072,0.721224 0.665335,0.674759 0.707315,0.613188 0.72928,0.541977 0.72928,0.467456 0.707315,0.396245 0.665334,0.334673 0.607073,0.288211 0.537702,0.260985 0.443409,0.259977" style="fill: black" />
  </g>
  <g id="layer6" slic3r:z="3.25e-007">
    <polygon slic3r:type="contour" points="0.999999,1 0,1 0,0 0.999999,0" style="fill: white" />
    <polygon slic3r:type="hole" points="0.439778,0.260805 0.390736,0.271999 0.3262,0.309258 0.275513,0.363887 0.243179,0.431028 0.239569,0.454977 0.232073,0.504716 0.243179,0.578405 0.275513,0.645547 0.3262,0.700175 0.390736,0.737435 0.46339,0.754018 0.537702,0.748449 0.607072,0.721224 0.665335,0.674759 0.678978,0.65475 0.707315,0.613188 0.72928,0.541978 0.72928,0.467457 0.707315,0.396246 0.665334,0.334673 0.607072,0.28821 0.537702,0.260985 0.46339,0.255415" style="fill: black" />
  </g>
  <g id="layer7" slic3r:z="3.75e-007">
    <polygon slic3r:type="contour" points="0.999999,1 0,1 0,0 0.999999,0" style="fill: white" />
    <polygon slic3r:type="hole" points="0.512928,0.259128 0.46339,0.255416 0.390737,0.271999 0.326199,0.309258 0.275513,0.363886 0.243178,0.431028 0.232072,0.504717 0.243179,0.578405 0.275513,0.645547 0.326199,0.700174 0.390737,0.737436 0.46339,0.754018 0.537703,0.748448 0.607072,0.721224 0.665334,0.67476 0.681078,0.65167 0.707315,0.613188 0.72928,0.541978 0.72928,0.467457 0.707315,0.396246 0.665335,0.334674 0.607073,0.28821 0.512928,0.251261" style="fill: black" />
  </g>
  <g id="layer8" slic3r:z="4.25e-007">
    <polygon slic3r:type="contour" points="0.999999,1 0,1 0,0 0.999999,0" style="fill: white" />
    <polygon slic3r:type="hole" points="0.432513,0.262463 0.390736,0.271999 0.3262,0.309259 0.275513,0.363886 0.243178,0.431028 0.232073,0.504717 0.243178,0.578405 0.275513,0.645547 0.3262,0.700175 0.353628,0.716011 0.390736,0.737435 0.463389,0.754018 0.537703,0.748449 0.607073,0.721223 0.665335,0.67476 0.707315,0.613187 0.72928,0.541977 0.72928,0.467457 0.707314,0.396245 0.665335,0.334674 0.607073,0.288211 0.537703,0.260985 0.46339,0.255415" style="fill: black" />
  </g>
  <g id="layer9" slic3r:z="4.75e-007">
    <polygon slic3r:type="contour" points="0.999999,1 0,1 0,0 0.999999,0" style="fill: white" />
    <polygon slic3r:type="hole" points="0.428879,0.263293 0.390737,0.271998 0.3262,0.309258 0.275512,0.363887 0.243179,0.431027 0.232073,0.504716 0.243178,0.578405 0.275512,0.645547 0.326199,0.700174 0.356855,0.717874 0.390737,0.737436 0.463389,0.754018 0.537703,0.748448 0.607073,0.721224 0.678401,0.664339 0.707315,0.613187 0.72928,0.541978 0.72928,0.467457 0.707315,0.396246 0.665334,0.334673 0.607073,0.28821 0.537702,0.260985 0.46339,0.255416" style="fill: black" />
  </g>
  <g id="layer10" slic3r:z="5.25e-007">
    <polygon slic3r:type="contour" points="0.999999,1 0,1 0,0 0.999999,0" style="fill: white" />
    <polygon slic3r:type="hole" points="0.386451,0.272976 0.3262,0.309259 0.275512,0.363887 0.243179,0.431028 0.232072,0.504717 0.243179,0.578406 0.275513,0.645546 0.326199,0.700175 0.390737,0.737436 0.463389,0.754018 0.502403,0.751095 0.537703,0.748449 0.607072,0.721224 0.665334,0.67476 0.707315,0.613188 0.72928,0.541978 0.72928,0.467456 0.707315,0.396246 0.665335,0.334674 0.607073,0.288211 0.537703,0.260985 0.463389,0.255416" style="fill: black" />
  </g>
  <g id="layer11" slic3r:z="5.75e-007">
    <polygon slic3r:type="contour" points="0.999999,1 0,1 0,0 0.999999,0" style="fill: white" />
    <polygon slic3r:type="hole" points="0.421615,0.26495 0.390737,0.271999 0.3262,0.309259 0.275513,0.363886 0.243179,0.431027 0.232073,0.504717 0.243178,0.578405 0.275513,0.645547 0.3262,0.700175 0.390736,0.737435 0.46339,0.754018 0.537703,0.748448 0.609259,0.720365 0.665335,0.67476 0.707314,0.613188 0.72928,0.541978 0.72928,0.467457 0.707315,0.396245 0.665335,0.334673 0.607073,0.28821 0.537703,0.260984 0.463389,0.255416" style="fill: black" />
  </g>
  <g id="layer12" slic3r:z="6.25e-007">
    <polygon slic3r:type="contour" points="0.999999,1 0,1 0,0 0.999999,0" style="fill: white" />
    <polygon slic3r:type="hole" points="0.417981,0.26578 0.390736,0.271999 0.326199,0.309259 0.275513,0.363886 0.243178,0.431028 0.232072,0.504717 0.243179,0.578406 0.275513,0.645547 0.307191,0.679689 0.3262,0.700175 0.390737,0.737436 0.463389,0.754018 0.537702,0.748449 0.607072,0.721224 0.665335,0.674759 0.707315,0.613187 0.72928,0.541978 0.72928,0.467457 0.707314,0.396245 0.665334,0.334674 0.607072,0.28821 0.537703,0.260985 0.46339,0.255415" style="fill: black" />
  </g>
  <g id="layer13" slic3r:z="6.75e-007">
    <polygon slic3r:type="contour" points="0.999999,1 0,1 0,0 0.999999,0" style="fill: white" />
    <polygon slic3r:type="hole" points="0.414348,0.26661 0.390737,0.271999 0.326199,0.309259 0.275512,0.363887 0.243178,0.431028 0.232073,0.504717 0.243179,0.578406 0.275513,0.645547 0.3262,0.700175 0.390736,0.737435 0.46339,0.754018 0.537703,0.748449 0.607072,0.721224 0.665335,0.674759 0.707315,0.613188 0.72928,0.541977 0.72928,0.467456 0.707315,0.396246 0.665335,0.334674 0.607072,0.288211 0.537702,0.260984 0.46339,0.255416" style="fill: black" />
  </g>
  <g id="layer14" slic3r:z="7.25e-007">
    <polygon slic3r:type="contour" points="0.999999,1 0,1 0,0 0.999999,0" style="fill: white" />
    <polygon slic3r:type="hole" points="0.410717,0.267438 0.3262,0.309259 0.275513,0.363886 0.243179,0.431028 0.235126,0.484453 0.243179,0.578406 0.275513,0.645547 0.326199,0.700175 0.390737,0.737436 0.46339,0.754018 0.537703,0.748449 0.619665,0.716281 0.665334,0.67476 0.707315,0.613187 0.72928,0.541978 0.72928,0.467456 0.707314,0.396245 0.665335,0.334674 0.607073,0.288211 0.537703,0.260984 0.46339,0.255415" style="fill: black" />
  </g>
  <g id="layer15" slic3r:z="7.75e-007">
    <polygon slic3r:type="contour" points="0.999999,1 0,1 0,0 0.999999,0" style="fill: white" />
    <polygon slic3r:type="hole" points="0.407084,0.268267 0.3262,0.309258 0.275513,0.363886 0.243179,0.431027 0.232073,0.504716 0.243178,0.578405 0.275513,0.645547 0.326199,0.700175 0.390737,0.737436 0.46339,0.754018 0.537702,0.748449 0.607072,0.721224 0.665335,0.674759 0.707314,0.613188 0.724338,0.557999 0.72928,0.467457 0.707315,0.396246 0.665335,0.334674 0.607072,0.28821 0.537702,0.260985 0.46339,0.255416" style="fill: black" />
  </g>
  <g id="layer16" slic3r:z="8.25e-007">
    <polygon slic3r:type="contour" points="0.999999,1 0,1 0,0 0.999999,0" style="fill: white" />
    <polygon slic3r:type="hole" points="0.403451,0.269097 0.3262,0.309259 0.275512,0.363887 0.243178,0.431028 0.232073,0.504717 0.243179,0.578406 0.275512,0.645546 0.3262,0.700175 0.390736,0.737435 0.450676,0.751116 0.537702,0.748449 0.607072,0.721224 0.665334,0.67476 0.707315,0.613188 0.72928,0.541978 0.72928,0.467456 0.707315,0.396246 0.665334,0.334673 0.607073,0.288211 0.537703,0.260985 0.46339,0.255416" style="fill: black" />
  </g>
  <g id="layer17" slic3r:z="8.75e-007">
    <polygon slic3r:type="contour" points="0.999999,1 0,1 0,0 0.999999,0" style="fill: white" />
    <polygon slic3r:type="hole" points="0.361023,0.278781 0.361023,0.289154 0.326199,0.309259 0.275512,0.363887 0.243179,0.431027 0.232073,0.504717 0.243178,0.578405 0.275513,0.645547 0.3262,0.700175 0.390736,0.737436 0.463389,0.754018 0.537702,0.748449 0.607073,0.721223 0.665335,0.67476 0.707314,0.613188 0.726535,0.550878 0.72928,0.467457 0.707314,0.396245 0.665334,0.334673 0.607073,0.288211 0.537703,0.260985 0.46339,0.255415" style="fill: black" />
  </g>
  <g id="layer18" slic3r:z="9.25e-007">
    <polygon slic3r:type="contour" points="0.999999,1 0,1 0,0 0.999999,0" style="fill: white" />
    <polygon slic3r:type="hole" points="0.390737,0.271998 0.326199,0.309259 0.275513,0.363885 0.243178,0.431028 0.232073,0.504717 0.243178,0.578405 0.275512,0.645546 0.326198,0.700174 0.390738,0.737436 0.463387,0.754018 0.537702,0.748449 0.607072,0.721224 0.665333,0.674761 0.707315,0.613186 0.72928,0.541979 0.72928,0.467457 0.707314,0.396244 0.665336,0.334674 0.60707,0.28821 0.537703,0.260985 0.463388,0.255416" style="fill: black" />
  </g>
  <g id="layer19" slic3r:z="9.75e-007">
    <polygon slic3r:type="contour" points="0.999999,1 0,1 0,0 0.999999,0" style="fill: white" />
    <polygon slic3r:type="hole" points="0.390737,0.271998 0.326199,0.309259 0.275512,0.363888 0.243178,0.43103 0.232072,0.504714 0.243179,0.578407 0.275511,0.645544 0.326201,0.700175 0.390739,0.737436 0.463388,0.754018 0.5377,0.748449 0.607075,0.721222 0.665333,0.674761 0.707315,0.613187 0.72928,0.541978 0.72928,0.467457 0.707314,0.396245 0.665336,0.334675 0.60707,0.28821 0.537701,0.260984 0.463387,0.255416" style="fill: black" />
  </g>
</svg>
