<?xml version="1.0" encoding="UTF-8" standalone="yes"?>
<!DOCTYPE svg PUBLIC "-//W3C//DTD SVG 1.0//EN" "http://www.w3.org/TR/2001/REC-SVG-20010904/DTD/svg10.dtd">
<svg width="1" height="1" xmlns="http://www.w3.org/2000/svg" xmlns:svg="http://www.w3.org/2000/svg" xmlns:xlink="http://www.w3.org/1999/xlink" xmlns:slic3r="http://slic3r.org/namespaces/slic3r">
  <!-- 
  Generated using Slic3r 1.3.0
  http://slic3r.org/
   -->
  <g id="layer0" slic3r:z="2.5e-008">
    <polygon slic3r:type="contour" points="1,1 0,1 0,0 1,0" style="fill: white" />
  </g>
  <g id="layer1" slic3r:z="7.5e-008">
    <polygon slic3r:type="contour" points="1,1 0,1 0,0 1,0" style="fill: white" />
  </g>
  <g id="layer2" slic3r:z="1.25e-007">
    <polygon slic3r:type="contour" points="1,1 0,1 0,0 1,0" style="fill: white" />
  </g>
  <g id="layer3" slic3r:z="1.75e-007">
    <polygon slic3r:type="contour" points="1,1 0,1 0,0 1,0" style="fill: white" />
  </g>
  <g id="layer4" slic3r:z="2.25e-007">
    <polygon slic3r:type="contour" points="1,1 0,1 0,0 1,0" style="fill: white" />
  </g>
  <g id="layer5" slic3r:z="2.75e-007">
    <polygon slic3r:type="contour" points="1,1 0,1 0,0 1,0" style="fill: white" />
  </g>
  <g id="layer6" slic3r:z="3.25e-007">
    <polygon slic3r:type="contour" points="1,1 0,1 0,0 1,0" style="fill: white" />
  </g>
  <g id="layer7" slic3r:z="3.75e-007">
    <polygon slic3r:type="contour" points="1,1 0,1 0,0 1,0" style="fill: white" />
  </g>
  <g id="layer8" slic3r:z="4.25e-007">
    <polygon slic3r:type="contour" points="1,1 0,1 0,0 1,0" style="fill: white" />
  </g>
  <g id="layer9" slic3r:z="4.75e-007">
    <polygon slic3r:type="contour" points="1,1 0,1 0,0 1,0" style="fill: white" />
  </g>
  <g id="layer10" slic3r:z="5.25e-007">
    <polygon slic3r:type="contour" points="1,1 0,1 0,0 1,0" style="fill: white" />
  </g>
  <g id="layer11" slic3r:z="5.75e-007">
    <polygon slic3r:type="contour" points="1,1 0,1 0,0 1,0" style="fill: white" />
  </g>
  <g id="layer12" slic3r:z="6.25e-007">
    <polygon slic3r:type="contour" points="1,1 0,1 0,0 1,0" style="fill: white" />
  </g>
  <g id="layer13" slic3r:z="6.75e-007">
    <polygon slic3r:type="contour" points="1,1 0,1 0,0 1,0" style="fill: white" />
  </g>
  <g id="layer14" slic3r:z="7.25e-007">
    <polygon slic3r:type="contour" points="1,1 0,1 0,0 1,0" style="fill: white" />
  </g>
  <g id="layer15" slic3r:z="7.75e-007">
    <polygon slic3r:type="contour" points="1,1 0,1 0,0 1,0" style="fill: white" />
  </g>
  <g id="layer16" slic3r:z="8.25e-007">
    <polygon slic3r:type="contour" points="1,1 0,1 0,0 1,0" style="fill: white" />
  </g>
  <g id="layer17" slic3r:z="8.75e-007">
    <polygon slic3r:type="contour" points="1,1 0,1 0,0 1,0" style="fill: white" />
  </g>
  <g id="layer18" slic3r:z="9.25e-007">
    <polygon slic3r:type="contour" points="1,1 0,1 0,0 1,0" style="fill: white" />
  </g>
  <g id="layer19" slic3r:z="9.75e-007">
    <polygon slic3r:type="contour" points="1,1 0,1 0,0 1,0" style="fill: white" />
  </g>
</svg>
